<svg width="846" height="159" viewBox="0 0 846 159" fill="none" xmlns="http://www.w3.org/2000/svg">
<path d="M203.454 107.55V109.778H175.628V103.499H163.529V13.1652H157.48V0H149.818V12.1525H147.802V91.3463H142.156V20.8618H84.0836V28.9635L89.9311 28.7609L72.1869 74.3328H9.67869V117.879H0V129.829H9.67869V133.475H177.039V130.234H320.808V107.752H203.454V107.55ZM116.951 73.7251H93.9639L104.449 31.1914H117.152V73.7251H116.951Z" fill="#FFDB60"/>
<path d="M224.8 65.5667H376.645V110.436H845.341V128.792H352.147V110.844L345.264 83.3104H264.077L253.954 95.1396H224.8V65.5667Z" fill="#8499A7" stroke="#455C75" stroke-miterlimit="10"/>
<path d="M43.6202 159C55.6655 159 65.4301 149.235 65.4301 137.19C65.4301 125.145 55.6655 115.38 43.6202 115.38C31.5749 115.38 21.8103 125.145 21.8103 137.19C21.8103 149.235 31.5749 159 43.6202 159Z" fill="#314254"/>
<path opacity="0.3" d="M43.6204 151.326C51.4276 151.326 57.7565 144.997 57.7565 137.19C57.7565 129.383 51.4276 123.054 43.6204 123.054C35.8133 123.054 29.4844 129.383 29.4844 137.19C29.4844 144.997 35.8133 151.326 43.6204 151.326Z" fill="white"/>
<path d="M43.62 145.47C48.1928 145.47 51.8997 141.763 51.8997 137.19C51.8997 132.617 48.1928 128.91 43.62 128.91C39.0473 128.91 35.3403 132.617 35.3403 137.19C35.3403 141.763 39.0473 145.47 43.62 145.47Z" fill="white"/>
<path d="M43.6199 138.402C44.289 138.402 44.8315 137.859 44.8315 137.19C44.8315 136.521 44.289 135.978 43.6199 135.978C42.9507 135.978 42.4082 136.521 42.4082 137.19C42.4082 137.859 42.9507 138.402 43.6199 138.402Z" fill="#314254"/>
<path d="M193.058 159C205.103 159 214.868 149.235 214.868 137.19C214.868 125.145 205.103 115.38 193.058 115.38C181.013 115.38 171.248 125.145 171.248 137.19C171.248 149.235 181.013 159 193.058 159Z" fill="#314254"/>
<path opacity="0.3" d="M193.058 151.326C200.865 151.326 207.194 144.997 207.194 137.19C207.194 129.383 200.865 123.054 193.058 123.054C185.251 123.054 178.922 129.383 178.922 137.19C178.922 144.997 185.251 151.326 193.058 151.326Z" fill="white"/>
<path d="M193.058 145.47C197.631 145.47 201.337 141.763 201.337 137.19C201.337 132.617 197.631 128.91 193.058 128.91C188.485 128.91 184.778 132.617 184.778 137.19C184.778 141.763 188.485 145.47 193.058 145.47Z" fill="white"/>
<path d="M193.058 138.402C193.727 138.402 194.269 137.859 194.269 137.19C194.269 136.521 193.727 135.978 193.058 135.978C192.388 135.978 191.846 136.521 191.846 137.19C191.846 137.859 192.388 138.402 193.058 138.402Z" fill="#314254"/>
<path d="M240.919 159C252.965 159 262.729 149.235 262.729 137.19C262.729 125.145 252.965 115.38 240.919 115.38C228.874 115.38 219.109 125.145 219.109 137.19C219.109 149.235 228.874 159 240.919 159Z" fill="#314254"/>
<path opacity="0.3" d="M240.919 151.326C248.726 151.326 255.055 144.997 255.055 137.19C255.055 129.383 248.726 123.054 240.919 123.054C233.112 123.054 226.783 129.383 226.783 137.19C226.783 144.997 233.112 151.326 240.919 151.326Z" fill="white"/>
<path d="M240.92 145.47C245.493 145.47 249.2 141.763 249.2 137.19C249.2 132.617 245.493 128.91 240.92 128.91C236.347 128.91 232.64 132.617 232.64 137.19C232.64 141.763 236.347 145.47 240.92 145.47Z" fill="white"/>
<path d="M240.919 138.402C241.588 138.402 242.13 137.859 242.13 137.19C242.13 136.521 241.588 135.978 240.919 135.978C240.25 135.978 239.707 136.521 239.707 137.19C239.707 137.859 240.25 138.402 240.919 138.402Z" fill="#314254"/>
<path d="M288.779 159C300.824 159 310.589 149.235 310.589 137.19C310.589 125.145 300.824 115.38 288.779 115.38C276.734 115.38 266.969 125.145 266.969 137.19C266.969 149.235 276.734 159 288.779 159Z" fill="#314254"/>
<path opacity="0.3" d="M288.779 151.326C296.586 151.326 302.915 144.997 302.915 137.19C302.915 129.383 296.586 123.054 288.779 123.054C280.972 123.054 274.643 129.383 274.643 137.19C274.643 144.997 280.972 151.326 288.779 151.326Z" fill="white"/>
<path d="M288.78 145.47C293.352 145.47 297.059 141.763 297.059 137.19C297.059 132.617 293.352 128.91 288.78 128.91C284.207 128.91 280.5 132.617 280.5 137.19C280.5 141.763 284.207 145.47 288.78 145.47Z" fill="white"/>
<path d="M288.779 138.402C289.448 138.402 289.991 137.859 289.991 137.19C289.991 136.521 289.448 135.978 288.779 135.978C288.11 135.978 287.568 136.521 287.568 137.19C287.568 137.859 288.11 138.402 288.779 138.402Z" fill="#314254"/>
<path d="M717.102 159C729.147 159 738.912 149.235 738.912 137.19C738.912 125.145 729.147 115.38 717.102 115.38C705.057 115.38 695.292 125.145 695.292 137.19C695.292 149.235 705.057 159 717.102 159Z" fill="#314254"/>
<path opacity="0.3" d="M717.102 151.326C724.909 151.326 731.238 144.997 731.238 137.19C731.238 129.383 724.909 123.054 717.102 123.054C709.295 123.054 702.966 129.383 702.966 137.19C702.966 144.997 709.295 151.326 717.102 151.326Z" fill="white"/>
<path d="M717.102 145.47C721.674 145.47 725.381 141.763 725.381 137.19C725.381 132.617 721.674 128.91 717.102 128.91C712.529 128.91 708.822 132.617 708.822 137.19C708.822 141.763 712.529 145.47 717.102 145.47Z" fill="white"/>
<path d="M717.102 138.402C717.771 138.402 718.313 137.859 718.313 137.19C718.313 136.521 717.771 135.978 717.102 135.978C716.432 135.978 715.89 136.521 715.89 137.19C715.89 137.859 716.432 138.402 717.102 138.402Z" fill="#314254"/>
<path d="M764.76 159C776.805 159 786.57 149.235 786.57 137.19C786.57 125.145 776.805 115.38 764.76 115.38C752.715 115.38 742.95 125.145 742.95 137.19C742.95 149.235 752.715 159 764.76 159Z" fill="#314254"/>
<path opacity="0.3" d="M764.759 151.326C772.566 151.326 778.895 144.997 778.895 137.19C778.895 129.383 772.566 123.054 764.759 123.054C756.952 123.054 750.623 129.383 750.623 137.19C750.623 144.997 756.952 151.326 764.759 151.326Z" fill="white"/>
<path d="M764.759 145.47C769.332 145.47 773.039 141.763 773.039 137.19C773.039 132.617 769.332 128.91 764.759 128.91C760.186 128.91 756.479 132.617 756.479 137.19C756.479 141.763 760.186 145.47 764.759 145.47Z" fill="white"/>
<path d="M764.76 138.402C765.429 138.402 765.971 137.859 765.971 137.19C765.971 136.521 765.429 135.978 764.76 135.978C764.09 135.978 763.548 136.521 763.548 137.19C763.548 137.859 764.09 138.402 764.76 138.402Z" fill="#314254"/>
<path d="M812.621 159C824.666 159 834.431 149.235 834.431 137.19C834.431 125.145 824.666 115.38 812.621 115.38C800.576 115.38 790.811 125.145 790.811 137.19C790.811 149.235 800.576 159 812.621 159Z" fill="#314254"/>
<path opacity="0.3" d="M812.62 151.326C820.428 151.326 826.756 144.997 826.756 137.19C826.756 129.383 820.428 123.054 812.62 123.054C804.813 123.054 798.484 129.383 798.484 137.19C798.484 144.997 804.813 151.326 812.62 151.326Z" fill="white"/>
<path d="M812.62 145.47C817.193 145.47 820.9 141.763 820.9 137.19C820.9 132.617 817.193 128.91 812.62 128.91C808.047 128.91 804.34 132.617 804.34 137.19C804.34 141.763 808.047 145.47 812.62 145.47Z" fill="white"/>
<path d="M812.621 138.402C813.29 138.402 813.832 137.859 813.832 137.19C813.832 136.521 813.29 135.978 812.621 135.978C811.951 135.978 811.409 136.521 811.409 137.19C811.409 137.859 811.951 138.402 812.621 138.402Z" fill="#314254"/>
<path d="M377.008 110.058H353.591V128.792H377.008V110.058Z" fill="#8499A7" stroke="#455C75" stroke-miterlimit="10"/>
</svg>
