<svg class="tracto-remolque-con-2-ejes-delanteros transport-item is-hidden" width="647" height="133" viewBox="0 0 647 133" fill="none" xmlns="http://www.w3.org/2000/svg">
    <path d="M321.571 94.864H329.299V92.5106H375.499L381.211 90.1572H636.237V106.631H381.211L375.499 104.277H328.795V102.26H321.571V94.864Z" fill="#DCE9EF" stroke="#65819B" stroke-width="1.0365" stroke-miterlimit="10"/>
    <path d="M321.739 62.2531H174.402V85.4506H321.739V62.2531Z" fill="#314254"/>
    <path d="M174.738 88.8126V92.0065H150.714V86.1231H139.962V11.3199H135.426V0.393555H129.546V10.9836H127.362V76.8777H122.658V17.7075H72.2574L72.5934 25.7762H78.8095L64.0254 61.4128H10.2651V98.7303H0.520996V107.976H9.76105V112.178H160.962V107.639H321.907V88.8126H174.738ZM100.482 61.749H79.4815L89.0575 26.7848H100.482V61.749Z" fill="#EF8425"/>

    <g class="is-hidden-eje">
        <path d="M36.9772 129.156C47.0907 129.156 55.2893 120.953 55.2893 110.833C55.2893 100.714 47.0907 92.5106 36.9772 92.5106C26.8636 92.5106 18.665 100.714 18.665 110.833C18.665 120.953 26.8636 129.156 36.9772 129.156Z" fill="#3B5266"/>
        <path d="M24.5452 110.833C24.5452 105.959 27.2332 101.924 31.2652 99.7389L30.5932 98.7303C26.2252 101.084 23.2012 105.622 23.2012 110.833C23.2012 116.044 26.2252 120.583 30.5932 122.936L31.2652 121.928C27.4012 119.742 24.5452 115.54 24.5452 110.833Z" fill="#76C1AA"/>
        <path d="M43.3612 98.7303L42.8572 99.7389C46.8892 101.756 49.7452 105.959 49.7452 110.833C49.7452 115.708 46.8892 119.911 42.8572 121.928L43.3612 122.936C47.7292 120.583 50.7533 116.044 50.7533 110.833C50.5852 105.454 47.7292 100.916 43.3612 98.7303Z" fill="#76C1AA"/>
        <path opacity="0.3" d="M36.9771 113.523C38.4616 113.523 39.6651 112.319 39.6651 110.833C39.6651 109.348 38.4616 108.144 36.9771 108.144C35.4925 108.144 34.2891 109.348 34.2891 110.833C34.2891 112.319 35.4925 113.523 36.9771 113.523Z" fill="white"/>
        <path opacity="0.3" d="M38.657 108.816L41.6811 105.79C40.505 104.614 38.993 103.941 37.145 103.941V108.312C37.649 108.312 38.153 108.48 38.657 108.816Z" fill="white"/>
        <path opacity="0.3" d="M39.6651 110.665H44.0332C44.0332 108.984 43.3612 107.303 42.1852 106.126L39.1611 109.152C39.3291 109.657 39.4971 110.161 39.6651 110.665Z" fill="white"/>
        <path opacity="0.3" d="M38.8252 112.682L41.8492 115.708C43.0252 114.531 43.6972 113.018 43.6972 111.337H39.3292C39.4972 111.842 39.1612 112.178 38.8252 112.682Z" fill="white"/>
        <path opacity="0.3" d="M35.4652 112.85L32.4412 115.876C33.6172 116.885 34.9612 117.557 36.6412 117.557V113.187C36.1372 113.355 35.8012 113.187 35.4652 112.85Z" fill="white"/>
        <path opacity="0.3" d="M37.145 113.355V117.725C38.825 117.725 40.3371 117.053 41.3451 116.044L38.321 113.018C37.985 113.187 37.649 113.355 37.145 113.355Z" fill="white"/>
        <path opacity="0.3" d="M34.7932 109.32L31.7691 106.295C30.7611 107.471 30.0891 108.984 30.0891 110.665H34.4571C34.2891 110.161 34.4571 109.825 34.7932 109.32Z" fill="white"/>
        <path opacity="0.3" d="M34.4572 111.337H30.0891C30.2571 113.018 30.9291 114.363 31.9371 115.54L34.9612 112.514C34.6252 112.178 34.4572 111.842 34.4572 111.337Z" fill="white"/>
        <path opacity="0.3" d="M36.473 108.312V103.941C34.793 104.109 33.281 104.782 32.105 105.79L35.129 108.816C35.465 108.48 35.969 108.312 36.473 108.312Z" fill="white"/>
        <path d="M37.1451 102.933C36.6411 102.933 35.9691 102.933 35.4651 103.101C31.7691 103.773 29.0811 106.967 29.0811 110.833C29.0811 115.204 32.6091 118.734 36.9771 118.734C39.1611 118.734 41.1771 117.893 42.5211 116.38C44.0332 114.868 44.8732 113.019 44.8732 110.833C45.0412 106.463 41.5131 102.933 37.1451 102.933ZM39.6651 110.665C39.6651 110.161 39.4971 109.657 39.1611 109.152L42.1851 106.126C43.1932 107.303 43.8652 108.816 44.0332 110.665H39.6651ZM32.2731 116.044L35.2971 113.018C35.6331 113.187 35.9691 113.355 36.4731 113.523V117.893C34.9611 117.557 33.4491 117.053 32.2731 116.044ZM38.6571 108.816C38.3211 108.48 37.8171 108.312 37.1451 108.312V103.941C38.8251 103.941 40.5051 104.614 41.6811 105.79L38.6571 108.816ZM34.2891 110.665H29.9211C29.9211 108.984 30.5931 107.471 31.6011 106.295L34.6251 109.32C34.4571 109.825 34.2891 110.161 34.2891 110.665ZM34.4571 111.338C34.6251 111.842 34.7931 112.178 34.9611 112.514L31.9371 115.54C30.9291 114.363 30.2571 113.018 30.0891 111.338H34.4571ZM36.9771 113.018C35.8011 113.018 34.7931 112.01 34.7931 110.833C34.7931 109.657 35.8011 108.648 36.9771 108.648C37.8171 108.648 38.4891 109.152 38.8251 109.825V109.993C38.9931 110.161 38.9931 110.497 38.9931 110.833C38.9931 111.169 38.9931 111.338 38.8251 111.674C38.6571 112.346 37.8171 113.018 36.9771 113.018ZM37.1451 113.355C37.6491 113.355 37.9851 113.187 38.3211 113.018L41.3451 116.044C40.1691 117.053 38.6571 117.725 37.1451 117.725V113.355ZM36.4731 103.941V108.312C35.9691 108.48 35.4651 108.648 35.1291 108.984L32.1051 105.958C33.2811 104.782 34.7931 103.941 36.4731 103.941ZM42.0171 115.708L38.9931 112.682C39.3291 112.346 39.4971 111.842 39.6651 111.338H44.0332C43.6972 113.018 43.0251 114.531 42.0171 115.708Z" fill="white"/>
    </g>
    <g class="is-hidden-eje">
        <path d="M203.13 129.156C213.244 129.156 221.442 120.953 221.442 110.833C221.442 100.714 213.244 92.5106 203.13 92.5106C193.017 92.5106 184.818 100.714 184.818 110.833C184.818 120.953 193.017 129.156 203.13 129.156Z" fill="#3B5266"/>
        <path d="M190.698 110.833C190.698 105.959 193.386 101.924 197.418 99.7389L196.746 98.7303C192.378 101.084 189.354 105.622 189.354 110.833C189.354 116.044 192.378 120.583 196.746 122.936L197.418 121.928C193.386 119.742 190.698 115.54 190.698 110.833Z" fill="#76C1AA"/>
        <path d="M209.347 98.7303L208.843 99.7389C212.875 101.756 215.731 105.959 215.731 110.833C215.731 115.708 212.875 119.911 208.843 121.928L209.347 122.936C213.715 120.583 216.739 116.044 216.739 110.833C216.739 105.454 213.715 100.916 209.347 98.7303Z" fill="#76C1AA"/>
        <path opacity="0.3" d="M203.13 113.523C204.615 113.523 205.818 112.319 205.818 110.833C205.818 109.348 204.615 108.144 203.13 108.144C201.646 108.144 200.442 109.348 200.442 110.833C200.442 112.319 201.646 113.523 203.13 113.523Z" fill="white"/>
        <path opacity="0.3" d="M204.81 108.816L207.834 105.79C206.658 104.614 205.146 103.941 203.298 103.941V108.312C203.802 108.312 204.306 108.48 204.81 108.816Z" fill="white"/>
        <path opacity="0.3" d="M205.65 110.665H210.018C210.018 108.984 209.346 107.303 208.17 106.126L205.146 109.152C205.482 109.657 205.65 110.161 205.65 110.665Z" fill="white"/>
        <path opacity="0.3" d="M204.978 112.682L208.002 115.708C209.178 114.531 209.85 113.018 209.85 111.337H205.482C205.482 111.842 205.314 112.178 204.978 112.682Z" fill="white"/>
        <path opacity="0.3" d="M201.45 112.85L198.426 115.876C199.602 116.885 200.946 117.557 202.626 117.557V113.187C202.29 113.355 201.786 113.187 201.45 112.85Z" fill="white"/>
        <path opacity="0.3" d="M203.298 113.355V117.725C204.978 117.725 206.49 117.053 207.498 116.044L204.474 113.018C204.138 113.187 203.802 113.355 203.298 113.355Z" fill="white"/>
        <path opacity="0.3" d="M200.946 109.32L197.922 106.295C196.914 107.471 196.242 108.984 196.242 110.665H200.61C200.442 110.161 200.61 109.825 200.946 109.32Z" fill="white"/>
        <path opacity="0.3" d="M200.442 111.337H196.074C196.242 113.018 196.914 114.363 197.922 115.54L200.946 112.514C200.778 112.178 200.61 111.842 200.442 111.337Z" fill="white"/>
        <path opacity="0.3" d="M202.626 108.312V103.941C200.946 104.109 199.434 104.782 198.258 105.79L201.282 108.816C201.618 108.48 202.122 108.312 202.626 108.312Z" fill="white"/>
        <path d="M203.13 102.933C202.626 102.933 201.954 102.933 201.45 103.101C197.754 103.773 195.066 106.967 195.066 110.833C195.066 115.204 198.594 118.734 202.962 118.734C205.146 118.734 207.162 117.893 208.506 116.38C210.018 114.868 210.858 113.019 210.858 110.833C211.026 106.463 207.498 102.933 203.13 102.933ZM205.65 110.665C205.65 110.161 205.482 109.657 205.146 109.152L208.17 106.126C209.178 107.303 209.85 108.816 210.018 110.665H205.65ZM198.426 116.044L201.45 113.018C201.786 113.187 202.122 113.355 202.626 113.523V117.893C200.946 117.557 199.602 117.053 198.426 116.044ZM204.81 108.816C204.474 108.48 203.97 108.312 203.298 108.312V103.941C204.978 103.941 206.658 104.614 207.834 105.79L204.81 108.816ZM200.442 110.665H196.074C196.074 108.984 196.746 107.471 197.754 106.295L200.778 109.32C200.61 109.825 200.442 110.161 200.442 110.665ZM200.442 111.338C200.61 111.842 200.778 112.178 200.946 112.514L197.922 115.54C196.914 114.363 196.242 113.018 196.074 111.338H200.442ZM203.13 113.018C201.954 113.018 200.946 112.01 200.946 110.833C200.946 109.657 201.954 108.648 203.13 108.648C203.97 108.648 204.642 109.152 204.978 109.825V109.993C205.146 110.161 205.146 110.497 205.146 110.833C205.146 111.169 205.146 111.338 204.978 111.674C204.81 112.346 203.97 113.018 203.13 113.018ZM203.298 113.355C203.802 113.355 204.138 113.187 204.474 113.018L207.498 116.044C206.322 117.053 204.81 117.725 203.298 117.725V113.355ZM202.626 103.941V108.312C202.122 108.48 201.618 108.648 201.282 108.984L198.258 105.958C199.434 104.782 200.946 103.941 202.626 103.941ZM208.002 115.708L204.978 112.682C205.314 112.346 205.482 111.842 205.65 111.338H210.018C209.85 113.018 209.178 114.531 208.002 115.708Z" fill="white"/>
    </g>
    <g class="is-hidden-eje">
        <path d="M247.482 129.156C257.596 129.156 265.795 120.953 265.795 110.833C265.795 100.714 257.596 92.5106 247.482 92.5106C237.369 92.5106 229.17 100.714 229.17 110.833C229.17 120.953 237.369 129.156 247.482 129.156Z" fill="#3B5266"/>
        <path d="M235.051 110.833C235.051 105.959 237.739 101.924 241.771 99.7389L241.099 98.7303C236.731 101.084 233.707 105.622 233.707 110.833C233.707 116.044 236.731 120.583 241.099 122.936L241.771 121.928C237.739 119.742 235.051 115.54 235.051 110.833Z" fill="#76C1AA"/>
        <path d="M253.699 98.7303L253.195 99.7389C257.227 101.756 260.083 105.959 260.083 110.833C260.083 115.708 257.227 119.911 253.195 121.928L253.699 122.936C258.067 120.583 261.091 116.044 261.091 110.833C261.091 105.454 258.067 100.916 253.699 98.7303Z" fill="#76C1AA"/>
        <path opacity="0.3" d="M247.483 113.523C248.967 113.523 250.171 112.319 250.171 110.833C250.171 109.348 248.967 108.144 247.483 108.144C245.998 108.144 244.795 109.348 244.795 110.833C244.795 112.319 245.998 113.523 247.483 113.523Z" fill="white"/>
        <path opacity="0.3" d="M248.994 108.816L252.018 105.79C250.842 104.614 249.33 103.941 247.482 103.941V108.312C248.154 108.312 248.658 108.48 248.994 108.816Z" fill="white"/>
        <path opacity="0.3" d="M250.003 110.665H254.371C254.371 108.984 253.699 107.303 252.523 106.126L249.499 109.152C249.835 109.657 250.003 110.161 250.003 110.665Z" fill="white"/>
        <path opacity="0.3" d="M249.331 112.682L252.355 115.708C253.531 114.531 254.203 113.018 254.203 111.337H249.835C249.835 111.842 249.667 112.178 249.331 112.682Z" fill="white"/>
        <path opacity="0.3" d="M245.802 112.85L242.778 115.876C243.954 116.885 245.298 117.557 246.978 117.557V113.187C246.474 113.355 246.138 113.187 245.802 112.85Z" fill="white"/>
        <path opacity="0.3" d="M247.482 113.355V117.725C249.162 117.725 250.674 117.053 251.682 116.044L248.658 113.018C248.49 113.187 247.986 113.355 247.482 113.355Z" fill="white"/>
        <path opacity="0.3" d="M245.13 109.32L242.107 106.295C241.099 107.471 240.427 108.984 240.427 110.665H244.794C244.794 110.161 244.962 109.825 245.13 109.32Z" fill="white"/>
        <path opacity="0.3" d="M244.795 111.337H240.427C240.595 113.018 241.267 114.363 242.275 115.54L245.299 112.514C245.131 112.178 244.795 111.842 244.795 111.337Z" fill="white"/>
        <path opacity="0.3" d="M246.979 108.312V103.941C245.299 104.109 243.787 104.782 242.611 105.79L245.635 108.816C245.971 108.48 246.307 108.312 246.979 108.312Z" fill="white"/>
        <path d="M247.483 102.933C246.979 102.933 246.307 102.933 245.803 103.101C242.106 103.773 239.418 106.967 239.418 110.833C239.418 115.204 242.946 118.734 247.315 118.734C249.499 118.734 251.515 117.893 252.859 116.38C254.371 114.868 255.211 113.019 255.211 110.833C255.379 106.463 251.851 102.933 247.483 102.933ZM250.003 110.665C250.003 110.161 249.835 109.657 249.499 109.152L252.523 106.126C253.531 107.303 254.203 108.816 254.371 110.665H250.003ZM242.778 116.044L245.803 113.018C246.139 113.187 246.475 113.355 246.979 113.523V117.893C245.299 117.557 243.786 117.053 242.778 116.044ZM248.995 108.816C248.659 108.48 248.155 108.312 247.483 108.312V103.941C249.163 103.941 250.843 104.614 252.019 105.79L248.995 108.816ZM244.794 110.665H240.426C240.426 108.984 241.098 107.471 242.106 106.295L245.131 109.32C244.963 109.825 244.794 110.161 244.794 110.665ZM244.794 111.338C244.962 111.842 245.131 112.178 245.299 112.514L242.274 115.54C241.266 114.363 240.594 113.018 240.426 111.338H244.794ZM247.483 113.018C246.307 113.018 245.299 112.01 245.299 110.833C245.299 109.657 246.307 108.648 247.483 108.648C248.323 108.648 248.995 109.152 249.331 109.825V109.993C249.499 110.161 249.499 110.497 249.499 110.833C249.499 111.169 249.499 111.338 249.331 111.674C248.995 112.346 248.323 113.018 247.483 113.018ZM247.483 113.355C247.987 113.355 248.323 113.187 248.659 113.018L251.683 116.044C250.507 117.053 248.995 117.725 247.483 117.725V113.355ZM246.979 103.941V108.312C246.475 108.48 245.971 108.648 245.635 108.984L242.61 105.958C243.619 104.782 245.131 103.941 246.979 103.941ZM252.355 115.708L249.331 112.682C249.667 112.346 249.835 111.842 250.003 111.338H254.371C254.035 113.018 253.363 114.531 252.355 115.708Z" fill="white"/>
    </g>
    <g class="is-hidden-eje">
        <path d="M291.667 129.156C301.78 129.156 309.979 120.953 309.979 110.833C309.979 100.714 301.78 92.5106 291.667 92.5106C281.553 92.5106 273.354 100.714 273.354 110.833C273.354 120.953 281.553 129.156 291.667 129.156Z" fill="#3B5266"/>
        <path d="M279.235 110.833C279.235 105.959 281.923 101.924 285.955 99.7389L285.283 98.7303C280.915 101.084 277.891 105.622 277.891 110.833C277.891 116.044 280.915 120.583 285.283 122.936L285.955 121.928C281.923 119.742 279.235 115.54 279.235 110.833Z" fill="#76C1AA"/>
        <path d="M298.051 98.7303L297.547 99.7389C301.579 101.756 304.435 105.959 304.435 110.833C304.435 115.708 301.579 119.911 297.547 121.928L298.051 122.936C302.419 120.583 305.443 116.044 305.443 110.833C305.275 105.454 302.419 100.916 298.051 98.7303Z" fill="#76C1AA"/>
        <path opacity="0.3" d="M291.667 113.523C293.151 113.523 294.355 112.319 294.355 110.833C294.355 109.348 293.151 108.144 291.667 108.144C290.182 108.144 288.979 109.348 288.979 110.833C288.979 112.319 290.182 113.523 291.667 113.523Z" fill="white"/>
        <path opacity="0.3" d="M293.346 108.816L296.371 105.79C295.195 104.614 293.683 103.941 291.834 103.941V108.312C292.338 108.312 292.842 108.48 293.346 108.816Z" fill="white"/>
        <path opacity="0.3" d="M294.186 110.665H298.554C298.554 108.984 297.882 107.303 296.706 106.126L293.682 109.152C294.018 109.657 294.186 110.161 294.186 110.665Z" fill="white"/>
        <path opacity="0.3" d="M293.514 112.682L296.538 115.708C297.714 114.531 298.386 113.018 298.386 111.337H294.018C294.186 111.842 293.85 112.178 293.514 112.682Z" fill="white"/>
        <path opacity="0.3" d="M289.986 112.85L286.962 115.876C288.138 116.885 289.482 117.557 291.163 117.557V113.187C290.826 113.355 290.322 113.187 289.986 112.85Z" fill="white"/>
        <path opacity="0.3" d="M291.834 113.355V117.725C293.515 117.725 295.027 117.053 296.035 116.044L293.011 113.018C292.675 113.187 292.338 113.355 291.834 113.355Z" fill="white"/>
        <path opacity="0.3" d="M289.483 109.32L286.459 106.295C285.451 107.471 284.779 108.984 284.779 110.665H289.147C288.979 110.161 289.147 109.825 289.483 109.32Z" fill="white"/>
        <path opacity="0.3" d="M288.978 111.337H284.61C284.778 113.018 285.45 114.363 286.458 115.54L289.482 112.514C289.314 112.178 289.146 111.842 288.978 111.337Z" fill="white"/>
        <path opacity="0.3" d="M291.163 108.312V103.941C289.482 104.109 287.97 104.782 286.794 105.79L289.819 108.816C290.155 108.48 290.658 108.312 291.163 108.312Z" fill="white"/>
        <path d="M291.835 102.933C291.331 102.933 290.659 102.933 290.155 103.101C286.458 103.773 283.771 106.967 283.771 110.833C283.771 115.204 287.298 118.734 291.667 118.734C293.851 118.734 295.867 117.893 297.211 116.38C298.723 114.868 299.563 113.019 299.563 110.833C299.563 106.463 296.035 102.933 291.835 102.933ZM294.187 110.665C294.187 110.161 294.019 109.657 293.683 109.152L296.707 106.126C297.715 107.303 298.387 108.816 298.555 110.665H294.187ZM286.963 116.044L289.987 113.018C290.323 113.187 290.659 113.355 291.163 113.523V117.893C289.651 117.557 288.139 117.053 286.963 116.044ZM293.347 108.816C293.011 108.48 292.507 108.312 291.835 108.312V103.941C293.515 103.941 295.195 104.614 296.371 105.79L293.347 108.816ZM288.979 110.665H284.611C284.611 108.984 285.283 107.471 286.291 106.295L289.315 109.32C289.147 109.825 288.979 110.161 288.979 110.665ZM288.979 111.338C289.147 111.842 289.315 112.178 289.483 112.514L286.459 115.54C285.451 114.363 284.779 113.018 284.611 111.338H288.979ZM291.667 113.018C290.491 113.018 289.483 112.01 289.483 110.833C289.483 109.657 290.491 108.648 291.667 108.648C292.507 108.648 293.179 109.152 293.515 109.825V109.993C293.683 110.161 293.683 110.497 293.683 110.833C293.683 111.169 293.683 111.338 293.515 111.674C293.347 112.346 292.507 113.018 291.667 113.018ZM291.835 113.355C292.339 113.355 292.675 113.187 293.011 113.018L296.035 116.044C294.859 117.053 293.347 117.725 291.835 117.725V113.355ZM291.163 103.941V108.312C290.659 108.48 290.155 108.648 289.819 108.984L286.794 105.958C287.971 104.782 289.483 103.941 291.163 103.941ZM296.539 115.708L293.515 112.682C293.851 112.346 294.019 111.842 294.187 111.338H298.555C298.387 113.018 297.715 114.531 296.539 115.708Z" fill="white"/>
    </g>
    <g class="is-hidden-eje">
        <path d="M431.444 132.35C441.557 132.35 449.756 124.146 449.756 114.027C449.756 103.908 441.557 95.7045 431.444 95.7045C421.33 95.7045 413.132 103.908 413.132 114.027C413.132 124.146 421.33 132.35 431.444 132.35Z" fill="#3B5266"/>
        <path d="M419.012 114.027C419.012 109.152 421.7 105.118 425.732 102.933L425.06 101.924C420.692 104.277 417.667 108.816 417.667 114.027C417.667 119.238 420.692 123.777 425.06 126.13L425.732 125.121C421.7 122.936 419.012 118.734 419.012 114.027Z" fill="#76C1AA"/>
        <path d="M437.66 101.756L437.156 102.764C441.188 104.782 444.044 108.984 444.044 113.859C444.044 118.734 441.188 122.936 437.156 124.953L437.66 125.962C442.028 123.609 445.052 119.07 445.052 113.859C445.052 108.648 442.028 104.109 437.66 101.756Z" fill="#76C1AA"/>
        <path opacity="0.3" d="M431.444 116.717C432.928 116.717 434.132 115.512 434.132 114.027C434.132 112.542 432.928 111.337 431.444 111.337C429.959 111.337 428.756 112.542 428.756 114.027C428.756 115.512 429.959 116.717 431.444 116.717Z" fill="white"/>
        <path opacity="0.3" d="M432.956 112.01L435.98 108.984C434.804 107.807 433.292 107.135 431.444 107.135V111.506C432.116 111.337 432.62 111.674 432.956 112.01Z" fill="white"/>
        <path opacity="0.3" d="M433.964 113.859H438.332C438.332 112.178 437.66 110.497 436.484 109.32L433.46 112.346C433.796 112.85 433.964 113.355 433.964 113.859Z" fill="white"/>
        <path opacity="0.3" d="M433.292 115.708L436.316 118.734C437.492 117.557 438.164 116.044 438.164 114.363H433.964C433.796 115.036 433.628 115.372 433.292 115.708Z" fill="white"/>
        <path opacity="0.3" d="M429.764 116.044L426.74 119.07C427.916 120.079 429.26 120.751 430.94 120.751V116.38C430.436 116.549 430.1 116.38 429.764 116.044Z" fill="white"/>
        <path opacity="0.3" d="M431.444 116.548V120.919C433.124 120.919 434.636 120.247 435.644 119.238L432.62 116.212C432.452 116.38 431.948 116.548 431.444 116.548Z" fill="white"/>
        <path opacity="0.3" d="M429.092 112.514L426.068 109.488C425.06 110.665 424.388 112.178 424.388 113.859H428.756C428.756 113.355 428.924 112.85 429.092 112.514Z" fill="white"/>
        <path opacity="0.3" d="M428.756 114.531H424.388C424.556 116.212 425.228 117.557 426.236 118.734L429.26 115.708C429.092 115.372 428.756 114.867 428.756 114.531Z" fill="white"/>
        <path opacity="0.3" d="M430.94 111.337V106.967C429.26 107.135 427.748 107.807 426.572 108.816L429.596 111.842C429.932 111.674 430.436 111.506 430.94 111.337Z" fill="white"/>
        <path d="M431.444 105.958C430.94 105.958 430.268 105.958 429.764 106.126C426.068 106.799 423.38 109.993 423.38 113.859C423.38 118.229 426.908 121.76 431.276 121.76C433.46 121.76 435.476 120.919 436.82 119.406C438.332 117.893 439.172 116.044 439.172 113.859C439.34 109.488 435.812 105.958 431.444 105.958ZM433.964 113.859C433.964 113.355 433.796 112.85 433.46 112.346L436.484 109.32C437.492 110.497 438.164 112.01 438.332 113.859H433.964ZM426.74 119.07L429.764 116.044C430.1 116.212 430.436 116.38 430.94 116.548V120.919C429.26 120.751 427.916 120.078 426.74 119.07ZM432.956 112.01C432.62 111.674 432.116 111.506 431.444 111.506V107.135C433.124 107.135 434.804 107.807 435.98 108.984L432.956 112.01ZM428.756 113.859H424.388C424.388 112.178 425.06 110.665 426.068 109.488L429.092 112.514C428.924 112.85 428.756 113.355 428.756 113.859ZM428.756 114.531C428.924 115.036 429.092 115.372 429.26 115.708L426.236 118.734C425.228 117.557 424.556 116.212 424.388 114.531H428.756ZM431.444 116.044C430.268 116.044 429.26 115.036 429.26 113.859C429.26 112.682 430.268 111.674 431.444 111.674C432.284 111.674 432.956 112.178 433.292 112.85C433.292 112.85 433.292 112.85 433.292 113.018C433.46 113.187 433.46 113.523 433.46 113.859C433.46 114.195 433.46 114.363 433.292 114.699C432.956 115.54 432.284 116.044 431.444 116.044ZM431.444 116.548C431.948 116.548 432.284 116.38 432.62 116.212L435.644 119.238C434.468 120.247 432.956 120.919 431.444 120.919V116.548ZM430.94 107.135V111.506C430.436 111.674 429.932 111.842 429.596 112.178L426.572 109.152C427.58 107.807 429.092 107.135 430.94 107.135ZM436.316 118.734L433.292 115.708C433.628 115.372 433.796 114.868 433.964 114.363H438.332C438.164 116.212 437.324 117.725 436.316 118.734Z" fill="white"/>
    </g>
    <g class="is-hidden-eje">
        <path d="M475.628 132.35C485.741 132.35 493.94 124.146 493.94 114.027C493.94 103.908 485.741 95.7045 475.628 95.7045C465.514 95.7045 457.315 103.908 457.315 114.027C457.315 124.146 465.514 132.35 475.628 132.35Z" fill="#3B5266"/>
        <path d="M463.196 114.027C463.196 109.152 465.884 105.118 469.915 102.933L469.243 101.924C464.876 104.277 461.852 108.816 461.852 114.027C461.852 119.238 464.876 123.777 469.243 126.13L469.915 125.121C465.884 122.936 463.196 118.734 463.196 114.027Z" fill="#76C1AA"/>
        <path d="M481.844 101.756L481.34 102.764C485.372 104.782 488.228 108.984 488.228 113.859C488.228 118.734 485.372 122.936 481.34 124.953L481.844 125.962C486.212 123.609 489.236 119.07 489.236 113.859C489.236 108.648 486.212 104.109 481.844 101.756Z" fill="#76C1AA"/>
        <path opacity="0.3" d="M475.627 116.717C477.112 116.717 478.315 115.512 478.315 114.027C478.315 112.542 477.112 111.337 475.627 111.337C474.143 111.337 472.939 112.542 472.939 114.027C472.939 115.512 474.143 116.717 475.627 116.717Z" fill="white"/>
        <path opacity="0.3" d="M477.14 112.01L480.164 108.984C478.988 107.807 477.476 107.135 475.627 107.135V111.506C476.299 111.337 476.804 111.674 477.14 112.01Z" fill="white"/>
        <path opacity="0.3" d="M478.148 113.859H482.516C482.516 112.178 481.844 110.497 480.668 109.32L477.644 112.346C477.98 112.85 478.148 113.355 478.148 113.859Z" fill="white"/>
        <path opacity="0.3" d="M477.476 115.708L480.5 118.734C481.676 117.557 482.348 116.044 482.348 114.363H477.98C477.98 115.036 477.812 115.372 477.476 115.708Z" fill="white"/>
        <path opacity="0.3" d="M473.947 116.044L470.923 119.07C472.099 120.079 473.443 120.751 475.123 120.751V116.38C474.619 116.549 474.283 116.38 473.947 116.044Z" fill="white"/>
        <path opacity="0.3" d="M475.627 116.548V120.919C477.307 120.919 478.819 120.247 479.828 119.238L476.803 116.212C476.635 116.38 476.131 116.548 475.627 116.548Z" fill="white"/>
        <path opacity="0.3" d="M473.275 112.514L470.251 109.488C469.243 110.665 468.571 112.178 468.571 113.859H472.939C472.939 113.355 473.107 112.85 473.275 112.514Z" fill="white"/>
        <path opacity="0.3" d="M472.939 114.531H468.571C468.739 116.212 469.411 117.557 470.419 118.734L473.443 115.708C473.275 115.372 472.939 114.867 472.939 114.531Z" fill="white"/>
        <path opacity="0.3" d="M475.124 111.337V106.967C473.443 107.135 471.931 107.807 470.755 108.816L473.78 111.842C474.116 111.674 474.62 111.506 475.124 111.337Z" fill="white"/>
        <path d="M475.628 105.958C475.124 105.958 474.451 105.958 473.947 106.126C470.251 106.799 467.563 109.993 467.563 113.859C467.563 118.229 471.092 121.76 475.46 121.76C477.644 121.76 479.66 120.919 481.004 119.406C482.516 117.893 483.356 116.044 483.356 113.859C483.524 109.488 479.996 105.958 475.628 105.958ZM478.148 113.859C478.148 113.355 477.98 112.85 477.644 112.346L480.668 109.32C481.676 110.497 482.348 112.01 482.516 113.859H478.148ZM470.923 119.07L473.947 116.044C474.283 116.212 474.62 116.38 475.124 116.548V120.919C473.444 120.751 471.932 120.078 470.923 119.07ZM477.14 112.01C476.804 111.674 476.3 111.506 475.628 111.506V107.135C477.308 107.135 478.988 107.807 480.164 108.984L477.14 112.01ZM472.94 113.859H468.571C468.571 112.178 469.243 110.665 470.252 109.488L473.276 112.514C473.108 112.85 472.94 113.355 472.94 113.859ZM472.94 114.531C473.108 115.036 473.276 115.372 473.444 115.708L470.42 118.734C469.412 117.557 468.739 116.212 468.571 114.531H472.94ZM475.628 116.044C474.451 116.044 473.444 115.036 473.444 113.859C473.444 112.682 474.451 111.674 475.628 111.674C476.468 111.674 477.14 112.178 477.476 112.85C477.476 112.85 477.476 112.85 477.476 113.018C477.644 113.187 477.644 113.523 477.644 113.859C477.644 114.195 477.644 114.363 477.476 114.699C477.14 115.54 476.468 116.044 475.628 116.044ZM475.628 116.548C476.132 116.548 476.468 116.38 476.804 116.212L479.828 119.238C478.652 120.247 477.14 120.919 475.628 120.919V116.548ZM475.124 107.135V111.506C474.62 111.674 474.116 111.842 473.78 112.178L470.755 109.152C471.763 107.807 473.276 107.135 475.124 107.135ZM480.5 118.734L477.476 115.708C477.812 115.372 477.98 114.868 478.148 114.363H482.516C482.348 116.212 481.508 117.725 480.5 118.734Z" fill="white"/>
    </g>
    <g class="is-hidden-eje">
        <path d="M519.812 132.35C529.926 132.35 538.124 124.146 538.124 114.027C538.124 103.908 529.926 95.7045 519.812 95.7045C509.699 95.7045 501.5 103.908 501.5 114.027C501.5 124.146 509.699 132.35 519.812 132.35Z" fill="#3B5266"/>
        <path d="M507.38 114.027C507.38 109.152 510.068 105.118 514.1 102.933L513.428 101.924C509.06 104.277 506.036 108.816 506.036 114.027C506.036 119.238 509.06 123.777 513.428 126.13L514.1 125.121C510.068 122.936 507.38 118.734 507.38 114.027Z" fill="#76C1AA"/>
        <path d="M526.028 101.756L525.524 102.764C529.556 104.782 532.412 108.984 532.412 113.859C532.412 118.734 529.556 122.936 525.524 124.953L526.028 125.962C530.396 123.609 533.42 119.07 533.42 113.859C533.42 108.648 530.396 104.109 526.028 101.756Z" fill="#76C1AA"/>
        <path opacity="0.3" d="M519.812 116.717C521.296 116.717 522.5 115.512 522.5 114.027C522.5 112.542 521.296 111.337 519.812 111.337C518.327 111.337 517.124 112.542 517.124 114.027C517.124 115.512 518.327 116.717 519.812 116.717Z" fill="white"/>
        <path opacity="0.3" d="M521.324 112.01L524.348 108.984C523.172 107.807 521.66 107.135 519.812 107.135V111.506C520.484 111.337 520.988 111.674 521.324 112.01Z" fill="white"/>
        <path opacity="0.3" d="M522.332 113.859H526.7C526.7 112.178 526.028 110.497 524.852 109.32L521.828 112.346C522.164 112.85 522.332 113.355 522.332 113.859Z" fill="white"/>
        <path opacity="0.3" d="M521.66 115.708L524.684 118.734C525.86 117.557 526.532 116.044 526.532 114.363H522.164C522.164 115.036 521.996 115.372 521.66 115.708Z" fill="white"/>
        <path opacity="0.3" d="M518.132 116.044L515.108 119.07C516.284 120.079 517.628 120.751 519.308 120.751V116.38C518.804 116.549 518.468 116.38 518.132 116.044Z" fill="white"/>
        <path opacity="0.3" d="M519.812 116.548V120.919C521.492 120.919 523.004 120.247 524.012 119.238L520.988 116.212C520.82 116.38 520.316 116.548 519.812 116.548Z" fill="white"/>
        <path opacity="0.3" d="M517.46 112.514L514.436 109.488C513.428 110.665 512.756 112.178 512.756 113.859H517.124C517.124 113.355 517.292 112.85 517.46 112.514Z" fill="white"/>
        <path opacity="0.3" d="M517.124 114.531H512.756C512.924 116.212 513.596 117.557 514.604 118.734L517.628 115.708C517.46 115.372 517.124 114.867 517.124 114.531Z" fill="white"/>
        <path opacity="0.3" d="M519.308 111.337V106.967C517.628 107.135 516.116 107.807 514.94 108.816L517.964 111.842C518.3 111.674 518.636 111.506 519.308 111.337Z" fill="white"/>
        <path d="M519.812 105.958C519.308 105.958 518.636 105.958 518.132 106.126C514.436 106.799 511.748 109.993 511.748 113.859C511.748 118.229 515.276 121.76 519.644 121.76C521.828 121.76 523.844 120.919 525.188 119.406C526.7 117.893 527.54 116.044 527.54 113.859C527.708 109.488 524.18 105.958 519.812 105.958ZM522.332 113.859C522.332 113.355 522.164 112.85 521.828 112.346L524.852 109.32C525.86 110.497 526.532 112.01 526.7 113.859H522.332ZM515.108 119.07L518.132 116.044C518.468 116.212 518.804 116.38 519.308 116.548V120.919C517.628 120.751 516.116 120.078 515.108 119.07ZM521.324 112.01C520.988 111.674 520.484 111.506 519.812 111.506V107.135C521.492 107.135 523.172 107.807 524.348 108.984L521.324 112.01ZM517.124 113.859H512.756C512.756 112.178 513.428 110.665 514.436 109.488L517.46 112.514C517.292 112.85 517.124 113.355 517.124 113.859ZM517.124 114.531C517.292 115.036 517.46 115.372 517.628 115.708L514.604 118.734C513.596 117.557 512.924 116.212 512.756 114.531H517.124ZM519.812 116.044C518.636 116.044 517.628 115.036 517.628 113.859C517.628 112.682 518.636 111.674 519.812 111.674C520.652 111.674 521.324 112.178 521.66 112.85C521.66 112.85 521.66 112.85 521.66 113.018C521.828 113.187 521.828 113.523 521.828 113.859C521.828 114.195 521.828 114.363 521.66 114.699C521.324 115.54 520.652 116.044 519.812 116.044ZM519.812 116.548C520.316 116.548 520.652 116.38 520.988 116.212L524.012 119.238C522.836 120.247 521.324 120.919 519.812 120.919V116.548ZM519.308 107.135V111.506C518.804 111.674 518.3 111.842 517.964 112.178L514.94 109.152C515.948 107.807 517.46 107.135 519.308 107.135ZM524.684 118.734L521.66 115.708C521.996 115.372 522.164 114.868 522.332 114.363H526.7C526.364 116.212 525.692 117.725 524.684 118.734Z" fill="white"/>
    </g>
    <g class="is-hidden-eje">
        <path d="M563.828 132.35C573.942 132.35 582.14 124.146 582.14 114.027C582.14 103.908 573.942 95.7045 563.828 95.7045C553.715 95.7045 545.516 103.908 545.516 114.027C545.516 124.146 553.715 132.35 563.828 132.35Z" fill="#3B5266"/>
        <path d="M551.564 114.027C551.564 109.152 554.252 105.118 558.284 102.933L557.612 101.924C553.244 104.277 550.22 108.816 550.22 114.027C550.22 119.238 553.244 123.777 557.612 126.13L558.284 125.121C554.252 122.936 551.564 118.734 551.564 114.027Z" fill="#76C1AA"/>
        <path d="M570.213 101.756L569.708 102.764C573.741 104.782 576.597 108.984 576.597 113.859C576.597 118.734 573.741 122.936 569.708 124.953L570.213 125.962C574.581 123.609 577.605 119.07 577.605 113.859C577.605 108.648 574.581 104.109 570.213 101.756Z" fill="#76C1AA"/>
        <path opacity="0.3" d="M563.829 116.717C565.313 116.717 566.516 115.512 566.516 114.027C566.516 112.542 565.313 111.337 563.829 111.337C562.344 111.337 561.141 112.542 561.141 114.027C561.141 115.512 562.344 116.717 563.829 116.717Z" fill="white"/>
        <path opacity="0.3" d="M565.508 112.01L568.532 108.984C567.356 107.807 565.844 107.135 563.996 107.135V111.506C564.668 111.337 565.172 111.674 565.508 112.01Z" fill="white"/>
        <path opacity="0.3" d="M566.517 113.859H570.885C570.885 112.178 570.213 110.497 569.037 109.32L566.013 112.346C566.349 112.85 566.517 113.355 566.517 113.859Z" fill="white"/>
        <path opacity="0.3" d="M565.845 115.708L568.869 118.734C570.045 117.557 570.717 116.044 570.717 114.363H566.349C566.349 115.036 566.181 115.372 565.845 115.708Z" fill="white"/>
        <path opacity="0.3" d="M562.316 116.044L559.292 119.07C560.468 120.079 561.812 120.751 563.492 120.751V116.38C562.988 116.549 562.652 116.38 562.316 116.044Z" fill="white"/>
        <path opacity="0.3" d="M563.996 116.548V120.919C565.676 120.919 567.188 120.247 568.196 119.238L565.172 116.212C565.004 116.38 564.5 116.548 563.996 116.548Z" fill="white"/>
        <path opacity="0.3" d="M561.645 112.514L558.62 109.488C557.612 110.665 556.94 112.178 556.94 113.859H561.309C561.309 113.355 561.477 112.85 561.645 112.514Z" fill="white"/>
        <path opacity="0.3" d="M561.308 114.531H556.94C557.108 116.212 557.78 117.557 558.788 118.734L561.812 115.708C561.644 115.372 561.308 114.867 561.308 114.531Z" fill="white"/>
        <path opacity="0.3" d="M563.492 111.337V106.967C561.813 107.135 560.301 107.807 559.125 108.816L562.148 111.842C562.484 111.674 562.82 111.506 563.492 111.337Z" fill="white"/>
        <path d="M563.996 105.958C563.492 105.958 562.82 105.958 562.316 106.126C558.62 106.799 555.932 109.993 555.932 113.859C555.932 118.229 559.46 121.76 563.828 121.76C566.012 121.76 568.028 120.919 569.372 119.406C570.884 117.893 571.724 116.044 571.724 113.859C571.892 109.488 568.364 105.958 563.996 105.958ZM566.516 113.859C566.516 113.355 566.348 112.85 566.012 112.346L569.036 109.32C570.044 110.497 570.716 112.01 570.884 113.859H566.516ZM559.292 119.07L562.316 116.044C562.652 116.212 562.988 116.38 563.492 116.548V120.919C561.812 120.751 560.3 120.078 559.292 119.07ZM565.508 112.01C565.172 111.674 564.668 111.506 563.996 111.506V107.135C565.676 107.135 567.356 107.807 568.532 108.984L565.508 112.01ZM561.308 113.859H556.94C556.94 112.178 557.612 110.665 558.62 109.488L561.644 112.514C561.476 112.85 561.308 113.355 561.308 113.859ZM561.308 114.531C561.476 115.036 561.644 115.372 561.812 115.708L558.788 118.734C557.78 117.557 557.108 116.212 556.94 114.531H561.308ZM563.828 116.044C562.652 116.044 561.644 115.036 561.644 113.859C561.644 112.682 562.652 111.674 563.828 111.674C564.668 111.674 565.34 112.178 565.676 112.85C565.676 112.85 565.676 112.85 565.676 113.018C565.844 113.187 565.844 113.523 565.844 113.859C565.844 114.195 565.844 114.363 565.676 114.699C565.508 115.54 564.836 116.044 563.828 116.044ZM563.996 116.548C564.5 116.548 564.836 116.38 565.172 116.212L568.196 119.238C567.02 120.247 565.508 120.919 563.996 120.919V116.548ZM563.492 107.135V111.506C562.988 111.674 562.484 111.842 562.148 112.178L559.124 109.152C560.132 107.807 561.644 107.135 563.492 107.135ZM568.868 118.734L565.844 115.708C566.18 115.372 566.348 114.868 566.516 114.363H570.884C570.548 116.212 569.876 117.725 568.868 118.734Z" fill="white"/>
    </g>
    <g class="is-hidden-eje">
        <path d="M608.013 132.35C618.126 132.35 626.325 124.146 626.325 114.027C626.325 103.908 618.126 95.7045 608.013 95.7045C597.899 95.7045 589.701 103.908 589.701 114.027C589.701 124.146 597.899 132.35 608.013 132.35Z" fill="#3B5266"/>
        <path d="M595.749 114.027C595.749 109.152 598.437 105.118 602.469 102.933L601.797 101.924C597.429 104.277 594.405 108.816 594.405 114.027C594.405 119.238 597.429 123.777 601.797 126.13L602.469 125.121C598.437 122.936 595.749 118.734 595.749 114.027Z" fill="#76C1AA"/>
        <path d="M614.397 101.756L613.893 102.764C617.925 104.782 620.781 108.984 620.781 113.859C620.781 118.734 617.925 122.936 613.893 124.953L614.397 125.962C618.765 123.609 621.789 119.07 621.789 113.859C621.789 108.648 618.765 104.109 614.397 101.756Z" fill="#76C1AA"/>
        <path opacity="0.3" d="M608.013 116.717C609.497 116.717 610.701 115.512 610.701 114.027C610.701 112.542 609.497 111.337 608.013 111.337C606.528 111.337 605.325 112.542 605.325 114.027C605.325 115.512 606.528 116.717 608.013 116.717Z" fill="white"/>
        <path opacity="0.3" d="M609.693 112.01L612.717 108.984C611.541 107.807 610.029 107.135 608.181 107.135V111.506C608.853 111.337 609.357 111.674 609.693 112.01Z" fill="white"/>
        <path opacity="0.3" d="M610.701 113.859H615.069C615.069 112.178 614.397 110.497 613.221 109.32L610.197 112.346C610.365 112.85 610.701 113.355 610.701 113.859Z" fill="white"/>
        <path opacity="0.3" d="M610.029 115.708L613.053 118.734C614.229 117.557 614.901 116.044 614.901 114.363H610.533C610.533 115.036 610.365 115.372 610.029 115.708Z" fill="white"/>
        <path opacity="0.3" d="M606.501 116.044L603.477 119.07C604.653 120.079 605.997 120.751 607.677 120.751V116.38C607.173 116.549 606.837 116.38 606.501 116.044Z" fill="white"/>
        <path opacity="0.3" d="M608.181 116.548V120.919C609.861 120.919 611.373 120.247 612.381 119.238L609.357 116.212C609.021 116.38 608.685 116.548 608.181 116.548Z" fill="white"/>
        <path opacity="0.3" d="M605.829 112.514L602.805 109.488C601.797 110.665 601.125 112.178 601.125 113.859H605.493C605.493 113.355 605.661 112.85 605.829 112.514Z" fill="white"/>
        <path opacity="0.3" d="M605.493 114.531H601.125C601.293 116.212 601.965 117.557 602.973 118.734L605.997 115.708C605.829 115.372 605.493 114.867 605.493 114.531Z" fill="white"/>
        <path opacity="0.3" d="M607.509 111.337V106.967C605.829 107.135 604.317 107.807 603.141 108.816L606.165 111.842C606.669 111.674 607.005 111.506 607.509 111.337Z" fill="white"/>
        <path d="M608.181 105.958C607.677 105.958 607.005 105.958 606.501 106.126C602.805 106.799 600.117 109.993 600.117 113.859C600.117 118.229 603.645 121.76 608.013 121.76C610.197 121.76 612.213 120.919 613.557 119.406C615.069 117.893 615.909 116.044 615.909 113.859C616.077 109.488 612.549 105.958 608.181 105.958ZM610.701 113.859C610.701 113.355 610.533 112.85 610.197 112.346L613.221 109.32C614.229 110.497 614.901 112.01 615.069 113.859H610.701ZM603.477 119.07L606.501 116.044C606.837 116.212 607.173 116.38 607.677 116.548V120.919C605.997 120.751 604.485 120.078 603.477 119.07ZM609.693 112.01C609.357 111.674 608.853 111.506 608.181 111.506V107.135C609.861 107.135 611.541 107.807 612.717 108.984L609.693 112.01ZM605.493 113.859H601.125C601.125 112.178 601.797 110.665 602.805 109.488L605.829 112.514C605.661 112.85 605.493 113.355 605.493 113.859ZM605.493 114.531C605.661 115.036 605.829 115.372 605.997 115.708L602.973 118.734C601.965 117.557 601.293 116.212 601.125 114.531H605.493ZM608.013 116.044C606.837 116.044 605.829 115.036 605.829 113.859C605.829 112.682 606.837 111.674 608.013 111.674C608.853 111.674 609.525 112.178 609.861 112.85C609.861 112.85 609.861 112.85 609.861 113.018C610.029 113.187 610.029 113.523 610.029 113.859C610.029 114.195 610.029 114.363 609.861 114.699C609.693 115.54 609.021 116.044 608.013 116.044ZM608.181 116.548C608.685 116.548 609.021 116.38 609.357 116.212L612.381 119.238C611.205 120.247 609.693 120.919 608.181 120.919V116.548ZM607.509 107.135V111.506C607.005 111.674 606.501 111.842 606.165 112.178L603.141 109.152C604.317 107.807 605.829 107.135 607.509 107.135ZM613.053 118.734L610.029 115.708C610.365 115.372 610.533 114.868 610.701 114.363H615.069C614.733 116.212 614.061 117.725 613.053 118.734Z" fill="white"/>
    </g>
    <path d="M96.7856 95.8726C96.7856 95.8726 96.9536 95.8726 96.7856 95.8726C96.9536 95.8726 96.9536 95.8726 96.7856 95.8726C96.9536 95.8726 98.1296 95.7045 98.9696 95.0321C99.8096 94.0235 100.146 92.3426 99.4736 91.5021C99.1376 91.1659 98.6336 90.9977 98.1296 90.9977C97.6256 91.1658 97.2896 91.3339 97.1216 91.8382C97.1216 92.0063 97.1216 92.0063 97.1216 92.1744C97.2896 92.1744 97.2896 92.1744 97.4576 92.1744C97.6256 92.0063 97.7936 92.0064 97.9616 92.0064C98.1296 92.0064 98.1296 92.1745 98.2976 92.3426C98.2976 92.5107 98.2976 92.6788 98.1296 92.8469L97.9616 93.0149C97.6256 93.0149 97.1216 92.6787 96.6176 92.1744C96.1136 91.6701 95.4416 91.3339 94.9376 90.9977C94.0976 90.6615 91.5776 90.1573 89.8975 91.3339C89.8975 91.3339 88.8895 92.1745 88.7215 92.8469C88.3855 93.5192 88.3855 94.3598 88.5535 94.864C88.3855 95.0321 88.2175 95.2002 88.2175 95.5364C88.2175 96.0407 88.7215 96.3769 89.5615 96.545C89.5615 96.7131 89.3935 96.713 89.3935 96.8811C89.3935 97.3854 90.0656 97.8898 90.9056 97.8898C91.5776 97.8898 92.0816 97.7217 92.2496 97.3855C92.4176 97.7217 92.9216 97.8898 93.5936 97.8898C94.4336 97.8898 95.1056 97.3854 95.1056 96.8811C95.1056 96.713 95.1056 96.545 94.9376 96.545C95.4416 96.545 95.7776 96.3768 96.1136 96.0406C96.1136 96.0406 96.1136 96.0406 96.2816 96.0406C96.1136 96.0406 96.4496 96.0407 96.7856 95.8726ZM97.9616 95.0321C97.7936 95.2002 97.4576 95.2002 97.2896 95.2002C97.4576 94.1916 96.7856 93.183 96.6176 92.6787C96.9536 93.0149 97.2896 93.183 97.6256 93.3511C97.7936 93.8554 98.1296 94.3597 97.9616 95.0321ZM96.1136 95.5364C96.1136 95.3683 95.9456 95.0321 95.7776 94.6959C95.4416 94.0235 94.7696 93.0149 93.0896 92.5106C90.9056 91.8383 89.8975 92.1745 89.3935 92.5106C89.3935 92.5106 89.3935 92.5107 89.5615 92.3426C89.7295 92.1745 89.8976 92.0063 90.0656 91.8382C90.7376 91.502 91.9136 91.5021 93.5936 92.0064C95.7776 92.6788 96.4496 94.1917 96.6176 94.864C96.6176 95.0321 96.7856 95.3683 96.7856 95.5364C96.7856 95.5364 96.7856 95.5364 96.6176 95.5364C96.2816 95.5364 96.2816 95.5364 96.1136 95.5364ZM92.9216 93.5192C92.5856 93.5192 92.4176 93.6873 92.2496 93.8554C91.9136 93.5192 91.5776 93.3511 90.9056 93.3511C90.7376 93.3511 90.5696 93.3511 90.4016 93.3511C90.9056 93.183 91.5776 93.1831 92.2496 93.1831C92.4176 93.3512 92.5856 93.5192 92.9216 93.5192ZM90.9056 93.8554C91.4096 93.8554 91.9136 94.1916 91.9136 94.3597C91.9136 94.5278 91.7456 94.6959 91.5776 94.6959H91.4096C91.2416 94.6959 91.0736 94.6959 90.9056 94.6959C90.4016 94.6959 89.8975 94.3597 89.8975 94.1916C89.8975 94.1916 90.2336 93.8554 90.9056 93.8554ZM91.5776 95.3683H91.7456C91.9136 95.3683 91.9136 95.3683 92.0816 95.3683C92.7536 95.3683 93.0896 95.7045 93.0896 95.8726C93.0896 96.0407 92.5856 96.3769 92.0816 96.3769C91.4096 96.3769 91.0735 96.0407 91.0735 95.8726C91.0735 95.5364 91.2416 95.3683 91.5776 95.3683ZM92.4176 94.3597C92.4176 94.1916 92.9216 93.8554 93.4256 93.8554C93.5936 93.8554 93.5936 93.8554 93.7616 93.8554C94.0976 93.8554 94.4336 94.1916 94.4336 94.3597C94.4336 94.5278 94.2656 94.6959 93.9296 94.864C93.7616 94.864 93.5936 94.864 93.4256 94.864C92.7536 94.864 92.4176 94.6959 92.4176 94.3597ZM89.2255 94.864C89.2255 94.6959 89.2255 94.6959 89.2255 94.5278C89.2255 94.3597 89.3935 94.1917 89.5615 94.0236C89.3935 94.1917 89.3935 94.3597 89.3935 94.5278C89.3935 94.6959 89.3935 94.864 89.5615 94.864C89.3935 94.864 89.3935 94.864 89.2255 94.864ZM94.7696 94.6959C94.7696 94.864 94.7696 94.864 94.7696 94.6959C94.7696 94.864 94.7696 94.864 94.7696 94.6959C94.7696 94.864 94.7696 94.864 94.7696 94.6959ZM88.5535 95.7045C88.5535 95.5364 88.7215 95.5364 88.8896 95.3683C89.0576 95.3683 89.2255 95.2002 89.3935 95.2002C89.5615 95.2002 89.5616 95.2002 89.7296 95.2002C90.4016 95.2002 90.7376 95.5364 90.7376 95.7045C90.7376 95.8726 90.5696 95.8725 90.5696 96.0406C90.4016 96.2087 90.0656 96.2088 89.7296 96.2088C88.8896 96.2088 88.5535 96.0407 88.5535 95.7045ZM90.7376 97.7216C90.0655 97.7216 89.7296 97.5535 89.7296 97.2173C89.7296 97.0492 90.2335 96.7131 90.7376 96.7131C91.0736 96.7131 91.2416 96.713 91.5776 96.8811C91.5776 96.8811 91.7456 97.0492 91.7456 97.2173C91.7456 97.3854 91.2416 97.7216 90.7376 97.7216ZM93.4256 97.7216C92.7536 97.7216 92.4176 97.3854 92.4176 97.2173C92.4176 97.2173 92.4176 97.0493 92.5856 97.0493C92.7536 96.8812 93.0896 96.7131 93.4256 96.7131C93.5936 96.7131 93.7616 96.7131 93.9296 96.7131C94.2656 96.8812 94.4336 97.0492 94.4336 97.2173C94.4336 97.3854 93.9296 97.7216 93.4256 97.7216ZM95.6096 95.8726C95.4416 96.0407 95.1056 96.2088 94.6016 96.2088C94.4336 96.2088 94.2656 96.2088 94.0976 96.2088C93.7616 96.0407 93.5936 95.8726 93.5936 95.7045C93.5936 95.5364 93.7616 95.3683 94.0976 95.2002C94.2656 95.2002 94.4336 95.2002 94.6016 95.2002C94.7696 95.2002 94.7696 95.2002 94.9376 95.2002C95.2736 95.3683 95.6096 95.5364 95.6096 95.8726Z" fill="white"/>
    <path d="M108.882 90.4934V78.2224C108.882 78.0543 108.882 77.8862 108.714 77.8862C108.546 77.8862 108.378 77.8862 108.378 77.8862L107.034 78.5586V74.188C107.034 74.0199 107.034 73.8519 106.866 73.8519C106.698 73.8519 106.53 73.8519 106.53 73.8519L100.482 77.7181H100.314C99.3056 78.0543 98.2976 78.2224 97.4576 78.2224C94.6016 78.2224 93.5936 76.3734 93.5936 76.3734C93.5936 76.2053 93.4256 76.2052 93.2576 76.2052C93.0896 76.2052 92.9216 76.3734 92.9216 76.3734C92.9216 76.3734 91.9136 78.2224 89.0576 78.2224C88.2176 78.2224 87.2096 78.0543 86.2016 77.7181L80.1535 73.8519C79.9855 73.8519 79.8175 73.8519 79.6495 73.8519C79.4815 73.8519 79.4815 74.0199 79.4815 74.188V78.5586L78.3055 77.8862C78.1375 77.8862 77.9695 77.8862 77.9695 77.8862C77.8015 77.8862 77.8015 78.0543 77.8015 78.2224V90.4934C77.8015 90.6615 77.8015 93.6873 80.3215 96.0406C82.5055 98.2259 85.8656 99.4026 90.4016 99.4026C90.4016 99.4026 90.4016 99.4026 90.5696 99.4026C92.2496 99.9068 93.2576 100.243 93.2576 101.756C93.2576 101.924 93.4256 102.092 93.5936 102.092C93.7616 102.092 93.9296 101.924 93.9296 101.756C93.9296 100.411 94.9376 99.9068 96.6176 99.4026H96.7856C101.322 99.4026 104.682 98.2259 106.866 96.0406C108.882 93.6873 108.882 90.6615 108.882 90.4934ZM87.3776 86.9635C87.8816 86.7954 88.0496 85.7868 88.0496 85.7868C88.0496 85.7868 88.8896 86.2911 89.3936 86.123C89.3936 86.2911 89.3936 86.7953 89.3936 86.7953C89.3936 86.7953 89.2256 87.1315 89.3936 87.4677C89.5616 87.6358 89.5616 87.972 89.5616 88.3082C89.2256 88.3082 89.0576 88.3082 88.7216 88.3082C88.2176 88.3082 87.7136 88.3082 87.3776 88.3082C87.3776 87.6358 87.3776 87.2996 87.3776 86.9635ZM96.7856 86.123H97.7936C97.7936 86.6273 97.7936 87.1315 97.9616 87.972L96.7856 87.8039C96.7856 87.1316 96.7856 86.6273 96.7856 86.123ZM105.018 87.8039C104.346 88.4763 103.338 88.8125 102.162 88.8125C101.826 87.972 101.658 87.1316 101.658 86.4592L106.194 83.9377C106.194 84.442 106.194 86.4592 105.018 87.8039ZM80.1535 83.9377L84.6896 86.4592C84.6896 87.1316 84.5216 87.972 84.1856 88.8125C83.0095 88.8125 82.1695 88.4763 81.4975 87.8039C80.1535 86.4592 80.1535 84.442 80.1535 83.9377ZM108.042 78.8948V86.4592L106.026 87.6358C107.034 85.9548 107.034 84.1058 107.034 83.7696V79.3991L108.042 78.8948ZM106.194 79.0629L102.834 81.0801C102.666 80.912 102.162 80.2395 100.986 78.3905L106.194 75.0285V79.0629ZM97.2896 79.0629C98.1296 79.0629 99.1376 78.8948 100.146 78.5586C101.322 80.2396 101.826 81.0801 102.162 81.4163C101.658 82.2568 100.146 85.1144 101.322 88.6444C100.818 88.1401 99.6416 87.972 98.4656 87.972C98.2976 87.1315 98.2976 86.6273 98.2976 86.123H100.146C100.314 86.123 100.314 85.7867 100.314 85.4505V83.7696C100.314 82.4248 99.6416 82.4248 99.6416 82.4248C99.6416 82.4248 99.1376 82.4248 98.9696 81.7524C98.8016 81.08 98.2976 80.5758 97.7936 80.5758C97.2896 80.5758 96.2816 80.912 95.6096 81.4163C95.1056 81.5844 95.1056 81.9205 95.1056 82.4248C94.9376 83.6015 94.6016 83.4334 94.6016 83.4334C94.4336 83.4334 94.2656 83.6015 94.2656 83.9377V85.6187C94.2656 85.9549 94.4336 86.291 94.6016 86.291H96.4496C96.4496 86.7953 96.4496 87.2997 96.2816 88.1402C95.1056 88.1402 94.0976 88.4763 93.4256 88.9806V77.7181C93.9296 78.2224 95.2736 79.0629 97.2896 79.0629ZM92.5856 77.8862V88.6444C92.0816 88.3082 91.2416 88.1402 90.2336 88.1402C90.0656 87.6359 90.0656 86.291 90.2336 85.9548C91.0736 85.7867 91.0736 84.9462 91.0736 84.2738C91.0736 83.7696 90.9056 81.9206 90.9056 81.9206L91.4096 81.7524C91.5776 81.7524 91.5776 81.7524 91.5776 81.5843C91.5776 81.4162 91.5776 81.2481 91.5776 81.2481L91.0736 81.0801C90.9056 80.912 90.7376 80.7439 90.5696 80.7439C90.4016 80.7439 90.0656 80.7439 89.8976 81.0801C89.7296 80.912 89.3936 81.0801 89.2256 81.0801C89.2256 81.0801 89.2256 81.9205 90.0656 81.7524L90.2336 83.9377C90.2336 83.9377 90.2336 84.4419 89.7296 84.2738C89.2256 84.1057 88.2176 83.7696 87.5456 83.9377C87.2096 84.1058 86.7056 84.2738 86.3696 85.1143C86.0336 85.9548 86.5376 85.6187 86.5376 85.6187L87.0416 85.2825C87.0416 85.2825 87.3776 85.9549 87.0416 86.4592C86.7056 86.7954 86.8735 87.1315 86.8735 87.1315C86.8735 87.1315 87.0416 87.972 87.0416 88.3082C86.2016 88.3082 85.5296 88.6444 85.0256 88.8125C86.0336 85.2824 84.6896 82.4248 84.1856 81.5843C84.5216 81.2481 85.0255 80.4076 86.2016 78.7267C87.2096 79.0629 88.2176 79.2309 89.0576 79.2309C90.7376 79.0628 91.7456 78.3905 92.5856 77.8862ZM80.1535 75.0285L85.3616 78.3905C84.3535 80.0714 83.6815 80.7439 83.5135 81.0801L80.1535 79.2309V75.0285ZM79.3135 79.5672V83.9377C79.3135 84.1058 79.3135 86.123 80.3215 87.8039L78.3055 86.6272V79.0629L79.3135 79.5672ZM78.4735 91.6701L83.5135 94.5278C84.0175 95.8726 84.8575 96.7131 86.2016 97.8897C86.5376 98.2259 87.0416 98.394 87.3776 98.5621C84.3535 98.2259 82.0015 97.2173 80.4895 95.5363C79.1455 94.1916 78.6415 92.8468 78.4735 91.6701ZM93.0896 100.411C92.4176 99.4026 91.2416 99.0664 89.8976 98.7302C88.7216 98.394 87.5456 98.0578 86.5376 97.2173C84.0175 95.3683 83.1775 93.6873 84.5215 89.8211H101.658C103.002 93.6873 102.162 95.2002 99.6416 97.2173C98.6336 97.8897 97.4576 98.394 96.2816 98.5621C94.9376 99.0664 93.7616 99.4026 93.0896 100.411ZM105.858 95.5363C104.178 97.2173 101.826 98.2259 98.8016 98.5621C99.3056 98.394 99.6416 98.0578 99.9776 97.8897C101.322 96.8812 102.33 95.8725 102.666 94.6959C102.666 94.6959 102.666 94.6959 102.834 94.6959L107.874 91.8382C107.706 92.6787 107.202 94.1916 105.858 95.5363Z" fill="white"/>
    <path d="M93.0897 75.8691C95.4417 75.8691 97.1217 74.6925 97.1217 73.1796C97.1217 71.6667 95.2737 70.49 93.0897 70.49C90.7377 70.49 89.0576 71.6667 89.0576 73.1796C89.0576 74.6925 90.7377 75.8691 93.0897 75.8691ZM93.0897 71.6666C94.2657 71.6666 95.1057 72.171 95.1057 72.6753C95.1057 73.1796 94.6017 73.5157 93.9297 73.6838C93.2577 73.8519 93.4257 74.1882 93.0897 74.3563C92.7537 74.1882 92.9217 73.8519 92.2497 73.6838C91.5777 73.5157 91.0736 73.1796 91.0736 72.6753C91.0736 72.0029 91.9137 71.6666 93.0897 71.6666Z" fill="white"/>
</svg>
