<svg
  class="tracto-dolly-cama-baja transport-item is-hidden"
  width="868"
  height="115"
  viewBox="0 0 868 115"
  fill="none"
  xmlns="http://www.w3.org/2000/svg"
>
<path
    d="M132.384 79.7795L131.659 81.9541H120.929L120.784 10.4828H116.289V0.769714H111.215V10.4828H109.475V69.1966H104.835V14.687H98.1646L96.8596 15.9918H62.0597L61.9147 22.2256H66.4097L53.9398 55.1343H6.95996V88.7678H0V95.5815H6.95996V98.7709H256.359V79.7795H132.384ZM85.8396 54.9893H68.2947L76.4147 23.6753H85.8396V54.9893Z"
    fill="#57C14C"
  />
<path
    d="M191.399 58.7586H267.089L291.594 79.6346H406.578V96.0165H283.474L261.144 76.4452H191.399V58.7586Z"
    fill="#DCE9EF"
    stroke="#65819B"
    stroke-miterlimit="10"
  />
<path
    d="M344.083 58.3237V76.0103H413.683L437.608 96.0165H867.241V79.3446H444.568L418.758 58.3237H344.083Z"
    fill="#DCE9EF"
    stroke="#65819B"
    stroke-miterlimit="10"
  />
<g>
<path
      d="M31.6099 114.138C40.3387 114.138 47.4148 107.063 47.4148 98.336C47.4148 89.6088 40.3387 82.5341 31.6099 82.5341C22.881 82.5341 15.8049 89.6088 15.8049 98.336C15.8049 107.063 22.881 114.138 31.6099 114.138Z"
      fill="#3B5266"
    />
<path
      d="M20.88 98.336C20.88 94.1318 23.2 90.6525 26.6799 88.7679L26.0999 87.898C22.33 89.9277 19.72 93.8419 19.72 98.336C19.72 102.83 22.33 106.744 26.0999 108.774L26.6799 107.904C23.345 106.02 20.88 102.54 20.88 98.336Z"
      fill="#76C1AA"
    />
<path
      d="M37.1198 87.898L36.6848 88.7679C40.1648 90.5075 42.6298 94.1318 42.6298 98.336C42.6298 102.54 40.1648 106.165 36.6848 107.904L37.1198 108.774C40.8898 106.744 43.4998 102.83 43.4998 98.336C43.3548 93.8419 40.8898 89.7827 37.1198 87.898Z"
      fill="#76C1AA"
    />
<path
      opacity="0.3"
      d="M31.6098 100.656C32.8911 100.656 33.9298 99.6171 33.9298 98.336C33.9298 97.055 32.8911 96.0165 31.6098 96.0165C30.3285 96.0165 29.2898 97.055 29.2898 98.336C29.2898 99.6171 30.3285 100.656 31.6098 100.656Z"
      fill="white"
    />
<path
      opacity="0.3"
      d="M33.0601 96.5963L35.6701 93.9868C34.6551 92.972 33.3501 92.3922 31.7551 92.3922V96.1614C32.1901 96.1614 32.6251 96.3064 33.0601 96.5963Z"
      fill="white"
    />
<path
      opacity="0.3"
      d="M33.9299 98.1911H37.6999C37.6999 96.7414 37.1199 95.2916 36.1049 94.2768L33.4949 96.8863C33.6399 97.3212 33.7849 97.7562 33.9299 98.1911Z"
      fill="white"
    />
<path
      opacity="0.3"
      d="M33.2051 99.9307L35.815 102.54C36.83 101.525 37.41 100.221 37.41 98.7709H33.6401C33.7851 99.2059 33.4951 99.6408 33.2051 99.9307Z"
      fill="white"
    />
<path
      opacity="0.3"
      d="M30.3051 100.221L27.6951 102.83C28.7101 103.7 29.87 104.28 31.32 104.28V100.511C30.885 100.511 30.595 100.366 30.3051 100.221Z"
      fill="white"
    />
<path
      opacity="0.3"
      d="M31.7551 100.656V104.425C33.2051 104.425 34.5101 103.845 35.3801 102.975L32.7701 100.366C32.4801 100.511 32.1901 100.511 31.7551 100.656Z"
      fill="white"
    />
<path
      opacity="0.3"
      d="M29.7251 97.1763L27.115 94.5668C26.245 95.5816 25.665 96.8863 25.665 98.336H29.435C29.29 97.7561 29.4351 97.4662 29.7251 97.1763Z"
      fill="white"
    />
<path
      opacity="0.3"
      d="M29.435 98.7709H25.665C25.81 100.221 26.39 101.38 27.26 102.395L29.87 99.7857C29.58 99.4958 29.435 99.2059 29.435 98.7709Z"
      fill="white"
    />
<path
      opacity="0.3"
      d="M31.175 96.1614V92.3922C29.725 92.5372 28.42 93.117 27.405 93.9868L30.015 96.5963C30.305 96.4514 30.74 96.1614 31.175 96.1614Z"
      fill="white"
    />
<path
      d="M31.7549 91.5223C31.3199 91.5223 30.7399 91.5223 30.3049 91.6673C27.1149 92.2472 24.7949 95.0016 24.7949 98.336C24.7949 102.105 27.8399 105.15 31.6099 105.15C33.4949 105.15 35.2349 104.425 36.3949 103.12C37.6999 101.815 38.4249 100.221 38.4249 98.336C38.5699 94.5667 35.5249 91.5223 31.7549 91.5223ZM33.9299 98.1911C33.9299 97.7562 33.7849 97.3212 33.4949 96.8863L36.1049 94.2768C36.9749 95.2916 37.5549 96.5964 37.6999 98.1911H33.9299ZM27.5499 102.83L30.1599 100.221C30.4499 100.366 30.7399 100.511 31.1749 100.656V104.425C29.8699 104.28 28.5649 103.7 27.5499 102.83ZM33.0599 96.5964C32.7699 96.3064 32.3349 96.1614 31.7549 96.1614V92.3922C33.2049 92.3922 34.6549 92.972 35.6699 93.9868L33.0599 96.5964ZM29.2899 98.1911H25.5199C25.5199 96.7413 26.0999 95.4366 26.9699 94.4218L29.5799 97.0313C29.4349 97.4662 29.2899 97.7562 29.2899 98.1911ZM29.4349 98.771C29.5799 99.2059 29.7249 99.4958 29.8699 99.7857L27.2599 102.395C26.3899 101.38 25.8099 100.221 25.6649 98.771H29.4349ZM31.6099 100.221C30.5949 100.221 29.7249 99.3508 29.7249 98.336C29.7249 97.3212 30.5949 96.4514 31.6099 96.4514C32.3349 96.4514 32.9149 96.8863 33.2049 97.4662V97.6111C33.3499 97.7561 33.3499 98.0461 33.3499 98.336C33.3499 98.626 33.3499 98.7709 33.2049 99.0609C33.0599 99.7857 32.4799 100.221 31.6099 100.221ZM31.7549 100.656C32.1899 100.656 32.4799 100.511 32.7699 100.366L35.3799 102.975C34.3649 103.845 33.0599 104.425 31.7549 104.425V100.656ZM31.1749 92.3922V96.1614C30.7399 96.3064 30.3049 96.4514 30.0149 96.7413L27.4049 94.1318C28.4199 93.117 29.7249 92.5372 31.1749 92.3922ZM35.9599 102.54L33.3499 99.9307C33.6399 99.6408 33.7849 99.2059 33.9299 98.771H37.6999C37.4099 100.221 36.8299 101.525 35.9599 102.54Z"
      fill="white"
    />
</g>
<g>
<path
      d="M147.174 114.138C155.903 114.138 162.979 107.063 162.979 98.336C162.979 89.6088 155.903 82.5341 147.174 82.5341C138.445 82.5341 131.369 89.6088 131.369 98.336C131.369 107.063 138.445 114.138 147.174 114.138Z"
      fill="#3B5266"
    />
<path
      d="M136.444 98.336C136.444 94.1318 138.764 90.6525 142.244 88.7679L141.664 87.898C137.894 89.9277 135.284 93.8419 135.284 98.336C135.284 102.83 137.894 106.744 141.664 108.774L142.244 107.904C138.764 106.02 136.444 102.54 136.444 98.336Z"
      fill="#76C1AA"
    />
<path
      d="M152.539 87.898L152.104 88.7679C155.584 90.5075 158.049 94.1318 158.049 98.336C158.049 102.54 155.584 106.165 152.104 107.904L152.539 108.774C156.309 106.744 158.919 102.83 158.919 98.336C158.919 93.8419 156.309 89.7827 152.539 87.898Z"
      fill="#76C1AA"
    />
<path
      opacity="0.3"
      d="M147.174 100.656C148.456 100.656 149.494 99.6171 149.494 98.336C149.494 97.055 148.456 96.0165 147.174 96.0165C145.893 96.0165 144.854 97.055 144.854 98.336C144.854 99.6171 145.893 100.656 147.174 100.656Z"
      fill="white"
    />
<path
      opacity="0.3"
      d="M148.479 96.5963L151.089 93.9868C150.074 92.972 148.769 92.3922 147.174 92.3922V96.1614C147.754 96.1614 148.189 96.3064 148.479 96.5963Z"
      fill="white"
    />
<path
      opacity="0.3"
      d="M149.349 98.1911H153.119C153.119 96.7414 152.539 95.2916 151.524 94.2768L148.914 96.8863C149.204 97.3212 149.349 97.7562 149.349 98.1911Z"
      fill="white"
    />
<path
      opacity="0.3"
      d="M148.77 99.9307L151.38 102.54C152.395 101.525 152.974 100.221 152.974 98.7709H149.205C149.205 99.2059 149.06 99.6408 148.77 99.9307Z"
      fill="white"
    />
<path
      opacity="0.3"
      d="M145.724 100.221L143.115 102.83C144.129 103.7 145.289 104.28 146.739 104.28V100.511C146.304 100.511 146.014 100.366 145.724 100.221Z"
      fill="white"
    />
<path
      opacity="0.3"
      d="M147.319 100.656V104.425C148.769 104.425 150.074 103.845 150.944 102.975L148.334 100.366C148.044 100.511 147.609 100.511 147.319 100.656Z"
      fill="white"
    />
<path
      opacity="0.3"
      d="M145.144 97.1763L142.534 94.5668C141.664 95.5816 141.084 96.8863 141.084 98.336H144.854C144.854 97.7561 144.999 97.4662 145.144 97.1763Z"
      fill="white"
    />
<path
      opacity="0.3"
      d="M144.854 98.7709H141.084C141.229 100.221 141.809 101.38 142.679 102.395L145.289 99.7857C145.144 99.4958 144.999 99.2059 144.854 98.7709Z"
      fill="white"
    />
<path
      opacity="0.3"
      d="M146.739 96.1614V92.3922C145.289 92.5372 143.984 93.117 142.969 93.9868L145.579 96.5963C145.869 96.4514 146.304 96.1614 146.739 96.1614Z"
      fill="white"
    />
<path
      d="M147.174 91.5223C146.739 91.5223 146.159 91.5223 145.724 91.6673C142.534 92.2472 140.214 95.0016 140.214 98.336C140.214 102.105 143.259 105.15 147.029 105.15C148.914 105.15 150.654 104.425 151.814 103.12C153.119 101.815 153.844 100.221 153.844 98.336C153.989 94.5667 150.944 91.5223 147.174 91.5223ZM149.349 98.1911C149.349 97.7562 149.204 97.3212 148.914 96.8863L151.524 94.2768C152.394 95.2916 152.974 96.5964 153.119 98.1911H149.349ZM143.114 102.83L145.724 100.221C146.014 100.366 146.304 100.511 146.739 100.656V104.425C145.289 104.28 144.129 103.7 143.114 102.83ZM148.479 96.5964C148.189 96.3064 147.754 96.1614 147.174 96.1614V92.3922C148.624 92.3922 150.074 92.972 151.089 93.9868L148.479 96.5964ZM144.854 98.1911H141.084C141.084 96.7413 141.664 95.4366 142.534 94.4218L145.144 97.0313C144.999 97.4662 144.854 97.7562 144.854 98.1911ZM144.854 98.771C144.999 99.2059 145.144 99.4958 145.289 99.7857L142.679 102.395C141.809 101.38 141.229 100.221 141.084 98.771H144.854ZM147.174 100.221C146.159 100.221 145.289 99.3508 145.289 98.336C145.289 97.3212 146.159 96.4514 147.174 96.4514C147.899 96.4514 148.479 96.8863 148.769 97.4662V97.6111C148.914 97.7561 148.914 98.0461 148.914 98.336C148.914 98.626 148.914 98.7709 148.769 99.0609C148.624 99.7857 147.899 100.221 147.174 100.221ZM147.319 100.656C147.754 100.656 148.044 100.511 148.334 100.366L150.944 102.975C149.929 103.845 148.624 104.425 147.319 104.425V100.656ZM146.739 92.3922V96.1614C146.304 96.3064 145.869 96.4514 145.579 96.7413L142.969 94.1318C143.984 93.117 145.289 92.5372 146.739 92.3922ZM151.379 102.54L148.769 99.9307C149.059 99.6408 149.204 99.2059 149.349 98.771H153.119C152.974 100.221 152.394 101.525 151.379 102.54Z"
      fill="white"
    />
</g>
<g>
<path
      d="M191.544 114.138C200.273 114.138 207.349 107.063 207.349 98.336C207.349 89.6088 200.273 82.5341 191.544 82.5341C182.816 82.5341 175.74 89.6088 175.74 98.336C175.74 107.063 182.816 114.138 191.544 114.138Z"
      fill="#3B5266"
    />
<path
      d="M180.815 98.336C180.815 94.1318 183.135 90.6525 186.615 88.7679L186.034 87.898C182.265 89.9277 179.655 93.8419 179.655 98.336C179.655 102.83 182.265 106.744 186.034 108.774L186.615 107.904C183.135 106.02 180.815 102.54 180.815 98.336Z"
      fill="#76C1AA"
    />
<path
      d="M196.91 87.898L196.475 88.7679C199.955 90.5075 202.42 94.1318 202.42 98.336C202.42 102.54 199.955 106.165 196.475 107.904L196.91 108.774C200.68 106.744 203.29 102.83 203.29 98.336C203.29 93.8419 200.68 89.7827 196.91 87.898Z"
      fill="#76C1AA"
    />
<path
      opacity="0.3"
      d="M191.544 100.656C192.826 100.656 193.864 99.6171 193.864 98.336C193.864 97.055 192.826 96.0165 191.544 96.0165C190.263 96.0165 189.224 97.055 189.224 98.336C189.224 99.6171 190.263 100.656 191.544 100.656Z"
      fill="white"
    />
<path
      opacity="0.3"
      d="M192.85 96.5963L195.46 93.9868C194.445 92.972 193.14 92.3922 191.545 92.3922V96.1614C192.125 96.1614 192.56 96.3064 192.85 96.5963Z"
      fill="white"
    />
<path
      opacity="0.3"
      d="M193.72 98.1911H197.49C197.49 96.7414 196.91 95.2916 195.895 94.2768L193.285 96.8863C193.575 97.3212 193.72 97.7562 193.72 98.1911Z"
      fill="white"
    />
<path
      opacity="0.3"
      d="M193.14 99.9307L195.75 102.54C196.765 101.525 197.345 100.221 197.345 98.7709H193.575C193.575 99.2059 193.43 99.6408 193.14 99.9307Z"
      fill="white"
    />
<path
      opacity="0.3"
      d="M190.095 100.221L187.485 102.83C188.5 103.7 189.66 104.28 191.11 104.28V100.511C190.675 100.511 190.385 100.366 190.095 100.221Z"
      fill="white"
    />
<path
      opacity="0.3"
      d="M191.69 100.656V104.425C193.14 104.425 194.445 103.845 195.315 102.975L192.705 100.366C192.415 100.511 191.98 100.511 191.69 100.656Z"
      fill="white"
    />
<path
      opacity="0.3"
      d="M189.515 97.1763L186.905 94.5668C186.035 95.5816 185.455 96.8863 185.455 98.336H189.225C189.225 97.7561 189.37 97.4662 189.515 97.1763Z"
      fill="white"
    />
<path
      opacity="0.3"
      d="M189.225 98.7709H185.455C185.6 100.221 186.18 101.38 187.05 102.395L189.66 99.7857C189.515 99.4958 189.37 99.2059 189.225 98.7709Z"
      fill="white"
    />
<path
      opacity="0.3"
      d="M191.11 96.1614V92.3922C189.66 92.5372 188.355 93.117 187.34 93.9868L189.95 96.5963C190.24 96.4514 190.675 96.1614 191.11 96.1614Z"
      fill="white"
    />
<path
      d="M191.544 91.5223C191.109 91.5223 190.529 91.5223 190.094 91.6673C186.904 92.2472 184.584 95.0016 184.584 98.336C184.584 102.105 187.629 105.15 191.399 105.15C193.284 105.15 195.024 104.425 196.184 103.12C197.489 101.815 198.214 100.221 198.214 98.336C198.359 94.5667 195.314 91.5223 191.544 91.5223ZM193.719 98.1911C193.719 97.7562 193.574 97.3212 193.284 96.8863L195.894 94.2768C196.764 95.2916 197.344 96.5964 197.489 98.1911H193.719ZM187.484 102.83L190.094 100.221C190.384 100.366 190.674 100.511 191.109 100.656V104.425C189.659 104.28 188.499 103.7 187.484 102.83ZM192.849 96.5964C192.559 96.3064 192.124 96.1614 191.544 96.1614V92.3922C192.994 92.3922 194.444 92.972 195.459 93.9868L192.849 96.5964ZM189.224 98.1911H185.454C185.454 96.7413 186.034 95.4366 186.904 94.4218L189.514 97.0313C189.369 97.4662 189.224 97.7562 189.224 98.1911ZM189.224 98.771C189.369 99.2059 189.514 99.4958 189.659 99.7857L187.049 102.395C186.179 101.38 185.599 100.221 185.454 98.771H189.224ZM191.544 100.221C190.529 100.221 189.659 99.3508 189.659 98.336C189.659 97.3212 190.529 96.4514 191.544 96.4514C192.269 96.4514 192.849 96.8863 193.139 97.4662V97.6111C193.284 97.7561 193.284 98.0461 193.284 98.336C193.284 98.626 193.284 98.7709 193.139 99.0609C192.994 99.7857 192.269 100.221 191.544 100.221ZM191.689 100.656C192.124 100.656 192.414 100.511 192.704 100.366L195.314 102.975C194.299 103.845 192.994 104.425 191.689 104.425V100.656ZM191.109 92.3922V96.1614C190.674 96.3064 190.239 96.4514 189.949 96.7413L187.339 94.1318C188.354 93.117 189.659 92.5372 191.109 92.3922ZM195.749 102.54L193.139 99.9307C193.429 99.6408 193.574 99.2059 193.719 98.771H197.489C197.344 100.221 196.764 101.525 195.749 102.54Z"
      fill="white"
    />
</g>
<g>
<path
      d="M235.914 114.138C244.643 114.138 251.719 107.063 251.719 98.336C251.719 89.6088 244.643 82.5341 235.914 82.5341C227.185 82.5341 220.109 89.6088 220.109 98.336C220.109 107.063 227.185 114.138 235.914 114.138Z"
      fill="#3B5266"
    />
<path
      d="M225.184 98.336C225.184 94.1318 227.504 90.6525 230.984 88.7679L230.404 87.898C226.634 89.9277 224.024 93.8419 224.024 98.336C224.024 102.83 226.634 106.744 230.404 108.774L230.984 107.904C227.504 106.02 225.184 102.54 225.184 98.336Z"
      fill="#76C1AA"
    />
<path
      d="M241.279 87.898L240.844 88.7679C244.324 90.5075 246.789 94.1318 246.789 98.336C246.789 102.54 244.324 106.165 240.844 107.904L241.279 108.774C245.049 106.744 247.659 102.83 247.659 98.336C247.659 93.8419 245.049 89.7827 241.279 87.898Z"
      fill="#76C1AA"
    />
<path
      opacity="0.3"
      d="M235.914 100.656C237.195 100.656 238.234 99.6171 238.234 98.336C238.234 97.055 237.195 96.0165 235.914 96.0165C234.633 96.0165 233.594 97.055 233.594 98.336C233.594 99.6171 234.633 100.656 235.914 100.656Z"
      fill="white"
    />
<path
      opacity="0.3"
      d="M237.219 96.5963L239.829 93.9868C238.814 92.972 237.509 92.3922 235.914 92.3922V96.1614C236.494 96.1614 236.929 96.3064 237.219 96.5963Z"
      fill="white"
    />
<path
      opacity="0.3"
      d="M238.089 98.1911H241.859C241.859 96.7414 241.279 95.2916 240.264 94.2768L237.654 96.8863C237.944 97.3212 238.089 97.7562 238.089 98.1911Z"
      fill="white"
    />
<path
      opacity="0.3"
      d="M237.509 99.9307L240.119 102.54C241.134 101.525 241.714 100.221 241.714 98.7709H237.944C237.944 99.2059 237.799 99.6408 237.509 99.9307Z"
      fill="white"
    />
<path
      opacity="0.3"
      d="M234.464 100.221L231.854 102.83C232.869 103.7 234.029 104.28 235.479 104.28V100.511C235.044 100.511 234.754 100.366 234.464 100.221Z"
      fill="white"
    />
<path
      opacity="0.3"
      d="M236.059 100.656V104.425C237.509 104.425 238.814 103.845 239.684 102.975L237.074 100.366C236.784 100.511 236.349 100.511 236.059 100.656Z"
      fill="white"
    />
<path
      opacity="0.3"
      d="M233.884 97.1763L231.274 94.5668C230.404 95.5816 229.824 96.8863 229.824 98.336H233.594C233.594 97.7561 233.739 97.4662 233.884 97.1763Z"
      fill="white"
    />
<path
      opacity="0.3"
      d="M233.594 98.7709H229.824C229.969 100.221 230.549 101.38 231.419 102.395L234.029 99.7857C233.884 99.4958 233.739 99.2059 233.594 98.7709Z"
      fill="white"
    />
<path
      opacity="0.3"
      d="M235.479 96.1614V92.3922C234.029 92.5372 232.724 93.117 231.709 93.9868L234.319 96.5963C234.609 96.4514 235.044 96.1614 235.479 96.1614Z"
      fill="white"
    />
<path
      d="M235.914 91.5223C235.479 91.5223 234.899 91.5223 234.464 91.6673C231.274 92.2472 228.954 95.0016 228.954 98.336C228.954 102.105 231.999 105.15 235.769 105.15C237.654 105.15 239.394 104.425 240.554 103.12C241.859 101.815 242.584 100.221 242.584 98.336C242.729 94.5667 239.684 91.5223 235.914 91.5223ZM238.089 98.1911C238.089 97.7562 237.944 97.3212 237.654 96.8863L240.264 94.2768C241.134 95.2916 241.714 96.5964 241.859 98.1911H238.089ZM231.854 102.83L234.464 100.221C234.754 100.366 235.044 100.511 235.479 100.656V104.425C234.029 104.28 232.869 103.7 231.854 102.83ZM237.219 96.5964C236.929 96.3064 236.494 96.1614 235.914 96.1614V92.3922C237.364 92.3922 238.814 92.972 239.829 93.9868L237.219 96.5964ZM233.594 98.1911H229.824C229.824 96.7413 230.404 95.4366 231.274 94.4218L233.884 97.0313C233.739 97.4662 233.594 97.7562 233.594 98.1911ZM233.594 98.771C233.739 99.2059 233.884 99.4958 234.029 99.7857L231.419 102.395C230.549 101.38 229.969 100.221 229.824 98.771H233.594ZM235.914 100.221C234.899 100.221 234.029 99.3508 234.029 98.336C234.029 97.3212 234.899 96.4514 235.914 96.4514C236.639 96.4514 237.219 96.8863 237.509 97.4662V97.6111C237.654 97.7561 237.654 98.0461 237.654 98.336C237.654 98.626 237.654 98.7709 237.509 99.0609C237.364 99.7857 236.639 100.221 235.914 100.221ZM236.059 100.656C236.494 100.656 236.784 100.511 237.074 100.366L239.684 102.975C238.669 103.845 237.364 104.425 236.059 104.425V100.656ZM235.479 92.3922V96.1614C235.044 96.3064 234.609 96.4514 234.319 96.7413L231.709 94.1318C232.724 93.117 234.029 92.5372 235.479 92.3922ZM240.119 102.54L237.509 99.9307C237.799 99.6408 237.944 99.2059 238.089 98.771H241.859C241.714 100.221 241.134 101.525 240.119 102.54Z"
      fill="white"
    />
</g>
<g>
<path
      d="M301.599 114.138C310.327 114.138 317.404 107.063 317.404 98.336C317.404 89.6088 310.327 82.5341 301.599 82.5341C292.87 82.5341 285.794 89.6088 285.794 98.336C285.794 107.063 292.87 114.138 301.599 114.138Z"
      fill="#3B5266"
    />
<path
      d="M290.869 98.336C290.869 94.1318 293.189 90.6525 296.669 88.7679L296.089 87.898C292.319 89.9277 289.709 93.8419 289.709 98.336C289.709 102.83 292.319 106.744 296.089 108.774L296.669 107.904C293.189 106.02 290.869 102.54 290.869 98.336Z"
      fill="#76C1AA"
    />
<path
      d="M307.109 87.898L306.674 88.7679C310.154 90.5075 312.619 94.1318 312.619 98.336C312.619 102.54 310.154 106.165 306.674 107.904L307.109 108.774C310.879 106.744 313.489 102.83 313.489 98.336C313.344 93.8419 310.879 89.7827 307.109 87.898Z"
      fill="#76C1AA"
    />
<path
      opacity="0.3"
      d="M301.599 100.656C302.88 100.656 303.919 99.6171 303.919 98.336C303.919 97.055 302.88 96.0165 301.599 96.0165C300.317 96.0165 299.279 97.055 299.279 98.336C299.279 99.6171 300.317 100.656 301.599 100.656Z"
      fill="white"
    />
<path
      opacity="0.3"
      d="M303.049 96.5963L305.659 93.9868C304.644 92.972 303.339 92.3922 301.744 92.3922V96.1614C302.179 96.1614 302.614 96.3064 303.049 96.5963Z"
      fill="white"
    />
<path
      opacity="0.3"
      d="M303.774 98.1911H307.544C307.544 96.7414 306.964 95.2916 305.949 94.2768L303.339 96.8863C303.629 97.3212 303.774 97.7562 303.774 98.1911Z"
      fill="white"
    />
<path
      opacity="0.3"
      d="M303.194 99.9307L305.804 102.54C306.819 101.525 307.399 100.221 307.399 98.7709H303.629C303.774 99.2059 303.484 99.6408 303.194 99.9307Z"
      fill="white"
    />
<path
      opacity="0.3"
      d="M300.149 100.221L297.539 102.83C298.554 103.7 299.714 104.28 301.164 104.28V100.511C300.874 100.511 300.439 100.366 300.149 100.221Z"
      fill="white"
    />
<path
      opacity="0.3"
      d="M301.744 100.656V104.425C303.194 104.425 304.499 103.845 305.369 102.975L302.759 100.366C302.469 100.511 302.179 100.511 301.744 100.656Z"
      fill="white"
    />
<path
      opacity="0.3"
      d="M299.714 97.1763L297.104 94.5668C296.234 95.5816 295.654 96.8863 295.654 98.336H299.424C299.279 97.7561 299.424 97.4662 299.714 97.1763Z"
      fill="white"
    />
<path
      opacity="0.3"
      d="M299.279 98.7709H295.509C295.654 100.221 296.234 101.38 297.104 102.395L299.714 99.7857C299.569 99.4958 299.424 99.2059 299.279 98.7709Z"
      fill="white"
    />
<path
      opacity="0.3"
      d="M301.164 96.1614V92.3922C299.714 92.5372 298.409 93.117 297.394 93.9868L300.004 96.5963C300.294 96.4514 300.729 96.1614 301.164 96.1614Z"
      fill="white"
    />
<path
      d="M301.744 91.5223C301.309 91.5223 300.729 91.5223 300.294 91.6673C297.104 92.2472 294.784 95.0016 294.784 98.336C294.784 102.105 297.829 105.15 301.599 105.15C303.484 105.15 305.224 104.425 306.384 103.12C307.689 101.815 308.414 100.221 308.414 98.336C308.414 94.5667 305.369 91.5223 301.744 91.5223ZM303.774 98.1911C303.774 97.7562 303.629 97.3212 303.339 96.8863L305.949 94.2768C306.819 95.2916 307.399 96.5964 307.544 98.1911H303.774ZM297.539 102.83L300.149 100.221C300.439 100.366 300.729 100.511 301.164 100.656V104.425C299.859 104.28 298.554 103.7 297.539 102.83ZM303.049 96.5964C302.759 96.3064 302.324 96.1614 301.744 96.1614V92.3922C303.194 92.3922 304.644 92.972 305.659 93.9868L303.049 96.5964ZM299.279 98.1911H295.509C295.509 96.7413 296.089 95.4366 296.959 94.4218L299.569 97.0313C299.424 97.4662 299.279 97.7562 299.279 98.1911ZM299.279 98.771C299.424 99.2059 299.569 99.4958 299.714 99.7857L297.104 102.395C296.234 101.38 295.654 100.221 295.509 98.771H299.279ZM301.599 100.221C300.584 100.221 299.714 99.3508 299.714 98.336C299.714 97.3212 300.584 96.4514 301.599 96.4514C302.324 96.4514 302.904 96.8863 303.194 97.4662V97.6111C303.339 97.7561 303.339 98.0461 303.339 98.336C303.339 98.626 303.339 98.7709 303.194 99.0609C303.049 99.7857 302.324 100.221 301.599 100.221ZM301.744 100.656C302.179 100.656 302.469 100.511 302.759 100.366L305.369 102.975C304.354 103.845 303.049 104.425 301.744 104.425V100.656ZM301.164 92.3922V96.1614C300.729 96.3064 300.294 96.4514 300.004 96.7413L297.394 94.1318C298.409 93.117 299.714 92.5372 301.164 92.3922ZM305.804 102.54L303.194 99.9307C303.484 99.6408 303.629 99.2059 303.774 98.771H307.544C307.399 100.221 306.819 101.525 305.804 102.54Z"
      fill="white"
    />
<g>
</g>
<path
      d="M343.938 114.138C352.667 114.138 359.743 107.063 359.743 98.336C359.743 89.6088 352.667 82.5341 343.938 82.5341C335.21 82.5341 328.134 89.6088 328.134 98.336C328.134 107.063 335.21 114.138 343.938 114.138Z"
      fill="#3B5266"
    />
<path
      d="M333.208 98.336C333.208 94.1318 335.528 90.6525 339.008 88.7679L338.428 87.898C334.658 89.9277 332.048 93.8419 332.048 98.336C332.048 102.83 334.658 106.744 338.428 108.774L339.008 107.904C335.528 106.02 333.208 102.54 333.208 98.336Z"
      fill="#76C1AA"
    />
<path
      d="M349.303 87.898L348.868 88.7679C352.348 90.5075 354.813 94.1318 354.813 98.336C354.813 102.54 352.348 106.165 348.868 107.904L349.303 108.774C353.073 106.744 355.683 102.83 355.683 98.336C355.683 93.8419 353.073 89.7827 349.303 87.898Z"
      fill="#76C1AA"
    />
<path
      opacity="0.3"
      d="M343.938 100.656C345.22 100.656 346.258 99.6171 346.258 98.336C346.258 97.055 345.22 96.0165 343.938 96.0165C342.657 96.0165 341.618 97.055 341.618 98.336C341.618 99.6171 342.657 100.656 343.938 100.656Z"
      fill="white"
    />
<path
      opacity="0.3"
      d="M345.244 96.5963L347.854 93.9868C346.839 92.972 345.534 92.3922 343.939 92.3922V96.1614C344.519 96.1614 344.954 96.3064 345.244 96.5963Z"
      fill="white"
    />
<path
      opacity="0.3"
      d="M346.113 98.1911H349.884C349.884 96.7414 349.304 95.2916 348.289 94.2768L345.678 96.8863C345.968 97.3212 346.113 97.7562 346.113 98.1911Z"
      fill="white"
    />
<path
      opacity="0.3"
      d="M345.534 99.9307L348.144 102.54C349.159 101.525 349.739 100.221 349.739 98.7709H345.969C345.969 99.2059 345.824 99.6408 345.534 99.9307Z"
      fill="white"
    />
<path
      opacity="0.3"
      d="M342.489 100.221L339.879 102.83C340.894 103.7 342.054 104.28 343.504 104.28V100.511C343.069 100.511 342.779 100.366 342.489 100.221Z"
      fill="white"
    />
<path
      opacity="0.3"
      d="M344.084 100.656V104.425C345.534 104.425 346.839 103.845 347.709 102.975L345.099 100.366C344.809 100.511 344.374 100.511 344.084 100.656Z"
      fill="white"
    />
<path
      opacity="0.3"
      d="M341.909 97.1763L339.299 94.5668C338.429 95.5816 337.849 96.8863 337.849 98.336H341.619C341.619 97.7561 341.764 97.4662 341.909 97.1763Z"
      fill="white"
    />
<path
      opacity="0.3"
      d="M341.619 98.7709H337.849C337.994 100.221 338.574 101.38 339.444 102.395L342.054 99.7857C341.909 99.4958 341.764 99.2059 341.619 98.7709Z"
      fill="white"
    />
<path
      opacity="0.3"
      d="M343.504 96.1614V92.3922C342.054 92.5372 340.749 93.117 339.734 93.9868L342.344 96.5963C342.634 96.4514 343.069 96.1614 343.504 96.1614Z"
      fill="white"
    />
<path
      d="M343.938 91.5223C343.503 91.5223 342.924 91.5223 342.489 91.6673C339.299 92.2472 336.979 95.0016 336.979 98.336C336.979 102.105 340.024 105.15 343.793 105.15C345.678 105.15 347.418 104.425 348.578 103.12C349.883 101.815 350.608 100.221 350.608 98.336C350.753 94.5667 347.708 91.5223 343.938 91.5223ZM346.113 98.1911C346.113 97.7562 345.968 97.3212 345.678 96.8863L348.288 94.2768C349.158 95.2916 349.738 96.5964 349.883 98.1911H346.113ZM339.878 102.83L342.489 100.221C342.779 100.366 343.068 100.511 343.503 100.656V104.425C342.053 104.28 340.893 103.7 339.878 102.83ZM345.243 96.5964C344.953 96.3064 344.518 96.1614 343.938 96.1614V92.3922C345.388 92.3922 346.838 92.972 347.853 93.9868L345.243 96.5964ZM341.619 98.1911H337.849C337.849 96.7413 338.429 95.4366 339.299 94.4218L341.909 97.0313C341.764 97.4662 341.619 97.7562 341.619 98.1911ZM341.619 98.771C341.764 99.2059 341.908 99.4958 342.053 99.7857L339.444 102.395C338.574 101.38 337.994 100.221 337.849 98.771H341.619ZM343.938 100.221C342.924 100.221 342.053 99.3508 342.053 98.336C342.053 97.3212 342.924 96.4514 343.938 96.4514C344.663 96.4514 345.243 96.8863 345.533 97.4662V97.6111C345.678 97.7561 345.678 98.0461 345.678 98.336C345.678 98.626 345.678 98.7709 345.533 99.0609C345.388 99.7857 344.663 100.221 343.938 100.221ZM344.084 100.656C344.519 100.656 344.808 100.511 345.098 100.366L347.708 102.975C346.693 103.845 345.388 104.425 344.084 104.425V100.656ZM343.503 92.3922V96.1614C343.068 96.3064 342.633 96.4514 342.343 96.7413L339.734 94.1318C340.604 93.117 342.053 92.5372 343.503 92.3922ZM348.143 102.54L345.533 99.9307C345.823 99.6408 345.968 99.2059 346.113 98.771H349.883C349.738 100.221 349.158 101.525 348.143 102.54Z"
      fill="white"
    />
</g>
<g>
<path
      d="M386.133 114.138C394.862 114.138 401.938 107.063 401.938 98.336C401.938 89.6088 394.862 82.5341 386.133 82.5341C377.405 82.5341 370.328 89.6088 370.328 98.336C370.328 107.063 377.405 114.138 386.133 114.138Z"
      fill="#3B5266"
    />
<path
      d="M375.548 98.336C375.548 94.1318 377.868 90.6525 381.348 88.7679L380.768 87.898C376.998 89.9277 374.388 93.8419 374.388 98.336C374.388 102.83 376.998 106.744 380.768 108.774L381.348 107.904C377.868 106.02 375.548 102.54 375.548 98.336Z"
      fill="#76C1AA"
    />
<path
      d="M391.643 87.898L391.208 88.7679C394.689 90.5075 397.153 94.1318 397.153 98.336C397.153 102.54 394.689 106.165 391.208 107.904L391.643 108.774C395.413 106.744 398.023 102.83 398.023 98.336C398.023 93.8419 395.413 89.7827 391.643 87.898Z"
      fill="#76C1AA"
    />
<path
      opacity="0.3"
      d="M386.133 100.656C387.415 100.656 388.453 99.6171 388.453 98.336C388.453 97.055 387.415 96.0165 386.133 96.0165C384.852 96.0165 383.813 97.055 383.813 98.336C383.813 99.6171 384.852 100.656 386.133 100.656Z"
      fill="white"
    />
<path
      opacity="0.3"
      d="M387.583 96.5963L390.193 93.9868C389.178 92.972 387.873 92.3922 386.278 92.3922V96.1614C386.858 96.1614 387.293 96.3064 387.583 96.5963Z"
      fill="white"
    />
<path
      opacity="0.3"
      d="M388.453 98.1911H392.223C392.223 96.7414 391.643 95.2916 390.628 94.2768L388.018 96.8863C388.163 97.3212 388.453 97.7562 388.453 98.1911Z"
      fill="white"
    />
<path
      opacity="0.3"
      d="M387.874 99.9307L390.484 102.54C391.499 101.525 392.079 100.221 392.079 98.7709H388.309C388.309 99.2059 388.019 99.6408 387.874 99.9307Z"
      fill="white"
    />
<path
      opacity="0.3"
      d="M384.828 100.221L382.218 102.83C383.233 103.7 384.393 104.28 385.843 104.28V100.511C385.408 100.511 385.118 100.366 384.828 100.221Z"
      fill="white"
    />
<path
      opacity="0.3"
      d="M386.278 100.656V104.425C387.728 104.425 389.033 103.845 389.903 102.975L387.293 100.366C387.003 100.511 386.713 100.511 386.278 100.656Z"
      fill="white"
    />
<path
      opacity="0.3"
      d="M384.248 97.1763L381.638 94.5668C380.768 95.5816 380.188 96.8863 380.188 98.336H383.958C383.958 97.7561 383.958 97.4662 384.248 97.1763Z"
      fill="white"
    />
<path
      opacity="0.3"
      d="M383.958 98.7709H380.188C380.333 100.221 380.913 101.38 381.783 102.395L384.393 99.7857C384.103 99.4958 383.958 99.2059 383.958 98.7709Z"
      fill="white"
    />
<path
      opacity="0.3"
      d="M385.698 96.1614V92.3922C384.248 92.5372 382.943 93.117 381.928 93.9868L384.538 96.5963C384.973 96.4514 385.263 96.1614 385.698 96.1614Z"
      fill="white"
    />
<path
      d="M386.278 91.5223C385.843 91.5223 385.263 91.5223 384.828 91.6673C381.638 92.2472 379.318 95.0016 379.318 98.336C379.318 102.105 382.363 105.15 386.133 105.15C388.018 105.15 389.758 104.425 390.918 103.12C392.223 101.815 392.948 100.221 392.948 98.336C393.093 94.5667 390.048 91.5223 386.278 91.5223ZM388.453 98.1911C388.453 97.7562 388.308 97.3212 388.018 96.8863L390.628 94.2768C391.498 95.2916 392.078 96.5964 392.223 98.1911H388.453ZM382.218 102.83L384.828 100.221C385.118 100.366 385.408 100.511 385.843 100.656V104.425C384.393 104.28 383.088 103.7 382.218 102.83ZM387.583 96.5964C387.293 96.3064 386.858 96.1614 386.278 96.1614V92.3922C387.728 92.3922 389.178 92.972 390.193 93.9868L387.583 96.5964ZM383.813 98.1911H380.043C380.043 96.7413 380.623 95.4366 381.493 94.4218L384.103 97.0313C383.958 97.4662 383.958 97.7562 383.813 98.1911ZM383.958 98.771C384.103 99.2059 384.248 99.4958 384.393 99.7857L381.783 102.395C380.913 101.38 380.333 100.221 380.188 98.771H383.958ZM386.133 100.221C385.118 100.221 384.248 99.3508 384.248 98.336C384.248 97.3212 385.118 96.4514 386.133 96.4514C386.858 96.4514 387.438 96.8863 387.728 97.4662V97.6111C387.873 97.7561 387.873 98.0461 387.873 98.336C387.873 98.626 387.873 98.7709 387.728 99.0609C387.583 99.7857 387.003 100.221 386.133 100.221ZM386.278 100.656C386.713 100.656 387.003 100.511 387.293 100.366L389.903 102.975C388.888 103.845 387.583 104.425 386.278 104.425V100.656ZM385.698 92.3922V96.1614C385.263 96.3064 384.828 96.4514 384.538 96.7413L381.928 94.1318C382.943 93.117 384.248 92.5372 385.698 92.3922ZM390.483 102.54L387.873 99.9307C388.163 99.6408 388.308 99.2059 388.453 98.771H392.223C391.933 100.221 391.353 101.525 390.483 102.54Z"
      fill="white"
    />
</g>
<g>
<path
      d="M460.373 114.138C469.102 114.138 476.178 107.063 476.178 98.336C476.178 89.6088 469.102 82.5341 460.373 82.5341C451.644 82.5341 444.568 89.6088 444.568 98.336C444.568 107.063 451.644 114.138 460.373 114.138Z"
      fill="#3B5266"
    />
<path
      d="M449.643 98.336C449.643 94.1318 451.963 90.6525 455.443 88.7679L454.863 87.898C451.093 89.9277 448.483 93.8419 448.483 98.336C448.483 102.83 451.093 106.744 454.863 108.774L455.443 107.904C451.963 106.02 449.643 102.54 449.643 98.336Z"
      fill="#76C1AA"
    />
<path
      d="M465.883 87.898L465.448 88.7679C468.928 90.5075 471.393 94.1318 471.393 98.336C471.393 102.54 468.928 106.165 465.448 107.904L465.883 108.774C469.653 106.744 472.263 102.83 472.263 98.336C472.118 93.8419 469.653 89.7827 465.883 87.898Z"
      fill="#76C1AA"
    />
<path
      opacity="0.3"
      d="M460.373 100.656C461.655 100.656 462.693 99.6171 462.693 98.336C462.693 97.055 461.655 96.0165 460.373 96.0165C459.092 96.0165 458.053 97.055 458.053 98.336C458.053 99.6171 459.092 100.656 460.373 100.656Z"
      fill="white"
    />
<path
      opacity="0.3"
      d="M461.823 96.5963L464.433 93.9868C463.418 92.972 462.113 92.3922 460.518 92.3922V96.1614C460.953 96.1614 461.388 96.3064 461.823 96.5963Z"
      fill="white"
    />
<path
      opacity="0.3"
      d="M462.548 98.1911H466.318C466.318 96.7414 465.738 95.2916 464.723 94.2768L462.113 96.8863C462.403 97.3212 462.548 97.7562 462.548 98.1911Z"
      fill="white"
    />
<path
      opacity="0.3"
      d="M461.968 99.9307L464.578 102.54C465.593 101.525 466.173 100.221 466.173 98.7709H462.403C462.548 99.2059 462.258 99.6408 461.968 99.9307Z"
      fill="white"
    />
<path
      opacity="0.3"
      d="M458.923 100.221L456.313 102.83C457.328 103.7 458.488 104.28 459.938 104.28V100.511C459.648 100.511 459.213 100.366 458.923 100.221Z"
      fill="white"
    />
<path
      opacity="0.3"
      d="M460.518 100.656V104.425C461.968 104.425 463.273 103.845 464.143 102.975L461.533 100.366C461.243 100.511 460.953 100.511 460.518 100.656Z"
      fill="white"
    />
<path
      opacity="0.3"
      d="M458.488 97.1763L455.878 94.5668C455.008 95.5816 454.428 96.8863 454.428 98.336H458.198C458.053 97.7561 458.198 97.4662 458.488 97.1763Z"
      fill="white"
    />
<path
      opacity="0.3"
      d="M458.053 98.7709H454.283C454.428 100.221 455.008 101.38 455.878 102.395L458.488 99.7857C458.343 99.4958 458.198 99.2059 458.053 98.7709Z"
      fill="white"
    />
<path
      opacity="0.3"
      d="M459.938 96.1614V92.3922C458.488 92.5372 457.183 93.117 456.168 93.9868L458.778 96.5963C459.068 96.4514 459.503 96.1614 459.938 96.1614Z"
      fill="white"
    />
<path
      d="M460.518 91.5223C460.083 91.5223 459.503 91.5223 459.068 91.6673C455.878 92.2472 453.558 95.0016 453.558 98.336C453.558 102.105 456.603 105.15 460.373 105.15C462.258 105.15 463.998 104.425 465.158 103.12C466.463 101.815 467.188 100.221 467.188 98.336C467.188 94.5667 464.143 91.5223 460.518 91.5223ZM462.548 98.1911C462.548 97.7562 462.403 97.3212 462.113 96.8863L464.723 94.2768C465.593 95.2916 466.173 96.5964 466.318 98.1911H462.548ZM456.313 102.83L458.923 100.221C459.213 100.366 459.503 100.511 459.938 100.656V104.425C458.633 104.28 457.328 103.7 456.313 102.83ZM461.823 96.5964C461.533 96.3064 461.098 96.1614 460.518 96.1614V92.3922C461.968 92.3922 463.418 92.972 464.433 93.9868L461.823 96.5964ZM458.053 98.1911H454.283C454.283 96.7413 454.863 95.4366 455.733 94.4218L458.343 97.0313C458.198 97.4662 458.053 97.7562 458.053 98.1911ZM458.053 98.771C458.198 99.2059 458.343 99.4958 458.488 99.7857L455.878 102.395C455.008 101.38 454.428 100.221 454.283 98.771H458.053ZM460.373 100.221C459.358 100.221 458.488 99.3508 458.488 98.336C458.488 97.3212 459.358 96.4514 460.373 96.4514C461.098 96.4514 461.678 96.8863 461.968 97.4662V97.6111C462.113 97.7561 462.113 98.0461 462.113 98.336C462.113 98.626 462.113 98.7709 461.968 99.0609C461.823 99.7857 461.098 100.221 460.373 100.221ZM460.518 100.656C460.953 100.656 461.243 100.511 461.533 100.366L464.143 102.975C463.128 103.845 461.823 104.425 460.518 104.425V100.656ZM459.938 92.3922V96.1614C459.503 96.3064 459.068 96.4514 458.778 96.7413L456.168 94.1318C457.183 93.117 458.488 92.5372 459.938 92.3922ZM464.578 102.54L461.968 99.9307C462.258 99.6408 462.403 99.2059 462.548 98.771H466.318C466.173 100.221 465.593 101.525 464.578 102.54Z"
      fill="white"
    />
</g>

<g>
<path
      d="M499.088 114.138C507.817 114.138 514.893 107.063 514.893 98.336C514.893 89.6088 507.817 82.5341 499.088 82.5341C490.359 82.5341 483.283 89.6088 483.283 98.336C483.283 107.063 490.359 114.138 499.088 114.138Z"
      fill="#3B5266"
    />
<path
      d="M488.358 98.336C488.358 94.1318 490.678 90.6525 494.158 88.7679L493.578 87.898C489.808 89.9277 487.198 93.8419 487.198 98.336C487.198 102.83 489.808 106.744 493.578 108.774L494.158 107.904C490.678 106.02 488.358 102.54 488.358 98.336Z"
      fill="#76C1AA"
    />
<path
      d="M504.453 87.898L504.018 88.7679C507.498 90.5075 509.963 94.1318 509.963 98.336C509.963 102.54 507.498 106.165 504.018 107.904L504.453 108.774C508.223 106.744 510.833 102.83 510.833 98.336C510.833 93.8419 508.223 89.7827 504.453 87.898Z"
      fill="#76C1AA"
    />
<path
      opacity="0.3"
      d="M499.088 100.656C500.369 100.656 501.408 99.6171 501.408 98.336C501.408 97.055 500.369 96.0165 499.088 96.0165C497.807 96.0165 496.768 97.055 496.768 98.336C496.768 99.6171 497.807 100.656 499.088 100.656Z"
      fill="white"
    />
<path
      opacity="0.3"
      d="M500.393 96.5963L503.003 93.9868C501.988 92.972 500.683 92.3922 499.088 92.3922V96.1614C499.668 96.1614 500.103 96.3064 500.393 96.5963Z"
      fill="white"
    />
<path
      opacity="0.3"
      d="M501.263 98.1911H505.033C505.033 96.7414 504.453 95.2916 503.438 94.2768L500.828 96.8863C501.118 97.3212 501.263 97.7562 501.263 98.1911Z"
      fill="white"
    />
<path
      opacity="0.3"
      d="M500.683 99.9307L503.293 102.54C504.308 101.525 504.888 100.221 504.888 98.7709H501.118C501.118 99.2059 500.973 99.6408 500.683 99.9307Z"
      fill="white"
    />
<path
      opacity="0.3"
      d="M497.638 100.221L495.028 102.83C496.043 103.7 497.203 104.28 498.653 104.28V100.511C498.218 100.511 497.928 100.366 497.638 100.221Z"
      fill="white"
    />
<path
      opacity="0.3"
      d="M499.088 100.656V104.425C500.538 104.425 501.843 103.845 502.713 102.975L500.103 100.366C499.958 100.511 499.523 100.511 499.088 100.656Z"
      fill="white"
    />
<path
      opacity="0.3"
      d="M497.058 97.1763L494.448 94.5668C493.578 95.5816 492.998 96.8863 492.998 98.336H496.768C496.768 97.7561 496.913 97.4662 497.058 97.1763Z"
      fill="white"
    />
<path
      opacity="0.3"
      d="M496.768 98.7709H492.998C493.143 100.221 493.723 101.38 494.593 102.395L497.203 99.7857C497.058 99.4958 496.768 99.2059 496.768 98.7709Z"
      fill="white"
    />
<path
      opacity="0.3"
      d="M498.653 96.1614V92.3922C497.203 92.5372 495.898 93.117 494.883 93.9868L497.493 96.5963C497.783 96.4514 498.218 96.1614 498.653 96.1614Z"
      fill="white"
    />
<path
      d="M499.088 91.5223C498.653 91.5223 498.073 91.5223 497.638 91.6673C494.448 92.2472 492.128 95.0016 492.128 98.336C492.128 102.105 495.173 105.15 498.943 105.15C500.828 105.15 502.568 104.425 503.728 103.12C505.033 101.815 505.758 100.221 505.758 98.336C505.903 94.5667 502.858 91.5223 499.088 91.5223ZM501.263 98.1911C501.263 97.7562 501.118 97.3212 500.828 96.8863L503.438 94.2768C504.308 95.2916 504.888 96.5964 505.033 98.1911H501.263ZM495.028 102.83L497.638 100.221C497.928 100.366 498.218 100.511 498.653 100.656V104.425C497.203 104.28 496.043 103.7 495.028 102.83ZM500.393 96.5964C500.103 96.3064 499.668 96.1614 499.088 96.1614V92.3922C500.538 92.3922 501.988 92.972 503.003 93.9868L500.393 96.5964ZM496.768 98.1911H492.998C492.998 96.7413 493.578 95.4366 494.448 94.4218L497.058 97.0313C496.913 97.4662 496.768 97.7562 496.768 98.1911ZM496.768 98.771C496.913 99.2059 497.058 99.4958 497.203 99.7857L494.593 102.395C493.723 101.38 493.143 100.221 492.998 98.771H496.768ZM499.088 100.221C498.073 100.221 497.203 99.3508 497.203 98.336C497.203 97.3212 498.073 96.4514 499.088 96.4514C499.813 96.4514 500.393 96.8863 500.683 97.4662V97.6111C500.828 97.7561 500.828 98.0461 500.828 98.336C500.828 98.626 500.828 98.7709 500.683 99.0609C500.393 99.7857 499.813 100.221 499.088 100.221ZM499.088 100.656C499.523 100.656 499.813 100.511 500.103 100.366L502.713 102.975C501.698 103.845 500.393 104.425 499.088 104.425V100.656ZM498.653 92.3922V96.1614C498.218 96.3064 497.783 96.4514 497.493 96.7413L494.883 94.1318C495.753 93.117 497.058 92.5372 498.653 92.3922ZM503.293 102.54L500.683 99.9307C500.973 99.6408 501.118 99.2059 501.263 98.771H505.033C504.888 100.221 504.163 101.525 503.293 102.54Z"
      fill="white"
    />
</g>
<g>
<path
      d="M537.657 114.138C546.386 114.138 553.462 107.063 553.462 98.336C553.462 89.6088 546.386 82.5341 537.657 82.5341C528.929 82.5341 521.853 89.6088 521.853 98.336C521.853 107.063 528.929 114.138 537.657 114.138Z"
      fill="#3B5266"
    />
<path
      d="M526.928 98.336C526.928 94.1318 529.248 90.6525 532.727 88.7679L532.147 87.898C528.378 89.9277 525.768 93.8419 525.768 98.336C525.768 102.83 528.378 106.744 532.147 108.774L532.727 107.904C529.248 106.02 526.928 102.54 526.928 98.336Z"
      fill="#76C1AA"
    />
<path
      d="M543.167 87.898L542.732 88.7679C546.212 90.5075 548.677 94.1318 548.677 98.336C548.677 102.54 546.212 106.165 542.732 107.904L543.167 108.774C546.937 106.744 549.547 102.83 549.547 98.336C549.402 93.8419 546.937 89.7827 543.167 87.898Z"
      fill="#76C1AA"
    />
<path
      opacity="0.3"
      d="M537.657 100.656C538.939 100.656 539.977 99.6171 539.977 98.336C539.977 97.055 538.939 96.0165 537.657 96.0165C536.376 96.0165 535.337 97.055 535.337 98.336C535.337 99.6171 536.376 100.656 537.657 100.656Z"
      fill="white"
    />
<path
      opacity="0.3"
      d="M539.108 96.5963L541.718 93.9868C540.703 92.972 539.398 92.3922 537.803 92.3922V96.1614C538.238 96.1614 538.673 96.3064 539.108 96.5963Z"
      fill="white"
    />
<path
      opacity="0.3"
      d="M539.833 98.1911H543.603C543.603 96.7414 543.023 95.2916 542.008 94.2768L539.398 96.8863C539.688 97.3212 539.833 97.7562 539.833 98.1911Z"
      fill="white"
    />
<path
      opacity="0.3"
      d="M539.253 99.9307L541.863 102.54C542.878 101.525 543.458 100.221 543.458 98.7709H539.688C539.833 99.2059 539.543 99.6408 539.253 99.9307Z"
      fill="white"
    />
<path
      opacity="0.3"
      d="M536.353 100.221L533.743 102.83C534.758 103.7 535.918 104.28 537.368 104.28V100.511C536.933 100.511 536.498 100.366 536.353 100.221Z"
      fill="white"
    />
<path
      opacity="0.3"
      d="M537.803 100.656V104.425C539.253 104.425 540.558 103.845 541.428 102.975L538.818 100.366C538.528 100.511 538.238 100.511 537.803 100.656Z"
      fill="white"
    />
<path
      opacity="0.3"
      d="M535.773 97.1763L533.163 94.5668C532.293 95.5816 531.713 96.8863 531.713 98.336H535.483C535.338 97.7561 535.483 97.4662 535.773 97.1763Z"
      fill="white"
    />
<path
      opacity="0.3"
      d="M535.338 98.7709H531.568C531.713 100.221 532.293 101.38 533.163 102.395L535.773 99.7857C535.628 99.4958 535.483 99.2059 535.338 98.7709Z"
      fill="white"
    />
<path
      opacity="0.3"
      d="M537.223 96.1614V92.3922C535.773 92.5372 534.468 93.117 533.453 93.9868L536.063 96.5963C536.353 96.4514 536.788 96.1614 537.223 96.1614Z"
      fill="white"
    />
<path
      d="M537.803 91.5223C537.368 91.5223 536.788 91.5223 536.353 91.6673C533.163 92.2472 530.843 95.0016 530.843 98.336C530.843 102.105 533.888 105.15 537.658 105.15C539.543 105.15 541.283 104.425 542.443 103.12C543.748 101.815 544.473 100.221 544.473 98.336C544.473 94.5667 541.573 91.5223 537.803 91.5223ZM539.833 98.1911C539.833 97.7562 539.688 97.3212 539.398 96.8863L542.008 94.2768C542.878 95.2916 543.458 96.5964 543.603 98.1911H539.833ZM533.598 102.83L536.208 100.221C536.498 100.366 536.788 100.511 537.223 100.656V104.425C535.918 104.28 534.613 103.7 533.598 102.83ZM539.108 96.5964C538.818 96.3064 538.383 96.1614 537.803 96.1614V92.3922C539.253 92.3922 540.703 92.972 541.718 93.9868L539.108 96.5964ZM535.338 98.1911H531.568C531.568 96.7413 532.148 95.4366 533.018 94.4218L535.628 97.0313C535.483 97.4662 535.338 97.7562 535.338 98.1911ZM535.338 98.771C535.483 99.2059 535.628 99.4958 535.773 99.7857L533.163 102.395C532.293 101.38 531.713 100.221 531.568 98.771H535.338ZM537.658 100.221C536.643 100.221 535.773 99.3508 535.773 98.336C535.773 97.3212 536.643 96.4514 537.658 96.4514C538.383 96.4514 538.963 96.8863 539.253 97.4662V97.6111C539.398 97.7561 539.398 98.0461 539.398 98.336C539.398 98.626 539.398 98.7709 539.253 99.0609C539.108 99.7857 538.383 100.221 537.658 100.221ZM537.803 100.656C538.238 100.656 538.528 100.511 538.818 100.366L541.428 102.975C540.413 103.845 539.108 104.425 537.803 104.425V100.656ZM537.223 92.3922V96.1614C536.788 96.3064 536.353 96.4514 536.063 96.7413L533.453 94.1318C534.468 93.117 535.773 92.5372 537.223 92.3922ZM541.863 102.54L539.253 99.9307C539.543 99.6408 539.688 99.2059 539.833 98.771H543.603C543.458 100.221 542.878 101.525 541.863 102.54Z"
      fill="white"
    />
</g>
<g>
<path
      d="M576.372 114.138C585.101 114.138 592.177 107.063 592.177 98.336C592.177 89.6088 585.101 82.5341 576.372 82.5341C567.643 82.5341 560.567 89.6088 560.567 98.336C560.567 107.063 567.643 114.138 576.372 114.138Z"
      fill="#3B5266"
    />
<path
      d="M565.642 98.336C565.642 94.1318 567.962 90.6525 571.442 88.7679L570.862 87.898C567.092 89.9277 564.482 93.8419 564.482 98.336C564.482 102.83 567.092 106.744 570.862 108.774L571.442 107.904C567.962 106.02 565.642 102.54 565.642 98.336Z"
      fill="#76C1AA"
    />
<path
      d="M581.737 87.898L581.302 88.7679C584.782 90.5075 587.247 94.1318 587.247 98.336C587.247 102.54 584.782 106.165 581.302 107.904L581.737 108.774C585.507 106.744 588.117 102.83 588.117 98.336C588.117 93.8419 585.507 89.7827 581.737 87.898Z"
      fill="#76C1AA"
    />
<path
      opacity="0.3"
      d="M576.372 100.656C577.654 100.656 578.692 99.6171 578.692 98.336C578.692 97.055 577.654 96.0165 576.372 96.0165C575.091 96.0165 574.052 97.055 574.052 98.336C574.052 99.6171 575.091 100.656 576.372 100.656Z"
      fill="white"
    />
<path
      opacity="0.3"
      d="M577.677 96.5963L580.287 93.9868C579.272 92.972 577.967 92.3922 576.372 92.3922V96.1614C576.952 96.1614 577.387 96.3064 577.677 96.5963Z"
      fill="white"
    />
<path
      opacity="0.3"
      d="M578.547 98.1911H582.317C582.317 96.7414 581.737 95.2916 580.722 94.2768L578.112 96.8863C578.402 97.3212 578.547 97.7562 578.547 98.1911Z"
      fill="white"
    />
<path
      opacity="0.3"
      d="M577.967 99.9307L580.577 102.54C581.592 101.525 582.172 100.221 582.172 98.7709H578.402C578.402 99.2059 578.257 99.6408 577.967 99.9307Z"
      fill="white"
    />
<path
      opacity="0.3"
      d="M574.922 100.221L572.312 102.83C573.327 103.7 574.487 104.28 575.937 104.28V100.511C575.502 100.511 575.212 100.366 574.922 100.221Z"
      fill="white"
    />
<path
      opacity="0.3"
      d="M576.517 100.656V104.425C577.967 104.425 579.272 103.845 580.142 102.975L577.532 100.366C577.242 100.511 576.807 100.511 576.517 100.656Z"
      fill="white"
    />
<path
      opacity="0.3"
      d="M574.342 97.1763L571.732 94.5668C570.862 95.5816 570.282 96.8863 570.282 98.336H574.052C574.052 97.7561 574.197 97.4662 574.342 97.1763Z"
      fill="white"
    />
<path
      opacity="0.3"
      d="M574.052 98.7709H570.282C570.427 100.221 571.007 101.38 571.877 102.395L574.487 99.7857C574.342 99.4958 574.197 99.2059 574.052 98.7709Z"
      fill="white"
    />
<path
      opacity="0.3"
      d="M575.937 96.1614V92.3922C574.487 92.5372 573.182 93.117 572.167 93.9868L574.777 96.5963C575.067 96.4514 575.502 96.1614 575.937 96.1614Z"
      fill="white"
    />
<path
      d="M576.372 91.5223C575.937 91.5223 575.357 91.5223 574.922 91.6673C571.732 92.2472 569.412 95.0016 569.412 98.336C569.412 102.105 572.457 105.15 576.227 105.15C578.112 105.15 579.852 104.425 581.012 103.12C582.317 101.815 583.042 100.221 583.042 98.336C583.187 94.5667 580.142 91.5223 576.372 91.5223ZM578.547 98.1911C578.547 97.7562 578.402 97.3212 578.112 96.8863L580.722 94.2768C581.592 95.2916 582.172 96.5964 582.317 98.1911H578.547ZM572.312 102.83L574.922 100.221C575.212 100.366 575.502 100.511 575.937 100.656V104.425C574.487 104.28 573.327 103.7 572.312 102.83ZM577.677 96.5964C577.387 96.3064 576.952 96.1614 576.372 96.1614V92.3922C577.822 92.3922 579.272 92.972 580.287 93.9868L577.677 96.5964ZM574.052 98.1911H570.282C570.282 96.7413 570.862 95.4366 571.732 94.4218L574.342 97.0313C574.197 97.4662 574.052 97.7562 574.052 98.1911ZM574.052 98.771C574.197 99.2059 574.342 99.4958 574.487 99.7857L571.877 102.395C571.007 101.38 570.427 100.221 570.282 98.771H574.052ZM576.372 100.221C575.357 100.221 574.487 99.3508 574.487 98.336C574.487 97.3212 575.357 96.4514 576.372 96.4514C577.097 96.4514 577.677 96.8863 577.967 97.4662V97.6111C578.112 97.7561 578.112 98.0461 578.112 98.336C578.112 98.626 578.112 98.7709 577.967 99.0609C577.677 99.7857 577.097 100.221 576.372 100.221ZM576.517 100.656C576.952 100.656 577.242 100.511 577.532 100.366L580.142 102.975C579.127 103.845 577.822 104.425 576.517 104.425V100.656ZM575.937 92.3922V96.1614C575.502 96.3064 575.067 96.4514 574.777 96.7413L572.167 94.1318C573.037 93.117 574.487 92.5372 575.937 92.3922ZM580.577 102.54L577.967 99.9307C578.257 99.6408 578.402 99.2059 578.547 98.771H582.317C582.172 100.221 581.447 101.525 580.577 102.54Z"
      fill="white"
    />
</g>
<g>
<path
      d="M614.943 114.138C623.671 114.138 630.748 107.063 630.748 98.336C630.748 89.6088 623.671 82.5341 614.943 82.5341C606.214 82.5341 599.138 89.6088 599.138 98.336C599.138 107.063 606.214 114.138 614.943 114.138Z"
      fill="#3B5266"
    />
<path
      d="M604.213 98.336C604.213 94.1318 606.533 90.6525 610.013 88.7679L609.433 87.898C605.663 89.9277 603.053 93.8419 603.053 98.336C603.053 102.83 605.663 106.744 609.433 108.774L610.013 107.904C606.678 106.02 604.213 102.54 604.213 98.336Z"
      fill="#76C1AA"
    />
<path
      d="M620.453 87.898L620.018 88.7679C623.498 90.5075 625.962 94.1318 625.962 98.336C625.962 102.54 623.498 106.165 620.018 107.904L620.453 108.774C624.223 106.744 626.833 102.83 626.833 98.336C626.688 93.8419 624.223 89.7827 620.453 87.898Z"
      fill="#76C1AA"
    />
<path
      opacity="0.3"
      d="M614.943 100.656C616.224 100.656 617.262 99.6171 617.262 98.336C617.262 97.055 616.224 96.0165 614.943 96.0165C613.661 96.0165 612.623 97.055 612.623 98.336C612.623 99.6171 613.661 100.656 614.943 100.656Z"
      fill="white"
    />
<path
      opacity="0.3"
      d="M616.392 96.5963L619.002 93.9868C617.987 92.972 616.682 92.3922 615.087 92.3922V96.1614C615.522 96.1614 615.957 96.3064 616.392 96.5963Z"
      fill="white"
    />
<path
      opacity="0.3"
      d="M617.118 98.1911H620.888C620.888 96.7414 620.308 95.2916 619.293 94.2768L616.683 96.8863C616.973 97.3212 617.118 97.7562 617.118 98.1911Z"
      fill="white"
    />
<path
      opacity="0.3"
      d="M616.538 99.9307L619.148 102.54C620.163 101.525 620.743 100.221 620.743 98.7709H616.973C617.118 99.2059 616.828 99.6408 616.538 99.9307Z"
      fill="white"
    />
<path
      opacity="0.3"
      d="M613.637 100.221L611.027 102.83C612.042 103.7 613.202 104.28 614.652 104.28V100.511C614.217 100.511 613.782 100.366 613.637 100.221Z"
      fill="white"
    />
<path
      opacity="0.3"
      d="M615.087 100.656V104.425C616.537 104.425 617.842 103.845 618.712 102.975L616.102 100.366C615.812 100.511 615.522 100.511 615.087 100.656Z"
      fill="white"
    />
<path
      opacity="0.3"
      d="M613.057 97.1763L610.448 94.5668C609.578 95.5816 608.998 96.8863 608.998 98.336H612.767C612.622 97.7561 612.767 97.4662 613.057 97.1763Z"
      fill="white"
    />
<path
      opacity="0.3"
      d="M612.768 98.7709H608.998C609.143 100.221 609.723 101.38 610.593 102.395L613.203 99.7857C612.913 99.4958 612.768 99.2059 612.768 98.7709Z"
      fill="white"
    />
<path
      opacity="0.3"
      d="M614.507 96.1614V92.3922C613.057 92.5372 611.752 93.117 610.737 93.9868L613.347 96.5963C613.637 96.4514 614.072 96.1614 614.507 96.1614Z"
      fill="white"
    />
<path
      d="M615.087 91.5223C614.652 91.5223 614.072 91.5223 613.637 91.6673C610.447 92.2472 608.127 95.0016 608.127 98.336C608.127 102.105 611.172 105.15 614.942 105.15C616.827 105.15 618.567 104.425 619.727 103.12C621.032 101.815 621.757 100.221 621.757 98.336C621.902 94.5667 618.857 91.5223 615.087 91.5223ZM617.117 98.1911C617.117 97.7562 616.972 97.3212 616.682 96.8863L619.292 94.2768C620.162 95.2916 620.742 96.5964 620.887 98.1911H617.117ZM610.882 102.83L613.492 100.221C613.782 100.366 614.072 100.511 614.507 100.656V104.425C613.202 104.28 611.897 103.7 610.882 102.83ZM616.392 96.5964C616.102 96.3064 615.667 96.1614 615.087 96.1614V92.3922C616.537 92.3922 617.987 92.972 619.002 93.9868L616.392 96.5964ZM612.622 98.1911H608.852C608.852 96.7413 609.432 95.4366 610.302 94.4218L612.912 97.0313C612.767 97.4662 612.622 97.7562 612.622 98.1911ZM612.767 98.771C612.912 99.2059 613.057 99.4958 613.202 99.7857L610.592 102.395C609.722 101.38 609.142 100.221 608.997 98.771H612.767ZM614.942 100.221C613.927 100.221 613.057 99.3508 613.057 98.336C613.057 97.3212 613.927 96.4514 614.942 96.4514C615.667 96.4514 616.247 96.8863 616.537 97.4662V97.6111C616.682 97.7561 616.682 98.0461 616.682 98.336C616.682 98.626 616.682 98.7709 616.537 99.0609C616.392 99.7857 615.667 100.221 614.942 100.221ZM615.087 100.656C615.522 100.656 615.812 100.511 616.102 100.366L618.712 102.975C617.697 103.845 616.392 104.425 615.087 104.425V100.656ZM614.507 92.3922V96.1614C614.072 96.3064 613.637 96.4514 613.347 96.7413L610.737 94.1318C611.752 93.117 613.057 92.5372 614.507 92.3922ZM619.147 102.54L616.537 99.9307C616.827 99.6408 616.972 99.2059 617.117 98.771H620.887C620.742 100.221 620.162 101.525 619.147 102.54Z"
      fill="white"
    />
</g>
<g>
<path
      d="M653.657 114.138C662.386 114.138 669.462 107.063 669.462 98.336C669.462 89.6088 662.386 82.5341 653.657 82.5341C644.929 82.5341 637.853 89.6088 637.853 98.336C637.853 107.063 644.929 114.138 653.657 114.138Z"
      fill="#3B5266"
    />
<path
      d="M642.928 98.336C642.928 94.1318 645.248 90.6525 648.728 88.7679L648.148 87.898C644.378 89.9277 641.768 93.8419 641.768 98.336C641.768 102.83 644.378 106.744 648.148 108.774L648.728 107.904C645.248 106.02 642.928 102.54 642.928 98.336Z"
      fill="#76C1AA"
    />
<path
      d="M659.022 87.898L658.587 88.7679C662.067 90.5075 664.532 94.1318 664.532 98.336C664.532 102.54 662.067 106.165 658.587 107.904L659.022 108.774C662.792 106.744 665.402 102.83 665.402 98.336C665.402 93.8419 662.792 89.7827 659.022 87.898Z"
      fill="#76C1AA"
    />
<path
      opacity="0.3"
      d="M653.657 100.656C654.939 100.656 655.977 99.6171 655.977 98.336C655.977 97.055 654.939 96.0165 653.657 96.0165C652.376 96.0165 651.337 97.055 651.337 98.336C651.337 99.6171 652.376 100.656 653.657 100.656Z"
      fill="white"
    />
<path
      opacity="0.3"
      d="M654.962 96.5963L657.572 93.9868C656.557 92.972 655.252 92.3922 653.657 92.3922V96.1614C654.237 96.1614 654.672 96.3064 654.962 96.5963Z"
      fill="white"
    />
<path
      opacity="0.3"
      d="M655.832 98.1911H659.602C659.602 96.7414 659.022 95.2916 658.007 94.2768L655.397 96.8863C655.687 97.3212 655.832 97.7562 655.832 98.1911Z"
      fill="white"
    />
<path
      opacity="0.3"
      d="M655.252 99.9307L657.862 102.54C658.877 101.525 659.458 100.221 659.458 98.7709H655.687C655.687 99.2059 655.542 99.6408 655.252 99.9307Z"
      fill="white"
    />
<path
      opacity="0.3"
      d="M652.207 100.221L649.597 102.83C650.612 103.7 651.772 104.28 653.222 104.28V100.511C652.787 100.511 652.497 100.366 652.207 100.221Z"
      fill="white"
    />
<path
      opacity="0.3"
      d="M653.802 100.656V104.425C655.252 104.425 656.557 103.845 657.427 102.975L654.817 100.366C654.527 100.511 654.092 100.511 653.802 100.656Z"
      fill="white"
    />
<path
      opacity="0.3"
      d="M651.627 97.1763L649.017 94.5668C648.147 95.5816 647.567 96.8863 647.567 98.336H651.337C651.337 97.7561 651.482 97.4662 651.627 97.1763Z"
      fill="white"
    />
<path
      opacity="0.3"
      d="M651.337 98.7709H647.567C647.712 100.221 648.292 101.38 649.162 102.395L651.772 99.7857C651.627 99.4958 651.482 99.2059 651.337 98.7709Z"
      fill="white"
    />
<path
      opacity="0.3"
      d="M653.222 96.1614V92.3922C651.772 92.5372 650.467 93.117 649.452 93.9868L652.062 96.5963C652.352 96.4514 652.787 96.1614 653.222 96.1614Z"
      fill="white"
    />
<path
      d="M653.658 91.5223C653.223 91.5223 652.643 91.5223 652.208 91.6673C649.018 92.2472 646.698 95.0016 646.698 98.336C646.698 102.105 649.743 105.15 653.513 105.15C655.398 105.15 657.138 104.425 658.298 103.12C659.603 101.815 660.328 100.221 660.328 98.336C660.473 94.5667 657.428 91.5223 653.658 91.5223ZM655.833 98.1911C655.833 97.7562 655.688 97.3212 655.398 96.8863L658.008 94.2768C658.878 95.2916 659.458 96.5964 659.603 98.1911H655.833ZM649.598 102.83L652.208 100.221C652.498 100.366 652.788 100.511 653.223 100.656V104.425C651.773 104.28 650.613 103.7 649.598 102.83ZM654.963 96.5964C654.673 96.3064 654.238 96.1614 653.658 96.1614V92.3922C655.108 92.3922 656.558 92.972 657.573 93.9868L654.963 96.5964ZM651.338 98.1911H647.568C647.568 96.7413 648.148 95.4366 649.018 94.4218L651.628 97.0313C651.483 97.4662 651.338 97.7562 651.338 98.1911ZM651.338 98.771C651.483 99.2059 651.628 99.4958 651.773 99.7857L649.163 102.395C648.293 101.38 647.713 100.221 647.568 98.771H651.338ZM653.658 100.221C652.643 100.221 651.773 99.3508 651.773 98.336C651.773 97.3212 652.643 96.4514 653.658 96.4514C654.383 96.4514 654.963 96.8863 655.253 97.4662V97.6111C655.398 97.7561 655.398 98.0461 655.398 98.336C655.398 98.626 655.398 98.7709 655.253 99.0609C654.963 99.7857 654.383 100.221 653.658 100.221ZM653.803 100.656C654.238 100.656 654.528 100.511 654.818 100.366L657.428 102.975C656.413 103.845 655.108 104.425 653.803 104.425V100.656ZM653.223 92.3922V96.1614C652.788 96.3064 652.353 96.4514 652.063 96.7413L649.453 94.1318C650.323 93.117 651.773 92.5372 653.223 92.3922ZM657.863 102.54L655.253 99.9307C655.543 99.6408 655.688 99.2059 655.833 98.771H659.603C659.458 100.221 658.878 101.525 657.863 102.54Z"
      fill="white"
    />
</g>
<g>
<path
      d="M692.227 114.138C700.956 114.138 708.032 107.063 708.032 98.336C708.032 89.6088 700.956 82.5341 692.227 82.5341C683.498 82.5341 676.422 89.6088 676.422 98.336C676.422 107.063 683.498 114.138 692.227 114.138Z"
      fill="#3B5266"
    />
<path
      d="M681.497 98.336C681.497 94.1318 683.817 90.6525 687.297 88.7679L686.717 87.898C682.947 89.9277 680.337 93.8419 680.337 98.336C680.337 102.83 682.947 106.744 686.717 108.774L687.297 107.904C683.962 106.02 681.497 102.54 681.497 98.336Z"
      fill="#76C1AA"
    />
<path
      d="M697.737 87.898L697.302 88.7679C700.782 90.5075 703.247 94.1318 703.247 98.336C703.247 102.54 700.782 106.165 697.302 107.904L697.737 108.774C701.507 106.744 704.117 102.83 704.117 98.336C703.972 93.8419 701.507 89.7827 697.737 87.898Z"
      fill="#76C1AA"
    />
<path
      opacity="0.3"
      d="M692.227 100.656C693.508 100.656 694.547 99.6171 694.547 98.336C694.547 97.055 693.508 96.0165 692.227 96.0165C690.945 96.0165 689.907 97.055 689.907 98.336C689.907 99.6171 690.945 100.656 692.227 100.656Z"
      fill="white"
    />
<path
      opacity="0.3"
      d="M693.677 96.5963L696.286 93.9868C695.271 92.972 693.967 92.3922 692.372 92.3922V96.1614C692.807 96.1614 693.242 96.3064 693.677 96.5963Z"
      fill="white"
    />
<path
      opacity="0.3"
      d="M694.402 98.1911H698.172C698.172 96.7414 697.592 95.2916 696.577 94.2768L693.967 96.8863C694.257 97.3212 694.402 97.7562 694.402 98.1911Z"
      fill="white"
    />
<path
      opacity="0.3"
      d="M693.822 99.9307L696.432 102.54C697.447 101.525 698.027 100.221 698.027 98.7709H694.257C694.402 99.2059 694.112 99.6408 693.822 99.9307Z"
      fill="white"
    />
<path
      opacity="0.3"
      d="M690.922 100.221L688.312 102.83C689.327 103.7 690.487 104.28 691.937 104.28V100.511C691.502 100.511 691.212 100.366 690.922 100.221Z"
      fill="white"
    />
<path
      opacity="0.3"
      d="M692.372 100.656V104.425C693.822 104.425 695.127 103.845 695.997 102.975L693.386 100.366C693.096 100.511 692.807 100.511 692.372 100.656Z"
      fill="white"
    />
<path
      opacity="0.3"
      d="M690.342 97.1763L687.732 94.5668C686.862 95.5816 686.282 96.8863 686.282 98.336H690.052C689.907 97.7561 690.052 97.4662 690.342 97.1763Z"
      fill="white"
    />
<path
      opacity="0.3"
      d="M690.052 98.7709H686.282C686.427 100.221 687.007 101.38 687.877 102.395L690.487 99.7857C690.197 99.4958 690.052 99.2059 690.052 98.7709Z"
      fill="white"
    />
<path
      opacity="0.3"
      d="M691.792 96.1614V92.3922C690.342 92.5372 689.037 93.117 688.022 93.9868L690.632 96.5963C690.922 96.4514 691.357 96.1614 691.792 96.1614Z"
      fill="white"
    />
<path
      d="M692.372 91.5223C691.937 91.5223 691.357 91.5223 690.922 91.6673C687.732 92.2472 685.412 95.0016 685.412 98.336C685.412 102.105 688.457 105.15 692.227 105.15C694.112 105.15 695.852 104.425 697.012 103.12C698.317 101.815 699.042 100.221 699.042 98.336C699.187 94.5667 696.142 91.5223 692.372 91.5223ZM694.402 98.1911C694.402 97.7562 694.257 97.3212 693.967 96.8863L696.577 94.2768C697.447 95.2916 698.027 96.5964 698.172 98.1911H694.402ZM688.167 102.83L690.777 100.221C691.067 100.366 691.357 100.511 691.792 100.656V104.425C690.487 104.28 689.182 103.7 688.167 102.83ZM693.677 96.5964C693.387 96.3064 692.952 96.1614 692.372 96.1614V92.3922C693.822 92.3922 695.272 92.972 696.287 93.9868L693.677 96.5964ZM689.907 98.1911H686.137C686.137 96.7413 686.717 95.4366 687.587 94.4218L690.197 97.0313C690.052 97.4662 689.907 97.7562 689.907 98.1911ZM690.052 98.771C690.197 99.2059 690.342 99.4958 690.487 99.7857L687.877 102.395C687.007 101.38 686.427 100.221 686.282 98.771H690.052ZM692.227 100.221C691.212 100.221 690.342 99.3508 690.342 98.336C690.342 97.3212 691.212 96.4514 692.227 96.4514C692.952 96.4514 693.532 96.8863 693.822 97.4662V97.6111C693.967 97.7561 693.967 98.0461 693.967 98.336C693.967 98.626 693.967 98.7709 693.822 99.0609C693.677 99.7857 692.952 100.221 692.227 100.221ZM692.372 100.656C692.807 100.656 693.097 100.511 693.387 100.366L695.997 102.975C694.982 103.845 693.677 104.425 692.372 104.425V100.656ZM691.792 92.3922V96.1614C691.357 96.3064 690.922 96.4514 690.632 96.7413L688.022 94.1318C689.037 93.117 690.342 92.5372 691.792 92.3922ZM696.432 102.54L693.822 99.9307C694.112 99.6408 694.257 99.2059 694.402 98.771H698.172C698.027 100.221 697.447 101.525 696.432 102.54Z"
      fill="white"
    />
</g>
<g>
<path
      d="M730.942 114.138C739.67 114.138 746.747 107.063 746.747 98.336C746.747 89.6088 739.67 82.5341 730.942 82.5341C722.213 82.5341 715.137 89.6088 715.137 98.336C715.137 107.063 722.213 114.138 730.942 114.138Z"
      fill="#3B5266"
    />
<path
      d="M720.212 98.336C720.212 94.1318 722.532 90.6525 726.012 88.7679L725.432 87.898C721.662 89.9277 719.052 93.8419 719.052 98.336C719.052 102.83 721.662 106.744 725.432 108.774L726.012 107.904C722.532 106.02 720.212 102.54 720.212 98.336Z"
      fill="#76C1AA"
    />
<path
      d="M736.307 87.898L735.872 88.7679C739.352 90.5075 741.817 94.1318 741.817 98.336C741.817 102.54 739.352 106.165 735.872 107.904L736.307 108.774C740.077 106.744 742.686 102.83 742.686 98.336C742.686 93.8419 740.077 89.7827 736.307 87.898Z"
      fill="#76C1AA"
    />
<path
      opacity="0.3"
      d="M730.942 100.656C732.223 100.656 733.262 99.6171 733.262 98.336C733.262 97.055 732.223 96.0165 730.942 96.0165C729.661 96.0165 728.622 97.055 728.622 98.336C728.622 99.6171 729.661 100.656 730.942 100.656Z"
      fill="white"
    />
<path
      opacity="0.3"
      d="M732.247 96.5963L734.857 93.9868C733.842 92.972 732.537 92.3922 730.942 92.3922V96.1614C731.522 96.1614 731.957 96.3064 732.247 96.5963Z"
      fill="white"
    />
<path
      opacity="0.3"
      d="M733.117 98.1911H736.887C736.887 96.7414 736.307 95.2916 735.292 94.2768L732.682 96.8863C732.972 97.3212 733.117 97.7562 733.117 98.1911Z"
      fill="white"
    />
<path
      opacity="0.3"
      d="M732.537 99.9307L735.147 102.54C736.162 101.525 736.742 100.221 736.742 98.7709H732.972C732.972 99.2059 732.827 99.6408 732.537 99.9307Z"
      fill="white"
    />
<path
      opacity="0.3"
      d="M729.492 100.221L726.882 102.83C727.897 103.7 729.057 104.28 730.507 104.28V100.511C730.072 100.511 729.782 100.366 729.492 100.221Z"
      fill="white"
    />
<path
      opacity="0.3"
      d="M731.087 100.656V104.425C732.537 104.425 733.842 103.845 734.712 102.975L732.102 100.366C731.812 100.511 731.377 100.511 731.087 100.656Z"
      fill="white"
    />
<path
      opacity="0.3"
      d="M728.912 97.1763L726.302 94.5668C725.432 95.5816 724.852 96.8863 724.852 98.336H728.622C728.622 97.7561 728.767 97.4662 728.912 97.1763Z"
      fill="white"
    />
<path
      opacity="0.3"
      d="M728.622 98.7709H724.852C724.997 100.221 725.577 101.38 726.447 102.395L729.057 99.7857C728.912 99.4958 728.767 99.2059 728.622 98.7709Z"
      fill="white"
    />
<path
      opacity="0.3"
      d="M730.507 96.1614V92.3922C729.057 92.5372 727.752 93.117 726.737 93.9868L729.347 96.5963C729.637 96.4514 730.072 96.1614 730.507 96.1614Z"
      fill="white"
    />
<path
      d="M730.942 91.5223C730.507 91.5223 729.927 91.5223 729.492 91.6673C726.302 92.2472 723.982 95.0016 723.982 98.336C723.982 102.105 727.027 105.15 730.797 105.15C732.682 105.15 734.422 104.425 735.582 103.12C736.887 101.815 737.612 100.221 737.612 98.336C737.757 94.5667 734.712 91.5223 730.942 91.5223ZM733.117 98.1911C733.117 97.7562 732.972 97.3212 732.682 96.8863L735.292 94.2768C736.162 95.2916 736.742 96.5964 736.887 98.1911H733.117ZM726.882 102.83L729.492 100.221C729.782 100.366 730.072 100.511 730.507 100.656V104.425C729.057 104.28 727.897 103.7 726.882 102.83ZM732.247 96.5964C731.957 96.3064 731.522 96.1614 730.942 96.1614V92.3922C732.392 92.3922 733.842 92.972 734.857 93.9868L732.247 96.5964ZM728.622 98.1911H724.852C724.852 96.7413 725.432 95.4366 726.302 94.4218L728.912 97.0313C728.767 97.4662 728.622 97.7562 728.622 98.1911ZM728.622 98.771C728.767 99.2059 728.912 99.4958 729.057 99.7857L726.447 102.395C725.577 101.38 724.997 100.221 724.852 98.771H728.622ZM730.942 100.221C729.927 100.221 729.057 99.3508 729.057 98.336C729.057 97.3212 729.927 96.4514 730.942 96.4514C731.667 96.4514 732.247 96.8863 732.537 97.4662V97.6111C732.682 97.7561 732.682 98.0461 732.682 98.336C732.682 98.626 732.682 98.7709 732.537 99.0609C732.392 99.7857 731.667 100.221 730.942 100.221ZM731.087 100.656C731.522 100.656 731.812 100.511 732.102 100.366L734.712 102.975C733.697 103.845 732.392 104.425 731.087 104.425V100.656ZM730.507 92.3922V96.1614C730.072 96.3064 729.637 96.4514 729.347 96.7413L726.737 94.1318C727.607 93.117 729.057 92.5372 730.507 92.3922ZM735.147 102.54L732.537 99.9307C732.827 99.6408 732.972 99.2059 733.117 98.771H736.887C736.742 100.221 736.162 101.525 735.147 102.54Z"
      fill="white"
    />
</g>
<g>
<path
      d="M769.512 114.138C778.241 114.138 785.317 107.063 785.317 98.336C785.317 89.6088 778.241 82.5341 769.512 82.5341C760.783 82.5341 753.707 89.6088 753.707 98.336C753.707 107.063 760.783 114.138 769.512 114.138Z"
      fill="#3B5266"
    />
<path
      d="M758.782 98.336C758.782 94.1318 761.102 90.6525 764.582 88.7679L764.002 87.898C760.232 89.9277 757.622 93.8419 757.622 98.336C757.622 102.83 760.232 106.744 764.002 108.774L764.582 107.904C761.247 106.02 758.782 102.54 758.782 98.336Z"
      fill="#76C1AA"
    />
<path
      d="M775.022 87.898L774.587 88.7679C778.067 90.5075 780.532 94.1318 780.532 98.336C780.532 102.54 778.067 106.165 774.587 107.904L775.022 108.774C778.792 106.744 781.402 102.83 781.402 98.336C781.257 93.8419 778.792 89.7827 775.022 87.898Z"
      fill="#76C1AA"
    />
<path
      opacity="0.3"
      d="M769.512 100.656C770.793 100.656 771.832 99.6171 771.832 98.336C771.832 97.055 770.793 96.0165 769.512 96.0165C768.231 96.0165 767.192 97.055 767.192 98.336C767.192 99.6171 768.231 100.656 769.512 100.656Z"
      fill="white"
    />
<path
      opacity="0.3"
      d="M770.962 96.5963L773.572 93.9868C772.557 92.972 771.252 92.3922 769.657 92.3922V96.1614C770.092 96.1614 770.527 96.3064 770.962 96.5963Z"
      fill="white"
    />
<path
      opacity="0.3"
      d="M771.832 98.1911H775.602C775.602 96.7414 775.022 95.2916 774.007 94.2768L771.397 96.8863C771.542 97.3212 771.687 97.7562 771.832 98.1911Z"
      fill="white"
    />
<path
      opacity="0.3"
      d="M771.107 99.9307L773.717 102.54C774.732 101.525 775.312 100.221 775.312 98.7709H771.542C771.687 99.2059 771.397 99.6408 771.107 99.9307Z"
      fill="white"
    />
<path
      opacity="0.3"
      d="M768.207 100.221L765.597 102.83C766.612 103.7 767.772 104.28 769.222 104.28V100.511C768.787 100.511 768.497 100.366 768.207 100.221Z"
      fill="white"
    />
<path
      opacity="0.3"
      d="M769.657 100.656V104.425C771.107 104.425 772.412 103.845 773.282 102.975L770.672 100.366C770.382 100.511 770.092 100.511 769.657 100.656Z"
      fill="white"
    />
<path
      opacity="0.3"
      d="M767.627 97.1763L765.017 94.5668C764.147 95.5816 763.567 96.8863 763.567 98.336H767.337C767.192 97.7561 767.337 97.4662 767.627 97.1763Z"
      fill="white"
    />
<path
      opacity="0.3"
      d="M767.337 98.7709H763.567C763.712 100.221 764.292 101.38 765.162 102.395L767.772 99.7857C767.482 99.4958 767.337 99.2059 767.337 98.7709Z"
      fill="white"
    />
<path
      opacity="0.3"
      d="M769.078 96.1614V92.3922C767.628 92.5372 766.323 93.117 765.308 93.9868L767.918 96.5963C768.208 96.4514 768.643 96.1614 769.078 96.1614Z"
      fill="white"
    />
<path
      d="M769.657 91.5223C769.222 91.5223 768.642 91.5223 768.207 91.6673C765.017 92.2472 762.697 95.0016 762.697 98.336C762.697 102.105 765.742 105.15 769.512 105.15C771.397 105.15 773.137 104.425 774.297 103.12C775.602 101.815 776.327 100.221 776.327 98.336C776.472 94.5667 773.427 91.5223 769.657 91.5223ZM771.832 98.1911C771.832 97.7562 771.687 97.3212 771.397 96.8863L774.007 94.2768C774.877 95.2916 775.457 96.5964 775.602 98.1911H771.832ZM765.452 102.83L768.062 100.221C768.352 100.366 768.642 100.511 769.077 100.656V104.425C767.772 104.28 766.467 103.7 765.452 102.83ZM770.962 96.5964C770.672 96.3064 770.237 96.1614 769.657 96.1614V92.3922C771.107 92.3922 772.557 92.972 773.572 93.9868L770.962 96.5964ZM767.192 98.1911H763.422C763.422 96.7413 764.002 95.4366 764.872 94.4218L767.482 97.0313C767.337 97.4662 767.192 97.7562 767.192 98.1911ZM767.337 98.771C767.482 99.2059 767.627 99.4958 767.772 99.7857L765.162 102.395C764.292 101.38 763.712 100.221 763.567 98.771H767.337ZM769.512 100.221C768.497 100.221 767.627 99.3508 767.627 98.336C767.627 97.3212 768.497 96.4514 769.512 96.4514C770.237 96.4514 770.817 96.8863 771.107 97.4662V97.6111C771.252 97.7561 771.252 98.0461 771.252 98.336C771.252 98.626 771.252 98.7709 771.107 99.0609C770.962 99.7857 770.382 100.221 769.512 100.221ZM769.657 100.656C770.092 100.656 770.382 100.511 770.672 100.366L773.282 102.975C772.267 103.845 770.962 104.425 769.657 104.425V100.656ZM769.077 92.3922V96.1614C768.642 96.3064 768.207 96.4514 767.917 96.7413L765.307 94.1318C766.322 93.117 767.627 92.5372 769.077 92.3922ZM773.862 102.54L771.252 99.9307C771.542 99.6408 771.687 99.2059 771.832 98.771H775.602C775.312 100.221 774.732 101.525 773.862 102.54Z"
      fill="white"
    />
</g>
<g>
<path
      d="M808.227 114.138C816.956 114.138 824.032 107.063 824.032 98.336C824.032 89.6088 816.956 82.5341 808.227 82.5341C799.498 82.5341 792.422 89.6088 792.422 98.336C792.422 107.063 799.498 114.138 808.227 114.138Z"
      fill="#3B5266"
    />
<path
      d="M797.497 98.336C797.497 94.1318 799.817 90.6525 803.297 88.7679L802.717 87.898C798.947 89.9277 796.337 93.8419 796.337 98.336C796.337 102.83 798.947 106.744 802.717 108.774L803.297 107.904C799.817 106.02 797.497 102.54 797.497 98.336Z"
      fill="#76C1AA"
    />
<path
      d="M813.592 87.898L813.157 88.7679C816.637 90.5075 819.102 94.1318 819.102 98.336C819.102 102.54 816.637 106.165 813.157 107.904L813.592 108.774C817.362 106.744 819.972 102.83 819.972 98.336C819.972 93.8419 817.362 89.7827 813.592 87.898Z"
      fill="#76C1AA"
    />
<path
      opacity="0.3"
      d="M808.227 100.656C809.508 100.656 810.547 99.6171 810.547 98.336C810.547 97.055 809.508 96.0165 808.227 96.0165C806.945 96.0165 805.907 97.055 805.907 98.336C805.907 99.6171 806.945 100.656 808.227 100.656Z"
      fill="white"
    />
<path
      opacity="0.3"
      d="M809.532 96.5963L812.142 93.9868C811.127 92.972 809.822 92.3922 808.227 92.3922V96.1614C808.807 96.1614 809.242 96.3064 809.532 96.5963Z"
      fill="white"
    />
<path
      opacity="0.3"
      d="M810.402 98.1911H814.172C814.172 96.7414 813.592 95.2916 812.577 94.2768L809.967 96.8863C810.257 97.3212 810.402 97.7562 810.402 98.1911Z"
      fill="white"
    />
<path
      opacity="0.3"
      d="M809.822 99.9307L812.432 102.54C813.447 101.525 814.027 100.221 814.027 98.7709H810.257C810.257 99.2059 810.112 99.6408 809.822 99.9307Z"
      fill="white"
    />
<path
      opacity="0.3"
      d="M806.776 100.221L804.167 102.83C805.181 103.7 806.341 104.28 807.791 104.28V100.511C807.356 100.511 807.066 100.366 806.776 100.221Z"
      fill="white"
    />
<path
      opacity="0.3"
      d="M808.372 100.656V104.425C809.822 104.425 811.127 103.845 811.997 102.975L809.387 100.366C809.097 100.511 808.662 100.511 808.372 100.656Z"
      fill="white"
    />
<path
      opacity="0.3"
      d="M806.197 97.1763L803.587 94.5668C802.717 95.5816 802.137 96.8863 802.137 98.336H805.907C805.907 97.7561 806.052 97.4662 806.197 97.1763Z"
      fill="white"
    />
<path
      opacity="0.3"
      d="M805.907 98.7709H802.137C802.282 100.221 802.862 101.38 803.732 102.395L806.342 99.7857C806.197 99.4958 806.052 99.2059 805.907 98.7709Z"
      fill="white"
    />
<path
      opacity="0.3"
      d="M807.792 96.1614V92.3922C806.342 92.5372 805.037 93.117 804.022 93.9868L806.632 96.5963C806.922 96.4514 807.357 96.1614 807.792 96.1614Z"
      fill="white"
    />
<path
      d="M808.227 91.5223C807.792 91.5223 807.212 91.5223 806.777 91.6673C803.587 92.2472 801.267 95.0016 801.267 98.336C801.267 102.105 804.312 105.15 808.082 105.15C809.967 105.15 811.707 104.425 812.867 103.12C814.172 101.815 814.897 100.221 814.897 98.336C815.042 94.5667 811.997 91.5223 808.227 91.5223ZM810.402 98.1911C810.402 97.7562 810.257 97.3212 809.967 96.8863L812.577 94.2768C813.447 95.2916 814.027 96.5964 814.172 98.1911H810.402ZM804.167 102.83L806.777 100.221C807.067 100.366 807.357 100.511 807.792 100.656V104.425C806.342 104.28 805.182 103.7 804.167 102.83ZM809.532 96.5964C809.242 96.3064 808.807 96.1614 808.227 96.1614V92.3922C809.677 92.3922 811.127 92.972 812.142 93.9868L809.532 96.5964ZM805.907 98.1911H802.137C802.137 96.7413 802.717 95.4366 803.587 94.4218L806.197 97.0313C806.052 97.4662 805.907 97.7562 805.907 98.1911ZM805.907 98.771C806.052 99.2059 806.197 99.4958 806.342 99.7857L803.732 102.395C802.862 101.38 802.282 100.221 802.137 98.771H805.907ZM808.227 100.221C807.212 100.221 806.342 99.3508 806.342 98.336C806.342 97.3212 807.212 96.4514 808.227 96.4514C808.952 96.4514 809.532 96.8863 809.822 97.4662V97.6111C809.967 97.7561 809.967 98.0461 809.967 98.336C809.967 98.626 809.967 98.7709 809.822 99.0609C809.677 99.7857 808.952 100.221 808.227 100.221ZM808.372 100.656C808.807 100.656 809.097 100.511 809.387 100.366L811.997 102.975C810.982 103.845 809.677 104.425 808.372 104.425V100.656ZM807.792 92.3922V96.1614C807.357 96.3064 806.922 96.4514 806.632 96.7413L804.022 94.1318C804.892 93.117 806.342 92.5372 807.792 92.3922ZM812.432 102.54L809.822 99.9307C810.112 99.6408 810.257 99.2059 810.402 98.771H814.172C814.027 100.221 813.447 101.525 812.432 102.54Z"
      fill="white"
    />
</g>

<g>
  <path
        d="M846.796 114.138C855.525 114.138 862.601 107.063 862.601 98.336C862.601 89.6088 855.525 82.5341 846.796 82.5341C838.067 82.5341 830.991 89.6088 830.991 98.336C830.991 107.063 838.067 114.138 846.796 114.138Z"
        fill="#3B5266"
      />
  <path
        d="M836.066 98.336C836.066 94.1318 838.386 90.6525 841.866 88.7679L841.286 87.898C837.516 89.9277 834.906 93.8419 834.906 98.336C834.906 102.83 837.516 106.744 841.286 108.774L841.866 107.904C838.531 106.02 836.066 102.54 836.066 98.336Z"
        fill="#76C1AA"
      />
  <path
        d="M852.306 87.898L851.871 88.7679C855.351 90.5075 857.816 94.1318 857.816 98.336C857.816 102.54 855.351 106.165 851.871 107.904L852.306 108.774C856.076 106.744 858.686 102.83 858.686 98.336C858.686 93.8419 856.076 89.7827 852.306 87.898Z"
        fill="#76C1AA"
      />
  <path
        opacity="0.3"
        d="M846.796 100.656C848.077 100.656 849.116 99.6171 849.116 98.336C849.116 97.055 848.077 96.0165 846.796 96.0165C845.515 96.0165 844.476 97.055 844.476 98.336C844.476 99.6171 845.515 100.656 846.796 100.656Z"
        fill="white"
      />
  <path
        opacity="0.3"
        d="M848.246 96.5963L850.856 93.9868C849.841 92.972 848.536 92.3922 846.941 92.3922V96.1614C847.376 96.1614 847.811 96.3064 848.246 96.5963Z"
        fill="white"
      />
  <path
        opacity="0.3"
        d="M849.117 98.1911H852.886C852.886 96.7414 852.307 95.2916 851.292 94.2768L848.682 96.8863C848.827 97.3212 848.972 97.7562 849.117 98.1911Z"
        fill="white"
      />
  <path
        opacity="0.3"
        d="M848.392 99.9307L851.002 102.54C852.017 101.525 852.597 100.221 852.597 98.7709H848.827C848.972 99.2059 848.682 99.6408 848.392 99.9307Z"
        fill="white"
      />
  <path
        opacity="0.3"
        d="M845.491 100.221L842.881 102.83C843.896 103.7 845.056 104.28 846.506 104.28V100.511C846.071 100.511 845.781 100.366 845.491 100.221Z"
        fill="white"
      />
  <path
        opacity="0.3"
        d="M846.941 100.656V104.425C848.391 104.425 849.696 103.845 850.566 102.975L847.956 100.366C847.666 100.511 847.376 100.511 846.941 100.656Z"
        fill="white"
      />
  <path
        opacity="0.3"
        d="M844.912 97.1763L842.302 94.5668C841.432 95.5816 840.852 96.8863 840.852 98.336H844.622C844.622 97.7561 844.622 97.4662 844.912 97.1763Z"
        fill="white"
      />
  <path
        opacity="0.3"
        d="M844.622 98.7709H840.852C840.997 100.221 841.577 101.38 842.447 102.395L845.057 99.7857C844.767 99.4958 844.622 99.2059 844.622 98.7709Z"
        fill="white"
      />
  <path
        opacity="0.3"
        d="M846.362 96.1614V92.3922C844.912 92.5372 843.607 93.117 842.592 93.9868L845.202 96.5963C845.492 96.4514 845.927 96.1614 846.362 96.1614Z"
        fill="white"
      />
  <path
        d="M846.941 91.5223C846.506 91.5223 845.926 91.5223 845.491 91.6673C842.301 92.2472 839.981 95.0016 839.981 98.336C839.981 102.105 843.026 105.15 846.796 105.15C848.681 105.15 850.421 104.425 851.581 103.12C852.886 101.815 853.611 100.221 853.611 98.336C853.756 94.5667 850.711 91.5223 846.941 91.5223ZM849.116 98.1911C849.116 97.7562 848.971 97.3212 848.681 96.8863L851.291 94.2768C852.161 95.2916 852.741 96.5964 852.886 98.1911H849.116ZM842.736 102.83L845.346 100.221C845.636 100.366 845.926 100.511 846.361 100.656V104.425C845.056 104.28 843.751 103.7 842.736 102.83ZM848.246 96.5964C847.956 96.3064 847.521 96.1614 846.941 96.1614V92.3922C848.391 92.3922 849.841 92.972 850.856 93.9868L848.246 96.5964ZM844.476 98.1911H840.706C840.706 96.7413 841.286 95.4366 842.156 94.4218L844.766 97.0313C844.621 97.4662 844.621 97.7562 844.476 98.1911ZM844.621 98.771C844.766 99.2059 844.911 99.4958 845.056 99.7857L842.446 102.395C841.576 101.38 840.996 100.221 840.851 98.771H844.621ZM846.796 100.221C845.781 100.221 844.911 99.3508 844.911 98.336C844.911 97.3212 845.781 96.4514 846.796 96.4514C847.521 96.4514 848.101 96.8863 848.391 97.4662V97.6111C848.536 97.7561 848.536 98.0461 848.536 98.336C848.536 98.626 848.536 98.7709 848.391 99.0609C848.246 99.7857 847.666 100.221 846.796 100.221ZM846.941 100.656C847.376 100.656 847.666 100.511 847.956 100.366L850.566 102.975C849.551 103.845 848.246 104.425 846.941 104.425V100.656ZM846.361 92.3922V96.1614C845.926 96.3064 845.491 96.4514 845.201 96.7413L842.591 94.1318C843.606 93.117 844.911 92.5372 846.361 92.3922ZM851.146 102.54L848.536 99.9307C848.826 99.6408 848.971 99.2059 849.116 98.771H852.886C852.596 100.221 852.016 101.525 851.146 102.54Z"
        fill="white"
      />
  </g>
<path
    d="M83.385 85.4335C83.385 85.4335 83.53 85.4335 83.385 85.4335C83.53 85.4335 83.53 85.4335 83.385 85.4335C83.53 85.4335 84.545 85.2885 85.27 84.7086C85.995 83.8388 86.2849 82.3891 85.7049 81.6642C85.4149 81.3743 84.98 81.2293 84.545 81.2293C84.11 81.3742 83.82 81.5192 83.675 81.9541C83.675 82.0991 83.675 82.0991 83.675 82.2441C83.82 82.2441 83.82 82.2441 83.965 82.2441C84.11 82.0991 84.255 82.0991 84.4 82.0991C84.545 82.0991 84.545 82.2441 84.6899 82.3891C84.6899 82.534 84.69 82.679 84.545 82.824L84.4 82.9689C84.11 82.9689 83.675 82.679 83.24 82.2441C82.805 81.8092 82.225 81.5192 81.79 81.2293C81.065 80.9393 78.89 80.5044 77.44 81.5192C77.44 81.5192 76.57 82.2441 76.425 82.824C76.135 83.4039 76.135 84.1287 76.28 84.5636C76.135 84.7086 75.99 84.8536 75.99 85.1436C75.99 85.5785 76.425 85.8684 77.15 86.0134C77.15 86.1583 77.005 86.1583 77.005 86.3033C77.005 86.7382 77.585 87.1732 78.31 87.1732C78.89 87.1732 79.325 87.0282 79.47 86.7382C79.615 87.0282 80.05 87.1732 80.63 87.1732C81.355 87.1732 81.935 86.7382 81.935 86.3033C81.935 86.1583 81.935 86.0134 81.79 86.0134C82.225 86.0134 82.515 85.8684 82.805 85.5785C82.805 85.5785 82.805 85.5785 82.95 85.5785C82.805 85.5785 83.095 85.4335 83.385 85.4335ZM84.4 84.7086C84.255 84.8536 83.965 84.8536 83.82 84.8536C83.965 83.9838 83.385 83.1139 83.24 82.679C83.53 82.9689 83.82 83.1139 84.11 83.2589C84.255 83.5488 84.545 84.1287 84.4 84.7086ZM82.805 85.1436C82.805 84.9986 82.66 84.7086 82.515 84.4187C82.225 83.8388 81.645 82.9689 80.195 82.534C78.31 81.9541 77.44 82.2441 77.005 82.534C77.005 82.534 77.005 82.534 77.15 82.3891C77.295 82.2441 77.44 82.0991 77.585 81.9541C78.165 81.6642 79.18 81.6642 80.63 82.0991C82.515 82.679 83.095 83.9837 83.24 84.5636C83.24 84.7086 83.385 84.9986 83.385 85.1436C83.385 85.1436 83.385 85.1436 83.24 85.1436C82.95 85.1436 82.95 85.1436 82.805 85.1436ZM80.05 83.4039C79.76 83.4039 79.615 83.5488 79.47 83.6938C79.18 83.4039 78.89 83.2589 78.31 83.2589C78.165 83.2589 78.02 83.2589 77.875 83.2589C78.31 83.1139 78.89 83.1139 79.47 83.1139C79.615 83.2589 79.76 83.2589 80.05 83.4039ZM78.31 83.6938C78.745 83.6938 79.18 83.9838 79.18 84.1287C79.18 84.2737 79.035 84.4187 78.89 84.4187H78.745C78.6 84.4187 78.455 84.4187 78.31 84.4187C77.875 84.4187 77.44 84.1287 77.44 83.9837C77.44 83.9837 77.73 83.6938 78.31 83.6938ZM78.89 84.8536H79.035C79.18 84.8536 79.18 84.8536 79.325 84.8536C79.905 84.8536 80.195 85.1435 80.195 85.2885C80.195 85.4335 79.76 85.7234 79.325 85.7234C78.745 85.7234 78.455 85.4335 78.455 85.2885C78.455 85.1435 78.6 84.9986 78.89 84.8536ZM79.615 84.1287C79.615 83.9838 80.05 83.6938 80.485 83.6938C80.63 83.6938 80.63 83.6938 80.775 83.6938C81.065 83.6938 81.355 83.9838 81.355 84.1287C81.355 84.2737 81.21 84.4187 80.92 84.5636C80.775 84.5636 80.63 84.5636 80.485 84.5636C79.905 84.5636 79.615 84.2737 79.615 84.1287ZM76.86 84.4187C76.86 84.2737 76.86 84.2737 76.86 84.1287C76.86 83.9838 77.005 83.8388 77.15 83.6938C77.005 83.8388 77.005 83.9838 77.005 84.1287C77.005 84.2737 77.005 84.4187 77.15 84.4187C77.005 84.4187 77.005 84.4187 76.86 84.4187ZM76.28 85.2885C76.28 85.1435 76.425 85.1435 76.57 84.9986C76.715 84.9986 76.86 84.8536 77.005 84.8536C77.15 84.8536 77.15 84.8536 77.295 84.8536C77.875 84.8536 78.165 85.1435 78.165 85.2885C78.165 85.4335 78.02 85.4335 78.02 85.5785C77.875 85.7234 77.585 85.7234 77.295 85.7234C76.57 85.7234 76.28 85.5784 76.28 85.2885ZM78.165 86.8832C77.585 86.8832 77.295 86.7382 77.295 86.4483C77.295 86.3033 77.73 86.0134 78.165 86.0134C78.455 86.0134 78.6 86.0134 78.89 86.1583C78.89 86.1583 79.035 86.3033 79.035 86.4483C79.035 86.7382 78.6 86.8832 78.165 86.8832ZM80.485 86.8832C79.905 86.8832 79.615 86.5933 79.615 86.4483C79.615 86.4483 79.615 86.3033 79.76 86.3033C79.905 86.1583 80.195 86.0134 80.485 86.0134C80.63 86.0134 80.775 86.0134 80.92 86.0134C81.21 86.1583 81.355 86.3033 81.355 86.4483C81.355 86.7382 80.92 86.8832 80.485 86.8832ZM82.37 85.4335C82.225 85.5784 81.935 85.7234 81.5 85.7234C81.355 85.7234 81.21 85.7234 81.065 85.7234C80.775 85.5785 80.63 85.4335 80.63 85.2885C80.63 85.1435 80.775 84.9986 81.065 84.8536C81.21 84.8536 81.355 84.8536 81.5 84.8536C81.645 84.8536 81.645 84.8536 81.79 84.8536C82.08 84.9986 82.37 85.1435 82.37 85.4335C82.37 85.2885 82.37 85.4335 82.37 85.4335Z"
    fill="white"
  />
<path
    d="M93.8249 80.7944V70.2114C93.8249 70.0664 93.8249 69.9215 93.6799 69.9215C93.5349 69.9215 93.3899 69.9215 93.3899 69.9215L92.2299 70.5014V66.7321C92.2299 66.5871 92.2299 66.4421 92.0849 66.4421C91.9399 66.4421 91.7949 66.4421 91.7949 66.4421L86.5749 69.7765H86.4299C85.5599 70.0664 84.6899 70.2114 83.9649 70.2114C81.4999 70.2114 80.6299 68.6167 80.6299 68.6167C80.6299 68.4717 80.4849 68.4717 80.3399 68.4717C80.1949 68.4717 80.0499 68.6167 80.0499 68.6167C80.0499 68.6167 79.1799 70.2114 76.715 70.2114C75.99 70.2114 75.12 70.0664 74.25 69.7765L69.03 66.4421C68.885 66.4421 68.74 66.4421 68.595 66.4421C68.45 66.4421 68.45 66.5871 68.45 66.7321V70.5014L67.435 69.9215C67.29 69.9215 67.145 69.9215 67.145 69.9215C67 69.9215 67 70.0664 67 70.2114V80.7944C67 80.9393 67 83.5488 69.175 85.5785C71.06 87.4631 73.96 88.4779 77.875 88.4779C77.875 88.4779 77.875 88.4779 78.02 88.4779C79.47 88.9128 80.3399 89.2027 80.3399 90.5075C80.3399 90.6525 80.4849 90.7975 80.6299 90.7975C80.7749 90.7975 80.92 90.6525 80.92 90.5075C80.92 89.3477 81.7899 88.9128 83.2399 88.4779H83.3849C87.2999 88.4779 90.1999 87.4631 92.0849 85.5785C93.8249 83.4039 93.8249 80.9393 93.8249 80.7944ZM75.265 77.605C75.7 77.46 75.845 76.5902 75.845 76.5902C75.845 76.5902 76.57 77.0251 77.005 76.8801C77.005 77.0251 77.005 77.46 77.005 77.46C77.005 77.46 76.86 77.75 77.005 78.0399C77.15 78.1849 77.15 78.4748 77.15 78.7648C76.86 78.7648 76.715 78.7648 76.425 78.7648C75.99 78.7648 75.555 78.7648 75.265 78.7648C75.265 78.1849 75.265 78.0399 75.265 77.605ZM83.3849 77.0251H84.2549C84.2549 77.46 84.2549 77.8949 84.3999 78.6198L83.3849 78.4748C83.3849 77.8949 83.3849 77.46 83.3849 77.0251ZM90.4899 78.4748C89.9099 79.0547 89.0399 79.3446 88.0249 79.3446C87.7349 78.6198 87.5899 77.8949 87.5899 77.315L91.5049 75.1405C91.5049 75.4304 91.5049 77.3151 90.4899 78.4748ZM69.03 75.1405L72.945 77.315C72.945 77.8949 72.8 78.6198 72.51 79.3446C71.495 79.3446 70.77 79.0547 70.19 78.4748C69.03 77.3151 69.03 75.4304 69.03 75.1405ZM93.0999 70.7913V77.315L91.3599 78.3298C92.2299 76.8801 92.2299 75.2854 92.2299 74.9955V71.2262L93.0999 70.7913ZM91.5049 70.9363L88.6049 72.6759C88.4599 72.531 88.0249 71.9511 87.0099 70.3564L91.5049 67.4569V70.9363ZM83.8199 70.9363C84.5449 70.9363 85.4149 70.7913 86.2849 70.5014C87.2999 71.9511 87.7349 72.6759 88.0249 72.9659C87.5899 73.6907 86.2849 76.1553 87.2999 79.1997C86.8649 78.7648 85.8499 78.6198 84.8349 78.6198C84.6899 77.8949 84.6899 77.46 84.6899 77.0251H86.2849C86.4299 77.0251 86.4299 76.7351 86.4299 76.4452V74.9955C86.4299 73.8357 85.8499 73.8357 85.8499 73.8357C85.8499 73.8357 85.4149 73.8357 85.2699 73.2558C85.1249 72.6759 84.6899 72.241 84.2549 72.241C83.8199 72.241 82.9499 72.531 82.3699 72.9659C81.9349 73.1109 81.9349 73.4008 81.9349 73.8357C81.7899 74.8505 81.4999 74.7055 81.4999 74.7055C81.3549 74.7055 81.2099 74.8505 81.2099 75.1405V76.5902C81.2099 76.8801 81.3549 77.1701 81.4999 77.1701H83.0949C83.0949 77.605 83.0949 78.0399 82.9499 78.7648C81.9349 78.7648 81.0649 79.0547 80.4849 79.4896V69.6315C80.9199 70.2114 82.0799 70.9363 83.8199 70.9363ZM79.76 69.9215V79.1997C79.325 78.9097 78.5999 78.7648 77.7299 78.7648C77.5849 78.3299 77.5849 77.1701 77.7299 76.8801C78.4549 76.7352 78.4549 76.0103 78.4549 75.4304C78.4549 74.9955 78.31 73.4008 78.31 73.4008L78.745 73.2558C78.89 73.2558 78.8899 73.2558 78.8899 73.1108C78.8899 72.9659 78.8899 72.8209 78.8899 72.8209L78.4549 72.6759C78.3099 72.531 78.165 72.386 78.02 72.386C77.875 72.386 77.585 72.386 77.44 72.6759C77.295 72.531 77.005 72.6759 76.86 72.6759C76.86 72.6759 76.86 73.4008 77.585 73.2558L77.7299 75.1405C77.7299 75.1405 77.73 75.5754 77.295 75.4304C76.86 75.2854 75.99 74.9955 75.41 75.1405C75.12 75.2854 74.685 75.4304 74.395 76.1553C74.105 76.8801 74.54 76.5902 74.54 76.5902L74.975 76.3002C74.975 76.3002 75.265 76.8801 74.975 77.315C74.685 77.605 74.83 77.8949 74.83 77.8949C74.83 77.8949 74.975 78.6198 74.975 78.9097C74.25 78.9097 73.67 79.1997 73.235 79.3446C74.105 76.3002 72.945 73.8357 72.51 73.1108C72.8 72.8209 73.235 72.096 74.25 70.6463C75.12 70.9363 75.99 71.0812 76.715 71.0812C78.165 70.9363 79.035 70.3564 79.76 69.9215ZM69.03 67.4569L73.525 70.3564C72.655 71.8061 72.075 72.386 71.93 72.6759L69.03 71.0812V67.4569ZM68.305 71.2262V74.9955C68.305 75.1405 68.305 76.8801 69.175 78.3298L67.435 77.315V70.7913L68.305 71.2262ZM67.58 81.8092L71.93 84.2737C72.365 85.4335 73.09 86.1583 74.25 87.1732C74.54 87.4631 74.975 87.6081 75.265 87.753C72.655 87.4631 70.625 86.5933 69.32 85.1436C68.16 83.9838 67.725 82.679 67.58 81.8092ZM80.195 89.2028C79.615 88.3329 78.5999 88.043 77.44 87.753C76.425 87.4631 75.41 87.1732 74.54 86.4483C72.365 84.8536 71.64 83.4039 72.8 80.0695H87.5899C88.7499 83.4039 88.0249 84.7086 85.8499 86.4483C84.9799 87.0282 83.9649 87.4631 82.9499 87.6081C81.7899 88.043 80.775 88.4779 80.195 89.2028ZM91.2149 85.1436C89.7649 86.5933 87.7349 87.4631 85.1249 87.753C85.5599 87.6081 85.8499 87.3181 86.1399 87.1732C87.2999 86.3033 88.1699 85.4335 88.4599 84.4187C88.4599 84.4187 88.4599 84.4187 88.6049 84.4187L92.9549 81.9541C92.8099 82.679 92.3749 83.9838 91.2149 85.1436Z"
    fill="white"
  />
<path
    d="M80.1948 68.1818C82.2248 68.1818 83.6748 67.167 83.6748 65.8622C83.6748 64.5575 82.0798 63.5427 80.1948 63.5427C78.1649 63.5427 76.7148 64.5575 76.7148 65.8622C76.7148 67.167 78.1649 68.1818 80.1948 68.1818ZM80.1948 64.4125C81.2098 64.4125 81.9348 64.8474 81.9348 65.2824C81.9348 65.7173 81.4998 66.0072 80.9198 66.1522C80.3398 66.2972 80.4848 66.5871 80.1948 66.7321C79.9048 66.5871 80.0498 66.2972 79.4698 66.1522C78.8898 66.0072 78.4548 65.7173 78.4548 65.2824C78.4548 64.8474 79.1798 64.4125 80.1948 64.4125Z"
    fill="white"
  />
</svg>
