<svg width="916" height="124" viewBox="0 0 916 124" fill="none" xmlns="http://www.w3.org/2000/svg">
<path d="M284.489 93.9569H291.304V91.9272H331.179L336.109 89.8977H914.511V104.105H336.109L331.179 102.075H290.724V100.336H284.489V93.9569Z" fill="#DCE9EF" stroke="#65819B" stroke-width="1.0365" stroke-miterlimit="10"/>
<path d="M144.564 88.3028V85.4033H134.124V11.1776H129.919V0.304688H123.974V10.7427H122.379V75.2553H116.869V17.2664H70.6147V24.0801H75.2547L60.1747 60.4681H8.40996L8.98996 97.726H0V104.54H9.71495V107.729H145.579V105.409H285.214V88.4478H144.564V88.3028ZM95.8446 60.1782H76.2697L85.4046 25.095H95.8446V60.1782Z" fill="#B51F46"/>
<path d="M285.214 66.9919H164.574V86.9982H285.214V66.9919Z" fill="#76C1AA"/>
<path d="M37.1199 123.241C45.8487 123.241 52.9248 116.166 52.9248 107.439C52.9248 98.712 45.8487 91.6371 37.1199 91.6371C28.3911 91.6371 21.3149 98.712 21.3149 107.439C21.3149 116.166 28.3911 123.241 37.1199 123.241Z" fill="#3B5266"/>
<path d="M26.39 107.439C26.39 103.235 28.71 99.7557 32.19 97.8711L31.61 97.0012C27.84 99.0308 25.23 102.945 25.23 107.439C25.23 111.933 27.84 115.848 31.61 117.877L32.19 117.007C28.71 115.268 26.39 111.643 26.39 107.439Z" fill="#76C1AA"/>
<path d="M42.6298 97.0012L42.1948 97.8711C45.6748 99.6108 48.1398 103.235 48.1398 107.439C48.1398 111.643 45.6748 115.268 42.1948 117.007L42.6298 117.877C46.3998 115.848 49.0098 111.933 49.0098 107.439C48.8648 102.945 46.3998 99.0308 42.6298 97.0012Z" fill="#76C1AA"/>
<path opacity="0.3" d="M37.1198 109.759C38.4011 109.759 39.4398 108.72 39.4398 107.439C39.4398 106.158 38.4011 105.12 37.1198 105.12C35.8385 105.12 34.7998 106.158 34.7998 107.439C34.7998 108.72 35.8385 109.759 37.1198 109.759Z" fill="white"/>
<path opacity="0.3" d="M38.5701 105.7L41.1801 103.09C40.1651 102.075 38.8601 101.495 37.2651 101.495V105.265C37.7001 105.265 38.1351 105.41 38.5701 105.7Z" fill="white"/>
<path opacity="0.3" d="M39.2949 107.294H43.0648C43.0648 105.845 42.4848 104.395 41.4698 103.38L38.8599 105.99C39.1499 106.424 39.2949 106.859 39.2949 107.294Z" fill="white"/>
<path opacity="0.3" d="M38.7151 109.034L41.3251 111.643C42.3401 110.629 42.9201 109.324 42.9201 107.874H39.1501C39.2951 108.309 39.0051 108.744 38.7151 109.034Z" fill="white"/>
<path opacity="0.3" d="M35.815 109.324L33.2051 111.933C34.2201 112.803 35.3801 113.383 36.83 113.383V109.614C36.395 109.614 35.96 109.469 35.815 109.324Z" fill="white"/>
<path opacity="0.3" d="M37.2651 109.759V113.528C38.7151 113.528 40.0201 112.948 40.8901 112.078L38.2801 109.469C37.9901 109.614 37.7001 109.759 37.2651 109.759Z" fill="white"/>
<path opacity="0.3" d="M35.235 106.28L32.6251 103.67C31.755 104.685 31.175 105.99 31.175 107.439H34.9451C34.8001 107.004 34.945 106.569 35.235 106.28Z" fill="white"/>
<path opacity="0.3" d="M34.8 107.874H31.03C31.175 109.324 31.755 110.484 32.625 111.498L35.235 108.889C35.09 108.599 34.945 108.309 34.8 107.874Z" fill="white"/>
<path opacity="0.3" d="M36.685 105.265V101.495C35.235 101.64 33.93 102.22 32.915 103.09L35.525 105.7C35.815 105.555 36.25 105.265 36.685 105.265Z" fill="white"/>
<path d="M37.2649 100.626C36.8299 100.626 36.2499 100.626 35.8149 100.771C32.6249 101.351 30.3049 104.105 30.3049 107.439C30.3049 111.209 33.3499 114.253 37.1199 114.253C39.0049 114.253 40.7449 113.528 41.9049 112.223C43.2099 110.919 43.9349 109.324 43.9349 107.439C43.9349 103.67 41.0349 100.626 37.2649 100.626ZM39.2949 107.294C39.2949 106.859 39.1499 106.425 38.8599 105.99L41.4699 103.38C42.3399 104.395 42.9199 105.7 43.0649 107.294H39.2949ZM33.0599 111.933L35.6699 109.324C35.9599 109.469 36.2499 109.614 36.6849 109.759V113.528C35.3799 113.383 34.0749 112.803 33.0599 111.933ZM38.5699 105.7C38.2799 105.41 37.8449 105.265 37.2649 105.265V101.495C38.7149 101.495 40.1649 102.075 41.1799 103.09L38.5699 105.7ZM34.7999 107.294H31.0299C31.0299 105.845 31.6099 104.54 32.4799 103.525L35.0899 106.135C34.9449 106.569 34.7999 107.004 34.7999 107.294ZM34.7999 107.874C34.9449 108.309 35.0899 108.599 35.2349 108.889L32.6249 111.499C31.7549 110.484 31.1749 109.324 31.0299 107.874H34.7999ZM37.1199 109.324C36.1049 109.324 35.2349 108.454 35.2349 107.439C35.2349 106.425 36.1049 105.555 37.1199 105.555C37.8449 105.555 38.4249 105.99 38.7149 106.57V106.714C38.8599 106.859 38.8599 107.149 38.8599 107.439C38.8599 107.729 38.8599 107.874 38.7149 108.164C38.5699 108.889 37.8449 109.324 37.1199 109.324ZM37.2649 109.759C37.6999 109.759 37.9899 109.614 38.2799 109.469L40.8899 112.078C39.8749 112.948 38.5699 113.528 37.2649 113.528V109.759ZM36.6849 101.495V105.265C36.2499 105.41 35.8149 105.555 35.5249 105.845L32.9149 103.235C33.9299 102.22 35.2349 101.64 36.6849 101.495ZM41.3249 111.644L38.7149 109.034C39.0049 108.744 39.1499 108.309 39.2949 107.874H43.0649C42.9199 109.324 42.3399 110.629 41.3249 111.644Z" fill="white"/>
<path d="M174.869 123.241C183.598 123.241 190.674 116.166 190.674 107.439C190.674 98.712 183.598 91.6371 174.869 91.6371C166.14 91.6371 159.064 98.712 159.064 107.439C159.064 116.166 166.14 123.241 174.869 123.241Z" fill="#3B5266"/>
<path d="M164.139 107.439C164.139 103.235 166.459 99.7557 169.939 97.8711L169.359 97.0012C165.589 99.0308 162.979 102.945 162.979 107.439C162.979 111.933 165.589 115.848 169.359 117.877L169.939 117.007C166.459 115.268 164.139 111.643 164.139 107.439Z" fill="#76C1AA"/>
<path d="M180.234 97.0012L179.799 97.8711C183.279 99.6108 185.744 103.235 185.744 107.439C185.744 111.643 183.279 115.268 179.799 117.007L180.234 117.877C184.004 115.848 186.614 111.933 186.614 107.439C186.614 102.945 184.004 99.0308 180.234 97.0012Z" fill="#76C1AA"/>
<path opacity="0.3" d="M174.869 109.759C176.15 109.759 177.189 108.72 177.189 107.439C177.189 106.158 176.15 105.12 174.869 105.12C173.588 105.12 172.549 106.158 172.549 107.439C172.549 108.72 173.588 109.759 174.869 109.759Z" fill="white"/>
<path opacity="0.3" d="M176.174 105.7L178.784 103.09C177.769 102.075 176.464 101.495 174.869 101.495V105.265C175.449 105.265 175.884 105.41 176.174 105.7Z" fill="white"/>
<path opacity="0.3" d="M177.044 107.294H180.814C180.814 105.845 180.234 104.395 179.219 103.38L176.609 105.99C176.899 106.424 177.044 106.859 177.044 107.294Z" fill="white"/>
<path opacity="0.3" d="M176.464 109.034L179.074 111.643C180.089 110.629 180.669 109.324 180.669 107.874H176.899C176.899 108.309 176.754 108.744 176.464 109.034Z" fill="white"/>
<path opacity="0.3" d="M173.419 109.324L170.809 111.933C171.824 112.803 172.984 113.383 174.434 113.383V109.614C173.999 109.614 173.709 109.469 173.419 109.324Z" fill="white"/>
<path opacity="0.3" d="M175.014 109.759V113.528C176.464 113.528 177.769 112.948 178.639 112.078L176.029 109.469C175.739 109.614 175.304 109.759 175.014 109.759Z" fill="white"/>
<path opacity="0.3" d="M172.839 106.28L170.229 103.67C169.359 104.685 168.779 105.99 168.779 107.439H172.549C172.549 107.004 172.694 106.569 172.839 106.28Z" fill="white"/>
<path opacity="0.3" d="M172.549 107.874H168.779C168.924 109.324 169.504 110.484 170.374 111.498L172.984 108.889C172.839 108.599 172.694 108.309 172.549 107.874Z" fill="white"/>
<path opacity="0.3" d="M174.434 105.265V101.495C172.984 101.64 171.679 102.22 170.664 103.09L173.274 105.7C173.564 105.555 173.999 105.265 174.434 105.265Z" fill="white"/>
<path d="M174.869 100.626C174.434 100.626 173.854 100.626 173.419 100.771C170.229 101.351 167.909 104.105 167.909 107.439C167.909 111.209 170.954 114.253 174.724 114.253C176.609 114.253 178.349 113.528 179.509 112.223C180.814 110.919 181.539 109.324 181.539 107.439C181.684 103.67 178.639 100.626 174.869 100.626ZM177.044 107.294C177.044 106.859 176.899 106.425 176.609 105.99L179.219 103.38C180.089 104.395 180.669 105.7 180.814 107.294H177.044ZM170.809 111.933L173.419 109.324C173.709 109.469 173.999 109.614 174.434 109.759V113.528C172.984 113.383 171.824 112.803 170.809 111.933ZM176.174 105.7C175.884 105.41 175.449 105.265 174.869 105.265V101.495C176.319 101.495 177.769 102.075 178.784 103.09L176.174 105.7ZM172.549 107.294H168.779C168.779 105.845 169.359 104.54 170.229 103.525L172.839 106.135C172.694 106.569 172.549 107.004 172.549 107.294ZM172.549 107.874C172.694 108.309 172.839 108.599 172.984 108.889L170.374 111.499C169.504 110.484 168.924 109.324 168.779 107.874H172.549ZM174.869 109.324C173.854 109.324 172.984 108.454 172.984 107.439C172.984 106.425 173.854 105.555 174.869 105.555C175.594 105.555 176.174 105.99 176.464 106.57V106.714C176.609 106.859 176.609 107.149 176.609 107.439C176.609 107.729 176.609 107.874 176.464 108.164C176.319 108.889 175.594 109.324 174.869 109.324ZM175.014 109.759C175.449 109.759 175.739 109.614 176.029 109.469L178.639 112.078C177.624 112.948 176.319 113.528 175.014 113.528V109.759ZM174.434 101.495V105.265C173.999 105.41 173.564 105.555 173.274 105.845L170.664 103.235C171.679 102.22 172.984 101.64 174.434 101.495ZM179.074 111.644L176.464 109.034C176.754 108.744 176.899 108.309 177.044 107.874H180.814C180.669 109.324 180.089 110.629 179.074 111.644Z" fill="white"/>
<path d="M216.629 123.241C225.358 123.241 232.434 116.166 232.434 107.439C232.434 98.712 225.358 91.6371 216.629 91.6371C207.9 91.6371 200.824 98.712 200.824 107.439C200.824 116.166 207.9 123.241 216.629 123.241Z" fill="#3B5266"/>
<path d="M205.899 107.439C205.899 103.235 208.219 99.7557 211.699 97.8711L211.119 97.0012C207.349 99.0308 204.739 102.945 204.739 107.439C204.739 111.933 207.349 115.848 211.119 117.877L211.699 117.007C208.219 115.268 205.899 111.643 205.899 107.439Z" fill="#76C1AA"/>
<path d="M221.994 97.0012L221.559 97.8711C225.039 99.6108 227.504 103.235 227.504 107.439C227.504 111.643 225.039 115.268 221.559 117.007L221.994 117.877C225.764 115.848 228.374 111.933 228.374 107.439C228.374 102.945 225.764 99.0308 221.994 97.0012Z" fill="#76C1AA"/>
<path opacity="0.3" d="M216.629 109.759C217.91 109.759 218.949 108.72 218.949 107.439C218.949 106.158 217.91 105.12 216.629 105.12C215.348 105.12 214.309 106.158 214.309 107.439C214.309 108.72 215.348 109.759 216.629 109.759Z" fill="white"/>
<path opacity="0.3" d="M217.934 105.7L220.544 103.09C219.529 102.075 218.224 101.495 216.629 101.495V105.265C217.209 105.265 217.644 105.41 217.934 105.7Z" fill="white"/>
<path opacity="0.3" d="M218.804 107.294H222.574C222.574 105.845 221.994 104.395 220.979 103.38L218.369 105.99C218.659 106.424 218.804 106.859 218.804 107.294Z" fill="white"/>
<path opacity="0.3" d="M218.224 109.034L220.834 111.643C221.849 110.629 222.429 109.324 222.429 107.874H218.659C218.659 108.309 218.514 108.744 218.224 109.034Z" fill="white"/>
<path opacity="0.3" d="M215.179 109.324L212.569 111.933C213.584 112.803 214.744 113.383 216.194 113.383V109.614C215.904 109.614 215.469 109.469 215.179 109.324Z" fill="white"/>
<path opacity="0.3" d="M216.774 109.759V113.528C218.224 113.528 219.529 112.948 220.399 112.078L217.789 109.469C217.499 109.614 217.209 109.759 216.774 109.759Z" fill="white"/>
<path opacity="0.3" d="M214.744 106.28L212.134 103.67C211.264 104.685 210.684 105.99 210.684 107.439H214.454C214.309 107.004 214.454 106.569 214.744 106.28Z" fill="white"/>
<path opacity="0.3" d="M214.309 107.874H210.539C210.684 109.324 211.264 110.484 212.134 111.498L214.744 108.889C214.599 108.599 214.454 108.309 214.309 107.874Z" fill="white"/>
<path opacity="0.3" d="M216.194 105.265V101.495C214.744 101.64 213.439 102.22 212.424 103.09L215.034 105.7C215.324 105.555 215.759 105.265 216.194 105.265Z" fill="white"/>
<path d="M216.629 100.626C216.194 100.626 215.614 100.626 215.179 100.771C211.989 101.351 209.669 104.105 209.669 107.439C209.669 111.209 212.714 114.253 216.484 114.253C218.369 114.253 220.109 113.528 221.269 112.223C222.574 110.919 223.299 109.324 223.299 107.439C223.444 103.67 220.399 100.626 216.629 100.626ZM218.804 107.294C218.804 106.859 218.659 106.425 218.369 105.99L220.979 103.38C221.849 104.395 222.429 105.7 222.574 107.294H218.804ZM212.569 111.933L215.179 109.324C215.469 109.469 215.759 109.614 216.194 109.759V113.528C214.744 113.383 213.584 112.803 212.569 111.933ZM217.934 105.7C217.644 105.41 217.209 105.265 216.629 105.265V101.495C218.079 101.495 219.529 102.075 220.544 103.09L217.934 105.7ZM214.309 107.294H210.539C210.539 105.845 211.119 104.54 211.989 103.525L214.599 106.135C214.454 106.569 214.309 107.004 214.309 107.294ZM214.309 107.874C214.454 108.309 214.599 108.599 214.744 108.889L212.134 111.499C211.264 110.484 210.684 109.324 210.539 107.874H214.309ZM216.629 109.324C215.614 109.324 214.744 108.454 214.744 107.439C214.744 106.425 215.614 105.555 216.629 105.555C217.354 105.555 217.934 105.99 218.224 106.57V106.714C218.369 106.859 218.369 107.149 218.369 107.439C218.369 107.729 218.369 107.874 218.224 108.164C218.079 108.889 217.354 109.324 216.629 109.324ZM216.774 109.759C217.209 109.759 217.499 109.614 217.789 109.469L220.399 112.078C219.384 112.948 218.079 113.528 216.774 113.528V109.759ZM216.194 101.495V105.265C215.759 105.41 215.324 105.555 215.034 105.845L212.424 103.235C213.439 102.22 214.744 101.64 216.194 101.495ZM220.834 111.644L218.224 109.034C218.514 108.744 218.659 108.309 218.804 107.874H222.574C222.429 109.324 221.849 110.629 220.834 111.644Z" fill="white"/>
<path d="M258.389 123.241C267.118 123.241 274.194 116.166 274.194 107.439C274.194 98.712 267.118 91.6371 258.389 91.6371C249.66 91.6371 242.584 98.712 242.584 107.439C242.584 116.166 249.66 123.241 258.389 123.241Z" fill="#3B5266"/>
<path d="M247.659 107.439C247.659 103.235 249.979 99.7557 253.459 97.8711L252.879 97.0012C249.109 99.0308 246.499 102.945 246.499 107.439C246.499 111.933 249.109 115.848 252.879 117.877L253.459 117.007C249.979 115.268 247.659 111.643 247.659 107.439Z" fill="#76C1AA"/>
<path d="M263.754 97.0012L263.319 97.8711C266.799 99.6108 269.264 103.235 269.264 107.439C269.264 111.643 266.799 115.268 263.319 117.007L263.754 117.877C267.524 115.848 270.134 111.933 270.134 107.439C270.134 102.945 267.524 99.0308 263.754 97.0012Z" fill="#76C1AA"/>
<path opacity="0.3" d="M258.389 109.759C259.67 109.759 260.709 108.72 260.709 107.439C260.709 106.158 259.67 105.12 258.389 105.12C257.108 105.12 256.069 106.158 256.069 107.439C256.069 108.72 257.108 109.759 258.389 109.759Z" fill="white"/>
<path opacity="0.3" d="M259.839 105.7L262.449 103.09C261.434 102.075 260.129 101.495 258.534 101.495V105.265C258.969 105.265 259.404 105.41 259.839 105.7Z" fill="white"/>
<path opacity="0.3" d="M260.564 107.294H264.334C264.334 105.845 263.754 104.395 262.739 103.38L260.129 105.99C260.419 106.424 260.564 106.859 260.564 107.294Z" fill="white"/>
<path opacity="0.3" d="M259.984 109.034L262.594 111.643C263.609 110.629 264.189 109.324 264.189 107.874H260.564C260.419 108.309 260.274 108.744 259.984 109.034Z" fill="white"/>
<path opacity="0.3" d="M256.939 109.324L254.329 111.933C255.344 112.803 256.504 113.383 257.954 113.383V109.614C257.664 109.614 257.229 109.469 256.939 109.324Z" fill="white"/>
<path opacity="0.3" d="M258.534 109.759V113.528C259.984 113.528 261.289 112.948 262.159 112.078L259.549 109.469C259.259 109.614 258.969 109.759 258.534 109.759Z" fill="white"/>
<path opacity="0.3" d="M256.504 106.28L253.894 103.67C253.024 104.685 252.444 105.99 252.444 107.439H256.214C256.069 107.004 256.214 106.569 256.504 106.28Z" fill="white"/>
<path opacity="0.3" d="M256.069 107.874H252.299C252.444 109.324 253.024 110.484 253.894 111.498L256.504 108.889C256.359 108.599 256.214 108.309 256.069 107.874Z" fill="white"/>
<path opacity="0.3" d="M257.954 105.265V101.495C256.504 101.64 255.199 102.22 254.184 103.09L256.794 105.7C257.084 105.555 257.519 105.265 257.954 105.265Z" fill="white"/>
<path d="M258.534 100.626C258.099 100.626 257.519 100.626 257.084 100.771C253.894 101.351 251.574 104.105 251.574 107.439C251.574 111.209 254.619 114.253 258.389 114.253C260.274 114.253 262.014 113.528 263.174 112.223C264.479 110.919 265.204 109.324 265.204 107.439C265.204 103.67 262.159 100.626 258.534 100.626ZM260.564 107.294C260.564 106.859 260.419 106.425 260.129 105.99L262.739 103.38C263.609 104.395 264.189 105.7 264.334 107.294H260.564ZM254.329 111.933L256.939 109.324C257.229 109.469 257.519 109.614 257.954 109.759V113.528C256.504 113.383 255.344 112.803 254.329 111.933ZM259.839 105.7C259.549 105.41 259.114 105.265 258.534 105.265V101.495C259.984 101.495 261.434 102.075 262.449 103.09L259.839 105.7ZM256.069 107.294H252.299C252.299 105.845 252.879 104.54 253.749 103.525L256.359 106.135C256.214 106.569 256.069 107.004 256.069 107.294ZM256.069 107.874C256.214 108.309 256.359 108.599 256.504 108.889L253.894 111.499C253.024 110.484 252.444 109.324 252.299 107.874H256.069ZM258.389 109.324C257.374 109.324 256.504 108.454 256.504 107.439C256.504 106.425 257.374 105.555 258.389 105.555C259.114 105.555 259.694 105.99 259.984 106.57V106.714C260.129 106.859 260.129 107.149 260.129 107.439C260.129 107.729 260.129 107.874 259.984 108.164C259.839 108.889 259.114 109.324 258.389 109.324ZM258.534 109.759C258.969 109.759 259.259 109.614 259.549 109.469L262.159 112.078C261.144 112.948 259.839 113.528 258.534 113.528V109.759ZM257.954 101.495V105.265C257.519 105.41 257.084 105.555 256.794 105.845L254.184 103.235C255.199 102.22 256.504 101.64 257.954 101.495ZM262.594 111.644L259.984 109.034C260.274 108.744 260.419 108.309 260.564 107.874H264.334C264.189 109.324 263.609 110.629 262.594 111.644Z" fill="white"/>
<path d="M362.788 123.241C371.517 123.241 378.593 116.166 378.593 107.439C378.593 98.712 371.517 91.6371 362.788 91.6371C354.059 91.6371 346.983 98.712 346.983 107.439C346.983 116.166 354.059 123.241 362.788 123.241Z" fill="#3B5266"/>
<path d="M352.058 107.439C352.058 103.235 354.378 99.7557 357.858 97.8711L357.278 97.0012C353.508 99.0308 350.898 102.945 350.898 107.439C350.898 111.933 353.508 115.848 357.278 117.877L357.858 117.007C354.378 115.268 352.058 111.643 352.058 107.439Z" fill="#76C1AA"/>
<path d="M368.298 97.0012L367.863 97.8711C371.343 99.6108 373.808 103.235 373.808 107.439C373.808 111.643 371.343 115.268 367.863 117.007L368.298 117.877C372.068 115.848 374.678 111.933 374.678 107.439C374.533 102.945 371.923 99.0308 368.298 97.0012Z" fill="#76C1AA"/>
<path opacity="0.3" d="M362.788 109.759C364.07 109.759 365.108 108.72 365.108 107.439C365.108 106.158 364.07 105.12 362.788 105.12C361.507 105.12 360.468 106.158 360.468 107.439C360.468 108.72 361.507 109.759 362.788 109.759Z" fill="white"/>
<path opacity="0.3" d="M364.238 105.7L366.848 103.09C365.833 102.075 364.528 101.495 362.933 101.495V105.265C363.368 105.265 363.803 105.41 364.238 105.7Z" fill="white"/>
<path opacity="0.3" d="M364.963 107.294H368.733C368.733 105.845 368.153 104.395 367.138 103.38L364.528 105.99C364.818 106.424 364.963 106.859 364.963 107.294Z" fill="white"/>
<path opacity="0.3" d="M364.383 109.034L366.993 111.643C368.008 110.629 368.588 109.324 368.588 107.874H364.963C364.818 108.309 364.673 108.744 364.383 109.034Z" fill="white"/>
<path opacity="0.3" d="M361.338 109.324L358.728 111.933C359.743 112.803 360.903 113.383 362.353 113.383V109.614C362.063 109.614 361.628 109.469 361.338 109.324Z" fill="white"/>
<path opacity="0.3" d="M362.933 109.759V113.528C364.383 113.528 365.688 112.948 366.558 112.078L363.948 109.469C363.658 109.614 363.368 109.759 362.933 109.759Z" fill="white"/>
<path opacity="0.3" d="M360.903 106.28L358.293 103.67C357.423 104.685 356.843 105.99 356.843 107.439H360.613C360.468 107.004 360.613 106.569 360.903 106.28Z" fill="white"/>
<path opacity="0.3" d="M360.468 107.874H356.698C356.843 109.324 357.423 110.484 358.293 111.498L360.903 108.889C360.758 108.599 360.613 108.309 360.468 107.874Z" fill="white"/>
<path opacity="0.3" d="M362.353 105.265V101.495C360.903 101.64 359.598 102.22 358.583 103.09L361.193 105.7C361.483 105.555 361.918 105.265 362.353 105.265Z" fill="white"/>
<path d="M362.933 100.626C362.498 100.626 361.918 100.626 361.483 100.771C358.293 101.351 355.973 104.105 355.973 107.439C355.973 111.209 359.018 114.253 362.788 114.253C364.673 114.253 366.413 113.528 367.573 112.223C368.878 110.919 369.603 109.324 369.603 107.439C369.603 103.67 366.558 100.626 362.933 100.626ZM364.963 107.294C364.963 106.859 364.818 106.425 364.528 105.99L367.138 103.38C368.008 104.395 368.588 105.7 368.733 107.294H364.963ZM358.728 111.933L361.338 109.324C361.628 109.469 361.918 109.614 362.353 109.759V113.528C361.048 113.383 359.743 112.803 358.728 111.933ZM364.238 105.7C363.948 105.41 363.513 105.265 362.933 105.265V101.495C364.383 101.495 365.833 102.075 366.848 103.09L364.238 105.7ZM360.468 107.294H356.698C356.698 105.845 357.278 104.54 358.148 103.525L360.758 106.135C360.613 106.569 360.468 107.004 360.468 107.294ZM360.468 107.874C360.613 108.309 360.758 108.599 360.903 108.889L358.293 111.499C357.423 110.484 356.843 109.324 356.698 107.874H360.468ZM362.788 109.324C361.773 109.324 360.903 108.454 360.903 107.439C360.903 106.425 361.773 105.555 362.788 105.555C363.513 105.555 364.093 105.99 364.383 106.57V106.714C364.528 106.859 364.528 107.149 364.528 107.439C364.528 107.729 364.528 107.874 364.383 108.164C364.238 108.889 363.513 109.324 362.788 109.324ZM362.933 109.759C363.368 109.759 363.658 109.614 363.948 109.469L366.558 112.078C365.543 112.948 364.238 113.528 362.933 113.528V109.759ZM362.353 101.495V105.265C361.918 105.41 361.483 105.555 361.193 105.845L358.583 103.235C359.598 102.22 360.903 101.64 362.353 101.495ZM366.993 111.644L364.383 109.034C364.673 108.744 364.818 108.309 364.963 107.874H368.733C368.588 109.324 368.008 110.629 366.993 111.644Z" fill="white"/>
<path d="M403.678 123.241C412.407 123.241 419.483 116.166 419.483 107.439C419.483 98.712 412.407 91.6371 403.678 91.6371C394.949 91.6371 387.873 98.712 387.873 107.439C387.873 116.166 394.949 123.241 403.678 123.241Z" fill="#3B5266"/>
<path d="M393.093 107.439C393.093 103.235 395.413 99.7557 398.893 97.8711L398.313 97.0012C394.543 99.0308 391.933 102.945 391.933 107.439C391.933 111.933 394.543 115.848 398.313 117.877L398.893 117.007C395.413 115.268 393.093 111.643 393.093 107.439Z" fill="#76C1AA"/>
<path d="M409.188 97.0012L408.753 97.8711C412.233 99.6108 414.698 103.235 414.698 107.439C414.698 111.643 412.233 115.268 408.753 117.007L409.188 117.877C412.958 115.848 415.568 111.933 415.568 107.439C415.568 102.945 412.958 99.0308 409.188 97.0012Z" fill="#76C1AA"/>
<path opacity="0.3" d="M403.678 109.759C404.96 109.759 405.998 108.72 405.998 107.439C405.998 106.158 404.96 105.12 403.678 105.12C402.397 105.12 401.358 106.158 401.358 107.439C401.358 108.72 402.397 109.759 403.678 109.759Z" fill="white"/>
<path opacity="0.3" d="M405.128 105.7L407.738 103.09C406.723 102.075 405.418 101.495 403.823 101.495V105.265C404.403 105.265 404.838 105.41 405.128 105.7Z" fill="white"/>
<path opacity="0.3" d="M405.998 107.294H409.768C409.768 105.845 409.188 104.395 408.173 103.38L405.563 105.99C405.708 106.424 405.998 106.859 405.998 107.294Z" fill="white"/>
<path opacity="0.3" d="M405.418 109.034L408.028 111.643C409.043 110.629 409.623 109.324 409.623 107.874H405.853C405.853 108.309 405.563 108.744 405.418 109.034Z" fill="white"/>
<path opacity="0.3" d="M402.373 109.324L399.763 111.933C400.778 112.803 401.938 113.383 403.388 113.383V109.614C402.953 109.614 402.663 109.469 402.373 109.324Z" fill="white"/>
<path opacity="0.3" d="M403.823 109.759V113.528C405.273 113.528 406.578 112.948 407.448 112.078L404.838 109.469C404.548 109.614 404.258 109.759 403.823 109.759Z" fill="white"/>
<path opacity="0.3" d="M401.793 106.28L399.183 103.67C398.313 104.685 397.733 105.99 397.733 107.439H401.503C401.503 107.004 401.648 106.569 401.793 106.28Z" fill="white"/>
<path opacity="0.3" d="M401.503 107.874H397.733C397.878 109.324 398.458 110.484 399.328 111.498L401.938 108.889C401.648 108.599 401.503 108.309 401.503 107.874Z" fill="white"/>
<path opacity="0.3" d="M403.243 105.265V101.495C401.793 101.64 400.488 102.22 399.473 103.09L402.083 105.7C402.518 105.555 402.808 105.265 403.243 105.265Z" fill="white"/>
<path d="M403.823 100.626C403.388 100.626 402.808 100.626 402.373 100.771C399.183 101.351 396.863 104.105 396.863 107.439C396.863 111.209 399.908 114.253 403.678 114.253C405.563 114.253 407.303 113.528 408.463 112.223C409.768 110.919 410.493 109.324 410.493 107.439C410.638 103.67 407.593 100.626 403.823 100.626ZM405.998 107.294C405.998 106.859 405.853 106.425 405.563 105.99L408.173 103.38C409.043 104.395 409.623 105.7 409.768 107.294H405.998ZM399.763 111.933L402.373 109.324C402.663 109.469 402.953 109.614 403.388 109.759V113.528C401.938 113.383 400.633 112.803 399.763 111.933ZM405.128 105.7C404.838 105.41 404.403 105.265 403.823 105.265V101.495C405.273 101.495 406.723 102.075 407.738 103.09L405.128 105.7ZM401.503 107.294H397.733C397.733 105.845 398.313 104.54 399.183 103.525L401.793 106.135C401.648 106.569 401.503 107.004 401.503 107.294ZM401.503 107.874C401.648 108.309 401.793 108.599 401.938 108.889L399.328 111.499C398.458 110.484 397.878 109.324 397.733 107.874H401.503ZM403.678 109.324C402.663 109.324 401.793 108.454 401.793 107.439C401.793 106.425 402.663 105.555 403.678 105.555C404.403 105.555 404.983 105.99 405.273 106.57V106.714C405.418 106.859 405.418 107.149 405.418 107.439C405.418 107.729 405.418 107.874 405.273 108.164C405.128 108.889 404.548 109.324 403.678 109.324ZM403.823 109.759C404.258 109.759 404.548 109.614 404.838 109.469L407.448 112.078C406.433 112.948 405.128 113.528 403.823 113.528V109.759ZM403.243 101.495V105.265C402.808 105.41 402.373 105.555 402.083 105.845L399.473 103.235C400.488 102.22 401.793 101.64 403.243 101.495ZM408.028 111.644L405.418 109.034C405.708 108.744 405.853 108.309 405.998 107.874H409.768C409.478 109.324 408.898 110.629 408.028 111.644Z" fill="white"/>
<path d="M444.713 123.241C453.442 123.241 460.518 116.166 460.518 107.439C460.518 98.712 453.442 91.6371 444.713 91.6371C435.984 91.6371 428.908 98.712 428.908 107.439C428.908 116.166 435.984 123.241 444.713 123.241Z" fill="#3B5266"/>
<path d="M433.983 107.439C433.983 103.235 436.303 99.7557 439.783 97.8711L439.203 97.0012C435.433 99.0308 432.823 102.945 432.823 107.439C432.823 111.933 435.433 115.848 439.203 117.877L439.783 117.007C436.303 115.268 433.983 111.643 433.983 107.439Z" fill="#76C1AA"/>
<path d="M450.078 97.0012L449.643 97.8711C453.123 99.6108 455.588 103.235 455.588 107.439C455.588 111.643 453.123 115.268 449.643 117.007L450.078 117.877C453.848 115.848 456.458 111.933 456.458 107.439C456.458 102.945 453.848 99.0308 450.078 97.0012Z" fill="#76C1AA"/>
<path opacity="0.3" d="M444.713 109.759C445.994 109.759 447.033 108.72 447.033 107.439C447.033 106.158 445.994 105.12 444.713 105.12C443.432 105.12 442.393 106.158 442.393 107.439C442.393 108.72 443.432 109.759 444.713 109.759Z" fill="white"/>
<path opacity="0.3" d="M446.018 105.7L448.628 103.09C447.613 102.075 446.308 101.495 444.713 101.495V105.265C445.293 105.265 445.728 105.41 446.018 105.7Z" fill="white"/>
<path opacity="0.3" d="M446.888 107.294H450.658C450.658 105.845 450.078 104.395 449.063 103.38L446.453 105.99C446.743 106.424 446.888 106.859 446.888 107.294Z" fill="white"/>
<path opacity="0.3" d="M446.308 109.034L448.918 111.643C449.933 110.629 450.513 109.324 450.513 107.874H446.743C446.743 108.309 446.598 108.744 446.308 109.034Z" fill="white"/>
<path opacity="0.3" d="M443.263 109.324L440.653 111.933C441.668 112.803 442.828 113.383 444.278 113.383V109.614C443.843 109.614 443.553 109.469 443.263 109.324Z" fill="white"/>
<path opacity="0.3" d="M444.858 109.759V113.528C446.308 113.528 447.613 112.948 448.483 112.078L445.873 109.469C445.583 109.614 445.148 109.759 444.858 109.759Z" fill="white"/>
<path opacity="0.3" d="M442.683 106.28L440.073 103.67C439.203 104.685 438.623 105.99 438.623 107.439H442.393C442.393 107.004 442.538 106.569 442.683 106.28Z" fill="white"/>
<path opacity="0.3" d="M442.393 107.874H438.623C438.768 109.324 439.348 110.484 440.218 111.498L442.828 108.889C442.683 108.599 442.538 108.309 442.393 107.874Z" fill="white"/>
<path opacity="0.3" d="M444.278 105.265V101.495C442.828 101.64 441.523 102.22 440.508 103.09L443.118 105.7C443.408 105.555 443.843 105.265 444.278 105.265Z" fill="white"/>
<path d="M444.713 100.626C444.278 100.626 443.698 100.626 443.263 100.771C440.073 101.351 437.753 104.105 437.753 107.439C437.753 111.209 440.798 114.253 444.568 114.253C446.453 114.253 448.193 113.528 449.353 112.223C450.658 110.919 451.383 109.324 451.383 107.439C451.528 103.67 448.483 100.626 444.713 100.626ZM446.888 107.294C446.888 106.859 446.743 106.425 446.453 105.99L449.063 103.38C449.933 104.395 450.513 105.7 450.658 107.294H446.888ZM440.653 111.933L443.263 109.324C443.553 109.469 443.843 109.614 444.278 109.759V113.528C442.828 113.383 441.668 112.803 440.653 111.933ZM446.018 105.7C445.728 105.41 445.293 105.265 444.713 105.265V101.495C446.163 101.495 447.613 102.075 448.628 103.09L446.018 105.7ZM442.393 107.294H438.623C438.623 105.845 439.203 104.54 440.073 103.525L442.683 106.135C442.538 106.569 442.393 107.004 442.393 107.294ZM442.393 107.874C442.538 108.309 442.683 108.599 442.828 108.889L440.218 111.499C439.348 110.484 438.768 109.324 438.623 107.874H442.393ZM444.713 109.324C443.698 109.324 442.828 108.454 442.828 107.439C442.828 106.425 443.698 105.555 444.713 105.555C445.438 105.555 446.018 105.99 446.308 106.57V106.714C446.453 106.859 446.453 107.149 446.453 107.439C446.453 107.729 446.453 107.874 446.308 108.164C446.163 108.889 445.438 109.324 444.713 109.324ZM444.858 109.759C445.293 109.759 445.583 109.614 445.873 109.469L448.483 112.078C447.468 112.948 446.163 113.528 444.858 113.528V109.759ZM444.278 101.495V105.265C443.843 105.41 443.408 105.555 443.118 105.845L440.508 103.235C441.523 102.22 442.828 101.64 444.278 101.495ZM448.918 111.644L446.308 109.034C446.598 108.744 446.743 108.309 446.888 107.874H450.658C450.513 109.324 449.933 110.629 448.918 111.644Z" fill="white"/>
<path d="M485.603 123.241C494.332 123.241 501.408 116.166 501.408 107.439C501.408 98.712 494.332 91.6371 485.603 91.6371C476.874 91.6371 469.798 98.712 469.798 107.439C469.798 116.166 476.874 123.241 485.603 123.241Z" fill="#3B5266"/>
<path d="M474.873 107.439C474.873 103.235 477.193 99.7557 480.673 97.8711L480.093 97.0012C476.323 99.0308 473.713 102.945 473.713 107.439C473.713 111.933 476.323 115.848 480.093 117.877L480.673 117.007C477.193 115.268 474.873 111.643 474.873 107.439Z" fill="#76C1AA"/>
<path d="M491.113 97.0012L490.678 97.8711C494.158 99.6108 496.623 103.235 496.623 107.439C496.623 111.643 494.158 115.268 490.678 117.007L491.113 117.877C494.883 115.848 497.493 111.933 497.493 107.439C497.348 102.945 494.883 99.0308 491.113 97.0012Z" fill="#76C1AA"/>
<path opacity="0.3" d="M485.603 109.759C486.884 109.759 487.923 108.72 487.923 107.439C487.923 106.158 486.884 105.12 485.603 105.12C484.321 105.12 483.283 106.158 483.283 107.439C483.283 108.72 484.321 109.759 485.603 109.759Z" fill="white"/>
<path opacity="0.3" d="M487.053 105.7L489.663 103.09C488.648 102.075 487.343 101.495 485.748 101.495V105.265C486.183 105.265 486.618 105.41 487.053 105.7Z" fill="white"/>
<path opacity="0.3" d="M487.778 107.294H491.548C491.548 105.845 490.968 104.395 489.953 103.38L487.343 105.99C487.633 106.424 487.778 106.859 487.778 107.294Z" fill="white"/>
<path opacity="0.3" d="M487.198 109.034L489.808 111.643C490.823 110.629 491.403 109.324 491.403 107.874H487.633C487.778 108.309 487.488 108.744 487.198 109.034Z" fill="white"/>
<path opacity="0.3" d="M484.297 109.324L481.688 111.933C482.702 112.803 483.862 113.383 485.312 113.383V109.614C484.877 109.614 484.442 109.469 484.297 109.324Z" fill="white"/>
<path opacity="0.3" d="M485.748 109.759V113.528C487.198 113.528 488.503 112.948 489.373 112.078L486.763 109.469C486.473 109.614 486.183 109.759 485.748 109.759Z" fill="white"/>
<path opacity="0.3" d="M483.718 106.28L481.108 103.67C480.238 104.685 479.658 105.99 479.658 107.439H483.428C483.283 107.004 483.428 106.569 483.718 106.28Z" fill="white"/>
<path opacity="0.3" d="M483.428 107.874H479.658C479.803 109.324 480.383 110.484 481.253 111.498L483.863 108.889C483.573 108.599 483.428 108.309 483.428 107.874Z" fill="white"/>
<path opacity="0.3" d="M485.167 105.265V101.495C483.717 101.64 482.412 102.22 481.397 103.09L484.007 105.7C484.297 105.555 484.732 105.265 485.167 105.265Z" fill="white"/>
<path d="M485.748 100.626C485.313 100.626 484.733 100.626 484.298 100.771C481.108 101.351 478.788 104.105 478.788 107.439C478.788 111.209 481.833 114.253 485.603 114.253C487.488 114.253 489.228 113.528 490.388 112.223C491.693 110.919 492.418 109.324 492.418 107.439C492.563 103.67 489.518 100.626 485.748 100.626ZM487.778 107.294C487.778 106.859 487.633 106.425 487.343 105.99L489.953 103.38C490.823 104.395 491.403 105.7 491.548 107.294H487.778ZM481.543 111.933L484.153 109.324C484.443 109.469 484.733 109.614 485.168 109.759V113.528C483.863 113.383 482.558 112.803 481.543 111.933ZM487.053 105.7C486.763 105.41 486.328 105.265 485.748 105.265V101.495C487.198 101.495 488.648 102.075 489.663 103.09L487.053 105.7ZM483.283 107.294H479.513C479.513 105.845 480.093 104.54 480.963 103.525L483.573 106.135C483.428 106.569 483.283 107.004 483.283 107.294ZM483.428 107.874C483.573 108.309 483.718 108.599 483.863 108.889L481.253 111.499C480.383 110.484 479.803 109.324 479.658 107.874H483.428ZM485.603 109.324C484.588 109.324 483.718 108.454 483.718 107.439C483.718 106.425 484.588 105.555 485.603 105.555C486.328 105.555 486.908 105.99 487.198 106.57V106.714C487.343 106.859 487.343 107.149 487.343 107.439C487.343 107.729 487.343 107.874 487.198 108.164C487.053 108.889 486.328 109.324 485.603 109.324ZM485.748 109.759C486.183 109.759 486.473 109.614 486.763 109.469L489.373 112.078C488.358 112.948 487.053 113.528 485.748 113.528V109.759ZM485.168 101.495V105.265C484.733 105.41 484.298 105.555 484.008 105.845L481.398 103.235C482.413 102.22 483.718 101.64 485.168 101.495ZM489.808 111.644L487.198 109.034C487.488 108.744 487.633 108.309 487.778 107.874H491.548C491.403 109.324 490.823 110.629 489.808 111.644Z" fill="white"/>
<path d="M526.637 123.241C535.366 123.241 542.442 116.166 542.442 107.439C542.442 98.712 535.366 91.6371 526.637 91.6371C517.909 91.6371 510.833 98.712 510.833 107.439C510.833 116.166 517.909 123.241 526.637 123.241Z" fill="#3B5266"/>
<path d="M515.908 107.439C515.908 103.235 518.228 99.7557 521.708 97.8711L521.128 97.0012C517.358 99.0308 514.748 102.945 514.748 107.439C514.748 111.933 517.358 115.848 521.128 117.877L521.708 117.007C518.228 115.268 515.908 111.643 515.908 107.439Z" fill="#76C1AA"/>
<path d="M532.002 97.0012L531.567 97.8711C535.047 99.6108 537.512 103.235 537.512 107.439C537.512 111.643 535.047 115.268 531.567 117.007L532.002 117.877C535.772 115.848 538.382 111.933 538.382 107.439C538.382 102.945 535.772 99.0308 532.002 97.0012Z" fill="#76C1AA"/>
<path opacity="0.3" d="M526.637 109.759C527.919 109.759 528.957 108.72 528.957 107.439C528.957 106.158 527.919 105.12 526.637 105.12C525.356 105.12 524.317 106.158 524.317 107.439C524.317 108.72 525.356 109.759 526.637 109.759Z" fill="white"/>
<path opacity="0.3" d="M527.942 105.7L530.552 103.09C529.537 102.075 528.232 101.495 526.637 101.495V105.265C527.217 105.265 527.652 105.41 527.942 105.7Z" fill="white"/>
<path opacity="0.3" d="M528.812 107.294H532.582C532.582 105.845 532.002 104.395 530.987 103.38L528.377 105.99C528.667 106.424 528.812 106.859 528.812 107.294Z" fill="white"/>
<path opacity="0.3" d="M528.232 109.034L530.842 111.643C531.857 110.629 532.437 109.324 532.437 107.874H528.812C528.667 108.309 528.522 108.744 528.232 109.034Z" fill="white"/>
<path opacity="0.3" d="M525.187 109.324L522.577 111.933C523.592 112.803 524.752 113.383 526.202 113.383V109.614C525.767 109.614 525.477 109.469 525.187 109.324Z" fill="white"/>
<path opacity="0.3" d="M526.637 109.759V113.528C528.087 113.528 529.392 112.948 530.262 112.078L527.652 109.469C527.507 109.614 527.072 109.759 526.637 109.759Z" fill="white"/>
<path opacity="0.3" d="M524.607 106.28L521.997 103.67C521.127 104.685 520.547 105.99 520.547 107.439H524.317C524.317 107.004 524.462 106.569 524.607 106.28Z" fill="white"/>
<path opacity="0.3" d="M524.317 107.874H520.547C520.692 109.324 521.272 110.484 522.142 111.498L524.753 108.889C524.607 108.599 524.317 108.309 524.317 107.874Z" fill="white"/>
<path opacity="0.3" d="M526.203 105.265V101.495C524.753 101.64 523.448 102.22 522.433 103.09L525.043 105.7C525.333 105.555 525.768 105.265 526.203 105.265Z" fill="white"/>
<path d="M526.637 100.626C526.202 100.626 525.622 100.626 525.187 100.771C521.997 101.351 519.677 104.105 519.677 107.439C519.677 111.209 522.722 114.253 526.492 114.253C528.377 114.253 530.117 113.528 531.277 112.223C532.582 110.919 533.307 109.324 533.307 107.439C533.452 103.67 530.407 100.626 526.637 100.626ZM528.812 107.294C528.812 106.859 528.667 106.425 528.377 105.99L530.987 103.38C531.857 104.395 532.437 105.7 532.582 107.294H528.812ZM522.577 111.933L525.187 109.324C525.477 109.469 525.767 109.614 526.202 109.759V113.528C524.752 113.383 523.447 112.803 522.577 111.933ZM527.942 105.7C527.652 105.41 527.217 105.265 526.637 105.265V101.495C528.087 101.495 529.537 102.075 530.552 103.09L527.942 105.7ZM524.317 107.294H520.547C520.547 105.845 521.127 104.54 521.997 103.525L524.607 106.135C524.462 106.569 524.317 107.004 524.317 107.294ZM524.317 107.874C524.462 108.309 524.607 108.599 524.752 108.889L522.142 111.499C521.272 110.484 520.692 109.324 520.547 107.874H524.317ZM526.637 109.324C525.622 109.324 524.752 108.454 524.752 107.439C524.752 106.425 525.622 105.555 526.637 105.555C527.362 105.555 527.942 105.99 528.232 106.57V106.714C528.377 106.859 528.377 107.149 528.377 107.439C528.377 107.729 528.377 107.874 528.232 108.164C527.942 108.889 527.362 109.324 526.637 109.324ZM526.637 109.759C527.072 109.759 527.362 109.614 527.652 109.469L530.262 112.078C529.247 112.948 527.942 113.528 526.637 113.528V109.759ZM526.202 101.495V105.265C525.767 105.41 525.332 105.555 525.042 105.845L522.432 103.235C523.302 102.22 524.607 101.64 526.202 101.495ZM530.842 111.644L528.232 109.034C528.522 108.744 528.667 108.309 528.812 107.874H532.582C532.437 109.324 531.712 110.629 530.842 111.644Z" fill="white"/>
<path d="M567.528 123.241C576.256 123.241 583.333 116.166 583.333 107.439C583.333 98.712 576.256 91.6371 567.528 91.6371C558.799 91.6371 551.723 98.712 551.723 107.439C551.723 116.166 558.799 123.241 567.528 123.241Z" fill="#3B5266"/>
<path d="M556.798 107.439C556.798 103.235 559.118 99.7557 562.598 97.8711L562.018 97.0012C558.248 99.0308 555.638 102.945 555.638 107.439C555.638 111.933 558.248 115.848 562.018 117.877L562.598 117.007C559.118 115.268 556.798 111.643 556.798 107.439Z" fill="#76C1AA"/>
<path d="M572.893 97.0012L572.458 97.8711C575.938 99.6108 578.403 103.235 578.403 107.439C578.403 111.643 575.938 115.268 572.458 117.007L572.893 117.877C576.663 115.848 579.273 111.933 579.273 107.439C579.273 102.945 576.663 99.0308 572.893 97.0012Z" fill="#76C1AA"/>
<path opacity="0.3" d="M567.528 109.759C568.809 109.759 569.847 108.72 569.847 107.439C569.847 106.158 568.809 105.12 567.528 105.12C566.246 105.12 565.208 106.158 565.208 107.439C565.208 108.72 566.246 109.759 567.528 109.759Z" fill="white"/>
<path opacity="0.3" d="M568.833 105.7L571.443 103.09C570.428 102.075 569.123 101.495 567.528 101.495V105.265C568.108 105.265 568.543 105.41 568.833 105.7Z" fill="white"/>
<path opacity="0.3" d="M569.703 107.294H573.473C573.473 105.845 572.893 104.395 571.878 103.38L569.268 105.99C569.558 106.424 569.703 106.859 569.703 107.294Z" fill="white"/>
<path opacity="0.3" d="M569.123 109.034L571.733 111.643C572.748 110.629 573.328 109.324 573.328 107.874H569.558C569.558 108.309 569.413 108.744 569.123 109.034Z" fill="white"/>
<path opacity="0.3" d="M566.078 109.324L563.468 111.933C564.483 112.803 565.643 113.383 567.093 113.383V109.614C566.658 109.614 566.368 109.469 566.078 109.324Z" fill="white"/>
<path opacity="0.3" d="M567.673 109.759V113.528C569.123 113.528 570.428 112.948 571.298 112.078L568.688 109.469C568.398 109.614 567.963 109.759 567.673 109.759Z" fill="white"/>
<path opacity="0.3" d="M565.498 106.28L562.888 103.67C562.018 104.685 561.438 105.99 561.438 107.439H565.208C565.208 107.004 565.353 106.569 565.498 106.28Z" fill="white"/>
<path opacity="0.3" d="M565.208 107.874H561.438C561.583 109.324 562.163 110.484 563.033 111.498L565.643 108.889C565.498 108.599 565.353 108.309 565.208 107.874Z" fill="white"/>
<path opacity="0.3" d="M567.093 105.265V101.495C565.643 101.64 564.338 102.22 563.323 103.09L565.933 105.7C566.223 105.555 566.658 105.265 567.093 105.265Z" fill="white"/>
<path d="M567.528 100.626C567.093 100.626 566.513 100.626 566.078 100.771C562.888 101.351 560.568 104.105 560.568 107.439C560.568 111.209 563.613 114.253 567.383 114.253C569.268 114.253 571.008 113.528 572.168 112.223C573.473 110.919 574.198 109.324 574.198 107.439C574.343 103.67 571.298 100.626 567.528 100.626ZM569.703 107.294C569.703 106.859 569.558 106.425 569.268 105.99L571.878 103.38C572.748 104.395 573.328 105.7 573.473 107.294H569.703ZM563.468 111.933L566.078 109.324C566.368 109.469 566.658 109.614 567.093 109.759V113.528C565.643 113.383 564.483 112.803 563.468 111.933ZM568.833 105.7C568.543 105.41 568.108 105.265 567.528 105.265V101.495C568.978 101.495 570.428 102.075 571.443 103.09L568.833 105.7ZM565.208 107.294H561.438C561.438 105.845 562.018 104.54 562.888 103.525L565.498 106.135C565.353 106.569 565.208 107.004 565.208 107.294ZM565.208 107.874C565.353 108.309 565.498 108.599 565.643 108.889L563.033 111.499C562.163 110.484 561.583 109.324 561.438 107.874H565.208ZM567.528 109.324C566.513 109.324 565.643 108.454 565.643 107.439C565.643 106.425 566.513 105.555 567.528 105.555C568.253 105.555 568.833 105.99 569.123 106.57V106.714C569.268 106.859 569.268 107.149 569.268 107.439C569.268 107.729 569.268 107.874 569.123 108.164C568.978 108.889 568.253 109.324 567.528 109.324ZM567.673 109.759C568.108 109.759 568.398 109.614 568.688 109.469L571.298 112.078C570.283 112.948 568.978 113.528 567.673 113.528V109.759ZM567.093 101.495V105.265C566.658 105.41 566.223 105.555 565.933 105.845L563.323 103.235C564.338 102.22 565.643 101.64 567.093 101.495ZM571.733 111.644L569.123 109.034C569.413 108.744 569.558 108.309 569.703 107.874H573.473C573.328 109.324 572.748 110.629 571.733 111.644Z" fill="white"/>
<path d="M608.417 123.241C617.146 123.241 624.222 116.166 624.222 107.439C624.222 98.712 617.146 91.6371 608.417 91.6371C599.688 91.6371 592.612 98.712 592.612 107.439C592.612 116.166 599.688 123.241 608.417 123.241Z" fill="#3B5266"/>
<path d="M597.687 107.439C597.687 103.235 600.007 99.7557 603.487 97.8711L602.907 97.0012C599.137 99.0308 596.527 102.945 596.527 107.439C596.527 111.933 599.137 115.848 602.907 117.877L603.487 117.007C600.152 115.268 597.687 111.643 597.687 107.439Z" fill="#76C1AA"/>
<path d="M613.927 97.0012L613.492 97.8711C616.972 99.6108 619.437 103.235 619.437 107.439C619.437 111.643 616.972 115.268 613.492 117.007L613.927 117.877C617.697 115.848 620.307 111.933 620.307 107.439C620.307 102.945 617.697 99.0308 613.927 97.0012Z" fill="#76C1AA"/>
<path opacity="0.3" d="M608.417 109.759C609.698 109.759 610.737 108.72 610.737 107.439C610.737 106.158 609.698 105.12 608.417 105.12C607.136 105.12 606.097 106.158 606.097 107.439C606.097 108.72 607.136 109.759 608.417 109.759Z" fill="white"/>
<path opacity="0.3" d="M609.868 105.7L612.478 103.09C611.463 102.075 610.158 101.495 608.562 101.495V105.265C608.998 105.265 609.433 105.41 609.868 105.7Z" fill="white"/>
<path opacity="0.3" d="M610.738 107.294H614.508C614.508 105.845 613.928 104.395 612.913 103.38L610.303 105.99C610.448 106.424 610.593 106.859 610.738 107.294Z" fill="white"/>
<path opacity="0.3" d="M610.013 109.034L612.623 111.643C613.638 110.629 614.218 109.324 614.218 107.874H610.448C610.593 108.309 610.303 108.744 610.013 109.034Z" fill="white"/>
<path opacity="0.3" d="M607.112 109.324L604.502 111.933C605.517 112.803 606.677 113.383 608.127 113.383V109.614C607.692 109.614 607.402 109.469 607.112 109.324Z" fill="white"/>
<path opacity="0.3" d="M608.562 109.759V113.528C610.013 113.528 611.318 112.948 612.188 112.078L609.578 109.469C609.288 109.614 608.998 109.759 608.562 109.759Z" fill="white"/>
<path opacity="0.3" d="M606.533 106.28L603.923 103.67C603.053 104.685 602.473 105.99 602.473 107.439H606.243C606.243 107.004 606.243 106.569 606.533 106.28Z" fill="white"/>
<path opacity="0.3" d="M606.243 107.874H602.473C602.618 109.324 603.198 110.484 604.068 111.498L606.678 108.889C606.388 108.599 606.243 108.309 606.243 107.874Z" fill="white"/>
<path opacity="0.3" d="M607.983 105.265V101.495C606.533 101.64 605.228 102.22 604.213 103.09L606.823 105.7C607.258 105.555 607.548 105.265 607.983 105.265Z" fill="white"/>
<path d="M608.562 100.626C608.127 100.626 607.547 100.626 607.112 100.771C603.923 101.351 601.603 104.105 601.603 107.439C601.603 111.209 604.647 114.253 608.417 114.253C610.302 114.253 612.042 113.528 613.202 112.223C614.507 110.919 615.232 109.324 615.232 107.439C615.377 103.67 612.332 100.626 608.562 100.626ZM610.737 107.294C610.737 106.859 610.592 106.425 610.302 105.99L612.912 103.38C613.782 104.395 614.362 105.7 614.507 107.294H610.737ZM604.503 111.933L607.112 109.324C607.402 109.469 607.692 109.614 608.127 109.759V113.528C606.678 113.383 605.373 112.803 604.503 111.933ZM609.868 105.7C609.578 105.41 609.142 105.265 608.562 105.265V101.495C610.012 101.495 611.462 102.075 612.477 103.09L609.868 105.7ZM606.097 107.294H602.328C602.328 105.845 602.908 104.54 603.778 103.525L606.387 106.135C606.242 106.569 606.242 107.004 606.097 107.294ZM606.242 107.874C606.387 108.309 606.533 108.599 606.678 108.889L604.067 111.499C603.198 110.484 602.617 109.324 602.472 107.874H606.242ZM608.417 109.324C607.402 109.324 606.532 108.454 606.532 107.439C606.532 106.425 607.402 105.555 608.417 105.555C609.142 105.555 609.722 105.99 610.012 106.57V106.714C610.157 106.859 610.157 107.149 610.157 107.439C610.157 107.729 610.157 107.874 610.012 108.164C609.867 108.889 609.287 109.324 608.417 109.324ZM608.562 109.759C608.997 109.759 609.287 109.614 609.577 109.469L612.187 112.078C611.172 112.948 609.867 113.528 608.562 113.528V109.759ZM607.982 101.495V105.265C607.547 105.41 607.112 105.555 606.822 105.845L604.213 103.235C605.227 102.22 606.532 101.64 607.982 101.495ZM612.767 111.644L610.157 109.034C610.447 108.744 610.592 108.309 610.737 107.874H614.507C614.217 109.324 613.637 110.629 612.767 111.644Z" fill="white"/>
<path d="M649.452 123.241C658.181 123.241 665.257 116.166 665.257 107.439C665.257 98.712 658.181 91.6371 649.452 91.6371C640.723 91.6371 633.647 98.712 633.647 107.439C633.647 116.166 640.723 123.241 649.452 123.241Z" fill="#3B5266"/>
<path d="M638.722 107.439C638.722 103.235 641.042 99.7557 644.522 97.8711L643.942 97.0012C640.172 99.0308 637.562 102.945 637.562 107.439C637.562 111.933 640.172 115.848 643.942 117.877L644.522 117.007C641.042 115.268 638.722 111.643 638.722 107.439Z" fill="#76C1AA"/>
<path d="M654.817 97.0012L654.382 97.8711C657.862 99.6108 660.327 103.235 660.327 107.439C660.327 111.643 657.862 115.268 654.382 117.007L654.817 117.877C658.587 115.848 661.197 111.933 661.197 107.439C661.197 102.945 658.587 99.0308 654.817 97.0012Z" fill="#76C1AA"/>
<path opacity="0.3" d="M649.452 109.759C650.733 109.759 651.772 108.72 651.772 107.439C651.772 106.158 650.733 105.12 649.452 105.12C648.171 105.12 647.132 106.158 647.132 107.439C647.132 108.72 648.171 109.759 649.452 109.759Z" fill="white"/>
<path opacity="0.3" d="M650.757 105.7L653.367 103.09C652.352 102.075 651.047 101.495 649.452 101.495V105.265C650.032 105.265 650.467 105.41 650.757 105.7Z" fill="white"/>
<path opacity="0.3" d="M651.627 107.294H655.397C655.397 105.845 654.817 104.395 653.802 103.38L651.192 105.99C651.482 106.424 651.627 106.859 651.627 107.294Z" fill="white"/>
<path opacity="0.3" d="M651.047 109.034L653.657 111.643C654.672 110.629 655.252 109.324 655.252 107.874H651.482C651.482 108.309 651.337 108.744 651.047 109.034Z" fill="white"/>
<path opacity="0.3" d="M648.002 109.324L645.392 111.933C646.407 112.803 647.567 113.383 649.017 113.383V109.614C648.582 109.614 648.292 109.469 648.002 109.324Z" fill="white"/>
<path opacity="0.3" d="M649.597 109.759V113.528C651.047 113.528 652.352 112.948 653.222 112.078L650.612 109.469C650.322 109.614 649.887 109.759 649.597 109.759Z" fill="white"/>
<path opacity="0.3" d="M647.422 106.28L644.812 103.67C643.942 104.685 643.362 105.99 643.362 107.439H647.132C647.132 107.004 647.277 106.569 647.422 106.28Z" fill="white"/>
<path opacity="0.3" d="M647.132 107.874H643.362C643.507 109.324 644.087 110.484 644.957 111.498L647.567 108.889C647.422 108.599 647.277 108.309 647.132 107.874Z" fill="white"/>
<path opacity="0.3" d="M649.017 105.265V101.495C647.567 101.64 646.262 102.22 645.247 103.09L647.857 105.7C648.147 105.555 648.582 105.265 649.017 105.265Z" fill="white"/>
<path d="M649.452 100.626C649.017 100.626 648.437 100.626 648.002 100.771C644.812 101.351 642.492 104.105 642.492 107.439C642.492 111.209 645.537 114.253 649.307 114.253C651.192 114.253 652.932 113.528 654.092 112.223C655.397 110.919 656.122 109.324 656.122 107.439C656.267 103.67 653.222 100.626 649.452 100.626ZM651.627 107.294C651.627 106.859 651.482 106.425 651.192 105.99L653.802 103.38C654.672 104.395 655.252 105.7 655.397 107.294H651.627ZM645.392 111.933L648.002 109.324C648.292 109.469 648.582 109.614 649.017 109.759V113.528C647.567 113.383 646.407 112.803 645.392 111.933ZM650.757 105.7C650.467 105.41 650.032 105.265 649.452 105.265V101.495C650.902 101.495 652.352 102.075 653.367 103.09L650.757 105.7ZM647.132 107.294H643.362C643.362 105.845 643.942 104.54 644.812 103.525L647.422 106.135C647.277 106.569 647.132 107.004 647.132 107.294ZM647.132 107.874C647.277 108.309 647.422 108.599 647.567 108.889L644.957 111.499C644.087 110.484 643.507 109.324 643.362 107.874H647.132ZM649.452 109.324C648.437 109.324 647.567 108.454 647.567 107.439C647.567 106.425 648.437 105.555 649.452 105.555C650.177 105.555 650.757 105.99 651.047 106.57V106.714C651.192 106.859 651.192 107.149 651.192 107.439C651.192 107.729 651.192 107.874 651.047 108.164C650.757 108.889 650.177 109.324 649.452 109.324ZM649.597 109.759C650.032 109.759 650.322 109.614 650.612 109.469L653.222 112.078C652.207 112.948 650.902 113.528 649.597 113.528V109.759ZM649.017 101.495V105.265C648.582 105.41 648.147 105.555 647.857 105.845L645.247 103.235C646.117 102.22 647.567 101.64 649.017 101.495ZM653.657 111.644L651.047 109.034C651.337 108.744 651.482 108.309 651.627 107.874H655.397C655.252 109.324 654.672 110.629 653.657 111.644Z" fill="white"/>
<path d="M690.342 123.241C699.071 123.241 706.147 116.166 706.147 107.439C706.147 98.712 699.071 91.6371 690.342 91.6371C681.613 91.6371 674.537 98.712 674.537 107.439C674.537 116.166 681.613 123.241 690.342 123.241Z" fill="#3B5266"/>
<path d="M679.612 107.439C679.612 103.235 681.932 99.7557 685.412 97.8711L684.832 97.0012C681.062 99.0308 678.452 102.945 678.452 107.439C678.452 111.933 681.062 115.848 684.832 117.877L685.412 117.007C681.932 115.268 679.612 111.643 679.612 107.439Z" fill="#76C1AA"/>
<path d="M695.852 97.0012L695.417 97.8711C698.897 99.6108 701.362 103.235 701.362 107.439C701.362 111.643 698.897 115.268 695.417 117.007L695.852 117.877C699.622 115.848 702.232 111.933 702.232 107.439C702.087 102.945 699.622 99.0308 695.852 97.0012Z" fill="#76C1AA"/>
<path opacity="0.3" d="M690.342 109.759C691.623 109.759 692.662 108.72 692.662 107.439C692.662 106.158 691.623 105.12 690.342 105.12C689.061 105.12 688.022 106.158 688.022 107.439C688.022 108.72 689.061 109.759 690.342 109.759Z" fill="white"/>
<path opacity="0.3" d="M691.792 105.7L694.402 103.09C693.387 102.075 692.082 101.495 690.487 101.495V105.265C690.922 105.265 691.357 105.41 691.792 105.7Z" fill="white"/>
<path opacity="0.3" d="M692.517 107.294H696.287C696.287 105.845 695.707 104.395 694.692 103.38L692.082 105.99C692.372 106.424 692.517 106.859 692.517 107.294Z" fill="white"/>
<path opacity="0.3" d="M691.937 109.034L694.547 111.643C695.562 110.629 696.142 109.324 696.142 107.874H692.372C692.517 108.309 692.227 108.744 691.937 109.034Z" fill="white"/>
<path opacity="0.3" d="M688.892 109.324L686.282 111.933C687.297 112.803 688.457 113.383 689.907 113.383V109.614C689.617 109.614 689.182 109.469 688.892 109.324Z" fill="white"/>
<path opacity="0.3" d="M690.487 109.759V113.528C691.937 113.528 693.242 112.948 694.112 112.078L691.502 109.469C691.212 109.614 690.922 109.759 690.487 109.759Z" fill="white"/>
<path opacity="0.3" d="M688.457 106.28L685.847 103.67C684.977 104.685 684.397 105.99 684.397 107.439H688.167C688.022 107.004 688.167 106.569 688.457 106.28Z" fill="white"/>
<path opacity="0.3" d="M688.022 107.874H684.252C684.397 109.324 684.977 110.484 685.847 111.498L688.457 108.889C688.312 108.599 688.167 108.309 688.022 107.874Z" fill="white"/>
<path opacity="0.3" d="M689.907 105.265V101.495C688.457 101.64 687.152 102.22 686.137 103.09L688.747 105.7C689.037 105.555 689.472 105.265 689.907 105.265Z" fill="white"/>
<path d="M690.487 100.626C690.052 100.626 689.472 100.626 689.037 100.771C685.847 101.351 683.527 104.105 683.527 107.439C683.527 111.209 686.572 114.253 690.342 114.253C692.227 114.253 693.967 113.528 695.127 112.223C696.432 110.919 697.157 109.324 697.157 107.439C697.157 103.67 694.112 100.626 690.487 100.626ZM692.517 107.294C692.517 106.859 692.372 106.425 692.082 105.99L694.692 103.38C695.562 104.395 696.142 105.7 696.287 107.294H692.517ZM686.282 111.933L688.892 109.324C689.182 109.469 689.472 109.614 689.907 109.759V113.528C688.602 113.383 687.297 112.803 686.282 111.933ZM691.792 105.7C691.502 105.41 691.067 105.265 690.487 105.265V101.495C691.937 101.495 693.387 102.075 694.402 103.09L691.792 105.7ZM688.022 107.294H684.252C684.252 105.845 684.832 104.54 685.702 103.525L688.312 106.135C688.167 106.569 688.022 107.004 688.022 107.294ZM688.022 107.874C688.167 108.309 688.312 108.599 688.457 108.889L685.847 111.499C684.977 110.484 684.397 109.324 684.252 107.874H688.022ZM690.342 109.324C689.327 109.324 688.457 108.454 688.457 107.439C688.457 106.425 689.327 105.555 690.342 105.555C691.067 105.555 691.647 105.99 691.937 106.57V106.714C692.082 106.859 692.082 107.149 692.082 107.439C692.082 107.729 692.082 107.874 691.937 108.164C691.792 108.889 691.067 109.324 690.342 109.324ZM690.487 109.759C690.922 109.759 691.212 109.614 691.502 109.469L694.112 112.078C693.097 112.948 691.792 113.528 690.487 113.528V109.759ZM689.907 101.495V105.265C689.472 105.41 689.037 105.555 688.747 105.845L686.137 103.235C687.152 102.22 688.457 101.64 689.907 101.495ZM694.547 111.644L691.937 109.034C692.227 108.744 692.372 108.309 692.517 107.874H696.287C696.142 109.324 695.562 110.629 694.547 111.644Z" fill="white"/>
<path d="M731.232 123.241C739.96 123.241 747.037 116.166 747.037 107.439C747.037 98.712 739.96 91.6371 731.232 91.6371C722.503 91.6371 715.427 98.712 715.427 107.439C715.427 116.166 722.503 123.241 731.232 123.241Z" fill="#3B5266"/>
<path d="M720.647 107.439C720.647 103.235 722.967 99.7557 726.447 97.8711L725.867 97.0012C722.097 99.0308 719.487 102.945 719.487 107.439C719.487 111.933 722.097 115.848 725.867 117.877L726.447 117.007C722.967 115.268 720.647 111.643 720.647 107.439Z" fill="#76C1AA"/>
<path d="M736.742 97.0012L736.307 97.8711C739.787 99.6108 742.252 103.235 742.252 107.439C742.252 111.643 739.787 115.268 736.307 117.007L736.742 117.877C740.512 115.848 743.122 111.933 743.122 107.439C743.122 102.945 740.512 99.0308 736.742 97.0012Z" fill="#76C1AA"/>
<path opacity="0.3" d="M731.232 109.759C732.513 109.759 733.552 108.72 733.552 107.439C733.552 106.158 732.513 105.12 731.232 105.12C729.95 105.12 728.912 106.158 728.912 107.439C728.912 108.72 729.95 109.759 731.232 109.759Z" fill="white"/>
<path opacity="0.3" d="M732.682 105.7L735.292 103.09C734.277 102.075 732.972 101.495 731.377 101.495V105.265C731.957 105.265 732.392 105.41 732.682 105.7Z" fill="white"/>
<path opacity="0.3" d="M733.552 107.294H737.322C737.322 105.845 736.742 104.395 735.727 103.38L733.117 105.99C733.262 106.424 733.552 106.859 733.552 107.294Z" fill="white"/>
<path opacity="0.3" d="M732.972 109.034L735.582 111.643C736.597 110.629 737.177 109.324 737.177 107.874H733.407C733.407 108.309 733.117 108.744 732.972 109.034Z" fill="white"/>
<path opacity="0.3" d="M729.927 109.324L727.317 111.933C728.332 112.803 729.492 113.383 730.942 113.383V109.614C730.507 109.614 730.217 109.469 729.927 109.324Z" fill="white"/>
<path opacity="0.3" d="M731.377 109.759V113.528C732.827 113.528 734.132 112.948 735.002 112.078L732.392 109.469C732.102 109.614 731.812 109.759 731.377 109.759Z" fill="white"/>
<path opacity="0.3" d="M729.347 106.28L726.737 103.67C725.867 104.685 725.287 105.99 725.287 107.439H729.057C729.057 107.004 729.202 106.569 729.347 106.28Z" fill="white"/>
<path opacity="0.3" d="M729.057 107.874H725.287C725.432 109.324 726.012 110.484 726.882 111.498L729.492 108.889C729.202 108.599 729.057 108.309 729.057 107.874Z" fill="white"/>
<path opacity="0.3" d="M730.797 105.265V101.495C729.347 101.64 728.042 102.22 727.027 103.09L729.637 105.7C730.072 105.555 730.362 105.265 730.797 105.265Z" fill="white"/>
<path d="M731.377 100.626C730.942 100.626 730.362 100.626 729.927 100.771C726.737 101.351 724.417 104.105 724.417 107.439C724.417 111.209 727.462 114.253 731.232 114.253C733.117 114.253 734.857 113.528 736.017 112.223C737.322 110.919 738.047 109.324 738.047 107.439C738.192 103.67 735.147 100.626 731.377 100.626ZM733.552 107.294C733.552 106.859 733.407 106.425 733.117 105.99L735.727 103.38C736.597 104.395 737.177 105.7 737.322 107.294H733.552ZM727.317 111.933L729.927 109.324C730.217 109.469 730.507 109.614 730.942 109.759V113.528C729.492 113.383 728.187 112.803 727.317 111.933ZM732.682 105.7C732.392 105.41 731.957 105.265 731.377 105.265V101.495C732.827 101.495 734.277 102.075 735.292 103.09L732.682 105.7ZM729.057 107.294H725.287C725.287 105.845 725.867 104.54 726.737 103.525L729.347 106.135C729.202 106.569 729.057 107.004 729.057 107.294ZM729.057 107.874C729.202 108.309 729.347 108.599 729.492 108.889L726.882 111.499C726.012 110.484 725.432 109.324 725.287 107.874H729.057ZM731.232 109.324C730.217 109.324 729.347 108.454 729.347 107.439C729.347 106.425 730.217 105.555 731.232 105.555C731.957 105.555 732.537 105.99 732.827 106.57V106.714C732.972 106.859 732.972 107.149 732.972 107.439C732.972 107.729 732.972 107.874 732.827 108.164C732.682 108.889 732.102 109.324 731.232 109.324ZM731.377 109.759C731.812 109.759 732.102 109.614 732.392 109.469L735.002 112.078C733.987 112.948 732.682 113.528 731.377 113.528V109.759ZM730.797 101.495V105.265C730.362 105.41 729.927 105.555 729.637 105.845L727.027 103.235C728.042 102.22 729.347 101.64 730.797 101.495ZM735.582 111.644L732.972 109.034C733.262 108.744 733.407 108.309 733.552 107.874H737.322C737.032 109.324 736.452 110.629 735.582 111.644Z" fill="white"/>
<path d="M772.266 123.241C780.995 123.241 788.071 116.166 788.071 107.439C788.071 98.712 780.995 91.6371 772.266 91.6371C763.538 91.6371 756.461 98.712 756.461 107.439C756.461 116.166 763.538 123.241 772.266 123.241Z" fill="#3B5266"/>
<path d="M761.536 107.439C761.536 103.235 763.856 99.7557 767.336 97.8711L766.756 97.0012C762.986 99.0308 760.376 102.945 760.376 107.439C760.376 111.933 762.986 115.848 766.756 117.877L767.336 117.007C763.856 115.268 761.536 111.643 761.536 107.439Z" fill="#76C1AA"/>
<path d="M777.631 97.0012L777.196 97.8711C780.676 99.6108 783.141 103.235 783.141 107.439C783.141 111.643 780.676 115.268 777.196 117.007L777.631 117.877C781.401 115.848 784.011 111.933 784.011 107.439C784.011 102.945 781.401 99.0308 777.631 97.0012Z" fill="#76C1AA"/>
<path opacity="0.3" d="M772.266 109.759C773.548 109.759 774.586 108.72 774.586 107.439C774.586 106.158 773.548 105.12 772.266 105.12C770.985 105.12 769.946 106.158 769.946 107.439C769.946 108.72 770.985 109.759 772.266 109.759Z" fill="white"/>
<path opacity="0.3" d="M773.572 105.7L776.182 103.09C775.167 102.075 773.862 101.495 772.267 101.495V105.265C772.847 105.265 773.282 105.41 773.572 105.7Z" fill="white"/>
<path opacity="0.3" d="M774.442 107.294H778.212C778.212 105.845 777.632 104.395 776.617 103.38L774.007 105.99C774.297 106.424 774.442 106.859 774.442 107.294Z" fill="white"/>
<path opacity="0.3" d="M773.862 109.034L776.472 111.643C777.487 110.629 778.067 109.324 778.067 107.874H774.297C774.297 108.309 774.152 108.744 773.862 109.034Z" fill="white"/>
<path opacity="0.3" d="M770.817 109.324L768.207 111.933C769.222 112.803 770.382 113.383 771.832 113.383V109.614C771.397 109.614 771.107 109.469 770.817 109.324Z" fill="white"/>
<path opacity="0.3" d="M772.412 109.759V113.528C773.862 113.528 775.167 112.948 776.037 112.078L773.427 109.469C773.137 109.614 772.702 109.759 772.412 109.759Z" fill="white"/>
<path opacity="0.3" d="M770.237 106.28L767.627 103.67C766.757 104.685 766.177 105.99 766.177 107.439H769.947C769.947 107.004 770.092 106.569 770.237 106.28Z" fill="white"/>
<path opacity="0.3" d="M769.947 107.874H766.177C766.322 109.324 766.902 110.484 767.772 111.498L770.382 108.889C770.237 108.599 770.092 108.309 769.947 107.874Z" fill="white"/>
<path opacity="0.3" d="M771.831 105.265V101.495C770.381 101.64 769.077 102.22 768.062 103.09L770.672 105.7C770.962 105.555 771.396 105.265 771.831 105.265Z" fill="white"/>
<path d="M772.267 100.626C771.832 100.626 771.252 100.626 770.817 100.771C767.627 101.351 765.307 104.105 765.307 107.439C765.307 111.209 768.352 114.253 772.122 114.253C774.007 114.253 775.747 113.528 776.907 112.223C778.212 110.919 778.937 109.324 778.937 107.439C779.082 103.67 776.037 100.626 772.267 100.626ZM774.442 107.294C774.442 106.859 774.297 106.425 774.007 105.99L776.617 103.38C777.487 104.395 778.067 105.7 778.212 107.294H774.442ZM768.207 111.933L770.817 109.324C771.107 109.469 771.397 109.614 771.832 109.759V113.528C770.382 113.383 769.222 112.803 768.207 111.933ZM773.572 105.7C773.282 105.41 772.847 105.265 772.267 105.265V101.495C773.717 101.495 775.167 102.075 776.182 103.09L773.572 105.7ZM769.947 107.294H766.177C766.177 105.845 766.757 104.54 767.627 103.525L770.237 106.135C770.092 106.569 769.947 107.004 769.947 107.294ZM769.947 107.874C770.092 108.309 770.237 108.599 770.382 108.889L767.772 111.499C766.902 110.484 766.322 109.324 766.177 107.874H769.947ZM772.267 109.324C771.252 109.324 770.382 108.454 770.382 107.439C770.382 106.425 771.252 105.555 772.267 105.555C772.992 105.555 773.572 105.99 773.862 106.57V106.714C774.007 106.859 774.007 107.149 774.007 107.439C774.007 107.729 774.007 107.874 773.862 108.164C773.717 108.889 772.992 109.324 772.267 109.324ZM772.412 109.759C772.847 109.759 773.137 109.614 773.427 109.469L776.037 112.078C775.022 112.948 773.717 113.528 772.412 113.528V109.759ZM771.832 101.495V105.265C771.397 105.41 770.962 105.555 770.672 105.845L768.062 103.235C769.077 102.22 770.382 101.64 771.832 101.495ZM776.472 111.644L773.862 109.034C774.152 108.744 774.297 108.309 774.442 107.874H778.212C778.067 109.324 777.487 110.629 776.472 111.644Z" fill="white"/>
<path d="M813.156 123.241C821.885 123.241 828.961 116.166 828.961 107.439C828.961 98.712 821.885 91.6371 813.156 91.6371C804.428 91.6371 797.352 98.712 797.352 107.439C797.352 116.166 804.428 123.241 813.156 123.241Z" fill="#3B5266"/>
<path d="M802.427 107.439C802.427 103.235 804.747 99.7557 808.227 97.8711L807.647 97.0012C803.877 99.0308 801.267 102.945 801.267 107.439C801.267 111.933 803.877 115.848 807.647 117.877L808.227 117.007C804.892 115.268 802.427 111.643 802.427 107.439Z" fill="#76C1AA"/>
<path d="M818.667 97.0012L818.231 97.8711C821.711 99.6108 824.176 103.235 824.176 107.439C824.176 111.643 821.711 115.268 818.231 117.007L818.667 117.877C822.436 115.848 825.046 111.933 825.046 107.439C824.901 102.945 822.436 99.0308 818.667 97.0012Z" fill="#76C1AA"/>
<path opacity="0.3" d="M813.156 109.759C814.438 109.759 815.476 108.72 815.476 107.439C815.476 106.158 814.438 105.12 813.156 105.12C811.875 105.12 810.836 106.158 810.836 107.439C810.836 108.72 811.875 109.759 813.156 109.759Z" fill="white"/>
<path opacity="0.3" d="M814.607 105.7L817.217 103.09C816.202 102.075 814.897 101.495 813.302 101.495V105.265C813.737 105.265 814.172 105.41 814.607 105.7Z" fill="white"/>
<path opacity="0.3" d="M815.332 107.294H819.102C819.102 105.845 818.522 104.395 817.507 103.38L814.897 105.99C815.187 106.424 815.332 106.859 815.332 107.294Z" fill="white"/>
<path opacity="0.3" d="M814.752 109.034L817.362 111.643C818.377 110.629 818.957 109.324 818.957 107.874H815.187C815.332 108.309 815.042 108.744 814.752 109.034Z" fill="white"/>
<path opacity="0.3" d="M811.852 109.324L809.242 111.933C810.257 112.803 811.417 113.383 812.867 113.383V109.614C812.432 109.614 811.997 109.469 811.852 109.324Z" fill="white"/>
<path opacity="0.3" d="M813.302 109.759V113.528C814.752 113.528 816.057 112.948 816.927 112.078L814.317 109.469C814.027 109.614 813.737 109.759 813.302 109.759Z" fill="white"/>
<path opacity="0.3" d="M811.272 106.28L808.662 103.67C807.792 104.685 807.212 105.99 807.212 107.439H810.982C810.837 107.004 810.982 106.569 811.272 106.28Z" fill="white"/>
<path opacity="0.3" d="M810.982 107.874H807.212C807.357 109.324 807.937 110.484 808.807 111.498L811.417 108.889C811.127 108.599 810.982 108.309 810.982 107.874Z" fill="white"/>
<path opacity="0.3" d="M812.722 105.265V101.495C811.272 101.64 809.967 102.22 808.952 103.09L811.562 105.7C811.852 105.555 812.287 105.265 812.722 105.265Z" fill="white"/>
<path d="M813.302 100.626C812.867 100.626 812.287 100.626 811.852 100.771C808.662 101.351 806.342 104.105 806.342 107.439C806.342 111.209 809.387 114.253 813.157 114.253C815.042 114.253 816.782 113.528 817.942 112.223C819.247 110.919 819.972 109.324 819.972 107.439C820.117 103.67 817.072 100.626 813.302 100.626ZM815.332 107.294C815.332 106.859 815.187 106.425 814.897 105.99L817.507 103.38C818.377 104.395 818.957 105.7 819.102 107.294H815.332ZM809.097 111.933L811.707 109.324C811.997 109.469 812.287 109.614 812.722 109.759V113.528C811.417 113.383 810.112 112.803 809.097 111.933ZM814.607 105.7C814.317 105.41 813.882 105.265 813.302 105.265V101.495C814.752 101.495 816.202 102.075 817.217 103.09L814.607 105.7ZM810.837 107.294H807.212C807.212 105.845 807.792 104.54 808.662 103.525L811.272 106.135C810.982 106.569 810.837 107.004 810.837 107.294ZM810.982 107.874C811.127 108.309 811.272 108.599 811.417 108.889L808.807 111.499C807.937 110.484 807.357 109.324 807.212 107.874H810.982ZM813.157 109.324C812.142 109.324 811.272 108.454 811.272 107.439C811.272 106.425 812.142 105.555 813.157 105.555C813.882 105.555 814.462 105.99 814.752 106.57V106.714C814.897 106.859 814.897 107.149 814.897 107.439C814.897 107.729 814.897 107.874 814.752 108.164C814.607 108.889 813.882 109.324 813.157 109.324ZM813.302 109.759C813.737 109.759 814.027 109.614 814.317 109.469L816.927 112.078C815.912 112.948 814.607 113.528 813.302 113.528V109.759ZM812.722 101.495V105.265C812.287 105.41 811.852 105.555 811.562 105.845L808.952 103.235C809.967 102.22 811.272 101.64 812.722 101.495ZM817.362 111.644L814.752 109.034C815.042 108.744 815.187 108.309 815.332 107.874H819.102C818.957 109.324 818.377 110.629 817.362 111.644Z" fill="white"/>
<path d="M854.191 123.241C862.92 123.241 869.996 116.166 869.996 107.439C869.996 98.712 862.92 91.6371 854.191 91.6371C845.462 91.6371 838.386 98.712 838.386 107.439C838.386 116.166 845.462 123.241 854.191 123.241Z" fill="#3B5266"/>
<path d="M843.461 107.439C843.461 103.235 845.781 99.7557 849.261 97.8711L848.681 97.0012C844.911 99.0308 842.301 102.945 842.301 107.439C842.301 111.933 844.911 115.848 848.681 117.877L849.261 117.007C845.781 115.268 843.461 111.643 843.461 107.439Z" fill="#76C1AA"/>
<path d="M859.556 97.0012L859.121 97.8711C862.601 99.6108 865.066 103.235 865.066 107.439C865.066 111.643 862.601 115.268 859.121 117.007L859.556 117.877C863.326 115.848 865.936 111.933 865.936 107.439C865.936 102.945 863.326 99.0308 859.556 97.0012Z" fill="#76C1AA"/>
<path opacity="0.3" d="M854.191 109.759C855.472 109.759 856.511 108.72 856.511 107.439C856.511 106.158 855.472 105.12 854.191 105.12C852.91 105.12 851.871 106.158 851.871 107.439C851.871 108.72 852.91 109.759 854.191 109.759Z" fill="white"/>
<path opacity="0.3" d="M855.496 105.7L858.106 103.09C857.091 102.075 855.786 101.495 854.191 101.495V105.265C854.771 105.265 855.206 105.41 855.496 105.7Z" fill="white"/>
<path opacity="0.3" d="M856.367 107.294H860.137C860.137 105.845 859.557 104.395 858.542 103.38L855.932 105.99C856.222 106.424 856.367 106.859 856.367 107.294Z" fill="white"/>
<path opacity="0.3" d="M855.786 109.034L858.396 111.643C859.411 110.629 859.991 109.324 859.991 107.874H856.221C856.221 108.309 856.076 108.744 855.786 109.034Z" fill="white"/>
<path opacity="0.3" d="M852.741 109.324L850.131 111.933C851.146 112.803 852.306 113.383 853.756 113.383V109.614C853.321 109.614 853.031 109.469 852.741 109.324Z" fill="white"/>
<path opacity="0.3" d="M854.191 109.759V113.528C855.641 113.528 856.946 112.948 857.816 112.078L855.206 109.469C855.061 109.614 854.626 109.759 854.191 109.759Z" fill="white"/>
<path opacity="0.3" d="M852.161 106.28L849.552 103.67C848.682 104.685 848.102 105.99 848.102 107.439H851.871C851.871 107.004 852.016 106.569 852.161 106.28Z" fill="white"/>
<path opacity="0.3" d="M851.871 107.874H848.102C848.247 109.324 848.827 110.484 849.697 111.498L852.306 108.889C852.161 108.599 851.871 108.309 851.871 107.874Z" fill="white"/>
<path opacity="0.3" d="M853.756 105.265V101.495C852.306 101.64 851.001 102.22 849.986 103.09L852.596 105.7C852.886 105.555 853.321 105.265 853.756 105.265Z" fill="white"/>
<path d="M854.191 100.626C853.756 100.626 853.176 100.626 852.741 100.771C849.552 101.351 847.231 104.105 847.231 107.439C847.231 111.209 850.276 114.253 854.046 114.253C855.931 114.253 857.671 113.528 858.831 112.223C860.136 110.919 860.861 109.324 860.861 107.439C861.006 103.67 857.961 100.626 854.191 100.626ZM856.366 107.294C856.366 106.859 856.221 106.425 855.931 105.99L858.541 103.38C859.411 104.395 859.991 105.7 860.136 107.294H856.366ZM850.131 111.933L852.741 109.324C853.031 109.469 853.321 109.614 853.756 109.759V113.528C852.306 113.383 851.001 112.803 850.131 111.933ZM855.496 105.7C855.206 105.41 854.771 105.265 854.191 105.265V101.495C855.641 101.495 857.091 102.075 858.106 103.09L855.496 105.7ZM851.871 107.294H848.101C848.101 105.845 848.681 104.54 849.551 103.525L852.161 106.135C852.016 106.569 851.871 107.004 851.871 107.294ZM851.871 107.874C852.016 108.309 852.161 108.599 852.306 108.889L849.696 111.499C848.826 110.484 848.246 109.324 848.101 107.874H851.871ZM854.191 109.324C853.176 109.324 852.306 108.454 852.306 107.439C852.306 106.425 853.176 105.555 854.191 105.555C854.916 105.555 855.496 105.99 855.786 106.57V106.714C855.931 106.859 855.931 107.149 855.931 107.439C855.931 107.729 855.931 107.874 855.786 108.164C855.496 108.889 854.916 109.324 854.191 109.324ZM854.191 109.759C854.626 109.759 854.916 109.614 855.206 109.469L857.816 112.078C856.801 112.948 855.496 113.528 854.191 113.528V109.759ZM853.756 101.495V105.265C853.321 105.41 852.886 105.555 852.596 105.845L849.986 103.235C850.856 102.22 852.161 101.64 853.756 101.495ZM858.396 111.644L855.786 109.034C856.076 108.744 856.221 108.309 856.366 107.874H860.136C859.991 109.324 859.266 110.629 858.396 111.644Z" fill="white"/>
<path d="M895.081 123.241C903.81 123.241 910.886 116.166 910.886 107.439C910.886 98.712 903.81 91.6371 895.081 91.6371C886.352 91.6371 879.276 98.712 879.276 107.439C879.276 116.166 886.352 123.241 895.081 123.241Z" fill="#3B5266"/>
<path d="M884.351 107.439C884.351 103.235 886.671 99.7557 890.151 97.8711L889.571 97.0012C885.801 99.0308 883.191 102.945 883.191 107.439C883.191 111.933 885.801 115.848 889.571 117.877L890.151 117.007C886.671 115.268 884.351 111.643 884.351 107.439Z" fill="#76C1AA"/>
<path d="M900.446 97.0012L900.011 97.8711C903.491 99.6108 905.956 103.235 905.956 107.439C905.956 111.643 903.491 115.268 900.011 117.007L900.446 117.877C904.216 115.848 906.826 111.933 906.826 107.439C906.826 102.945 904.216 99.0308 900.446 97.0012Z" fill="#76C1AA"/>
<path opacity="0.3" d="M895.081 109.759C896.362 109.759 897.401 108.72 897.401 107.439C897.401 106.158 896.362 105.12 895.081 105.12C893.799 105.12 892.761 106.158 892.761 107.439C892.761 108.72 893.799 109.759 895.081 109.759Z" fill="white"/>
<path opacity="0.3" d="M896.386 105.7L898.996 103.09C897.981 102.075 896.676 101.495 895.081 101.495V105.265C895.661 105.265 896.096 105.41 896.386 105.7Z" fill="white"/>
<path opacity="0.3" d="M897.256 107.294H901.026C901.026 105.845 900.446 104.395 899.431 103.38L896.821 105.99C897.111 106.424 897.256 106.859 897.256 107.294Z" fill="white"/>
<path opacity="0.3" d="M896.676 109.034L899.286 111.643C900.301 110.629 900.881 109.324 900.881 107.874H897.111C897.111 108.309 896.966 108.744 896.676 109.034Z" fill="white"/>
<path opacity="0.3" d="M893.631 109.324L891.021 111.933C892.036 112.803 893.196 113.383 894.646 113.383V109.614C894.211 109.614 893.921 109.469 893.631 109.324Z" fill="white"/>
<path opacity="0.3" d="M895.226 109.759V113.528C896.676 113.528 897.981 112.948 898.851 112.078L896.241 109.469C895.951 109.614 895.516 109.759 895.226 109.759Z" fill="white"/>
<path opacity="0.3" d="M893.051 106.28L890.441 103.67C889.571 104.685 888.991 105.99 888.991 107.439H892.761C892.761 107.004 892.906 106.569 893.051 106.28Z" fill="white"/>
<path opacity="0.3" d="M892.761 107.874H888.991C889.136 109.324 889.716 110.484 890.586 111.498L893.196 108.889C893.051 108.599 892.906 108.309 892.761 107.874Z" fill="white"/>
<path opacity="0.3" d="M894.646 105.265V101.495C893.196 101.64 891.891 102.22 890.876 103.09L893.486 105.7C893.776 105.555 894.211 105.265 894.646 105.265Z" fill="white"/>
<path d="M895.081 100.626C894.646 100.626 894.066 100.626 893.631 100.771C890.441 101.351 888.121 104.105 888.121 107.439C888.121 111.209 891.166 114.253 894.936 114.253C896.821 114.253 898.561 113.528 899.721 112.223C901.026 110.919 901.751 109.324 901.751 107.439C901.896 103.67 898.851 100.626 895.081 100.626ZM897.256 107.294C897.256 106.859 897.111 106.425 896.821 105.99L899.431 103.38C900.301 104.395 900.881 105.7 901.026 107.294H897.256ZM891.021 111.933L893.631 109.324C893.921 109.469 894.211 109.614 894.646 109.759V113.528C893.196 113.383 892.036 112.803 891.021 111.933ZM896.386 105.7C896.096 105.41 895.661 105.265 895.081 105.265V101.495C896.531 101.495 897.981 102.075 898.996 103.09L896.386 105.7ZM892.761 107.294H888.991C888.991 105.845 889.571 104.54 890.441 103.525L893.051 106.135C892.906 106.569 892.761 107.004 892.761 107.294ZM892.761 107.874C892.906 108.309 893.051 108.599 893.196 108.889L890.586 111.499C889.716 110.484 889.136 109.324 888.991 107.874H892.761ZM895.081 109.324C894.066 109.324 893.196 108.454 893.196 107.439C893.196 106.425 894.066 105.555 895.081 105.555C895.806 105.555 896.386 105.99 896.676 106.57V106.714C896.821 106.859 896.821 107.149 896.821 107.439C896.821 107.729 896.821 107.874 896.676 108.164C896.531 108.889 895.806 109.324 895.081 109.324ZM895.226 109.759C895.661 109.759 895.951 109.614 896.241 109.469L898.851 112.078C897.836 112.948 896.531 113.528 895.226 113.528V109.759ZM894.646 101.495V105.265C894.211 105.41 893.776 105.555 893.486 105.845L890.876 103.235C891.891 102.22 893.196 101.64 894.646 101.495ZM899.286 111.644L896.676 109.034C896.966 108.744 897.111 108.309 897.256 107.874H901.026C900.881 109.324 900.301 110.629 899.286 111.644Z" fill="white"/>
<path d="M91.385 92.5071C91.385 92.5071 91.53 92.5071 91.385 92.5071C91.53 92.5071 91.53 92.5071 91.385 92.5071C91.53 92.5071 92.545 92.3622 93.27 91.7823C93.995 90.9125 94.2849 89.4627 93.7049 88.7378C93.4149 88.4479 92.98 88.3029 92.545 88.3029C92.11 88.4479 91.82 88.5929 91.675 89.0278C91.675 89.1728 91.675 89.1728 91.675 89.3177C91.82 89.3177 91.82 89.3177 91.965 89.3177C92.11 89.1728 92.255 89.1728 92.4 89.1728C92.545 89.1728 92.545 89.3177 92.6899 89.4627C92.6899 89.6077 92.69 89.7527 92.545 89.8977L92.4 90.0426C92.11 90.0426 91.675 89.7527 91.24 89.3177C90.805 88.8828 90.225 88.5929 89.79 88.3029C89.065 88.013 86.89 87.5781 85.44 88.5929C85.44 88.5929 84.57 89.3178 84.425 89.8977C84.135 90.4776 84.135 91.2023 84.28 91.6373C84.135 91.7822 83.99 91.9272 83.99 92.2172C83.99 92.6521 84.425 92.942 85.15 93.087C85.15 93.232 85.005 93.232 85.005 93.3769C85.005 93.8119 85.585 94.2468 86.31 94.2468C86.89 94.2468 87.325 94.1018 87.47 93.8118C87.615 94.1018 88.05 94.2468 88.63 94.2468C89.355 94.2468 89.935 93.8119 89.935 93.3769C89.935 93.232 89.935 93.087 89.79 93.087C90.225 93.087 90.515 92.942 90.805 92.6521C90.805 92.6521 90.805 92.6521 90.95 92.6521C90.805 92.6521 91.095 92.5071 91.385 92.5071ZM92.4 91.7823C92.255 91.9273 91.965 91.9272 91.82 91.9272C91.965 91.0574 91.385 90.1876 91.24 89.7526C91.53 90.0426 91.82 90.1876 92.11 90.3326C92.255 90.7675 92.545 91.2024 92.4 91.7823ZM90.805 92.2172C90.805 92.0722 90.66 91.7823 90.515 91.4923C90.225 90.9124 89.645 90.0426 88.195 89.6077C86.31 89.0278 85.44 89.3178 85.005 89.6077C85.005 89.6077 85.005 89.6077 85.15 89.4627C85.295 89.3177 85.44 89.1728 85.585 89.0278C86.165 88.7378 87.18 88.7379 88.63 89.1728C90.515 89.7527 91.095 91.0574 91.24 91.6373C91.24 91.7822 91.385 92.0722 91.385 92.2172C91.385 92.2172 91.385 92.2172 91.24 92.2172C90.95 92.2172 90.95 92.2172 90.805 92.2172ZM88.05 90.4775C87.76 90.4775 87.615 90.6225 87.47 90.7675C87.18 90.4775 86.89 90.3326 86.31 90.3326C86.165 90.3326 86.02 90.3326 85.875 90.3326C86.31 90.1876 86.89 90.1875 87.47 90.1875C87.615 90.3325 87.76 90.3325 88.05 90.4775ZM86.31 90.7675C86.745 90.7675 87.18 91.0574 87.18 91.2024C87.18 91.3473 87.035 91.4923 86.89 91.4923H86.745C86.6 91.4923 86.455 91.4923 86.31 91.4923C85.875 91.4923 85.44 91.2024 85.44 91.0574C85.44 91.0574 85.73 90.7675 86.31 90.7675ZM86.89 92.0722H87.035C87.18 92.0722 87.18 92.0722 87.325 92.0722C87.905 92.0722 88.195 92.3622 88.195 92.5071C88.195 92.6521 87.76 92.942 87.325 92.942C86.745 92.942 86.455 92.6521 86.455 92.5071C86.455 92.2172 86.6 92.0722 86.89 92.0722ZM87.615 91.2024C87.615 91.0574 88.05 90.7675 88.485 90.7675C88.63 90.7675 88.63 90.7675 88.775 90.7675C89.065 90.7675 89.355 91.0574 89.355 91.2024C89.355 91.3473 89.21 91.4923 88.92 91.6373C88.775 91.6373 88.63 91.6373 88.485 91.6373C87.905 91.6373 87.615 91.4923 87.615 91.2024ZM84.86 91.6373C84.86 91.4923 84.86 91.4924 84.86 91.3474C84.86 91.2024 85.005 91.0574 85.15 90.9124C85.005 91.0574 85.005 91.2024 85.005 91.3474C85.005 91.4924 85.005 91.6373 85.15 91.6373C85.005 91.4923 85.005 91.4923 84.86 91.6373ZM84.28 92.3621C84.28 92.2172 84.425 92.2172 84.57 92.0722C84.715 92.0722 84.86 91.9272 85.005 91.9272C85.15 91.9272 85.15 91.9272 85.295 91.9272C85.875 91.9272 86.165 92.2172 86.165 92.3621C86.165 92.5071 86.02 92.5071 86.02 92.6521C85.875 92.7971 85.585 92.7971 85.295 92.7971C84.57 92.7971 84.28 92.6521 84.28 92.3621ZM86.165 93.9569C85.585 93.9569 85.295 93.8119 85.295 93.522C85.295 93.377 85.73 93.087 86.165 93.087C86.455 93.087 86.6 93.087 86.89 93.232C86.89 93.232 87.035 93.377 87.035 93.522C87.035 93.8119 86.6 93.9569 86.165 93.9569ZM88.485 93.9569C87.905 93.9569 87.615 93.6669 87.615 93.522C87.615 93.522 87.615 93.3769 87.76 93.3769C87.905 93.232 88.195 93.087 88.485 93.087C88.63 93.087 88.775 93.087 88.92 93.087C89.21 93.232 89.355 93.377 89.355 93.522C89.355 93.8119 88.92 93.9569 88.485 93.9569ZM90.37 92.5071C90.225 92.6521 89.935 92.7971 89.5 92.7971C89.355 92.7971 89.21 92.7971 89.065 92.7971C88.775 92.6521 88.63 92.5071 88.63 92.3621C88.63 92.2172 88.775 92.0722 89.065 91.9272C89.21 91.9272 89.355 91.9272 89.5 91.9272C89.645 91.9272 89.645 91.9272 89.79 91.9272C90.08 92.0722 90.37 92.2172 90.37 92.5071Z" fill="white"/>
<path d="M101.825 87.8679V77.285C101.825 77.14 101.825 76.995 101.68 76.995C101.535 76.995 101.39 76.995 101.39 76.995L100.23 77.5749V73.8056C100.23 73.6606 100.23 73.5156 100.085 73.5156C99.9399 73.5156 99.7949 73.5156 99.7949 73.5156L94.5749 76.8501H94.4299C93.5599 77.14 92.6899 77.285 91.9649 77.285C89.4999 77.285 88.6299 75.6902 88.6299 75.6902C88.6299 75.5452 88.4849 75.5453 88.3399 75.5453C88.1949 75.5453 88.0499 75.6902 88.0499 75.6902C88.0499 75.6902 87.1799 77.285 84.715 77.285C83.99 77.285 83.12 77.14 82.25 76.8501L77.03 73.5156C76.885 73.5156 76.74 73.5156 76.595 73.5156C76.45 73.5156 76.45 73.6606 76.45 73.8056V77.5749L75.435 76.995C75.29 76.995 75.145 76.995 75.145 76.995C75 76.995 75 77.14 75 77.285V87.8679C75 88.0129 75 90.6224 77.175 92.652C79.06 94.5367 81.96 95.5515 85.875 95.5515C85.875 95.5515 85.875 95.5515 86.02 95.5515C87.47 95.9864 88.3399 96.2764 88.3399 97.5811C88.3399 97.7261 88.4849 97.8711 88.6299 97.8711C88.7749 97.8711 88.92 97.7261 88.92 97.5811C88.92 96.4214 89.7899 95.9864 91.2399 95.5515H91.3849C95.2999 95.5515 98.1999 94.5367 100.085 92.652C101.825 90.6224 101.825 88.0129 101.825 87.8679ZM83.265 84.8236C83.7 84.6786 83.845 83.8087 83.845 83.8087C83.845 83.8087 84.57 84.2437 85.005 84.0987C85.005 84.2437 85.005 84.6785 85.005 84.6785C85.005 84.6785 84.86 84.9685 85.005 85.2585C85.15 85.4034 85.15 85.6934 85.15 85.9833C84.86 85.9833 84.715 85.9833 84.425 85.9833C83.99 85.9833 83.555 85.9833 83.265 85.9833C83.265 85.4034 83.265 85.1135 83.265 84.8236ZM91.3849 84.0987H92.2549C92.2549 84.5336 92.2549 84.9685 92.3999 85.6934L91.3849 85.5484C91.3849 84.9685 91.3849 84.5336 91.3849 84.0987ZM98.4899 85.5484C97.9099 86.1283 97.0399 86.4182 96.0249 86.4182C95.7349 85.6934 95.5899 84.9685 95.5899 84.3886L99.5049 82.214C99.5049 82.6489 99.5049 84.3886 98.4899 85.5484ZM77.03 82.214L80.945 84.3886C80.945 84.9685 80.8 85.6934 80.51 86.4182C79.495 86.4182 78.77 86.1283 78.19 85.5484C77.03 84.3886 77.03 82.6489 77.03 82.214ZM101.1 77.8648V84.3886L99.3599 85.4034C100.23 83.9537 100.23 82.359 100.23 82.069V78.4447L101.1 77.8648ZM99.5049 78.0098L96.6049 79.7495C96.4599 79.6045 96.0249 79.0246 95.0099 77.4299L99.5049 74.5305V78.0098ZM91.8199 78.0098C92.5449 78.0098 93.4149 77.8649 94.2849 77.5749C95.2999 79.0247 95.7349 79.7494 96.0249 80.0394C95.5899 80.7643 94.2849 83.2289 95.2999 86.2733C94.8649 85.8384 93.8499 85.6934 92.8349 85.6934C92.6899 84.9685 92.6899 84.5336 92.6899 84.0987H94.2849C94.4299 84.0987 94.4299 83.8087 94.4299 83.5188V82.069C94.4299 80.9093 93.8499 80.9093 93.8499 80.9093C93.8499 80.9093 93.4149 80.9092 93.2699 80.3294C93.1249 79.7495 92.6899 79.3145 92.2549 79.3145C91.8199 79.3145 90.9499 79.6045 90.3699 80.0394C89.9349 80.1844 89.9349 80.4744 89.9349 80.9093C89.7899 81.9241 89.4999 81.7791 89.4999 81.7791C89.3549 81.7791 89.2099 81.924 89.2099 82.214V83.6637C89.2099 83.9537 89.3549 84.2436 89.4999 84.2436H91.0949C91.0949 84.6786 91.0949 85.1134 90.9499 85.8383C89.9349 85.8383 89.0649 86.1282 88.4849 86.5632V76.8501C88.9199 77.285 90.0799 78.0098 91.8199 78.0098ZM87.76 76.995V86.2733C87.325 85.9833 86.5999 85.8383 85.7299 85.8383C85.5849 85.4034 85.5849 84.2436 85.7299 83.9537C86.4549 83.8087 86.4549 83.0838 86.4549 82.5039C86.4549 82.069 86.31 80.4744 86.31 80.4744L86.745 80.3294C86.89 80.3294 86.8899 80.3294 86.8899 80.1844C86.8899 80.0394 86.8899 79.8945 86.8899 79.8945L86.4549 79.7495C86.3099 79.6045 86.165 79.4596 86.02 79.4596C85.875 79.4596 85.585 79.4596 85.44 79.7495C85.295 79.6045 85.005 79.7495 84.86 79.7495C84.86 79.7495 84.86 80.4743 85.585 80.3294L85.7299 82.214C85.7299 82.214 85.73 82.6489 85.295 82.5039C84.86 82.359 83.99 82.069 83.41 82.214C83.12 82.359 82.685 82.5039 82.395 83.2288C82.105 83.9537 82.54 83.6637 82.54 83.6637L82.975 83.3738C82.975 83.3738 83.265 83.9537 82.975 84.3886C82.685 84.6785 82.83 84.9685 82.83 84.9685C82.83 84.9685 82.975 85.6934 82.975 85.9833C82.25 85.9833 81.67 86.2733 81.235 86.4182C82.105 83.3738 80.945 80.9093 80.51 80.1844C80.8 79.8945 81.235 79.1696 82.25 77.7199C83.12 78.0098 83.99 78.1548 84.715 78.1548C86.165 78.0098 87.035 77.4299 87.76 76.995ZM77.03 74.5305L81.525 77.4299C80.655 78.8796 80.075 79.4596 79.93 79.7495L77.03 78.1548V74.5305ZM76.305 78.4447V82.214C76.305 82.359 76.305 84.0987 77.175 85.5484L75.435 84.5336V78.0098L76.305 78.4447ZM75.58 88.8828L79.93 91.3473C80.365 92.5071 81.09 93.232 82.25 94.2468C82.54 94.5367 82.975 94.6816 83.265 94.8266C80.655 94.5367 78.625 93.6669 77.32 92.2171C76.16 91.0573 75.725 89.7526 75.58 88.8828ZM88.195 96.2763C87.615 95.4065 86.5999 95.1166 85.44 94.8266C84.425 94.5367 83.41 94.2468 82.54 93.5219C80.365 91.9272 79.64 90.4775 80.8 87.1431H95.5899C96.7499 90.4775 96.0249 91.7822 93.8499 93.5219C92.9799 94.1018 91.9649 94.5367 90.9499 94.6817C89.7899 95.2616 88.775 95.5515 88.195 96.2763ZM99.2149 92.2171C97.7649 93.6669 95.7349 94.5367 93.1249 94.8266C93.5599 94.6816 93.8499 94.3918 94.1399 94.2468C95.2999 93.3769 96.1699 92.5071 96.4599 91.4923C96.4599 91.4923 96.4599 91.4923 96.6049 91.4923L100.955 89.0277C100.81 89.7526 100.375 91.0573 99.2149 92.2171Z" fill="white"/>
<path d="M88.1948 75.2554C90.2248 75.2554 91.6748 74.2406 91.6748 72.9359C91.6748 71.6312 90.0798 70.6163 88.1948 70.6163C86.1649 70.6163 84.7148 71.6312 84.7148 72.9359C84.7148 74.2406 86.1649 75.2554 88.1948 75.2554ZM88.1948 71.4862C89.2098 71.4862 89.9348 71.9211 89.9348 72.356C89.9348 72.7909 89.4998 73.0809 88.9198 73.2259C88.3398 73.3708 88.4848 73.6607 88.1948 73.8057C87.9048 73.6607 88.0498 73.3708 87.4698 73.2259C86.8898 73.0809 86.4548 72.7909 86.4548 72.356C86.4548 71.9211 87.1798 71.4862 88.1948 71.4862Z" fill="white"/>
</svg>
