<svg class="tracto-remolque-modular transport-item is-hidden" width="916" height="124" viewBox="0 0 916 124" fill="none" xmlns="http://www.w3.org/2000/svg">
<path d="M284.489 94.0157H291.304V91.9862H331.179L336.109 89.9565H914.511V104.164H336.109L331.179 102.134H290.724V100.25H284.489V94.0157Z" fill="#DCE9EF" stroke="#65819B" stroke-width="1.0365" stroke-miterlimit="10"/>
<path d="M144.564 88.362V85.4625H134.124V11.2367H129.919V0.36377H123.974V10.8018H122.379V75.3145H116.869V17.3255H70.6147V24.1392H75.2547L60.1747 60.5272H8.40996L8.98996 97.7851H0V104.599H9.71495V107.788H145.579V105.469H285.214V88.5069H144.564V88.362ZM95.8446 60.2373H76.2697L85.4046 25.154H95.8446V60.2373Z" fill="#76C1AA"/>
<path d="M285.214 67.0509H164.574V87.0571H285.214V67.0509Z" fill="#314254"/>
<g>
<path d="M37.1199 123.3C45.8487 123.3 52.9248 116.225 52.9248 107.498C52.9248 98.771 45.8487 91.6962 37.1199 91.6962C28.3911 91.6962 21.3149 98.771 21.3149 107.498C21.3149 116.225 28.3911 123.3 37.1199 123.3Z" fill="#3B5266"/>
<path d="M26.39 107.498C26.39 103.294 28.71 99.8147 32.19 97.9301L31.61 97.0603C27.84 99.0899 25.23 103.004 25.23 107.498C25.23 111.992 27.84 115.907 31.61 117.936L32.19 117.066C28.71 115.182 26.39 111.702 26.39 107.498Z" fill="#76C1AA"/>
<path d="M42.6298 97.0603L42.1948 97.9301C45.6748 99.6698 48.1398 103.294 48.1398 107.498C48.1398 111.702 45.6748 115.327 42.1948 117.066L42.6298 117.936C46.3998 115.907 49.0098 111.992 49.0098 107.498C48.8648 103.004 46.3998 98.9449 42.6298 97.0603Z" fill="#76C1AA"/>
<path opacity="0.3" d="M37.1198 109.818C38.4011 109.818 39.4398 108.779 39.4398 107.498C39.4398 106.217 38.4011 105.179 37.1198 105.179C35.8385 105.179 34.7998 106.217 34.7998 107.498C34.7998 108.779 35.8385 109.818 37.1198 109.818Z" fill="white"/>
<path opacity="0.3" d="M38.5701 105.759L41.1801 103.149C40.1651 102.134 38.8601 101.554 37.2651 101.554V105.324C37.7001 105.324 38.1351 105.469 38.5701 105.759Z" fill="white"/>
<path opacity="0.3" d="M39.2949 107.353H43.0648C43.0648 105.904 42.4848 104.454 41.4698 103.439L38.8599 106.048C39.1499 106.483 39.2949 106.918 39.2949 107.353Z" fill="white"/>
<path opacity="0.3" d="M38.7151 109.093L41.3251 111.703C42.3401 110.688 42.9201 109.383 42.9201 107.933H39.1501C39.2951 108.368 39.0051 108.803 38.7151 109.093Z" fill="white"/>
<path opacity="0.3" d="M35.815 109.383L33.2051 111.992C34.2201 112.862 35.3801 113.442 36.83 113.442V109.673C36.395 109.673 35.96 109.528 35.815 109.383Z" fill="white"/>
<path opacity="0.3" d="M37.2651 109.818V113.587C38.7151 113.587 40.0201 113.007 40.8901 112.137L38.2801 109.528C37.9901 109.673 37.7001 109.673 37.2651 109.818Z" fill="white"/>
<path opacity="0.3" d="M35.235 106.338L32.6251 103.729C31.755 104.744 31.175 106.049 31.175 107.498H34.9451C34.8001 107.063 34.945 106.628 35.235 106.338Z" fill="white"/>
<path opacity="0.3" d="M34.8 107.933H31.03C31.175 109.383 31.755 110.543 32.625 111.557L35.235 108.948C35.09 108.658 34.945 108.368 34.8 107.933Z" fill="white"/>
<path opacity="0.3" d="M36.685 105.324V101.554C35.235 101.699 33.93 102.279 32.915 103.149L35.525 105.759C35.815 105.614 36.25 105.324 36.685 105.324Z" fill="white"/>
<path d="M37.2649 100.685C36.8299 100.685 36.2499 100.685 35.8149 100.83C32.6249 101.409 30.3049 104.164 30.3049 107.498C30.3049 111.267 33.3499 114.312 37.1199 114.312C39.0049 114.312 40.7449 113.587 41.9049 112.282C43.2099 110.978 43.9349 109.383 43.9349 107.498C43.9349 103.729 41.0349 100.685 37.2649 100.685ZM39.2949 107.353C39.2949 106.918 39.1499 106.483 38.8599 106.048L41.4699 103.439C42.3399 104.454 42.9199 105.759 43.0649 107.353H39.2949ZM33.0599 111.992L35.6699 109.383C35.9599 109.528 36.2499 109.673 36.6849 109.818V113.587C35.3799 113.442 34.0749 112.862 33.0599 111.992ZM38.5699 105.759C38.2799 105.469 37.8449 105.324 37.2649 105.324V101.554C38.7149 101.554 40.1649 102.134 41.1799 103.149L38.5699 105.759ZM34.7999 107.353H31.0299C31.0299 105.904 31.6099 104.599 32.4799 103.584L35.0899 106.193C34.9449 106.628 34.7999 107.063 34.7999 107.353ZM34.7999 107.933C34.9449 108.368 35.0899 108.658 35.2349 108.948L32.6249 111.557C31.7549 110.543 31.1749 109.383 31.0299 107.933H34.7999ZM37.1199 109.383C36.1049 109.383 35.2349 108.513 35.2349 107.498C35.2349 106.483 36.1049 105.613 37.1199 105.613C37.8449 105.613 38.4249 106.048 38.7149 106.628V106.773C38.8599 106.918 38.8599 107.208 38.8599 107.498C38.8599 107.788 38.8599 107.933 38.7149 108.223C38.5699 108.948 37.8449 109.383 37.1199 109.383ZM37.2649 109.818C37.6999 109.818 37.9899 109.673 38.2799 109.528L40.8899 112.137C39.8749 113.007 38.5699 113.587 37.2649 113.587V109.818ZM36.6849 101.554V105.324C36.2499 105.469 35.8149 105.614 35.5249 105.904L32.9149 103.294C33.9299 102.279 35.2349 101.699 36.6849 101.554ZM41.3249 111.702L38.7149 109.093C39.0049 108.803 39.1499 108.368 39.2949 107.933H43.0649C42.9199 109.383 42.3399 110.688 41.3249 111.702Z" fill="white"/>
</g>
<g>
<path d="M174.869 123.3C183.598 123.3 190.674 116.225 190.674 107.498C190.674 98.771 183.598 91.6962 174.869 91.6962C166.14 91.6962 159.064 98.771 159.064 107.498C159.064 116.225 166.14 123.3 174.869 123.3Z" fill="#3B5266"/>
<path d="M164.139 107.498C164.139 103.294 166.459 99.8147 169.939 97.9301L169.359 97.0603C165.589 99.0899 162.979 103.004 162.979 107.498C162.979 111.992 165.589 115.907 169.359 117.936L169.939 117.066C166.459 115.182 164.139 111.702 164.139 107.498Z" fill="#76C1AA"/>
<path d="M180.234 97.0603L179.799 97.9301C183.279 99.6698 185.744 103.294 185.744 107.498C185.744 111.702 183.279 115.327 179.799 117.066L180.234 117.936C184.004 115.907 186.614 111.992 186.614 107.498C186.614 103.004 184.004 98.9449 180.234 97.0603Z" fill="#76C1AA"/>
<path opacity="0.3" d="M174.869 109.818C176.15 109.818 177.189 108.779 177.189 107.498C177.189 106.217 176.15 105.179 174.869 105.179C173.588 105.179 172.549 106.217 172.549 107.498C172.549 108.779 173.588 109.818 174.869 109.818Z" fill="white"/>
<path opacity="0.3" d="M176.174 105.759L178.784 103.149C177.769 102.134 176.464 101.554 174.869 101.554V105.324C175.449 105.324 175.884 105.469 176.174 105.759Z" fill="white"/>
<path opacity="0.3" d="M177.044 107.353H180.814C180.814 105.904 180.234 104.454 179.219 103.439L176.609 106.048C176.899 106.483 177.044 106.918 177.044 107.353Z" fill="white"/>
<path opacity="0.3" d="M176.464 109.093L179.074 111.703C180.089 110.688 180.669 109.383 180.669 107.933H176.899C176.899 108.368 176.754 108.803 176.464 109.093Z" fill="white"/>
<path opacity="0.3" d="M173.419 109.383L170.809 111.992C171.824 112.862 172.984 113.442 174.434 113.442V109.673C173.999 109.673 173.709 109.528 173.419 109.383Z" fill="white"/>
<path opacity="0.3" d="M175.014 109.818V113.587C176.464 113.587 177.769 113.007 178.639 112.137L176.029 109.528C175.739 109.673 175.304 109.673 175.014 109.818Z" fill="white"/>
<path opacity="0.3" d="M172.839 106.338L170.229 103.729C169.359 104.744 168.779 106.049 168.779 107.498H172.549C172.549 107.063 172.694 106.628 172.839 106.338Z" fill="white"/>
<path opacity="0.3" d="M172.549 107.933H168.779C168.924 109.383 169.504 110.543 170.374 111.557L172.984 108.948C172.839 108.658 172.694 108.368 172.549 107.933Z" fill="white"/>
<path opacity="0.3" d="M174.434 105.324V101.554C172.984 101.699 171.679 102.279 170.664 103.149L173.274 105.759C173.564 105.614 173.999 105.324 174.434 105.324Z" fill="white"/>
<path d="M174.869 100.685C174.434 100.685 173.854 100.685 173.419 100.83C170.229 101.409 167.909 104.164 167.909 107.498C167.909 111.267 170.954 114.312 174.724 114.312C176.609 114.312 178.349 113.587 179.509 112.282C180.814 110.978 181.539 109.383 181.539 107.498C181.684 103.729 178.639 100.685 174.869 100.685ZM177.044 107.353C177.044 106.918 176.899 106.483 176.609 106.048L179.219 103.439C180.089 104.454 180.669 105.759 180.814 107.353H177.044ZM170.809 111.992L173.419 109.383C173.709 109.528 173.999 109.673 174.434 109.818V113.587C172.984 113.442 171.824 112.862 170.809 111.992ZM176.174 105.759C175.884 105.469 175.449 105.324 174.869 105.324V101.554C176.319 101.554 177.769 102.134 178.784 103.149L176.174 105.759ZM172.549 107.353H168.779C168.779 105.904 169.359 104.599 170.229 103.584L172.839 106.193C172.694 106.628 172.549 107.063 172.549 107.353ZM172.549 107.933C172.694 108.368 172.839 108.658 172.984 108.948L170.374 111.557C169.504 110.543 168.924 109.383 168.779 107.933H172.549ZM174.869 109.383C173.854 109.383 172.984 108.513 172.984 107.498C172.984 106.483 173.854 105.613 174.869 105.613C175.594 105.613 176.174 106.048 176.464 106.628V106.773C176.609 106.918 176.609 107.208 176.609 107.498C176.609 107.788 176.609 107.933 176.464 108.223C176.319 108.948 175.594 109.383 174.869 109.383ZM175.014 109.818C175.449 109.818 175.739 109.673 176.029 109.528L178.639 112.137C177.624 113.007 176.319 113.587 175.014 113.587V109.818ZM174.434 101.554V105.324C173.999 105.469 173.564 105.614 173.274 105.904L170.664 103.294C171.679 102.279 172.984 101.699 174.434 101.554ZM179.074 111.702L176.464 109.093C176.754 108.803 176.899 108.368 177.044 107.933H180.814C180.669 109.383 180.089 110.688 179.074 111.702Z" fill="white"/>
</g>
<g>
<path d="M216.629 123.3C225.358 123.3 232.434 116.225 232.434 107.498C232.434 98.771 225.358 91.6962 216.629 91.6962C207.9 91.6962 200.824 98.771 200.824 107.498C200.824 116.225 207.9 123.3 216.629 123.3Z" fill="#3B5266"/>
<path d="M205.899 107.498C205.899 103.294 208.219 99.8147 211.699 97.9301L211.119 97.0603C207.349 99.0899 204.739 103.004 204.739 107.498C204.739 111.992 207.349 115.907 211.119 117.936L211.699 117.066C208.219 115.182 205.899 111.702 205.899 107.498Z" fill="#76C1AA"/>
<path d="M221.994 97.0603L221.559 97.9301C225.039 99.6698 227.504 103.294 227.504 107.498C227.504 111.702 225.039 115.327 221.559 117.066L221.994 117.936C225.764 115.907 228.374 111.992 228.374 107.498C228.374 103.004 225.764 98.9449 221.994 97.0603Z" fill="#76C1AA"/>
<path opacity="0.3" d="M216.629 109.818C217.91 109.818 218.949 108.779 218.949 107.498C218.949 106.217 217.91 105.179 216.629 105.179C215.348 105.179 214.309 106.217 214.309 107.498C214.309 108.779 215.348 109.818 216.629 109.818Z" fill="white"/>
<path opacity="0.3" d="M217.934 105.759L220.544 103.149C219.529 102.134 218.224 101.554 216.629 101.554V105.324C217.209 105.324 217.644 105.469 217.934 105.759Z" fill="white"/>
<path opacity="0.3" d="M218.804 107.353H222.574C222.574 105.904 221.994 104.454 220.979 103.439L218.369 106.048C218.659 106.483 218.804 106.918 218.804 107.353Z" fill="white"/>
<path opacity="0.3" d="M218.224 109.093L220.834 111.703C221.849 110.688 222.429 109.383 222.429 107.933H218.659C218.659 108.368 218.514 108.803 218.224 109.093Z" fill="white"/>
<path opacity="0.3" d="M215.179 109.383L212.569 111.992C213.584 112.862 214.744 113.442 216.194 113.442V109.673C215.904 109.673 215.469 109.528 215.179 109.383Z" fill="white"/>
<path opacity="0.3" d="M216.774 109.818V113.587C218.224 113.587 219.529 113.007 220.399 112.137L217.789 109.528C217.499 109.673 217.209 109.673 216.774 109.818Z" fill="white"/>
<path opacity="0.3" d="M214.744 106.338L212.134 103.729C211.264 104.744 210.684 106.049 210.684 107.498H214.454C214.309 107.063 214.454 106.628 214.744 106.338Z" fill="white"/>
<path opacity="0.3" d="M214.309 107.933H210.539C210.684 109.383 211.264 110.543 212.134 111.557L214.744 108.948C214.599 108.658 214.454 108.368 214.309 107.933Z" fill="white"/>
<path opacity="0.3" d="M216.194 105.324V101.554C214.744 101.699 213.439 102.279 212.424 103.149L215.034 105.759C215.324 105.614 215.759 105.324 216.194 105.324Z" fill="white"/>
<path d="M216.629 100.685C216.194 100.685 215.614 100.685 215.179 100.83C211.989 101.409 209.669 104.164 209.669 107.498C209.669 111.267 212.714 114.312 216.484 114.312C218.369 114.312 220.109 113.587 221.269 112.282C222.574 110.978 223.299 109.383 223.299 107.498C223.444 103.729 220.399 100.685 216.629 100.685ZM218.804 107.353C218.804 106.918 218.659 106.483 218.369 106.048L220.979 103.439C221.849 104.454 222.429 105.759 222.574 107.353H218.804ZM212.569 111.992L215.179 109.383C215.469 109.528 215.759 109.673 216.194 109.818V113.587C214.744 113.442 213.584 112.862 212.569 111.992ZM217.934 105.759C217.644 105.469 217.209 105.324 216.629 105.324V101.554C218.079 101.554 219.529 102.134 220.544 103.149L217.934 105.759ZM214.309 107.353H210.539C210.539 105.904 211.119 104.599 211.989 103.584L214.599 106.193C214.454 106.628 214.309 107.063 214.309 107.353ZM214.309 107.933C214.454 108.368 214.599 108.658 214.744 108.948L212.134 111.557C211.264 110.543 210.684 109.383 210.539 107.933H214.309ZM216.629 109.383C215.614 109.383 214.744 108.513 214.744 107.498C214.744 106.483 215.614 105.613 216.629 105.613C217.354 105.613 217.934 106.048 218.224 106.628V106.773C218.369 106.918 218.369 107.208 218.369 107.498C218.369 107.788 218.369 107.933 218.224 108.223C218.079 108.948 217.354 109.383 216.629 109.383ZM216.774 109.818C217.209 109.818 217.499 109.673 217.789 109.528L220.399 112.137C219.384 113.007 218.079 113.587 216.774 113.587V109.818ZM216.194 101.554V105.324C215.759 105.469 215.324 105.614 215.034 105.904L212.424 103.294C213.439 102.279 214.744 101.699 216.194 101.554ZM220.834 111.702L218.224 109.093C218.514 108.803 218.659 108.368 218.804 107.933H222.574C222.429 109.383 221.849 110.688 220.834 111.702Z" fill="white"/>
</g>
<g>
<path d="M258.389 123.3C267.118 123.3 274.194 116.225 274.194 107.498C274.194 98.771 267.118 91.6962 258.389 91.6962C249.66 91.6962 242.584 98.771 242.584 107.498C242.584 116.225 249.66 123.3 258.389 123.3Z" fill="#3B5266"/>
<path d="M247.659 107.498C247.659 103.294 249.979 99.8147 253.459 97.9301L252.879 97.0603C249.109 99.0899 246.499 103.004 246.499 107.498C246.499 111.992 249.109 115.907 252.879 117.936L253.459 117.066C249.979 115.182 247.659 111.702 247.659 107.498Z" fill="#76C1AA"/>
<path d="M263.754 97.0603L263.319 97.9301C266.799 99.6698 269.264 103.294 269.264 107.498C269.264 111.702 266.799 115.327 263.319 117.066L263.754 117.936C267.524 115.907 270.134 111.992 270.134 107.498C270.134 103.004 267.524 98.9449 263.754 97.0603Z" fill="#76C1AA"/>
<path opacity="0.3" d="M258.389 109.818C259.67 109.818 260.709 108.779 260.709 107.498C260.709 106.217 259.67 105.179 258.389 105.179C257.108 105.179 256.069 106.217 256.069 107.498C256.069 108.779 257.108 109.818 258.389 109.818Z" fill="white"/>
<path opacity="0.3" d="M259.839 105.759L262.449 103.149C261.434 102.134 260.129 101.554 258.534 101.554V105.324C258.969 105.324 259.404 105.469 259.839 105.759Z" fill="white"/>
<path opacity="0.3" d="M260.564 107.353H264.334C264.334 105.904 263.754 104.454 262.739 103.439L260.129 106.048C260.419 106.483 260.564 106.918 260.564 107.353Z" fill="white"/>
<path opacity="0.3" d="M259.984 109.093L262.594 111.703C263.609 110.688 264.189 109.383 264.189 107.933H260.564C260.419 108.368 260.274 108.803 259.984 109.093Z" fill="white"/>
<path opacity="0.3" d="M256.939 109.383L254.329 111.992C255.344 112.862 256.504 113.442 257.954 113.442V109.673C257.664 109.673 257.229 109.528 256.939 109.383Z" fill="white"/>
<path opacity="0.3" d="M258.534 109.818V113.587C259.984 113.587 261.289 113.007 262.159 112.137L259.549 109.528C259.259 109.673 258.969 109.673 258.534 109.818Z" fill="white"/>
<path opacity="0.3" d="M256.504 106.338L253.894 103.729C253.024 104.744 252.444 106.049 252.444 107.498H256.214C256.069 107.063 256.214 106.628 256.504 106.338Z" fill="white"/>
<path opacity="0.3" d="M256.069 107.933H252.299C252.444 109.383 253.024 110.543 253.894 111.557L256.504 108.948C256.359 108.658 256.214 108.368 256.069 107.933Z" fill="white"/>
<path opacity="0.3" d="M257.954 105.324V101.554C256.504 101.699 255.199 102.279 254.184 103.149L256.794 105.759C257.084 105.614 257.519 105.324 257.954 105.324Z" fill="white"/>
<path d="M258.534 100.685C258.099 100.685 257.519 100.685 257.084 100.83C253.894 101.409 251.574 104.164 251.574 107.498C251.574 111.267 254.619 114.312 258.389 114.312C260.274 114.312 262.014 113.587 263.174 112.282C264.479 110.978 265.204 109.383 265.204 107.498C265.204 103.729 262.159 100.685 258.534 100.685ZM260.564 107.353C260.564 106.918 260.419 106.483 260.129 106.048L262.739 103.439C263.609 104.454 264.189 105.759 264.334 107.353H260.564ZM254.329 111.992L256.939 109.383C257.229 109.528 257.519 109.673 257.954 109.818V113.587C256.504 113.442 255.344 112.862 254.329 111.992ZM259.839 105.759C259.549 105.469 259.114 105.324 258.534 105.324V101.554C259.984 101.554 261.434 102.134 262.449 103.149L259.839 105.759ZM256.069 107.353H252.299C252.299 105.904 252.879 104.599 253.749 103.584L256.359 106.193C256.214 106.628 256.069 107.063 256.069 107.353ZM256.069 107.933C256.214 108.368 256.359 108.658 256.504 108.948L253.894 111.557C253.024 110.543 252.444 109.383 252.299 107.933H256.069ZM258.389 109.383C257.374 109.383 256.504 108.513 256.504 107.498C256.504 106.483 257.374 105.613 258.389 105.613C259.114 105.613 259.694 106.048 259.984 106.628V106.773C260.129 106.918 260.129 107.208 260.129 107.498C260.129 107.788 260.129 107.933 259.984 108.223C259.839 108.948 259.114 109.383 258.389 109.383ZM258.534 109.818C258.969 109.818 259.259 109.673 259.549 109.528L262.159 112.137C261.144 113.007 259.839 113.587 258.534 113.587V109.818ZM257.954 101.554V105.324C257.519 105.469 257.084 105.614 256.794 105.904L254.184 103.294C255.199 102.279 256.504 101.699 257.954 101.554ZM262.594 111.702L259.984 109.093C260.274 108.803 260.419 108.368 260.564 107.933H264.334C264.189 109.383 263.609 110.688 262.594 111.702Z" fill="white"/>
</g>
<g>
<path d="M362.788 123.3C371.517 123.3 378.593 116.225 378.593 107.498C378.593 98.771 371.517 91.6962 362.788 91.6962C354.059 91.6962 346.983 98.771 346.983 107.498C346.983 116.225 354.059 123.3 362.788 123.3Z" fill="#3B5266"/>
<path d="M352.058 107.498C352.058 103.294 354.378 99.8147 357.858 97.9301L357.278 97.0603C353.508 99.0899 350.898 103.004 350.898 107.498C350.898 111.992 353.508 115.907 357.278 117.936L357.858 117.066C354.378 115.182 352.058 111.702 352.058 107.498Z" fill="#76C1AA"/>
<path d="M368.298 97.0603L367.863 97.9301C371.343 99.6698 373.808 103.294 373.808 107.498C373.808 111.702 371.343 115.327 367.863 117.066L368.298 117.936C372.068 115.907 374.678 111.992 374.678 107.498C374.533 103.004 371.923 98.9449 368.298 97.0603Z" fill="#76C1AA"/>
<path opacity="0.3" d="M362.788 109.818C364.07 109.818 365.108 108.779 365.108 107.498C365.108 106.217 364.07 105.179 362.788 105.179C361.507 105.179 360.468 106.217 360.468 107.498C360.468 108.779 361.507 109.818 362.788 109.818Z" fill="white"/>
<path opacity="0.3" d="M364.238 105.759L366.848 103.149C365.833 102.134 364.528 101.554 362.933 101.554V105.324C363.368 105.324 363.803 105.469 364.238 105.759Z" fill="white"/>
<path opacity="0.3" d="M364.963 107.353H368.733C368.733 105.904 368.153 104.454 367.138 103.439L364.528 106.048C364.818 106.483 364.963 106.918 364.963 107.353Z" fill="white"/>
<path opacity="0.3" d="M364.383 109.093L366.993 111.703C368.008 110.688 368.588 109.383 368.588 107.933H364.963C364.818 108.368 364.673 108.803 364.383 109.093Z" fill="white"/>
<path opacity="0.3" d="M361.338 109.383L358.728 111.992C359.743 112.862 360.903 113.442 362.353 113.442V109.673C362.063 109.673 361.628 109.528 361.338 109.383Z" fill="white"/>
<path opacity="0.3" d="M362.933 109.818V113.587C364.383 113.587 365.688 113.007 366.558 112.137L363.948 109.528C363.658 109.673 363.368 109.673 362.933 109.818Z" fill="white"/>
<path opacity="0.3" d="M360.903 106.338L358.293 103.729C357.423 104.744 356.843 106.049 356.843 107.498H360.613C360.468 107.063 360.613 106.628 360.903 106.338Z" fill="white"/>
<path opacity="0.3" d="M360.468 107.933H356.698C356.843 109.383 357.423 110.543 358.293 111.557L360.903 108.948C360.758 108.658 360.613 108.368 360.468 107.933Z" fill="white"/>
<path opacity="0.3" d="M362.353 105.324V101.554C360.903 101.699 359.598 102.279 358.583 103.149L361.193 105.759C361.483 105.614 361.918 105.324 362.353 105.324Z" fill="white"/>
<path d="M362.933 100.685C362.498 100.685 361.918 100.685 361.483 100.83C358.293 101.409 355.973 104.164 355.973 107.498C355.973 111.267 359.018 114.312 362.788 114.312C364.673 114.312 366.413 113.587 367.573 112.282C368.878 110.978 369.603 109.383 369.603 107.498C369.603 103.729 366.558 100.685 362.933 100.685ZM364.963 107.353C364.963 106.918 364.818 106.483 364.528 106.048L367.138 103.439C368.008 104.454 368.588 105.759 368.733 107.353H364.963ZM358.728 111.992L361.338 109.383C361.628 109.528 361.918 109.673 362.353 109.818V113.587C361.048 113.442 359.743 112.862 358.728 111.992ZM364.238 105.759C363.948 105.469 363.513 105.324 362.933 105.324V101.554C364.383 101.554 365.833 102.134 366.848 103.149L364.238 105.759ZM360.468 107.353H356.698C356.698 105.904 357.278 104.599 358.148 103.584L360.758 106.193C360.613 106.628 360.468 107.063 360.468 107.353ZM360.468 107.933C360.613 108.368 360.758 108.658 360.903 108.948L358.293 111.557C357.423 110.543 356.843 109.383 356.698 107.933H360.468ZM362.788 109.383C361.773 109.383 360.903 108.513 360.903 107.498C360.903 106.483 361.773 105.613 362.788 105.613C363.513 105.613 364.093 106.048 364.383 106.628V106.773C364.528 106.918 364.528 107.208 364.528 107.498C364.528 107.788 364.528 107.933 364.383 108.223C364.238 108.948 363.513 109.383 362.788 109.383ZM362.933 109.818C363.368 109.818 363.658 109.673 363.948 109.528L366.558 112.137C365.543 113.007 364.238 113.587 362.933 113.587V109.818ZM362.353 101.554V105.324C361.918 105.469 361.483 105.614 361.193 105.904L358.583 103.294C359.598 102.279 360.903 101.699 362.353 101.554ZM366.993 111.702L364.383 109.093C364.673 108.803 364.818 108.368 364.963 107.933H368.733C368.588 109.383 368.008 110.688 366.993 111.702Z" fill="white"/>
</g>
<g>
<path d="M403.678 123.3C412.407 123.3 419.483 116.225 419.483 107.498C419.483 98.771 412.407 91.6962 403.678 91.6962C394.949 91.6962 387.873 98.771 387.873 107.498C387.873 116.225 394.949 123.3 403.678 123.3Z" fill="#3B5266"/>
<path d="M393.093 107.498C393.093 103.294 395.413 99.8147 398.893 97.9301L398.313 97.0603C394.543 99.0899 391.933 103.004 391.933 107.498C391.933 111.992 394.543 115.907 398.313 117.936L398.893 117.066C395.413 115.182 393.093 111.702 393.093 107.498Z" fill="#76C1AA"/>
<path d="M409.188 97.0603L408.753 97.9301C412.233 99.6698 414.698 103.294 414.698 107.498C414.698 111.702 412.233 115.327 408.753 117.066L409.188 117.936C412.958 115.907 415.568 111.992 415.568 107.498C415.568 103.004 412.958 98.9449 409.188 97.0603Z" fill="#76C1AA"/>
<path opacity="0.3" d="M403.678 109.818C404.96 109.818 405.998 108.779 405.998 107.498C405.998 106.217 404.96 105.179 403.678 105.179C402.397 105.179 401.358 106.217 401.358 107.498C401.358 108.779 402.397 109.818 403.678 109.818Z" fill="white"/>
<path opacity="0.3" d="M405.128 105.759L407.738 103.149C406.723 102.134 405.418 101.554 403.823 101.554V105.324C404.403 105.324 404.838 105.469 405.128 105.759Z" fill="white"/>
<path opacity="0.3" d="M405.998 107.353H409.768C409.768 105.904 409.188 104.454 408.173 103.439L405.563 106.048C405.708 106.483 405.998 106.918 405.998 107.353Z" fill="white"/>
<path opacity="0.3" d="M405.418 109.093L408.028 111.703C409.043 110.688 409.623 109.383 409.623 107.933H405.853C405.853 108.368 405.563 108.803 405.418 109.093Z" fill="white"/>
<path opacity="0.3" d="M402.373 109.383L399.763 111.992C400.778 112.862 401.938 113.442 403.388 113.442V109.673C402.953 109.673 402.663 109.528 402.373 109.383Z" fill="white"/>
<path opacity="0.3" d="M403.823 109.818V113.587C405.273 113.587 406.578 113.007 407.448 112.137L404.838 109.528C404.548 109.673 404.258 109.673 403.823 109.818Z" fill="white"/>
<path opacity="0.3" d="M401.793 106.338L399.183 103.729C398.313 104.744 397.733 106.049 397.733 107.498H401.503C401.503 107.063 401.648 106.628 401.793 106.338Z" fill="white"/>
<path opacity="0.3" d="M401.503 107.933H397.733C397.878 109.383 398.458 110.543 399.328 111.557L401.938 108.948C401.648 108.658 401.503 108.368 401.503 107.933Z" fill="white"/>
<path opacity="0.3" d="M403.243 105.324V101.554C401.793 101.699 400.488 102.279 399.473 103.149L402.083 105.759C402.518 105.614 402.808 105.324 403.243 105.324Z" fill="white"/>
<path d="M403.823 100.685C403.388 100.685 402.808 100.685 402.373 100.83C399.183 101.409 396.863 104.164 396.863 107.498C396.863 111.267 399.908 114.312 403.678 114.312C405.563 114.312 407.303 113.587 408.463 112.282C409.768 110.978 410.493 109.383 410.493 107.498C410.638 103.729 407.593 100.685 403.823 100.685ZM405.998 107.353C405.998 106.918 405.853 106.483 405.563 106.048L408.173 103.439C409.043 104.454 409.623 105.759 409.768 107.353H405.998ZM399.763 111.992L402.373 109.383C402.663 109.528 402.953 109.673 403.388 109.818V113.587C401.938 113.442 400.633 112.862 399.763 111.992ZM405.128 105.759C404.838 105.469 404.403 105.324 403.823 105.324V101.554C405.273 101.554 406.723 102.134 407.738 103.149L405.128 105.759ZM401.503 107.353H397.733C397.733 105.904 398.313 104.599 399.183 103.584L401.793 106.193C401.648 106.628 401.503 107.063 401.503 107.353ZM401.503 107.933C401.648 108.368 401.793 108.658 401.938 108.948L399.328 111.557C398.458 110.543 397.878 109.383 397.733 107.933H401.503ZM403.678 109.383C402.663 109.383 401.793 108.513 401.793 107.498C401.793 106.483 402.663 105.613 403.678 105.613C404.403 105.613 404.983 106.048 405.273 106.628V106.773C405.418 106.918 405.418 107.208 405.418 107.498C405.418 107.788 405.418 107.933 405.273 108.223C405.128 108.948 404.548 109.383 403.678 109.383ZM403.823 109.818C404.258 109.818 404.548 109.673 404.838 109.528L407.448 112.137C406.433 113.007 405.128 113.587 403.823 113.587V109.818ZM403.243 101.554V105.324C402.808 105.469 402.373 105.614 402.083 105.904L399.473 103.294C400.488 102.279 401.793 101.699 403.243 101.554ZM408.028 111.702L405.418 109.093C405.708 108.803 405.853 108.368 405.998 107.933H409.768C409.478 109.383 408.898 110.688 408.028 111.702Z" fill="white"/>
</g>
<g>
<path d="M444.713 123.3C453.442 123.3 460.518 116.225 460.518 107.498C460.518 98.771 453.442 91.6962 444.713 91.6962C435.984 91.6962 428.908 98.771 428.908 107.498C428.908 116.225 435.984 123.3 444.713 123.3Z" fill="#3B5266"/>
<path d="M433.983 107.498C433.983 103.294 436.303 99.8147 439.783 97.9301L439.203 97.0603C435.433 99.0899 432.823 103.004 432.823 107.498C432.823 111.992 435.433 115.907 439.203 117.936L439.783 117.066C436.303 115.182 433.983 111.702 433.983 107.498Z" fill="#76C1AA"/>
<path d="M450.078 97.0603L449.643 97.9301C453.123 99.6698 455.588 103.294 455.588 107.498C455.588 111.702 453.123 115.327 449.643 117.066L450.078 117.936C453.848 115.907 456.458 111.992 456.458 107.498C456.458 103.004 453.848 98.9449 450.078 97.0603Z" fill="#76C1AA"/>
<path opacity="0.3" d="M444.713 109.818C445.994 109.818 447.033 108.779 447.033 107.498C447.033 106.217 445.994 105.179 444.713 105.179C443.432 105.179 442.393 106.217 442.393 107.498C442.393 108.779 443.432 109.818 444.713 109.818Z" fill="white"/>
<path opacity="0.3" d="M446.018 105.759L448.628 103.149C447.613 102.134 446.308 101.554 444.713 101.554V105.324C445.293 105.324 445.728 105.469 446.018 105.759Z" fill="white"/>
<path opacity="0.3" d="M446.888 107.353H450.658C450.658 105.904 450.078 104.454 449.063 103.439L446.453 106.048C446.743 106.483 446.888 106.918 446.888 107.353Z" fill="white"/>
<path opacity="0.3" d="M446.308 109.093L448.918 111.703C449.933 110.688 450.513 109.383 450.513 107.933H446.743C446.743 108.368 446.598 108.803 446.308 109.093Z" fill="white"/>
<path opacity="0.3" d="M443.263 109.383L440.653 111.992C441.668 112.862 442.828 113.442 444.278 113.442V109.673C443.843 109.673 443.553 109.528 443.263 109.383Z" fill="white"/>
<path opacity="0.3" d="M444.858 109.818V113.587C446.308 113.587 447.613 113.007 448.483 112.137L445.873 109.528C445.583 109.673 445.148 109.673 444.858 109.818Z" fill="white"/>
<path opacity="0.3" d="M442.683 106.338L440.073 103.729C439.203 104.744 438.623 106.049 438.623 107.498H442.393C442.393 107.063 442.538 106.628 442.683 106.338Z" fill="white"/>
<path opacity="0.3" d="M442.393 107.933H438.623C438.768 109.383 439.348 110.543 440.218 111.557L442.828 108.948C442.683 108.658 442.538 108.368 442.393 107.933Z" fill="white"/>
<path opacity="0.3" d="M444.278 105.324V101.554C442.828 101.699 441.523 102.279 440.508 103.149L443.118 105.759C443.408 105.614 443.843 105.324 444.278 105.324Z" fill="white"/>
<path d="M444.713 100.685C444.278 100.685 443.698 100.685 443.263 100.83C440.073 101.409 437.753 104.164 437.753 107.498C437.753 111.267 440.798 114.312 444.568 114.312C446.453 114.312 448.193 113.587 449.353 112.282C450.658 110.978 451.383 109.383 451.383 107.498C451.528 103.729 448.483 100.685 444.713 100.685ZM446.888 107.353C446.888 106.918 446.743 106.483 446.453 106.048L449.063 103.439C449.933 104.454 450.513 105.759 450.658 107.353H446.888ZM440.653 111.992L443.263 109.383C443.553 109.528 443.843 109.673 444.278 109.818V113.587C442.828 113.442 441.668 112.862 440.653 111.992ZM446.018 105.759C445.728 105.469 445.293 105.324 444.713 105.324V101.554C446.163 101.554 447.613 102.134 448.628 103.149L446.018 105.759ZM442.393 107.353H438.623C438.623 105.904 439.203 104.599 440.073 103.584L442.683 106.193C442.538 106.628 442.393 107.063 442.393 107.353ZM442.393 107.933C442.538 108.368 442.683 108.658 442.828 108.948L440.218 111.557C439.348 110.543 438.768 109.383 438.623 107.933H442.393ZM444.713 109.383C443.698 109.383 442.828 108.513 442.828 107.498C442.828 106.483 443.698 105.613 444.713 105.613C445.438 105.613 446.018 106.048 446.308 106.628V106.773C446.453 106.918 446.453 107.208 446.453 107.498C446.453 107.788 446.453 107.933 446.308 108.223C446.163 108.948 445.438 109.383 444.713 109.383ZM444.858 109.818C445.293 109.818 445.583 109.673 445.873 109.528L448.483 112.137C447.468 113.007 446.163 113.587 444.858 113.587V109.818ZM444.278 101.554V105.324C443.843 105.469 443.408 105.614 443.118 105.904L440.508 103.294C441.523 102.279 442.828 101.699 444.278 101.554ZM448.918 111.702L446.308 109.093C446.598 108.803 446.743 108.368 446.888 107.933H450.658C450.513 109.383 449.933 110.688 448.918 111.702Z" fill="white"/>
</g>
<g>
<path d="M485.603 123.3C494.332 123.3 501.408 116.225 501.408 107.498C501.408 98.771 494.332 91.6962 485.603 91.6962C476.874 91.6962 469.798 98.771 469.798 107.498C469.798 116.225 476.874 123.3 485.603 123.3Z" fill="#3B5266"/>
<path d="M474.873 107.498C474.873 103.294 477.193 99.8147 480.673 97.9301L480.093 97.0603C476.323 99.0899 473.713 103.004 473.713 107.498C473.713 111.992 476.323 115.907 480.093 117.936L480.673 117.066C477.193 115.182 474.873 111.702 474.873 107.498Z" fill="#76C1AA"/>
<path d="M491.113 97.0603L490.678 97.9301C494.158 99.6698 496.623 103.294 496.623 107.498C496.623 111.702 494.158 115.327 490.678 117.066L491.113 117.936C494.883 115.907 497.493 111.992 497.493 107.498C497.348 103.004 494.883 98.9449 491.113 97.0603Z" fill="#76C1AA"/>
<path opacity="0.3" d="M485.603 109.818C486.884 109.818 487.923 108.779 487.923 107.498C487.923 106.217 486.884 105.179 485.603 105.179C484.321 105.179 483.283 106.217 483.283 107.498C483.283 108.779 484.321 109.818 485.603 109.818Z" fill="white"/>
<path opacity="0.3" d="M487.053 105.759L489.663 103.149C488.648 102.134 487.343 101.554 485.748 101.554V105.324C486.183 105.324 486.618 105.469 487.053 105.759Z" fill="white"/>
<path opacity="0.3" d="M487.778 107.353H491.548C491.548 105.904 490.968 104.454 489.953 103.439L487.343 106.048C487.633 106.483 487.778 106.918 487.778 107.353Z" fill="white"/>
<path opacity="0.3" d="M487.198 109.093L489.808 111.703C490.823 110.688 491.403 109.383 491.403 107.933H487.633C487.778 108.368 487.488 108.803 487.198 109.093Z" fill="white"/>
<path opacity="0.3" d="M484.297 109.383L481.688 111.992C482.702 112.862 483.862 113.442 485.312 113.442V109.673C484.877 109.673 484.442 109.528 484.297 109.383Z" fill="white"/>
<path opacity="0.3" d="M485.748 109.818V113.587C487.198 113.587 488.503 113.007 489.373 112.137L486.763 109.528C486.473 109.673 486.183 109.673 485.748 109.818Z" fill="white"/>
<path opacity="0.3" d="M483.718 106.338L481.108 103.729C480.238 104.744 479.658 106.049 479.658 107.498H483.428C483.283 107.063 483.428 106.628 483.718 106.338Z" fill="white"/>
<path opacity="0.3" d="M483.428 107.933H479.658C479.803 109.383 480.383 110.543 481.253 111.557L483.863 108.948C483.573 108.658 483.428 108.368 483.428 107.933Z" fill="white"/>
<path opacity="0.3" d="M485.167 105.324V101.554C483.717 101.699 482.412 102.279 481.397 103.149L484.007 105.759C484.297 105.614 484.732 105.324 485.167 105.324Z" fill="white"/>
<path d="M485.748 100.685C485.313 100.685 484.733 100.685 484.298 100.83C481.108 101.409 478.788 104.164 478.788 107.498C478.788 111.267 481.833 114.312 485.603 114.312C487.488 114.312 489.228 113.587 490.388 112.282C491.693 110.978 492.418 109.383 492.418 107.498C492.563 103.729 489.518 100.685 485.748 100.685ZM487.778 107.353C487.778 106.918 487.633 106.483 487.343 106.048L489.953 103.439C490.823 104.454 491.403 105.759 491.548 107.353H487.778ZM481.543 111.992L484.153 109.383C484.443 109.528 484.733 109.673 485.168 109.818V113.587C483.863 113.442 482.558 112.862 481.543 111.992ZM487.053 105.759C486.763 105.469 486.328 105.324 485.748 105.324V101.554C487.198 101.554 488.648 102.134 489.663 103.149L487.053 105.759ZM483.283 107.353H479.513C479.513 105.904 480.093 104.599 480.963 103.584L483.573 106.193C483.428 106.628 483.283 107.063 483.283 107.353ZM483.428 107.933C483.573 108.368 483.718 108.658 483.863 108.948L481.253 111.557C480.383 110.543 479.803 109.383 479.658 107.933H483.428ZM485.603 109.383C484.588 109.383 483.718 108.513 483.718 107.498C483.718 106.483 484.588 105.613 485.603 105.613C486.328 105.613 486.908 106.048 487.198 106.628V106.773C487.343 106.918 487.343 107.208 487.343 107.498C487.343 107.788 487.343 107.933 487.198 108.223C487.053 108.948 486.328 109.383 485.603 109.383ZM485.748 109.818C486.183 109.818 486.473 109.673 486.763 109.528L489.373 112.137C488.358 113.007 487.053 113.587 485.748 113.587V109.818ZM485.168 101.554V105.324C484.733 105.469 484.298 105.614 484.008 105.904L481.398 103.294C482.413 102.279 483.718 101.699 485.168 101.554ZM489.808 111.702L487.198 109.093C487.488 108.803 487.633 108.368 487.778 107.933H491.548C491.403 109.383 490.823 110.688 489.808 111.702Z" fill="white"/>
</g>
<g>
<path d="M526.637 123.3C535.366 123.3 542.442 116.225 542.442 107.498C542.442 98.771 535.366 91.6962 526.637 91.6962C517.909 91.6962 510.833 98.771 510.833 107.498C510.833 116.225 517.909 123.3 526.637 123.3Z" fill="#3B5266"/>
<path d="M515.908 107.498C515.908 103.294 518.228 99.8147 521.708 97.9301L521.128 97.0603C517.358 99.0899 514.748 103.004 514.748 107.498C514.748 111.992 517.358 115.907 521.128 117.936L521.708 117.066C518.228 115.182 515.908 111.702 515.908 107.498Z" fill="#76C1AA"/>
<path d="M532.002 97.0603L531.567 97.9301C535.047 99.6698 537.512 103.294 537.512 107.498C537.512 111.702 535.047 115.327 531.567 117.066L532.002 117.936C535.772 115.907 538.382 111.992 538.382 107.498C538.382 103.004 535.772 98.9449 532.002 97.0603Z" fill="#76C1AA"/>
<path opacity="0.3" d="M526.637 109.818C527.919 109.818 528.957 108.779 528.957 107.498C528.957 106.217 527.919 105.179 526.637 105.179C525.356 105.179 524.317 106.217 524.317 107.498C524.317 108.779 525.356 109.818 526.637 109.818Z" fill="white"/>
<path opacity="0.3" d="M527.942 105.759L530.552 103.149C529.537 102.134 528.232 101.554 526.637 101.554V105.324C527.217 105.324 527.652 105.469 527.942 105.759Z" fill="white"/>
<path opacity="0.3" d="M528.812 107.353H532.582C532.582 105.904 532.002 104.454 530.987 103.439L528.377 106.048C528.667 106.483 528.812 106.918 528.812 107.353Z" fill="white"/>
<path opacity="0.3" d="M528.232 109.093L530.842 111.703C531.857 110.688 532.437 109.383 532.437 107.933H528.812C528.667 108.368 528.522 108.803 528.232 109.093Z" fill="white"/>
<path opacity="0.3" d="M525.187 109.383L522.577 111.992C523.592 112.862 524.752 113.442 526.202 113.442V109.673C525.767 109.673 525.477 109.528 525.187 109.383Z" fill="white"/>
<path opacity="0.3" d="M526.637 109.818V113.587C528.087 113.587 529.392 113.007 530.262 112.137L527.652 109.528C527.507 109.673 527.072 109.673 526.637 109.818Z" fill="white"/>
<path opacity="0.3" d="M524.607 106.338L521.997 103.729C521.127 104.744 520.547 106.049 520.547 107.498H524.317C524.317 107.063 524.462 106.628 524.607 106.338Z" fill="white"/>
<path opacity="0.3" d="M524.317 107.933H520.547C520.692 109.383 521.272 110.543 522.142 111.557L524.753 108.948C524.607 108.658 524.317 108.368 524.317 107.933Z" fill="white"/>
<path opacity="0.3" d="M526.203 105.324V101.554C524.753 101.699 523.448 102.279 522.433 103.149L525.043 105.759C525.333 105.614 525.768 105.324 526.203 105.324Z" fill="white"/>
<path d="M526.637 100.685C526.202 100.685 525.622 100.685 525.187 100.83C521.997 101.409 519.677 104.164 519.677 107.498C519.677 111.267 522.722 114.312 526.492 114.312C528.377 114.312 530.117 113.587 531.277 112.282C532.582 110.978 533.307 109.383 533.307 107.498C533.452 103.729 530.407 100.685 526.637 100.685ZM528.812 107.353C528.812 106.918 528.667 106.483 528.377 106.048L530.987 103.439C531.857 104.454 532.437 105.759 532.582 107.353H528.812ZM522.577 111.992L525.187 109.383C525.477 109.528 525.767 109.673 526.202 109.818V113.587C524.752 113.442 523.447 112.862 522.577 111.992ZM527.942 105.759C527.652 105.469 527.217 105.324 526.637 105.324V101.554C528.087 101.554 529.537 102.134 530.552 103.149L527.942 105.759ZM524.317 107.353H520.547C520.547 105.904 521.127 104.599 521.997 103.584L524.607 106.193C524.462 106.628 524.317 107.063 524.317 107.353ZM524.317 107.933C524.462 108.368 524.607 108.658 524.752 108.948L522.142 111.557C521.272 110.543 520.692 109.383 520.547 107.933H524.317ZM526.637 109.383C525.622 109.383 524.752 108.513 524.752 107.498C524.752 106.483 525.622 105.613 526.637 105.613C527.362 105.613 527.942 106.048 528.232 106.628V106.773C528.377 106.918 528.377 107.208 528.377 107.498C528.377 107.788 528.377 107.933 528.232 108.223C527.942 108.948 527.362 109.383 526.637 109.383ZM526.637 109.818C527.072 109.818 527.362 109.673 527.652 109.528L530.262 112.137C529.247 113.007 527.942 113.587 526.637 113.587V109.818ZM526.202 101.554V105.324C525.767 105.469 525.332 105.614 525.042 105.904L522.432 103.294C523.302 102.279 524.607 101.699 526.202 101.554ZM530.842 111.702L528.232 109.093C528.522 108.803 528.667 108.368 528.812 107.933H532.582C532.437 109.383 531.712 110.688 530.842 111.702Z" fill="white"/>
</g>
<g>
<path d="M567.528 123.3C576.256 123.3 583.333 116.225 583.333 107.498C583.333 98.771 576.256 91.6962 567.528 91.6962C558.799 91.6962 551.723 98.771 551.723 107.498C551.723 116.225 558.799 123.3 567.528 123.3Z" fill="#3B5266"/>
<path d="M556.798 107.498C556.798 103.294 559.118 99.8147 562.598 97.9301L562.018 97.0603C558.248 99.0899 555.638 103.004 555.638 107.498C555.638 111.992 558.248 115.907 562.018 117.936L562.598 117.066C559.118 115.182 556.798 111.702 556.798 107.498Z" fill="#76C1AA"/>
<path d="M572.893 97.0603L572.458 97.9301C575.938 99.6698 578.403 103.294 578.403 107.498C578.403 111.702 575.938 115.327 572.458 117.066L572.893 117.936C576.663 115.907 579.273 111.992 579.273 107.498C579.273 103.004 576.663 98.9449 572.893 97.0603Z" fill="#76C1AA"/>
<path opacity="0.3" d="M567.528 109.818C568.809 109.818 569.847 108.779 569.847 107.498C569.847 106.217 568.809 105.179 567.528 105.179C566.246 105.179 565.208 106.217 565.208 107.498C565.208 108.779 566.246 109.818 567.528 109.818Z" fill="white"/>
<path opacity="0.3" d="M568.833 105.759L571.443 103.149C570.428 102.134 569.123 101.554 567.528 101.554V105.324C568.108 105.324 568.543 105.469 568.833 105.759Z" fill="white"/>
<path opacity="0.3" d="M569.703 107.353H573.473C573.473 105.904 572.893 104.454 571.878 103.439L569.268 106.048C569.558 106.483 569.703 106.918 569.703 107.353Z" fill="white"/>
<path opacity="0.3" d="M569.123 109.093L571.733 111.703C572.748 110.688 573.328 109.383 573.328 107.933H569.558C569.558 108.368 569.413 108.803 569.123 109.093Z" fill="white"/>
<path opacity="0.3" d="M566.078 109.383L563.468 111.992C564.483 112.862 565.643 113.442 567.093 113.442V109.673C566.658 109.673 566.368 109.528 566.078 109.383Z" fill="white"/>
<path opacity="0.3" d="M567.673 109.818V113.587C569.123 113.587 570.428 113.007 571.298 112.137L568.688 109.528C568.398 109.673 567.963 109.673 567.673 109.818Z" fill="white"/>
<path opacity="0.3" d="M565.498 106.338L562.888 103.729C562.018 104.744 561.438 106.049 561.438 107.498H565.208C565.208 107.063 565.353 106.628 565.498 106.338Z" fill="white"/>
<path opacity="0.3" d="M565.208 107.933H561.438C561.583 109.383 562.163 110.543 563.033 111.557L565.643 108.948C565.498 108.658 565.353 108.368 565.208 107.933Z" fill="white"/>
<path opacity="0.3" d="M567.093 105.324V101.554C565.643 101.699 564.338 102.279 563.323 103.149L565.933 105.759C566.223 105.614 566.658 105.324 567.093 105.324Z" fill="white"/>
<path d="M567.528 100.685C567.093 100.685 566.513 100.685 566.078 100.83C562.888 101.409 560.568 104.164 560.568 107.498C560.568 111.267 563.613 114.312 567.383 114.312C569.268 114.312 571.008 113.587 572.168 112.282C573.473 110.978 574.198 109.383 574.198 107.498C574.343 103.729 571.298 100.685 567.528 100.685ZM569.703 107.353C569.703 106.918 569.558 106.483 569.268 106.048L571.878 103.439C572.748 104.454 573.328 105.759 573.473 107.353H569.703ZM563.468 111.992L566.078 109.383C566.368 109.528 566.658 109.673 567.093 109.818V113.587C565.643 113.442 564.483 112.862 563.468 111.992ZM568.833 105.759C568.543 105.469 568.108 105.324 567.528 105.324V101.554C568.978 101.554 570.428 102.134 571.443 103.149L568.833 105.759ZM565.208 107.353H561.438C561.438 105.904 562.018 104.599 562.888 103.584L565.498 106.193C565.353 106.628 565.208 107.063 565.208 107.353ZM565.208 107.933C565.353 108.368 565.498 108.658 565.643 108.948L563.033 111.557C562.163 110.543 561.583 109.383 561.438 107.933H565.208ZM567.528 109.383C566.513 109.383 565.643 108.513 565.643 107.498C565.643 106.483 566.513 105.613 567.528 105.613C568.253 105.613 568.833 106.048 569.123 106.628V106.773C569.268 106.918 569.268 107.208 569.268 107.498C569.268 107.788 569.268 107.933 569.123 108.223C568.978 108.948 568.253 109.383 567.528 109.383ZM567.673 109.818C568.108 109.818 568.398 109.673 568.688 109.528L571.298 112.137C570.283 113.007 568.978 113.587 567.673 113.587V109.818ZM567.093 101.554V105.324C566.658 105.469 566.223 105.614 565.933 105.904L563.323 103.294C564.338 102.279 565.643 101.699 567.093 101.554ZM571.733 111.702L569.123 109.093C569.413 108.803 569.558 108.368 569.703 107.933H573.473C573.328 109.383 572.748 110.688 571.733 111.702Z" fill="white"/>
</g>
<g>
<path d="M608.417 123.3C617.146 123.3 624.222 116.225 624.222 107.498C624.222 98.771 617.146 91.6962 608.417 91.6962C599.688 91.6962 592.612 98.771 592.612 107.498C592.612 116.225 599.688 123.3 608.417 123.3Z" fill="#3B5266"/>
<path d="M597.687 107.498C597.687 103.294 600.007 99.8147 603.487 97.9301L602.907 97.0603C599.137 99.0899 596.527 103.004 596.527 107.498C596.527 111.992 599.137 115.907 602.907 117.936L603.487 117.066C600.152 115.182 597.687 111.702 597.687 107.498Z" fill="#76C1AA"/>
<path d="M613.927 97.0603L613.492 97.9301C616.972 99.6698 619.437 103.294 619.437 107.498C619.437 111.702 616.972 115.327 613.492 117.066L613.927 117.936C617.697 115.907 620.307 111.992 620.307 107.498C620.307 103.004 617.697 98.9449 613.927 97.0603Z" fill="#76C1AA"/>
<path opacity="0.3" d="M608.417 109.818C609.698 109.818 610.737 108.779 610.737 107.498C610.737 106.217 609.698 105.179 608.417 105.179C607.136 105.179 606.097 106.217 606.097 107.498C606.097 108.779 607.136 109.818 608.417 109.818Z" fill="white"/>
<path opacity="0.3" d="M609.868 105.759L612.478 103.149C611.463 102.134 610.158 101.554 608.562 101.554V105.324C608.998 105.324 609.433 105.469 609.868 105.759Z" fill="white"/>
<path opacity="0.3" d="M610.738 107.353H614.508C614.508 105.904 613.928 104.454 612.913 103.439L610.303 106.048C610.448 106.483 610.593 106.918 610.738 107.353Z" fill="white"/>
<path opacity="0.3" d="M610.013 109.093L612.623 111.703C613.638 110.688 614.218 109.383 614.218 107.933H610.448C610.593 108.368 610.303 108.803 610.013 109.093Z" fill="white"/>
<path opacity="0.3" d="M607.112 109.383L604.502 111.992C605.517 112.862 606.677 113.442 608.127 113.442V109.673C607.692 109.673 607.402 109.528 607.112 109.383Z" fill="white"/>
<path opacity="0.3" d="M608.562 109.818V113.587C610.013 113.587 611.318 113.007 612.188 112.137L609.578 109.528C609.288 109.673 608.998 109.673 608.562 109.818Z" fill="white"/>
<path opacity="0.3" d="M606.533 106.338L603.923 103.729C603.053 104.744 602.473 106.049 602.473 107.498H606.243C606.243 107.063 606.243 106.628 606.533 106.338Z" fill="white"/>
<path opacity="0.3" d="M606.243 107.933H602.473C602.618 109.383 603.198 110.543 604.068 111.557L606.678 108.948C606.388 108.658 606.243 108.368 606.243 107.933Z" fill="white"/>
<path opacity="0.3" d="M607.983 105.324V101.554C606.533 101.699 605.228 102.279 604.213 103.149L606.823 105.759C607.258 105.614 607.548 105.324 607.983 105.324Z" fill="white"/>
<path d="M608.562 100.685C608.127 100.685 607.547 100.685 607.112 100.83C603.923 101.409 601.603 104.164 601.603 107.498C601.603 111.267 604.647 114.312 608.417 114.312C610.302 114.312 612.042 113.587 613.202 112.282C614.507 110.978 615.232 109.383 615.232 107.498C615.377 103.729 612.332 100.685 608.562 100.685ZM610.737 107.353C610.737 106.918 610.592 106.483 610.302 106.048L612.912 103.439C613.782 104.454 614.362 105.759 614.507 107.353H610.737ZM604.503 111.992L607.112 109.383C607.402 109.528 607.692 109.673 608.127 109.818V113.587C606.678 113.442 605.373 112.862 604.503 111.992ZM609.868 105.759C609.578 105.469 609.142 105.324 608.562 105.324V101.554C610.012 101.554 611.462 102.134 612.477 103.149L609.868 105.759ZM606.097 107.353H602.328C602.328 105.904 602.908 104.599 603.778 103.584L606.387 106.193C606.242 106.628 606.242 107.063 606.097 107.353ZM606.242 107.933C606.387 108.368 606.533 108.658 606.678 108.948L604.067 111.557C603.198 110.543 602.617 109.383 602.472 107.933H606.242ZM608.417 109.383C607.402 109.383 606.532 108.513 606.532 107.498C606.532 106.483 607.402 105.613 608.417 105.613C609.142 105.613 609.722 106.048 610.012 106.628V106.773C610.157 106.918 610.157 107.208 610.157 107.498C610.157 107.788 610.157 107.933 610.012 108.223C609.867 108.948 609.287 109.383 608.417 109.383ZM608.562 109.818C608.997 109.818 609.287 109.673 609.577 109.528L612.187 112.137C611.172 113.007 609.867 113.587 608.562 113.587V109.818ZM607.982 101.554V105.324C607.547 105.469 607.112 105.614 606.822 105.904L604.213 103.294C605.227 102.279 606.532 101.699 607.982 101.554ZM612.767 111.702L610.157 109.093C610.447 108.803 610.592 108.368 610.737 107.933H614.507C614.217 109.383 613.637 110.688 612.767 111.702Z" fill="white"/>
</g>
<g>
<path d="M649.452 123.3C658.181 123.3 665.257 116.225 665.257 107.498C665.257 98.771 658.181 91.6962 649.452 91.6962C640.723 91.6962 633.647 98.771 633.647 107.498C633.647 116.225 640.723 123.3 649.452 123.3Z" fill="#3B5266"/>
<path d="M638.722 107.498C638.722 103.294 641.042 99.8147 644.522 97.9301L643.942 97.0603C640.172 99.0899 637.562 103.004 637.562 107.498C637.562 111.992 640.172 115.907 643.942 117.936L644.522 117.066C641.042 115.182 638.722 111.702 638.722 107.498Z" fill="#76C1AA"/>
<path d="M654.817 97.0603L654.382 97.9301C657.862 99.6698 660.327 103.294 660.327 107.498C660.327 111.702 657.862 115.327 654.382 117.066L654.817 117.936C658.587 115.907 661.197 111.992 661.197 107.498C661.197 103.004 658.587 98.9449 654.817 97.0603Z" fill="#76C1AA"/>
<path opacity="0.3" d="M649.452 109.818C650.733 109.818 651.772 108.779 651.772 107.498C651.772 106.217 650.733 105.179 649.452 105.179C648.171 105.179 647.132 106.217 647.132 107.498C647.132 108.779 648.171 109.818 649.452 109.818Z" fill="white"/>
<path opacity="0.3" d="M650.757 105.759L653.367 103.149C652.352 102.134 651.047 101.554 649.452 101.554V105.324C650.032 105.324 650.467 105.469 650.757 105.759Z" fill="white"/>
<path opacity="0.3" d="M651.627 107.353H655.397C655.397 105.904 654.817 104.454 653.802 103.439L651.192 106.048C651.482 106.483 651.627 106.918 651.627 107.353Z" fill="white"/>
<path opacity="0.3" d="M651.047 109.093L653.657 111.703C654.672 110.688 655.252 109.383 655.252 107.933H651.482C651.482 108.368 651.337 108.803 651.047 109.093Z" fill="white"/>
<path opacity="0.3" d="M648.002 109.383L645.392 111.992C646.407 112.862 647.567 113.442 649.017 113.442V109.673C648.582 109.673 648.292 109.528 648.002 109.383Z" fill="white"/>
<path opacity="0.3" d="M649.597 109.818V113.587C651.047 113.587 652.352 113.007 653.222 112.137L650.612 109.528C650.322 109.673 649.887 109.673 649.597 109.818Z" fill="white"/>
<path opacity="0.3" d="M647.422 106.338L644.812 103.729C643.942 104.744 643.362 106.049 643.362 107.498H647.132C647.132 107.063 647.277 106.628 647.422 106.338Z" fill="white"/>
<path opacity="0.3" d="M647.132 107.933H643.362C643.507 109.383 644.087 110.543 644.957 111.557L647.567 108.948C647.422 108.658 647.277 108.368 647.132 107.933Z" fill="white"/>
<path opacity="0.3" d="M649.017 105.324V101.554C647.567 101.699 646.262 102.279 645.247 103.149L647.857 105.759C648.147 105.614 648.582 105.324 649.017 105.324Z" fill="white"/>
<path d="M649.452 100.685C649.017 100.685 648.437 100.685 648.002 100.83C644.812 101.409 642.492 104.164 642.492 107.498C642.492 111.267 645.537 114.312 649.307 114.312C651.192 114.312 652.932 113.587 654.092 112.282C655.397 110.978 656.122 109.383 656.122 107.498C656.267 103.729 653.222 100.685 649.452 100.685ZM651.627 107.353C651.627 106.918 651.482 106.483 651.192 106.048L653.802 103.439C654.672 104.454 655.252 105.759 655.397 107.353H651.627ZM645.392 111.992L648.002 109.383C648.292 109.528 648.582 109.673 649.017 109.818V113.587C647.567 113.442 646.407 112.862 645.392 111.992ZM650.757 105.759C650.467 105.469 650.032 105.324 649.452 105.324V101.554C650.902 101.554 652.352 102.134 653.367 103.149L650.757 105.759ZM647.132 107.353H643.362C643.362 105.904 643.942 104.599 644.812 103.584L647.422 106.193C647.277 106.628 647.132 107.063 647.132 107.353ZM647.132 107.933C647.277 108.368 647.422 108.658 647.567 108.948L644.957 111.557C644.087 110.543 643.507 109.383 643.362 107.933H647.132ZM649.452 109.383C648.437 109.383 647.567 108.513 647.567 107.498C647.567 106.483 648.437 105.613 649.452 105.613C650.177 105.613 650.757 106.048 651.047 106.628V106.773C651.192 106.918 651.192 107.208 651.192 107.498C651.192 107.788 651.192 107.933 651.047 108.223C650.757 108.948 650.177 109.383 649.452 109.383ZM649.597 109.818C650.032 109.818 650.322 109.673 650.612 109.528L653.222 112.137C652.207 113.007 650.902 113.587 649.597 113.587V109.818ZM649.017 101.554V105.324C648.582 105.469 648.147 105.614 647.857 105.904L645.247 103.294C646.117 102.279 647.567 101.699 649.017 101.554ZM653.657 111.702L651.047 109.093C651.337 108.803 651.482 108.368 651.627 107.933H655.397C655.252 109.383 654.672 110.688 653.657 111.702Z" fill="white"/>
</g>
<g>
<path d="M690.342 123.3C699.071 123.3 706.147 116.225 706.147 107.498C706.147 98.771 699.071 91.6962 690.342 91.6962C681.613 91.6962 674.537 98.771 674.537 107.498C674.537 116.225 681.613 123.3 690.342 123.3Z" fill="#3B5266"/>
<path d="M679.612 107.498C679.612 103.294 681.932 99.8147 685.412 97.9301L684.832 97.0603C681.062 99.0899 678.452 103.004 678.452 107.498C678.452 111.992 681.062 115.907 684.832 117.936L685.412 117.066C681.932 115.182 679.612 111.702 679.612 107.498Z" fill="#76C1AA"/>
<path d="M695.852 97.0603L695.417 97.9301C698.897 99.6698 701.362 103.294 701.362 107.498C701.362 111.702 698.897 115.327 695.417 117.066L695.852 117.936C699.622 115.907 702.232 111.992 702.232 107.498C702.087 103.004 699.622 98.9449 695.852 97.0603Z" fill="#76C1AA"/>
<path opacity="0.3" d="M690.342 109.818C691.623 109.818 692.662 108.779 692.662 107.498C692.662 106.217 691.623 105.179 690.342 105.179C689.061 105.179 688.022 106.217 688.022 107.498C688.022 108.779 689.061 109.818 690.342 109.818Z" fill="white"/>
<path opacity="0.3" d="M691.792 105.759L694.402 103.149C693.387 102.134 692.082 101.554 690.487 101.554V105.324C690.922 105.324 691.357 105.469 691.792 105.759Z" fill="white"/>
<path opacity="0.3" d="M692.517 107.353H696.287C696.287 105.904 695.707 104.454 694.692 103.439L692.082 106.048C692.372 106.483 692.517 106.918 692.517 107.353Z" fill="white"/>
<path opacity="0.3" d="M691.937 109.093L694.547 111.703C695.562 110.688 696.142 109.383 696.142 107.933H692.372C692.517 108.368 692.227 108.803 691.937 109.093Z" fill="white"/>
<path opacity="0.3" d="M688.892 109.383L686.282 111.992C687.297 112.862 688.457 113.442 689.907 113.442V109.673C689.617 109.673 689.182 109.528 688.892 109.383Z" fill="white"/>
<path opacity="0.3" d="M690.487 109.818V113.587C691.937 113.587 693.242 113.007 694.112 112.137L691.502 109.528C691.212 109.673 690.922 109.673 690.487 109.818Z" fill="white"/>
<path opacity="0.3" d="M688.457 106.338L685.847 103.729C684.977 104.744 684.397 106.049 684.397 107.498H688.167C688.022 107.063 688.167 106.628 688.457 106.338Z" fill="white"/>
<path opacity="0.3" d="M688.022 107.933H684.252C684.397 109.383 684.977 110.543 685.847 111.557L688.457 108.948C688.312 108.658 688.167 108.368 688.022 107.933Z" fill="white"/>
<path opacity="0.3" d="M689.907 105.324V101.554C688.457 101.699 687.152 102.279 686.137 103.149L688.747 105.759C689.037 105.614 689.472 105.324 689.907 105.324Z" fill="white"/>
<path d="M690.487 100.685C690.052 100.685 689.472 100.685 689.037 100.83C685.847 101.409 683.527 104.164 683.527 107.498C683.527 111.267 686.572 114.312 690.342 114.312C692.227 114.312 693.967 113.587 695.127 112.282C696.432 110.978 697.157 109.383 697.157 107.498C697.157 103.729 694.112 100.685 690.487 100.685ZM692.517 107.353C692.517 106.918 692.372 106.483 692.082 106.048L694.692 103.439C695.562 104.454 696.142 105.759 696.287 107.353H692.517ZM686.282 111.992L688.892 109.383C689.182 109.528 689.472 109.673 689.907 109.818V113.587C688.602 113.442 687.297 112.862 686.282 111.992ZM691.792 105.759C691.502 105.469 691.067 105.324 690.487 105.324V101.554C691.937 101.554 693.387 102.134 694.402 103.149L691.792 105.759ZM688.022 107.353H684.252C684.252 105.904 684.832 104.599 685.702 103.584L688.312 106.193C688.167 106.628 688.022 107.063 688.022 107.353ZM688.022 107.933C688.167 108.368 688.312 108.658 688.457 108.948L685.847 111.557C684.977 110.543 684.397 109.383 684.252 107.933H688.022ZM690.342 109.383C689.327 109.383 688.457 108.513 688.457 107.498C688.457 106.483 689.327 105.613 690.342 105.613C691.067 105.613 691.647 106.048 691.937 106.628V106.773C692.082 106.918 692.082 107.208 692.082 107.498C692.082 107.788 692.082 107.933 691.937 108.223C691.792 108.948 691.067 109.383 690.342 109.383ZM690.487 109.818C690.922 109.818 691.212 109.673 691.502 109.528L694.112 112.137C693.097 113.007 691.792 113.587 690.487 113.587V109.818ZM689.907 101.554V105.324C689.472 105.469 689.037 105.614 688.747 105.904L686.137 103.294C687.152 102.279 688.457 101.699 689.907 101.554ZM694.547 111.702L691.937 109.093C692.227 108.803 692.372 108.368 692.517 107.933H696.287C696.142 109.383 695.562 110.688 694.547 111.702Z" fill="white"/>
</g>
<g>
<path d="M731.232 123.3C739.96 123.3 747.037 116.225 747.037 107.498C747.037 98.771 739.96 91.6962 731.232 91.6962C722.503 91.6962 715.427 98.771 715.427 107.498C715.427 116.225 722.503 123.3 731.232 123.3Z" fill="#3B5266"/>
<path d="M720.647 107.498C720.647 103.294 722.967 99.8147 726.447 97.9301L725.867 97.0603C722.097 99.0899 719.487 103.004 719.487 107.498C719.487 111.992 722.097 115.907 725.867 117.936L726.447 117.066C722.967 115.182 720.647 111.702 720.647 107.498Z" fill="#76C1AA"/>
<path d="M736.742 97.0603L736.307 97.9301C739.787 99.6698 742.252 103.294 742.252 107.498C742.252 111.702 739.787 115.327 736.307 117.066L736.742 117.936C740.512 115.907 743.122 111.992 743.122 107.498C743.122 103.004 740.512 98.9449 736.742 97.0603Z" fill="#76C1AA"/>
<path opacity="0.3" d="M731.232 109.818C732.513 109.818 733.552 108.779 733.552 107.498C733.552 106.217 732.513 105.179 731.232 105.179C729.95 105.179 728.912 106.217 728.912 107.498C728.912 108.779 729.95 109.818 731.232 109.818Z" fill="white"/>
<path opacity="0.3" d="M732.682 105.759L735.292 103.149C734.277 102.134 732.972 101.554 731.377 101.554V105.324C731.957 105.324 732.392 105.469 732.682 105.759Z" fill="white"/>
<path opacity="0.3" d="M733.552 107.353H737.322C737.322 105.904 736.742 104.454 735.727 103.439L733.117 106.048C733.262 106.483 733.552 106.918 733.552 107.353Z" fill="white"/>
<path opacity="0.3" d="M732.972 109.093L735.582 111.703C736.597 110.688 737.177 109.383 737.177 107.933H733.407C733.407 108.368 733.117 108.803 732.972 109.093Z" fill="white"/>
<path opacity="0.3" d="M729.927 109.383L727.317 111.992C728.332 112.862 729.492 113.442 730.942 113.442V109.673C730.507 109.673 730.217 109.528 729.927 109.383Z" fill="white"/>
<path opacity="0.3" d="M731.377 109.818V113.587C732.827 113.587 734.132 113.007 735.002 112.137L732.392 109.528C732.102 109.673 731.812 109.673 731.377 109.818Z" fill="white"/>
<path opacity="0.3" d="M729.347 106.338L726.737 103.729C725.867 104.744 725.287 106.049 725.287 107.498H729.057C729.057 107.063 729.202 106.628 729.347 106.338Z" fill="white"/>
<path opacity="0.3" d="M729.057 107.933H725.287C725.432 109.383 726.012 110.543 726.882 111.557L729.492 108.948C729.202 108.658 729.057 108.368 729.057 107.933Z" fill="white"/>
<path opacity="0.3" d="M730.797 105.324V101.554C729.347 101.699 728.042 102.279 727.027 103.149L729.637 105.759C730.072 105.614 730.362 105.324 730.797 105.324Z" fill="white"/>
<path d="M731.377 100.685C730.942 100.685 730.362 100.685 729.927 100.83C726.737 101.409 724.417 104.164 724.417 107.498C724.417 111.267 727.462 114.312 731.232 114.312C733.117 114.312 734.857 113.587 736.017 112.282C737.322 110.978 738.047 109.383 738.047 107.498C738.192 103.729 735.147 100.685 731.377 100.685ZM733.552 107.353C733.552 106.918 733.407 106.483 733.117 106.048L735.727 103.439C736.597 104.454 737.177 105.759 737.322 107.353H733.552ZM727.317 111.992L729.927 109.383C730.217 109.528 730.507 109.673 730.942 109.818V113.587C729.492 113.442 728.187 112.862 727.317 111.992ZM732.682 105.759C732.392 105.469 731.957 105.324 731.377 105.324V101.554C732.827 101.554 734.277 102.134 735.292 103.149L732.682 105.759ZM729.057 107.353H725.287C725.287 105.904 725.867 104.599 726.737 103.584L729.347 106.193C729.202 106.628 729.057 107.063 729.057 107.353ZM729.057 107.933C729.202 108.368 729.347 108.658 729.492 108.948L726.882 111.557C726.012 110.543 725.432 109.383 725.287 107.933H729.057ZM731.232 109.383C730.217 109.383 729.347 108.513 729.347 107.498C729.347 106.483 730.217 105.613 731.232 105.613C731.957 105.613 732.537 106.048 732.827 106.628V106.773C732.972 106.918 732.972 107.208 732.972 107.498C732.972 107.788 732.972 107.933 732.827 108.223C732.682 108.948 732.102 109.383 731.232 109.383ZM731.377 109.818C731.812 109.818 732.102 109.673 732.392 109.528L735.002 112.137C733.987 113.007 732.682 113.587 731.377 113.587V109.818ZM730.797 101.554V105.324C730.362 105.469 729.927 105.614 729.637 105.904L727.027 103.294C728.042 102.279 729.347 101.699 730.797 101.554ZM735.582 111.702L732.972 109.093C733.262 108.803 733.407 108.368 733.552 107.933H737.322C737.032 109.383 736.452 110.688 735.582 111.702Z" fill="white"/>
</g>
<g>
<path d="M772.266 123.3C780.995 123.3 788.071 116.225 788.071 107.498C788.071 98.771 780.995 91.6962 772.266 91.6962C763.538 91.6962 756.461 98.771 756.461 107.498C756.461 116.225 763.538 123.3 772.266 123.3Z" fill="#3B5266"/>
<path d="M761.536 107.498C761.536 103.294 763.856 99.8147 767.336 97.9301L766.756 97.0603C762.986 99.0899 760.376 103.004 760.376 107.498C760.376 111.992 762.986 115.907 766.756 117.936L767.336 117.066C763.856 115.182 761.536 111.702 761.536 107.498Z" fill="#76C1AA"/>
<path d="M777.631 97.0603L777.196 97.9301C780.676 99.6698 783.141 103.294 783.141 107.498C783.141 111.702 780.676 115.327 777.196 117.066L777.631 117.936C781.401 115.907 784.011 111.992 784.011 107.498C784.011 103.004 781.401 98.9449 777.631 97.0603Z" fill="#76C1AA"/>
<path opacity="0.3" d="M772.266 109.818C773.548 109.818 774.586 108.779 774.586 107.498C774.586 106.217 773.548 105.179 772.266 105.179C770.985 105.179 769.946 106.217 769.946 107.498C769.946 108.779 770.985 109.818 772.266 109.818Z" fill="white"/>
<path opacity="0.3" d="M773.572 105.759L776.182 103.149C775.167 102.134 773.862 101.554 772.267 101.554V105.324C772.847 105.324 773.282 105.469 773.572 105.759Z" fill="white"/>
<path opacity="0.3" d="M774.442 107.353H778.212C778.212 105.904 777.632 104.454 776.617 103.439L774.007 106.048C774.297 106.483 774.442 106.918 774.442 107.353Z" fill="white"/>
<path opacity="0.3" d="M773.862 109.093L776.472 111.703C777.487 110.688 778.067 109.383 778.067 107.933H774.297C774.297 108.368 774.152 108.803 773.862 109.093Z" fill="white"/>
<path opacity="0.3" d="M770.817 109.383L768.207 111.992C769.222 112.862 770.382 113.442 771.832 113.442V109.673C771.397 109.673 771.107 109.528 770.817 109.383Z" fill="white"/>
<path opacity="0.3" d="M772.412 109.818V113.587C773.862 113.587 775.167 113.007 776.037 112.137L773.427 109.528C773.137 109.673 772.702 109.673 772.412 109.818Z" fill="white"/>
<path opacity="0.3" d="M770.237 106.338L767.627 103.729C766.757 104.744 766.177 106.049 766.177 107.498H769.947C769.947 107.063 770.092 106.628 770.237 106.338Z" fill="white"/>
<path opacity="0.3" d="M769.947 107.933H766.177C766.322 109.383 766.902 110.543 767.772 111.557L770.382 108.948C770.237 108.658 770.092 108.368 769.947 107.933Z" fill="white"/>
<path opacity="0.3" d="M771.831 105.324V101.554C770.381 101.699 769.077 102.279 768.062 103.149L770.672 105.759C770.962 105.614 771.396 105.324 771.831 105.324Z" fill="white"/>
<path d="M772.267 100.685C771.832 100.685 771.252 100.685 770.817 100.83C767.627 101.409 765.307 104.164 765.307 107.498C765.307 111.267 768.352 114.312 772.122 114.312C774.007 114.312 775.747 113.587 776.907 112.282C778.212 110.978 778.937 109.383 778.937 107.498C779.082 103.729 776.037 100.685 772.267 100.685ZM774.442 107.353C774.442 106.918 774.297 106.483 774.007 106.048L776.617 103.439C777.487 104.454 778.067 105.759 778.212 107.353H774.442ZM768.207 111.992L770.817 109.383C771.107 109.528 771.397 109.673 771.832 109.818V113.587C770.382 113.442 769.222 112.862 768.207 111.992ZM773.572 105.759C773.282 105.469 772.847 105.324 772.267 105.324V101.554C773.717 101.554 775.167 102.134 776.182 103.149L773.572 105.759ZM769.947 107.353H766.177C766.177 105.904 766.757 104.599 767.627 103.584L770.237 106.193C770.092 106.628 769.947 107.063 769.947 107.353ZM769.947 107.933C770.092 108.368 770.237 108.658 770.382 108.948L767.772 111.557C766.902 110.543 766.322 109.383 766.177 107.933H769.947ZM772.267 109.383C771.252 109.383 770.382 108.513 770.382 107.498C770.382 106.483 771.252 105.613 772.267 105.613C772.992 105.613 773.572 106.048 773.862 106.628V106.773C774.007 106.918 774.007 107.208 774.007 107.498C774.007 107.788 774.007 107.933 773.862 108.223C773.717 108.948 772.992 109.383 772.267 109.383ZM772.412 109.818C772.847 109.818 773.137 109.673 773.427 109.528L776.037 112.137C775.022 113.007 773.717 113.587 772.412 113.587V109.818ZM771.832 101.554V105.324C771.397 105.469 770.962 105.614 770.672 105.904L768.062 103.294C769.077 102.279 770.382 101.699 771.832 101.554ZM776.472 111.702L773.862 109.093C774.152 108.803 774.297 108.368 774.442 107.933H778.212C778.067 109.383 777.487 110.688 776.472 111.702Z" fill="white"/>
</g>
<g>
<path d="M813.156 123.3C821.885 123.3 828.961 116.225 828.961 107.498C828.961 98.771 821.885 91.6962 813.156 91.6962C804.428 91.6962 797.352 98.771 797.352 107.498C797.352 116.225 804.428 123.3 813.156 123.3Z" fill="#3B5266"/>
<path d="M802.427 107.498C802.427 103.294 804.747 99.8147 808.227 97.9301L807.647 97.0603C803.877 99.0899 801.267 103.004 801.267 107.498C801.267 111.992 803.877 115.907 807.647 117.936L808.227 117.066C804.892 115.182 802.427 111.702 802.427 107.498Z" fill="#76C1AA"/>
<path d="M818.667 97.0603L818.231 97.9301C821.711 99.6698 824.176 103.294 824.176 107.498C824.176 111.702 821.711 115.327 818.231 117.066L818.667 117.936C822.436 115.907 825.046 111.992 825.046 107.498C824.901 103.004 822.436 98.9449 818.667 97.0603Z" fill="#76C1AA"/>
<path opacity="0.3" d="M813.156 109.818C814.438 109.818 815.476 108.779 815.476 107.498C815.476 106.217 814.438 105.179 813.156 105.179C811.875 105.179 810.836 106.217 810.836 107.498C810.836 108.779 811.875 109.818 813.156 109.818Z" fill="white"/>
<path opacity="0.3" d="M814.607 105.759L817.217 103.149C816.202 102.134 814.897 101.554 813.302 101.554V105.324C813.737 105.324 814.172 105.469 814.607 105.759Z" fill="white"/>
<path opacity="0.3" d="M815.332 107.353H819.102C819.102 105.904 818.522 104.454 817.507 103.439L814.897 106.048C815.187 106.483 815.332 106.918 815.332 107.353Z" fill="white"/>
<path opacity="0.3" d="M814.752 109.093L817.362 111.703C818.377 110.688 818.957 109.383 818.957 107.933H815.187C815.332 108.368 815.042 108.803 814.752 109.093Z" fill="white"/>
<path opacity="0.3" d="M811.852 109.383L809.242 111.992C810.257 112.862 811.417 113.442 812.867 113.442V109.673C812.432 109.673 811.997 109.528 811.852 109.383Z" fill="white"/>
<path opacity="0.3" d="M813.302 109.818V113.587C814.752 113.587 816.057 113.007 816.927 112.137L814.317 109.528C814.027 109.673 813.737 109.673 813.302 109.818Z" fill="white"/>
<path opacity="0.3" d="M811.272 106.338L808.662 103.729C807.792 104.744 807.212 106.049 807.212 107.498H810.982C810.837 107.063 810.982 106.628 811.272 106.338Z" fill="white"/>
<path opacity="0.3" d="M810.982 107.933H807.212C807.357 109.383 807.937 110.543 808.807 111.557L811.417 108.948C811.127 108.658 810.982 108.368 810.982 107.933Z" fill="white"/>
<path opacity="0.3" d="M812.722 105.324V101.554C811.272 101.699 809.967 102.279 808.952 103.149L811.562 105.759C811.852 105.614 812.287 105.324 812.722 105.324Z" fill="white"/>
<path d="M813.302 100.685C812.867 100.685 812.287 100.685 811.852 100.83C808.662 101.409 806.342 104.164 806.342 107.498C806.342 111.267 809.387 114.312 813.157 114.312C815.042 114.312 816.782 113.587 817.942 112.282C819.247 110.978 819.972 109.383 819.972 107.498C820.117 103.729 817.072 100.685 813.302 100.685ZM815.332 107.353C815.332 106.918 815.187 106.483 814.897 106.048L817.507 103.439C818.377 104.454 818.957 105.759 819.102 107.353H815.332ZM809.097 111.992L811.707 109.383C811.997 109.528 812.287 109.673 812.722 109.818V113.587C811.417 113.442 810.112 112.862 809.097 111.992ZM814.607 105.759C814.317 105.469 813.882 105.324 813.302 105.324V101.554C814.752 101.554 816.202 102.134 817.217 103.149L814.607 105.759ZM810.837 107.353H807.212C807.212 105.904 807.792 104.599 808.662 103.584L811.272 106.193C810.982 106.628 810.837 107.063 810.837 107.353ZM810.982 107.933C811.127 108.368 811.272 108.658 811.417 108.948L808.807 111.557C807.937 110.543 807.357 109.383 807.212 107.933H810.982ZM813.157 109.383C812.142 109.383 811.272 108.513 811.272 107.498C811.272 106.483 812.142 105.613 813.157 105.613C813.882 105.613 814.462 106.048 814.752 106.628V106.773C814.897 106.918 814.897 107.208 814.897 107.498C814.897 107.788 814.897 107.933 814.752 108.223C814.607 108.948 813.882 109.383 813.157 109.383ZM813.302 109.818C813.737 109.818 814.027 109.673 814.317 109.528L816.927 112.137C815.912 113.007 814.607 113.587 813.302 113.587V109.818ZM812.722 101.554V105.324C812.287 105.469 811.852 105.614 811.562 105.904L808.952 103.294C809.967 102.279 811.272 101.699 812.722 101.554ZM817.362 111.702L814.752 109.093C815.042 108.803 815.187 108.368 815.332 107.933H819.102C818.957 109.383 818.377 110.688 817.362 111.702Z" fill="white"/>
</g>
<g>
<path d="M854.191 123.3C862.92 123.3 869.996 116.225 869.996 107.498C869.996 98.771 862.92 91.6962 854.191 91.6962C845.462 91.6962 838.386 98.771 838.386 107.498C838.386 116.225 845.462 123.3 854.191 123.3Z" fill="#3B5266"/>
<path d="M843.461 107.498C843.461 103.294 845.781 99.8147 849.261 97.9301L848.681 97.0603C844.911 99.0899 842.301 103.004 842.301 107.498C842.301 111.992 844.911 115.907 848.681 117.936L849.261 117.066C845.781 115.182 843.461 111.702 843.461 107.498Z" fill="#76C1AA"/>
<path d="M859.556 97.0603L859.121 97.9301C862.601 99.6698 865.066 103.294 865.066 107.498C865.066 111.702 862.601 115.327 859.121 117.066L859.556 117.936C863.326 115.907 865.936 111.992 865.936 107.498C865.936 103.004 863.326 98.9449 859.556 97.0603Z" fill="#76C1AA"/>
<path opacity="0.3" d="M854.191 109.818C855.472 109.818 856.511 108.779 856.511 107.498C856.511 106.217 855.472 105.179 854.191 105.179C852.91 105.179 851.871 106.217 851.871 107.498C851.871 108.779 852.91 109.818 854.191 109.818Z" fill="white"/>
<path opacity="0.3" d="M855.496 105.759L858.106 103.149C857.091 102.134 855.786 101.554 854.191 101.554V105.324C854.771 105.324 855.206 105.469 855.496 105.759Z" fill="white"/>
<path opacity="0.3" d="M856.367 107.353H860.137C860.137 105.904 859.557 104.454 858.542 103.439L855.932 106.048C856.222 106.483 856.367 106.918 856.367 107.353Z" fill="white"/>
<path opacity="0.3" d="M855.786 109.093L858.396 111.703C859.411 110.688 859.991 109.383 859.991 107.933H856.221C856.221 108.368 856.076 108.803 855.786 109.093Z" fill="white"/>
<path opacity="0.3" d="M852.741 109.383L850.131 111.992C851.146 112.862 852.306 113.442 853.756 113.442V109.673C853.321 109.673 853.031 109.528 852.741 109.383Z" fill="white"/>
<path opacity="0.3" d="M854.191 109.818V113.587C855.641 113.587 856.946 113.007 857.816 112.137L855.206 109.528C855.061 109.673 854.626 109.673 854.191 109.818Z" fill="white"/>
<path opacity="0.3" d="M852.161 106.338L849.552 103.729C848.682 104.744 848.102 106.049 848.102 107.498H851.871C851.871 107.063 852.016 106.628 852.161 106.338Z" fill="white"/>
<path opacity="0.3" d="M851.871 107.933H848.102C848.247 109.383 848.827 110.543 849.697 111.557L852.306 108.948C852.161 108.658 851.871 108.368 851.871 107.933Z" fill="white"/>
<path opacity="0.3" d="M853.756 105.324V101.554C852.306 101.699 851.001 102.279 849.986 103.149L852.596 105.759C852.886 105.614 853.321 105.324 853.756 105.324Z" fill="white"/>
<path d="M854.191 100.685C853.756 100.685 853.176 100.685 852.741 100.83C849.552 101.409 847.231 104.164 847.231 107.498C847.231 111.267 850.276 114.312 854.046 114.312C855.931 114.312 857.671 113.587 858.831 112.282C860.136 110.978 860.861 109.383 860.861 107.498C861.006 103.729 857.961 100.685 854.191 100.685ZM856.366 107.353C856.366 106.918 856.221 106.483 855.931 106.048L858.541 103.439C859.411 104.454 859.991 105.759 860.136 107.353H856.366ZM850.131 111.992L852.741 109.383C853.031 109.528 853.321 109.673 853.756 109.818V113.587C852.306 113.442 851.001 112.862 850.131 111.992ZM855.496 105.759C855.206 105.469 854.771 105.324 854.191 105.324V101.554C855.641 101.554 857.091 102.134 858.106 103.149L855.496 105.759ZM851.871 107.353H848.101C848.101 105.904 848.681 104.599 849.551 103.584L852.161 106.193C852.016 106.628 851.871 107.063 851.871 107.353ZM851.871 107.933C852.016 108.368 852.161 108.658 852.306 108.948L849.696 111.557C848.826 110.543 848.246 109.383 848.101 107.933H851.871ZM854.191 109.383C853.176 109.383 852.306 108.513 852.306 107.498C852.306 106.483 853.176 105.613 854.191 105.613C854.916 105.613 855.496 106.048 855.786 106.628V106.773C855.931 106.918 855.931 107.208 855.931 107.498C855.931 107.788 855.931 107.933 855.786 108.223C855.496 108.948 854.916 109.383 854.191 109.383ZM854.191 109.818C854.626 109.818 854.916 109.673 855.206 109.528L857.816 112.137C856.801 113.007 855.496 113.587 854.191 113.587V109.818ZM853.756 101.554V105.324C853.321 105.469 852.886 105.614 852.596 105.904L849.986 103.294C850.856 102.279 852.161 101.699 853.756 101.554ZM858.396 111.702L855.786 109.093C856.076 108.803 856.221 108.368 856.366 107.933H860.136C859.991 109.383 859.266 110.688 858.396 111.702Z" fill="white"/>
</g>
<g>
<path d="M895.081 123.3C903.81 123.3 910.886 116.225 910.886 107.498C910.886 98.771 903.81 91.6962 895.081 91.6962C886.352 91.6962 879.276 98.771 879.276 107.498C879.276 116.225 886.352 123.3 895.081 123.3Z" fill="#3B5266"/>
<path d="M884.351 107.498C884.351 103.294 886.671 99.8147 890.151 97.9301L889.571 97.0603C885.801 99.0899 883.191 103.004 883.191 107.498C883.191 111.992 885.801 115.907 889.571 117.936L890.151 117.066C886.671 115.182 884.351 111.702 884.351 107.498Z" fill="#76C1AA"/>
<path d="M900.446 97.0603L900.011 97.9301C903.491 99.6698 905.956 103.294 905.956 107.498C905.956 111.702 903.491 115.327 900.011 117.066L900.446 117.936C904.216 115.907 906.826 111.992 906.826 107.498C906.826 103.004 904.216 98.9449 900.446 97.0603Z" fill="#76C1AA"/>
<path opacity="0.3" d="M895.081 109.818C896.362 109.818 897.401 108.779 897.401 107.498C897.401 106.217 896.362 105.179 895.081 105.179C893.799 105.179 892.761 106.217 892.761 107.498C892.761 108.779 893.799 109.818 895.081 109.818Z" fill="white"/>
<path opacity="0.3" d="M896.386 105.759L898.996 103.149C897.981 102.134 896.676 101.554 895.081 101.554V105.324C895.661 105.324 896.096 105.469 896.386 105.759Z" fill="white"/>
<path opacity="0.3" d="M897.256 107.353H901.026C901.026 105.904 900.446 104.454 899.431 103.439L896.821 106.048C897.111 106.483 897.256 106.918 897.256 107.353Z" fill="white"/>
<path opacity="0.3" d="M896.676 109.093L899.286 111.703C900.301 110.688 900.881 109.383 900.881 107.933H897.111C897.111 108.368 896.966 108.803 896.676 109.093Z" fill="white"/>
<path opacity="0.3" d="M893.631 109.383L891.021 111.992C892.036 112.862 893.196 113.442 894.646 113.442V109.673C894.211 109.673 893.921 109.528 893.631 109.383Z" fill="white"/>
<path opacity="0.3" d="M895.226 109.818V113.587C896.676 113.587 897.981 113.007 898.851 112.137L896.241 109.528C895.951 109.673 895.516 109.673 895.226 109.818Z" fill="white"/>
<path opacity="0.3" d="M893.051 106.338L890.441 103.729C889.571 104.744 888.991 106.049 888.991 107.498H892.761C892.761 107.063 892.906 106.628 893.051 106.338Z" fill="white"/>
<path opacity="0.3" d="M892.761 107.933H888.991C889.136 109.383 889.716 110.543 890.586 111.557L893.196 108.948C893.051 108.658 892.906 108.368 892.761 107.933Z" fill="white"/>
<path opacity="0.3" d="M894.646 105.324V101.554C893.196 101.699 891.891 102.279 890.876 103.149L893.486 105.759C893.776 105.614 894.211 105.324 894.646 105.324Z" fill="white"/>
<path d="M895.081 100.685C894.646 100.685 894.066 100.685 893.631 100.83C890.441 101.409 888.121 104.164 888.121 107.498C888.121 111.267 891.166 114.312 894.936 114.312C896.821 114.312 898.561 113.587 899.721 112.282C901.026 110.978 901.751 109.383 901.751 107.498C901.896 103.729 898.851 100.685 895.081 100.685ZM897.256 107.353C897.256 106.918 897.111 106.483 896.821 106.048L899.431 103.439C900.301 104.454 900.881 105.759 901.026 107.353H897.256ZM891.021 111.992L893.631 109.383C893.921 109.528 894.211 109.673 894.646 109.818V113.587C893.196 113.442 892.036 112.862 891.021 111.992ZM896.386 105.759C896.096 105.469 895.661 105.324 895.081 105.324V101.554C896.531 101.554 897.981 102.134 898.996 103.149L896.386 105.759ZM892.761 107.353H888.991C888.991 105.904 889.571 104.599 890.441 103.584L893.051 106.193C892.906 106.628 892.761 107.063 892.761 107.353ZM892.761 107.933C892.906 108.368 893.051 108.658 893.196 108.948L890.586 111.557C889.716 110.543 889.136 109.383 888.991 107.933H892.761ZM895.081 109.383C894.066 109.383 893.196 108.513 893.196 107.498C893.196 106.483 894.066 105.613 895.081 105.613C895.806 105.613 896.386 106.048 896.676 106.628V106.773C896.821 106.918 896.821 107.208 896.821 107.498C896.821 107.788 896.821 107.933 896.676 108.223C896.531 108.948 895.806 109.383 895.081 109.383ZM895.226 109.818C895.661 109.818 895.951 109.673 896.241 109.528L898.851 112.137C897.836 113.007 896.531 113.587 895.226 113.587V109.818ZM894.646 101.554V105.324C894.211 105.469 893.776 105.614 893.486 105.904L890.876 103.294C891.891 102.279 893.196 101.699 894.646 101.554ZM899.286 111.702L896.676 109.093C896.966 108.803 897.111 108.368 897.256 107.933H901.026C900.881 109.383 900.301 110.688 899.286 111.702Z" fill="white"/>
</g>
<path d="M92.385 90.3914C92.385 90.3914 92.53 90.3914 92.385 90.3914C92.53 90.3914 92.53 90.3914 92.385 90.3914C92.53 90.3914 93.545 90.2465 94.27 89.6666C94.995 88.7967 95.2849 87.3471 94.7049 86.6222C94.4149 86.3322 93.98 86.1874 93.545 86.1874C93.11 86.3324 92.82 86.4773 92.675 86.9122C92.675 87.0572 92.675 87.0571 92.675 87.2021C92.82 87.2021 92.82 87.2021 92.965 87.2021C93.11 87.0571 93.255 87.0572 93.4 87.0572C93.545 87.0572 93.545 87.2021 93.6899 87.3471C93.6899 87.492 93.69 87.6371 93.545 87.782L93.4 87.927C93.11 87.927 92.675 87.637 92.24 87.2021C91.805 86.7672 91.225 86.4773 90.79 86.1874C90.065 85.8974 87.89 85.4624 86.44 86.4773C86.44 86.4773 85.57 87.2022 85.425 87.782C85.135 88.3619 85.135 89.0867 85.28 89.5216C85.135 89.6666 84.99 89.8116 84.99 90.1016C84.99 90.5365 85.425 90.8264 86.15 90.9714C86.15 91.1163 86.005 91.1165 86.005 91.2614C86.005 91.6963 86.585 92.1312 87.31 92.1312C87.89 92.1312 88.325 91.9862 88.47 91.6962C88.615 91.9862 89.05 92.1312 89.63 92.1312C90.355 92.1312 90.935 91.6963 90.935 91.2614C90.935 91.1165 90.935 90.9714 90.79 90.9714C91.225 90.9714 91.515 90.8265 91.805 90.5366C91.805 90.5366 91.805 90.5366 91.95 90.5366C91.805 90.5366 92.095 90.5364 92.385 90.3914ZM93.4 89.8117C93.255 89.9567 92.965 89.9566 92.82 89.9566C92.965 89.0868 92.385 88.217 92.24 87.782C92.53 88.072 92.82 88.217 93.11 88.362C93.255 88.6519 93.545 89.0868 93.4 89.8117ZM91.805 90.2465C91.805 90.1015 91.66 89.8116 91.515 89.5216C91.225 88.9418 90.645 88.072 89.195 87.6371C87.31 87.0572 86.44 87.3472 86.005 87.6371C86.005 87.6371 86.005 87.637 86.15 87.492C86.295 87.347 86.44 87.2022 86.585 87.0572C87.165 86.7672 88.18 86.7672 89.63 87.2021C91.515 87.782 92.095 89.0867 92.24 89.6666C92.24 89.8116 92.385 90.1015 92.385 90.2465C92.385 90.2465 92.385 90.2465 92.24 90.2465C91.95 90.1015 91.95 90.2465 91.805 90.2465ZM89.05 88.362C88.76 88.362 88.615 88.5069 88.47 88.6518C88.18 88.3619 87.89 88.2169 87.31 88.2169C87.165 88.2169 87.02 88.2169 86.875 88.2169C87.31 88.0719 87.89 88.0719 88.47 88.0719C88.615 88.3619 88.76 88.362 89.05 88.362ZM87.31 88.6518C87.745 88.6518 88.18 88.9419 88.18 89.0868C88.18 89.2318 88.035 89.3767 87.89 89.3767H87.745C87.6 89.3767 87.455 89.3767 87.31 89.3767C86.875 89.3767 86.44 89.0867 86.44 88.9417C86.44 88.9417 86.73 88.6518 87.31 88.6518ZM87.89 89.9566H88.035C88.18 89.9566 88.18 89.9566 88.325 89.9566C88.905 89.9566 89.195 90.2465 89.195 90.3914C89.195 90.5364 88.76 90.8264 88.325 90.8264C87.745 90.8264 87.455 90.5364 87.455 90.3914C87.455 90.2465 87.6 90.1016 87.89 89.9566ZM88.615 89.2318C88.615 89.0868 89.05 88.7968 89.485 88.7968C89.63 88.7968 89.63 88.7968 89.775 88.7968C90.065 88.7968 90.355 89.0868 90.355 89.2318C90.355 89.3767 90.21 89.5216 89.92 89.6666C89.775 89.6666 89.63 89.6666 89.485 89.6666C88.905 89.6666 88.615 89.3767 88.615 89.2318ZM85.86 89.5216C85.86 89.3767 85.86 89.3767 85.86 89.2318C85.86 89.0868 86.005 88.9418 86.15 88.7968C86.005 88.9418 86.005 89.0868 86.005 89.2318C86.005 89.3767 86.005 89.5216 86.15 89.5216C86.005 89.5216 86.005 89.5216 85.86 89.5216ZM85.28 90.3914C85.28 90.2465 85.425 90.2465 85.57 90.1016C85.715 90.1016 85.86 89.9566 86.005 89.9566C86.15 89.9566 86.15 89.9566 86.295 89.9566C86.875 89.9566 87.165 90.2465 87.165 90.3914C87.165 90.5364 87.02 90.5365 87.02 90.6815C86.875 90.8265 86.585 90.8264 86.295 90.8264C85.57 90.8264 85.28 90.5364 85.28 90.3914ZM87.165 91.9863C86.585 91.9863 86.295 91.8412 86.295 91.5513C86.295 91.4063 86.73 91.1163 87.165 91.1163C87.455 91.1163 87.6 91.1165 87.89 91.2614C87.89 91.2614 88.035 91.4063 88.035 91.5513C88.035 91.6963 87.6 91.9863 87.165 91.9863ZM89.485 91.9863C88.905 91.9863 88.615 91.6963 88.615 91.5513C88.615 91.5513 88.615 91.4064 88.76 91.4064C88.905 91.2614 89.195 91.1163 89.485 91.1163C89.63 91.1163 89.775 91.1163 89.92 91.1163C90.21 91.2613 90.355 91.4063 90.355 91.5513C90.355 91.6963 89.92 91.9863 89.485 91.9863ZM91.37 90.3914C91.225 90.5364 90.935 90.6815 90.5 90.6815C90.355 90.6815 90.21 90.6815 90.065 90.6815C89.775 90.5365 89.63 90.3915 89.63 90.2465C89.63 90.1015 89.775 89.9567 90.065 89.8117C90.21 89.8117 90.355 89.8117 90.5 89.8117C90.645 89.8117 90.645 89.8117 90.79 89.8117C91.08 89.9567 91.37 90.1015 91.37 90.3914Z" fill="white"/>
<path d="M102.825 85.7523V75.1693C102.825 75.0243 102.825 74.8794 102.68 74.8794C102.535 74.8794 102.39 74.8794 102.39 74.8794L101.23 75.4593V71.6901C101.23 71.5451 101.23 71.4 101.085 71.4C100.94 71.4 100.795 71.4 100.795 71.4L95.5749 74.7345H95.4299C94.5599 75.0244 93.6899 75.1693 92.9649 75.1693C90.4999 75.1693 89.6299 73.5746 89.6299 73.5746C89.6299 73.4296 89.4849 73.4297 89.3399 73.4297C89.1949 73.4297 89.0499 73.5746 89.0499 73.5746C89.0499 73.5746 88.1799 75.1693 85.715 75.1693C84.99 75.1693 84.12 75.0244 83.25 74.7345L78.03 71.4C77.885 71.4 77.74 71.4 77.595 71.4C77.45 71.4 77.45 71.5451 77.45 71.6901V75.4593L76.435 74.8794C76.29 74.8794 76.145 74.8794 76.145 74.8794C76 74.8794 76 75.0243 76 75.1693V85.7523C76 85.8973 76 88.5069 78.175 90.5365C80.06 92.4212 82.96 93.436 86.875 93.436C86.875 93.436 86.875 93.436 87.02 93.436C88.47 93.8709 89.3399 94.1607 89.3399 95.4654C89.3399 95.6104 89.4849 95.7555 89.6299 95.7555C89.7749 95.7555 89.92 95.6104 89.92 95.4654C89.92 94.3057 90.7899 93.8709 92.2399 93.436H92.3849C96.2999 93.436 99.1999 92.4212 101.085 90.5365C102.825 88.5069 102.825 85.8973 102.825 85.7523ZM84.265 82.708C84.7 82.563 84.845 81.693 84.845 81.693C84.845 81.693 85.57 82.1281 86.005 81.9831C86.005 82.1281 86.005 82.563 86.005 82.563C86.005 82.563 85.86 82.8528 86.005 83.1428C86.15 83.2877 86.15 83.5777 86.15 83.8676C85.86 83.8676 85.715 83.8676 85.425 83.8676C84.99 83.8676 84.555 83.8676 84.265 83.8676C84.265 83.2877 84.265 83.1429 84.265 82.708ZM92.3849 82.128H93.2549C93.2549 82.563 93.2549 82.9978 93.3999 83.7227L92.3849 83.5778C92.3849 82.8529 92.3849 82.563 92.3849 82.128ZM99.4899 83.4328C98.9099 84.0127 98.0399 84.3026 97.0249 84.3026C96.7349 83.5778 96.5899 82.8529 96.5899 82.273L100.505 80.0984C100.505 80.5333 100.505 82.418 99.4899 83.4328ZM78.03 80.2433L81.945 82.4179C81.945 82.9978 81.8 83.7227 81.51 84.4476C80.495 84.4476 79.77 84.1576 79.19 83.5778C78.03 82.418 78.03 80.5333 78.03 80.2433ZM102.1 75.7492V82.273L100.36 83.2879C101.23 81.8382 101.23 80.2434 101.23 79.9534V76.1842L102.1 75.7492ZM100.505 75.8941L97.6049 77.6339C97.4599 77.4889 97.0249 76.9091 96.0099 75.3144L100.505 72.4149V75.8941ZM92.8199 75.8941C93.5449 75.8941 94.4149 75.7493 95.2849 75.4593C96.2999 76.9091 96.7349 77.6338 97.0249 77.9238C96.5899 78.6487 95.2849 81.1133 96.2999 84.1577C95.8649 83.7228 94.8499 83.5778 93.8349 83.5778C93.6899 82.8529 93.6899 82.418 93.6899 81.9831H95.2849C95.4299 81.9831 95.4299 81.6931 95.4299 81.4032V79.9534C95.4299 78.7937 94.8499 78.7936 94.8499 78.7936C94.8499 78.7936 94.4149 78.7937 94.2699 78.2138C94.1249 77.634 93.6899 77.1989 93.2549 77.1989C92.8199 77.1989 91.9499 77.4889 91.3699 77.9238C90.9349 78.0688 90.9349 78.3587 90.9349 78.7936C90.7899 79.8084 90.4999 79.6636 90.4999 79.6636C90.3549 79.6636 90.2099 79.8084 90.2099 80.0984V81.5481C90.2099 81.8381 90.3549 82.128 90.4999 82.128H92.0949C92.0949 82.563 92.0949 82.9978 91.9499 83.7227C90.9349 83.7227 90.0649 84.0126 89.4849 84.4476V74.7345C89.9199 75.1694 91.0799 75.8941 92.8199 75.8941ZM88.76 74.8794V84.1577C88.325 83.8677 87.5999 83.7227 86.7299 83.7227C86.5849 83.2878 86.5849 82.1281 86.7299 81.8382C87.4549 81.6932 87.4549 80.9683 87.4549 80.3884C87.4549 79.9535 87.31 78.3588 87.31 78.3588L87.745 78.2138C87.89 78.2138 87.8899 78.2137 87.8899 78.0687C87.8899 77.9238 87.8899 77.7789 87.8899 77.7789L87.4549 77.6339C87.3099 77.4889 87.165 77.3439 87.02 77.3439C86.875 77.3439 86.585 77.344 86.44 77.6339C86.295 77.4889 86.005 77.6339 85.86 77.6339C85.86 77.6339 85.86 78.3588 86.585 78.2138L86.7299 80.0984C86.7299 80.0984 86.73 80.5334 86.295 80.3884C85.86 80.2435 84.99 79.9534 84.41 80.0984C84.12 80.2434 83.685 80.3884 83.395 81.1133C83.105 81.8382 83.54 81.5481 83.54 81.5481L83.975 81.2582C83.975 81.2582 84.265 81.8381 83.975 82.273C83.685 82.5629 83.83 82.8529 83.83 82.8529C83.83 82.8529 83.975 83.5777 83.975 83.8676C83.25 83.8676 82.67 84.1576 82.235 84.3026C83.105 81.2582 81.945 78.7936 81.51 78.0687C81.8 77.7788 82.235 77.054 83.25 75.6043C84.12 75.8942 84.99 76.0393 85.715 76.0393C87.165 75.8943 88.035 75.4593 88.76 74.8794ZM78.03 72.4149L82.525 75.3144C81.655 76.7641 81.075 77.344 80.93 77.6339L78.03 76.0393V72.4149ZM77.305 76.3291V80.0984C77.305 80.2434 77.305 81.9831 78.175 83.4328L76.435 82.4179V75.8941L77.305 76.3291ZM76.58 86.9122L80.93 89.3767C81.365 90.5364 82.09 91.2613 83.25 92.2761C83.54 92.5661 83.975 92.7111 84.265 92.856C81.655 92.5661 79.625 91.6962 78.32 90.2465C77.16 89.0867 76.725 87.782 76.58 86.9122ZM89.195 94.3058C88.615 93.4359 87.5999 93.146 86.44 92.856C85.425 92.5661 84.41 92.2761 83.54 91.5513C81.365 89.9566 80.64 88.5068 81.8 85.1724H96.5899C97.7499 88.5068 97.0249 89.8116 94.8499 91.5513C93.9799 92.1311 92.9649 92.5661 91.9499 92.7111C90.7899 93.146 89.775 93.4359 89.195 94.3058ZM100.215 90.1015C98.7649 91.5513 96.7349 92.4212 94.1249 92.7111C94.5599 92.5661 94.8499 92.2762 95.1399 92.1312C96.2999 91.2613 97.1699 90.3915 97.4599 89.3767C97.4599 89.3767 97.4599 89.3767 97.6049 89.3767L101.955 86.9122C101.81 87.782 101.375 89.0867 100.215 90.1015Z" fill="white"/>
<path d="M89.1948 73.1399C91.2248 73.1399 92.6748 72.1249 92.6748 70.8202C92.6748 69.5154 91.0798 68.5006 89.1948 68.5006C87.1649 68.5006 85.7148 69.5154 85.7148 70.8202C85.7148 72.1249 87.1649 73.1399 89.1948 73.1399ZM89.1948 69.5155C90.2098 69.5155 90.9348 69.9504 90.9348 70.3853C90.9348 70.8203 90.4998 71.1102 89.9198 71.2552C89.3398 71.4001 89.4848 71.6901 89.1948 71.8351C88.9048 71.6901 89.0498 71.4001 88.4698 71.2552C87.8898 71.1102 87.4548 70.8203 87.4548 70.3853C87.4548 69.9504 88.1798 69.5155 89.1948 69.5155Z" fill="white"/>
</svg>
