<svg class="tracto-modular transport-item is-hidden" width="648" height="132" viewBox="0 0 648 132" fill="none" xmlns="http://www.w3.org/2000/svg">
<path d="M174.738 88.5973V91.7912H150.714V85.9078H139.962V11.1046H135.426V0.178345H129.546V10.7684H127.362V76.6625H122.658V17.4923H72.2574L72.5934 25.5609H78.8095L64.0254 61.1975H10.2651V98.5151H0.520996V107.76H9.76105V111.963H160.962V107.424H321.907V88.5973H174.738ZM100.482 61.5337H79.4815L89.0575 26.5695H100.482V61.5337Z" fill="#3449B2"/>
<g class="is-hidden-eje">
<path d="M36.9772 128.941C47.0907 128.941 55.2893 120.737 55.2893 110.618C55.2893 100.499 47.0907 92.2955 36.9772 92.2955C26.8636 92.2955 18.665 100.499 18.665 110.618C18.665 120.737 26.8636 128.941 36.9772 128.941Z" fill="#3B5266"/>
<path d="M24.5452 110.618C24.5452 105.743 27.2332 101.709 31.2652 99.5236L30.5932 98.5151C26.2252 100.868 23.2012 105.407 23.2012 110.618C23.2012 115.829 26.2252 120.368 30.5932 122.721L31.2652 121.712C27.4012 119.695 24.5452 115.493 24.5452 110.618Z" fill="#76C1AA"/>
<path d="M43.3612 98.5151L42.8572 99.5236C46.8892 101.541 49.7452 105.743 49.7452 110.618C49.7452 115.493 46.8892 119.695 42.8572 121.712L43.3612 122.721C47.7292 120.368 50.7533 115.829 50.7533 110.618C50.5852 105.407 47.7292 100.868 43.3612 98.5151Z" fill="#76C1AA"/>
<path opacity="0.3" d="M36.9771 113.308C38.4616 113.308 39.6651 112.103 39.6651 110.618C39.6651 109.133 38.4616 107.928 36.9771 107.928C35.4925 107.928 34.2891 109.133 34.2891 110.618C34.2891 112.103 35.4925 113.308 36.9771 113.308Z" fill="white"/>
<path opacity="0.3" d="M38.657 108.601L41.6811 105.575C40.505 104.398 38.993 103.726 37.145 103.726V108.097C37.649 108.097 38.153 108.265 38.657 108.601Z" fill="white"/>
<path opacity="0.3" d="M39.6651 110.618H44.0332C44.0332 108.937 43.3612 107.256 42.1852 106.079L39.1611 109.105C39.3291 109.441 39.4971 109.946 39.6651 110.618Z" fill="white"/>
<path opacity="0.3" d="M38.8252 112.467L41.8492 115.493C43.0252 114.316 43.6972 112.803 43.6972 111.122H39.3292C39.4972 111.627 39.1612 112.131 38.8252 112.467Z" fill="white"/>
<path opacity="0.3" d="M35.4652 112.803L32.4412 115.829C33.6172 116.838 34.9612 117.51 36.6412 117.51V113.308C36.1372 113.14 35.8012 112.971 35.4652 112.803Z" fill="white"/>
<path opacity="0.3" d="M37.145 113.308V117.678C38.825 117.678 40.3371 117.006 41.3451 115.997L38.321 112.971C37.985 113.139 37.649 113.308 37.145 113.308Z" fill="white"/>
<path opacity="0.3" d="M34.7932 109.273L31.7691 106.247C30.7611 107.424 30.0891 108.937 30.0891 110.618H34.4571C34.2891 110.114 34.4571 109.609 34.7932 109.273Z" fill="white"/>
<path opacity="0.3" d="M34.4572 111.29H30.0891C30.2571 112.971 30.9291 114.316 31.9371 115.493L34.9612 112.467C34.6252 111.963 34.4572 111.627 34.4572 111.29Z" fill="white"/>
<path opacity="0.3" d="M36.473 108.097V103.726C34.793 103.894 33.281 104.567 32.105 105.575L35.129 108.601C35.465 108.433 35.969 108.265 36.473 108.097Z" fill="white"/>
<path d="M37.1451 102.717C36.6411 102.717 35.9691 102.717 35.4651 102.886C31.7691 103.558 29.0811 106.752 29.0811 110.618C29.0811 114.989 32.6091 118.519 36.9771 118.519C39.1611 118.519 41.1771 117.678 42.5211 116.165C44.0332 114.652 44.8732 112.803 44.8732 110.618C45.0412 106.247 41.5131 102.717 37.1451 102.717ZM39.6651 110.618C39.6651 110.114 39.4971 109.609 39.1611 109.105L42.1851 106.079C43.1932 107.256 43.8652 108.769 44.0332 110.618H39.6651ZM32.2731 115.829L35.2971 112.803C35.6331 112.971 35.9691 113.139 36.4731 113.308V117.678C34.9611 117.51 33.4491 116.838 32.2731 115.829ZM38.6571 108.601C38.3211 108.265 37.8171 108.097 37.1451 108.097V103.726C38.8251 103.726 40.5051 104.398 41.6811 105.575L38.6571 108.601ZM34.2891 110.618H29.9211C29.9211 108.937 30.5931 107.424 31.6011 106.247L34.6251 109.273C34.4571 109.609 34.2891 110.114 34.2891 110.618ZM34.4571 111.29C34.6251 111.795 34.7931 112.131 34.9611 112.467L31.9371 115.493C30.9291 114.316 30.2571 112.971 30.0891 111.29H34.4571ZM36.9771 112.803C35.8011 112.803 34.7931 111.795 34.7931 110.618C34.7931 109.441 35.8011 108.433 36.9771 108.433C37.8171 108.433 38.4891 108.937 38.8251 109.609V109.778C38.9931 109.946 38.9931 110.282 38.9931 110.618C38.9931 110.954 38.9931 111.122 38.8251 111.459C38.6571 112.299 37.8171 112.803 36.9771 112.803ZM37.1451 113.308C37.6491 113.308 37.9851 113.139 38.3211 112.971L41.3451 115.997C40.1691 117.006 38.6571 117.678 37.1451 117.678V113.308ZM36.4731 103.726V108.097C35.9691 108.265 35.4651 108.433 35.1291 108.769L32.1051 105.743C33.2811 104.567 34.7931 103.894 36.4731 103.726ZM42.0171 115.493L38.9931 112.467C39.3291 112.131 39.4971 111.627 39.6651 111.122H44.0332C43.6972 112.803 43.0251 114.316 42.0171 115.493Z" fill="white"/>
</g>
<g class="is-hidden-eje">
<path d="M203.13 128.941C213.244 128.941 221.442 120.737 221.442 110.618C221.442 100.499 213.244 92.2955 203.13 92.2955C193.017 92.2955 184.818 100.499 184.818 110.618C184.818 120.737 193.017 128.941 203.13 128.941Z" fill="#3B5266"/>
<path d="M190.698 110.618C190.698 105.743 193.386 101.709 197.418 99.5236L196.746 98.5151C192.378 100.868 189.354 105.407 189.354 110.618C189.354 115.829 192.378 120.368 196.746 122.721L197.418 121.712C193.386 119.695 190.698 115.493 190.698 110.618Z" fill="#76C1AA"/>
<path d="M209.347 98.5151L208.843 99.5236C212.875 101.541 215.731 105.743 215.731 110.618C215.731 115.493 212.875 119.695 208.843 121.712L209.347 122.721C213.715 120.368 216.739 115.829 216.739 110.618C216.739 105.407 213.715 100.868 209.347 98.5151Z" fill="#76C1AA"/>
<path opacity="0.3" d="M203.13 113.308C204.615 113.308 205.818 112.103 205.818 110.618C205.818 109.133 204.615 107.928 203.13 107.928C201.646 107.928 200.442 109.133 200.442 110.618C200.442 112.103 201.646 113.308 203.13 113.308Z" fill="white"/>
<path opacity="0.3" d="M204.81 108.601L207.834 105.575C206.658 104.398 205.146 103.726 203.298 103.726V108.097C203.802 108.097 204.306 108.265 204.81 108.601Z" fill="white"/>
<path opacity="0.3" d="M205.65 110.618H210.018C210.018 108.937 209.346 107.256 208.17 106.079L205.146 109.105C205.482 109.441 205.65 109.946 205.65 110.618Z" fill="white"/>
<path opacity="0.3" d="M204.978 112.467L208.002 115.493C209.178 114.316 209.85 112.803 209.85 111.122H205.482C205.482 111.627 205.314 112.131 204.978 112.467Z" fill="white"/>
<path opacity="0.3" d="M201.45 112.803L198.426 115.829C199.602 116.838 200.946 117.51 202.626 117.51V113.308C202.29 113.14 201.786 112.971 201.45 112.803Z" fill="white"/>
<path opacity="0.3" d="M203.298 113.308V117.678C204.978 117.678 206.49 117.006 207.498 115.997L204.474 112.971C204.138 113.139 203.802 113.308 203.298 113.308Z" fill="white"/>
<path opacity="0.3" d="M200.946 109.273L197.922 106.247C196.914 107.424 196.242 108.937 196.242 110.618H200.61C200.442 110.114 200.61 109.609 200.946 109.273Z" fill="white"/>
<path opacity="0.3" d="M200.442 111.29H196.074C196.242 112.971 196.914 114.316 197.922 115.493L200.946 112.467C200.778 111.963 200.61 111.627 200.442 111.29Z" fill="white"/>
<path opacity="0.3" d="M202.626 108.097V103.726C200.946 103.894 199.434 104.567 198.258 105.575L201.282 108.601C201.618 108.433 202.122 108.265 202.626 108.097Z" fill="white"/>
<path d="M203.13 102.717C202.626 102.717 201.954 102.717 201.45 102.886C197.754 103.558 195.066 106.752 195.066 110.618C195.066 114.989 198.594 118.519 202.962 118.519C205.146 118.519 207.162 117.678 208.506 116.165C210.018 114.652 210.858 112.803 210.858 110.618C211.026 106.247 207.498 102.717 203.13 102.717ZM205.65 110.618C205.65 110.114 205.482 109.609 205.146 109.105L208.17 106.079C209.178 107.256 209.85 108.769 210.018 110.618H205.65ZM198.426 115.829L201.45 112.803C201.786 112.971 202.122 113.139 202.626 113.308V117.678C200.946 117.51 199.602 116.838 198.426 115.829ZM204.81 108.601C204.474 108.265 203.97 108.097 203.298 108.097V103.726C204.978 103.726 206.658 104.398 207.834 105.575L204.81 108.601ZM200.442 110.618H196.074C196.074 108.937 196.746 107.424 197.754 106.247L200.778 109.273C200.61 109.609 200.442 110.114 200.442 110.618ZM200.442 111.29C200.61 111.795 200.778 112.131 200.946 112.467L197.922 115.493C196.914 114.316 196.242 112.971 196.074 111.29H200.442ZM203.13 112.803C201.954 112.803 200.946 111.795 200.946 110.618C200.946 109.441 201.954 108.433 203.13 108.433C203.97 108.433 204.642 108.937 204.978 109.609V109.778C205.146 109.946 205.146 110.282 205.146 110.618C205.146 110.954 205.146 111.122 204.978 111.459C204.81 112.299 203.97 112.803 203.13 112.803ZM203.298 113.308C203.802 113.308 204.138 113.139 204.474 112.971L207.498 115.997C206.322 117.006 204.81 117.678 203.298 117.678V113.308ZM202.626 103.726V108.097C202.122 108.265 201.618 108.433 201.282 108.769L198.258 105.743C199.434 104.567 200.946 103.894 202.626 103.726ZM208.002 115.493L204.978 112.467C205.314 112.131 205.482 111.627 205.65 111.122H210.018C209.85 112.803 209.178 114.316 208.002 115.493Z" fill="white"/>
</g>
<g class="is-hidden-eje">
<path d="M247.482 128.941C257.596 128.941 265.795 120.737 265.795 110.618C265.795 100.499 257.596 92.2955 247.482 92.2955C237.369 92.2955 229.17 100.499 229.17 110.618C229.17 120.737 237.369 128.941 247.482 128.941Z" fill="#3B5266"/>
<path d="M235.051 110.618C235.051 105.743 237.739 101.709 241.771 99.5236L241.099 98.5151C236.731 100.868 233.707 105.407 233.707 110.618C233.707 115.829 236.731 120.368 241.099 122.721L241.771 121.712C237.739 119.695 235.051 115.493 235.051 110.618Z" fill="#76C1AA"/>
<path d="M253.699 98.5151L253.195 99.5236C257.227 101.541 260.083 105.743 260.083 110.618C260.083 115.493 257.227 119.695 253.195 121.712L253.699 122.721C258.067 120.368 261.091 115.829 261.091 110.618C261.091 105.407 258.067 100.868 253.699 98.5151Z" fill="#76C1AA"/>
<path opacity="0.3" d="M247.483 113.308C248.967 113.308 250.171 112.103 250.171 110.618C250.171 109.133 248.967 107.928 247.483 107.928C245.998 107.928 244.795 109.133 244.795 110.618C244.795 112.103 245.998 113.308 247.483 113.308Z" fill="white"/>
<path opacity="0.3" d="M248.994 108.601L252.018 105.575C250.842 104.398 249.33 103.726 247.482 103.726V108.097C248.154 108.097 248.658 108.265 248.994 108.601Z" fill="white"/>
<path opacity="0.3" d="M250.003 110.618H254.371C254.371 108.937 253.699 107.256 252.523 106.079L249.499 109.105C249.835 109.441 250.003 109.946 250.003 110.618Z" fill="white"/>
<path opacity="0.3" d="M249.331 112.467L252.355 115.493C253.531 114.316 254.203 112.803 254.203 111.122H249.835C249.835 111.627 249.667 112.131 249.331 112.467Z" fill="white"/>
<path opacity="0.3" d="M245.802 112.803L242.778 115.829C243.954 116.838 245.298 117.51 246.978 117.51V113.308C246.474 113.14 246.138 112.971 245.802 112.803Z" fill="white"/>
<path opacity="0.3" d="M247.482 113.308V117.678C249.162 117.678 250.674 117.006 251.682 115.997L248.658 112.971C248.49 113.139 247.986 113.308 247.482 113.308Z" fill="white"/>
<path opacity="0.3" d="M245.13 109.273L242.107 106.247C241.099 107.424 240.427 108.937 240.427 110.618H244.794C244.794 110.114 244.962 109.609 245.13 109.273Z" fill="white"/>
<path opacity="0.3" d="M244.795 111.29H240.427C240.595 112.971 241.267 114.316 242.275 115.493L245.299 112.467C245.131 111.963 244.795 111.627 244.795 111.29Z" fill="white"/>
<path opacity="0.3" d="M246.979 108.097V103.726C245.299 103.894 243.787 104.567 242.611 105.575L245.635 108.601C245.971 108.433 246.307 108.265 246.979 108.097Z" fill="white"/>
<path d="M247.483 102.717C246.979 102.717 246.307 102.717 245.803 102.886C242.106 103.558 239.418 106.752 239.418 110.618C239.418 114.989 242.946 118.519 247.315 118.519C249.499 118.519 251.515 117.678 252.859 116.165C254.371 114.652 255.211 112.803 255.211 110.618C255.379 106.247 251.851 102.717 247.483 102.717ZM250.003 110.618C250.003 110.114 249.835 109.609 249.499 109.105L252.523 106.079C253.531 107.256 254.203 108.769 254.371 110.618H250.003ZM242.778 115.829L245.803 112.803C246.139 112.971 246.475 113.139 246.979 113.308V117.678C245.299 117.51 243.786 116.838 242.778 115.829ZM248.995 108.601C248.659 108.265 248.155 108.097 247.483 108.097V103.726C249.163 103.726 250.843 104.398 252.019 105.575L248.995 108.601ZM244.794 110.618H240.426C240.426 108.937 241.098 107.424 242.106 106.247L245.131 109.273C244.963 109.609 244.794 110.114 244.794 110.618ZM244.794 111.29C244.962 111.795 245.131 112.131 245.299 112.467L242.274 115.493C241.266 114.316 240.594 112.971 240.426 111.29H244.794ZM247.483 112.803C246.307 112.803 245.299 111.795 245.299 110.618C245.299 109.441 246.307 108.433 247.483 108.433C248.323 108.433 248.995 108.937 249.331 109.609V109.778C249.499 109.946 249.499 110.282 249.499 110.618C249.499 110.954 249.499 111.122 249.331 111.459C248.995 112.299 248.323 112.803 247.483 112.803ZM247.483 113.308C247.987 113.308 248.323 113.139 248.659 112.971L251.683 115.997C250.507 117.006 248.995 117.678 247.483 117.678V113.308ZM246.979 103.726V108.097C246.475 108.265 245.971 108.433 245.635 108.769L242.61 105.743C243.619 104.567 245.131 103.894 246.979 103.726ZM252.355 115.493L249.331 112.467C249.667 112.131 249.835 111.627 250.003 111.122H254.371C254.035 112.803 253.363 114.316 252.355 115.493Z" fill="white"/>
</g>
<g class="is-hidden-eje">
<path d="M291.667 128.941C301.78 128.941 309.979 120.737 309.979 110.618C309.979 100.499 301.78 92.2955 291.667 92.2955C281.553 92.2955 273.354 100.499 273.354 110.618C273.354 120.737 281.553 128.941 291.667 128.941Z" fill="#3B5266"/>
<path d="M279.235 110.618C279.235 105.743 281.923 101.709 285.955 99.5236L285.283 98.5151C280.915 100.868 277.891 105.407 277.891 110.618C277.891 115.829 280.915 120.368 285.283 122.721L285.955 121.712C281.923 119.695 279.235 115.493 279.235 110.618Z" fill="#76C1AA"/>
<path d="M298.051 98.5151L297.547 99.5236C301.579 101.541 304.435 105.743 304.435 110.618C304.435 115.493 301.579 119.695 297.547 121.712L298.051 122.721C302.419 120.368 305.443 115.829 305.443 110.618C305.275 105.407 302.419 100.868 298.051 98.5151Z" fill="#76C1AA"/>
<path opacity="0.3" d="M291.667 113.308C293.151 113.308 294.355 112.103 294.355 110.618C294.355 109.133 293.151 107.928 291.667 107.928C290.182 107.928 288.979 109.133 288.979 110.618C288.979 112.103 290.182 113.308 291.667 113.308Z" fill="white"/>
<path opacity="0.3" d="M293.346 108.601L296.371 105.575C295.195 104.398 293.683 103.726 291.834 103.726V108.097C292.338 108.097 292.842 108.265 293.346 108.601Z" fill="white"/>
<path opacity="0.3" d="M294.186 110.618H298.554C298.554 108.937 297.882 107.256 296.706 106.079L293.682 109.105C294.018 109.441 294.186 109.946 294.186 110.618Z" fill="white"/>
<path opacity="0.3" d="M293.514 112.467L296.538 115.493C297.714 114.316 298.386 112.803 298.386 111.122H294.018C294.186 111.627 293.85 112.131 293.514 112.467Z" fill="white"/>
<path opacity="0.3" d="M289.986 112.803L286.962 115.829C288.138 116.838 289.482 117.51 291.163 117.51V113.308C290.826 113.14 290.322 112.971 289.986 112.803Z" fill="white"/>
<path opacity="0.3" d="M291.834 113.308V117.678C293.515 117.678 295.027 117.006 296.035 115.997L293.011 112.971C292.675 113.139 292.338 113.308 291.834 113.308Z" fill="white"/>
<path opacity="0.3" d="M289.483 109.273L286.459 106.247C285.451 107.424 284.779 108.937 284.779 110.618H289.147C288.979 110.114 289.147 109.609 289.483 109.273Z" fill="white"/>
<path opacity="0.3" d="M288.978 111.29H284.61C284.778 112.971 285.45 114.316 286.458 115.493L289.482 112.467C289.314 111.963 289.146 111.627 288.978 111.29Z" fill="white"/>
<path opacity="0.3" d="M291.163 108.097V103.726C289.482 103.894 287.97 104.567 286.794 105.575L289.819 108.601C290.155 108.433 290.658 108.265 291.163 108.097Z" fill="white"/>
<path d="M291.835 102.717C291.331 102.717 290.659 102.717 290.155 102.886C286.458 103.558 283.771 106.752 283.771 110.618C283.771 114.989 287.298 118.519 291.667 118.519C293.851 118.519 295.867 117.678 297.211 116.165C298.723 114.652 299.563 112.803 299.563 110.618C299.563 106.247 296.035 102.717 291.835 102.717ZM294.187 110.618C294.187 110.114 294.019 109.609 293.683 109.105L296.707 106.079C297.715 107.256 298.387 108.769 298.555 110.618H294.187ZM286.963 115.829L289.987 112.803C290.323 112.971 290.659 113.139 291.163 113.308V117.678C289.651 117.51 288.139 116.838 286.963 115.829ZM293.347 108.601C293.011 108.265 292.507 108.097 291.835 108.097V103.726C293.515 103.726 295.195 104.398 296.371 105.575L293.347 108.601ZM288.979 110.618H284.611C284.611 108.937 285.283 107.424 286.291 106.247L289.315 109.273C289.147 109.609 288.979 110.114 288.979 110.618ZM288.979 111.29C289.147 111.795 289.315 112.131 289.483 112.467L286.459 115.493C285.451 114.316 284.779 112.971 284.611 111.29H288.979ZM291.667 112.803C290.491 112.803 289.483 111.795 289.483 110.618C289.483 109.441 290.491 108.433 291.667 108.433C292.507 108.433 293.179 108.937 293.515 109.609V109.778C293.683 109.946 293.683 110.282 293.683 110.618C293.683 110.954 293.683 111.122 293.515 111.459C293.347 112.299 292.507 112.803 291.667 112.803ZM291.835 113.308C292.339 113.308 292.675 113.139 293.011 112.971L296.035 115.997C294.859 117.006 293.347 117.678 291.835 117.678V113.308ZM291.163 103.726V108.097C290.659 108.265 290.155 108.433 289.819 108.769L286.794 105.743C287.971 104.567 289.483 103.894 291.163 103.726ZM296.539 115.493L293.515 112.467C293.851 112.131 294.019 111.627 294.187 111.122H298.555C298.387 112.803 297.715 114.316 296.539 115.493Z" fill="white"/>
</g>
<path d="M96.7856 95.8255C96.7856 95.8255 96.9536 95.8255 96.7856 95.8255C96.9536 95.8255 96.9536 95.8255 96.7856 95.8255C96.9536 95.8255 98.1296 95.6574 98.9696 94.985C99.8096 93.9764 100.146 92.2955 99.4736 91.455C99.1376 91.1188 98.6336 90.9507 98.1296 90.9507C97.6256 91.1188 97.2896 91.2869 97.1216 91.7912C97.1216 91.9593 97.1216 91.9593 97.1216 92.1274C97.2896 92.1274 97.2896 92.1274 97.4576 92.1274C97.6256 91.9593 97.7936 91.9592 97.9616 91.9592C98.1296 91.9592 98.1296 92.1274 98.2976 92.2955C98.2976 92.4636 98.2976 92.6316 98.1296 92.7997L97.9616 92.9678C97.6256 92.9678 97.1216 92.6316 96.6176 92.1274C96.1136 91.6231 95.4416 91.2869 94.9376 90.9507C94.0976 90.6145 91.5776 90.1102 89.8975 91.2869C89.8975 91.2869 88.8895 92.1273 88.7215 92.7997C88.3855 93.4721 88.3855 94.3126 88.5535 94.8169C88.3855 94.985 88.2175 95.1531 88.2175 95.4893C88.2175 95.9936 88.7215 96.3298 89.5615 96.4979C89.5615 96.666 89.3935 96.666 89.3935 96.8341C89.3935 97.3384 90.0656 97.8427 90.9056 97.8427C91.5776 97.8427 92.0816 97.6746 92.2496 97.3384C92.4176 97.6746 92.9216 97.8427 93.5936 97.8427C94.4336 97.8427 95.1056 97.3384 95.1056 96.8341C95.1056 96.666 95.1056 96.4979 94.9376 96.4979C95.4416 96.4979 95.7776 96.3298 96.1136 95.9936C96.1136 95.9936 96.1136 95.9936 96.2816 95.9936C96.1136 95.9936 96.4496 95.8255 96.7856 95.8255ZM97.9616 94.985C97.7936 95.1531 97.4576 95.1531 97.2896 95.1531C97.4576 94.1446 96.7856 93.136 96.6176 92.6317C96.9536 92.9679 97.2896 93.136 97.6256 93.3041C97.7936 93.6403 98.1296 94.1445 97.9616 94.985ZM96.1136 95.4893C96.1136 95.3212 95.9456 94.985 95.7776 94.6488C95.4416 93.9764 94.7696 92.9679 93.0896 92.4636C90.9056 91.7912 89.8975 92.1274 89.3935 92.4636C89.3935 92.4636 89.3935 92.4636 89.5615 92.2955C89.7295 92.1274 89.8976 91.9593 90.0656 91.7912C90.7376 91.455 91.9136 91.455 93.5936 91.9592C95.7776 92.6316 96.4496 94.1445 96.6176 94.8169C96.6176 94.985 96.7856 95.3212 96.7856 95.4893C96.7856 95.4893 96.7856 95.4893 96.6176 95.4893C96.2816 95.4893 96.2816 95.4893 96.1136 95.4893ZM92.9216 93.3041C92.5856 93.3041 92.4176 93.4721 92.2496 93.6402C91.9136 93.304 91.5776 93.1359 90.9056 93.1359C90.7376 93.1359 90.5696 93.1359 90.4016 93.1359C90.9056 92.9679 91.5776 92.9678 92.2496 92.9678C92.4176 93.304 92.5856 93.3041 92.9216 93.3041ZM90.9056 93.8083C91.4096 93.8083 91.9136 94.1446 91.9136 94.3126C91.9136 94.4807 91.7456 94.6488 91.5776 94.6488H91.4096C91.2416 94.6488 91.0736 94.6488 90.9056 94.6488C90.4016 94.6488 89.8975 94.3126 89.8975 94.1445C89.8975 93.9764 90.2336 93.8083 90.9056 93.8083ZM91.5776 95.1531H91.7456C91.9136 95.1531 91.9136 95.1531 92.0816 95.1531C92.7536 95.1531 93.0896 95.4893 93.0896 95.6574C93.0896 95.8255 92.5856 96.1617 92.0816 96.1617C91.4096 96.1617 91.0735 95.8255 91.0735 95.6574C91.0735 95.4893 91.2416 95.3212 91.5776 95.1531ZM92.4176 94.3126C92.4176 94.1446 92.9216 93.8083 93.4256 93.8083C93.5936 93.8083 93.5936 93.8083 93.7616 93.8083C94.0976 93.8083 94.4336 94.1446 94.4336 94.3126C94.4336 94.4807 94.2656 94.6488 93.9296 94.8169C93.7616 94.8169 93.5936 94.8169 93.4256 94.8169C92.7536 94.8169 92.4176 94.4807 92.4176 94.3126ZM89.2255 94.6488C89.2255 94.4807 89.2255 94.4807 89.2255 94.3126C89.2255 94.1446 89.3935 93.9764 89.5615 93.8083C89.3935 93.9764 89.3935 94.1446 89.3935 94.3126C89.3935 94.4807 89.3935 94.6488 89.5615 94.6488C89.3935 94.6488 89.3935 94.6488 89.2255 94.6488ZM88.5535 95.6574C88.5535 95.4893 88.7215 95.4893 88.8896 95.3212C89.0576 95.3212 89.2255 95.1531 89.3935 95.1531C89.5615 95.1531 89.5616 95.1531 89.7296 95.1531C90.4016 95.1531 90.7376 95.4893 90.7376 95.6574C90.7376 95.8255 90.5696 95.8255 90.5696 95.9936C90.4016 96.1617 90.0656 96.1617 89.7296 96.1617C88.8896 96.1617 88.5535 95.8255 88.5535 95.6574ZM90.7376 97.5065C90.0655 97.5065 89.7296 97.3384 89.7296 97.0022C89.7296 96.8341 90.2335 96.4979 90.7376 96.4979C91.0736 96.4979 91.2416 96.4979 91.5776 96.666C91.5776 96.666 91.7456 96.8341 91.7456 97.0022C91.7456 97.1703 91.2416 97.5065 90.7376 97.5065ZM93.4256 97.5065C92.7536 97.5065 92.4176 97.1703 92.4176 97.0022C92.4176 97.0022 92.4176 96.8341 92.5856 96.8341C92.7536 96.666 93.0896 96.4979 93.4256 96.4979C93.5936 96.4979 93.7616 96.4979 93.9296 96.4979C94.2656 96.666 94.4336 96.8341 94.4336 97.0022C94.4336 97.1703 93.9296 97.5065 93.4256 97.5065ZM95.6096 95.8255C95.4416 95.9936 95.1056 96.1617 94.6016 96.1617C94.4336 96.1617 94.2656 96.1617 94.0976 96.1617C93.7616 95.9936 93.5936 95.8255 93.5936 95.6574C93.5936 95.4893 93.7616 95.3212 94.0976 95.1531C94.2656 95.1531 94.4336 95.1531 94.6016 95.1531C94.7696 95.1531 94.7696 95.1531 94.9376 95.1531C95.2736 95.1531 95.6096 95.4893 95.6096 95.8255C95.6096 95.6574 95.6096 95.6574 95.6096 95.8255Z" fill="white"/>
<path d="M108.882 90.4464V78.1753C108.882 78.0072 108.882 77.8391 108.714 77.8391C108.546 77.8391 108.378 77.8391 108.378 77.8391L107.034 78.5114V74.141C107.034 73.9729 107.034 73.8047 106.866 73.8047C106.698 73.8047 106.53 73.8047 106.53 73.8047L100.482 77.671H100.314C99.3056 78.0072 98.2976 78.1753 97.4576 78.1753C94.6016 78.1753 93.5936 76.3262 93.5936 76.3262C93.5936 76.1581 93.4256 76.1581 93.2576 76.1581C93.0896 76.1581 92.9216 76.3262 92.9216 76.3262C92.9216 76.3262 91.9136 78.1753 89.0576 78.1753C88.2176 78.1753 87.2096 78.0072 86.2016 77.671L80.1535 73.8047C79.9855 73.8047 79.8175 73.8047 79.6495 73.8047C79.4815 73.8047 79.4815 73.9729 79.4815 74.141V78.5114L78.3055 77.8391C78.1375 77.8391 77.9695 77.8391 77.9695 77.8391C77.8015 77.8391 77.8015 78.0072 77.8015 78.1753V90.4464C77.8015 90.6145 77.8015 93.6402 80.3215 95.9936C82.5055 98.1789 85.8656 99.3555 90.4016 99.3555C90.4016 99.3555 90.4016 99.3555 90.5696 99.3555C92.2496 99.8598 93.2576 100.196 93.2576 101.709C93.2576 101.877 93.4256 102.045 93.5936 102.045C93.7616 102.045 93.9296 101.877 93.9296 101.709C93.9296 100.364 94.9376 99.8598 96.6176 99.3555H96.7856C101.322 99.3555 104.682 98.1789 106.866 95.9936C108.882 93.4721 108.882 90.6145 108.882 90.4464ZM87.3776 86.7482C87.8816 86.5801 88.0496 85.5715 88.0496 85.5715C88.0496 85.5715 88.8896 86.0759 89.3936 85.9078C89.3936 86.0759 89.3936 86.5801 89.3936 86.5801C89.3936 86.5801 89.2256 86.9163 89.3936 87.2525C89.5616 87.4206 89.5616 87.7568 89.5616 88.093C89.2256 88.093 89.0576 88.093 88.7216 88.093C88.2176 88.093 87.7136 88.093 87.3776 88.093C87.3776 87.4206 87.3776 87.2525 87.3776 86.7482ZM96.7856 86.0758H97.7936C97.7936 86.5801 97.7936 87.0844 97.9616 87.9249L96.7856 87.7568C96.7856 87.0844 96.7856 86.5801 96.7856 86.0758ZM105.018 87.7568C104.346 88.4292 103.338 88.7654 102.162 88.7654C101.826 87.9249 101.658 87.0844 101.658 86.412L106.194 83.8906C106.194 84.2268 106.194 86.412 105.018 87.7568ZM80.1535 83.8906L84.6896 86.412C84.6896 87.0844 84.5216 87.9249 84.1856 88.7654C83.0095 88.7654 82.1695 88.4292 81.4975 87.7568C80.1535 86.412 80.1535 84.2268 80.1535 83.8906ZM108.042 78.8477V86.412L106.026 87.5887C107.034 85.9078 107.034 84.0587 107.034 83.7225V79.3519L108.042 78.8477ZM106.194 79.0158L102.834 81.0329C102.666 80.8648 102.162 80.1925 100.986 78.3434L106.194 74.9814V79.0158ZM97.2896 78.8477C98.1296 78.8477 99.1376 78.6796 100.146 78.3434C101.322 80.0244 101.826 80.8648 102.162 81.201C101.658 82.0415 100.146 84.8992 101.322 88.4292C100.818 87.9249 99.6416 87.7568 98.4656 87.7568C98.2976 86.9163 98.2976 86.4121 98.2976 85.9078H100.146C100.314 85.9078 100.314 85.5715 100.314 85.2353V83.5544C100.314 82.2096 99.6416 82.2096 99.6416 82.2096C99.6416 82.2096 99.1376 82.2096 98.9696 81.5372C98.8016 80.8648 98.2976 80.3605 97.7936 80.3605C97.2896 80.3605 96.2816 80.6967 95.6096 81.201C95.1056 81.3691 95.1056 81.7053 95.1056 82.2096C94.9376 83.3863 94.6016 83.2182 94.6016 83.2182C94.4336 83.2182 94.2656 83.3863 94.2656 83.7225V85.4034C94.2656 85.7396 94.4336 86.0758 94.6016 86.0758H96.4496C96.4496 86.5801 96.4496 87.0844 96.2816 87.9249C95.1056 87.9249 94.0976 88.2611 93.4256 88.7654V77.5029C93.9296 78.1753 95.2736 78.8477 97.2896 78.8477ZM92.5856 77.671V88.4292C92.0816 88.093 91.2416 87.9249 90.2336 87.9249C90.0656 87.4206 90.0656 86.0758 90.2336 85.7397C91.0736 85.5716 91.0736 84.7311 91.0736 84.0587C91.0736 83.5544 90.9056 81.7053 90.9056 81.7053L91.4096 81.5372C91.5776 81.5372 91.5776 81.5372 91.5776 81.3691C91.5776 81.201 91.5776 81.0329 91.5776 81.0329L91.0736 80.8648C90.9056 80.6968 90.7376 80.5286 90.5696 80.5286C90.4016 80.5286 90.0656 80.5287 89.8976 80.8648C89.7296 80.6968 89.3936 80.8648 89.2256 80.8648C89.2256 80.8648 89.2256 81.7053 90.0656 81.5372L90.2336 83.7225C90.2336 83.7225 90.2336 84.2268 89.7296 84.0587C89.2256 83.8906 88.2176 83.5544 87.5456 83.7225C87.2096 83.8906 86.7056 84.0587 86.3696 84.8992C86.0336 85.7397 86.5376 85.4034 86.5376 85.4034L87.0416 85.0673C87.0416 85.0673 87.3776 85.7396 87.0416 86.2439C86.7056 86.5801 86.8735 86.9163 86.8735 86.9163C86.8735 86.9163 87.0416 87.7568 87.0416 88.093C86.2016 88.093 85.5296 88.4292 85.0256 88.5973C86.0336 85.0672 84.6896 82.2096 84.1856 81.3691C84.5216 81.0329 85.0255 80.1924 86.2016 78.5114C87.2096 78.8476 88.2176 79.0158 89.0576 79.0158C90.7376 78.8477 91.7456 78.3433 92.5856 77.671ZM80.1535 74.8133L85.3616 78.1753C84.3535 79.8563 83.6815 80.5287 83.5135 80.8648L80.1535 79.0158V74.8133ZM79.3135 79.3519V83.7225C79.3135 83.8906 79.3135 85.9078 80.3215 87.5887L78.3055 86.412V78.8477L79.3135 79.3519ZM78.4735 91.6231L83.5135 94.4807C84.0175 95.8255 84.8575 96.6659 86.2016 97.8426C86.5376 98.1788 87.0416 98.3469 87.3776 98.515C84.3535 98.1789 82.0015 97.1702 80.4895 95.4893C79.1455 94.1445 78.6415 92.6316 78.4735 91.6231ZM93.0896 100.196C92.4176 99.1874 91.2416 98.8512 89.8976 98.515C88.7216 98.1789 87.5456 97.8426 86.5376 97.0021C84.0175 95.1531 83.1775 93.4721 84.5215 89.6059H101.658C103.002 93.4721 102.162 94.985 99.6416 97.0021C98.6336 97.6745 97.4576 98.1788 96.2816 98.3469C94.9376 98.8512 93.7616 99.1874 93.0896 100.196ZM105.858 95.4893C104.178 97.1702 101.826 98.1789 98.8016 98.515C99.3056 98.3469 99.6416 98.0107 99.9776 97.8426C101.322 96.834 102.33 95.8255 102.666 94.6488C102.666 94.6488 102.666 94.6488 102.834 94.6488L107.874 91.7912C107.706 92.6316 107.202 94.1445 105.858 95.4893Z" fill="white"/>
<path d="M93.0897 75.6539C95.4417 75.6539 97.1217 74.4772 97.1217 72.9643C97.1217 71.4515 95.2737 70.2748 93.0897 70.2748C90.7377 70.2748 89.0576 71.4515 89.0576 72.9643C89.0576 74.4772 90.7377 75.6539 93.0897 75.6539ZM93.0897 71.4515C94.2657 71.4515 95.1057 71.9558 95.1057 72.4601C95.1057 72.9643 94.6017 73.3005 93.9297 73.4686C93.2577 73.6367 93.4257 73.9729 93.0897 74.141C92.7537 73.9729 92.9217 73.6367 92.2497 73.4686C91.5777 73.3005 91.0736 72.9643 91.0736 72.4601C91.0736 71.9558 91.9137 71.4515 93.0897 71.4515Z" fill="white"/>
<path d="M220.266 52.2885H350.803V90.7826H637.581V106.416H329.635V91.1187L323.755 67.5852H253.867L245.131 77.671H220.266V52.2885Z" fill="#DCE9EF" stroke="#65819B" stroke-width="1.0365" stroke-miterlimit="10"/>
<path d="M350.803 90.7826H329.635V106.416H350.803V90.7826Z" fill="#DCE9EF" stroke="#65819B" stroke-width="1.0365" stroke-miterlimit="10"/>
<g class="is-hidden-eje">
<path d="M431.444 131.63C441.557 131.63 449.756 123.427 449.756 113.308C449.756 103.188 441.557 94.985 431.444 94.985C421.33 94.985 413.132 103.188 413.132 113.308C413.132 123.427 421.33 131.63 431.444 131.63Z" fill="#3B5266"/>
<path d="M419.012 113.308C419.012 108.433 421.7 104.398 425.732 102.213L425.06 101.205C420.692 103.558 417.667 108.097 417.667 113.308C417.667 118.519 420.692 123.057 425.06 125.411L425.732 124.402C421.7 122.385 419.012 118.182 419.012 113.308Z" fill="#76C1AA"/>
<path d="M437.66 101.205L437.156 102.213C441.188 104.23 444.044 108.433 444.044 113.308C444.044 118.182 441.188 122.385 437.156 124.402L437.66 125.411C442.028 123.057 445.052 118.519 445.052 113.308C445.052 108.097 442.028 103.558 437.66 101.205Z" fill="#76C1AA"/>
<path opacity="0.3" d="M431.444 115.997C432.928 115.997 434.132 114.793 434.132 113.308C434.132 111.822 432.928 110.618 431.444 110.618C429.959 110.618 428.756 111.822 428.756 113.308C428.756 114.793 429.959 115.997 431.444 115.997Z" fill="white"/>
<path opacity="0.3" d="M432.956 111.29L435.98 108.265C434.804 107.088 433.292 106.416 431.444 106.416V110.786C432.116 110.786 432.62 110.954 432.956 111.29Z" fill="white"/>
<path opacity="0.3" d="M433.964 113.308H438.332C438.332 111.627 437.66 109.946 436.484 108.769L433.46 111.795C433.796 112.131 433.964 112.635 433.964 113.308Z" fill="white"/>
<path opacity="0.3" d="M433.292 115.157L436.316 118.182C437.492 117.006 438.164 115.493 438.164 113.812H433.964C433.796 114.316 433.628 114.82 433.292 115.157Z" fill="white"/>
<path opacity="0.3" d="M429.764 115.493L426.74 118.519C427.916 119.527 429.26 120.2 430.94 120.2V115.829C430.436 115.829 430.1 115.661 429.764 115.493Z" fill="white"/>
<path opacity="0.3" d="M431.444 115.997V120.368C433.124 120.368 434.636 119.695 435.644 118.687L432.62 115.661C432.452 115.829 431.948 115.997 431.444 115.997Z" fill="white"/>
<path opacity="0.3" d="M429.092 111.963L426.068 108.937C425.06 110.114 424.388 111.627 424.388 113.308H428.756C428.756 112.803 428.924 112.299 429.092 111.963Z" fill="white"/>
<path opacity="0.3" d="M428.756 113.812H424.388C424.556 115.493 425.228 116.838 426.236 118.014L429.26 114.989C429.092 114.652 428.756 114.316 428.756 113.812Z" fill="white"/>
<path opacity="0.3" d="M430.94 110.786V106.416C429.26 106.584 427.748 107.256 426.572 108.265L429.596 111.29C429.932 111.122 430.436 110.786 430.94 110.786Z" fill="white"/>
<path d="M431.444 105.407C430.94 105.407 430.268 105.407 429.764 105.575C426.068 106.247 423.38 109.441 423.38 113.308C423.38 117.678 426.908 121.208 431.276 121.208C433.46 121.208 435.476 120.368 436.82 118.855C438.332 117.342 439.172 115.493 439.172 113.308C439.34 108.937 435.812 105.407 431.444 105.407ZM433.964 113.308C433.964 112.803 433.796 112.299 433.46 111.795L436.484 108.769C437.492 109.946 438.164 111.458 438.332 113.308H433.964ZM426.74 118.519L429.764 115.493C430.1 115.661 430.436 115.829 430.94 115.997V120.368C429.26 120.2 427.916 119.527 426.74 118.519ZM432.956 111.29C432.62 110.954 432.116 110.786 431.444 110.786V106.416C433.124 106.416 434.804 107.088 435.98 108.265L432.956 111.29ZM428.756 113.308H424.388C424.388 111.627 425.06 110.114 426.068 108.937L429.092 111.963C428.924 112.299 428.756 112.803 428.756 113.308ZM428.756 113.812C428.924 114.316 429.092 114.652 429.26 114.989L426.236 118.014C425.228 116.838 424.556 115.493 424.388 113.812H428.756ZM431.444 115.493C430.268 115.493 429.26 114.484 429.26 113.308C429.26 112.131 430.268 111.122 431.444 111.122C432.284 111.122 432.956 111.627 433.292 112.299V112.467C433.46 112.635 433.46 112.971 433.46 113.308C433.46 113.644 433.46 113.812 433.292 114.148C432.956 114.989 432.284 115.493 431.444 115.493ZM431.444 115.997C431.948 115.997 432.284 115.829 432.62 115.661L435.644 118.687C434.468 119.695 432.956 120.368 431.444 120.368V115.997ZM430.94 106.416V110.786C430.436 110.954 429.932 111.122 429.596 111.458L426.572 108.433C427.58 107.256 429.092 106.584 430.94 106.416ZM436.316 118.182L433.292 115.157C433.628 114.82 433.796 114.316 433.964 113.812H438.332C438.164 115.493 437.324 117.006 436.316 118.182Z" fill="white"/>
</g>
<g class="is-hidden-eje">
<path d="M475.628 131.63C485.741 131.63 493.94 123.427 493.94 113.308C493.94 103.188 485.741 94.985 475.628 94.985C465.514 94.985 457.315 103.188 457.315 113.308C457.315 123.427 465.514 131.63 475.628 131.63Z" fill="#3B5266"/>
<path d="M463.196 113.308C463.196 108.433 465.884 104.398 469.915 102.213L469.243 101.205C464.876 103.558 461.852 108.097 461.852 113.308C461.852 118.519 464.876 123.057 469.243 125.411L469.915 124.402C465.884 122.385 463.196 118.182 463.196 113.308Z" fill="#76C1AA"/>
<path d="M481.844 101.205L481.34 102.213C485.372 104.23 488.228 108.433 488.228 113.308C488.228 118.182 485.372 122.385 481.34 124.402L481.844 125.411C486.212 123.057 489.236 118.519 489.236 113.308C489.236 108.097 486.212 103.558 481.844 101.205Z" fill="#76C1AA"/>
<path opacity="0.3" d="M475.627 115.997C477.112 115.997 478.315 114.793 478.315 113.308C478.315 111.822 477.112 110.618 475.627 110.618C474.143 110.618 472.939 111.822 472.939 113.308C472.939 114.793 474.143 115.997 475.627 115.997Z" fill="white"/>
<path opacity="0.3" d="M477.14 111.29L480.164 108.265C478.988 107.088 477.476 106.416 475.627 106.416V110.786C476.299 110.786 476.804 110.954 477.14 111.29Z" fill="white"/>
<path opacity="0.3" d="M478.148 113.308H482.516C482.516 111.627 481.844 109.946 480.668 108.769L477.644 111.795C477.98 112.131 478.148 112.635 478.148 113.308Z" fill="white"/>
<path opacity="0.3" d="M477.476 115.157L480.5 118.182C481.676 117.006 482.348 115.493 482.348 113.812H477.98C477.98 114.316 477.812 114.82 477.476 115.157Z" fill="white"/>
<path opacity="0.3" d="M473.947 115.493L470.923 118.519C472.099 119.527 473.443 120.2 475.123 120.2V115.829C474.619 115.829 474.283 115.661 473.947 115.493Z" fill="white"/>
<path opacity="0.3" d="M475.627 115.997V120.368C477.307 120.368 478.819 119.695 479.828 118.687L476.803 115.661C476.635 115.829 476.131 115.997 475.627 115.997Z" fill="white"/>
<path opacity="0.3" d="M473.275 111.963L470.251 108.937C469.243 110.114 468.571 111.627 468.571 113.308H472.939C472.939 112.803 473.107 112.299 473.275 111.963Z" fill="white"/>
<path opacity="0.3" d="M472.939 113.812H468.571C468.739 115.493 469.411 116.838 470.419 118.014L473.443 114.989C473.275 114.652 472.939 114.316 472.939 113.812Z" fill="white"/>
<path opacity="0.3" d="M475.124 110.786V106.416C473.443 106.584 471.931 107.256 470.755 108.265L473.78 111.29C474.116 111.122 474.62 110.786 475.124 110.786Z" fill="white"/>
<path d="M475.628 105.407C475.124 105.407 474.451 105.407 473.947 105.575C470.251 106.247 467.563 109.441 467.563 113.308C467.563 117.678 471.092 121.208 475.46 121.208C477.644 121.208 479.66 120.368 481.004 118.855C482.516 117.342 483.356 115.493 483.356 113.308C483.524 108.937 479.996 105.407 475.628 105.407ZM478.148 113.308C478.148 112.803 477.98 112.299 477.644 111.795L480.668 108.769C481.676 109.946 482.348 111.458 482.516 113.308H478.148ZM470.923 118.519L473.947 115.493C474.283 115.661 474.62 115.829 475.124 115.997V120.368C473.444 120.2 471.932 119.527 470.923 118.519ZM477.14 111.29C476.804 110.954 476.3 110.786 475.628 110.786V106.416C477.308 106.416 478.988 107.088 480.164 108.265L477.14 111.29ZM472.94 113.308H468.571C468.571 111.627 469.243 110.114 470.252 108.937L473.276 111.963C473.108 112.299 472.94 112.803 472.94 113.308ZM472.94 113.812C473.108 114.316 473.276 114.652 473.444 114.989L470.42 118.014C469.412 116.838 468.739 115.493 468.571 113.812H472.94ZM475.628 115.493C474.451 115.493 473.444 114.484 473.444 113.308C473.444 112.131 474.451 111.122 475.628 111.122C476.468 111.122 477.14 111.627 477.476 112.299V112.467C477.644 112.635 477.644 112.971 477.644 113.308C477.644 113.644 477.644 113.812 477.476 114.148C477.14 114.989 476.468 115.493 475.628 115.493ZM475.628 115.997C476.132 115.997 476.468 115.829 476.804 115.661L479.828 118.687C478.652 119.695 477.14 120.368 475.628 120.368V115.997ZM475.124 106.416V110.786C474.62 110.954 474.116 111.122 473.78 111.458L470.755 108.433C471.763 107.256 473.276 106.584 475.124 106.416ZM480.5 118.182L477.476 115.157C477.812 114.82 477.98 114.316 478.148 113.812H482.516C482.348 115.493 481.508 117.006 480.5 118.182Z" fill="white"/>
</g>
<g class="is-hidden-eje">
<path d="M519.812 131.63C529.926 131.63 538.124 123.427 538.124 113.308C538.124 103.188 529.926 94.985 519.812 94.985C509.699 94.985 501.5 103.188 501.5 113.308C501.5 123.427 509.699 131.63 519.812 131.63Z" fill="#3B5266"/>
<path d="M507.38 113.308C507.38 108.433 510.068 104.398 514.1 102.213L513.428 101.205C509.06 103.558 506.036 108.097 506.036 113.308C506.036 118.519 509.06 123.057 513.428 125.411L514.1 124.402C510.068 122.385 507.38 118.182 507.38 113.308Z" fill="#76C1AA"/>
<path d="M526.028 101.205L525.524 102.213C529.556 104.23 532.412 108.433 532.412 113.308C532.412 118.182 529.556 122.385 525.524 124.402L526.028 125.411C530.396 123.057 533.42 118.519 533.42 113.308C533.42 108.097 530.396 103.558 526.028 101.205Z" fill="#76C1AA"/>
<path opacity="0.3" d="M519.812 115.997C521.296 115.997 522.5 114.793 522.5 113.308C522.5 111.822 521.296 110.618 519.812 110.618C518.327 110.618 517.124 111.822 517.124 113.308C517.124 114.793 518.327 115.997 519.812 115.997Z" fill="white"/>
<path opacity="0.3" d="M521.324 111.29L524.348 108.265C523.172 107.088 521.66 106.416 519.812 106.416V110.786C520.484 110.786 520.988 110.954 521.324 111.29Z" fill="white"/>
<path opacity="0.3" d="M522.332 113.308H526.7C526.7 111.627 526.028 109.946 524.852 108.769L521.828 111.795C522.164 112.131 522.332 112.635 522.332 113.308Z" fill="white"/>
<path opacity="0.3" d="M521.66 115.157L524.684 118.182C525.86 117.006 526.532 115.493 526.532 113.812H522.164C522.164 114.316 521.996 114.82 521.66 115.157Z" fill="white"/>
<path opacity="0.3" d="M518.132 115.493L515.108 118.519C516.284 119.527 517.628 120.2 519.308 120.2V115.829C518.804 115.829 518.468 115.661 518.132 115.493Z" fill="white"/>
<path opacity="0.3" d="M519.812 115.997V120.368C521.492 120.368 523.004 119.695 524.012 118.687L520.988 115.661C520.82 115.829 520.316 115.997 519.812 115.997Z" fill="white"/>
<path opacity="0.3" d="M517.46 111.963L514.436 108.937C513.428 110.114 512.756 111.627 512.756 113.308H517.124C517.124 112.803 517.292 112.299 517.46 111.963Z" fill="white"/>
<path opacity="0.3" d="M517.124 113.812H512.756C512.924 115.493 513.596 116.838 514.604 118.014L517.628 114.989C517.46 114.652 517.124 114.316 517.124 113.812Z" fill="white"/>
<path opacity="0.3" d="M519.308 110.786V106.416C517.628 106.584 516.116 107.256 514.94 108.265L517.964 111.29C518.3 111.122 518.636 110.786 519.308 110.786Z" fill="white"/>
<path d="M519.812 105.407C519.308 105.407 518.636 105.407 518.132 105.575C514.436 106.247 511.748 109.441 511.748 113.308C511.748 117.678 515.276 121.208 519.644 121.208C521.828 121.208 523.844 120.368 525.188 118.855C526.7 117.342 527.54 115.493 527.54 113.308C527.708 108.937 524.18 105.407 519.812 105.407ZM522.332 113.308C522.332 112.803 522.164 112.299 521.828 111.795L524.852 108.769C525.86 109.946 526.532 111.458 526.7 113.308H522.332ZM515.108 118.519L518.132 115.493C518.468 115.661 518.804 115.829 519.308 115.997V120.368C517.628 120.2 516.116 119.527 515.108 118.519ZM521.324 111.29C520.988 110.954 520.484 110.786 519.812 110.786V106.416C521.492 106.416 523.172 107.088 524.348 108.265L521.324 111.29ZM517.124 113.308H512.756C512.756 111.627 513.428 110.114 514.436 108.937L517.46 111.963C517.292 112.299 517.124 112.803 517.124 113.308ZM517.124 113.812C517.292 114.316 517.46 114.652 517.628 114.989L514.604 118.014C513.596 116.838 512.924 115.493 512.756 113.812H517.124ZM519.812 115.493C518.636 115.493 517.628 114.484 517.628 113.308C517.628 112.131 518.636 111.122 519.812 111.122C520.652 111.122 521.324 111.627 521.66 112.299V112.467C521.828 112.635 521.828 112.971 521.828 113.308C521.828 113.644 521.828 113.812 521.66 114.148C521.324 114.989 520.652 115.493 519.812 115.493ZM519.812 115.997C520.316 115.997 520.652 115.829 520.988 115.661L524.012 118.687C522.836 119.695 521.324 120.368 519.812 120.368V115.997ZM519.308 106.416V110.786C518.804 110.954 518.3 111.122 517.964 111.458L514.94 108.433C515.948 107.256 517.46 106.584 519.308 106.416ZM524.684 118.182L521.66 115.157C521.996 114.82 522.164 114.316 522.332 113.812H526.7C526.364 115.493 525.692 117.006 524.684 118.182Z" fill="white"/>
</g>
<g class="is-hidden-eje">
<path d="M563.828 131.63C573.942 131.63 582.14 123.427 582.14 113.308C582.14 103.188 573.942 94.985 563.828 94.985C553.715 94.985 545.516 103.188 545.516 113.308C545.516 123.427 553.715 131.63 563.828 131.63Z" fill="#3B5266"/>
<path d="M551.564 113.308C551.564 108.433 554.252 104.398 558.284 102.213L557.612 101.205C553.244 103.558 550.22 108.097 550.22 113.308C550.22 118.519 553.244 123.057 557.612 125.411L558.284 124.402C554.252 122.385 551.564 118.182 551.564 113.308Z" fill="#76C1AA"/>
<path d="M570.213 101.205L569.708 102.213C573.741 104.23 576.597 108.433 576.597 113.308C576.597 118.182 573.741 122.385 569.708 124.402L570.213 125.411C574.581 123.057 577.605 118.519 577.605 113.308C577.605 108.097 574.581 103.558 570.213 101.205Z" fill="#76C1AA"/>
<path opacity="0.3" d="M563.829 115.997C565.313 115.997 566.516 114.793 566.516 113.308C566.516 111.822 565.313 110.618 563.829 110.618C562.344 110.618 561.141 111.822 561.141 113.308C561.141 114.793 562.344 115.997 563.829 115.997Z" fill="white"/>
<path opacity="0.3" d="M565.508 111.29L568.532 108.265C567.356 107.088 565.844 106.416 563.996 106.416V110.786C564.668 110.786 565.172 110.954 565.508 111.29Z" fill="white"/>
<path opacity="0.3" d="M566.517 113.308H570.885C570.885 111.627 570.213 109.946 569.037 108.769L566.013 111.795C566.349 112.131 566.517 112.635 566.517 113.308Z" fill="white"/>
<path opacity="0.3" d="M565.845 115.157L568.869 118.182C570.045 117.006 570.717 115.493 570.717 113.812H566.349C566.349 114.316 566.181 114.82 565.845 115.157Z" fill="white"/>
<path opacity="0.3" d="M562.316 115.493L559.292 118.519C560.468 119.527 561.812 120.2 563.492 120.2V115.829C562.988 115.829 562.652 115.661 562.316 115.493Z" fill="white"/>
<path opacity="0.3" d="M563.996 115.997V120.368C565.676 120.368 567.188 119.695 568.196 118.687L565.172 115.661C565.004 115.829 564.5 115.997 563.996 115.997Z" fill="white"/>
<path opacity="0.3" d="M561.645 111.963L558.62 108.937C557.612 110.114 556.94 111.627 556.94 113.308H561.309C561.309 112.803 561.477 112.299 561.645 111.963Z" fill="white"/>
<path opacity="0.3" d="M561.308 113.812H556.94C557.108 115.493 557.78 116.838 558.788 118.014L561.812 114.989C561.644 114.652 561.308 114.316 561.308 113.812Z" fill="white"/>
<path opacity="0.3" d="M563.492 110.786V106.416C561.813 106.584 560.301 107.256 559.125 108.265L562.148 111.29C562.484 111.122 562.82 110.786 563.492 110.786Z" fill="white"/>
<path d="M563.996 105.407C563.492 105.407 562.82 105.407 562.316 105.575C558.62 106.247 555.932 109.441 555.932 113.308C555.932 117.678 559.46 121.208 563.828 121.208C566.012 121.208 568.028 120.368 569.372 118.855C570.884 117.342 571.724 115.493 571.724 113.308C571.892 108.937 568.364 105.407 563.996 105.407ZM566.516 113.308C566.516 112.803 566.348 112.299 566.012 111.795L569.036 108.769C570.044 109.946 570.716 111.458 570.884 113.308H566.516ZM559.292 118.519L562.316 115.493C562.652 115.661 562.988 115.829 563.492 115.997V120.368C561.812 120.2 560.3 119.527 559.292 118.519ZM565.508 111.29C565.172 110.954 564.668 110.786 563.996 110.786V106.416C565.676 106.416 567.356 107.088 568.532 108.265L565.508 111.29ZM561.308 113.308H556.94C556.94 111.627 557.612 110.114 558.62 108.937L561.644 111.963C561.476 112.299 561.308 112.803 561.308 113.308ZM561.308 113.812C561.476 114.316 561.644 114.652 561.812 114.989L558.788 118.014C557.78 116.838 557.108 115.493 556.94 113.812H561.308ZM563.828 115.493C562.652 115.493 561.644 114.484 561.644 113.308C561.644 112.131 562.652 111.122 563.828 111.122C564.668 111.122 565.34 111.627 565.676 112.299V112.467C565.844 112.635 565.844 112.971 565.844 113.308C565.844 113.644 565.844 113.812 565.676 114.148C565.508 114.989 564.836 115.493 563.828 115.493ZM563.996 115.997C564.5 115.997 564.836 115.829 565.172 115.661L568.196 118.687C567.02 119.695 565.508 120.368 563.996 120.368V115.997ZM563.492 106.416V110.786C562.988 110.954 562.484 111.122 562.148 111.458L559.124 108.433C560.132 107.256 561.644 106.584 563.492 106.416ZM568.868 118.182L565.844 115.157C566.18 114.82 566.348 114.316 566.516 113.812H570.884C570.548 115.493 569.876 117.006 568.868 118.182Z" fill="white"/>
</g>
<g class="is-hidden-eje">
<path d="M608.013 131.63C618.126 131.63 626.325 123.427 626.325 113.308C626.325 103.188 618.126 94.985 608.013 94.985C597.899 94.985 589.701 103.188 589.701 113.308C589.701 123.427 597.899 131.63 608.013 131.63Z" fill="#3B5266"/>
<path d="M595.749 113.308C595.749 108.433 598.437 104.398 602.469 102.213L601.797 101.205C597.429 103.558 594.405 108.097 594.405 113.308C594.405 118.519 597.429 123.057 601.797 125.411L602.469 124.402C598.437 122.385 595.749 118.182 595.749 113.308Z" fill="#76C1AA"/>
<path d="M614.397 101.205L613.893 102.213C617.925 104.23 620.781 108.433 620.781 113.308C620.781 118.182 617.925 122.385 613.893 124.402L614.397 125.411C618.765 123.057 621.789 118.519 621.789 113.308C621.789 108.097 618.765 103.558 614.397 101.205Z" fill="#76C1AA"/>
<path opacity="0.3" d="M608.013 115.997C609.497 115.997 610.701 114.793 610.701 113.308C610.701 111.822 609.497 110.618 608.013 110.618C606.528 110.618 605.325 111.822 605.325 113.308C605.325 114.793 606.528 115.997 608.013 115.997Z" fill="white"/>
<path opacity="0.3" d="M609.693 111.29L612.717 108.265C611.541 107.088 610.029 106.416 608.181 106.416V110.786C608.853 110.786 609.357 110.954 609.693 111.29Z" fill="white"/>
<path opacity="0.3" d="M610.701 113.308H615.069C615.069 111.627 614.397 109.946 613.221 108.769L610.197 111.795C610.365 112.131 610.701 112.635 610.701 113.308Z" fill="white"/>
<path opacity="0.3" d="M610.029 115.157L613.053 118.182C614.229 117.006 614.901 115.493 614.901 113.812H610.533C610.533 114.316 610.365 114.82 610.029 115.157Z" fill="white"/>
<path opacity="0.3" d="M606.501 115.493L603.477 118.519C604.653 119.527 605.997 120.2 607.677 120.2V115.829C607.173 115.829 606.837 115.661 606.501 115.493Z" fill="white"/>
<path opacity="0.3" d="M608.181 115.997V120.368C609.861 120.368 611.373 119.695 612.381 118.687L609.357 115.661C609.021 115.829 608.685 115.997 608.181 115.997Z" fill="white"/>
<path opacity="0.3" d="M605.829 111.963L602.805 108.937C601.797 110.114 601.125 111.627 601.125 113.308H605.493C605.493 112.803 605.661 112.299 605.829 111.963Z" fill="white"/>
<path opacity="0.3" d="M605.493 113.812H601.125C601.293 115.493 601.965 116.838 602.973 118.014L605.997 114.989C605.829 114.652 605.493 114.316 605.493 113.812Z" fill="white"/>
<path opacity="0.3" d="M607.509 110.786V106.416C605.829 106.584 604.317 107.256 603.141 108.265L606.165 111.29C606.669 111.122 607.005 110.786 607.509 110.786Z" fill="white"/>
<path d="M608.181 105.407C607.677 105.407 607.005 105.407 606.501 105.575C602.805 106.247 600.117 109.441 600.117 113.308C600.117 117.678 603.645 121.208 608.013 121.208C610.197 121.208 612.213 120.368 613.557 118.855C615.069 117.342 615.909 115.493 615.909 113.308C616.077 108.937 612.549 105.407 608.181 105.407ZM610.701 113.308C610.701 112.803 610.533 112.299 610.197 111.795L613.221 108.769C614.229 109.946 614.901 111.458 615.069 113.308H610.701ZM603.477 118.519L606.501 115.493C606.837 115.661 607.173 115.829 607.677 115.997V120.368C605.997 120.2 604.485 119.527 603.477 118.519ZM609.693 111.29C609.357 110.954 608.853 110.786 608.181 110.786V106.416C609.861 106.416 611.541 107.088 612.717 108.265L609.693 111.29ZM605.493 113.308H601.125C601.125 111.627 601.797 110.114 602.805 108.937L605.829 111.963C605.661 112.299 605.493 112.803 605.493 113.308ZM605.493 113.812C605.661 114.316 605.829 114.652 605.997 114.989L602.973 118.014C601.965 116.838 601.293 115.493 601.125 113.812H605.493ZM608.013 115.493C606.837 115.493 605.829 114.484 605.829 113.308C605.829 112.131 606.837 111.122 608.013 111.122C608.853 111.122 609.525 111.627 609.861 112.299V112.467C610.029 112.635 610.029 112.971 610.029 113.308C610.029 113.644 610.029 113.812 609.861 114.148C609.693 114.989 609.021 115.493 608.013 115.493ZM608.181 115.997C608.685 115.997 609.021 115.829 609.357 115.661L612.381 118.687C611.205 119.695 609.693 120.368 608.181 120.368V115.997ZM607.509 106.416V110.786C607.005 110.954 606.501 111.122 606.165 111.458L603.141 108.433C604.317 107.256 605.829 106.584 607.509 106.416ZM613.053 118.182L610.029 115.157C610.365 114.82 610.533 114.316 610.701 113.812H615.069C614.733 115.493 614.061 117.006 613.053 118.182Z" fill="white"/>
</g>
</svg>
