<svg class="tracto-remolque-con-1-ejes-delantero transport-item is-hidden" width="647" height="133" viewBox="0 0 647 133" fill="none" xmlns="http://www.w3.org/2000/svg">
    <path d="M321.571 95.607H329.299V93.2537H375.499L381.211 90.7322H636.237V107.374H381.211L375.499 105.021H328.795V102.835H321.571V95.607Z" fill="#DCE9EF" stroke="#65819B" stroke-width="1.0365" stroke-miterlimit="10"/>
    <path d="M321.739 62.9963H174.402V86.1937H321.739V62.9963Z" fill="#314254"/>
    <path d="M174.738 89.3875V92.5813H150.714V86.6979H139.962V11.8947H135.426V0.968384H129.546V11.5585H127.362V77.4526H122.658V18.2824H72.2574L72.5934 26.3511H78.8095L64.0254 61.9876H10.2651V99.3052H0.520996V108.551H9.76105V112.753H160.962V108.214H321.907V89.3875H174.738ZM100.482 62.3238H79.4815L89.0575 27.3596H100.482V62.3238Z" fill="#B51F46"/>
    <g class="is-hidden-eje">
        <path d="M36.9772 129.731C47.0907 129.731 55.2893 121.527 55.2893 111.408C55.2893 101.289 47.0907 93.0854 36.9772 93.0854C26.8636 93.0854 18.665 101.289 18.665 111.408C18.665 121.527 26.8636 129.731 36.9772 129.731Z" fill="#3B5266"/>
        <path d="M24.5452 111.408C24.5452 106.533 27.2332 102.499 31.2652 100.314L30.5932 99.3051C26.2252 101.658 23.2012 106.197 23.2012 111.408C23.2012 116.619 26.2252 121.158 30.5932 123.511L31.2652 122.502C27.4012 120.485 24.5452 116.283 24.5452 111.408Z" fill="#76C1AA"/>
        <path d="M43.3612 99.3051L42.8572 100.314C46.8892 102.331 49.7452 106.533 49.7452 111.408C49.7452 116.283 46.8892 120.485 42.8572 122.502L43.3612 123.511C47.7292 121.158 50.7533 116.619 50.7533 111.408C50.5852 106.197 47.7292 101.658 43.3612 99.3051Z" fill="#76C1AA"/>
        <path opacity="0.3" d="M36.9771 114.098C38.4616 114.098 39.6651 112.894 39.6651 111.408C39.6651 109.923 38.4616 108.719 36.9771 108.719C35.4925 108.719 34.2891 109.923 34.2891 111.408C34.2891 112.894 35.4925 114.098 36.9771 114.098Z" fill="white"/>
        <path opacity="0.3" d="M38.657 109.391L41.6811 106.365C40.505 105.189 38.993 104.516 37.145 104.516V108.887C37.649 108.887 38.153 109.055 38.657 109.391Z" fill="white"/>
        <path opacity="0.3" d="M39.6651 111.408H44.0332C44.0332 109.727 43.3612 108.046 42.1852 106.869L39.1611 109.895C39.3291 110.4 39.4971 110.736 39.6651 111.408Z" fill="white"/>
        <path opacity="0.3" d="M38.8252 113.257L41.8492 116.283C43.0252 115.106 43.6972 113.593 43.6972 111.912H39.3292C39.4972 112.417 39.1612 112.921 38.8252 113.257Z" fill="white"/>
        <path opacity="0.3" d="M35.4652 113.593L32.4412 116.619C33.6172 117.628 34.9612 118.3 36.6412 118.3V113.93C36.1372 113.93 35.8012 113.761 35.4652 113.593Z" fill="white"/>
        <path opacity="0.3" d="M37.145 114.098V118.468C38.825 118.468 40.3371 117.796 41.3451 116.787L38.321 113.762C37.985 113.93 37.649 114.098 37.145 114.098Z" fill="white"/>
        <path opacity="0.3" d="M34.7932 110.063L31.7691 107.038C30.7611 108.214 30.0891 109.727 30.0891 111.408H34.4571C34.2891 110.904 34.4571 110.4 34.7932 110.063Z" fill="white"/>
        <path opacity="0.3" d="M34.4572 112.08H30.0891C30.2571 113.762 30.9291 115.106 31.9371 116.283L34.9612 113.257C34.6252 112.753 34.4572 112.417 34.4572 112.08Z" fill="white"/>
        <path opacity="0.3" d="M36.473 108.887V104.516C34.793 104.684 33.281 105.357 32.105 106.365L35.129 109.391C35.465 109.223 35.969 109.055 36.473 108.887Z" fill="white"/>
        <path d="M37.1451 103.507C36.6411 103.507 35.9691 103.508 35.4651 103.676C31.7691 104.348 29.0811 107.542 29.0811 111.408C29.0811 115.779 32.6091 119.309 36.9771 119.309C39.1611 119.309 41.1771 118.468 42.5211 116.955C44.0332 115.442 44.8732 113.593 44.8732 111.408C45.0412 107.038 41.5131 103.507 37.1451 103.507ZM39.6651 111.408C39.6651 110.904 39.4971 110.399 39.1611 109.895L42.1851 106.869C43.1932 108.046 43.8652 109.559 44.0332 111.408H39.6651ZM32.2731 116.619L35.2971 113.593C35.6331 113.761 35.9691 113.93 36.4731 114.098V118.468C34.9611 118.3 33.4491 117.628 32.2731 116.619ZM38.6571 109.391C38.3211 109.055 37.8171 108.887 37.1451 108.887V104.516C38.8251 104.516 40.5051 105.188 41.6811 106.365L38.6571 109.391ZM34.2891 111.408H29.9211C29.9211 109.727 30.5931 108.214 31.6011 107.038L34.6251 110.063C34.4571 110.4 34.2891 110.904 34.2891 111.408ZM34.4571 112.081C34.6251 112.585 34.7931 112.921 34.9611 113.257L31.9371 116.283C30.9291 115.106 30.2571 113.761 30.0891 112.081H34.4571ZM36.9771 113.593C35.8011 113.593 34.7931 112.585 34.7931 111.408C34.7931 110.231 35.8011 109.223 36.9771 109.223C37.8171 109.223 38.4891 109.727 38.8251 110.4V110.568C38.9931 110.736 38.9931 111.072 38.9931 111.408C38.9931 111.744 38.9931 111.912 38.8251 112.249C38.6571 113.089 37.8171 113.593 36.9771 113.593ZM37.1451 114.098C37.6491 114.098 37.9851 113.93 38.3211 113.761L41.3451 116.787C40.1691 117.796 38.6571 118.468 37.1451 118.468V114.098ZM36.4731 104.516V108.887C35.9691 109.055 35.4651 109.223 35.1291 109.559L32.1051 106.533C33.2811 105.357 34.7931 104.684 36.4731 104.516ZM42.0171 116.283L38.9931 113.257C39.3291 112.921 39.4971 112.417 39.6651 111.912H44.0332C43.6972 113.761 43.0251 115.274 42.0171 116.283Z" fill="white"/>
    </g>
    <g class="is-hidden-eje">
        <path d="M203.13 129.731C213.244 129.731 221.442 121.527 221.442 111.408C221.442 101.289 213.244 93.0854 203.13 93.0854C193.017 93.0854 184.818 101.289 184.818 111.408C184.818 121.527 193.017 129.731 203.13 129.731Z" fill="#3B5266"/>
        <path d="M190.698 111.408C190.698 106.533 193.386 102.499 197.418 100.314L196.746 99.3051C192.378 101.658 189.354 106.197 189.354 111.408C189.354 116.619 192.378 121.158 196.746 123.511L197.418 122.502C193.386 120.485 190.698 116.283 190.698 111.408Z" fill="#76C1AA"/>
        <path d="M209.347 99.3051L208.843 100.314C212.875 102.331 215.731 106.533 215.731 111.408C215.731 116.283 212.875 120.485 208.843 122.502L209.347 123.511C213.715 121.158 216.739 116.619 216.739 111.408C216.739 106.197 213.715 101.658 209.347 99.3051Z" fill="#76C1AA"/>
        <path opacity="0.3" d="M203.13 114.098C204.615 114.098 205.818 112.894 205.818 111.408C205.818 109.923 204.615 108.719 203.13 108.719C201.646 108.719 200.442 109.923 200.442 111.408C200.442 112.894 201.646 114.098 203.13 114.098Z" fill="white"/>
        <path opacity="0.3" d="M204.81 109.391L207.834 106.365C206.658 105.189 205.146 104.516 203.298 104.516V108.887C203.802 108.887 204.306 109.055 204.81 109.391Z" fill="white"/>
        <path opacity="0.3" d="M205.65 111.408H210.018C210.018 109.727 209.346 108.046 208.17 106.869L205.146 109.895C205.482 110.4 205.65 110.736 205.65 111.408Z" fill="white"/>
        <path opacity="0.3" d="M204.978 113.257L208.002 116.283C209.178 115.106 209.85 113.593 209.85 111.912H205.482C205.482 112.417 205.314 112.921 204.978 113.257Z" fill="white"/>
        <path opacity="0.3" d="M201.45 113.593L198.426 116.619C199.602 117.628 200.946 118.3 202.626 118.3V113.93C202.29 113.93 201.786 113.761 201.45 113.593Z" fill="white"/>
        <path opacity="0.3" d="M203.298 114.098V118.468C204.978 118.468 206.49 117.796 207.498 116.787L204.474 113.762C204.138 113.93 203.802 114.098 203.298 114.098Z" fill="white"/>
        <path opacity="0.3" d="M200.946 110.063L197.922 107.038C196.914 108.214 196.242 109.727 196.242 111.408H200.61C200.442 110.904 200.61 110.4 200.946 110.063Z" fill="white"/>
        <path opacity="0.3" d="M200.442 112.08H196.074C196.242 113.762 196.914 115.106 197.922 116.283L200.946 113.257C200.778 112.753 200.61 112.417 200.442 112.08Z" fill="white"/>
        <path opacity="0.3" d="M202.626 108.887V104.516C200.946 104.684 199.434 105.357 198.258 106.365L201.282 109.391C201.618 109.223 202.122 109.055 202.626 108.887Z" fill="white"/>
        <path d="M203.13 103.507C202.626 103.507 201.954 103.508 201.45 103.676C197.754 104.348 195.066 107.542 195.066 111.408C195.066 115.779 198.594 119.309 202.962 119.309C205.146 119.309 207.162 118.468 208.506 116.955C210.018 115.442 210.858 113.593 210.858 111.408C211.026 107.038 207.498 103.507 203.13 103.507ZM205.65 111.408C205.65 110.904 205.482 110.399 205.146 109.895L208.17 106.869C209.178 108.046 209.85 109.559 210.018 111.408H205.65ZM198.426 116.619L201.45 113.593C201.786 113.761 202.122 113.93 202.626 114.098V118.468C200.946 118.3 199.602 117.628 198.426 116.619ZM204.81 109.391C204.474 109.055 203.97 108.887 203.298 108.887V104.516C204.978 104.516 206.658 105.188 207.834 106.365L204.81 109.391ZM200.442 111.408H196.074C196.074 109.727 196.746 108.214 197.754 107.038L200.778 110.063C200.61 110.4 200.442 110.904 200.442 111.408ZM200.442 112.081C200.61 112.585 200.778 112.921 200.946 113.257L197.922 116.283C196.914 115.106 196.242 113.761 196.074 112.081H200.442ZM203.13 113.593C201.954 113.593 200.946 112.585 200.946 111.408C200.946 110.231 201.954 109.223 203.13 109.223C203.97 109.223 204.642 109.727 204.978 110.4V110.568C205.146 110.736 205.146 111.072 205.146 111.408C205.146 111.744 205.146 111.912 204.978 112.249C204.81 113.089 203.97 113.593 203.13 113.593ZM203.298 114.098C203.802 114.098 204.138 113.93 204.474 113.761L207.498 116.787C206.322 117.796 204.81 118.468 203.298 118.468V114.098ZM202.626 104.516V108.887C202.122 109.055 201.618 109.223 201.282 109.559L198.258 106.533C199.434 105.357 200.946 104.684 202.626 104.516ZM208.002 116.283L204.978 113.257C205.314 112.921 205.482 112.417 205.65 111.912H210.018C209.85 113.761 209.178 115.274 208.002 116.283Z" fill="white"/>
    </g>
    <g class="is-hidden-eje">
        <path d="M247.482 129.731C257.596 129.731 265.795 121.527 265.795 111.408C265.795 101.289 257.596 93.0854 247.482 93.0854C237.369 93.0854 229.17 101.289 229.17 111.408C229.17 121.527 237.369 129.731 247.482 129.731Z" fill="#3B5266"/>
        <path d="M235.051 111.408C235.051 106.533 237.739 102.499 241.771 100.314L241.099 99.3051C236.731 101.658 233.707 106.197 233.707 111.408C233.707 116.619 236.731 121.158 241.099 123.511L241.771 122.502C237.739 120.485 235.051 116.283 235.051 111.408Z" fill="#76C1AA"/>
        <path d="M253.699 99.3051L253.195 100.314C257.227 102.331 260.083 106.533 260.083 111.408C260.083 116.283 257.227 120.485 253.195 122.502L253.699 123.511C258.067 121.158 261.091 116.619 261.091 111.408C261.091 106.197 258.067 101.658 253.699 99.3051Z" fill="#76C1AA"/>
        <path opacity="0.3" d="M247.483 114.098C248.967 114.098 250.171 112.894 250.171 111.408C250.171 109.923 248.967 108.719 247.483 108.719C245.998 108.719 244.795 109.923 244.795 111.408C244.795 112.894 245.998 114.098 247.483 114.098Z" fill="white"/>
        <path opacity="0.3" d="M248.994 109.391L252.018 106.365C250.842 105.189 249.33 104.516 247.482 104.516V108.887C248.154 108.887 248.658 109.055 248.994 109.391Z" fill="white"/>
        <path opacity="0.3" d="M250.003 111.408H254.371C254.371 109.727 253.699 108.046 252.523 106.869L249.499 109.895C249.835 110.4 250.003 110.736 250.003 111.408Z" fill="white"/>
        <path opacity="0.3" d="M249.331 113.257L252.355 116.283C253.531 115.106 254.203 113.593 254.203 111.912H249.835C249.835 112.417 249.667 112.921 249.331 113.257Z" fill="white"/>
        <path opacity="0.3" d="M245.802 113.593L242.778 116.619C243.954 117.628 245.298 118.3 246.978 118.3V113.93C246.474 113.93 246.138 113.761 245.802 113.593Z" fill="white"/>
        <path opacity="0.3" d="M247.482 114.098V118.468C249.162 118.468 250.674 117.796 251.682 116.787L248.658 113.762C248.49 113.93 247.986 114.098 247.482 114.098Z" fill="white"/>
        <path opacity="0.3" d="M245.13 110.063L242.107 107.038C241.099 108.214 240.427 109.727 240.427 111.408H244.794C244.794 110.904 244.962 110.4 245.13 110.063Z" fill="white"/>
        <path opacity="0.3" d="M244.795 112.08H240.427C240.595 113.762 241.267 115.106 242.275 116.283L245.299 113.257C245.131 112.753 244.795 112.417 244.795 112.08Z" fill="white"/>
        <path opacity="0.3" d="M246.979 108.887V104.516C245.299 104.684 243.787 105.357 242.611 106.365L245.635 109.391C245.971 109.223 246.307 109.055 246.979 108.887Z" fill="white"/>
        <path d="M247.483 103.507C246.979 103.507 246.307 103.508 245.803 103.676C242.106 104.348 239.418 107.542 239.418 111.408C239.418 115.779 242.946 119.309 247.315 119.309C249.499 119.309 251.515 118.468 252.859 116.955C254.371 115.442 255.211 113.593 255.211 111.408C255.379 107.038 251.851 103.507 247.483 103.507ZM250.003 111.408C250.003 110.904 249.835 110.399 249.499 109.895L252.523 106.869C253.531 108.046 254.203 109.559 254.371 111.408H250.003ZM242.778 116.619L245.803 113.593C246.139 113.761 246.475 113.93 246.979 114.098V118.468C245.299 118.3 243.786 117.628 242.778 116.619ZM248.995 109.391C248.659 109.055 248.155 108.887 247.483 108.887V104.516C249.163 104.516 250.843 105.188 252.019 106.365L248.995 109.391ZM244.794 111.408H240.426C240.426 109.727 241.098 108.214 242.106 107.038L245.131 110.063C244.963 110.4 244.794 110.904 244.794 111.408ZM244.794 112.081C244.962 112.585 245.131 112.921 245.299 113.257L242.274 116.283C241.266 115.106 240.594 113.761 240.426 112.081H244.794ZM247.483 113.593C246.307 113.593 245.299 112.585 245.299 111.408C245.299 110.231 246.307 109.223 247.483 109.223C248.323 109.223 248.995 109.727 249.331 110.4V110.568C249.499 110.736 249.499 111.072 249.499 111.408C249.499 111.744 249.499 111.912 249.331 112.249C248.995 113.089 248.323 113.593 247.483 113.593ZM247.483 114.098C247.987 114.098 248.323 113.93 248.659 113.761L251.683 116.787C250.507 117.796 248.995 118.468 247.483 118.468V114.098ZM246.979 104.516V108.887C246.475 109.055 245.971 109.223 245.635 109.559L242.61 106.533C243.619 105.357 245.131 104.684 246.979 104.516ZM252.355 116.283L249.331 113.257C249.667 112.921 249.835 112.417 250.003 111.912H254.371C254.035 113.761 253.363 115.274 252.355 116.283Z" fill="white"/>
    </g>
    <g class="is-hidden-eje">
        <path d="M291.667 129.731C301.78 129.731 309.979 121.527 309.979 111.408C309.979 101.289 301.78 93.0854 291.667 93.0854C281.553 93.0854 273.354 101.289 273.354 111.408C273.354 121.527 281.553 129.731 291.667 129.731Z" fill="#3B5266"/>
        <path d="M279.235 111.408C279.235 106.533 281.923 102.499 285.955 100.314L285.283 99.3051C280.915 101.658 277.891 106.197 277.891 111.408C277.891 116.619 280.915 121.158 285.283 123.511L285.955 122.502C281.923 120.485 279.235 116.283 279.235 111.408Z" fill="#76C1AA"/>
        <path d="M298.051 99.3051L297.547 100.314C301.579 102.331 304.435 106.533 304.435 111.408C304.435 116.283 301.579 120.485 297.547 122.502L298.051 123.511C302.419 121.158 305.443 116.619 305.443 111.408C305.275 106.197 302.419 101.658 298.051 99.3051Z" fill="#76C1AA"/>
        <path opacity="0.3" d="M291.667 114.098C293.151 114.098 294.355 112.894 294.355 111.408C294.355 109.923 293.151 108.719 291.667 108.719C290.182 108.719 288.979 109.923 288.979 111.408C288.979 112.894 290.182 114.098 291.667 114.098Z" fill="white"/>
        <path opacity="0.3" d="M293.346 109.391L296.371 106.365C295.195 105.189 293.683 104.516 291.834 104.516V108.887C292.338 108.887 292.842 109.055 293.346 109.391Z" fill="white"/>
        <path opacity="0.3" d="M294.186 111.408H298.554C298.554 109.727 297.882 108.046 296.706 106.869L293.682 109.895C294.018 110.4 294.186 110.736 294.186 111.408Z" fill="white"/>
        <path opacity="0.3" d="M293.514 113.257L296.538 116.283C297.714 115.106 298.386 113.593 298.386 111.912H294.018C294.186 112.417 293.85 112.921 293.514 113.257Z" fill="white"/>
        <path opacity="0.3" d="M289.986 113.593L286.962 116.619C288.138 117.628 289.482 118.3 291.163 118.3V113.93C290.826 113.93 290.322 113.761 289.986 113.593Z" fill="white"/>
        <path opacity="0.3" d="M291.834 114.098V118.468C293.515 118.468 295.027 117.796 296.035 116.787L293.011 113.762C292.675 113.93 292.338 114.098 291.834 114.098Z" fill="white"/>
        <path opacity="0.3" d="M289.483 110.063L286.459 107.038C285.451 108.214 284.779 109.727 284.779 111.408H289.147C288.979 110.904 289.147 110.4 289.483 110.063Z" fill="white"/>
        <path opacity="0.3" d="M288.978 112.08H284.61C284.778 113.762 285.45 115.106 286.458 116.283L289.482 113.257C289.314 112.753 289.146 112.417 288.978 112.08Z" fill="white"/>
        <path opacity="0.3" d="M291.163 108.887V104.516C289.482 104.684 287.97 105.357 286.794 106.365L289.819 109.391C290.155 109.223 290.658 109.055 291.163 108.887Z" fill="white"/>
        <path d="M291.835 103.507C291.331 103.507 290.659 103.508 290.155 103.676C286.458 104.348 283.771 107.542 283.771 111.408C283.771 115.779 287.298 119.309 291.667 119.309C293.851 119.309 295.867 118.468 297.211 116.955C298.723 115.442 299.563 113.593 299.563 111.408C299.563 107.038 296.035 103.507 291.835 103.507ZM294.187 111.408C294.187 110.904 294.019 110.399 293.683 109.895L296.707 106.869C297.715 108.046 298.387 109.559 298.555 111.408H294.187ZM286.963 116.619L289.987 113.593C290.323 113.761 290.659 113.93 291.163 114.098V118.468C289.651 118.3 288.139 117.628 286.963 116.619ZM293.347 109.391C293.011 109.055 292.507 108.887 291.835 108.887V104.516C293.515 104.516 295.195 105.188 296.371 106.365L293.347 109.391ZM288.979 111.408H284.611C284.611 109.727 285.283 108.214 286.291 107.038L289.315 110.063C289.147 110.4 288.979 110.904 288.979 111.408ZM288.979 112.081C289.147 112.585 289.315 112.921 289.483 113.257L286.459 116.283C285.451 115.106 284.779 113.761 284.611 112.081H288.979ZM291.667 113.593C290.491 113.593 289.483 112.585 289.483 111.408C289.483 110.231 290.491 109.223 291.667 109.223C292.507 109.223 293.179 109.727 293.515 110.4V110.568C293.683 110.736 293.683 111.072 293.683 111.408C293.683 111.744 293.683 111.912 293.515 112.249C293.347 113.089 292.507 113.593 291.667 113.593ZM291.835 114.098C292.339 114.098 292.675 113.93 293.011 113.761L296.035 116.787C294.859 117.796 293.347 118.468 291.835 118.468V114.098ZM291.163 104.516V108.887C290.659 109.055 290.155 109.223 289.819 109.559L286.794 106.533C287.971 105.357 289.483 104.684 291.163 104.516ZM296.539 116.283L293.515 113.257C293.851 112.921 294.019 112.417 294.187 111.912H298.555C298.387 113.761 297.715 115.274 296.539 116.283Z" fill="white"/>
    </g>
    <g class="is-hidden-eje">
        <path d="M431.444 132.925C441.557 132.925 449.756 124.721 449.756 114.602C449.756 104.483 441.557 96.2795 431.444 96.2795C421.33 96.2795 413.132 104.483 413.132 114.602C413.132 124.721 421.33 132.925 431.444 132.925Z" fill="#3B5266"/>
        <path d="M419.012 114.602C419.012 109.727 421.7 105.693 425.732 103.508L425.06 102.499C420.692 104.852 417.667 109.391 417.667 114.602C417.667 119.813 420.692 124.351 425.06 126.705L425.732 125.696C421.7 123.511 419.012 119.477 419.012 114.602Z" fill="#76C1AA"/>
        <path d="M437.66 102.499L437.156 103.508C441.188 105.525 444.044 109.727 444.044 114.602C444.044 119.477 441.188 123.679 437.156 125.696L437.66 126.705C442.028 124.351 445.052 119.813 445.052 114.602C445.052 109.391 442.028 104.852 437.66 102.499Z" fill="#76C1AA"/>
        <path opacity="0.3" d="M431.444 117.292C432.928 117.292 434.132 116.087 434.132 114.602C434.132 113.116 432.928 111.912 431.444 111.912C429.959 111.912 428.756 113.116 428.756 114.602C428.756 116.087 429.959 117.292 431.444 117.292Z" fill="white"/>
        <path opacity="0.3" d="M432.956 112.585L435.98 109.559C434.804 108.382 433.292 107.71 431.444 107.71V112.081C432.116 112.081 432.62 112.249 432.956 112.585Z" fill="white"/>
        <path opacity="0.3" d="M433.964 114.434H438.332C438.332 112.753 437.66 111.072 436.484 109.895L433.46 112.921C433.796 113.425 433.964 113.929 433.964 114.434Z" fill="white"/>
        <path opacity="0.3" d="M433.292 116.451L436.316 119.477C437.492 118.3 438.164 116.787 438.164 115.106H433.964C433.796 115.61 433.628 116.115 433.292 116.451Z" fill="white"/>
        <path opacity="0.3" d="M429.764 116.787L426.74 119.813C427.916 120.822 429.26 121.494 430.94 121.494V117.123C430.436 117.123 430.1 116.955 429.764 116.787Z" fill="white"/>
        <path opacity="0.3" d="M431.444 117.292V121.662C433.124 121.662 434.636 120.99 435.644 119.981L432.62 116.955C432.452 117.123 431.948 117.123 431.444 117.292Z" fill="white"/>
        <path opacity="0.3" d="M429.092 113.257L426.068 110.231C425.06 111.408 424.388 112.921 424.388 114.602H428.756C428.756 114.098 428.924 113.593 429.092 113.257Z" fill="white"/>
        <path opacity="0.3" d="M428.756 115.106H424.388C424.556 116.787 425.228 118.132 426.236 119.309L429.26 116.283C429.092 115.947 428.756 115.611 428.756 115.106Z" fill="white"/>
        <path opacity="0.3" d="M430.94 112.081V107.71C429.26 107.878 427.748 108.55 426.572 109.559L429.596 112.585C429.932 112.417 430.436 112.081 430.94 112.081Z" fill="white"/>
        <path d="M431.444 106.702C430.94 106.702 430.268 106.701 429.764 106.87C426.068 107.542 423.38 110.736 423.38 114.602C423.38 118.973 426.908 122.502 431.276 122.502C433.46 122.502 435.476 121.662 436.82 120.149C438.332 118.636 439.172 116.787 439.172 114.602C439.34 110.232 435.812 106.702 431.444 106.702ZM433.964 114.434C433.964 113.93 433.796 113.425 433.46 112.921L436.484 109.895C437.492 111.072 438.164 112.585 438.332 114.434H433.964ZM426.74 119.813L429.764 116.787C430.1 116.955 430.436 117.123 430.94 117.292V121.662C429.26 121.494 427.916 120.822 426.74 119.813ZM432.956 112.585C432.62 112.249 432.116 112.081 431.444 112.081V107.71C433.124 107.71 434.804 108.383 435.98 109.559L432.956 112.585ZM428.756 114.434H424.388C424.388 112.753 425.06 111.24 426.068 110.063L429.092 113.089C428.924 113.593 428.756 114.098 428.756 114.434ZM428.756 115.106C428.924 115.611 429.092 115.947 429.26 116.283L426.236 119.309C425.228 118.132 424.556 116.787 424.388 115.106H428.756ZM431.444 116.787C430.268 116.787 429.26 115.779 429.26 114.602C429.26 113.425 430.268 112.417 431.444 112.417C432.284 112.417 432.956 112.921 433.292 113.593V113.762C433.46 113.93 433.46 114.266 433.46 114.602C433.46 114.938 433.46 115.106 433.292 115.443C432.956 116.283 432.284 116.787 431.444 116.787ZM431.444 117.292C431.948 117.292 432.284 117.123 432.62 116.955L435.644 119.981C434.468 120.99 432.956 121.662 431.444 121.662V117.292ZM430.94 107.71V112.081C430.436 112.249 429.932 112.417 429.596 112.753L426.572 109.727C427.58 108.551 429.092 107.878 430.94 107.71ZM436.316 119.477L433.292 116.451C433.628 116.115 433.796 115.611 433.964 115.106H438.332C438.164 116.787 437.324 118.3 436.316 119.477Z" fill="white"/>
    </g>
    <g class="is-hidden-eje">
        <path d="M475.628 132.925C485.741 132.925 493.94 124.721 493.94 114.602C493.94 104.483 485.741 96.2795 475.628 96.2795C465.514 96.2795 457.315 104.483 457.315 114.602C457.315 124.721 465.514 132.925 475.628 132.925Z" fill="#3B5266"/>
        <path d="M463.196 114.602C463.196 109.727 465.884 105.693 469.915 103.508L469.243 102.499C464.876 104.852 461.852 109.391 461.852 114.602C461.852 119.813 464.876 124.351 469.243 126.705L469.915 125.696C465.884 123.511 463.196 119.477 463.196 114.602Z" fill="#76C1AA"/>
        <path d="M481.844 102.499L481.34 103.508C485.372 105.525 488.228 109.727 488.228 114.602C488.228 119.477 485.372 123.679 481.34 125.696L481.844 126.705C486.212 124.351 489.236 119.813 489.236 114.602C489.236 109.391 486.212 104.852 481.844 102.499Z" fill="#76C1AA"/>
        <path opacity="0.3" d="M475.627 117.292C477.112 117.292 478.315 116.087 478.315 114.602C478.315 113.116 477.112 111.912 475.627 111.912C474.143 111.912 472.939 113.116 472.939 114.602C472.939 116.087 474.143 117.292 475.627 117.292Z" fill="white"/>
        <path opacity="0.3" d="M477.14 112.585L480.164 109.559C478.988 108.382 477.476 107.71 475.627 107.71V112.081C476.299 112.081 476.804 112.249 477.14 112.585Z" fill="white"/>
        <path opacity="0.3" d="M478.148 114.434H482.516C482.516 112.753 481.844 111.072 480.668 109.895L477.644 113.089C477.98 113.425 478.148 113.929 478.148 114.434Z" fill="white"/>
        <path opacity="0.3" d="M477.476 116.451L480.5 119.477C481.676 118.3 482.348 116.787 482.348 115.106H477.98C477.98 115.61 477.812 116.115 477.476 116.451Z" fill="white"/>
        <path opacity="0.3" d="M473.947 116.787L470.923 119.813C472.099 120.822 473.443 121.494 475.123 121.494V117.123C474.619 117.123 474.283 116.955 473.947 116.787Z" fill="white"/>
        <path opacity="0.3" d="M475.627 117.292V121.662C477.307 121.662 478.819 120.99 479.828 119.981L476.803 116.955C476.635 117.123 476.131 117.123 475.627 117.292Z" fill="white"/>
        <path opacity="0.3" d="M473.275 113.257L470.251 110.231C469.243 111.408 468.571 112.921 468.571 114.602H472.939C472.939 114.098 473.107 113.593 473.275 113.257Z" fill="white"/>
        <path opacity="0.3" d="M472.939 115.106H468.571C468.739 116.787 469.411 118.132 470.419 119.309L473.443 116.283C473.275 115.947 472.939 115.611 472.939 115.106Z" fill="white"/>
        <path opacity="0.3" d="M475.124 112.081V107.71C473.443 107.878 471.931 108.55 470.755 109.559L473.78 112.585C474.116 112.417 474.62 112.081 475.124 112.081Z" fill="white"/>
        <path d="M475.628 106.702C475.124 106.702 474.451 106.701 473.947 106.87C470.251 107.542 467.563 110.736 467.563 114.602C467.563 118.973 471.092 122.502 475.46 122.502C477.644 122.502 479.66 121.662 481.004 120.149C482.516 118.636 483.356 116.787 483.356 114.602C483.524 110.232 479.996 106.702 475.628 106.702ZM478.148 114.434C478.148 113.93 477.98 113.425 477.644 112.921L480.668 109.895C481.676 111.072 482.348 112.585 482.516 114.434H478.148ZM470.923 119.813L473.947 116.787C474.283 116.955 474.62 117.123 475.124 117.292V121.662C473.444 121.494 471.932 120.822 470.923 119.813ZM477.14 112.585C476.804 112.249 476.3 112.081 475.628 112.081V107.71C477.308 107.71 478.988 108.383 480.164 109.559L477.14 112.585ZM472.94 114.434H468.571C468.571 112.753 469.243 111.24 470.252 110.063L473.276 113.089C473.108 113.593 472.94 114.098 472.94 114.434ZM472.94 115.106C473.108 115.611 473.276 115.947 473.444 116.283L470.42 119.309C469.412 118.132 468.739 116.787 468.571 115.106H472.94ZM475.628 116.787C474.451 116.787 473.444 115.779 473.444 114.602C473.444 113.425 474.451 112.417 475.628 112.417C476.468 112.417 477.14 112.921 477.476 113.593V113.762C477.644 113.93 477.644 114.266 477.644 114.602C477.644 114.938 477.644 115.106 477.476 115.443C477.14 116.283 476.468 116.787 475.628 116.787ZM475.628 117.292C476.132 117.292 476.468 117.123 476.804 116.955L479.828 119.981C478.652 120.99 477.14 121.662 475.628 121.662V117.292ZM475.124 107.71V112.081C474.62 112.249 474.116 112.417 473.78 112.753L470.755 109.727C471.763 108.551 473.276 107.878 475.124 107.71ZM480.5 119.477L477.476 116.451C477.812 116.115 477.98 115.611 478.148 115.106H482.516C482.348 116.787 481.508 118.3 480.5 119.477Z" fill="white"/>
    </g>
    <g class="is-hidden-eje">
        <path d="M519.812 132.925C529.926 132.925 538.124 124.721 538.124 114.602C538.124 104.483 529.926 96.2795 519.812 96.2795C509.699 96.2795 501.5 104.483 501.5 114.602C501.5 124.721 509.699 132.925 519.812 132.925Z" fill="#3B5266"/>
        <path d="M507.38 114.602C507.38 109.727 510.068 105.693 514.1 103.508L513.428 102.499C509.06 104.852 506.036 109.391 506.036 114.602C506.036 119.813 509.06 124.351 513.428 126.705L514.1 125.696C510.068 123.511 507.38 119.477 507.38 114.602Z" fill="#76C1AA"/>
        <path d="M526.028 102.499L525.524 103.508C529.556 105.525 532.412 109.727 532.412 114.602C532.412 119.477 529.556 123.679 525.524 125.696L526.028 126.705C530.396 124.351 533.42 119.813 533.42 114.602C533.42 109.391 530.396 104.852 526.028 102.499Z" fill="#76C1AA"/>
        <path opacity="0.3" d="M519.812 117.292C521.296 117.292 522.5 116.087 522.5 114.602C522.5 113.116 521.296 111.912 519.812 111.912C518.327 111.912 517.124 113.116 517.124 114.602C517.124 116.087 518.327 117.292 519.812 117.292Z" fill="white"/>
        <path opacity="0.3" d="M521.324 112.585L524.348 109.559C523.172 108.382 521.66 107.71 519.812 107.71V112.081C520.484 112.081 520.988 112.249 521.324 112.585Z" fill="white"/>
        <path opacity="0.3" d="M522.332 114.434H526.7C526.7 112.753 526.028 111.072 524.852 109.895L521.828 112.921C522.164 113.425 522.332 113.929 522.332 114.434Z" fill="white"/>
        <path opacity="0.3" d="M521.66 116.451L524.684 119.477C525.86 118.3 526.532 116.787 526.532 115.106H522.164C522.164 115.61 521.996 116.115 521.66 116.451Z" fill="white"/>
        <path opacity="0.3" d="M518.132 116.787L515.108 119.813C516.284 120.822 517.628 121.494 519.308 121.494V117.123C518.804 117.123 518.468 116.955 518.132 116.787Z" fill="white"/>
        <path opacity="0.3" d="M519.812 117.292V121.662C521.492 121.662 523.004 120.99 524.012 119.981L520.988 116.955C520.82 117.123 520.316 117.123 519.812 117.292Z" fill="white"/>
        <path opacity="0.3" d="M517.46 113.257L514.436 110.231C513.428 111.408 512.756 112.921 512.756 114.602H517.124C517.124 114.098 517.292 113.593 517.46 113.257Z" fill="white"/>
        <path opacity="0.3" d="M517.124 115.106H512.756C512.924 116.787 513.596 118.132 514.604 119.309L517.628 116.283C517.46 115.947 517.124 115.611 517.124 115.106Z" fill="white"/>
        <path opacity="0.3" d="M519.308 112.081V107.71C517.628 107.878 516.116 108.55 514.94 109.559L517.964 112.585C518.3 112.417 518.636 112.081 519.308 112.081Z" fill="white"/>
        <path d="M519.812 106.702C519.308 106.702 518.636 106.701 518.132 106.87C514.436 107.542 511.748 110.736 511.748 114.602C511.748 118.973 515.276 122.502 519.644 122.502C521.828 122.502 523.844 121.662 525.188 120.149C526.7 118.636 527.54 116.787 527.54 114.602C527.708 110.232 524.18 106.702 519.812 106.702ZM522.332 114.434C522.332 113.93 522.164 113.425 521.828 112.921L524.852 109.895C525.86 111.072 526.532 112.585 526.7 114.434H522.332ZM515.108 119.813L518.132 116.787C518.468 116.955 518.804 117.123 519.308 117.292V121.662C517.628 121.494 516.116 120.822 515.108 119.813ZM521.324 112.585C520.988 112.249 520.484 112.081 519.812 112.081V107.71C521.492 107.71 523.172 108.383 524.348 109.559L521.324 112.585ZM517.124 114.434H512.756C512.756 112.753 513.428 111.24 514.436 110.063L517.46 113.089C517.292 113.593 517.124 114.098 517.124 114.434ZM517.124 115.106C517.292 115.611 517.46 115.947 517.628 116.283L514.604 119.309C513.596 118.132 512.924 116.787 512.756 115.106H517.124ZM519.812 116.787C518.636 116.787 517.628 115.779 517.628 114.602C517.628 113.425 518.636 112.417 519.812 112.417C520.652 112.417 521.324 112.921 521.66 113.593V113.762C521.828 113.93 521.828 114.266 521.828 114.602C521.828 114.938 521.828 115.106 521.66 115.443C521.324 116.283 520.652 116.787 519.812 116.787ZM519.812 117.292C520.316 117.292 520.652 117.123 520.988 116.955L524.012 119.981C522.836 120.99 521.324 121.662 519.812 121.662V117.292ZM519.308 107.71V112.081C518.804 112.249 518.3 112.417 517.964 112.753L514.94 109.727C515.948 108.551 517.46 107.878 519.308 107.71ZM524.684 119.477L521.66 116.451C521.996 116.115 522.164 115.611 522.332 115.106H526.7C526.364 116.787 525.692 118.3 524.684 119.477Z" fill="white"/>
    </g>
    <g class="is-hidden-eje">
        <path d="M563.828 132.925C573.942 132.925 582.14 124.721 582.14 114.602C582.14 104.483 573.942 96.2795 563.828 96.2795C553.715 96.2795 545.516 104.483 545.516 114.602C545.516 124.721 553.715 132.925 563.828 132.925Z" fill="#3B5266"/>
        <path d="M551.564 114.602C551.564 109.727 554.252 105.693 558.284 103.508L557.612 102.499C553.244 104.852 550.22 109.391 550.22 114.602C550.22 119.813 553.244 124.351 557.612 126.705L558.284 125.696C554.252 123.511 551.564 119.477 551.564 114.602Z" fill="#76C1AA"/>
        <path d="M570.213 102.499L569.708 103.508C573.741 105.525 576.597 109.727 576.597 114.602C576.597 119.477 573.741 123.679 569.708 125.696L570.213 126.705C574.581 124.351 577.605 119.813 577.605 114.602C577.605 109.391 574.581 104.852 570.213 102.499Z" fill="#76C1AA"/>
        <path opacity="0.3" d="M563.829 117.292C565.313 117.292 566.516 116.087 566.516 114.602C566.516 113.116 565.313 111.912 563.829 111.912C562.344 111.912 561.141 113.116 561.141 114.602C561.141 116.087 562.344 117.292 563.829 117.292Z" fill="white"/>
        <path opacity="0.3" d="M565.508 112.585L568.532 109.559C567.356 108.382 565.844 107.71 563.996 107.71V112.081C564.668 112.081 565.172 112.249 565.508 112.585Z" fill="white"/>
        <path opacity="0.3" d="M566.517 114.434H570.885C570.885 112.753 570.213 111.072 569.037 109.895L566.013 112.921C566.349 113.425 566.517 113.929 566.517 114.434Z" fill="white"/>
        <path opacity="0.3" d="M565.845 116.451L568.869 119.477C570.045 118.3 570.717 116.787 570.717 115.106H566.349C566.349 115.61 566.181 116.115 565.845 116.451Z" fill="white"/>
        <path opacity="0.3" d="M562.316 116.787L559.292 119.813C560.468 120.822 561.812 121.494 563.492 121.494V117.123C562.988 117.123 562.652 116.955 562.316 116.787Z" fill="white"/>
        <path opacity="0.3" d="M563.996 117.292V121.662C565.676 121.662 567.188 120.99 568.196 119.981L565.172 116.955C565.004 117.123 564.5 117.123 563.996 117.292Z" fill="white"/>
        <path opacity="0.3" d="M561.645 113.257L558.62 110.231C557.612 111.408 556.94 112.921 556.94 114.602H561.309C561.309 114.098 561.477 113.593 561.645 113.257Z" fill="white"/>
        <path opacity="0.3" d="M561.308 115.106H556.94C557.108 116.787 557.78 118.132 558.788 119.309L561.812 116.283C561.644 115.947 561.308 115.611 561.308 115.106Z" fill="white"/>
        <path opacity="0.3" d="M563.492 112.081V107.71C561.813 107.878 560.301 108.55 559.125 109.559L562.148 112.585C562.484 112.417 562.82 112.081 563.492 112.081Z" fill="white"/>
        <path d="M563.996 106.702C563.492 106.702 562.82 106.701 562.316 106.87C558.62 107.542 555.932 110.736 555.932 114.602C555.932 118.973 559.46 122.502 563.828 122.502C566.012 122.502 568.028 121.662 569.372 120.149C570.884 118.636 571.724 116.787 571.724 114.602C571.892 110.232 568.364 106.702 563.996 106.702ZM566.516 114.434C566.516 113.93 566.348 113.425 566.012 112.921L569.036 109.895C570.044 111.072 570.716 112.585 570.884 114.434H566.516ZM559.292 119.813L562.316 116.787C562.652 116.955 562.988 117.123 563.492 117.292V121.662C561.812 121.494 560.3 120.822 559.292 119.813ZM565.508 112.585C565.172 112.249 564.668 112.081 563.996 112.081V107.71C565.676 107.71 567.356 108.383 568.532 109.559L565.508 112.585ZM561.308 114.434H556.94C556.94 112.753 557.612 111.24 558.62 110.063L561.644 113.089C561.476 113.593 561.308 114.098 561.308 114.434ZM561.308 115.106C561.476 115.611 561.644 115.947 561.812 116.283L558.788 119.309C557.78 118.132 557.108 116.787 556.94 115.106H561.308ZM563.828 116.787C562.652 116.787 561.644 115.779 561.644 114.602C561.644 113.425 562.652 112.417 563.828 112.417C564.668 112.417 565.34 112.921 565.676 113.593V113.762C565.844 113.93 565.844 114.266 565.844 114.602C565.844 114.938 565.844 115.106 565.676 115.443C565.508 116.283 564.836 116.787 563.828 116.787ZM563.996 117.292C564.5 117.292 564.836 117.123 565.172 116.955L568.196 119.981C567.02 120.99 565.508 121.662 563.996 121.662V117.292ZM563.492 107.71V112.081C562.988 112.249 562.484 112.417 562.148 112.753L559.124 109.727C560.132 108.551 561.644 107.878 563.492 107.71ZM568.868 119.477L565.844 116.451C566.18 116.115 566.348 115.611 566.516 115.106H570.884C570.548 116.787 569.876 118.3 568.868 119.477Z" fill="white"/>
    </g>
    <g class="is-hidden-eje">
        <path d="M608.013 132.925C618.126 132.925 626.325 124.721 626.325 114.602C626.325 104.483 618.126 96.2795 608.013 96.2795C597.899 96.2795 589.701 104.483 589.701 114.602C589.701 124.721 597.899 132.925 608.013 132.925Z" fill="#3B5266"/>
        <path d="M595.749 114.602C595.749 109.727 598.437 105.693 602.469 103.508L601.797 102.499C597.429 104.852 594.405 109.391 594.405 114.602C594.405 119.813 597.429 124.351 601.797 126.705L602.469 125.696C598.437 123.511 595.749 119.477 595.749 114.602Z" fill="#76C1AA"/>
        <path d="M614.397 102.499L613.893 103.508C617.925 105.525 620.781 109.727 620.781 114.602C620.781 119.477 617.925 123.679 613.893 125.696L614.397 126.705C618.765 124.351 621.789 119.813 621.789 114.602C621.789 109.391 618.765 104.852 614.397 102.499Z" fill="#76C1AA"/>
        <path opacity="0.3" d="M608.013 117.292C609.497 117.292 610.701 116.087 610.701 114.602C610.701 113.116 609.497 111.912 608.013 111.912C606.528 111.912 605.325 113.116 605.325 114.602C605.325 116.087 606.528 117.292 608.013 117.292Z" fill="white"/>
        <path opacity="0.3" d="M609.693 112.585L612.717 109.559C611.541 108.382 610.029 107.71 608.181 107.71V112.081C608.853 112.081 609.357 112.249 609.693 112.585Z" fill="white"/>
        <path opacity="0.3" d="M610.701 114.434H615.069C615.069 112.753 614.397 111.072 613.221 109.895L610.197 112.921C610.365 113.425 610.701 113.929 610.701 114.434Z" fill="white"/>
        <path opacity="0.3" d="M610.029 116.451L613.053 119.477C614.229 118.3 614.901 116.787 614.901 115.106H610.533C610.533 115.61 610.365 116.115 610.029 116.451Z" fill="white"/>
        <path opacity="0.3" d="M606.501 116.787L603.477 119.813C604.653 120.822 605.997 121.494 607.677 121.494V117.123C607.173 117.123 606.837 116.955 606.501 116.787Z" fill="white"/>
        <path opacity="0.3" d="M608.181 117.292V121.662C609.861 121.662 611.373 120.99 612.381 119.981L609.357 116.955C609.021 117.123 608.685 117.123 608.181 117.292Z" fill="white"/>
        <path opacity="0.3" d="M605.829 113.257L602.805 110.231C601.797 111.408 601.125 112.921 601.125 114.602H605.493C605.493 114.098 605.661 113.593 605.829 113.257Z" fill="white"/>
        <path opacity="0.3" d="M605.493 115.106H601.125C601.293 116.787 601.965 118.132 602.973 119.309L605.997 116.283C605.829 115.947 605.493 115.611 605.493 115.106Z" fill="white"/>
        <path opacity="0.3" d="M607.509 112.081V107.71C605.829 107.878 604.317 108.55 603.141 109.559L606.165 112.585C606.669 112.417 607.005 112.081 607.509 112.081Z" fill="white"/>
        <path d="M608.181 106.702C607.677 106.702 607.005 106.701 606.501 106.87C602.805 107.542 600.117 110.736 600.117 114.602C600.117 118.973 603.645 122.502 608.013 122.502C610.197 122.502 612.213 121.662 613.557 120.149C615.069 118.636 615.909 116.787 615.909 114.602C616.077 110.232 612.549 106.702 608.181 106.702ZM610.701 114.434C610.701 113.93 610.533 113.425 610.197 112.921L613.221 109.895C614.229 111.072 614.901 112.585 615.069 114.434H610.701ZM603.477 119.813L606.501 116.787C606.837 116.955 607.173 117.123 607.677 117.292V121.662C605.997 121.494 604.485 120.822 603.477 119.813ZM609.693 112.585C609.357 112.249 608.853 112.081 608.181 112.081V107.71C609.861 107.71 611.541 108.383 612.717 109.559L609.693 112.585ZM605.493 114.434H601.125C601.125 112.753 601.797 111.24 602.805 110.063L605.829 113.089C605.661 113.593 605.493 114.098 605.493 114.434ZM605.493 115.106C605.661 115.611 605.829 115.947 605.997 116.283L602.973 119.309C601.965 118.132 601.293 116.787 601.125 115.106H605.493ZM608.013 116.787C606.837 116.787 605.829 115.779 605.829 114.602C605.829 113.425 606.837 112.417 608.013 112.417C608.853 112.417 609.525 112.921 609.861 113.593V113.762C610.029 113.93 610.029 114.266 610.029 114.602C610.029 114.938 610.029 115.106 609.861 115.443C609.693 116.283 609.021 116.787 608.013 116.787ZM608.181 117.292C608.685 117.292 609.021 117.123 609.357 116.955L612.381 119.981C611.205 120.99 609.693 121.662 608.181 121.662V117.292ZM607.509 107.71V112.081C607.005 112.249 606.501 112.417 606.165 112.753L603.141 109.727C604.317 108.551 605.829 107.878 607.509 107.71ZM613.053 119.477L610.029 116.451C610.365 116.115 610.533 115.611 610.701 115.106H615.069C614.733 116.787 614.061 118.3 613.053 119.477Z" fill="white"/>
    </g>
    <path d="M96.7856 96.6156C96.7856 96.6156 96.9536 96.6156 96.7856 96.6156C96.9536 96.6156 96.9536 96.6156 96.7856 96.6156C96.9536 96.6156 98.1296 96.4475 98.9696 95.7751C99.8096 94.7666 100.146 93.0855 99.4736 92.245C99.1376 91.9089 98.6336 91.7408 98.1296 91.7408C97.6256 91.9089 97.2896 92.077 97.1216 92.5813C97.1216 92.7494 97.1216 92.7494 97.1216 92.9175C97.2896 92.9175 97.2896 92.9175 97.4576 92.9175C97.6256 92.7494 97.7936 92.7494 97.9616 92.7494C98.1296 92.7494 98.1296 92.9174 98.2976 93.0855C98.2976 93.2536 98.2976 93.4218 98.1296 93.5899L97.9616 93.758C97.6256 93.758 97.1216 93.4218 96.6176 92.9175C96.1136 92.4132 95.4416 92.077 94.9376 91.7408C94.0976 91.4046 91.5776 90.9003 89.8975 92.077C89.8975 92.077 88.8895 92.9175 88.7215 93.5899C88.3855 94.2623 88.3855 95.1027 88.5535 95.607C88.3855 95.7751 88.2175 95.9432 88.2175 96.2794C88.2175 96.7837 88.7215 97.1199 89.5615 97.288C89.5615 97.4561 89.3935 97.4561 89.3935 97.6242C89.3935 98.1285 90.0656 98.6328 90.9056 98.6328C91.5776 98.6328 92.0816 98.4646 92.2496 98.1284C92.4176 98.4646 92.9216 98.6328 93.5936 98.6328C94.4336 98.6328 95.1056 98.1285 95.1056 97.6242C95.1056 97.4561 95.1056 97.288 94.9376 97.288C95.4416 97.288 95.7776 97.1199 96.1136 96.7837C96.1136 96.7837 96.1136 96.7837 96.2816 96.7837C96.1136 96.7837 96.4496 96.6156 96.7856 96.6156ZM97.9616 95.7751C97.7936 95.9432 97.4576 95.9432 97.2896 95.9432C97.4576 94.9346 96.7856 93.926 96.6176 93.4217C96.9536 93.7579 97.2896 93.9261 97.6256 94.0942C97.7936 94.4304 98.1296 95.1028 97.9616 95.7751ZM96.1136 96.2794C96.1136 96.1113 95.9456 95.7751 95.7776 95.4389C95.4416 94.7665 94.7696 93.758 93.0896 93.2537C90.9056 92.5813 89.8975 92.9175 89.3935 93.2537C89.3935 93.2537 89.3935 93.2536 89.5615 93.0855C89.7295 92.9174 89.8976 92.7494 90.0656 92.5813C90.7376 92.2451 91.9136 92.2451 93.5936 92.7494C95.7776 93.4218 96.4496 94.9346 96.6176 95.607C96.6176 95.7751 96.7856 96.1113 96.7856 96.2794C96.7856 96.2794 96.7856 96.2794 96.6176 96.2794C96.2816 96.2794 96.2816 96.2794 96.1136 96.2794ZM92.9216 94.0942C92.5856 94.0942 92.4176 94.2623 92.2496 94.4304C91.9136 94.0942 91.5776 93.926 90.9056 93.926C90.7376 93.926 90.5696 93.926 90.4016 93.926C90.9056 93.7579 91.5776 93.758 92.2496 93.758C92.4176 94.0942 92.5856 94.0942 92.9216 94.0942ZM90.9056 94.5984C91.4096 94.5984 91.9136 94.9346 91.9136 95.1027C91.9136 95.2708 91.7456 95.4389 91.5776 95.4389H91.4096C91.2416 95.4389 91.0736 95.4389 90.9056 95.4389C90.4016 95.4389 89.8975 95.1028 89.8975 94.9347C89.8975 94.7666 90.2336 94.5984 90.9056 94.5984ZM91.5776 95.9432H91.7456C91.9136 95.9432 91.9136 95.9432 92.0816 95.9432C92.7536 95.9432 93.0896 96.2794 93.0896 96.4475C93.0896 96.6156 92.5856 96.9518 92.0816 96.9518C91.4096 96.9518 91.0735 96.6156 91.0735 96.4475C91.0735 96.2794 91.2416 96.1113 91.5776 95.9432ZM92.4176 95.1027C92.4176 94.9346 92.9216 94.5984 93.4256 94.5984C93.5936 94.5984 93.5936 94.5984 93.7616 94.5984C94.0976 94.5984 94.4336 94.9346 94.4336 95.1027C94.4336 95.2708 94.2656 95.4389 93.9296 95.607C93.7616 95.607 93.5936 95.607 93.4256 95.607C92.7536 95.607 92.4176 95.2708 92.4176 95.1027ZM89.2255 95.4389C89.2255 95.2708 89.2255 95.2708 89.2255 95.1027C89.2255 94.9346 89.3935 94.7665 89.5615 94.5984C89.3935 94.7665 89.3935 94.9346 89.3935 95.1027C89.3935 95.2708 89.3935 95.4389 89.5615 95.4389C89.3935 95.4389 89.3935 95.4389 89.2255 95.4389ZM88.5535 96.4475C88.5535 96.2794 88.7215 96.2795 88.8896 96.1114C89.0576 96.1114 89.2255 95.9432 89.3935 95.9432C89.5615 95.9432 89.5616 95.9432 89.7296 95.9432C90.4016 95.9432 90.7376 96.2794 90.7376 96.4475C90.7376 96.6156 90.5696 96.6156 90.5696 96.7837C90.4016 96.9518 90.0656 96.9518 89.7296 96.9518C88.8896 96.9518 88.5535 96.6156 88.5535 96.4475ZM90.7376 98.2966C90.0655 98.2966 89.7296 98.1285 89.7296 97.7923C89.7296 97.6242 90.2335 97.288 90.7376 97.288C91.0736 97.288 91.2416 97.288 91.5776 97.4561C91.5776 97.4561 91.7456 97.6242 91.7456 97.7923C91.7456 97.9604 91.2416 98.2966 90.7376 98.2966ZM93.4256 98.2966C92.7536 98.2966 92.4176 97.9604 92.4176 97.7923C92.4176 97.7923 92.4176 97.6242 92.5856 97.6242C92.7536 97.4561 93.0896 97.288 93.4256 97.288C93.5936 97.288 93.7616 97.288 93.9296 97.288C94.2656 97.4561 94.4336 97.6242 94.4336 97.7923C94.4336 97.9604 93.9296 98.2966 93.4256 98.2966ZM95.6096 96.6156C95.4416 96.7837 95.1056 96.9518 94.6016 96.9518C94.4336 96.9518 94.2656 96.9518 94.0976 96.9518C93.7616 96.7837 93.5936 96.6156 93.5936 96.4475C93.5936 96.2794 93.7616 96.1113 94.0976 95.9432C94.2656 95.9432 94.4336 95.9432 94.6016 95.9432C94.7696 95.9432 94.7696 95.9432 94.9376 95.9432C95.2736 95.9432 95.6096 96.2794 95.6096 96.6156C95.6096 96.4475 95.6096 96.4475 95.6096 96.6156Z" fill="white"/>
    <path d="M108.882 91.2364V78.9654C108.882 78.7973 108.882 78.6292 108.714 78.6292C108.546 78.6292 108.378 78.6292 108.378 78.6292L107.034 79.3016V74.9311C107.034 74.763 107.034 74.5948 106.866 74.5948C106.698 74.5948 106.53 74.5948 106.53 74.5948L100.482 78.4611H100.314C99.3056 78.7973 98.2976 78.9654 97.4576 78.9654C94.6016 78.9654 93.5936 77.1163 93.5936 77.1163C93.5936 76.9482 93.4256 76.9482 93.2576 76.9482C93.0896 76.9482 92.9216 77.1163 92.9216 77.1163C92.9216 77.1163 91.9136 78.9654 89.0576 78.9654C88.2176 78.9654 87.2096 78.7973 86.2016 78.4611L80.1535 74.5948C79.9855 74.5948 79.8175 74.5948 79.6495 74.5948C79.4815 74.5948 79.4815 74.763 79.4815 74.9311V79.3016L78.3055 78.6292C78.1375 78.6292 77.9695 78.6292 77.9695 78.6292C77.8015 78.6292 77.8015 78.7973 77.8015 78.9654V91.2364C77.8015 91.4045 77.8015 94.4302 80.3215 96.7836C82.5055 98.9688 85.8656 100.145 90.4016 100.145C90.4016 100.145 90.4016 100.145 90.5696 100.145C92.2496 100.65 93.2576 100.986 93.2576 102.499C93.2576 102.667 93.4256 102.835 93.5936 102.835C93.7616 102.835 93.9296 102.667 93.9296 102.499C93.9296 101.154 94.9376 100.65 96.6176 100.145H96.7856C101.322 100.145 104.682 98.9688 106.866 96.7836C108.882 94.2621 108.882 91.4045 108.882 91.2364ZM87.3776 87.5383C87.8816 87.3702 88.0496 86.3616 88.0496 86.3616C88.0496 86.3616 88.8896 86.8659 89.3936 86.6978C89.3936 86.8659 89.3936 87.3702 89.3936 87.3702C89.3936 87.3702 89.2256 87.7063 89.3936 88.0425C89.5616 88.2106 89.5616 88.5468 89.5616 88.883C89.2256 88.883 89.0576 88.883 88.7216 88.883C88.2176 88.883 87.7136 88.883 87.3776 88.883C87.3776 88.2106 87.3776 88.0426 87.3776 87.5383ZM96.7856 86.8659H97.7936C97.7936 87.3702 97.7936 87.8745 97.9616 88.715L96.7856 88.5469C96.7856 87.8745 96.7856 87.3702 96.7856 86.8659ZM105.018 88.5469C104.346 89.2193 103.338 89.5554 102.162 89.5554C101.826 88.715 101.658 87.8744 101.658 87.2021L106.194 84.6806C106.194 85.0168 106.194 87.2021 105.018 88.5469ZM80.1535 84.6806L84.6896 87.2021C84.6896 87.8744 84.5216 88.715 84.1856 89.5554C83.0095 89.5554 82.1695 89.2193 81.4975 88.5469C80.1535 87.2021 80.1535 85.0168 80.1535 84.6806ZM108.042 79.6377V87.2021L106.026 88.3788C107.034 86.6978 107.034 84.8488 107.034 84.5126V80.1421L108.042 79.6377ZM106.194 79.8059L102.834 81.8231C102.666 81.655 102.162 80.9825 100.986 79.1335L106.194 75.7715V79.8059ZM97.2896 79.6377C98.1296 79.6377 99.1376 79.4697 100.146 79.1335C101.322 80.8144 101.826 81.6549 102.162 81.9911C101.658 82.8316 100.146 85.6892 101.322 89.2192C100.818 88.7149 99.6416 88.5469 98.4656 88.5469C98.2976 87.7064 98.2976 87.2021 98.2976 86.6978H100.146C100.314 86.6978 100.314 86.3617 100.314 86.0255V84.3445C100.314 82.9997 99.6416 82.9997 99.6416 82.9997C99.6416 82.9997 99.1376 82.9997 98.9696 82.3273C98.8016 81.6549 98.2976 81.1506 97.7936 81.1506C97.2896 81.1506 96.2816 81.4868 95.6096 81.9911C95.1056 82.1592 95.1056 82.4954 95.1056 82.9997C94.9376 84.1763 94.6016 84.0083 94.6016 84.0083C94.4336 84.0083 94.2656 84.1764 94.2656 84.5126V86.1935C94.2656 86.5297 94.4336 86.8659 94.6016 86.8659H96.4496C96.4496 87.3702 96.4496 87.8745 96.2816 88.715C95.1056 88.715 94.0976 89.0512 93.4256 89.5554V78.293C93.9296 78.9654 95.2736 79.6377 97.2896 79.6377ZM92.5856 78.4611V89.2192C92.0816 88.883 91.2416 88.715 90.2336 88.715C90.0656 88.2107 90.0656 86.8659 90.2336 86.5297C91.0736 86.3616 91.0736 85.5212 91.0736 84.8488C91.0736 84.3445 90.9056 82.4954 90.9056 82.4954L91.4096 82.3273C91.5776 82.3273 91.5776 82.3273 91.5776 82.1592C91.5776 81.9911 91.5776 81.8231 91.5776 81.8231L91.0736 81.6549C90.9056 81.4868 90.7376 81.3187 90.5696 81.3187C90.4016 81.3187 90.0656 81.3187 89.8976 81.6549C89.7296 81.4868 89.3936 81.6549 89.2256 81.6549C89.2256 81.6549 89.2256 82.4954 90.0656 82.3273L90.2336 84.5126C90.2336 84.5126 90.2336 85.0169 89.7296 84.8488C89.2256 84.6807 88.2176 84.3445 87.5456 84.5126C87.2096 84.6807 86.7056 84.8488 86.3696 85.6893C86.0336 86.5297 86.5376 86.1935 86.5376 86.1935L87.0416 85.8573C87.0416 85.8573 87.3776 86.5297 87.0416 87.034C86.7056 87.3702 86.8735 87.7064 86.8735 87.7064C86.8735 87.7064 87.0416 88.5468 87.0416 88.883C86.2016 88.883 85.5296 89.2193 85.0256 89.3874C86.0336 85.8574 84.6896 82.9997 84.1856 82.1592C84.5216 81.823 85.0255 80.9826 86.2016 79.3016C87.2096 79.6378 88.2176 79.8059 89.0576 79.8059C90.7376 79.6378 91.7456 79.1335 92.5856 78.4611ZM80.1535 75.7715L85.3616 79.1335C84.3535 80.8144 83.6815 81.4869 83.5135 81.8231L80.1535 79.9739V75.7715ZM79.3135 80.1421V84.5126C79.3135 84.6807 79.3135 86.6978 80.3215 88.3788L78.3055 87.2021V79.6377L79.3135 80.1421ZM78.4735 92.4131L83.5135 95.2708C84.0175 96.6155 84.8575 97.456 86.2016 98.6327C86.5376 98.9689 87.0416 99.1369 87.3776 99.305C84.3535 98.9688 82.0015 97.9603 80.4895 96.2793C79.1455 94.9345 78.6415 93.4217 78.4735 92.4131ZM93.0896 100.986C92.4176 99.9774 91.2416 99.6412 89.8976 99.305C88.7216 98.9688 87.5456 98.6327 86.5376 97.7922C84.0175 95.9431 83.1775 94.2621 84.5215 90.3959H101.658C103.002 94.2621 102.162 95.775 99.6416 97.7922C98.6336 98.4646 97.4576 98.9689 96.2816 99.1369C94.9376 99.6412 93.7616 99.9774 93.0896 100.986ZM105.858 96.2793C104.178 97.9603 101.826 98.9688 98.8016 99.305C99.3056 99.1369 99.6416 98.8008 99.9776 98.6327C101.322 97.6241 102.33 96.6155 102.666 95.4388C102.666 95.4388 102.666 95.4388 102.834 95.4388L107.874 92.5812C107.706 93.4216 107.202 94.9345 105.858 96.2793Z" fill="white"/>
    <path d="M93.0897 76.6121C95.4417 76.6121 97.1217 75.4354 97.1217 73.9225C97.1217 72.4097 95.2737 71.2329 93.0897 71.2329C90.7377 71.2329 89.0576 72.4097 89.0576 73.9225C89.0576 75.4354 90.7377 76.444 93.0897 76.6121ZM93.0897 72.2416C94.2657 72.2416 95.1057 72.7458 95.1057 73.2501C95.1057 73.7544 94.6017 74.0907 93.9297 74.2588C93.2577 74.4269 93.4257 74.763 93.0897 74.9311C92.7537 74.763 92.9217 74.4269 92.2497 74.2588C91.5777 74.0907 91.0736 73.7544 91.0736 73.2501C91.0736 72.7458 91.9137 72.2416 93.0897 72.2416Z" fill="white"/>
</svg>
