<svg class="tracto-plataforma-alta transport-item is-hidden" width="647" height="134" viewBox="0 0 647 134" fill="none" xmlns="http://www.w3.org/2000/svg">
    <path d="M215.226 2.15137H199.266V83.6785H215.226V2.15137Z" fill="#DCE9EF" stroke="#65819B" stroke-width="1.1475" stroke-miterlimit="10"/>
    <path d="M635.565 68.2136H199.266V86.3679H635.565V68.2136Z" fill="#DCE9EF" stroke="#65819B" stroke-width="1.1475" stroke-miterlimit="10"/>
    <path d="M174.738 88.5532V91.7471H150.714V85.8637H139.962V11.0606H135.426V0.134277H129.546V10.7243H127.362V76.6184H122.658V17.4481H72.2574L72.5934 25.5169H78.8095L64.0254 61.1533H10.2651V98.4709H0.520996V107.716H9.76105V111.919H160.962V107.38H321.907V88.5532H174.738ZM100.482 61.4896H79.4815L89.0575 26.5254H100.482V61.4896Z" fill="#57578E"/>
    <g class="is-hidden-eje">
        <path d="M36.9772 128.896C47.0907 128.896 55.2893 120.693 55.2893 110.574C55.2893 100.455 47.0907 92.2512 36.9772 92.2512C26.8636 92.2512 18.665 100.455 18.665 110.574C18.665 120.693 26.8636 128.896 36.9772 128.896Z" fill="#3B5266"/>
        <path d="M24.5452 110.574C24.5452 105.699 27.2332 101.665 31.2652 99.4795L30.5932 98.4709C26.2252 100.824 23.2012 105.363 23.2012 110.574C23.2012 115.785 26.2252 120.323 30.5932 122.677L31.2652 121.668C27.4012 119.651 24.5452 115.449 24.5452 110.574Z" fill="#76C1AA"/>
        <path d="M43.3612 98.4709L42.8572 99.4795C46.8892 101.497 49.7452 105.699 49.7452 110.574C49.7452 115.449 46.8892 119.651 42.8572 121.668L43.3612 122.677C47.7292 120.323 50.7533 115.785 50.7533 110.574C50.5852 105.363 47.7292 100.824 43.3612 98.4709Z" fill="#76C1AA"/>
        <path opacity="0.3" d="M36.9771 113.263C38.4616 113.263 39.6651 112.059 39.6651 110.574C39.6651 109.089 38.4616 107.885 36.9771 107.885C35.4925 107.885 34.2891 109.089 34.2891 110.574C34.2891 112.059 35.4925 113.263 36.9771 113.263Z" fill="white"/>
        <path opacity="0.3" d="M38.657 108.557L41.6811 105.531C40.505 104.354 38.993 103.682 37.145 103.682V108.052C37.649 108.052 38.153 108.22 38.657 108.557Z" fill="white"/>
        <path opacity="0.3" d="M39.6651 110.574H44.0332C44.0332 108.893 43.3612 107.212 42.1852 106.035L39.1611 109.061C39.3291 109.397 39.4971 109.902 39.6651 110.574Z" fill="white"/>
        <path opacity="0.3" d="M38.8252 112.423L41.8492 115.449C43.0252 114.272 43.6972 112.759 43.6972 111.078H39.3292C39.4972 111.582 39.1612 112.087 38.8252 112.423Z" fill="white"/>
        <path opacity="0.3" d="M35.4652 112.759L32.4412 115.785C33.6172 116.793 34.9612 117.466 36.6412 117.466V113.095C36.1372 113.095 35.8012 112.927 35.4652 112.759Z" fill="white"/>
        <path opacity="0.3" d="M37.145 113.263V117.634C38.825 117.634 40.3371 116.961 41.3451 115.953L38.321 112.927C37.985 113.095 37.649 113.263 37.145 113.263Z" fill="white"/>
        <path opacity="0.3" d="M34.7932 109.229L31.7691 106.203C30.7611 107.38 30.0891 108.893 30.0891 110.574H34.4571C34.2891 110.07 34.4571 109.565 34.7932 109.229Z" fill="white"/>
        <path opacity="0.3" d="M34.4572 111.078H30.0891C30.2571 112.759 30.9291 114.104 31.9371 115.281L34.9612 112.255C34.6252 111.919 34.4572 111.582 34.4572 111.078Z" fill="white"/>
        <path opacity="0.3" d="M36.473 108.052V103.682C34.793 103.85 33.281 104.522 32.105 105.531L35.129 108.557C35.465 108.389 35.969 108.052 36.473 108.052Z" fill="white"/>
        <path d="M37.1451 102.673C36.6411 102.673 35.9691 102.673 35.4651 102.841C31.7691 103.514 29.0811 106.708 29.0811 110.574C29.0811 114.944 32.6091 118.474 36.9771 118.474C39.1611 118.474 41.1771 117.634 42.5211 116.121C44.0332 114.608 44.8732 112.759 44.8732 110.574C45.0412 106.203 41.5131 102.673 37.1451 102.673ZM39.6651 110.574C39.6651 110.07 39.4971 109.565 39.1611 109.061L42.1851 106.035C43.1932 107.212 43.8652 108.725 44.0332 110.574H39.6651ZM32.2731 115.785L35.2971 112.759C35.6331 112.927 35.9691 113.095 36.4731 113.263V117.634C34.9611 117.466 33.4491 116.793 32.2731 115.785ZM38.6571 108.557C38.3211 108.221 37.8171 108.052 37.1451 108.052V103.682C38.8251 103.682 40.5051 104.354 41.6811 105.531L38.6571 108.557ZM34.2891 110.574H29.9211C29.9211 108.893 30.5931 107.38 31.6011 106.203L34.6251 109.229C34.4571 109.565 34.2891 110.07 34.2891 110.574ZM34.4571 111.078C34.6251 111.583 34.7931 111.919 34.9611 112.255L31.9371 115.281C30.9291 114.104 30.2571 112.759 30.0891 111.078H34.4571ZM36.9771 112.759C35.8011 112.759 34.7931 111.751 34.7931 110.574C34.7931 109.397 35.8011 108.388 36.9771 108.388C37.8171 108.388 38.4891 108.893 38.8251 109.565V109.733C38.9931 109.901 38.9931 110.238 38.9931 110.574C38.9931 110.91 38.9931 111.078 38.8251 111.414C38.6571 112.255 37.8171 112.759 36.9771 112.759ZM37.1451 113.263C37.6491 113.263 37.9851 113.095 38.3211 112.927L41.3451 115.953C40.1691 116.961 38.6571 117.634 37.1451 117.634V113.263ZM36.4731 103.682V108.052C35.9691 108.22 35.4651 108.389 35.1291 108.725L32.1051 105.699C33.2811 104.522 34.7931 103.85 36.4731 103.682ZM42.0171 115.449L38.9931 112.423C39.3291 112.087 39.4971 111.583 39.6651 111.078H44.0332C43.6972 112.759 43.0251 114.272 42.0171 115.449Z" fill="white"/>
    </g>
    <g class="is-hidden-eje">
        <path d="M203.13 128.896C213.244 128.896 221.442 120.693 221.442 110.574C221.442 100.455 213.244 92.2512 203.13 92.2512C193.017 92.2512 184.818 100.455 184.818 110.574C184.818 120.693 193.017 128.896 203.13 128.896Z" fill="#3B5266"/>
        <path d="M190.698 110.574C190.698 105.699 193.386 101.665 197.418 99.4795L196.746 98.4709C192.378 100.824 189.354 105.363 189.354 110.574C189.354 115.785 192.378 120.323 196.746 122.677L197.418 121.668C193.386 119.651 190.698 115.449 190.698 110.574Z" fill="#76C1AA"/>
        <path d="M209.347 98.4709L208.843 99.4795C212.875 101.497 215.731 105.699 215.731 110.574C215.731 115.449 212.875 119.651 208.843 121.668L209.347 122.677C213.715 120.323 216.739 115.785 216.739 110.574C216.739 105.363 213.715 100.824 209.347 98.4709Z" fill="#76C1AA"/>
        <path opacity="0.3" d="M203.13 113.263C204.615 113.263 205.818 112.059 205.818 110.574C205.818 109.089 204.615 107.885 203.13 107.885C201.646 107.885 200.442 109.089 200.442 110.574C200.442 112.059 201.646 113.263 203.13 113.263Z" fill="white"/>
        <path opacity="0.3" d="M204.81 108.557L207.834 105.531C206.658 104.354 205.146 103.682 203.298 103.682V108.052C203.802 108.052 204.306 108.22 204.81 108.557Z" fill="white"/>
        <path opacity="0.3" d="M205.65 110.574H210.018C210.018 108.893 209.346 107.212 208.17 106.035L205.146 109.061C205.482 109.397 205.65 109.902 205.65 110.574Z" fill="white"/>
        <path opacity="0.3" d="M204.978 112.423L208.002 115.449C209.178 114.272 209.85 112.759 209.85 111.078H205.482C205.482 111.582 205.314 112.087 204.978 112.423Z" fill="white"/>
        <path opacity="0.3" d="M201.45 112.759L198.426 115.785C199.602 116.793 200.946 117.466 202.626 117.466V113.095C202.29 113.095 201.786 112.927 201.45 112.759Z" fill="white"/>
        <path opacity="0.3" d="M203.298 113.263V117.634C204.978 117.634 206.49 116.961 207.498 115.953L204.474 112.927C204.138 113.095 203.802 113.263 203.298 113.263Z" fill="white"/>
        <path opacity="0.3" d="M200.946 109.229L197.922 106.203C196.914 107.38 196.242 108.893 196.242 110.574H200.61C200.442 110.07 200.61 109.565 200.946 109.229Z" fill="white"/>
        <path opacity="0.3" d="M200.442 111.078H196.074C196.242 112.759 196.914 114.104 197.922 115.281L200.946 112.255C200.778 111.919 200.61 111.582 200.442 111.078Z" fill="white"/>
        <path opacity="0.3" d="M202.626 108.052V103.682C200.946 103.85 199.434 104.522 198.258 105.531L201.282 108.557C201.618 108.389 202.122 108.052 202.626 108.052Z" fill="white"/>
        <path d="M203.13 102.673C202.626 102.673 201.954 102.673 201.45 102.841C197.754 103.514 195.066 106.708 195.066 110.574C195.066 114.944 198.594 118.474 202.962 118.474C205.146 118.474 207.162 117.634 208.506 116.121C210.018 114.608 210.858 112.759 210.858 110.574C211.026 106.203 207.498 102.673 203.13 102.673ZM205.65 110.574C205.65 110.07 205.482 109.565 205.146 109.061L208.17 106.035C209.178 107.212 209.85 108.725 210.018 110.574H205.65ZM198.426 115.785L201.45 112.759C201.786 112.927 202.122 113.095 202.626 113.263V117.634C200.946 117.466 199.602 116.793 198.426 115.785ZM204.81 108.557C204.474 108.221 203.97 108.052 203.298 108.052V103.682C204.978 103.682 206.658 104.354 207.834 105.531L204.81 108.557ZM200.442 110.574H196.074C196.074 108.893 196.746 107.38 197.754 106.203L200.778 109.229C200.61 109.565 200.442 110.07 200.442 110.574ZM200.442 111.078C200.61 111.583 200.778 111.919 200.946 112.255L197.922 115.281C196.914 114.104 196.242 112.759 196.074 111.078H200.442ZM203.13 112.759C201.954 112.759 200.946 111.751 200.946 110.574C200.946 109.397 201.954 108.388 203.13 108.388C203.97 108.388 204.642 108.893 204.978 109.565V109.733C205.146 109.901 205.146 110.238 205.146 110.574C205.146 110.91 205.146 111.078 204.978 111.414C204.81 112.255 203.97 112.759 203.13 112.759ZM203.298 113.263C203.802 113.263 204.138 113.095 204.474 112.927L207.498 115.953C206.322 116.961 204.81 117.634 203.298 117.634V113.263ZM202.626 103.682V108.052C202.122 108.22 201.618 108.389 201.282 108.725L198.258 105.699C199.434 104.522 200.946 103.85 202.626 103.682ZM208.002 115.449L204.978 112.423C205.314 112.087 205.482 111.583 205.65 111.078H210.018C209.85 112.759 209.178 114.272 208.002 115.449Z" fill="white"/>
    </g>
    <g class="is-hidden-eje">
        <path d="M247.482 128.896C257.596 128.896 265.795 120.693 265.795 110.574C265.795 100.455 257.596 92.2512 247.482 92.2512C237.369 92.2512 229.17 100.455 229.17 110.574C229.17 120.693 237.369 128.896 247.482 128.896Z" fill="#3B5266"/>
        <path d="M235.051 110.574C235.051 105.699 237.739 101.665 241.771 99.4795L241.099 98.4709C236.731 100.824 233.707 105.363 233.707 110.574C233.707 115.785 236.731 120.323 241.099 122.677L241.771 121.668C237.739 119.651 235.051 115.449 235.051 110.574Z" fill="#76C1AA"/>
        <path d="M253.699 98.4709L253.195 99.4795C257.227 101.497 260.083 105.699 260.083 110.574C260.083 115.449 257.227 119.651 253.195 121.668L253.699 122.677C258.067 120.323 261.091 115.785 261.091 110.574C261.091 105.363 258.067 100.824 253.699 98.4709Z" fill="#76C1AA"/>
        <path opacity="0.3" d="M247.483 113.263C248.967 113.263 250.171 112.059 250.171 110.574C250.171 109.089 248.967 107.885 247.483 107.885C245.998 107.885 244.795 109.089 244.795 110.574C244.795 112.059 245.998 113.263 247.483 113.263Z" fill="white"/>
        <path opacity="0.3" d="M248.994 108.557L252.018 105.531C250.842 104.354 249.33 103.682 247.482 103.682V108.052C248.154 108.052 248.658 108.22 248.994 108.557Z" fill="white"/>
        <path opacity="0.3" d="M250.003 110.574H254.371C254.371 108.893 253.699 107.212 252.523 106.035L249.499 109.061C249.835 109.397 250.003 109.902 250.003 110.574Z" fill="white"/>
        <path opacity="0.3" d="M249.331 112.423L252.355 115.449C253.531 114.272 254.203 112.759 254.203 111.078H249.835C249.835 111.582 249.667 112.087 249.331 112.423Z" fill="white"/>
        <path opacity="0.3" d="M245.802 112.759L242.778 115.785C243.954 116.793 245.298 117.466 246.978 117.466V113.095C246.474 113.095 246.138 112.927 245.802 112.759Z" fill="white"/>
        <path opacity="0.3" d="M247.482 113.263V117.634C249.162 117.634 250.674 116.961 251.682 115.953L248.658 112.927C248.49 113.095 247.986 113.263 247.482 113.263Z" fill="white"/>
        <path opacity="0.3" d="M245.13 109.229L242.107 106.203C241.099 107.38 240.427 108.893 240.427 110.574H244.794C244.794 110.07 244.962 109.565 245.13 109.229Z" fill="white"/>
        <path opacity="0.3" d="M244.795 111.078H240.427C240.595 112.759 241.267 114.104 242.275 115.281L245.299 112.255C245.131 111.919 244.795 111.582 244.795 111.078Z" fill="white"/>
        <path opacity="0.3" d="M246.979 108.052V103.682C245.299 103.85 243.787 104.522 242.611 105.531L245.635 108.557C245.971 108.389 246.307 108.052 246.979 108.052Z" fill="white"/>
        <path d="M247.483 102.673C246.979 102.673 246.307 102.673 245.803 102.841C242.106 103.514 239.418 106.708 239.418 110.574C239.418 114.944 242.946 118.474 247.315 118.474C249.499 118.474 251.515 117.634 252.859 116.121C254.371 114.608 255.211 112.759 255.211 110.574C255.379 106.203 251.851 102.673 247.483 102.673ZM250.003 110.574C250.003 110.07 249.835 109.565 249.499 109.061L252.523 106.035C253.531 107.212 254.203 108.725 254.371 110.574H250.003ZM242.778 115.785L245.803 112.759C246.139 112.927 246.475 113.095 246.979 113.263V117.634C245.299 117.466 243.786 116.793 242.778 115.785ZM248.995 108.557C248.659 108.221 248.155 108.052 247.483 108.052V103.682C249.163 103.682 250.843 104.354 252.019 105.531L248.995 108.557ZM244.794 110.574H240.426C240.426 108.893 241.098 107.38 242.106 106.203L245.131 109.229C244.963 109.565 244.794 110.07 244.794 110.574ZM244.794 111.078C244.962 111.583 245.131 111.919 245.299 112.255L242.274 115.281C241.266 114.104 240.594 112.759 240.426 111.078H244.794ZM247.483 112.759C246.307 112.759 245.299 111.751 245.299 110.574C245.299 109.397 246.307 108.388 247.483 108.388C248.323 108.388 248.995 108.893 249.331 109.565V109.733C249.499 109.901 249.499 110.238 249.499 110.574C249.499 110.91 249.499 111.078 249.331 111.414C248.995 112.255 248.323 112.759 247.483 112.759ZM247.483 113.263C247.987 113.263 248.323 113.095 248.659 112.927L251.683 115.953C250.507 116.961 248.995 117.634 247.483 117.634V113.263ZM246.979 103.682V108.052C246.475 108.22 245.971 108.389 245.635 108.725L242.61 105.699C243.619 104.522 245.131 103.85 246.979 103.682ZM252.355 115.449L249.331 112.423C249.667 112.087 249.835 111.583 250.003 111.078H254.371C254.035 112.759 253.363 114.272 252.355 115.449Z" fill="white"/>
    </g>
    <g class="is-hidden-eje">
        <path d="M291.667 128.896C301.78 128.896 309.979 120.693 309.979 110.574C309.979 100.455 301.78 92.2512 291.667 92.2512C281.553 92.2512 273.354 100.455 273.354 110.574C273.354 120.693 281.553 128.896 291.667 128.896Z" fill="#3B5266"/>
        <path d="M279.235 110.574C279.235 105.699 281.923 101.665 285.955 99.4795L285.283 98.4709C280.915 100.824 277.891 105.363 277.891 110.574C277.891 115.785 280.915 120.323 285.283 122.677L285.955 121.668C281.923 119.651 279.235 115.449 279.235 110.574Z" fill="#76C1AA"/>
        <path d="M298.051 98.4709L297.547 99.4795C301.579 101.497 304.435 105.699 304.435 110.574C304.435 115.449 301.579 119.651 297.547 121.668L298.051 122.677C302.419 120.323 305.443 115.785 305.443 110.574C305.275 105.363 302.419 100.824 298.051 98.4709Z" fill="#76C1AA"/>
        <path opacity="0.3" d="M291.667 113.263C293.151 113.263 294.355 112.059 294.355 110.574C294.355 109.089 293.151 107.885 291.667 107.885C290.182 107.885 288.979 109.089 288.979 110.574C288.979 112.059 290.182 113.263 291.667 113.263Z" fill="white"/>
        <path opacity="0.3" d="M293.346 108.557L296.371 105.531C295.195 104.354 293.683 103.682 291.834 103.682V108.052C292.338 108.052 292.842 108.22 293.346 108.557Z" fill="white"/>
        <path opacity="0.3" d="M294.186 110.574H298.554C298.554 108.893 297.882 107.212 296.706 106.035L293.682 109.061C294.018 109.397 294.186 109.902 294.186 110.574Z" fill="white"/>
        <path opacity="0.3" d="M293.514 112.423L296.538 115.449C297.714 114.272 298.386 112.759 298.386 111.078H294.018C294.186 111.582 293.85 112.087 293.514 112.423Z" fill="white"/>
        <path opacity="0.3" d="M289.986 112.759L286.962 115.785C288.138 116.793 289.482 117.466 291.163 117.466V113.095C290.826 113.095 290.322 112.927 289.986 112.759Z" fill="white"/>
        <path opacity="0.3" d="M291.834 113.263V117.634C293.515 117.634 295.027 116.961 296.035 115.953L293.011 112.927C292.675 113.095 292.338 113.263 291.834 113.263Z" fill="white"/>
        <path opacity="0.3" d="M289.483 109.229L286.459 106.203C285.451 107.38 284.779 108.893 284.779 110.574H289.147C288.979 110.07 289.147 109.565 289.483 109.229Z" fill="white"/>
        <path opacity="0.3" d="M288.978 111.078H284.61C284.778 112.759 285.45 114.104 286.458 115.281L289.482 112.255C289.314 111.919 289.146 111.582 288.978 111.078Z" fill="white"/>
        <path opacity="0.3" d="M291.163 108.052V103.682C289.482 103.85 287.97 104.522 286.794 105.531L289.819 108.557C290.155 108.389 290.658 108.052 291.163 108.052Z" fill="white"/>
        <path d="M291.835 102.673C291.331 102.673 290.659 102.673 290.155 102.841C286.458 103.514 283.771 106.708 283.771 110.574C283.771 114.944 287.298 118.474 291.667 118.474C293.851 118.474 295.867 117.634 297.211 116.121C298.723 114.608 299.563 112.759 299.563 110.574C299.563 106.203 296.035 102.673 291.835 102.673ZM294.187 110.574C294.187 110.07 294.019 109.565 293.683 109.061L296.707 106.035C297.715 107.212 298.387 108.725 298.555 110.574H294.187ZM286.963 115.785L289.987 112.759C290.323 112.927 290.659 113.095 291.163 113.263V117.634C289.651 117.466 288.139 116.793 286.963 115.785ZM293.347 108.557C293.011 108.221 292.507 108.052 291.835 108.052V103.682C293.515 103.682 295.195 104.354 296.371 105.531L293.347 108.557ZM288.979 110.574H284.611C284.611 108.893 285.283 107.38 286.291 106.203L289.315 109.229C289.147 109.565 288.979 110.07 288.979 110.574ZM288.979 111.078C289.147 111.583 289.315 111.919 289.483 112.255L286.459 115.281C285.451 114.104 284.779 112.759 284.611 111.078H288.979ZM291.667 112.759C290.491 112.759 289.483 111.751 289.483 110.574C289.483 109.397 290.491 108.388 291.667 108.388C292.507 108.388 293.179 108.893 293.515 109.565V109.733C293.683 109.901 293.683 110.238 293.683 110.574C293.683 110.91 293.683 111.078 293.515 111.414C293.347 112.255 292.507 112.759 291.667 112.759ZM291.835 113.263C292.339 113.263 292.675 113.095 293.011 112.927L296.035 115.953C294.859 116.961 293.347 117.634 291.835 117.634V113.263ZM291.163 103.682V108.052C290.659 108.22 290.155 108.389 289.819 108.725L286.794 105.699C287.971 104.522 289.483 103.85 291.163 103.682ZM296.539 115.449L293.515 112.423C293.851 112.087 294.019 111.583 294.187 111.078H298.555C298.387 112.759 297.715 114.272 296.539 115.449Z" fill="white"/>
    </g>
    <g class="is-hidden-eje">
        <path d="M431.444 133.771C441.557 133.771 449.756 125.568 449.756 115.449C449.756 105.329 441.557 97.126 431.444 97.126C421.33 97.126 413.132 105.329 413.132 115.449C413.132 125.568 421.33 133.771 431.444 133.771Z" fill="#3B5266"/>
        <path d="M419.012 115.449C419.012 110.574 421.7 106.539 425.732 104.354L425.06 103.345C420.692 105.699 417.667 110.238 417.667 115.449C417.667 120.66 420.692 125.198 425.06 127.552L425.732 126.543C421.7 124.526 419.012 120.323 419.012 115.449Z" fill="#76C1AA"/>
        <path d="M437.66 103.345L437.156 104.354C441.188 106.371 444.044 110.574 444.044 115.449C444.044 120.323 441.188 124.526 437.156 126.543L437.66 127.552C442.028 125.198 445.052 120.66 445.052 115.449C445.052 110.238 442.028 105.699 437.66 103.345Z" fill="#76C1AA"/>
        <path opacity="0.3" d="M431.444 118.138C432.928 118.138 434.132 116.934 434.132 115.449C434.132 113.963 432.928 112.759 431.444 112.759C429.959 112.759 428.756 113.963 428.756 115.449C428.756 116.934 429.959 118.138 431.444 118.138Z" fill="white"/>
        <path opacity="0.3" d="M432.956 113.431L435.98 110.406C434.804 109.229 433.292 108.557 431.444 108.557V112.927C432.116 112.927 432.62 113.095 432.956 113.431Z" fill="white"/>
        <path opacity="0.3" d="M433.964 115.449H438.332C438.332 113.768 437.66 112.087 436.484 110.91L433.46 113.936C433.796 114.272 433.964 114.776 433.964 115.449Z" fill="white"/>
        <path opacity="0.3" d="M433.292 117.298L436.316 120.324C437.492 119.147 438.164 117.634 438.164 115.953H433.964C433.796 116.457 433.628 116.962 433.292 117.298Z" fill="white"/>
        <path opacity="0.3" d="M429.764 117.634L426.74 120.66C427.916 121.668 429.26 122.341 430.94 122.341V117.97C430.436 117.97 430.1 117.802 429.764 117.634Z" fill="white"/>
        <path opacity="0.3" d="M431.444 118.138V122.509C433.124 122.509 434.636 121.836 435.644 120.828L432.62 117.802C432.452 117.97 431.948 118.138 431.444 118.138Z" fill="white"/>
        <path opacity="0.3" d="M429.092 114.104L426.068 111.078C425.06 112.255 424.388 113.768 424.388 115.449H428.756C428.756 114.944 428.924 114.44 429.092 114.104Z" fill="white"/>
        <path opacity="0.3" d="M428.756 115.953H424.388C424.556 117.634 425.228 118.979 426.236 120.156L429.26 117.13C429.092 116.794 428.756 116.457 428.756 115.953Z" fill="white"/>
        <path opacity="0.3" d="M430.94 112.927V108.557C429.26 108.725 427.748 109.397 426.572 110.406L429.596 113.431C429.932 113.263 430.436 112.927 430.94 112.927Z" fill="white"/>
        <path d="M431.444 107.548C430.94 107.548 430.268 107.548 429.764 107.716C426.068 108.389 423.38 111.583 423.38 115.449C423.38 119.819 426.908 123.349 431.276 123.349C433.46 123.349 435.476 122.509 436.82 120.996C438.332 119.483 439.172 117.634 439.172 115.449C439.34 111.078 435.812 107.548 431.444 107.548ZM433.964 115.449C433.964 114.944 433.796 114.44 433.46 113.936L436.484 110.91C437.492 112.087 438.164 113.6 438.332 115.449H433.964ZM426.74 120.66L429.764 117.634C430.1 117.802 430.436 117.97 430.94 118.138V122.509C429.26 122.341 427.916 121.668 426.74 120.66ZM432.956 113.431C432.62 113.095 432.116 112.927 431.444 112.927V108.557C433.124 108.557 434.804 109.229 435.98 110.406L432.956 113.431ZM428.756 115.449H424.388C424.388 113.768 425.06 112.255 426.068 111.078L429.092 114.104C428.924 114.44 428.756 114.944 428.756 115.449ZM428.756 115.953C428.924 116.457 429.092 116.793 429.26 117.13L426.236 120.155C425.228 118.979 424.556 117.634 424.388 115.953H428.756ZM431.444 117.634C430.268 117.634 429.26 116.625 429.26 115.449C429.26 114.272 430.268 113.263 431.444 113.263C432.284 113.263 432.956 113.768 433.292 114.44V114.608C433.46 114.776 433.46 115.113 433.46 115.449C433.46 115.785 433.46 115.953 433.292 116.289C432.956 117.13 432.284 117.634 431.444 117.634ZM431.444 118.138C431.948 118.138 432.284 117.97 432.62 117.802L435.644 120.828C434.468 121.836 432.956 122.509 431.444 122.509V118.138ZM430.94 108.557V112.927C430.436 113.095 429.932 113.264 429.596 113.6L426.572 110.574C427.58 109.397 429.092 108.725 430.94 108.557ZM436.316 120.324L433.292 117.298C433.628 116.962 433.796 116.457 433.964 115.953H438.332C438.164 117.634 437.324 119.147 436.316 120.324Z" fill="white"/>
    </g>
    <g class="is-hidden-eje">
        <path d="M475.628 133.771C485.741 133.771 493.94 125.568 493.94 115.449C493.94 105.329 485.741 97.126 475.628 97.126C465.514 97.126 457.315 105.329 457.315 115.449C457.315 125.568 465.514 133.771 475.628 133.771Z" fill="#3B5266"/>
        <path d="M463.196 115.449C463.196 110.574 465.884 106.539 469.915 104.354L469.243 103.345C464.876 105.699 461.852 110.238 461.852 115.449C461.852 120.66 464.876 125.198 469.243 127.552L469.915 126.543C465.884 124.526 463.196 120.323 463.196 115.449Z" fill="#76C1AA"/>
        <path d="M481.844 103.345L481.34 104.354C485.372 106.371 488.228 110.574 488.228 115.449C488.228 120.323 485.372 124.526 481.34 126.543L481.844 127.552C486.212 125.198 489.236 120.66 489.236 115.449C489.236 110.238 486.212 105.699 481.844 103.345Z" fill="#76C1AA"/>
        <path opacity="0.3" d="M475.627 118.138C477.112 118.138 478.315 116.934 478.315 115.449C478.315 113.963 477.112 112.759 475.627 112.759C474.143 112.759 472.939 113.963 472.939 115.449C472.939 116.934 474.143 118.138 475.627 118.138Z" fill="white"/>
        <path opacity="0.3" d="M477.14 113.431L480.164 110.406C478.988 109.229 477.476 108.557 475.627 108.557V112.927C476.299 112.927 476.804 113.095 477.14 113.431Z" fill="white"/>
        <path opacity="0.3" d="M478.148 115.449H482.516C482.516 113.768 481.844 112.087 480.668 110.91L477.644 113.936C477.98 114.272 478.148 114.776 478.148 115.449Z" fill="white"/>
        <path opacity="0.3" d="M477.476 117.298L480.5 120.324C481.676 119.147 482.348 117.634 482.348 115.953H477.98C477.98 116.457 477.812 116.962 477.476 117.298Z" fill="white"/>
        <path opacity="0.3" d="M473.947 117.634L470.923 120.66C472.099 121.668 473.443 122.341 475.123 122.341V117.97C474.619 117.97 474.283 117.802 473.947 117.634Z" fill="white"/>
        <path opacity="0.3" d="M475.627 118.138V122.509C477.307 122.509 478.819 121.836 479.828 120.828L476.803 117.802C476.635 117.97 476.131 118.138 475.627 118.138Z" fill="white"/>
        <path opacity="0.3" d="M473.275 114.104L470.251 111.078C469.243 112.255 468.571 113.768 468.571 115.449H472.939C472.939 114.944 473.107 114.44 473.275 114.104Z" fill="white"/>
        <path opacity="0.3" d="M472.939 115.953H468.571C468.739 117.634 469.411 118.979 470.419 120.156L473.443 117.13C473.275 116.794 472.939 116.457 472.939 115.953Z" fill="white"/>
        <path opacity="0.3" d="M475.124 112.927V108.557C473.443 108.725 471.931 109.397 470.755 110.406L473.78 113.431C474.116 113.263 474.62 112.927 475.124 112.927Z" fill="white"/>
        <path d="M475.628 107.548C475.124 107.548 474.451 107.548 473.947 107.716C470.251 108.389 467.563 111.583 467.563 115.449C467.563 119.819 471.092 123.349 475.46 123.349C477.644 123.349 479.66 122.509 481.004 120.996C482.516 119.483 483.356 117.634 483.356 115.449C483.524 111.078 479.996 107.548 475.628 107.548ZM478.148 115.449C478.148 114.944 477.98 114.44 477.644 113.936L480.668 110.91C481.676 112.087 482.348 113.6 482.516 115.449H478.148ZM470.923 120.66L473.947 117.634C474.283 117.802 474.62 117.97 475.124 118.138V122.509C473.444 122.341 471.932 121.668 470.923 120.66ZM477.14 113.431C476.804 113.095 476.3 112.927 475.628 112.927V108.557C477.308 108.557 478.988 109.229 480.164 110.406L477.14 113.431ZM472.94 115.449H468.571C468.571 113.768 469.243 112.255 470.252 111.078L473.276 114.104C473.108 114.44 472.94 114.944 472.94 115.449ZM472.94 115.953C473.108 116.457 473.276 116.793 473.444 117.13L470.42 120.155C469.412 118.979 468.739 117.634 468.571 115.953H472.94ZM475.628 117.634C474.451 117.634 473.444 116.625 473.444 115.449C473.444 114.272 474.451 113.263 475.628 113.263C476.468 113.263 477.14 113.768 477.476 114.44V114.608C477.644 114.776 477.644 115.113 477.644 115.449C477.644 115.785 477.644 115.953 477.476 116.289C477.14 117.13 476.468 117.634 475.628 117.634ZM475.628 118.138C476.132 118.138 476.468 117.97 476.804 117.802L479.828 120.828C478.652 121.836 477.14 122.509 475.628 122.509V118.138ZM475.124 108.557V112.927C474.62 113.095 474.116 113.264 473.78 113.6L470.755 110.574C471.763 109.397 473.276 108.725 475.124 108.557ZM480.5 120.324L477.476 117.298C477.812 116.962 477.98 116.457 478.148 115.953H482.516C482.348 117.634 481.508 119.147 480.5 120.324Z" fill="white"/>
    </g>
    <g class="is-hidden-eje">
        <path d="M519.812 133.771C529.926 133.771 538.124 125.568 538.124 115.449C538.124 105.329 529.926 97.126 519.812 97.126C509.699 97.126 501.5 105.329 501.5 115.449C501.5 125.568 509.699 133.771 519.812 133.771Z" fill="#3B5266"/>
        <path d="M507.38 115.449C507.38 110.574 510.068 106.539 514.1 104.354L513.428 103.345C509.06 105.699 506.036 110.238 506.036 115.449C506.036 120.66 509.06 125.198 513.428 127.552L514.1 126.543C510.068 124.526 507.38 120.323 507.38 115.449Z" fill="#76C1AA"/>
        <path d="M526.028 103.345L525.524 104.354C529.556 106.371 532.412 110.574 532.412 115.449C532.412 120.323 529.556 124.526 525.524 126.543L526.028 127.552C530.396 125.198 533.42 120.66 533.42 115.449C533.42 110.238 530.396 105.699 526.028 103.345Z" fill="#76C1AA"/>
        <path opacity="0.3" d="M519.812 118.138C521.296 118.138 522.5 116.934 522.5 115.449C522.5 113.963 521.296 112.759 519.812 112.759C518.327 112.759 517.124 113.963 517.124 115.449C517.124 116.934 518.327 118.138 519.812 118.138Z" fill="white"/>
        <path opacity="0.3" d="M521.324 113.431L524.348 110.406C523.172 109.229 521.66 108.557 519.812 108.557V112.927C520.484 112.927 520.988 113.095 521.324 113.431Z" fill="white"/>
        <path opacity="0.3" d="M522.332 115.449H526.7C526.7 113.768 526.028 112.087 524.852 110.91L521.828 113.936C522.164 114.272 522.332 114.776 522.332 115.449Z" fill="white"/>
        <path opacity="0.3" d="M521.66 117.298L524.684 120.324C525.86 119.147 526.532 117.634 526.532 115.953H522.164C522.164 116.457 521.996 116.962 521.66 117.298Z" fill="white"/>
        <path opacity="0.3" d="M518.132 117.634L515.108 120.66C516.284 121.668 517.628 122.341 519.308 122.341V117.97C518.804 117.97 518.468 117.802 518.132 117.634Z" fill="white"/>
        <path opacity="0.3" d="M519.812 118.138V122.509C521.492 122.509 523.004 121.836 524.012 120.828L520.988 117.802C520.82 117.97 520.316 118.138 519.812 118.138Z" fill="white"/>
        <path opacity="0.3" d="M517.46 114.104L514.436 111.078C513.428 112.255 512.756 113.768 512.756 115.449H517.124C517.124 114.944 517.292 114.44 517.46 114.104Z" fill="white"/>
        <path opacity="0.3" d="M517.124 115.953H512.756C512.924 117.634 513.596 118.979 514.604 120.156L517.628 117.13C517.46 116.794 517.124 116.457 517.124 115.953Z" fill="white"/>
        <path opacity="0.3" d="M519.308 112.927V108.557C517.628 108.725 516.116 109.397 514.94 110.406L517.964 113.431C518.3 113.263 518.636 112.927 519.308 112.927Z" fill="white"/>
        <path d="M519.812 107.548C519.308 107.548 518.636 107.548 518.132 107.716C514.436 108.389 511.748 111.583 511.748 115.449C511.748 119.819 515.276 123.349 519.644 123.349C521.828 123.349 523.844 122.509 525.188 120.996C526.7 119.483 527.54 117.634 527.54 115.449C527.708 111.078 524.18 107.548 519.812 107.548ZM522.332 115.449C522.332 114.944 522.164 114.44 521.828 113.936L524.852 110.91C525.86 112.087 526.532 113.6 526.7 115.449H522.332ZM515.108 120.66L518.132 117.634C518.468 117.802 518.804 117.97 519.308 118.138V122.509C517.628 122.341 516.116 121.668 515.108 120.66ZM521.324 113.431C520.988 113.095 520.484 112.927 519.812 112.927V108.557C521.492 108.557 523.172 109.229 524.348 110.406L521.324 113.431ZM517.124 115.449H512.756C512.756 113.768 513.428 112.255 514.436 111.078L517.46 114.104C517.292 114.44 517.124 114.944 517.124 115.449ZM517.124 115.953C517.292 116.457 517.46 116.793 517.628 117.13L514.604 120.155C513.596 118.979 512.924 117.634 512.756 115.953H517.124ZM519.812 117.634C518.636 117.634 517.628 116.625 517.628 115.449C517.628 114.272 518.636 113.263 519.812 113.263C520.652 113.263 521.324 113.768 521.66 114.44V114.608C521.828 114.776 521.828 115.113 521.828 115.449C521.828 115.785 521.828 115.953 521.66 116.289C521.324 117.13 520.652 117.634 519.812 117.634ZM519.812 118.138C520.316 118.138 520.652 117.97 520.988 117.802L524.012 120.828C522.836 121.836 521.324 122.509 519.812 122.509V118.138ZM519.308 108.557V112.927C518.804 113.095 518.3 113.264 517.964 113.6L514.94 110.574C515.948 109.397 517.46 108.725 519.308 108.557ZM524.684 120.324L521.66 117.298C521.996 116.962 522.164 116.457 522.332 115.953H526.7C526.364 117.634 525.692 119.147 524.684 120.324Z" fill="white"/>
    </g>
    <g class="is-hidden-eje">
        <path d="M563.828 133.771C573.942 133.771 582.14 125.568 582.14 115.449C582.14 105.329 573.942 97.126 563.828 97.126C553.715 97.126 545.516 105.329 545.516 115.449C545.516 125.568 553.715 133.771 563.828 133.771Z" fill="#3B5266"/>
        <path d="M551.564 115.449C551.564 110.574 554.252 106.539 558.284 104.354L557.612 103.345C553.244 105.699 550.22 110.238 550.22 115.449C550.22 120.66 553.244 125.198 557.612 127.552L558.284 126.543C554.252 124.526 551.564 120.323 551.564 115.449Z" fill="#76C1AA"/>
        <path d="M570.213 103.345L569.708 104.354C573.741 106.371 576.597 110.574 576.597 115.449C576.597 120.323 573.741 124.526 569.708 126.543L570.213 127.552C574.581 125.198 577.605 120.66 577.605 115.449C577.605 110.238 574.581 105.699 570.213 103.345Z" fill="#76C1AA"/>
        <path opacity="0.3" d="M563.829 118.138C565.313 118.138 566.516 116.934 566.516 115.449C566.516 113.963 565.313 112.759 563.829 112.759C562.344 112.759 561.141 113.963 561.141 115.449C561.141 116.934 562.344 118.138 563.829 118.138Z" fill="white"/>
        <path opacity="0.3" d="M565.508 113.431L568.532 110.406C567.356 109.229 565.844 108.557 563.996 108.557V112.927C564.668 112.927 565.172 113.095 565.508 113.431Z" fill="white"/>
        <path opacity="0.3" d="M566.517 115.449H570.885C570.885 113.768 570.213 112.087 569.037 110.91L566.013 113.936C566.349 114.272 566.517 114.776 566.517 115.449Z" fill="white"/>
        <path opacity="0.3" d="M565.845 117.298L568.869 120.324C570.045 119.147 570.717 117.634 570.717 115.953H566.349C566.349 116.457 566.181 116.962 565.845 117.298Z" fill="white"/>
        <path opacity="0.3" d="M562.316 117.634L559.292 120.66C560.468 121.668 561.812 122.341 563.492 122.341V117.97C562.988 117.97 562.652 117.802 562.316 117.634Z" fill="white"/>
        <path opacity="0.3" d="M563.996 118.138V122.509C565.676 122.509 567.188 121.836 568.196 120.828L565.172 117.802C565.004 117.97 564.5 118.138 563.996 118.138Z" fill="white"/>
        <path opacity="0.3" d="M561.645 114.104L558.62 111.078C557.612 112.255 556.94 113.768 556.94 115.449H561.309C561.309 114.944 561.477 114.44 561.645 114.104Z" fill="white"/>
        <path opacity="0.3" d="M561.308 115.953H556.94C557.108 117.634 557.78 118.979 558.788 120.156L561.812 117.13C561.644 116.794 561.308 116.457 561.308 115.953Z" fill="white"/>
        <path opacity="0.3" d="M563.492 112.927V108.557C561.813 108.725 560.301 109.397 559.125 110.406L562.148 113.431C562.484 113.263 562.82 112.927 563.492 112.927Z" fill="white"/>
        <path d="M563.996 107.548C563.492 107.548 562.82 107.548 562.316 107.716C558.62 108.389 555.932 111.583 555.932 115.449C555.932 119.819 559.46 123.349 563.828 123.349C566.012 123.349 568.028 122.509 569.372 120.996C570.884 119.483 571.724 117.634 571.724 115.449C571.892 111.078 568.364 107.548 563.996 107.548ZM566.516 115.449C566.516 114.944 566.348 114.44 566.012 113.936L569.036 110.91C570.044 112.087 570.716 113.6 570.884 115.449H566.516ZM559.292 120.66L562.316 117.634C562.652 117.802 562.988 117.97 563.492 118.138V122.509C561.812 122.341 560.3 121.668 559.292 120.66ZM565.508 113.431C565.172 113.095 564.668 112.927 563.996 112.927V108.557C565.676 108.557 567.356 109.229 568.532 110.406L565.508 113.431ZM561.308 115.449H556.94C556.94 113.768 557.612 112.255 558.62 111.078L561.644 114.104C561.476 114.44 561.308 114.944 561.308 115.449ZM561.308 115.953C561.476 116.457 561.644 116.793 561.812 117.13L558.788 120.155C557.78 118.979 557.108 117.634 556.94 115.953H561.308ZM563.828 117.634C562.652 117.634 561.644 116.625 561.644 115.449C561.644 114.272 562.652 113.263 563.828 113.263C564.668 113.263 565.34 113.768 565.676 114.44V114.608C565.844 114.776 565.844 115.113 565.844 115.449C565.844 115.785 565.844 115.953 565.676 116.289C565.508 117.13 564.836 117.634 563.828 117.634ZM563.996 118.138C564.5 118.138 564.836 117.97 565.172 117.802L568.196 120.828C567.02 121.836 565.508 122.509 563.996 122.509V118.138ZM563.492 108.557V112.927C562.988 113.095 562.484 113.264 562.148 113.6L559.124 110.574C560.132 109.397 561.644 108.725 563.492 108.557ZM568.868 120.324L565.844 117.298C566.18 116.962 566.348 116.457 566.516 115.953H570.884C570.548 117.634 569.876 119.147 568.868 120.324Z" fill="white"/>
    </g>
    <g class="is-hidden-eje">
        <path d="M608.013 133.771C618.126 133.771 626.325 125.568 626.325 115.449C626.325 105.329 618.126 97.126 608.013 97.126C597.899 97.126 589.701 105.329 589.701 115.449C589.701 125.568 597.899 133.771 608.013 133.771Z" fill="#3B5266"/>
        <path d="M595.749 115.449C595.749 110.574 598.437 106.539 602.469 104.354L601.797 103.345C597.429 105.699 594.405 110.238 594.405 115.449C594.405 120.66 597.429 125.198 601.797 127.552L602.469 126.543C598.437 124.526 595.749 120.323 595.749 115.449Z" fill="#76C1AA"/>
        <path d="M614.397 103.345L613.893 104.354C617.925 106.371 620.781 110.574 620.781 115.449C620.781 120.323 617.925 124.526 613.893 126.543L614.397 127.552C618.765 125.198 621.789 120.66 621.789 115.449C621.789 110.238 618.765 105.699 614.397 103.345Z" fill="#76C1AA"/>
        <path opacity="0.3" d="M608.013 118.138C609.497 118.138 610.701 116.934 610.701 115.449C610.701 113.963 609.497 112.759 608.013 112.759C606.528 112.759 605.325 113.963 605.325 115.449C605.325 116.934 606.528 118.138 608.013 118.138Z" fill="white"/>
        <path opacity="0.3" d="M609.693 113.431L612.717 110.406C611.541 109.229 610.029 108.557 608.181 108.557V112.927C608.853 112.927 609.357 113.095 609.693 113.431Z" fill="white"/>
        <path opacity="0.3" d="M610.701 115.449H615.069C615.069 113.768 614.397 112.087 613.221 110.91L610.197 113.936C610.365 114.272 610.701 114.776 610.701 115.449Z" fill="white"/>
        <path opacity="0.3" d="M610.029 117.298L613.053 120.324C614.229 119.147 614.901 117.634 614.901 115.953H610.533C610.533 116.457 610.365 116.962 610.029 117.298Z" fill="white"/>
        <path opacity="0.3" d="M606.501 117.634L603.477 120.66C604.653 121.668 605.997 122.341 607.677 122.341V117.97C607.173 117.97 606.837 117.802 606.501 117.634Z" fill="white"/>
        <path opacity="0.3" d="M608.181 118.138V122.509C609.861 122.509 611.373 121.836 612.381 120.828L609.357 117.802C609.021 117.97 608.685 118.138 608.181 118.138Z" fill="white"/>
        <path opacity="0.3" d="M605.829 114.104L602.805 111.078C601.797 112.255 601.125 113.768 601.125 115.449H605.493C605.493 114.944 605.661 114.44 605.829 114.104Z" fill="white"/>
        <path opacity="0.3" d="M605.493 115.953H601.125C601.293 117.634 601.965 118.979 602.973 120.156L605.997 117.13C605.829 116.794 605.493 116.457 605.493 115.953Z" fill="white"/>
        <path opacity="0.3" d="M607.509 112.927V108.557C605.829 108.725 604.317 109.397 603.141 110.406L606.165 113.431C606.669 113.263 607.005 112.927 607.509 112.927Z" fill="white"/>
        <path d="M608.181 107.548C607.677 107.548 607.005 107.548 606.501 107.716C602.805 108.389 600.117 111.583 600.117 115.449C600.117 119.819 603.645 123.349 608.013 123.349C610.197 123.349 612.213 122.509 613.557 120.996C615.069 119.483 615.909 117.634 615.909 115.449C616.077 111.078 612.549 107.548 608.181 107.548ZM610.701 115.449C610.701 114.944 610.533 114.44 610.197 113.936L613.221 110.91C614.229 112.087 614.901 113.6 615.069 115.449H610.701ZM603.477 120.66L606.501 117.634C606.837 117.802 607.173 117.97 607.677 118.138V122.509C605.997 122.341 604.485 121.668 603.477 120.66ZM609.693 113.431C609.357 113.095 608.853 112.927 608.181 112.927V108.557C609.861 108.557 611.541 109.229 612.717 110.406L609.693 113.431ZM605.493 115.449H601.125C601.125 113.768 601.797 112.255 602.805 111.078L605.829 114.104C605.661 114.44 605.493 114.944 605.493 115.449ZM605.493 115.953C605.661 116.457 605.829 116.793 605.997 117.13L602.973 120.155C601.965 118.979 601.293 117.634 601.125 115.953H605.493ZM608.013 117.634C606.837 117.634 605.829 116.625 605.829 115.449C605.829 114.272 606.837 113.263 608.013 113.263C608.853 113.263 609.525 113.768 609.861 114.44V114.608C610.029 114.776 610.029 115.113 610.029 115.449C610.029 115.785 610.029 115.953 609.861 116.289C609.693 117.13 609.021 117.634 608.013 117.634ZM608.181 118.138C608.685 118.138 609.021 117.97 609.357 117.802L612.381 120.828C611.205 121.836 609.693 122.509 608.181 122.509V118.138ZM607.509 108.557V112.927C607.005 113.095 606.501 113.264 606.165 113.6L603.141 110.574C604.317 109.397 605.829 108.725 607.509 108.557ZM613.053 120.324L610.029 117.298C610.365 116.962 610.533 116.457 610.701 115.953H615.069C614.733 117.634 614.061 119.147 613.053 120.324Z" fill="white"/>
    </g>
    <path d="M96.7856 95.7814C96.7856 95.7814 96.9536 95.7814 96.7856 95.7814C96.9536 95.7814 96.9536 95.7814 96.7856 95.7814C96.9536 95.7814 98.1296 95.6133 98.9696 94.9409C99.8096 93.9323 100.146 92.2515 99.4736 91.411C99.1376 91.0748 98.6336 90.9068 98.1296 90.9068C97.6256 91.0749 97.2896 91.243 97.1216 91.7473C97.1216 91.9154 97.1216 91.9153 97.1216 92.0834C97.2896 92.0834 97.2896 92.0834 97.4576 92.0834C97.6256 91.9153 97.7936 91.9153 97.9616 91.9153C98.1296 91.9153 98.1296 92.0834 98.2976 92.2515C98.2976 92.4195 98.2976 92.5877 98.1296 92.7558L97.9616 92.9239C97.6256 92.9239 97.1216 92.5877 96.6176 92.0834C96.1136 91.5791 95.4416 91.243 94.9376 90.9068C94.0976 90.5707 91.5776 90.0663 89.8975 91.2429C89.8975 91.2429 88.8895 92.0834 88.7215 92.7558C88.3855 93.4282 88.3855 94.2686 88.5535 94.7728C88.3855 94.9409 88.2175 95.1091 88.2175 95.4452C88.2175 95.9495 88.7215 96.2857 89.5615 96.4538C89.5615 96.6219 89.3935 96.622 89.3935 96.7901C89.3935 97.2943 90.0656 97.7986 90.9056 97.7986C91.5776 97.7986 92.0816 97.6304 92.2496 97.2942C92.4176 97.6304 92.9216 97.7986 93.5936 97.7986C94.4336 97.7986 95.1056 97.2943 95.1056 96.7901C95.1056 96.622 95.1056 96.4538 94.9376 96.4538C95.4416 96.4538 95.7776 96.2858 96.1136 95.9496C96.1136 95.9496 96.1136 95.9496 96.2816 95.9496C96.1136 95.9496 96.4496 95.7814 96.7856 95.7814ZM97.9616 94.9409C97.7936 95.109 97.4576 95.1091 97.2896 95.1091C97.4576 94.1006 96.7856 93.092 96.6176 92.5878C96.9536 92.9239 97.2896 93.0919 97.6256 93.26C97.7936 93.5962 98.1296 94.1004 97.9616 94.9409ZM96.1136 95.4452C96.1136 95.2772 95.9456 94.941 95.7776 94.6048C95.4416 93.9324 94.7696 92.9238 93.0896 92.4195C90.9056 91.7471 89.8975 92.0833 89.3935 92.4195C89.3935 92.4195 89.3935 92.4195 89.5615 92.2515C89.7295 92.0834 89.8976 91.9154 90.0656 91.7473C90.7376 91.4111 91.9136 91.4111 93.5936 91.9153C95.7776 92.5877 96.4496 94.1005 96.6176 94.7728C96.6176 94.9409 96.7856 95.2772 96.7856 95.4452C96.7856 95.4452 96.7856 95.4452 96.6176 95.4452C96.2816 95.4452 96.2816 95.4452 96.1136 95.4452ZM92.9216 93.26C92.5856 93.26 92.4176 93.4282 92.2496 93.5963C91.9136 93.2601 91.5776 93.0919 90.9056 93.0919C90.7376 93.0919 90.5696 93.0919 90.4016 93.0919C90.9056 92.9238 91.5776 92.9239 92.2496 92.9239C92.4176 93.26 92.5856 93.26 92.9216 93.26ZM90.9056 93.7643C91.4096 93.7643 91.9136 94.1006 91.9136 94.2687C91.9136 94.4368 91.7456 94.6048 91.5776 94.6048H91.4096C91.2416 94.6048 91.0736 94.6048 90.9056 94.6048C90.4016 94.6048 89.8975 94.2685 89.8975 94.1004C89.8975 93.9323 90.2336 93.7643 90.9056 93.7643ZM91.5776 95.1091H91.7456C91.9136 95.1091 91.9136 95.1091 92.0816 95.1091C92.7536 95.1091 93.0896 95.4452 93.0896 95.6133C93.0896 95.7814 92.5856 96.1177 92.0816 96.1177C91.4096 96.1177 91.0735 95.7814 91.0735 95.6133C91.0735 95.4452 91.2416 95.2772 91.5776 95.1091ZM92.4176 94.2687C92.4176 94.1006 92.9216 93.7643 93.4256 93.7643C93.5936 93.7643 93.5936 93.7643 93.7616 93.7643C94.0976 93.7643 94.4336 94.1006 94.4336 94.2687C94.4336 94.4368 94.2656 94.6047 93.9296 94.7728C93.7616 94.7728 93.5936 94.7728 93.4256 94.7728C92.7536 94.7728 92.4176 94.4368 92.4176 94.2687ZM89.2255 94.6048C89.2255 94.4367 89.2255 94.4368 89.2255 94.2687C89.2255 94.1006 89.3935 93.9324 89.5615 93.7643C89.3935 93.9324 89.3935 94.1006 89.3935 94.2687C89.3935 94.4368 89.3935 94.6048 89.5615 94.6048C89.3935 94.6048 89.3935 94.6048 89.2255 94.6048ZM88.5535 95.6133C88.5535 95.4452 88.7215 95.4453 88.8896 95.2772C89.0576 95.2772 89.2255 95.1091 89.3935 95.1091C89.5615 95.1091 89.5616 95.1091 89.7296 95.1091C90.4016 95.1091 90.7376 95.4452 90.7376 95.6133C90.7376 95.7814 90.5696 95.7815 90.5696 95.9496C90.4016 96.1177 90.0656 96.1177 89.7296 96.1177C88.8896 96.1177 88.5535 95.7814 88.5535 95.6133ZM90.7376 97.4623C90.0655 97.4623 89.7296 97.2943 89.7296 96.9581C89.7296 96.79 90.2335 96.4538 90.7376 96.4538C91.0736 96.4538 91.2416 96.4537 91.5776 96.6218C91.5776 96.6218 91.7456 96.79 91.7456 96.9581C91.7456 97.1262 91.2416 97.4623 90.7376 97.4623ZM93.4256 97.4623C92.7536 97.4623 92.4176 97.1262 92.4176 96.9581C92.4176 96.9581 92.4176 96.7901 92.5856 96.7901C92.7536 96.622 93.0896 96.4538 93.4256 96.4538C93.5936 96.4538 93.7616 96.4538 93.9296 96.4538C94.2656 96.6219 94.4336 96.79 94.4336 96.9581C94.4336 97.1262 93.9296 97.4623 93.4256 97.4623ZM95.6096 95.7814C95.4416 95.9494 95.1056 96.1177 94.6016 96.1177C94.4336 96.1177 94.2656 96.1177 94.0976 96.1177C93.7616 95.9496 93.5936 95.7814 93.5936 95.6133C93.5936 95.4452 93.7616 95.2772 94.0976 95.1091C94.2656 95.1091 94.4336 95.1091 94.6016 95.1091C94.7696 95.1091 94.7696 95.1091 94.9376 95.1091C95.2736 95.1091 95.6096 95.4452 95.6096 95.7814C95.6096 95.6133 95.6096 95.6133 95.6096 95.7814Z" fill="white"/>
    <path d="M108.882 90.4022V78.131C108.882 77.9629 108.882 77.7949 108.714 77.7949C108.546 77.7949 108.378 77.7949 108.378 77.7949L107.034 78.4673V74.0968C107.034 73.9287 107.034 73.7605 106.866 73.7605C106.698 73.7605 106.53 73.7605 106.53 73.7605L100.482 77.6268H100.314C99.3056 77.963 98.2976 78.131 97.4576 78.131C94.6016 78.131 93.5936 76.282 93.5936 76.282C93.5936 76.1139 93.4256 76.1139 93.2576 76.1139C93.0896 76.1139 92.9216 76.282 92.9216 76.282C92.9216 76.282 91.9136 78.131 89.0576 78.131C88.2176 78.131 87.2096 77.963 86.2016 77.6268L80.1535 73.7605C79.9855 73.7605 79.8175 73.7605 79.6495 73.7605C79.4815 73.7605 79.4815 73.9287 79.4815 74.0968V78.4673L78.3055 77.7949C78.1375 77.7949 77.9695 77.7949 77.9695 77.7949C77.8015 77.7949 77.8015 77.9629 77.8015 78.131V90.4022C77.8015 90.5703 77.8015 93.5961 80.3215 95.9495C82.5055 98.1348 85.8656 99.3115 90.4016 99.3115C90.4016 99.3115 90.4016 99.3115 90.5696 99.3115C92.2496 99.8158 93.2576 100.152 93.2576 101.665C93.2576 101.833 93.4256 102.001 93.5936 102.001C93.7616 102.001 93.9296 101.833 93.9296 101.665C93.9296 100.32 94.9376 99.8158 96.6176 99.3115H96.7856C101.322 99.3115 104.682 98.1348 106.866 95.9495C108.882 93.428 108.882 90.5703 108.882 90.4022ZM87.3776 86.7041C87.8816 86.536 88.0496 85.5273 88.0496 85.5273C88.0496 85.5273 88.8896 86.0317 89.3936 85.8636C89.3936 86.0317 89.3936 86.5359 89.3936 86.5359C89.3936 86.5359 89.2256 86.8721 89.3936 87.2083C89.5616 87.3764 89.5616 87.7126 89.5616 88.0488C89.2256 88.0488 89.0576 88.0488 88.7216 88.0488C88.2176 88.0488 87.7136 88.0488 87.3776 88.0488C87.3776 87.3764 87.3776 87.2084 87.3776 86.7041ZM96.7856 86.0317H97.7936C97.7936 86.536 97.7936 87.0402 97.9616 87.8807L96.7856 87.7127C96.7856 87.0403 96.7856 86.536 96.7856 86.0317ZM105.018 87.7127C104.346 88.3851 103.338 88.7212 102.162 88.7212C101.826 87.8807 101.658 87.0402 101.658 86.3678L106.194 83.8464C106.194 84.1825 106.194 86.3679 105.018 87.7127ZM80.1535 83.8464L84.6896 86.3678C84.6896 87.0402 84.5216 87.8807 84.1856 88.7212C83.0095 88.7212 82.1695 88.3851 81.4975 87.7127C80.1535 86.3679 80.1535 84.1825 80.1535 83.8464ZM108.042 78.8034V86.3678L106.026 87.5446C107.034 85.8636 107.034 84.0145 107.034 83.6783V79.3078L108.042 78.8034ZM106.194 78.8034L102.834 80.8207C102.666 80.6526 102.162 79.9801 100.986 78.131L106.194 74.769V78.8034ZM97.2896 78.8034C98.1296 78.8034 99.1376 78.6355 100.146 78.2993C101.322 79.9802 101.826 80.8206 102.162 81.1568C101.658 81.9973 100.146 84.8551 101.322 88.3851C100.818 87.8808 99.6416 87.7127 98.4656 87.7127C98.2976 86.8722 98.2976 86.3679 98.2976 85.8636H100.146C100.314 85.8636 100.314 85.5274 100.314 85.1912V83.5102C100.314 82.1655 99.6416 82.1654 99.6416 82.1654C99.6416 82.1654 99.1376 82.1653 98.9696 81.4929C98.8016 80.8206 98.2976 80.3163 97.7936 80.3163C97.2896 80.3163 96.2816 80.6525 95.6096 81.1568C95.1056 81.3249 95.1056 81.6611 95.1056 82.1654C94.9376 83.3421 94.6016 83.1739 94.6016 83.1739C94.4336 83.1739 94.2656 83.3421 94.2656 83.6783V85.3593C94.2656 85.6955 94.4336 86.0317 94.6016 86.0317H96.4496C96.4496 86.536 96.4496 87.0402 96.2816 87.8807C95.1056 87.8807 94.0976 88.2169 93.4256 88.7212V77.4588C93.9296 77.9631 95.2736 78.8034 97.2896 78.8034ZM92.5856 77.6268V88.3851C92.0816 88.0489 91.2416 87.8807 90.2336 87.8807C90.0656 87.3764 90.0656 86.0316 90.2336 85.6954C91.0736 85.5273 91.0736 84.6868 91.0736 84.0144C91.0736 83.5101 90.9056 81.6612 90.9056 81.6612L91.4096 81.4929C91.5776 81.4929 91.5776 81.493 91.5776 81.3249C91.5776 81.1568 91.5776 80.9888 91.5776 80.9888L91.0736 80.8207C90.9056 80.6526 90.7376 80.4844 90.5696 80.4844C90.4016 80.4844 90.0656 80.4845 89.8976 80.8207C89.7296 80.6526 89.3936 80.8207 89.2256 80.8207C89.2256 80.8207 89.2256 81.661 90.0656 81.4929L90.2336 83.6783C90.2336 83.6783 90.2336 84.1825 89.7296 84.0144C89.2256 83.8463 88.2176 83.5102 87.5456 83.6783C87.2096 83.8464 86.7056 84.0144 86.3696 84.8549C86.0336 85.6954 86.5376 85.3593 86.5376 85.3593L87.0416 85.0232C87.0416 85.0232 87.3776 85.6955 87.0416 86.1998C86.7056 86.536 86.8735 86.8722 86.8735 86.8722C86.8735 86.8722 87.0416 87.7126 87.0416 88.0488C86.2016 88.0488 85.5296 88.3851 85.0256 88.5532C86.0336 85.0231 84.6896 82.1654 84.1856 81.3249C84.5216 80.9887 85.0255 80.1483 86.2016 78.4673C87.2096 78.8035 88.2176 78.9715 89.0576 78.9715C90.7376 78.8034 91.7456 78.2992 92.5856 77.6268ZM80.1535 74.769L85.3616 78.131C84.3535 79.812 83.6815 80.4845 83.5135 80.8207L80.1535 78.9715V74.769ZM79.3135 79.3078V83.6783C79.3135 83.8464 79.3135 85.8636 80.3215 87.5446L78.3055 86.3678V78.8034L79.3135 79.3078ZM78.4735 91.5788L83.5135 94.4366C84.0175 95.7814 84.8575 96.6219 86.2016 97.7985C86.5376 98.1347 87.0416 98.3029 87.3776 98.471C84.3535 98.1348 82.0015 97.1261 80.4895 95.4451C79.1455 94.1003 78.6415 92.5874 78.4735 91.5788ZM93.0896 100.152C92.4176 99.1434 91.2416 98.8072 89.8976 98.471C88.7216 98.1348 87.5456 97.7985 86.5376 96.958C84.0175 95.109 83.1775 93.428 84.5215 89.5617H101.658C103.002 93.428 102.162 94.9409 99.6416 96.958C98.6336 97.6304 97.4576 98.1346 96.2816 98.3027C94.9376 98.807 93.7616 99.1434 93.0896 100.152ZM105.858 95.4451C104.178 97.1261 101.826 98.1348 98.8016 98.471C99.3056 98.3029 99.6416 97.9666 99.9776 97.7985C101.322 96.79 102.33 95.7813 102.666 94.6046C102.666 94.6046 102.666 94.6046 102.834 94.6046L107.874 91.7471C107.706 92.5876 107.202 94.1003 105.858 95.4451Z" fill="white"/>
    <path d="M93.0897 75.6099C95.4417 75.6099 97.1217 74.4331 97.1217 72.9202C97.1217 71.4072 95.2737 70.2305 93.0897 70.2305C90.7377 70.2305 89.0576 71.4072 89.0576 72.9202C89.0576 74.4331 90.7377 75.6099 93.0897 75.6099ZM93.0897 71.4071C94.2657 71.4071 95.1057 71.9116 95.1057 72.416C95.1057 72.9203 94.6017 73.2565 93.9297 73.4246C93.2577 73.5927 93.4257 73.9289 93.0897 74.097C92.7537 73.9289 92.9217 73.5927 92.2497 73.4246C91.5777 73.2565 91.0736 72.9203 91.0736 72.416C91.0736 71.9116 91.9137 71.4071 93.0897 71.4071Z" fill="white"/>
</svg>
