<svg width="916" height="124" viewBox="0 0 916 124" fill="none" xmlns="http://www.w3.org/2000/svg">
<path d="M284.489 94.0129H291.304V91.9832H331.179L336.109 89.9536H914.511V104.161H336.109L331.179 102.131H290.724V100.247H284.489V94.0129Z" fill="#DCE9EF" stroke="#65819B" stroke-width="1.0365" stroke-miterlimit="10"/>
<path d="M144.564 88.3588V85.4594H134.124V11.2336H129.919V0.360718H123.974V10.7987H122.379V75.3114H116.869V17.3225H70.6147V24.1362H75.2547L60.1747 60.5242H8.40996L8.98996 97.782H0V104.596H9.71495V107.785H145.579V105.466H285.214V88.5039H144.564V88.3588ZM95.8446 60.2343H76.2697L85.4046 25.151H95.8446V60.2343Z" fill="#EF8425"/>
<path d="M285.214 67.048H164.574V87.0542H285.214V67.048Z" fill="#76C1AA"/>
<path d="M37.1199 123.297C45.8487 123.297 52.9248 116.222 52.9248 107.495C52.9248 98.7681 45.8487 91.6932 37.1199 91.6932C28.3911 91.6932 21.3149 98.7681 21.3149 107.495C21.3149 116.222 28.3911 123.297 37.1199 123.297Z" fill="#3B5266"/>
<path d="M26.39 107.495C26.39 103.291 28.71 99.8118 32.19 97.9271L31.61 97.0573C27.84 99.0869 25.23 103.001 25.23 107.495C25.23 111.989 27.84 115.904 31.61 117.933L32.19 117.063C28.71 115.179 26.39 111.7 26.39 107.495Z" fill="#76C1AA"/>
<path d="M42.6298 97.0573L42.1948 97.9271C45.6748 99.6668 48.1398 103.291 48.1398 107.495C48.1398 111.7 45.6748 115.324 42.1948 117.063L42.6298 117.933C46.3998 115.904 49.0098 111.989 49.0098 107.495C48.8648 103.001 46.3998 98.9419 42.6298 97.0573Z" fill="#76C1AA"/>
<path opacity="0.3" d="M37.1198 109.815C38.4011 109.815 39.4398 108.776 39.4398 107.495C39.4398 106.214 38.4011 105.176 37.1198 105.176C35.8385 105.176 34.7998 106.214 34.7998 107.495C34.7998 108.776 35.8385 109.815 37.1198 109.815Z" fill="white"/>
<path opacity="0.3" d="M38.5701 105.755L41.1801 103.146C40.1651 102.131 38.8601 101.551 37.2651 101.551V105.321C37.7001 105.321 38.1351 105.466 38.5701 105.755Z" fill="white"/>
<path opacity="0.3" d="M39.2949 107.35H43.0648C43.0648 105.901 42.4848 104.451 41.4698 103.436L38.8599 106.046C39.1499 106.48 39.2949 106.915 39.2949 107.35Z" fill="white"/>
<path opacity="0.3" d="M38.7151 109.09L41.3251 111.699C42.3401 110.685 42.9201 109.38 42.9201 107.93H39.1501C39.2951 108.365 39.0051 108.8 38.7151 109.09Z" fill="white"/>
<path opacity="0.3" d="M35.815 109.38L33.2051 111.989C34.2201 112.859 35.3801 113.439 36.83 113.439V109.67C36.395 109.67 35.96 109.525 35.815 109.38Z" fill="white"/>
<path opacity="0.3" d="M37.2651 109.815V113.584C38.7151 113.584 40.0201 113.004 40.8901 112.134L38.2801 109.525C37.9901 109.67 37.7001 109.67 37.2651 109.815Z" fill="white"/>
<path opacity="0.3" d="M35.235 106.335L32.6251 103.726C31.755 104.741 31.175 106.045 31.175 107.495H34.9451C34.8001 107.06 34.945 106.625 35.235 106.335Z" fill="white"/>
<path opacity="0.3" d="M34.8 107.93H31.03C31.175 109.38 31.755 110.54 32.625 111.554L35.235 108.945C35.09 108.655 34.945 108.365 34.8 107.93Z" fill="white"/>
<path opacity="0.3" d="M36.685 105.321V101.551C35.235 101.696 33.93 102.276 32.915 103.146L35.525 105.755C35.815 105.611 36.25 105.321 36.685 105.321Z" fill="white"/>
<path d="M37.2649 100.682C36.8299 100.682 36.2499 100.682 35.8149 100.827C32.6249 101.406 30.3049 104.161 30.3049 107.495C30.3049 111.265 33.3499 114.309 37.1199 114.309C39.0049 114.309 40.7449 113.584 41.9049 112.279C43.2099 110.975 43.9349 109.38 43.9349 107.495C43.9349 103.726 41.0349 100.682 37.2649 100.682ZM39.2949 107.35C39.2949 106.915 39.1499 106.48 38.8599 106.046L41.4699 103.436C42.3399 104.451 42.9199 105.756 43.0649 107.35H39.2949ZM33.0599 111.989L35.6699 109.38C35.9599 109.525 36.2499 109.67 36.6849 109.815V113.584C35.3799 113.439 34.0749 112.859 33.0599 111.989ZM38.5699 105.756C38.2799 105.466 37.8449 105.321 37.2649 105.321V101.551C38.7149 101.551 40.1649 102.131 41.1799 103.146L38.5699 105.756ZM34.7999 107.35H31.0299C31.0299 105.901 31.6099 104.596 32.4799 103.581L35.0899 106.19C34.9449 106.625 34.7999 107.06 34.7999 107.35ZM34.7999 107.93C34.9449 108.365 35.0899 108.655 35.2349 108.945L32.6249 111.554C31.7549 110.54 31.1749 109.38 31.0299 107.93H34.7999ZM37.1199 109.38C36.1049 109.38 35.2349 108.51 35.2349 107.495C35.2349 106.48 36.1049 105.611 37.1199 105.611C37.8449 105.611 38.4249 106.046 38.7149 106.625V106.77C38.8599 106.915 38.8599 107.205 38.8599 107.495C38.8599 107.785 38.8599 107.93 38.7149 108.22C38.5699 108.945 37.8449 109.38 37.1199 109.38ZM37.2649 109.815C37.6999 109.815 37.9899 109.67 38.2799 109.525L40.8899 112.134C39.8749 113.004 38.5699 113.584 37.2649 113.584V109.815ZM36.6849 101.551V105.321C36.2499 105.466 35.8149 105.611 35.5249 105.901L32.9149 103.146C33.9299 102.276 35.2349 101.696 36.6849 101.551ZM41.3249 111.699L38.7149 109.09C39.0049 108.8 39.1499 108.365 39.2949 107.93H43.0649C42.9199 109.38 42.3399 110.685 41.3249 111.699Z" fill="white"/>
<path d="M174.869 123.297C183.598 123.297 190.674 116.222 190.674 107.495C190.674 98.7681 183.598 91.6932 174.869 91.6932C166.14 91.6932 159.064 98.7681 159.064 107.495C159.064 116.222 166.14 123.297 174.869 123.297Z" fill="#3B5266"/>
<path d="M164.139 107.495C164.139 103.291 166.459 99.8118 169.939 97.9271L169.359 97.0573C165.589 99.0869 162.979 103.001 162.979 107.495C162.979 111.989 165.589 115.904 169.359 117.933L169.939 117.063C166.459 115.179 164.139 111.7 164.139 107.495Z" fill="#76C1AA"/>
<path d="M180.234 97.0573L179.799 97.9271C183.279 99.6668 185.744 103.291 185.744 107.495C185.744 111.7 183.279 115.324 179.799 117.063L180.234 117.933C184.004 115.904 186.614 111.989 186.614 107.495C186.614 103.001 184.004 98.9419 180.234 97.0573Z" fill="#76C1AA"/>
<path opacity="0.3" d="M174.869 109.815C176.15 109.815 177.189 108.776 177.189 107.495C177.189 106.214 176.15 105.176 174.869 105.176C173.588 105.176 172.549 106.214 172.549 107.495C172.549 108.776 173.588 109.815 174.869 109.815Z" fill="white"/>
<path opacity="0.3" d="M176.174 105.755L178.784 103.146C177.769 102.131 176.464 101.551 174.869 101.551V105.321C175.449 105.321 175.884 105.466 176.174 105.755Z" fill="white"/>
<path opacity="0.3" d="M177.044 107.35H180.814C180.814 105.901 180.234 104.451 179.219 103.436L176.609 106.046C176.899 106.48 177.044 106.915 177.044 107.35Z" fill="white"/>
<path opacity="0.3" d="M176.464 109.09L179.074 111.699C180.089 110.685 180.669 109.38 180.669 107.93H176.899C176.899 108.365 176.754 108.8 176.464 109.09Z" fill="white"/>
<path opacity="0.3" d="M173.419 109.38L170.809 111.989C171.824 112.859 172.984 113.439 174.434 113.439V109.67C173.999 109.67 173.709 109.525 173.419 109.38Z" fill="white"/>
<path opacity="0.3" d="M175.014 109.815V113.584C176.464 113.584 177.769 113.004 178.639 112.134L176.029 109.525C175.739 109.67 175.304 109.67 175.014 109.815Z" fill="white"/>
<path opacity="0.3" d="M172.839 106.335L170.229 103.726C169.359 104.741 168.779 106.045 168.779 107.495H172.549C172.549 107.06 172.694 106.625 172.839 106.335Z" fill="white"/>
<path opacity="0.3" d="M172.549 107.93H168.779C168.924 109.38 169.504 110.54 170.374 111.554L172.984 108.945C172.839 108.655 172.694 108.365 172.549 107.93Z" fill="white"/>
<path opacity="0.3" d="M174.434 105.321V101.551C172.984 101.696 171.679 102.276 170.664 103.146L173.274 105.755C173.564 105.611 173.999 105.321 174.434 105.321Z" fill="white"/>
<path d="M174.869 100.682C174.434 100.682 173.854 100.682 173.419 100.827C170.229 101.406 167.909 104.161 167.909 107.495C167.909 111.265 170.954 114.309 174.724 114.309C176.609 114.309 178.349 113.584 179.509 112.279C180.814 110.975 181.539 109.38 181.539 107.495C181.684 103.726 178.639 100.682 174.869 100.682ZM177.044 107.35C177.044 106.915 176.899 106.48 176.609 106.046L179.219 103.436C180.089 104.451 180.669 105.756 180.814 107.35H177.044ZM170.809 111.989L173.419 109.38C173.709 109.525 173.999 109.67 174.434 109.815V113.584C172.984 113.439 171.824 112.859 170.809 111.989ZM176.174 105.756C175.884 105.466 175.449 105.321 174.869 105.321V101.551C176.319 101.551 177.769 102.131 178.784 103.146L176.174 105.756ZM172.549 107.35H168.779C168.779 105.901 169.359 104.596 170.229 103.581L172.839 106.19C172.694 106.625 172.549 107.06 172.549 107.35ZM172.549 107.93C172.694 108.365 172.839 108.655 172.984 108.945L170.374 111.554C169.504 110.54 168.924 109.38 168.779 107.93H172.549ZM174.869 109.38C173.854 109.38 172.984 108.51 172.984 107.495C172.984 106.48 173.854 105.611 174.869 105.611C175.594 105.611 176.174 106.046 176.464 106.625V106.77C176.609 106.915 176.609 107.205 176.609 107.495C176.609 107.785 176.609 107.93 176.464 108.22C176.319 108.945 175.594 109.38 174.869 109.38ZM175.014 109.815C175.449 109.815 175.739 109.67 176.029 109.525L178.639 112.134C177.624 113.004 176.319 113.584 175.014 113.584V109.815ZM174.434 101.551V105.321C173.999 105.466 173.564 105.611 173.274 105.901L170.664 103.146C171.679 102.276 172.984 101.696 174.434 101.551ZM179.074 111.699L176.464 109.09C176.754 108.8 176.899 108.365 177.044 107.93H180.814C180.669 109.38 180.089 110.685 179.074 111.699Z" fill="white"/>
<path d="M216.629 123.297C225.358 123.297 232.434 116.222 232.434 107.495C232.434 98.7681 225.358 91.6932 216.629 91.6932C207.9 91.6932 200.824 98.7681 200.824 107.495C200.824 116.222 207.9 123.297 216.629 123.297Z" fill="#3B5266"/>
<path d="M205.899 107.495C205.899 103.291 208.219 99.8118 211.699 97.9271L211.119 97.0573C207.349 99.0869 204.739 103.001 204.739 107.495C204.739 111.989 207.349 115.904 211.119 117.933L211.699 117.063C208.219 115.179 205.899 111.7 205.899 107.495Z" fill="#76C1AA"/>
<path d="M221.994 97.0573L221.559 97.9271C225.039 99.6668 227.504 103.291 227.504 107.495C227.504 111.7 225.039 115.324 221.559 117.063L221.994 117.933C225.764 115.904 228.374 111.989 228.374 107.495C228.374 103.001 225.764 98.9419 221.994 97.0573Z" fill="#76C1AA"/>
<path opacity="0.3" d="M216.629 109.815C217.91 109.815 218.949 108.776 218.949 107.495C218.949 106.214 217.91 105.176 216.629 105.176C215.348 105.176 214.309 106.214 214.309 107.495C214.309 108.776 215.348 109.815 216.629 109.815Z" fill="white"/>
<path opacity="0.3" d="M217.934 105.755L220.544 103.146C219.529 102.131 218.224 101.551 216.629 101.551V105.321C217.209 105.321 217.644 105.466 217.934 105.755Z" fill="white"/>
<path opacity="0.3" d="M218.804 107.35H222.574C222.574 105.901 221.994 104.451 220.979 103.436L218.369 106.046C218.659 106.48 218.804 106.915 218.804 107.35Z" fill="white"/>
<path opacity="0.3" d="M218.224 109.09L220.834 111.699C221.849 110.685 222.429 109.38 222.429 107.93H218.659C218.659 108.365 218.514 108.8 218.224 109.09Z" fill="white"/>
<path opacity="0.3" d="M215.179 109.38L212.569 111.989C213.584 112.859 214.744 113.439 216.194 113.439V109.67C215.904 109.67 215.469 109.525 215.179 109.38Z" fill="white"/>
<path opacity="0.3" d="M216.774 109.815V113.584C218.224 113.584 219.529 113.004 220.399 112.134L217.789 109.525C217.499 109.67 217.209 109.67 216.774 109.815Z" fill="white"/>
<path opacity="0.3" d="M214.744 106.335L212.134 103.726C211.264 104.741 210.684 106.045 210.684 107.495H214.454C214.309 107.06 214.454 106.625 214.744 106.335Z" fill="white"/>
<path opacity="0.3" d="M214.309 107.93H210.539C210.684 109.38 211.264 110.54 212.134 111.554L214.744 108.945C214.599 108.655 214.454 108.365 214.309 107.93Z" fill="white"/>
<path opacity="0.3" d="M216.194 105.321V101.551C214.744 101.696 213.439 102.276 212.424 103.146L215.034 105.755C215.324 105.611 215.759 105.321 216.194 105.321Z" fill="white"/>
<path d="M216.629 100.682C216.194 100.682 215.614 100.682 215.179 100.827C211.989 101.406 209.669 104.161 209.669 107.495C209.669 111.265 212.714 114.309 216.484 114.309C218.369 114.309 220.109 113.584 221.269 112.279C222.574 110.975 223.299 109.38 223.299 107.495C223.444 103.726 220.399 100.682 216.629 100.682ZM218.804 107.35C218.804 106.915 218.659 106.48 218.369 106.046L220.979 103.436C221.849 104.451 222.429 105.756 222.574 107.35H218.804ZM212.569 111.989L215.179 109.38C215.469 109.525 215.759 109.67 216.194 109.815V113.584C214.744 113.439 213.584 112.859 212.569 111.989ZM217.934 105.756C217.644 105.466 217.209 105.321 216.629 105.321V101.551C218.079 101.551 219.529 102.131 220.544 103.146L217.934 105.756ZM214.309 107.35H210.539C210.539 105.901 211.119 104.596 211.989 103.581L214.599 106.19C214.454 106.625 214.309 107.06 214.309 107.35ZM214.309 107.93C214.454 108.365 214.599 108.655 214.744 108.945L212.134 111.554C211.264 110.54 210.684 109.38 210.539 107.93H214.309ZM216.629 109.38C215.614 109.38 214.744 108.51 214.744 107.495C214.744 106.48 215.614 105.611 216.629 105.611C217.354 105.611 217.934 106.046 218.224 106.625V106.77C218.369 106.915 218.369 107.205 218.369 107.495C218.369 107.785 218.369 107.93 218.224 108.22C218.079 108.945 217.354 109.38 216.629 109.38ZM216.774 109.815C217.209 109.815 217.499 109.67 217.789 109.525L220.399 112.134C219.384 113.004 218.079 113.584 216.774 113.584V109.815ZM216.194 101.551V105.321C215.759 105.466 215.324 105.611 215.034 105.901L212.424 103.291C213.439 102.276 214.744 101.696 216.194 101.551ZM220.834 111.699L218.224 109.09C218.514 108.8 218.659 108.365 218.804 107.93H222.574C222.429 109.38 221.849 110.685 220.834 111.699Z" fill="white"/>
<path d="M258.389 123.297C267.118 123.297 274.194 116.222 274.194 107.495C274.194 98.7681 267.118 91.6932 258.389 91.6932C249.66 91.6932 242.584 98.7681 242.584 107.495C242.584 116.222 249.66 123.297 258.389 123.297Z" fill="#3B5266"/>
<path d="M247.659 107.495C247.659 103.291 249.979 99.8118 253.459 97.9271L252.879 97.0573C249.109 99.0869 246.499 103.001 246.499 107.495C246.499 111.989 249.109 115.904 252.879 117.933L253.459 117.063C249.979 115.179 247.659 111.7 247.659 107.495Z" fill="#76C1AA"/>
<path d="M263.754 97.0573L263.319 97.9271C266.799 99.6668 269.264 103.291 269.264 107.495C269.264 111.7 266.799 115.324 263.319 117.063L263.754 117.933C267.524 115.904 270.134 111.989 270.134 107.495C270.134 103.001 267.524 98.9419 263.754 97.0573Z" fill="#76C1AA"/>
<path opacity="0.3" d="M258.389 109.815C259.67 109.815 260.709 108.776 260.709 107.495C260.709 106.214 259.67 105.176 258.389 105.176C257.108 105.176 256.069 106.214 256.069 107.495C256.069 108.776 257.108 109.815 258.389 109.815Z" fill="white"/>
<path opacity="0.3" d="M259.839 105.755L262.449 103.146C261.434 102.131 260.129 101.551 258.534 101.551V105.321C258.969 105.321 259.404 105.466 259.839 105.755Z" fill="white"/>
<path opacity="0.3" d="M260.564 107.35H264.334C264.334 105.901 263.754 104.451 262.739 103.436L260.129 106.046C260.419 106.48 260.564 106.915 260.564 107.35Z" fill="white"/>
<path opacity="0.3" d="M259.984 109.09L262.594 111.699C263.609 110.685 264.189 109.38 264.189 107.93H260.564C260.419 108.365 260.274 108.8 259.984 109.09Z" fill="white"/>
<path opacity="0.3" d="M256.939 109.38L254.329 111.989C255.344 112.859 256.504 113.439 257.954 113.439V109.67C257.664 109.67 257.229 109.525 256.939 109.38Z" fill="white"/>
<path opacity="0.3" d="M258.534 109.815V113.584C259.984 113.584 261.289 113.004 262.159 112.134L259.549 109.525C259.259 109.67 258.969 109.67 258.534 109.815Z" fill="white"/>
<path opacity="0.3" d="M256.504 106.335L253.894 103.726C253.024 104.741 252.444 106.045 252.444 107.495H256.214C256.069 107.06 256.214 106.625 256.504 106.335Z" fill="white"/>
<path opacity="0.3" d="M256.069 107.93H252.299C252.444 109.38 253.024 110.54 253.894 111.554L256.504 108.945C256.359 108.655 256.214 108.365 256.069 107.93Z" fill="white"/>
<path opacity="0.3" d="M257.954 105.321V101.551C256.504 101.696 255.199 102.276 254.184 103.146L256.794 105.755C257.084 105.611 257.519 105.321 257.954 105.321Z" fill="white"/>
<path d="M258.534 100.682C258.099 100.682 257.519 100.682 257.084 100.827C253.894 101.406 251.574 104.161 251.574 107.495C251.574 111.265 254.619 114.309 258.389 114.309C260.274 114.309 262.014 113.584 263.174 112.279C264.479 110.975 265.204 109.38 265.204 107.495C265.204 103.726 262.159 100.682 258.534 100.682ZM260.564 107.35C260.564 106.915 260.419 106.48 260.129 106.046L262.739 103.436C263.609 104.451 264.189 105.756 264.334 107.35H260.564ZM254.329 111.989L256.939 109.38C257.229 109.525 257.519 109.67 257.954 109.815V113.584C256.504 113.439 255.344 112.859 254.329 111.989ZM259.839 105.756C259.549 105.466 259.114 105.321 258.534 105.321V101.551C259.984 101.551 261.434 102.131 262.449 103.146L259.839 105.756ZM256.069 107.35H252.299C252.299 105.901 252.879 104.596 253.749 103.581L256.359 106.19C256.214 106.625 256.069 107.06 256.069 107.35ZM256.069 107.93C256.214 108.365 256.359 108.655 256.504 108.945L253.894 111.554C253.024 110.54 252.444 109.38 252.299 107.93H256.069ZM258.389 109.38C257.374 109.38 256.504 108.51 256.504 107.495C256.504 106.48 257.374 105.611 258.389 105.611C259.114 105.611 259.694 106.046 259.984 106.625V106.77C260.129 106.915 260.129 107.205 260.129 107.495C260.129 107.785 260.129 107.93 259.984 108.22C259.839 108.945 259.114 109.38 258.389 109.38ZM258.534 109.815C258.969 109.815 259.259 109.67 259.549 109.525L262.159 112.134C261.144 113.004 259.839 113.584 258.534 113.584V109.815ZM257.954 101.551V105.321C257.519 105.466 257.084 105.611 256.794 105.901L254.184 103.291C255.199 102.276 256.504 101.696 257.954 101.551ZM262.594 111.699L259.984 109.09C260.274 108.8 260.419 108.365 260.564 107.93H264.334C264.189 109.38 263.609 110.685 262.594 111.699Z" fill="white"/>
<path d="M362.788 123.297C371.517 123.297 378.593 116.222 378.593 107.495C378.593 98.7681 371.517 91.6932 362.788 91.6932C354.059 91.6932 346.983 98.7681 346.983 107.495C346.983 116.222 354.059 123.297 362.788 123.297Z" fill="#3B5266"/>
<path d="M352.058 107.495C352.058 103.291 354.378 99.8118 357.858 97.9271L357.278 97.0573C353.508 99.0869 350.898 103.001 350.898 107.495C350.898 111.989 353.508 115.904 357.278 117.933L357.858 117.063C354.378 115.179 352.058 111.7 352.058 107.495Z" fill="#76C1AA"/>
<path d="M368.298 97.0573L367.863 97.9271C371.343 99.6668 373.808 103.291 373.808 107.495C373.808 111.7 371.343 115.324 367.863 117.063L368.298 117.933C372.068 115.904 374.678 111.989 374.678 107.495C374.533 103.001 371.923 98.9419 368.298 97.0573Z" fill="#76C1AA"/>
<path opacity="0.3" d="M362.788 109.815C364.07 109.815 365.108 108.776 365.108 107.495C365.108 106.214 364.07 105.176 362.788 105.176C361.507 105.176 360.468 106.214 360.468 107.495C360.468 108.776 361.507 109.815 362.788 109.815Z" fill="white"/>
<path opacity="0.3" d="M364.238 105.755L366.848 103.146C365.833 102.131 364.528 101.551 362.933 101.551V105.321C363.368 105.321 363.803 105.466 364.238 105.755Z" fill="white"/>
<path opacity="0.3" d="M364.963 107.35H368.733C368.733 105.901 368.153 104.451 367.138 103.436L364.528 106.046C364.818 106.48 364.963 106.915 364.963 107.35Z" fill="white"/>
<path opacity="0.3" d="M364.383 109.09L366.993 111.699C368.008 110.685 368.588 109.38 368.588 107.93H364.963C364.818 108.365 364.673 108.8 364.383 109.09Z" fill="white"/>
<path opacity="0.3" d="M361.338 109.38L358.728 111.989C359.743 112.859 360.903 113.439 362.353 113.439V109.67C362.063 109.67 361.628 109.525 361.338 109.38Z" fill="white"/>
<path opacity="0.3" d="M362.933 109.815V113.584C364.383 113.584 365.688 113.004 366.558 112.134L363.948 109.525C363.658 109.67 363.368 109.67 362.933 109.815Z" fill="white"/>
<path opacity="0.3" d="M360.903 106.335L358.293 103.726C357.423 104.741 356.843 106.045 356.843 107.495H360.613C360.468 107.06 360.613 106.625 360.903 106.335Z" fill="white"/>
<path opacity="0.3" d="M360.468 107.93H356.698C356.843 109.38 357.423 110.54 358.293 111.554L360.903 108.945C360.758 108.655 360.613 108.365 360.468 107.93Z" fill="white"/>
<path opacity="0.3" d="M362.353 105.321V101.551C360.903 101.696 359.598 102.276 358.583 103.146L361.193 105.755C361.483 105.611 361.918 105.321 362.353 105.321Z" fill="white"/>
<path d="M362.933 100.682C362.498 100.682 361.918 100.682 361.483 100.827C358.293 101.406 355.973 104.161 355.973 107.495C355.973 111.265 359.018 114.309 362.788 114.309C364.673 114.309 366.413 113.584 367.573 112.279C368.878 110.975 369.603 109.38 369.603 107.495C369.603 103.726 366.558 100.682 362.933 100.682ZM364.963 107.35C364.963 106.915 364.818 106.48 364.528 106.046L367.138 103.436C368.008 104.451 368.588 105.756 368.733 107.35H364.963ZM358.728 111.989L361.338 109.38C361.628 109.525 361.918 109.67 362.353 109.815V113.584C361.048 113.439 359.743 112.859 358.728 111.989ZM364.238 105.756C363.948 105.466 363.513 105.321 362.933 105.321V101.551C364.383 101.551 365.833 102.131 366.848 103.146L364.238 105.756ZM360.468 107.35H356.698C356.698 105.901 357.278 104.596 358.148 103.581L360.758 106.19C360.613 106.625 360.468 107.06 360.468 107.35ZM360.468 107.93C360.613 108.365 360.758 108.655 360.903 108.945L358.293 111.554C357.423 110.54 356.843 109.38 356.698 107.93H360.468ZM362.788 109.38C361.773 109.38 360.903 108.51 360.903 107.495C360.903 106.48 361.773 105.611 362.788 105.611C363.513 105.611 364.093 106.046 364.383 106.625V106.77C364.528 106.915 364.528 107.205 364.528 107.495C364.528 107.785 364.528 107.93 364.383 108.22C364.238 108.945 363.513 109.38 362.788 109.38ZM362.933 109.815C363.368 109.815 363.658 109.67 363.948 109.525L366.558 112.134C365.543 113.004 364.238 113.584 362.933 113.584V109.815ZM362.353 101.551V105.321C361.918 105.466 361.483 105.611 361.193 105.901L358.583 103.291C359.598 102.276 360.903 101.696 362.353 101.551ZM366.993 111.699L364.383 109.09C364.673 108.8 364.818 108.365 364.963 107.93H368.733C368.588 109.38 368.008 110.685 366.993 111.699Z" fill="white"/>
<path d="M403.678 123.297C412.407 123.297 419.483 116.222 419.483 107.495C419.483 98.7681 412.407 91.6932 403.678 91.6932C394.949 91.6932 387.873 98.7681 387.873 107.495C387.873 116.222 394.949 123.297 403.678 123.297Z" fill="#3B5266"/>
<path d="M393.093 107.495C393.093 103.291 395.413 99.8118 398.893 97.9271L398.313 97.0573C394.543 99.0869 391.933 103.001 391.933 107.495C391.933 111.989 394.543 115.904 398.313 117.933L398.893 117.063C395.413 115.179 393.093 111.7 393.093 107.495Z" fill="#76C1AA"/>
<path d="M409.188 97.0573L408.753 97.9271C412.233 99.6668 414.698 103.291 414.698 107.495C414.698 111.7 412.233 115.324 408.753 117.063L409.188 117.933C412.958 115.904 415.568 111.989 415.568 107.495C415.568 103.001 412.958 98.9419 409.188 97.0573Z" fill="#76C1AA"/>
<path opacity="0.3" d="M403.678 109.815C404.96 109.815 405.998 108.776 405.998 107.495C405.998 106.214 404.96 105.176 403.678 105.176C402.397 105.176 401.358 106.214 401.358 107.495C401.358 108.776 402.397 109.815 403.678 109.815Z" fill="white"/>
<path opacity="0.3" d="M405.128 105.755L407.738 103.146C406.723 102.131 405.418 101.551 403.823 101.551V105.321C404.403 105.321 404.838 105.466 405.128 105.755Z" fill="white"/>
<path opacity="0.3" d="M405.998 107.35H409.768C409.768 105.901 409.188 104.451 408.173 103.436L405.563 106.046C405.708 106.48 405.998 106.915 405.998 107.35Z" fill="white"/>
<path opacity="0.3" d="M405.418 109.09L408.028 111.699C409.043 110.685 409.623 109.38 409.623 107.93H405.853C405.853 108.365 405.563 108.8 405.418 109.09Z" fill="white"/>
<path opacity="0.3" d="M402.373 109.38L399.763 111.989C400.778 112.859 401.938 113.439 403.388 113.439V109.67C402.953 109.67 402.663 109.525 402.373 109.38Z" fill="white"/>
<path opacity="0.3" d="M403.823 109.815V113.584C405.273 113.584 406.578 113.004 407.448 112.134L404.838 109.525C404.548 109.67 404.258 109.67 403.823 109.815Z" fill="white"/>
<path opacity="0.3" d="M401.793 106.335L399.183 103.726C398.313 104.741 397.733 106.045 397.733 107.495H401.503C401.503 107.06 401.648 106.625 401.793 106.335Z" fill="white"/>
<path opacity="0.3" d="M401.503 107.93H397.733C397.878 109.38 398.458 110.54 399.328 111.554L401.938 108.945C401.648 108.655 401.503 108.365 401.503 107.93Z" fill="white"/>
<path opacity="0.3" d="M403.243 105.321V101.551C401.793 101.696 400.488 102.276 399.473 103.146L402.083 105.755C402.518 105.611 402.808 105.321 403.243 105.321Z" fill="white"/>
<path d="M403.823 100.682C403.388 100.682 402.808 100.682 402.373 100.827C399.183 101.406 396.863 104.161 396.863 107.495C396.863 111.265 399.908 114.309 403.678 114.309C405.563 114.309 407.303 113.584 408.463 112.279C409.768 110.975 410.493 109.38 410.493 107.495C410.638 103.726 407.593 100.682 403.823 100.682ZM405.998 107.35C405.998 106.915 405.853 106.48 405.563 106.046L408.173 103.436C409.043 104.451 409.623 105.756 409.768 107.35H405.998ZM399.763 111.989L402.373 109.38C402.663 109.525 402.953 109.67 403.388 109.815V113.584C401.938 113.439 400.633 112.859 399.763 111.989ZM405.128 105.756C404.838 105.466 404.403 105.321 403.823 105.321V101.551C405.273 101.551 406.723 102.131 407.738 103.146L405.128 105.756ZM401.503 107.35H397.733C397.733 105.901 398.313 104.596 399.183 103.581L401.793 106.19C401.648 106.625 401.503 107.06 401.503 107.35ZM401.503 107.93C401.648 108.365 401.793 108.655 401.938 108.945L399.328 111.554C398.458 110.54 397.878 109.38 397.733 107.93H401.503ZM403.678 109.38C402.663 109.38 401.793 108.51 401.793 107.495C401.793 106.48 402.663 105.611 403.678 105.611C404.403 105.611 404.983 106.046 405.273 106.625V106.77C405.418 106.915 405.418 107.205 405.418 107.495C405.418 107.785 405.418 107.93 405.273 108.22C405.128 108.945 404.548 109.38 403.678 109.38ZM403.823 109.815C404.258 109.815 404.548 109.67 404.838 109.525L407.448 112.134C406.433 113.004 405.128 113.584 403.823 113.584V109.815ZM403.243 101.551V105.321C402.808 105.466 402.373 105.611 402.083 105.901L399.473 103.291C400.488 102.276 401.793 101.696 403.243 101.551ZM408.028 111.699L405.418 109.09C405.708 108.8 405.853 108.365 405.998 107.93H409.768C409.478 109.38 408.898 110.685 408.028 111.699Z" fill="white"/>
<path d="M444.713 123.297C453.442 123.297 460.518 116.222 460.518 107.495C460.518 98.7681 453.442 91.6932 444.713 91.6932C435.984 91.6932 428.908 98.7681 428.908 107.495C428.908 116.222 435.984 123.297 444.713 123.297Z" fill="#3B5266"/>
<path d="M433.983 107.495C433.983 103.291 436.303 99.8118 439.783 97.9271L439.203 97.0573C435.433 99.0869 432.823 103.001 432.823 107.495C432.823 111.989 435.433 115.904 439.203 117.933L439.783 117.063C436.303 115.179 433.983 111.7 433.983 107.495Z" fill="#76C1AA"/>
<path d="M450.078 97.0573L449.643 97.9271C453.123 99.6668 455.588 103.291 455.588 107.495C455.588 111.7 453.123 115.324 449.643 117.063L450.078 117.933C453.848 115.904 456.458 111.989 456.458 107.495C456.458 103.001 453.848 98.9419 450.078 97.0573Z" fill="#76C1AA"/>
<path opacity="0.3" d="M444.713 109.815C445.994 109.815 447.033 108.776 447.033 107.495C447.033 106.214 445.994 105.176 444.713 105.176C443.432 105.176 442.393 106.214 442.393 107.495C442.393 108.776 443.432 109.815 444.713 109.815Z" fill="white"/>
<path opacity="0.3" d="M446.018 105.755L448.628 103.146C447.613 102.131 446.308 101.551 444.713 101.551V105.321C445.293 105.321 445.728 105.466 446.018 105.755Z" fill="white"/>
<path opacity="0.3" d="M446.888 107.35H450.658C450.658 105.901 450.078 104.451 449.063 103.436L446.453 106.046C446.743 106.48 446.888 106.915 446.888 107.35Z" fill="white"/>
<path opacity="0.3" d="M446.308 109.09L448.918 111.699C449.933 110.685 450.513 109.38 450.513 107.93H446.743C446.743 108.365 446.598 108.8 446.308 109.09Z" fill="white"/>
<path opacity="0.3" d="M443.263 109.38L440.653 111.989C441.668 112.859 442.828 113.439 444.278 113.439V109.67C443.843 109.67 443.553 109.525 443.263 109.38Z" fill="white"/>
<path opacity="0.3" d="M444.858 109.815V113.584C446.308 113.584 447.613 113.004 448.483 112.134L445.873 109.525C445.583 109.67 445.148 109.67 444.858 109.815Z" fill="white"/>
<path opacity="0.3" d="M442.683 106.335L440.073 103.726C439.203 104.741 438.623 106.045 438.623 107.495H442.393C442.393 107.06 442.538 106.625 442.683 106.335Z" fill="white"/>
<path opacity="0.3" d="M442.393 107.93H438.623C438.768 109.38 439.348 110.54 440.218 111.554L442.828 108.945C442.683 108.655 442.538 108.365 442.393 107.93Z" fill="white"/>
<path opacity="0.3" d="M444.278 105.321V101.551C442.828 101.696 441.523 102.276 440.508 103.146L443.118 105.755C443.408 105.611 443.843 105.321 444.278 105.321Z" fill="white"/>
<path d="M444.713 100.682C444.278 100.682 443.698 100.682 443.263 100.827C440.073 101.406 437.753 104.161 437.753 107.495C437.753 111.265 440.798 114.309 444.568 114.309C446.453 114.309 448.193 113.584 449.353 112.279C450.658 110.975 451.383 109.38 451.383 107.495C451.528 103.726 448.483 100.682 444.713 100.682ZM446.888 107.35C446.888 106.915 446.743 106.48 446.453 106.046L449.063 103.436C449.933 104.451 450.513 105.756 450.658 107.35H446.888ZM440.653 111.989L443.263 109.38C443.553 109.525 443.843 109.67 444.278 109.815V113.584C442.828 113.439 441.668 112.859 440.653 111.989ZM446.018 105.756C445.728 105.466 445.293 105.321 444.713 105.321V101.551C446.163 101.551 447.613 102.131 448.628 103.146L446.018 105.756ZM442.393 107.35H438.623C438.623 105.901 439.203 104.596 440.073 103.581L442.683 106.19C442.538 106.625 442.393 107.06 442.393 107.35ZM442.393 107.93C442.538 108.365 442.683 108.655 442.828 108.945L440.218 111.554C439.348 110.54 438.768 109.38 438.623 107.93H442.393ZM444.713 109.38C443.698 109.38 442.828 108.51 442.828 107.495C442.828 106.48 443.698 105.611 444.713 105.611C445.438 105.611 446.018 106.046 446.308 106.625V106.77C446.453 106.915 446.453 107.205 446.453 107.495C446.453 107.785 446.453 107.93 446.308 108.22C446.163 108.945 445.438 109.38 444.713 109.38ZM444.858 109.815C445.293 109.815 445.583 109.67 445.873 109.525L448.483 112.134C447.468 113.004 446.163 113.584 444.858 113.584V109.815ZM444.278 101.551V105.321C443.843 105.466 443.408 105.611 443.118 105.901L440.508 103.291C441.523 102.276 442.828 101.696 444.278 101.551ZM448.918 111.699L446.308 109.09C446.598 108.8 446.743 108.365 446.888 107.93H450.658C450.513 109.38 449.933 110.685 448.918 111.699Z" fill="white"/>
<path d="M485.603 123.297C494.332 123.297 501.408 116.222 501.408 107.495C501.408 98.7681 494.332 91.6932 485.603 91.6932C476.874 91.6932 469.798 98.7681 469.798 107.495C469.798 116.222 476.874 123.297 485.603 123.297Z" fill="#3B5266"/>
<path d="M474.873 107.495C474.873 103.291 477.193 99.8118 480.673 97.9271L480.093 97.0573C476.323 99.0869 473.713 103.001 473.713 107.495C473.713 111.989 476.323 115.904 480.093 117.933L480.673 117.063C477.193 115.179 474.873 111.7 474.873 107.495Z" fill="#76C1AA"/>
<path d="M491.113 97.0573L490.678 97.9271C494.158 99.6668 496.623 103.291 496.623 107.495C496.623 111.7 494.158 115.324 490.678 117.063L491.113 117.933C494.883 115.904 497.493 111.989 497.493 107.495C497.348 103.001 494.883 98.9419 491.113 97.0573Z" fill="#76C1AA"/>
<path opacity="0.3" d="M485.603 109.815C486.884 109.815 487.923 108.776 487.923 107.495C487.923 106.214 486.884 105.176 485.603 105.176C484.321 105.176 483.283 106.214 483.283 107.495C483.283 108.776 484.321 109.815 485.603 109.815Z" fill="white"/>
<path opacity="0.3" d="M487.053 105.755L489.663 103.146C488.648 102.131 487.343 101.551 485.748 101.551V105.321C486.183 105.321 486.618 105.466 487.053 105.755Z" fill="white"/>
<path opacity="0.3" d="M487.778 107.35H491.548C491.548 105.901 490.968 104.451 489.953 103.436L487.343 106.046C487.633 106.48 487.778 106.915 487.778 107.35Z" fill="white"/>
<path opacity="0.3" d="M487.198 109.09L489.808 111.699C490.823 110.685 491.403 109.38 491.403 107.93H487.633C487.778 108.365 487.488 108.8 487.198 109.09Z" fill="white"/>
<path opacity="0.3" d="M484.297 109.38L481.688 111.989C482.702 112.859 483.862 113.439 485.312 113.439V109.67C484.877 109.67 484.442 109.525 484.297 109.38Z" fill="white"/>
<path opacity="0.3" d="M485.748 109.815V113.584C487.198 113.584 488.503 113.004 489.373 112.134L486.763 109.525C486.473 109.67 486.183 109.67 485.748 109.815Z" fill="white"/>
<path opacity="0.3" d="M483.718 106.335L481.108 103.726C480.238 104.741 479.658 106.045 479.658 107.495H483.428C483.283 107.06 483.428 106.625 483.718 106.335Z" fill="white"/>
<path opacity="0.3" d="M483.428 107.93H479.658C479.803 109.38 480.383 110.54 481.253 111.554L483.863 108.945C483.573 108.655 483.428 108.365 483.428 107.93Z" fill="white"/>
<path opacity="0.3" d="M485.167 105.321V101.551C483.717 101.696 482.412 102.276 481.397 103.146L484.007 105.755C484.297 105.611 484.732 105.321 485.167 105.321Z" fill="white"/>
<path d="M485.748 100.682C485.313 100.682 484.733 100.682 484.298 100.827C481.108 101.406 478.788 104.161 478.788 107.495C478.788 111.265 481.833 114.309 485.603 114.309C487.488 114.309 489.228 113.584 490.388 112.279C491.693 110.975 492.418 109.38 492.418 107.495C492.563 103.726 489.518 100.682 485.748 100.682ZM487.778 107.35C487.778 106.915 487.633 106.48 487.343 106.046L489.953 103.436C490.823 104.451 491.403 105.756 491.548 107.35H487.778ZM481.543 111.989L484.153 109.38C484.443 109.525 484.733 109.67 485.168 109.815V113.584C483.863 113.439 482.558 112.859 481.543 111.989ZM487.053 105.756C486.763 105.466 486.328 105.321 485.748 105.321V101.551C487.198 101.551 488.648 102.131 489.663 103.146L487.053 105.756ZM483.283 107.35H479.513C479.513 105.901 480.093 104.596 480.963 103.581L483.573 106.19C483.428 106.625 483.283 107.06 483.283 107.35ZM483.428 107.93C483.573 108.365 483.718 108.655 483.863 108.945L481.253 111.554C480.383 110.54 479.803 109.38 479.658 107.93H483.428ZM485.603 109.38C484.588 109.38 483.718 108.51 483.718 107.495C483.718 106.48 484.588 105.611 485.603 105.611C486.328 105.611 486.908 106.046 487.198 106.625V106.77C487.343 106.915 487.343 107.205 487.343 107.495C487.343 107.785 487.343 107.93 487.198 108.22C487.053 108.945 486.328 109.38 485.603 109.38ZM485.748 109.815C486.183 109.815 486.473 109.67 486.763 109.525L489.373 112.134C488.358 113.004 487.053 113.584 485.748 113.584V109.815ZM485.168 101.551V105.321C484.733 105.466 484.298 105.611 484.008 105.901L481.398 103.291C482.413 102.276 483.718 101.696 485.168 101.551ZM489.808 111.699L487.198 109.09C487.488 108.8 487.633 108.365 487.778 107.93H491.548C491.403 109.38 490.823 110.685 489.808 111.699Z" fill="white"/>
<path d="M526.637 123.297C535.366 123.297 542.442 116.222 542.442 107.495C542.442 98.7681 535.366 91.6932 526.637 91.6932C517.909 91.6932 510.833 98.7681 510.833 107.495C510.833 116.222 517.909 123.297 526.637 123.297Z" fill="#3B5266"/>
<path d="M515.908 107.495C515.908 103.291 518.228 99.8118 521.708 97.9271L521.128 97.0573C517.358 99.0869 514.748 103.001 514.748 107.495C514.748 111.989 517.358 115.904 521.128 117.933L521.708 117.063C518.228 115.179 515.908 111.7 515.908 107.495Z" fill="#76C1AA"/>
<path d="M532.002 97.0573L531.567 97.9271C535.047 99.6668 537.512 103.291 537.512 107.495C537.512 111.7 535.047 115.324 531.567 117.063L532.002 117.933C535.772 115.904 538.382 111.989 538.382 107.495C538.382 103.001 535.772 98.9419 532.002 97.0573Z" fill="#76C1AA"/>
<path opacity="0.3" d="M526.637 109.815C527.919 109.815 528.957 108.776 528.957 107.495C528.957 106.214 527.919 105.176 526.637 105.176C525.356 105.176 524.317 106.214 524.317 107.495C524.317 108.776 525.356 109.815 526.637 109.815Z" fill="white"/>
<path opacity="0.3" d="M527.942 105.755L530.552 103.146C529.537 102.131 528.232 101.551 526.637 101.551V105.321C527.217 105.321 527.652 105.466 527.942 105.755Z" fill="white"/>
<path opacity="0.3" d="M528.812 107.35H532.582C532.582 105.901 532.002 104.451 530.987 103.436L528.377 106.046C528.667 106.48 528.812 106.915 528.812 107.35Z" fill="white"/>
<path opacity="0.3" d="M528.232 109.09L530.842 111.699C531.857 110.685 532.437 109.38 532.437 107.93H528.812C528.667 108.365 528.522 108.8 528.232 109.09Z" fill="white"/>
<path opacity="0.3" d="M525.187 109.38L522.577 111.989C523.592 112.859 524.752 113.439 526.202 113.439V109.67C525.767 109.67 525.477 109.525 525.187 109.38Z" fill="white"/>
<path opacity="0.3" d="M526.637 109.815V113.584C528.087 113.584 529.392 113.004 530.262 112.134L527.652 109.525C527.507 109.67 527.072 109.67 526.637 109.815Z" fill="white"/>
<path opacity="0.3" d="M524.607 106.335L521.997 103.726C521.127 104.741 520.547 106.045 520.547 107.495H524.317C524.317 107.06 524.462 106.625 524.607 106.335Z" fill="white"/>
<path opacity="0.3" d="M524.317 107.93H520.547C520.692 109.38 521.272 110.54 522.142 111.554L524.753 108.945C524.607 108.655 524.317 108.365 524.317 107.93Z" fill="white"/>
<path opacity="0.3" d="M526.203 105.321V101.551C524.753 101.696 523.448 102.276 522.433 103.146L525.043 105.755C525.333 105.611 525.768 105.321 526.203 105.321Z" fill="white"/>
<path d="M526.637 100.682C526.202 100.682 525.622 100.682 525.187 100.827C521.997 101.406 519.677 104.161 519.677 107.495C519.677 111.265 522.722 114.309 526.492 114.309C528.377 114.309 530.117 113.584 531.277 112.279C532.582 110.975 533.307 109.38 533.307 107.495C533.452 103.726 530.407 100.682 526.637 100.682ZM528.812 107.35C528.812 106.915 528.667 106.48 528.377 106.046L530.987 103.436C531.857 104.451 532.437 105.756 532.582 107.35H528.812ZM522.577 111.989L525.187 109.38C525.477 109.525 525.767 109.67 526.202 109.815V113.584C524.752 113.439 523.447 112.859 522.577 111.989ZM527.942 105.756C527.652 105.466 527.217 105.321 526.637 105.321V101.551C528.087 101.551 529.537 102.131 530.552 103.146L527.942 105.756ZM524.317 107.35H520.547C520.547 105.901 521.127 104.596 521.997 103.581L524.607 106.19C524.462 106.625 524.317 107.06 524.317 107.35ZM524.317 107.93C524.462 108.365 524.607 108.655 524.752 108.945L522.142 111.554C521.272 110.54 520.692 109.38 520.547 107.93H524.317ZM526.637 109.38C525.622 109.38 524.752 108.51 524.752 107.495C524.752 106.48 525.622 105.611 526.637 105.611C527.362 105.611 527.942 106.046 528.232 106.625V106.77C528.377 106.915 528.377 107.205 528.377 107.495C528.377 107.785 528.377 107.93 528.232 108.22C527.942 108.945 527.362 109.38 526.637 109.38ZM526.637 109.815C527.072 109.815 527.362 109.67 527.652 109.525L530.262 112.134C529.247 113.004 527.942 113.584 526.637 113.584V109.815ZM526.202 101.551V105.321C525.767 105.466 525.332 105.611 525.042 105.901L522.432 103.291C523.302 102.276 524.607 101.696 526.202 101.551ZM530.842 111.699L528.232 109.09C528.522 108.8 528.667 108.365 528.812 107.93H532.582C532.437 109.38 531.712 110.685 530.842 111.699Z" fill="white"/>
<path d="M567.528 123.297C576.256 123.297 583.333 116.222 583.333 107.495C583.333 98.7681 576.256 91.6932 567.528 91.6932C558.799 91.6932 551.723 98.7681 551.723 107.495C551.723 116.222 558.799 123.297 567.528 123.297Z" fill="#3B5266"/>
<path d="M556.798 107.495C556.798 103.291 559.118 99.8118 562.598 97.9271L562.018 97.0573C558.248 99.0869 555.638 103.001 555.638 107.495C555.638 111.989 558.248 115.904 562.018 117.933L562.598 117.063C559.118 115.179 556.798 111.7 556.798 107.495Z" fill="#76C1AA"/>
<path d="M572.893 97.0573L572.458 97.9271C575.938 99.6668 578.403 103.291 578.403 107.495C578.403 111.7 575.938 115.324 572.458 117.063L572.893 117.933C576.663 115.904 579.273 111.989 579.273 107.495C579.273 103.001 576.663 98.9419 572.893 97.0573Z" fill="#76C1AA"/>
<path opacity="0.3" d="M567.528 109.815C568.809 109.815 569.847 108.776 569.847 107.495C569.847 106.214 568.809 105.176 567.528 105.176C566.246 105.176 565.208 106.214 565.208 107.495C565.208 108.776 566.246 109.815 567.528 109.815Z" fill="white"/>
<path opacity="0.3" d="M568.833 105.755L571.443 103.146C570.428 102.131 569.123 101.551 567.528 101.551V105.321C568.108 105.321 568.543 105.466 568.833 105.755Z" fill="white"/>
<path opacity="0.3" d="M569.703 107.35H573.473C573.473 105.901 572.893 104.451 571.878 103.436L569.268 106.046C569.558 106.48 569.703 106.915 569.703 107.35Z" fill="white"/>
<path opacity="0.3" d="M569.123 109.09L571.733 111.699C572.748 110.685 573.328 109.38 573.328 107.93H569.558C569.558 108.365 569.413 108.8 569.123 109.09Z" fill="white"/>
<path opacity="0.3" d="M566.078 109.38L563.468 111.989C564.483 112.859 565.643 113.439 567.093 113.439V109.67C566.658 109.67 566.368 109.525 566.078 109.38Z" fill="white"/>
<path opacity="0.3" d="M567.673 109.815V113.584C569.123 113.584 570.428 113.004 571.298 112.134L568.688 109.525C568.398 109.67 567.963 109.67 567.673 109.815Z" fill="white"/>
<path opacity="0.3" d="M565.498 106.335L562.888 103.726C562.018 104.741 561.438 106.045 561.438 107.495H565.208C565.208 107.06 565.353 106.625 565.498 106.335Z" fill="white"/>
<path opacity="0.3" d="M565.208 107.93H561.438C561.583 109.38 562.163 110.54 563.033 111.554L565.643 108.945C565.498 108.655 565.353 108.365 565.208 107.93Z" fill="white"/>
<path opacity="0.3" d="M567.093 105.321V101.551C565.643 101.696 564.338 102.276 563.323 103.146L565.933 105.755C566.223 105.611 566.658 105.321 567.093 105.321Z" fill="white"/>
<path d="M567.528 100.682C567.093 100.682 566.513 100.682 566.078 100.827C562.888 101.406 560.568 104.161 560.568 107.495C560.568 111.265 563.613 114.309 567.383 114.309C569.268 114.309 571.008 113.584 572.168 112.279C573.473 110.975 574.198 109.38 574.198 107.495C574.343 103.726 571.298 100.682 567.528 100.682ZM569.703 107.35C569.703 106.915 569.558 106.48 569.268 106.046L571.878 103.436C572.748 104.451 573.328 105.756 573.473 107.35H569.703ZM563.468 111.989L566.078 109.38C566.368 109.525 566.658 109.67 567.093 109.815V113.584C565.643 113.439 564.483 112.859 563.468 111.989ZM568.833 105.756C568.543 105.466 568.108 105.321 567.528 105.321V101.551C568.978 101.551 570.428 102.131 571.443 103.146L568.833 105.756ZM565.208 107.35H561.438C561.438 105.901 562.018 104.596 562.888 103.581L565.498 106.19C565.353 106.625 565.208 107.06 565.208 107.35ZM565.208 107.93C565.353 108.365 565.498 108.655 565.643 108.945L563.033 111.554C562.163 110.54 561.583 109.38 561.438 107.93H565.208ZM567.528 109.38C566.513 109.38 565.643 108.51 565.643 107.495C565.643 106.48 566.513 105.611 567.528 105.611C568.253 105.611 568.833 106.046 569.123 106.625V106.77C569.268 106.915 569.268 107.205 569.268 107.495C569.268 107.785 569.268 107.93 569.123 108.22C568.978 108.945 568.253 109.38 567.528 109.38ZM567.673 109.815C568.108 109.815 568.398 109.67 568.688 109.525L571.298 112.134C570.283 113.004 568.978 113.584 567.673 113.584V109.815ZM567.093 101.551V105.321C566.658 105.466 566.223 105.611 565.933 105.901L563.323 103.291C564.338 102.276 565.643 101.696 567.093 101.551ZM571.733 111.699L569.123 109.09C569.413 108.8 569.558 108.365 569.703 107.93H573.473C573.328 109.38 572.748 110.685 571.733 111.699Z" fill="white"/>
<path d="M608.417 123.297C617.146 123.297 624.222 116.222 624.222 107.495C624.222 98.7681 617.146 91.6932 608.417 91.6932C599.688 91.6932 592.612 98.7681 592.612 107.495C592.612 116.222 599.688 123.297 608.417 123.297Z" fill="#3B5266"/>
<path d="M597.687 107.495C597.687 103.291 600.007 99.8118 603.487 97.9271L602.907 97.0573C599.137 99.0869 596.527 103.001 596.527 107.495C596.527 111.989 599.137 115.904 602.907 117.933L603.487 117.063C600.152 115.179 597.687 111.7 597.687 107.495Z" fill="#76C1AA"/>
<path d="M613.927 97.0573L613.492 97.9271C616.972 99.6668 619.437 103.291 619.437 107.495C619.437 111.7 616.972 115.324 613.492 117.063L613.927 117.933C617.697 115.904 620.307 111.989 620.307 107.495C620.307 103.001 617.697 98.9419 613.927 97.0573Z" fill="#76C1AA"/>
<path opacity="0.3" d="M608.417 109.815C609.698 109.815 610.737 108.776 610.737 107.495C610.737 106.214 609.698 105.176 608.417 105.176C607.136 105.176 606.097 106.214 606.097 107.495C606.097 108.776 607.136 109.815 608.417 109.815Z" fill="white"/>
<path opacity="0.3" d="M609.868 105.755L612.478 103.146C611.463 102.131 610.158 101.551 608.562 101.551V105.321C608.998 105.321 609.433 105.466 609.868 105.755Z" fill="white"/>
<path opacity="0.3" d="M610.738 107.35H614.508C614.508 105.901 613.928 104.451 612.913 103.436L610.303 106.046C610.448 106.48 610.593 106.915 610.738 107.35Z" fill="white"/>
<path opacity="0.3" d="M610.013 109.09L612.623 111.699C613.638 110.685 614.218 109.38 614.218 107.93H610.448C610.593 108.365 610.303 108.8 610.013 109.09Z" fill="white"/>
<path opacity="0.3" d="M607.112 109.38L604.502 111.989C605.517 112.859 606.677 113.439 608.127 113.439V109.67C607.692 109.67 607.402 109.525 607.112 109.38Z" fill="white"/>
<path opacity="0.3" d="M608.562 109.815V113.584C610.013 113.584 611.318 113.004 612.188 112.134L609.578 109.525C609.288 109.67 608.998 109.67 608.562 109.815Z" fill="white"/>
<path opacity="0.3" d="M606.533 106.335L603.923 103.726C603.053 104.741 602.473 106.045 602.473 107.495H606.243C606.243 107.06 606.243 106.625 606.533 106.335Z" fill="white"/>
<path opacity="0.3" d="M606.243 107.93H602.473C602.618 109.38 603.198 110.54 604.068 111.554L606.678 108.945C606.388 108.655 606.243 108.365 606.243 107.93Z" fill="white"/>
<path opacity="0.3" d="M607.983 105.321V101.551C606.533 101.696 605.228 102.276 604.213 103.146L606.823 105.755C607.258 105.611 607.548 105.321 607.983 105.321Z" fill="white"/>
<path d="M608.562 100.682C608.127 100.682 607.547 100.682 607.112 100.827C603.923 101.406 601.603 104.161 601.603 107.495C601.603 111.265 604.647 114.309 608.417 114.309C610.302 114.309 612.042 113.584 613.202 112.279C614.507 110.975 615.232 109.38 615.232 107.495C615.377 103.726 612.332 100.682 608.562 100.682ZM610.737 107.35C610.737 106.915 610.592 106.48 610.302 106.046L612.912 103.436C613.782 104.451 614.362 105.756 614.507 107.35H610.737ZM604.503 111.989L607.112 109.38C607.402 109.525 607.692 109.67 608.127 109.815V113.584C606.678 113.439 605.373 112.859 604.503 111.989ZM609.868 105.756C609.578 105.466 609.142 105.321 608.562 105.321V101.551C610.012 101.551 611.462 102.131 612.477 103.146L609.868 105.756ZM606.097 107.35H602.328C602.328 105.901 602.908 104.596 603.778 103.581L606.387 106.19C606.242 106.625 606.242 107.06 606.097 107.35ZM606.242 107.93C606.387 108.365 606.533 108.655 606.678 108.945L604.067 111.554C603.198 110.54 602.617 109.38 602.472 107.93H606.242ZM608.417 109.38C607.402 109.38 606.532 108.51 606.532 107.495C606.532 106.48 607.402 105.611 608.417 105.611C609.142 105.611 609.722 106.046 610.012 106.625V106.77C610.157 106.915 610.157 107.205 610.157 107.495C610.157 107.785 610.157 107.93 610.012 108.22C609.867 108.945 609.287 109.38 608.417 109.38ZM608.562 109.815C608.997 109.815 609.287 109.67 609.577 109.525L612.187 112.134C611.172 113.004 609.867 113.584 608.562 113.584V109.815ZM607.982 101.551V105.321C607.547 105.466 607.112 105.611 606.822 105.901L604.213 103.146C605.227 102.276 606.532 101.696 607.982 101.551ZM612.767 111.699L610.157 109.09C610.447 108.8 610.592 108.365 610.737 107.93H614.507C614.217 109.38 613.637 110.685 612.767 111.699Z" fill="white"/>
<path d="M649.452 123.297C658.181 123.297 665.257 116.222 665.257 107.495C665.257 98.7681 658.181 91.6932 649.452 91.6932C640.723 91.6932 633.647 98.7681 633.647 107.495C633.647 116.222 640.723 123.297 649.452 123.297Z" fill="#3B5266"/>
<path d="M638.722 107.495C638.722 103.291 641.042 99.8118 644.522 97.9271L643.942 97.0573C640.172 99.0869 637.562 103.001 637.562 107.495C637.562 111.989 640.172 115.904 643.942 117.933L644.522 117.063C641.042 115.179 638.722 111.7 638.722 107.495Z" fill="#76C1AA"/>
<path d="M654.817 97.0573L654.382 97.9271C657.862 99.6668 660.327 103.291 660.327 107.495C660.327 111.7 657.862 115.324 654.382 117.063L654.817 117.933C658.587 115.904 661.197 111.989 661.197 107.495C661.197 103.001 658.587 98.9419 654.817 97.0573Z" fill="#76C1AA"/>
<path opacity="0.3" d="M649.452 109.815C650.733 109.815 651.772 108.776 651.772 107.495C651.772 106.214 650.733 105.176 649.452 105.176C648.171 105.176 647.132 106.214 647.132 107.495C647.132 108.776 648.171 109.815 649.452 109.815Z" fill="white"/>
<path opacity="0.3" d="M650.757 105.755L653.367 103.146C652.352 102.131 651.047 101.551 649.452 101.551V105.321C650.032 105.321 650.467 105.466 650.757 105.755Z" fill="white"/>
<path opacity="0.3" d="M651.627 107.35H655.397C655.397 105.901 654.817 104.451 653.802 103.436L651.192 106.046C651.482 106.48 651.627 106.915 651.627 107.35Z" fill="white"/>
<path opacity="0.3" d="M651.047 109.09L653.657 111.699C654.672 110.685 655.252 109.38 655.252 107.93H651.482C651.482 108.365 651.337 108.8 651.047 109.09Z" fill="white"/>
<path opacity="0.3" d="M648.002 109.38L645.392 111.989C646.407 112.859 647.567 113.439 649.017 113.439V109.67C648.582 109.67 648.292 109.525 648.002 109.38Z" fill="white"/>
<path opacity="0.3" d="M649.597 109.815V113.584C651.047 113.584 652.352 113.004 653.222 112.134L650.612 109.525C650.322 109.67 649.887 109.67 649.597 109.815Z" fill="white"/>
<path opacity="0.3" d="M647.422 106.335L644.812 103.726C643.942 104.741 643.362 106.045 643.362 107.495H647.132C647.132 107.06 647.277 106.625 647.422 106.335Z" fill="white"/>
<path opacity="0.3" d="M647.132 107.93H643.362C643.507 109.38 644.087 110.54 644.957 111.554L647.567 108.945C647.422 108.655 647.277 108.365 647.132 107.93Z" fill="white"/>
<path opacity="0.3" d="M649.017 105.321V101.551C647.567 101.696 646.262 102.276 645.247 103.146L647.857 105.755C648.147 105.611 648.582 105.321 649.017 105.321Z" fill="white"/>
<path d="M649.452 100.682C649.017 100.682 648.437 100.682 648.002 100.827C644.812 101.406 642.492 104.161 642.492 107.495C642.492 111.265 645.537 114.309 649.307 114.309C651.192 114.309 652.932 113.584 654.092 112.279C655.397 110.975 656.122 109.38 656.122 107.495C656.267 103.726 653.222 100.682 649.452 100.682ZM651.627 107.35C651.627 106.915 651.482 106.48 651.192 106.046L653.802 103.436C654.672 104.451 655.252 105.756 655.397 107.35H651.627ZM645.392 111.989L648.002 109.38C648.292 109.525 648.582 109.67 649.017 109.815V113.584C647.567 113.439 646.407 112.859 645.392 111.989ZM650.757 105.756C650.467 105.466 650.032 105.321 649.452 105.321V101.551C650.902 101.551 652.352 102.131 653.367 103.146L650.757 105.756ZM647.132 107.35H643.362C643.362 105.901 643.942 104.596 644.812 103.581L647.422 106.19C647.277 106.625 647.132 107.06 647.132 107.35ZM647.132 107.93C647.277 108.365 647.422 108.655 647.567 108.945L644.957 111.554C644.087 110.54 643.507 109.38 643.362 107.93H647.132ZM649.452 109.38C648.437 109.38 647.567 108.51 647.567 107.495C647.567 106.48 648.437 105.611 649.452 105.611C650.177 105.611 650.757 106.046 651.047 106.625V106.77C651.192 106.915 651.192 107.205 651.192 107.495C651.192 107.785 651.192 107.93 651.047 108.22C650.757 108.945 650.177 109.38 649.452 109.38ZM649.597 109.815C650.032 109.815 650.322 109.67 650.612 109.525L653.222 112.134C652.207 113.004 650.902 113.584 649.597 113.584V109.815ZM649.017 101.551V105.321C648.582 105.466 648.147 105.611 647.857 105.901L645.247 103.291C646.117 102.276 647.567 101.696 649.017 101.551ZM653.657 111.699L651.047 109.09C651.337 108.8 651.482 108.365 651.627 107.93H655.397C655.252 109.38 654.672 110.685 653.657 111.699Z" fill="white"/>
<path d="M690.342 123.297C699.071 123.297 706.147 116.222 706.147 107.495C706.147 98.7681 699.071 91.6932 690.342 91.6932C681.613 91.6932 674.537 98.7681 674.537 107.495C674.537 116.222 681.613 123.297 690.342 123.297Z" fill="#3B5266"/>
<path d="M679.612 107.495C679.612 103.291 681.932 99.8118 685.412 97.9271L684.832 97.0573C681.062 99.0869 678.452 103.001 678.452 107.495C678.452 111.989 681.062 115.904 684.832 117.933L685.412 117.063C681.932 115.179 679.612 111.7 679.612 107.495Z" fill="#76C1AA"/>
<path d="M695.852 97.0573L695.417 97.9271C698.897 99.6668 701.362 103.291 701.362 107.495C701.362 111.7 698.897 115.324 695.417 117.063L695.852 117.933C699.622 115.904 702.232 111.989 702.232 107.495C702.087 103.001 699.622 98.9419 695.852 97.0573Z" fill="#76C1AA"/>
<path opacity="0.3" d="M690.342 109.815C691.623 109.815 692.662 108.776 692.662 107.495C692.662 106.214 691.623 105.176 690.342 105.176C689.061 105.176 688.022 106.214 688.022 107.495C688.022 108.776 689.061 109.815 690.342 109.815Z" fill="white"/>
<path opacity="0.3" d="M691.792 105.755L694.402 103.146C693.387 102.131 692.082 101.551 690.487 101.551V105.321C690.922 105.321 691.357 105.466 691.792 105.755Z" fill="white"/>
<path opacity="0.3" d="M692.517 107.35H696.287C696.287 105.901 695.707 104.451 694.692 103.436L692.082 106.046C692.372 106.48 692.517 106.915 692.517 107.35Z" fill="white"/>
<path opacity="0.3" d="M691.937 109.09L694.547 111.699C695.562 110.685 696.142 109.38 696.142 107.93H692.372C692.517 108.365 692.227 108.8 691.937 109.09Z" fill="white"/>
<path opacity="0.3" d="M688.892 109.38L686.282 111.989C687.297 112.859 688.457 113.439 689.907 113.439V109.67C689.617 109.67 689.182 109.525 688.892 109.38Z" fill="white"/>
<path opacity="0.3" d="M690.487 109.815V113.584C691.937 113.584 693.242 113.004 694.112 112.134L691.502 109.525C691.212 109.67 690.922 109.67 690.487 109.815Z" fill="white"/>
<path opacity="0.3" d="M688.457 106.335L685.847 103.726C684.977 104.741 684.397 106.045 684.397 107.495H688.167C688.022 107.06 688.167 106.625 688.457 106.335Z" fill="white"/>
<path opacity="0.3" d="M688.022 107.93H684.252C684.397 109.38 684.977 110.54 685.847 111.554L688.457 108.945C688.312 108.655 688.167 108.365 688.022 107.93Z" fill="white"/>
<path opacity="0.3" d="M689.907 105.321V101.551C688.457 101.696 687.152 102.276 686.137 103.146L688.747 105.755C689.037 105.611 689.472 105.321 689.907 105.321Z" fill="white"/>
<path d="M690.487 100.682C690.052 100.682 689.472 100.682 689.037 100.827C685.847 101.406 683.527 104.161 683.527 107.495C683.527 111.265 686.572 114.309 690.342 114.309C692.227 114.309 693.967 113.584 695.127 112.279C696.432 110.975 697.157 109.38 697.157 107.495C697.157 103.726 694.112 100.682 690.487 100.682ZM692.517 107.35C692.517 106.915 692.372 106.48 692.082 106.046L694.692 103.436C695.562 104.451 696.142 105.756 696.287 107.35H692.517ZM686.282 111.989L688.892 109.38C689.182 109.525 689.472 109.67 689.907 109.815V113.584C688.602 113.439 687.297 112.859 686.282 111.989ZM691.792 105.756C691.502 105.466 691.067 105.321 690.487 105.321V101.551C691.937 101.551 693.387 102.131 694.402 103.146L691.792 105.756ZM688.022 107.35H684.252C684.252 105.901 684.832 104.596 685.702 103.581L688.312 106.19C688.167 106.625 688.022 107.06 688.022 107.35ZM688.022 107.93C688.167 108.365 688.312 108.655 688.457 108.945L685.847 111.554C684.977 110.54 684.397 109.38 684.252 107.93H688.022ZM690.342 109.38C689.327 109.38 688.457 108.51 688.457 107.495C688.457 106.48 689.327 105.611 690.342 105.611C691.067 105.611 691.647 106.046 691.937 106.625V106.77C692.082 106.915 692.082 107.205 692.082 107.495C692.082 107.785 692.082 107.93 691.937 108.22C691.792 108.945 691.067 109.38 690.342 109.38ZM690.487 109.815C690.922 109.815 691.212 109.67 691.502 109.525L694.112 112.134C693.097 113.004 691.792 113.584 690.487 113.584V109.815ZM689.907 101.551V105.321C689.472 105.466 689.037 105.611 688.747 105.901L686.137 103.291C687.152 102.276 688.457 101.696 689.907 101.551ZM694.547 111.699L691.937 109.09C692.227 108.8 692.372 108.365 692.517 107.93H696.287C696.142 109.38 695.562 110.685 694.547 111.699Z" fill="white"/>
<path d="M731.232 123.297C739.96 123.297 747.037 116.222 747.037 107.495C747.037 98.7681 739.96 91.6932 731.232 91.6932C722.503 91.6932 715.427 98.7681 715.427 107.495C715.427 116.222 722.503 123.297 731.232 123.297Z" fill="#3B5266"/>
<path d="M720.647 107.495C720.647 103.291 722.967 99.8118 726.447 97.9271L725.867 97.0573C722.097 99.0869 719.487 103.001 719.487 107.495C719.487 111.989 722.097 115.904 725.867 117.933L726.447 117.063C722.967 115.179 720.647 111.7 720.647 107.495Z" fill="#76C1AA"/>
<path d="M736.742 97.0573L736.307 97.9271C739.787 99.6668 742.252 103.291 742.252 107.495C742.252 111.7 739.787 115.324 736.307 117.063L736.742 117.933C740.512 115.904 743.122 111.989 743.122 107.495C743.122 103.001 740.512 98.9419 736.742 97.0573Z" fill="#76C1AA"/>
<path opacity="0.3" d="M731.232 109.815C732.513 109.815 733.552 108.776 733.552 107.495C733.552 106.214 732.513 105.176 731.232 105.176C729.95 105.176 728.912 106.214 728.912 107.495C728.912 108.776 729.95 109.815 731.232 109.815Z" fill="white"/>
<path opacity="0.3" d="M732.682 105.755L735.292 103.146C734.277 102.131 732.972 101.551 731.377 101.551V105.321C731.957 105.321 732.392 105.466 732.682 105.755Z" fill="white"/>
<path opacity="0.3" d="M733.552 107.35H737.322C737.322 105.901 736.742 104.451 735.727 103.436L733.117 106.046C733.262 106.48 733.552 106.915 733.552 107.35Z" fill="white"/>
<path opacity="0.3" d="M732.972 109.09L735.582 111.699C736.597 110.685 737.177 109.38 737.177 107.93H733.407C733.407 108.365 733.117 108.8 732.972 109.09Z" fill="white"/>
<path opacity="0.3" d="M729.927 109.38L727.317 111.989C728.332 112.859 729.492 113.439 730.942 113.439V109.67C730.507 109.67 730.217 109.525 729.927 109.38Z" fill="white"/>
<path opacity="0.3" d="M731.377 109.815V113.584C732.827 113.584 734.132 113.004 735.002 112.134L732.392 109.525C732.102 109.67 731.812 109.67 731.377 109.815Z" fill="white"/>
<path opacity="0.3" d="M729.347 106.335L726.737 103.726C725.867 104.741 725.287 106.045 725.287 107.495H729.057C729.057 107.06 729.202 106.625 729.347 106.335Z" fill="white"/>
<path opacity="0.3" d="M729.057 107.93H725.287C725.432 109.38 726.012 110.54 726.882 111.554L729.492 108.945C729.202 108.655 729.057 108.365 729.057 107.93Z" fill="white"/>
<path opacity="0.3" d="M730.797 105.321V101.551C729.347 101.696 728.042 102.276 727.027 103.146L729.637 105.755C730.072 105.611 730.362 105.321 730.797 105.321Z" fill="white"/>
<path d="M731.377 100.682C730.942 100.682 730.362 100.682 729.927 100.827C726.737 101.406 724.417 104.161 724.417 107.495C724.417 111.265 727.462 114.309 731.232 114.309C733.117 114.309 734.857 113.584 736.017 112.279C737.322 110.975 738.047 109.38 738.047 107.495C738.192 103.726 735.147 100.682 731.377 100.682ZM733.552 107.35C733.552 106.915 733.407 106.48 733.117 106.046L735.727 103.436C736.597 104.451 737.177 105.756 737.322 107.35H733.552ZM727.317 111.989L729.927 109.38C730.217 109.525 730.507 109.67 730.942 109.815V113.584C729.492 113.439 728.187 112.859 727.317 111.989ZM732.682 105.756C732.392 105.466 731.957 105.321 731.377 105.321V101.551C732.827 101.551 734.277 102.131 735.292 103.146L732.682 105.756ZM729.057 107.35H725.287C725.287 105.901 725.867 104.596 726.737 103.581L729.347 106.19C729.202 106.625 729.057 107.06 729.057 107.35ZM729.057 107.93C729.202 108.365 729.347 108.655 729.492 108.945L726.882 111.554C726.012 110.54 725.432 109.38 725.287 107.93H729.057ZM731.232 109.38C730.217 109.38 729.347 108.51 729.347 107.495C729.347 106.48 730.217 105.611 731.232 105.611C731.957 105.611 732.537 106.046 732.827 106.625V106.77C732.972 106.915 732.972 107.205 732.972 107.495C732.972 107.785 732.972 107.93 732.827 108.22C732.682 108.945 732.102 109.38 731.232 109.38ZM731.377 109.815C731.812 109.815 732.102 109.67 732.392 109.525L735.002 112.134C733.987 113.004 732.682 113.584 731.377 113.584V109.815ZM730.797 101.551V105.321C730.362 105.466 729.927 105.611 729.637 105.901L727.027 103.291C728.042 102.276 729.347 101.696 730.797 101.551ZM735.582 111.699L732.972 109.09C733.262 108.8 733.407 108.365 733.552 107.93H737.322C737.032 109.38 736.452 110.685 735.582 111.699Z" fill="white"/>
<path d="M772.266 123.297C780.995 123.297 788.071 116.222 788.071 107.495C788.071 98.7681 780.995 91.6932 772.266 91.6932C763.538 91.6932 756.461 98.7681 756.461 107.495C756.461 116.222 763.538 123.297 772.266 123.297Z" fill="#3B5266"/>
<path d="M761.536 107.495C761.536 103.291 763.856 99.8118 767.336 97.9271L766.756 97.0573C762.986 99.0869 760.376 103.001 760.376 107.495C760.376 111.989 762.986 115.904 766.756 117.933L767.336 117.063C763.856 115.179 761.536 111.7 761.536 107.495Z" fill="#76C1AA"/>
<path d="M777.631 97.0573L777.196 97.9271C780.676 99.6668 783.141 103.291 783.141 107.495C783.141 111.7 780.676 115.324 777.196 117.063L777.631 117.933C781.401 115.904 784.011 111.989 784.011 107.495C784.011 103.001 781.401 98.9419 777.631 97.0573Z" fill="#76C1AA"/>
<path opacity="0.3" d="M772.266 109.815C773.548 109.815 774.586 108.776 774.586 107.495C774.586 106.214 773.548 105.176 772.266 105.176C770.985 105.176 769.946 106.214 769.946 107.495C769.946 108.776 770.985 109.815 772.266 109.815Z" fill="white"/>
<path opacity="0.3" d="M773.572 105.755L776.182 103.146C775.167 102.131 773.862 101.551 772.267 101.551V105.321C772.847 105.321 773.282 105.466 773.572 105.755Z" fill="white"/>
<path opacity="0.3" d="M774.442 107.35H778.212C778.212 105.901 777.632 104.451 776.617 103.436L774.007 106.046C774.297 106.48 774.442 106.915 774.442 107.35Z" fill="white"/>
<path opacity="0.3" d="M773.862 109.09L776.472 111.699C777.487 110.685 778.067 109.38 778.067 107.93H774.297C774.297 108.365 774.152 108.8 773.862 109.09Z" fill="white"/>
<path opacity="0.3" d="M770.817 109.38L768.207 111.989C769.222 112.859 770.382 113.439 771.832 113.439V109.67C771.397 109.67 771.107 109.525 770.817 109.38Z" fill="white"/>
<path opacity="0.3" d="M772.412 109.815V113.584C773.862 113.584 775.167 113.004 776.037 112.134L773.427 109.525C773.137 109.67 772.702 109.67 772.412 109.815Z" fill="white"/>
<path opacity="0.3" d="M770.237 106.335L767.627 103.726C766.757 104.741 766.177 106.045 766.177 107.495H769.947C769.947 107.06 770.092 106.625 770.237 106.335Z" fill="white"/>
<path opacity="0.3" d="M769.947 107.93H766.177C766.322 109.38 766.902 110.54 767.772 111.554L770.382 108.945C770.237 108.655 770.092 108.365 769.947 107.93Z" fill="white"/>
<path opacity="0.3" d="M771.831 105.321V101.551C770.381 101.696 769.077 102.276 768.062 103.146L770.672 105.755C770.962 105.611 771.396 105.321 771.831 105.321Z" fill="white"/>
<path d="M772.267 100.682C771.832 100.682 771.252 100.682 770.817 100.827C767.627 101.406 765.307 104.161 765.307 107.495C765.307 111.265 768.352 114.309 772.122 114.309C774.007 114.309 775.747 113.584 776.907 112.279C778.212 110.975 778.937 109.38 778.937 107.495C779.082 103.726 776.037 100.682 772.267 100.682ZM774.442 107.35C774.442 106.915 774.297 106.48 774.007 106.046L776.617 103.436C777.487 104.451 778.067 105.756 778.212 107.35H774.442ZM768.207 111.989L770.817 109.38C771.107 109.525 771.397 109.67 771.832 109.815V113.584C770.382 113.439 769.222 112.859 768.207 111.989ZM773.572 105.756C773.282 105.466 772.847 105.321 772.267 105.321V101.551C773.717 101.551 775.167 102.131 776.182 103.146L773.572 105.756ZM769.947 107.35H766.177C766.177 105.901 766.757 104.596 767.627 103.581L770.237 106.19C770.092 106.625 769.947 107.06 769.947 107.35ZM769.947 107.93C770.092 108.365 770.237 108.655 770.382 108.945L767.772 111.554C766.902 110.54 766.322 109.38 766.177 107.93H769.947ZM772.267 109.38C771.252 109.38 770.382 108.51 770.382 107.495C770.382 106.48 771.252 105.611 772.267 105.611C772.992 105.611 773.572 106.046 773.862 106.625V106.77C774.007 106.915 774.007 107.205 774.007 107.495C774.007 107.785 774.007 107.93 773.862 108.22C773.717 108.945 772.992 109.38 772.267 109.38ZM772.412 109.815C772.847 109.815 773.137 109.67 773.427 109.525L776.037 112.134C775.022 113.004 773.717 113.584 772.412 113.584V109.815ZM771.832 101.551V105.321C771.397 105.466 770.962 105.611 770.672 105.901L768.062 103.146C769.077 102.276 770.382 101.696 771.832 101.551ZM776.472 111.699L773.862 109.09C774.152 108.8 774.297 108.365 774.442 107.93H778.212C778.067 109.38 777.487 110.685 776.472 111.699Z" fill="white"/>
<path d="M813.156 123.297C821.885 123.297 828.961 116.222 828.961 107.495C828.961 98.7681 821.885 91.6932 813.156 91.6932C804.428 91.6932 797.352 98.7681 797.352 107.495C797.352 116.222 804.428 123.297 813.156 123.297Z" fill="#3B5266"/>
<path d="M802.427 107.495C802.427 103.291 804.747 99.8118 808.227 97.9271L807.647 97.0573C803.877 99.0869 801.267 103.001 801.267 107.495C801.267 111.989 803.877 115.904 807.647 117.933L808.227 117.063C804.892 115.179 802.427 111.7 802.427 107.495Z" fill="#76C1AA"/>
<path d="M818.667 97.0573L818.231 97.9271C821.711 99.6668 824.176 103.291 824.176 107.495C824.176 111.7 821.711 115.324 818.231 117.063L818.667 117.933C822.436 115.904 825.046 111.989 825.046 107.495C824.901 103.001 822.436 98.9419 818.667 97.0573Z" fill="#76C1AA"/>
<path opacity="0.3" d="M813.156 109.815C814.438 109.815 815.476 108.776 815.476 107.495C815.476 106.214 814.438 105.176 813.156 105.176C811.875 105.176 810.836 106.214 810.836 107.495C810.836 108.776 811.875 109.815 813.156 109.815Z" fill="white"/>
<path opacity="0.3" d="M814.607 105.755L817.217 103.146C816.202 102.131 814.897 101.551 813.302 101.551V105.321C813.737 105.321 814.172 105.466 814.607 105.755Z" fill="white"/>
<path opacity="0.3" d="M815.332 107.35H819.102C819.102 105.901 818.522 104.451 817.507 103.436L814.897 106.046C815.187 106.48 815.332 106.915 815.332 107.35Z" fill="white"/>
<path opacity="0.3" d="M814.752 109.09L817.362 111.699C818.377 110.685 818.957 109.38 818.957 107.93H815.187C815.332 108.365 815.042 108.8 814.752 109.09Z" fill="white"/>
<path opacity="0.3" d="M811.852 109.38L809.242 111.989C810.257 112.859 811.417 113.439 812.867 113.439V109.67C812.432 109.67 811.997 109.525 811.852 109.38Z" fill="white"/>
<path opacity="0.3" d="M813.302 109.815V113.584C814.752 113.584 816.057 113.004 816.927 112.134L814.317 109.525C814.027 109.67 813.737 109.67 813.302 109.815Z" fill="white"/>
<path opacity="0.3" d="M811.272 106.335L808.662 103.726C807.792 104.741 807.212 106.045 807.212 107.495H810.982C810.837 107.06 810.982 106.625 811.272 106.335Z" fill="white"/>
<path opacity="0.3" d="M810.982 107.93H807.212C807.357 109.38 807.937 110.54 808.807 111.554L811.417 108.945C811.127 108.655 810.982 108.365 810.982 107.93Z" fill="white"/>
<path opacity="0.3" d="M812.722 105.321V101.551C811.272 101.696 809.967 102.276 808.952 103.146L811.562 105.755C811.852 105.611 812.287 105.321 812.722 105.321Z" fill="white"/>
<path d="M813.302 100.682C812.867 100.682 812.287 100.682 811.852 100.827C808.662 101.406 806.342 104.161 806.342 107.495C806.342 111.265 809.387 114.309 813.157 114.309C815.042 114.309 816.782 113.584 817.942 112.279C819.247 110.975 819.972 109.38 819.972 107.495C820.117 103.726 817.072 100.682 813.302 100.682ZM815.332 107.35C815.332 106.915 815.187 106.48 814.897 106.046L817.507 103.436C818.377 104.451 818.957 105.756 819.102 107.35H815.332ZM809.097 111.989L811.707 109.38C811.997 109.525 812.287 109.67 812.722 109.815V113.584C811.417 113.439 810.112 112.859 809.097 111.989ZM814.607 105.756C814.317 105.466 813.882 105.321 813.302 105.321V101.551C814.752 101.551 816.202 102.131 817.217 103.146L814.607 105.756ZM810.837 107.35H807.212C807.212 105.901 807.792 104.596 808.662 103.581L811.272 106.19C810.982 106.625 810.837 107.06 810.837 107.35ZM810.982 107.93C811.127 108.365 811.272 108.655 811.417 108.945L808.807 111.554C807.937 110.54 807.357 109.38 807.212 107.93H810.982ZM813.157 109.38C812.142 109.38 811.272 108.51 811.272 107.495C811.272 106.48 812.142 105.611 813.157 105.611C813.882 105.611 814.462 106.046 814.752 106.625V106.77C814.897 106.915 814.897 107.205 814.897 107.495C814.897 107.785 814.897 107.93 814.752 108.22C814.607 108.945 813.882 109.38 813.157 109.38ZM813.302 109.815C813.737 109.815 814.027 109.67 814.317 109.525L816.927 112.134C815.912 113.004 814.607 113.584 813.302 113.584V109.815ZM812.722 101.551V105.321C812.287 105.466 811.852 105.611 811.562 105.901L808.952 103.291C809.967 102.276 811.272 101.696 812.722 101.551ZM817.362 111.699L814.752 109.09C815.042 108.8 815.187 108.365 815.332 107.93H819.102C818.957 109.38 818.377 110.685 817.362 111.699Z" fill="white"/>
<path d="M854.191 123.297C862.92 123.297 869.996 116.222 869.996 107.495C869.996 98.7681 862.92 91.6932 854.191 91.6932C845.462 91.6932 838.386 98.7681 838.386 107.495C838.386 116.222 845.462 123.297 854.191 123.297Z" fill="#3B5266"/>
<path d="M843.461 107.495C843.461 103.291 845.781 99.8118 849.261 97.9271L848.681 97.0573C844.911 99.0869 842.301 103.001 842.301 107.495C842.301 111.989 844.911 115.904 848.681 117.933L849.261 117.063C845.781 115.179 843.461 111.7 843.461 107.495Z" fill="#76C1AA"/>
<path d="M859.556 97.0573L859.121 97.9271C862.601 99.6668 865.066 103.291 865.066 107.495C865.066 111.7 862.601 115.324 859.121 117.063L859.556 117.933C863.326 115.904 865.936 111.989 865.936 107.495C865.936 103.001 863.326 98.9419 859.556 97.0573Z" fill="#76C1AA"/>
<path opacity="0.3" d="M854.191 109.815C855.472 109.815 856.511 108.776 856.511 107.495C856.511 106.214 855.472 105.176 854.191 105.176C852.91 105.176 851.871 106.214 851.871 107.495C851.871 108.776 852.91 109.815 854.191 109.815Z" fill="white"/>
<path opacity="0.3" d="M855.496 105.755L858.106 103.146C857.091 102.131 855.786 101.551 854.191 101.551V105.321C854.771 105.321 855.206 105.466 855.496 105.755Z" fill="white"/>
<path opacity="0.3" d="M856.367 107.35H860.137C860.137 105.901 859.557 104.451 858.542 103.436L855.932 106.046C856.222 106.48 856.367 106.915 856.367 107.35Z" fill="white"/>
<path opacity="0.3" d="M855.786 109.09L858.396 111.699C859.411 110.685 859.991 109.38 859.991 107.93H856.221C856.221 108.365 856.076 108.8 855.786 109.09Z" fill="white"/>
<path opacity="0.3" d="M852.741 109.38L850.131 111.989C851.146 112.859 852.306 113.439 853.756 113.439V109.67C853.321 109.67 853.031 109.525 852.741 109.38Z" fill="white"/>
<path opacity="0.3" d="M854.191 109.815V113.584C855.641 113.584 856.946 113.004 857.816 112.134L855.206 109.525C855.061 109.67 854.626 109.67 854.191 109.815Z" fill="white"/>
<path opacity="0.3" d="M852.161 106.335L849.552 103.726C848.682 104.741 848.102 106.045 848.102 107.495H851.871C851.871 107.06 852.016 106.625 852.161 106.335Z" fill="white"/>
<path opacity="0.3" d="M851.871 107.93H848.102C848.247 109.38 848.827 110.54 849.697 111.554L852.306 108.945C852.161 108.655 851.871 108.365 851.871 107.93Z" fill="white"/>
<path opacity="0.3" d="M853.756 105.321V101.551C852.306 101.696 851.001 102.276 849.986 103.146L852.596 105.755C852.886 105.611 853.321 105.321 853.756 105.321Z" fill="white"/>
<path d="M854.191 100.682C853.756 100.682 853.176 100.682 852.741 100.827C849.552 101.406 847.231 104.161 847.231 107.495C847.231 111.265 850.276 114.309 854.046 114.309C855.931 114.309 857.671 113.584 858.831 112.279C860.136 110.975 860.861 109.38 860.861 107.495C861.006 103.726 857.961 100.682 854.191 100.682ZM856.366 107.35C856.366 106.915 856.221 106.48 855.931 106.046L858.541 103.436C859.411 104.451 859.991 105.756 860.136 107.35H856.366ZM850.131 111.989L852.741 109.38C853.031 109.525 853.321 109.67 853.756 109.815V113.584C852.306 113.439 851.001 112.859 850.131 111.989ZM855.496 105.756C855.206 105.466 854.771 105.321 854.191 105.321V101.551C855.641 101.551 857.091 102.131 858.106 103.146L855.496 105.756ZM851.871 107.35H848.101C848.101 105.901 848.681 104.596 849.551 103.581L852.161 106.19C852.016 106.625 851.871 107.06 851.871 107.35ZM851.871 107.93C852.016 108.365 852.161 108.655 852.306 108.945L849.696 111.554C848.826 110.54 848.246 109.38 848.101 107.93H851.871ZM854.191 109.38C853.176 109.38 852.306 108.51 852.306 107.495C852.306 106.48 853.176 105.611 854.191 105.611C854.916 105.611 855.496 106.046 855.786 106.625V106.77C855.931 106.915 855.931 107.205 855.931 107.495C855.931 107.785 855.931 107.93 855.786 108.22C855.496 108.945 854.916 109.38 854.191 109.38ZM854.191 109.815C854.626 109.815 854.916 109.67 855.206 109.525L857.816 112.134C856.801 113.004 855.496 113.584 854.191 113.584V109.815ZM853.756 101.551V105.321C853.321 105.466 852.886 105.611 852.596 105.901L849.986 103.291C850.856 102.276 852.161 101.696 853.756 101.551ZM858.396 111.699L855.786 109.09C856.076 108.8 856.221 108.365 856.366 107.93H860.136C859.991 109.38 859.266 110.685 858.396 111.699Z" fill="white"/>
<path d="M895.081 123.297C903.81 123.297 910.886 116.222 910.886 107.495C910.886 98.7681 903.81 91.6932 895.081 91.6932C886.352 91.6932 879.276 98.7681 879.276 107.495C879.276 116.222 886.352 123.297 895.081 123.297Z" fill="#3B5266"/>
<path d="M884.351 107.495C884.351 103.291 886.671 99.8118 890.151 97.9271L889.571 97.0573C885.801 99.0869 883.191 103.001 883.191 107.495C883.191 111.989 885.801 115.904 889.571 117.933L890.151 117.063C886.671 115.179 884.351 111.7 884.351 107.495Z" fill="#76C1AA"/>
<path d="M900.446 97.0573L900.011 97.9271C903.491 99.6668 905.956 103.291 905.956 107.495C905.956 111.7 903.491 115.324 900.011 117.063L900.446 117.933C904.216 115.904 906.826 111.989 906.826 107.495C906.826 103.001 904.216 98.9419 900.446 97.0573Z" fill="#76C1AA"/>
<path opacity="0.3" d="M895.081 109.815C896.362 109.815 897.401 108.776 897.401 107.495C897.401 106.214 896.362 105.176 895.081 105.176C893.799 105.176 892.761 106.214 892.761 107.495C892.761 108.776 893.799 109.815 895.081 109.815Z" fill="white"/>
<path opacity="0.3" d="M896.386 105.755L898.996 103.146C897.981 102.131 896.676 101.551 895.081 101.551V105.321C895.661 105.321 896.096 105.466 896.386 105.755Z" fill="white"/>
<path opacity="0.3" d="M897.256 107.35H901.026C901.026 105.901 900.446 104.451 899.431 103.436L896.821 106.046C897.111 106.48 897.256 106.915 897.256 107.35Z" fill="white"/>
<path opacity="0.3" d="M896.676 109.09L899.286 111.699C900.301 110.685 900.881 109.38 900.881 107.93H897.111C897.111 108.365 896.966 108.8 896.676 109.09Z" fill="white"/>
<path opacity="0.3" d="M893.631 109.38L891.021 111.989C892.036 112.859 893.196 113.439 894.646 113.439V109.67C894.211 109.67 893.921 109.525 893.631 109.38Z" fill="white"/>
<path opacity="0.3" d="M895.226 109.815V113.584C896.676 113.584 897.981 113.004 898.851 112.134L896.241 109.525C895.951 109.67 895.516 109.67 895.226 109.815Z" fill="white"/>
<path opacity="0.3" d="M893.051 106.335L890.441 103.726C889.571 104.741 888.991 106.045 888.991 107.495H892.761C892.761 107.06 892.906 106.625 893.051 106.335Z" fill="white"/>
<path opacity="0.3" d="M892.761 107.93H888.991C889.136 109.38 889.716 110.54 890.586 111.554L893.196 108.945C893.051 108.655 892.906 108.365 892.761 107.93Z" fill="white"/>
<path opacity="0.3" d="M894.646 105.321V101.551C893.196 101.696 891.891 102.276 890.876 103.146L893.486 105.755C893.776 105.611 894.211 105.321 894.646 105.321Z" fill="white"/>
<path d="M895.081 100.682C894.646 100.682 894.066 100.682 893.631 100.827C890.441 101.406 888.121 104.161 888.121 107.495C888.121 111.265 891.166 114.309 894.936 114.309C896.821 114.309 898.561 113.584 899.721 112.279C901.026 110.975 901.751 109.38 901.751 107.495C901.896 103.726 898.851 100.682 895.081 100.682ZM897.256 107.35C897.256 106.915 897.111 106.48 896.821 106.046L899.431 103.436C900.301 104.451 900.881 105.756 901.026 107.35H897.256ZM891.021 111.989L893.631 109.38C893.921 109.525 894.211 109.67 894.646 109.815V113.584C893.196 113.439 892.036 112.859 891.021 111.989ZM896.386 105.756C896.096 105.466 895.661 105.321 895.081 105.321V101.551C896.531 101.551 897.981 102.131 898.996 103.146L896.386 105.756ZM892.761 107.35H888.991C888.991 105.901 889.571 104.596 890.441 103.581L893.051 106.19C892.906 106.625 892.761 107.06 892.761 107.35ZM892.761 107.93C892.906 108.365 893.051 108.655 893.196 108.945L890.586 111.554C889.716 110.54 889.136 109.38 888.991 107.93H892.761ZM895.081 109.38C894.066 109.38 893.196 108.51 893.196 107.495C893.196 106.48 894.066 105.611 895.081 105.611C895.806 105.611 896.386 106.046 896.676 106.625V106.77C896.821 106.915 896.821 107.205 896.821 107.495C896.821 107.785 896.821 107.93 896.676 108.22C896.531 108.945 895.806 109.38 895.081 109.38ZM895.226 109.815C895.661 109.815 895.951 109.67 896.241 109.525L898.851 112.134C897.836 113.004 896.531 113.584 895.226 113.584V109.815ZM894.646 101.551V105.321C894.211 105.466 893.776 105.611 893.486 105.901L890.876 103.291C891.891 102.276 893.196 101.696 894.646 101.551ZM899.286 111.699L896.676 109.09C896.966 108.8 897.111 108.365 897.256 107.93H901.026C900.881 109.38 900.301 110.685 899.286 111.699Z" fill="white"/>
<path d="M91.385 93.5779C91.385 93.4329 91.53 93.4329 91.385 93.5779C91.53 93.4329 91.53 93.4329 91.385 93.5779C91.53 93.5779 92.545 93.4329 93.27 92.853C93.995 91.9832 94.2849 90.5334 93.7049 89.8085C93.4149 89.5186 92.98 89.3736 92.545 89.3736C92.11 89.5186 91.82 89.6636 91.675 90.0985C91.675 90.2435 91.675 90.2435 91.675 90.3884C91.82 90.3884 91.82 90.3884 91.965 90.3884C92.11 90.2435 92.255 90.2434 92.4 90.2434C92.545 90.2434 92.545 90.3884 92.6899 90.5334C92.6899 90.6784 92.69 90.8233 92.545 90.9683L92.4 91.1133C92.11 91.1133 91.675 90.8234 91.24 90.3884C90.805 89.9535 90.225 89.6636 89.79 89.3736C89.065 89.0837 86.89 88.6488 85.44 89.6636C85.44 89.6636 84.57 90.3884 84.425 90.9683C84.135 91.5482 84.135 92.2731 84.28 92.708C84.135 92.853 83.99 92.998 83.99 93.2879C83.99 93.7228 84.425 94.0128 85.15 94.1577C85.15 94.3027 85.005 94.3027 85.005 94.4477C85.005 94.8826 85.585 95.3175 86.31 95.3175C86.89 95.3175 87.325 95.1725 87.47 94.8826C87.615 95.1725 88.05 95.3175 88.63 95.3175C89.355 95.3175 89.935 94.8826 89.935 94.4477C89.935 94.3027 89.935 94.1577 89.79 94.1577C90.225 94.1577 90.515 94.0128 90.805 93.7228C90.805 93.7228 90.805 93.7228 90.95 93.7228C90.805 93.5779 91.095 93.5779 91.385 93.5779ZM92.4 92.853C92.255 92.998 91.965 92.998 91.82 92.998C91.965 92.1281 91.385 91.2583 91.24 90.8234C91.53 91.1133 91.82 91.2583 92.11 91.4033C92.255 91.6932 92.545 92.1282 92.4 92.853ZM90.805 93.2879C90.805 93.143 90.66 92.853 90.515 92.5631C90.225 91.9832 89.645 91.1133 88.195 90.6784C86.31 90.0985 85.44 90.3885 85.005 90.6784C85.005 90.6784 85.005 90.6784 85.15 90.5334C85.295 90.3884 85.44 90.2435 85.585 90.0985C86.165 89.8085 87.18 89.8085 88.63 90.2434C90.515 90.8233 91.095 92.1281 91.24 92.708C91.24 92.853 91.385 93.143 91.385 93.2879C91.385 93.2879 91.385 93.2879 91.24 93.2879C90.95 93.143 90.95 93.2879 90.805 93.2879ZM88.05 91.4033C87.76 91.4033 87.615 91.5482 87.47 91.6932C87.18 91.4032 86.89 91.2583 86.31 91.2583C86.165 91.2583 86.02 91.2583 85.875 91.2583C86.31 91.1133 86.89 91.1133 87.47 91.1133C87.615 91.4033 87.76 91.4033 88.05 91.4033ZM86.31 91.8382C86.745 91.8382 87.18 92.1281 87.18 92.2731C87.18 92.4181 87.035 92.5631 86.89 92.5631H86.745C86.6 92.5631 86.455 92.5631 86.31 92.5631C85.875 92.5631 85.44 92.2731 85.44 92.1282C85.44 91.9832 85.73 91.8382 86.31 91.8382ZM86.89 92.998H87.035C87.18 92.998 87.18 92.998 87.325 92.998C87.905 92.998 88.195 93.2879 88.195 93.4329C88.195 93.5778 87.76 93.8678 87.325 93.8678C86.745 93.8678 86.455 93.5778 86.455 93.4329C86.455 93.2879 86.6 93.1429 86.89 92.998ZM87.615 92.2731C87.615 92.1281 88.05 91.8382 88.485 91.8382C88.63 91.8382 88.63 91.8382 88.775 91.8382C89.065 91.8382 89.355 92.1281 89.355 92.2731C89.355 92.4181 89.21 92.563 88.92 92.708C88.775 92.708 88.63 92.708 88.485 92.708C87.905 92.708 87.615 92.4181 87.615 92.2731ZM84.86 92.5631C84.86 92.4181 84.86 92.4181 84.86 92.2731C84.86 92.1281 85.005 91.9832 85.15 91.8382C85.005 91.9832 85.005 92.1281 85.005 92.2731C85.005 92.4181 85.005 92.5631 85.15 92.5631C85.005 92.5631 85.005 92.5631 84.86 92.5631ZM84.28 93.4329C84.28 93.2879 84.425 93.2879 84.57 93.1429C84.715 93.1429 84.86 92.998 85.005 92.998C85.15 92.998 85.15 92.998 85.295 92.998C85.875 92.998 86.165 93.2879 86.165 93.4329C86.165 93.5778 86.02 93.5779 86.02 93.7228C85.875 93.8678 85.585 93.8678 85.295 93.8678C84.57 93.8678 84.28 93.5778 84.28 93.4329ZM86.165 95.0276C85.585 95.0276 85.295 94.8826 85.295 94.5926C85.295 94.4477 85.73 94.1577 86.165 94.1577C86.455 94.1577 86.6 94.1578 86.89 94.3028C86.89 94.3028 87.035 94.4477 87.035 94.5926C87.035 94.7376 86.6 95.0276 86.165 95.0276ZM88.485 95.0276C87.905 95.0276 87.615 94.7376 87.615 94.5926C87.615 94.5926 87.615 94.4477 87.76 94.4477C87.905 94.3027 88.195 94.1577 88.485 94.1577C88.63 94.1577 88.775 94.1577 88.92 94.1577C89.21 94.3027 89.355 94.4477 89.355 94.5926C89.355 94.7376 88.92 95.0276 88.485 95.0276ZM90.37 93.5779C90.225 93.7229 89.935 93.8678 89.5 93.8678C89.355 93.8678 89.21 93.8678 89.065 93.8678C88.775 93.7228 88.63 93.5778 88.63 93.4329C88.63 93.2879 88.775 93.1429 89.065 92.998C89.21 92.998 89.355 92.998 89.5 92.998C89.645 92.998 89.645 92.998 89.79 92.998C90.08 92.998 90.37 93.143 90.37 93.5779C90.37 93.4329 90.37 93.4329 90.37 93.5779Z" fill="white"/>
<path d="M101.825 88.9389V78.3559C101.825 78.2109 101.825 78.0659 101.68 78.0659C101.535 78.0659 101.39 78.0659 101.39 78.0659L100.23 78.6458V74.8765C100.23 74.7315 100.23 74.5865 100.085 74.5865C99.9399 74.5865 99.7949 74.5865 99.7949 74.5865L94.5749 77.9209H94.4299C93.5599 78.2108 92.6899 78.3559 91.9649 78.3559C89.4999 78.3559 88.6299 76.7611 88.6299 76.7611C88.6299 76.6162 88.4849 76.6162 88.3399 76.6162C88.1949 76.6162 88.0499 76.7611 88.0499 76.7611C88.0499 76.7611 87.1799 78.3559 84.715 78.3559C83.99 78.3559 83.12 78.2108 82.25 77.9209L77.03 74.5865C76.885 74.5865 76.74 74.5865 76.595 74.5865C76.45 74.5865 76.45 74.7315 76.45 74.8765V78.6458L75.435 78.0659C75.29 78.0659 75.145 78.0659 75.145 78.0659C75 78.0659 75 78.2109 75 78.3559V88.9389C75 89.0838 75 91.6933 77.175 93.7229C79.06 95.6076 81.96 96.6224 85.875 96.6224C85.875 96.6224 85.875 96.6224 86.02 96.6224C87.47 97.0573 88.3399 97.3473 88.3399 98.652C88.3399 98.797 88.4849 98.9419 88.6299 98.9419C88.7749 98.9419 88.92 98.797 88.92 98.652C88.92 97.4922 89.7899 97.0573 91.2399 96.6224H91.3849C95.2999 96.6224 98.1999 95.6076 100.085 93.7229C101.825 91.5483 101.825 89.0838 101.825 88.9389ZM83.265 85.7494C83.7 85.6045 83.845 84.7346 83.845 84.7346C83.845 84.7346 84.57 85.1696 85.005 85.0246C85.005 85.1696 85.005 85.6045 85.005 85.6045C85.005 85.6045 84.86 85.8944 85.005 86.1843C85.15 86.3293 85.15 86.6193 85.15 86.9092C84.86 86.9092 84.715 86.9092 84.425 86.9092C83.99 86.9092 83.555 86.9092 83.265 86.9092C83.265 86.3293 83.265 86.1844 83.265 85.7494ZM91.3849 85.1695H92.2549C92.2549 85.6044 92.2549 86.0394 92.3999 86.7643L91.3849 86.6192C91.3849 86.0394 91.3849 85.6044 91.3849 85.1695ZM98.4899 86.4743C97.9099 87.0542 97.0399 87.3441 96.0249 87.3441C95.7349 86.6192 95.5899 85.8944 95.5899 85.3145L99.5049 83.14C99.5049 83.5749 99.5049 85.4595 98.4899 86.4743ZM77.03 83.2849L80.945 85.4595C80.945 86.0394 80.8 86.7643 80.51 87.4891C79.495 87.4891 78.77 87.1991 78.19 86.6192C77.03 85.4595 77.03 83.5748 77.03 83.2849ZM101.1 78.9357V85.4595L99.3599 86.4743C100.23 85.0246 100.23 83.4299 100.23 83.14V79.3706L101.1 78.9357ZM99.5049 78.9357L96.6049 80.6754C96.4599 80.5304 96.0249 79.9506 95.0099 78.3559L99.5049 75.4564V78.9357ZM91.8199 78.9357C92.5449 78.9357 93.4149 78.7908 94.2849 78.5008C95.2999 79.9505 95.7349 80.6754 96.0249 80.9654C95.5899 81.6902 94.2849 84.1547 95.2999 87.1992C94.8649 86.7642 93.8499 86.6192 92.8349 86.6192C92.6899 85.8944 92.6899 85.4595 92.6899 85.0246H94.2849C94.4299 85.0246 94.4299 84.7346 94.4299 84.4447V82.9949C94.4299 81.8352 93.8499 81.8352 93.8499 81.8352C93.8499 81.8352 93.4149 81.8352 93.2699 81.2553C93.1249 80.6754 92.6899 80.2405 92.2549 80.2405C91.8199 80.2405 90.9499 80.5305 90.3699 80.9654C89.9349 81.1103 89.9349 81.4003 89.9349 81.8352C89.7899 82.85 89.4999 82.7051 89.4999 82.7051C89.3549 82.7051 89.2099 82.85 89.2099 83.14V84.5897C89.2099 84.8796 89.3549 85.1695 89.4999 85.1695H91.0949C91.0949 85.6044 91.0949 86.0394 90.9499 86.7643C89.9349 86.7643 89.0649 87.0542 88.4849 87.4891V77.776C88.9199 78.2109 90.0799 78.9357 91.8199 78.9357ZM87.76 77.9209V87.1992C87.325 86.9092 86.5999 86.7643 85.7299 86.7643C85.5849 86.3293 85.5849 85.1696 85.7299 84.8796C86.4549 84.7347 86.4549 84.0098 86.4549 83.4299C86.4549 82.995 86.31 81.4003 86.31 81.4003L86.745 81.2553C86.89 81.2553 86.8899 81.2553 86.8899 81.1103C86.8899 80.9653 86.8899 80.8203 86.8899 80.8203L86.4549 80.6754C86.3099 80.5304 86.165 80.3854 86.02 80.3854C85.875 80.3854 85.585 80.3855 85.44 80.6754C85.295 80.5304 85.005 80.6754 84.86 80.6754C84.86 80.6754 84.86 81.4003 85.585 81.2553L85.7299 83.14C85.7299 83.14 85.73 83.5749 85.295 83.4299C84.86 83.2849 83.99 82.995 83.41 83.14C83.12 83.2849 82.685 83.4299 82.395 84.1548C82.105 84.8796 82.54 84.5897 82.54 84.5897L82.975 84.2997C82.975 84.2997 83.265 84.8796 82.975 85.3145C82.685 85.6045 82.83 85.8944 82.83 85.8944C82.83 85.8944 82.975 86.6193 82.975 86.9092C82.25 86.9092 81.67 87.1991 81.235 87.3441C82.105 84.2997 80.945 81.8352 80.51 81.1103C80.8 80.8204 81.235 80.0955 82.25 78.6458C83.12 78.9357 83.99 79.0807 84.715 79.0807C86.165 78.9358 87.035 78.5008 87.76 77.9209ZM77.03 75.4564L81.525 78.3559C80.655 79.8056 80.075 80.3855 79.93 80.6754L77.03 79.0807V75.4564ZM76.305 79.3706V83.14C76.305 83.2849 76.305 85.0246 77.175 86.4743L75.435 85.4595V78.9357L76.305 79.3706ZM75.58 89.9537L79.93 92.4181C80.365 93.5779 81.09 94.3028 82.25 95.3176C82.54 95.6075 82.975 95.7525 83.265 95.8975C80.655 95.6076 78.625 94.7377 77.32 93.288C76.16 92.1282 75.725 90.8235 75.58 89.9537ZM88.195 97.3472C87.615 96.4774 86.5999 96.1875 85.44 95.8975C84.425 95.6076 83.41 95.3176 82.54 94.5927C80.365 92.998 79.64 91.5484 80.8 88.214H95.5899C96.7499 91.5484 96.0249 92.8531 93.8499 94.5927C92.9799 95.1726 91.9649 95.6076 90.9499 95.7526C89.7899 96.1875 88.775 96.4774 88.195 97.3472ZM99.2149 93.288C97.7649 94.7377 95.7349 95.6076 93.1249 95.8975C93.5599 95.7525 93.8499 95.4626 94.1399 95.3176C95.2999 94.4478 96.1699 93.578 96.4599 92.5632C96.4599 92.5632 96.4599 92.5632 96.6049 92.5632L100.955 90.0986C100.81 90.8235 100.375 92.1282 99.2149 93.288Z" fill="white"/>
<path d="M88.1948 76.1814C90.2248 76.1814 91.6748 75.1665 91.6748 73.8617C91.6748 72.5569 90.0798 71.5421 88.1948 71.5421C86.1649 71.5421 84.7148 72.5569 84.7148 73.8617C84.7148 75.1665 86.1649 76.1814 88.1948 76.1814ZM88.1948 72.557C89.2098 72.557 89.9348 72.9919 89.9348 73.4268C89.9348 73.8617 89.4998 74.1516 88.9198 74.2966C88.3398 74.4416 88.4848 74.7316 88.1948 74.8766C87.9048 74.7316 88.0498 74.4416 87.4698 74.2966C86.8898 74.1516 86.4548 73.8617 86.4548 73.4268C86.4548 72.9919 87.1798 72.557 88.1948 72.557Z" fill="white"/>
</svg>
