<svg
  class="tracto-cama-baja transport-item is-hidden"
  width="847"
  height="112"
  viewBox="0 0 847 112"
  fill="none"
  xmlns="http://www.w3.org/2000/svg"
>
<path
    d="M150.364 77.0758V79.8303H129.629V74.7562H120.349V10.2436H116.434V0.820435H111.36V9.95368H109.475V66.7828H105.415V15.7526H61.9147L62.2047 22.7112H67.5697L54.8098 53.4453H8.40997V85.6292H0V93.6026H7.97497V97.2269H138.474V93.3127H270.134V77.0758H150.364ZM86.2746 53.7353H68.1497L76.4147 23.5811H86.2746V53.7353Z"
    fill="#76C1AA"
  />
<path
    d="M202.564 57.7945H291.884L317.259 76.9308H845.781V89.5434H308.414L286.374 73.7414H202.564V57.7945Z"
    fill="#DCE9EF"
    stroke="#65819B"
    stroke-miterlimit="10"
  />

<g>
<path
      d="M31.4651 111.869C40.1939 111.869 47.27 104.794 47.27 96.0672C47.27 87.34 40.1939 80.2652 31.4651 80.2652C22.7362 80.2652 15.6602 87.34 15.6602 96.0672C15.6602 104.794 22.7362 111.869 31.4651 111.869Z"
      fill="#3B5266"
    />
<path
      d="M20.7352 96.0672C20.7352 91.863 23.0552 88.3836 26.5352 86.499L25.9552 85.6292C22.1852 87.6588 19.5752 91.573 19.5752 96.0672C19.5752 100.561 22.1852 104.476 25.9552 106.505L26.5352 105.635C23.2002 103.896 20.7352 100.271 20.7352 96.0672Z"
      fill="#76C1AA"
    />
<path
      d="M36.975 85.6292L36.54 86.499C40.02 88.2387 42.485 91.863 42.485 96.0672C42.485 100.271 40.02 103.896 36.54 105.635L36.975 106.505C40.745 104.476 43.355 100.561 43.355 96.0672C43.21 91.573 40.745 87.6588 36.975 85.6292Z"
      fill="#76C1AA"
    />
<path
      opacity="0.3"
      d="M31.465 98.3867C32.7463 98.3867 33.785 97.3482 33.785 96.0672C33.785 94.7861 32.7463 93.7476 31.465 93.7476C30.1837 93.7476 29.145 94.7861 29.145 96.0672C29.145 97.3482 30.1837 98.3867 31.465 98.3867Z"
      fill="white"
    />
<path
      opacity="0.3"
      d="M32.9153 94.3275L35.5253 91.718C34.5103 90.7032 33.2053 90.1233 31.6104 90.1233V93.8926C32.0453 93.8926 32.4803 94.0376 32.9153 94.3275Z"
      fill="white"
    />
<path
      opacity="0.3"
      d="M33.7851 96.0672H37.5551C37.5551 94.6174 36.9751 93.1677 35.9601 92.1529L33.3501 94.7624C33.4951 95.0524 33.6401 95.4873 33.7851 96.0672Z"
      fill="white"
    />
<path
      opacity="0.3"
      d="M33.0603 97.6619L35.6703 100.271C36.6853 99.2566 37.2653 97.9518 37.2653 96.5021H33.4953C33.6403 96.937 33.3503 97.3719 33.0603 97.6619Z"
      fill="white"
    />
<path
      opacity="0.3"
      d="M30.1603 97.9518L27.5503 100.561C28.5653 101.431 29.7253 102.011 31.1753 102.011V98.2418C30.7403 98.2418 30.4503 98.0968 30.1603 97.9518Z"
      fill="white"
    />
<path
      opacity="0.3"
      d="M31.6104 98.3867V102.156C33.0603 102.156 34.3653 101.576 35.2353 100.706L32.6253 98.0968C32.3353 98.2417 32.0453 98.3867 31.6104 98.3867Z"
      fill="white"
    />
<path
      opacity="0.3"
      d="M29.5803 94.9074L26.9703 92.2979C26.1003 93.3127 25.5203 94.6174 25.5203 96.0672H29.2903C29.1453 95.6322 29.2903 95.1973 29.5803 94.9074Z"
      fill="white"
    />
<path
      opacity="0.3"
      d="M29.2903 96.5021H25.5203C25.6653 97.9518 26.2453 99.1116 27.1153 100.126L29.7253 97.5169C29.4353 97.2269 29.2903 96.937 29.2903 96.5021Z"
      fill="white"
    />
<path
      opacity="0.3"
      d="M31.0302 93.8926V90.1233C29.5802 90.2683 28.2752 90.8482 27.2603 91.718L29.8702 94.3275C30.1602 94.1825 30.5952 93.8926 31.0302 93.8926Z"
      fill="white"
    />
<path
      d="M31.6101 89.2535C31.1751 89.2535 30.5951 89.2535 30.1601 89.3984C26.9701 89.9783 24.6501 92.7328 24.6501 96.0672C24.6501 99.8364 27.6951 102.881 31.4651 102.881C33.3501 102.881 35.0901 102.156 36.2501 100.851C37.5551 99.5465 38.2801 97.9518 38.2801 96.0672C38.4251 92.2979 35.3801 89.2535 31.6101 89.2535ZM33.7851 96.0672C33.7851 95.6322 33.6401 95.1973 33.3501 94.7624L35.9601 92.1529C36.8301 93.1677 37.4101 94.4725 37.5551 96.0672H33.7851ZM27.4051 100.561L30.0151 97.9518C30.3051 98.0968 30.5951 98.2417 31.0301 98.3867V102.156C29.7251 102.011 28.4201 101.431 27.4051 100.561ZM32.9151 94.3275C32.6251 94.0376 32.1901 93.8926 31.6101 93.8926V90.1233C33.0601 90.1233 34.5101 90.7032 35.5251 91.718L32.9151 94.3275ZM29.1451 96.0672H25.3751C25.3751 94.6174 25.9551 93.3127 26.8251 92.2979L29.4351 94.9074C29.2901 95.1973 29.1451 95.6322 29.1451 96.0672ZM29.2901 96.5021C29.4351 96.937 29.5801 97.2269 29.7251 97.5169L27.1151 100.126C26.2451 99.1116 25.6651 97.9518 25.5201 96.5021H29.2901ZM31.4651 97.9518C30.4501 97.9518 29.5801 97.082 29.5801 96.0672C29.5801 95.0524 30.4501 94.1825 31.4651 94.1825C32.1901 94.1825 32.7701 94.6174 33.0601 95.1973V95.3423C33.2051 95.4873 33.2051 95.7772 33.2051 96.0672C33.2051 96.3571 33.2051 96.5021 33.0601 96.792C32.9151 97.5169 32.1901 97.9518 31.4651 97.9518ZM31.6101 98.3867C32.0451 98.3867 32.3351 98.2417 32.6251 98.0968L35.2351 100.706C34.2201 101.576 32.9151 102.156 31.6101 102.156V98.3867ZM31.0301 90.1233V93.8926C30.5951 94.0376 30.1601 94.1825 29.8701 94.4725L27.2601 91.863C28.2751 90.8482 29.5801 90.2683 31.0301 90.1233ZM35.8151 100.271L33.2051 97.6619C33.4951 97.3719 33.6401 96.937 33.7851 96.5021H37.5551C37.2651 97.9518 36.6851 99.2565 35.8151 100.271Z"
      fill="white"
    />
</g>
<g>
<path
      d="M174.869 111.869C183.598 111.869 190.674 104.794 190.674 96.0672C190.674 87.34 183.598 80.2652 174.869 80.2652C166.141 80.2652 159.064 87.34 159.064 96.0672C159.064 104.794 166.141 111.869 174.869 111.869Z"
      fill="#3B5266"
    />
<path
      d="M164.139 96.0672C164.139 91.863 166.459 88.3836 169.939 86.499L169.359 85.6292C165.59 87.6588 162.979 91.573 162.979 96.0672C162.979 100.561 165.59 104.476 169.359 106.505L169.939 105.635C166.459 103.896 164.139 100.271 164.139 96.0672Z"
      fill="#76C1AA"
    />
<path
      d="M180.235 85.6292L179.8 86.499C183.28 88.2387 185.745 91.863 185.745 96.0672C185.745 100.271 183.28 103.896 179.8 105.635L180.235 106.505C184.005 104.476 186.615 100.561 186.615 96.0672C186.615 91.573 184.005 87.6588 180.235 85.6292Z"
      fill="#76C1AA"
    />
<path
      opacity="0.3"
      d="M174.869 98.3867C176.151 98.3867 177.189 97.3482 177.189 96.0672C177.189 94.7861 176.151 93.7476 174.869 93.7476C173.588 93.7476 172.549 94.7861 172.549 96.0672C172.549 97.3482 173.588 98.3867 174.869 98.3867Z"
      fill="white"
    />
<path
      opacity="0.3"
      d="M176.32 94.3275L178.93 91.718C177.915 90.7032 176.61 90.1233 175.015 90.1233V93.8926C175.45 93.8926 175.885 94.0376 176.32 94.3275Z"
      fill="white"
    />
<path
      opacity="0.3"
      d="M177.044 96.0672H180.814C180.814 94.6174 180.234 93.1677 179.219 92.1529L176.609 94.7624C176.899 95.0524 177.044 95.4873 177.044 96.0672Z"
      fill="white"
    />
<path
      opacity="0.3"
      d="M176.465 97.6619L179.075 100.271C180.09 99.2566 180.67 97.9518 180.67 96.5021H176.9C176.9 96.937 176.755 97.3719 176.465 97.6619Z"
      fill="white"
    />
<path
      opacity="0.3"
      d="M173.42 97.9518L170.81 100.561C171.825 101.431 172.985 102.011 174.435 102.011V98.2418C174.145 98.2418 173.71 98.0968 173.42 97.9518Z"
      fill="white"
    />
<path
      opacity="0.3"
      d="M175.015 98.3867V102.156C176.465 102.156 177.77 101.576 178.64 100.706L176.03 98.0968C175.74 98.2417 175.45 98.3867 175.015 98.3867Z"
      fill="white"
    />
<path
      opacity="0.3"
      d="M172.985 94.9074L170.375 92.2979C169.505 93.3127 168.925 94.6174 168.925 96.0672H172.695C172.55 95.6322 172.695 95.1973 172.985 94.9074Z"
      fill="white"
    />
<path
      opacity="0.3"
      d="M172.55 96.5021H168.78C168.925 97.9518 169.505 99.1116 170.375 100.126L172.985 97.5169C172.84 97.2269 172.695 96.937 172.55 96.5021Z"
      fill="white"
    />
<path
      opacity="0.3"
      d="M174.435 93.8926V90.1233C172.985 90.2683 171.68 90.8482 170.665 91.718L173.275 94.3275C173.565 94.1825 174 93.8926 174.435 93.8926Z"
      fill="white"
    />
<path
      d="M174.869 89.2535C174.434 89.2535 173.854 89.2535 173.419 89.3984C170.229 89.9783 167.909 92.7328 167.909 96.0672C167.909 99.8364 170.954 102.881 174.724 102.881C176.609 102.881 178.349 102.156 179.509 100.851C180.814 99.5465 181.539 97.9518 181.539 96.0672C181.684 92.2979 178.639 89.2535 174.869 89.2535ZM177.044 96.0672C177.044 95.6322 176.899 95.1973 176.609 94.7624L179.219 92.1529C180.089 93.1677 180.669 94.4725 180.814 96.0672H177.044ZM170.809 100.561L173.419 97.9518C173.709 98.0968 173.999 98.2417 174.434 98.3867V102.156C172.984 102.011 171.824 101.431 170.809 100.561ZM176.319 94.3275C176.029 94.0376 175.594 93.8926 175.014 93.8926V90.1233C176.464 90.1233 177.914 90.7032 178.929 91.718L176.319 94.3275ZM172.549 96.0672H168.779C168.779 94.6174 169.359 93.3127 170.229 92.2979L172.839 94.9074C172.694 95.1973 172.549 95.6322 172.549 96.0672ZM172.549 96.5021C172.694 96.937 172.839 97.2269 172.984 97.5169L170.374 100.126C169.504 99.1116 168.924 97.9518 168.779 96.5021H172.549ZM174.869 97.9518C173.854 97.9518 172.984 97.082 172.984 96.0672C172.984 95.0524 173.854 94.1825 174.869 94.1825C175.594 94.1825 176.174 94.6174 176.464 95.1973V95.3423C176.609 95.4873 176.609 95.7772 176.609 96.0672C176.609 96.3571 176.609 96.5021 176.464 96.792C176.319 97.5169 175.594 97.9518 174.869 97.9518ZM175.014 98.3867C175.449 98.3867 175.739 98.2417 176.029 98.0968L178.639 100.706C177.624 101.576 176.319 102.156 175.014 102.156V98.3867ZM174.434 90.1233V93.8926C173.999 94.0376 173.564 94.1825 173.274 94.4725L170.664 91.863C171.679 90.8482 172.984 90.2683 174.434 90.1233ZM179.074 100.271L176.464 97.6619C176.754 97.3719 176.899 96.937 177.044 96.5021H180.814C180.669 97.9518 180.089 99.2565 179.074 100.271Z"
      fill="white"
    />
</g>
<g>
<path
      d="M211.989 111.869C220.718 111.869 227.794 104.794 227.794 96.0672C227.794 87.34 220.718 80.2652 211.989 80.2652C203.26 80.2652 196.184 87.34 196.184 96.0672C196.184 104.794 203.26 111.869 211.989 111.869Z"
      fill="#3B5266"
    />
<path
      d="M201.259 96.0672C201.259 91.863 203.579 88.3836 207.059 86.499L206.479 85.6292C202.709 87.6588 200.099 91.573 200.099 96.0672C200.099 100.561 202.709 104.476 206.479 106.505L207.059 105.635C203.579 103.896 201.259 100.271 201.259 96.0672Z"
      fill="#76C1AA"
    />
<path
      d="M217.499 85.6292L217.064 86.499C220.544 88.2387 223.009 91.863 223.009 96.0672C223.009 100.271 220.544 103.896 217.064 105.635L217.499 106.505C221.269 104.476 223.879 100.561 223.879 96.0672C223.734 91.573 221.269 87.6588 217.499 85.6292Z"
      fill="#76C1AA"
    />
<path
      opacity="0.3"
      d="M211.989 98.3867C213.271 98.3867 214.309 97.3482 214.309 96.0672C214.309 94.7861 213.271 93.7476 211.989 93.7476C210.708 93.7476 209.669 94.7861 209.669 96.0672C209.669 97.3482 210.708 98.3867 211.989 98.3867Z"
      fill="white"
    />
<path
      opacity="0.3"
      d="M213.439 94.3275L216.049 91.718C215.034 90.7032 213.729 90.1233 212.134 90.1233V93.8926C212.569 93.8926 213.004 94.0376 213.439 94.3275Z"
      fill="white"
    />
<path
      opacity="0.3"
      d="M214.164 96.0672H217.934C217.934 94.6174 217.354 93.1677 216.339 92.1529L213.729 94.7624C214.019 95.0524 214.164 95.4873 214.164 96.0672Z"
      fill="white"
    />
<path
      opacity="0.3"
      d="M213.584 97.6619L216.194 100.271C217.209 99.2566 217.789 97.9518 217.789 96.5021H214.019C214.164 96.937 213.874 97.3719 213.584 97.6619Z"
      fill="white"
    />
<path
      opacity="0.3"
      d="M210.684 97.9518L208.074 100.561C209.089 101.431 210.249 102.011 211.699 102.011V98.2418C211.264 98.2418 210.829 98.0968 210.684 97.9518Z"
      fill="white"
    />
<path
      opacity="0.3"
      d="M212.134 98.3867V102.156C213.584 102.156 214.889 101.576 215.759 100.706L213.149 98.0968C212.859 98.2417 212.569 98.3867 212.134 98.3867Z"
      fill="white"
    />
<path
      opacity="0.3"
      d="M210.104 94.9074L207.494 92.2979C206.624 93.3127 206.044 94.6174 206.044 96.0672H209.814C209.669 95.6322 209.814 95.1973 210.104 94.9074Z"
      fill="white"
    />
<path
      opacity="0.3"
      d="M209.669 96.5021H205.899C206.044 97.9518 206.624 99.1116 207.494 100.126L210.104 97.5169C209.959 97.2269 209.814 96.937 209.669 96.5021Z"
      fill="white"
    />
<path
      opacity="0.3"
      d="M211.554 93.8926V90.1233C210.104 90.2683 208.799 90.8482 207.784 91.718L210.394 94.3275C210.684 94.1825 211.119 93.8926 211.554 93.8926Z"
      fill="white"
    />
<path
      d="M212.134 89.2535C211.699 89.2535 211.119 89.2535 210.684 89.3984C207.494 89.9783 205.174 92.7328 205.174 96.0672C205.174 99.8364 208.219 102.881 211.989 102.881C213.874 102.881 215.614 102.156 216.774 100.851C218.079 99.5465 218.804 97.9518 218.804 96.0672C218.949 92.2979 215.904 89.2535 212.134 89.2535ZM214.164 96.0672C214.164 95.6322 214.019 95.1973 213.729 94.7624L216.339 92.1529C217.209 93.1677 217.789 94.4725 217.934 96.0672H214.164ZM207.929 100.561L210.539 97.9518C210.829 98.0968 211.119 98.2417 211.554 98.3867V102.156C210.249 102.011 208.944 101.431 207.929 100.561ZM213.439 94.3275C213.149 94.0376 212.714 93.8926 212.134 93.8926V90.1233C213.584 90.1233 215.034 90.7032 216.049 91.718L213.439 94.3275ZM209.669 96.0672H205.899C205.899 94.6174 206.479 93.3127 207.349 92.2979L209.959 94.9074C209.814 95.1973 209.669 95.6322 209.669 96.0672ZM209.669 96.5021C209.814 96.937 209.959 97.2269 210.104 97.5169L207.494 100.126C206.624 99.1116 206.044 97.9518 205.899 96.5021H209.669ZM211.989 97.9518C210.974 97.9518 210.104 97.082 210.104 96.0672C210.104 95.0524 210.974 94.1825 211.989 94.1825C212.714 94.1825 213.294 94.6174 213.584 95.1973V95.3423C213.729 95.4873 213.729 95.7772 213.729 96.0672C213.729 96.3571 213.729 96.5021 213.584 96.792C213.439 97.5169 212.714 97.9518 211.989 97.9518ZM212.134 98.3867C212.569 98.3867 212.859 98.2417 213.149 98.0968L215.759 100.706C214.744 101.576 213.439 102.156 212.134 102.156V98.3867ZM211.554 90.1233V93.8926C211.119 94.0376 210.684 94.1825 210.394 94.4725L207.784 91.863C208.799 90.8482 210.104 90.2683 211.554 90.1233ZM216.194 100.271L213.584 97.6619C213.874 97.3719 214.019 96.937 214.164 96.5021H217.934C217.789 97.9518 217.209 99.2565 216.194 100.271Z"
      fill="white"
    />
</g>
<g>
<path
      d="M249.109 111.869C257.838 111.869 264.914 104.794 264.914 96.0672C264.914 87.34 257.838 80.2652 249.109 80.2652C240.38 80.2652 233.304 87.34 233.304 96.0672C233.304 104.794 240.38 111.869 249.109 111.869Z"
      fill="#3B5266"
    />
<path
      d="M238.379 96.0672C238.379 91.863 240.699 88.3836 244.179 86.499L243.599 85.6292C239.829 87.6588 237.219 91.573 237.219 96.0672C237.219 100.561 239.829 104.476 243.599 106.505L244.179 105.635C240.844 103.896 238.379 100.271 238.379 96.0672Z"
      fill="#76C1AA"
    />
<path
      d="M254.619 85.6292L254.184 86.499C257.664 88.2387 260.129 91.863 260.129 96.0672C260.129 100.271 257.664 103.896 254.184 105.635L254.619 106.505C258.389 104.476 260.999 100.561 260.999 96.0672C260.999 91.573 258.389 87.6588 254.619 85.6292Z"
      fill="#76C1AA"
    />
<path
      opacity="0.3"
      d="M249.109 98.3867C250.39 98.3867 251.429 97.3482 251.429 96.0672C251.429 94.7861 250.39 93.7476 249.109 93.7476C247.828 93.7476 246.789 94.7861 246.789 96.0672C246.789 97.3482 247.828 98.3867 249.109 98.3867Z"
      fill="white"
    />
<path
      opacity="0.3"
      d="M250.559 94.3275L253.169 91.718C252.154 90.7032 250.849 90.1233 249.254 90.1233V93.8926C249.689 93.8926 250.124 94.0376 250.559 94.3275Z"
      fill="white"
    />
<path
      opacity="0.3"
      d="M251.429 96.0672H255.199C255.199 94.6174 254.619 93.1677 253.604 92.1529L250.994 94.7624C251.139 95.0524 251.284 95.4873 251.429 96.0672Z"
      fill="white"
    />
<path
      opacity="0.3"
      d="M250.704 97.6619L253.314 100.271C254.329 99.2566 254.909 97.9518 254.909 96.5021H251.139C251.284 96.937 250.994 97.3719 250.704 97.6619Z"
      fill="white"
    />
<path
      opacity="0.3"
      d="M247.804 97.9518L245.194 100.561C246.209 101.431 247.369 102.011 248.819 102.011V98.2418C248.384 98.2418 248.094 98.0968 247.804 97.9518Z"
      fill="white"
    />
<path
      opacity="0.3"
      d="M249.254 98.3867V102.156C250.704 102.156 252.009 101.576 252.879 100.706L250.269 98.0968C249.979 98.2417 249.689 98.3867 249.254 98.3867Z"
      fill="white"
    />
<path
      opacity="0.3"
      d="M247.224 94.9074L244.614 92.2979C243.744 93.3127 243.164 94.6174 243.164 96.0672H246.934C246.934 95.6322 246.934 95.1973 247.224 94.9074Z"
      fill="white"
    />
<path
      opacity="0.3"
      d="M246.934 96.5021H243.164C243.309 97.9518 243.889 99.1116 244.759 100.126L247.369 97.5169C247.079 97.2269 246.934 96.937 246.934 96.5021Z"
      fill="white"
    />
<path
      opacity="0.3"
      d="M248.674 93.8926V90.1233C247.224 90.2683 245.919 90.8482 244.904 91.718L247.514 94.3275C247.949 94.1825 248.239 93.8926 248.674 93.8926Z"
      fill="white"
    />
<path
      d="M249.254 89.2535C248.819 89.2535 248.239 89.2535 247.804 89.3984C244.614 89.9783 242.294 92.7328 242.294 96.0672C242.294 99.8364 245.339 102.881 249.109 102.881C250.994 102.881 252.734 102.156 253.894 100.851C255.199 99.5465 255.924 97.9518 255.924 96.0672C256.069 92.2979 253.024 89.2535 249.254 89.2535ZM251.429 96.0672C251.429 95.6322 251.284 95.1973 250.994 94.7624L253.604 92.1529C254.474 93.1677 255.054 94.4725 255.199 96.0672H251.429ZM245.194 100.561L247.804 97.9518C248.094 98.0968 248.384 98.2417 248.819 98.3867V102.156C247.369 102.011 246.064 101.431 245.194 100.561ZM250.559 94.3275C250.269 94.0376 249.834 93.8926 249.254 93.8926V90.1233C250.704 90.1233 252.154 90.7032 253.169 91.718L250.559 94.3275ZM246.789 96.0672H243.019C243.019 94.6174 243.599 93.3127 244.469 92.2979L247.079 94.9074C246.934 95.1973 246.934 95.6322 246.789 96.0672ZM246.934 96.5021C247.079 96.937 247.224 97.2269 247.369 97.5169L244.759 100.126C243.889 99.1116 243.309 97.9518 243.164 96.5021H246.934ZM249.109 97.9518C248.094 97.9518 247.224 97.082 247.224 96.0672C247.224 95.0524 248.094 94.1825 249.109 94.1825C249.834 94.1825 250.414 94.6174 250.704 95.1973V95.3423C250.849 95.4873 250.849 95.7772 250.849 96.0672C250.849 96.3571 250.849 96.5021 250.704 96.792C250.559 97.5169 249.979 97.9518 249.109 97.9518ZM249.254 98.3867C249.689 98.3867 249.979 98.2417 250.269 98.0968L252.879 100.706C251.864 101.576 250.559 102.156 249.254 102.156V98.3867ZM248.674 90.1233V93.8926C248.239 94.0376 247.804 94.1825 247.514 94.4725L244.904 91.863C245.919 90.8482 247.224 90.2683 248.674 90.1233ZM253.459 100.271L250.849 97.6619C251.139 97.3719 251.284 96.937 251.429 96.5021H255.199C254.909 97.9518 254.329 99.2565 253.459 100.271Z"
      fill="white"
    />
</g>
<g>
<path
      d="M332.919 111.869C341.648 111.869 348.724 104.794 348.724 96.0672C348.724 87.34 341.648 80.2652 332.919 80.2652C324.19 80.2652 317.114 87.34 317.114 96.0672C317.114 104.794 324.19 111.869 332.919 111.869Z"
      fill="#3B5266"
    />
<path
      d="M322.189 96.0672C322.189 91.863 324.509 88.3836 327.989 86.499L327.409 85.6292C323.639 87.6588 321.029 91.573 321.029 96.0672C321.029 100.561 323.639 104.476 327.409 106.505L327.989 105.635C324.654 103.896 322.189 100.271 322.189 96.0672Z"
      fill="#76C1AA"
    />
<path
      d="M338.429 85.6292L337.994 86.499C341.474 88.2387 343.939 91.863 343.939 96.0672C343.939 100.271 341.474 103.896 337.994 105.635L338.429 106.505C342.199 104.476 344.809 100.561 344.809 96.0672C344.809 91.573 342.199 87.6588 338.429 85.6292Z"
      fill="#76C1AA"
    />
<path
      opacity="0.3"
      d="M332.919 98.3867C334.2 98.3867 335.239 97.3482 335.239 96.0672C335.239 94.7861 334.2 93.7476 332.919 93.7476C331.637 93.7476 330.599 94.7861 330.599 96.0672C330.599 97.3482 331.637 98.3867 332.919 98.3867Z"
      fill="white"
    />
<path
      opacity="0.3"
      d="M334.369 94.3275L336.979 91.718C335.964 90.7032 334.659 90.1233 333.064 90.1233V93.8926C333.499 93.8926 333.934 94.0376 334.369 94.3275Z"
      fill="white"
    />
<path
      opacity="0.3"
      d="M335.239 96.0672H339.009C339.009 94.6174 338.429 93.1677 337.414 92.1529L334.804 94.7624C334.949 95.0524 335.094 95.4873 335.239 96.0672Z"
      fill="white"
    />
<path
      opacity="0.3"
      d="M334.514 97.6619L337.124 100.271C338.139 99.2566 338.719 97.9518 338.719 96.5021H334.949C335.094 96.937 334.804 97.3719 334.514 97.6619Z"
      fill="white"
    />
<path
      opacity="0.3"
      d="M331.614 97.9518L329.004 100.561C330.019 101.431 331.179 102.011 332.629 102.011V98.2418C332.194 98.2418 331.904 98.0968 331.614 97.9518Z"
      fill="white"
    />
<path
      opacity="0.3"
      d="M333.064 98.3867V102.156C334.514 102.156 335.819 101.576 336.689 100.706L334.079 98.0968C333.789 98.2417 333.499 98.3867 333.064 98.3867Z"
      fill="white"
    />
<path
      opacity="0.3"
      d="M331.034 94.9074L328.424 92.2979C327.554 93.3127 326.974 94.6174 326.974 96.0672H330.744C330.744 95.6322 330.744 95.1973 331.034 94.9074Z"
      fill="white"
    />
<path
      opacity="0.3"
      d="M330.744 96.5021H326.974C327.119 97.9518 327.699 99.1116 328.569 100.126L331.179 97.5169C330.889 97.2269 330.744 96.937 330.744 96.5021Z"
      fill="white"
    />
<path
      opacity="0.3"
      d="M332.484 93.8926V90.1233C331.034 90.2683 329.729 90.8482 328.714 91.718L331.324 94.3275C331.759 94.1825 332.049 93.8926 332.484 93.8926Z"
      fill="white"
    />
<path
      d="M333.064 89.2535C332.629 89.2535 332.049 89.2535 331.614 89.3984C328.424 89.9783 326.104 92.7328 326.104 96.0672C326.104 99.8364 329.149 102.881 332.919 102.881C334.804 102.881 336.544 102.156 337.704 100.851C339.009 99.5465 339.734 97.9518 339.734 96.0672C339.879 92.2979 336.834 89.2535 333.064 89.2535ZM335.239 96.0672C335.239 95.6322 335.094 95.1973 334.804 94.7624L337.414 92.1529C338.284 93.1677 338.864 94.4725 339.009 96.0672H335.239ZM329.004 100.561L331.614 97.9518C331.904 98.0968 332.194 98.2417 332.629 98.3867V102.156C331.179 102.011 329.874 101.431 329.004 100.561ZM334.369 94.3275C334.079 94.0376 333.644 93.8926 333.064 93.8926V90.1233C334.514 90.1233 335.964 90.7032 336.979 91.718L334.369 94.3275ZM330.599 96.0672H326.829C326.829 94.6174 327.409 93.3127 328.279 92.2979L330.889 94.9074C330.744 95.1973 330.744 95.6322 330.599 96.0672ZM330.744 96.5021C330.889 96.937 331.034 97.2269 331.179 97.5169L328.569 100.126C327.699 99.1116 327.119 97.9518 326.974 96.5021H330.744ZM332.919 97.9518C331.904 97.9518 331.034 97.082 331.034 96.0672C331.034 95.0524 331.904 94.1825 332.919 94.1825C333.644 94.1825 334.224 94.6174 334.514 95.1973V95.3423C334.659 95.4873 334.659 95.7772 334.659 96.0672C334.659 96.3571 334.659 96.5021 334.514 96.792C334.369 97.5169 333.789 97.9518 332.919 97.9518ZM333.064 98.3867C333.499 98.3867 333.789 98.2417 334.079 98.0968L336.689 100.706C335.674 101.576 334.369 102.156 333.064 102.156V98.3867ZM332.484 90.1233V93.8926C332.049 94.0376 331.614 94.1825 331.324 94.4725L328.714 91.863C329.729 90.8482 331.034 90.2683 332.484 90.1233ZM337.269 100.271L334.659 97.6619C334.949 97.3719 335.094 96.937 335.239 96.5021H339.009C338.719 97.9518 338.139 99.2565 337.269 100.271Z"
      fill="white"
    />
</g>
<g>
<path
      d="M371.053 111.869C379.782 111.869 386.858 104.794 386.858 96.0672C386.858 87.34 379.782 80.2652 371.053 80.2652C362.325 80.2652 355.249 87.34 355.249 96.0672C355.249 104.794 362.325 111.869 371.053 111.869Z"
      fill="#3B5266"
    />
<path
      d="M360.324 96.0672C360.324 91.863 362.644 88.3836 366.124 86.499L365.544 85.6292C361.774 87.6588 359.164 91.573 359.164 96.0672C359.164 100.561 361.774 104.476 365.544 106.505L366.124 105.635C362.789 103.896 360.324 100.271 360.324 96.0672Z"
      fill="#76C1AA"
    />
<path
      d="M376.563 85.6292L376.128 86.499C379.608 88.2387 382.073 91.863 382.073 96.0672C382.073 100.271 379.608 103.896 376.128 105.635L376.563 106.505C380.333 104.476 382.943 100.561 382.943 96.0672C382.943 91.573 380.333 87.6588 376.563 85.6292Z"
      fill="#76C1AA"
    />
<path
      opacity="0.3"
      d="M371.053 98.3867C372.335 98.3867 373.373 97.3482 373.373 96.0672C373.373 94.7861 372.335 93.7476 371.053 93.7476C369.772 93.7476 368.733 94.7861 368.733 96.0672C368.733 97.3482 369.772 98.3867 371.053 98.3867Z"
      fill="white"
    />
<path
      opacity="0.3"
      d="M372.503 94.3275L375.113 91.718C374.098 90.7032 372.793 90.1233 371.198 90.1233V93.8926C371.633 93.8926 372.068 94.0376 372.503 94.3275Z"
      fill="white"
    />
<path
      opacity="0.3"
      d="M373.373 96.0672H377.143C377.143 94.6174 376.563 93.1677 375.548 92.1529L372.938 94.7624C373.083 95.0524 373.228 95.4873 373.373 96.0672Z"
      fill="white"
    />
<path
      opacity="0.3"
      d="M372.648 97.6619L375.258 100.271C376.273 99.2566 376.853 97.9518 376.853 96.5021H373.083C373.228 96.937 372.938 97.3719 372.648 97.6619Z"
      fill="white"
    />
<path
      opacity="0.3"
      d="M369.748 97.9518L367.138 100.561C368.153 101.431 369.313 102.011 370.763 102.011V98.2418C370.328 98.2418 370.038 98.0968 369.748 97.9518Z"
      fill="white"
    />
<path
      opacity="0.3"
      d="M371.198 98.3867V102.156C372.648 102.156 373.953 101.576 374.823 100.706L372.213 98.0968C371.923 98.2417 371.633 98.3867 371.198 98.3867Z"
      fill="white"
    />
<path
      opacity="0.3"
      d="M369.168 94.9074L366.558 92.2979C365.688 93.3127 365.108 94.6174 365.108 96.0672H368.878C368.878 95.6322 368.878 95.1973 369.168 94.9074Z"
      fill="white"
    />
<path
      opacity="0.3"
      d="M368.878 96.5021H365.108C365.253 97.9518 365.833 99.1116 366.703 100.126L369.313 97.5169C369.023 97.2269 368.878 96.937 368.878 96.5021Z"
      fill="white"
    />
<path
      opacity="0.3"
      d="M370.618 93.8926V90.1233C369.168 90.2683 367.863 90.8482 366.848 91.718L369.458 94.3275C369.748 94.1825 370.183 93.8926 370.618 93.8926Z"
      fill="white"
    />
<path
      d="M371.198 89.2535C370.763 89.2535 370.183 89.2535 369.748 89.3984C366.558 89.9783 364.239 92.7328 364.239 96.0672C364.239 99.8364 367.283 102.881 371.053 102.881C372.938 102.881 374.678 102.156 375.838 100.851C377.143 99.5465 377.868 97.9518 377.868 96.0672C378.013 92.2979 374.968 89.2535 371.198 89.2535ZM373.373 96.0672C373.373 95.6322 373.228 95.1973 372.938 94.7624L375.548 92.1529C376.418 93.1677 376.998 94.4725 377.143 96.0672H373.373ZM366.993 100.561L369.603 97.9518C369.893 98.0968 370.183 98.2417 370.618 98.3867V102.156C369.313 102.011 368.008 101.431 366.993 100.561ZM372.503 94.3275C372.213 94.0376 371.778 93.8926 371.198 93.8926V90.1233C372.648 90.1233 374.098 90.7032 375.113 91.718L372.503 94.3275ZM368.733 96.0672H364.964C364.964 94.6174 365.544 93.3127 366.414 92.2979L369.023 94.9074C368.878 95.1973 368.878 95.6322 368.733 96.0672ZM368.878 96.5021C369.023 96.937 369.168 97.2269 369.313 97.5169L366.703 100.126C365.833 99.1116 365.253 97.9518 365.108 96.5021H368.878ZM371.053 97.9518C370.038 97.9518 369.168 97.082 369.168 96.0672C369.168 95.0524 370.038 94.1825 371.053 94.1825C371.778 94.1825 372.358 94.6174 372.648 95.1973V95.3423C372.793 95.4873 372.793 95.7772 372.793 96.0672C372.793 96.3571 372.793 96.5021 372.648 96.792C372.503 97.5169 371.923 97.9518 371.053 97.9518ZM371.198 98.3867C371.633 98.3867 371.923 98.2417 372.213 98.0968L374.823 100.706C373.808 101.576 372.503 102.156 371.198 102.156V98.3867ZM370.618 90.1233V93.8926C370.183 94.0376 369.748 94.1825 369.458 94.4725L366.848 91.863C367.863 90.8482 369.168 90.2683 370.618 90.1233ZM375.403 100.271L372.793 97.6619C373.083 97.3719 373.228 96.937 373.373 96.5021H377.143C376.853 97.9518 376.273 99.2565 375.403 100.271Z"
      fill="white"
    />
</g>
<g>
<path
      d="M409.188 111.869C417.917 111.869 424.993 104.794 424.993 96.0672C424.993 87.34 417.917 80.2652 409.188 80.2652C400.459 80.2652 393.383 87.34 393.383 96.0672C393.383 104.794 400.459 111.869 409.188 111.869Z"
      fill="#3B5266"
    />
<path
      d="M398.458 96.0672C398.458 91.863 400.778 88.3836 404.258 86.499L403.678 85.6292C399.908 87.6588 397.298 91.573 397.298 96.0672C397.298 100.561 399.908 104.476 403.678 106.505L404.258 105.635C400.923 103.896 398.458 100.271 398.458 96.0672Z"
      fill="#76C1AA"
    />
<path
      d="M414.698 85.6292L414.263 86.499C417.743 88.2387 420.208 91.863 420.208 96.0672C420.208 100.271 417.743 103.896 414.263 105.635L414.698 106.505C418.468 104.476 421.078 100.561 421.078 96.0672C420.933 91.573 418.468 87.6588 414.698 85.6292Z"
      fill="#76C1AA"
    />
<path
      opacity="0.3"
      d="M409.188 98.3867C410.469 98.3867 411.508 97.3482 411.508 96.0672C411.508 94.7861 410.469 93.7476 409.188 93.7476C407.907 93.7476 406.868 94.7861 406.868 96.0672C406.868 97.3482 407.907 98.3867 409.188 98.3867Z"
      fill="white"
    />
<path
      opacity="0.3"
      d="M410.638 94.3275L413.248 91.718C412.233 90.7032 410.928 90.1233 409.333 90.1233V93.8926C409.768 93.8926 410.203 94.0376 410.638 94.3275Z"
      fill="white"
    />
<path
      opacity="0.3"
      d="M411.508 96.0672H415.278C415.278 94.6174 414.698 93.1677 413.683 92.1529L411.073 94.7624C411.218 95.0524 411.363 95.4873 411.508 96.0672Z"
      fill="white"
    />
<path
      opacity="0.3"
      d="M410.783 97.6619L413.393 100.271C414.408 99.2566 414.988 97.9518 414.988 96.5021H411.218C411.363 96.937 411.073 97.3719 410.783 97.6619Z"
      fill="white"
    />
<path
      opacity="0.3"
      d="M407.883 97.9518L405.273 100.561C406.288 101.431 407.448 102.011 408.898 102.011V98.2418C408.463 98.2418 408.173 98.0968 407.883 97.9518Z"
      fill="white"
    />
<path
      opacity="0.3"
      d="M409.333 98.3867V102.156C410.783 102.156 412.088 101.576 412.958 100.706L410.348 98.0968C410.058 98.2417 409.768 98.3867 409.333 98.3867Z"
      fill="white"
    />
<path
      opacity="0.3"
      d="M407.303 94.9074L404.693 92.2979C403.823 93.3127 403.243 94.6174 403.243 96.0672H407.013C406.868 95.6322 407.013 95.1973 407.303 94.9074Z"
      fill="white"
    />
<path
      opacity="0.3"
      d="M407.013 96.5021H403.243C403.388 97.9518 403.968 99.1116 404.838 100.126L407.448 97.5169C407.158 97.2269 407.013 96.937 407.013 96.5021Z"
      fill="white"
    />
<path
      opacity="0.3"
      d="M408.753 93.8926V90.1233C407.303 90.2683 405.998 90.8482 404.983 91.718L407.593 94.3275C407.883 94.1825 408.318 93.8926 408.753 93.8926Z"
      fill="white"
    />
<path
      d="M409.333 89.2535C408.898 89.2535 408.318 89.2535 407.883 89.3984C404.693 89.9783 402.373 92.7328 402.373 96.0672C402.373 99.8364 405.418 102.881 409.188 102.881C411.073 102.881 412.813 102.156 413.973 100.851C415.278 99.5465 416.003 97.9518 416.003 96.0672C416.148 92.2979 413.103 89.2535 409.333 89.2535ZM411.508 96.0672C411.508 95.6322 411.363 95.1973 411.073 94.7624L413.683 92.1529C414.553 93.1677 415.133 94.4725 415.278 96.0672H411.508ZM405.128 100.561L407.738 97.9518C408.028 98.0968 408.318 98.2417 408.753 98.3867V102.156C407.448 102.011 406.143 101.431 405.128 100.561ZM410.638 94.3275C410.348 94.0376 409.913 93.8926 409.333 93.8926V90.1233C410.783 90.1233 412.233 90.7032 413.248 91.718L410.638 94.3275ZM406.868 96.0672H403.098C403.098 94.6174 403.678 93.3127 404.548 92.2979L407.158 94.9074C407.013 95.1973 406.868 95.6322 406.868 96.0672ZM407.013 96.5021C407.158 96.937 407.303 97.2269 407.448 97.5169L404.838 100.126C403.968 99.1116 403.388 97.9518 403.243 96.5021H407.013ZM409.188 97.9518C408.173 97.9518 407.303 97.082 407.303 96.0672C407.303 95.0524 408.173 94.1825 409.188 94.1825C409.913 94.1825 410.493 94.6174 410.783 95.1973V95.3423C410.928 95.4873 410.928 95.7772 410.928 96.0672C410.928 96.3571 410.928 96.5021 410.783 96.792C410.638 97.5169 410.058 97.9518 409.188 97.9518ZM409.333 98.3867C409.768 98.3867 410.058 98.2417 410.348 98.0968L412.958 100.706C411.943 101.576 410.638 102.156 409.333 102.156V98.3867ZM408.753 90.1233V93.8926C408.318 94.0376 407.883 94.1825 407.593 94.4725L404.983 91.863C405.998 90.8482 407.303 90.2683 408.753 90.1233ZM413.538 100.271L410.928 97.6619C411.218 97.3719 411.363 96.937 411.508 96.5021H415.278C414.988 97.9518 414.408 99.2565 413.538 100.271Z"
      fill="white"
    />

</g>
<g>
<path
      d="M447.323 111.869C456.052 111.869 463.128 104.794 463.128 96.0672C463.128 87.34 456.052 80.2652 447.323 80.2652C438.595 80.2652 431.519 87.34 431.519 96.0672C431.519 104.794 438.595 111.869 447.323 111.869Z"
      fill="#3B5266"
    />
<path
      d="M436.594 96.0672C436.594 91.863 438.914 88.3836 442.394 86.499L441.814 85.6292C438.044 87.6588 435.434 91.573 435.434 96.0672C435.434 100.561 438.044 104.476 441.814 106.505L442.394 105.635C439.059 103.896 436.594 100.271 436.594 96.0672Z"
      fill="#76C1AA"
    />
<path
      d="M452.833 85.6292L452.398 86.499C455.878 88.2387 458.343 91.863 458.343 96.0672C458.343 100.271 455.878 103.896 452.398 105.635L452.833 106.505C456.603 104.476 459.213 100.561 459.213 96.0672C459.068 91.573 456.603 87.6588 452.833 85.6292Z"
      fill="#76C1AA"
    />
<path
      opacity="0.3"
      d="M447.323 98.3867C448.605 98.3867 449.643 97.3482 449.643 96.0672C449.643 94.7861 448.605 93.7476 447.323 93.7476C446.042 93.7476 445.003 94.7861 445.003 96.0672C445.003 97.3482 446.042 98.3867 447.323 98.3867Z"
      fill="white"
    />
<path
      opacity="0.3"
      d="M448.773 94.3275L451.383 91.718C450.368 90.7032 449.063 90.1233 447.468 90.1233V93.8926C447.903 93.8926 448.338 94.0376 448.773 94.3275Z"
      fill="white"
    />
<path
      opacity="0.3"
      d="M449.498 96.0672H453.268C453.268 94.6174 452.688 93.1677 451.673 92.1529L449.063 94.7624C449.353 95.0524 449.498 95.4873 449.498 96.0672Z"
      fill="white"
    />
<path
      opacity="0.3"
      d="M448.918 97.6619L451.528 100.271C452.543 99.2566 453.123 97.9518 453.123 96.5021H449.498C449.498 96.937 449.208 97.3719 448.918 97.6619Z"
      fill="white"
    />
<path
      opacity="0.3"
      d="M446.018 97.9518L443.408 100.561C444.423 101.431 445.583 102.011 447.033 102.011V98.2418C446.598 98.2418 446.308 98.0968 446.018 97.9518Z"
      fill="white"
    />
<path
      opacity="0.3"
      d="M447.468 98.3867V102.156C448.918 102.156 450.223 101.576 451.093 100.706L448.483 98.0968C448.193 98.2417 447.903 98.3867 447.468 98.3867Z"
      fill="white"
    />
<path
      opacity="0.3"
      d="M445.439 94.9074L442.828 92.2979C441.958 93.3127 441.378 94.6174 441.378 96.0672H445.149C445.004 95.6322 445.149 95.1973 445.439 94.9074Z"
      fill="white"
    />
<path
      opacity="0.3"
      d="M445.148 96.5021H441.378C441.523 97.9518 442.103 99.1116 442.973 100.126L445.583 97.5169C445.293 97.2269 445.148 96.937 445.148 96.5021Z"
      fill="white"
    />
<path
      opacity="0.3"
      d="M446.889 93.8926V90.1233C445.439 90.2683 444.134 90.8482 443.119 91.718L445.729 94.3275C446.019 94.1825 446.454 93.8926 446.889 93.8926Z"
      fill="white"
    />
<path
      d="M447.468 89.2535C447.033 89.2535 446.453 89.2535 446.018 89.3984C442.828 89.9783 440.508 92.7328 440.508 96.0672C440.508 99.8364 443.553 102.881 447.323 102.881C449.208 102.881 450.948 102.156 452.108 100.851C453.413 99.5465 454.138 97.9518 454.138 96.0672C454.283 92.2979 451.238 89.2535 447.468 89.2535ZM449.498 96.0672C449.498 95.6322 449.353 95.1973 449.063 94.7624L451.673 92.1529C452.543 93.1677 453.123 94.4725 453.268 96.0672H449.498ZM443.263 100.561L445.873 97.9518C446.163 98.0968 446.453 98.2417 446.888 98.3867V102.156C445.583 102.011 444.278 101.431 443.263 100.561ZM448.773 94.3275C448.483 94.0376 448.048 93.8926 447.468 93.8926V90.1233C448.918 90.1233 450.368 90.7032 451.383 91.718L448.773 94.3275ZM445.003 96.0672H441.233C441.233 94.6174 441.813 93.3127 442.683 92.2979L445.293 94.9074C445.148 95.1973 445.003 95.6322 445.003 96.0672ZM445.148 96.5021C445.293 96.937 445.438 97.2269 445.583 97.5169L442.973 100.126C442.103 99.1116 441.523 97.9518 441.378 96.5021H445.148ZM447.323 97.9518C446.308 97.9518 445.438 97.082 445.438 96.0672C445.438 95.0524 446.308 94.1825 447.323 94.1825C448.048 94.1825 448.628 94.6174 448.918 95.1973V95.3423C449.063 95.4873 449.063 95.7772 449.063 96.0672C449.063 96.3571 449.063 96.5021 448.918 96.792C448.773 97.5169 448.048 97.9518 447.323 97.9518ZM447.468 98.3867C447.903 98.3867 448.193 98.2417 448.483 98.0968L451.093 100.706C450.078 101.576 448.773 102.156 447.468 102.156V98.3867ZM446.888 90.1233V93.8926C446.453 94.0376 446.018 94.1825 445.728 94.4725L443.118 91.863C444.133 90.8482 445.438 90.2683 446.888 90.1233ZM451.528 100.271L448.918 97.6619C449.208 97.3719 449.353 96.937 449.498 96.5021H453.268C453.123 97.9518 452.543 99.2565 451.528 100.271Z"
      fill="white"
    />
</g>
<g>

</g>
<path
    d="M485.458 111.869C494.187 111.869 501.263 104.794 501.263 96.0672C501.263 87.34 494.187 80.2652 485.458 80.2652C476.729 80.2652 469.653 87.34 469.653 96.0672C469.653 104.794 476.729 111.869 485.458 111.869Z"
    fill="#3B5266"
  />
<path
    d="M474.728 96.0672C474.728 91.863 477.048 88.3836 480.528 86.499L479.948 85.6292C476.178 87.6588 473.568 91.573 473.568 96.0672C473.568 100.561 476.178 104.476 479.948 106.505L480.528 105.635C477.193 103.896 474.728 100.271 474.728 96.0672Z"
    fill="#76C1AA"
  />
<path
    d="M490.968 85.6292L490.533 86.499C494.013 88.2387 496.478 91.863 496.478 96.0672C496.478 100.271 494.013 103.896 490.533 105.635L490.968 106.505C494.738 104.476 497.348 100.561 497.348 96.0672C497.203 91.573 494.738 87.6588 490.968 85.6292Z"
    fill="#76C1AA"
  />
<path
    opacity="0.3"
    d="M485.458 98.3867C486.739 98.3867 487.778 97.3482 487.778 96.0672C487.778 94.7861 486.739 93.7476 485.458 93.7476C484.176 93.7476 483.138 94.7861 483.138 96.0672C483.138 97.3482 484.176 98.3867 485.458 98.3867Z"
    fill="white"
  />
<path
    opacity="0.3"
    d="M486.908 94.3275L489.518 91.718C488.503 90.7032 487.198 90.1233 485.603 90.1233V93.8926C486.038 93.8926 486.473 94.0376 486.908 94.3275Z"
    fill="white"
  />
<path
    opacity="0.3"
    d="M487.633 96.0672H491.403C491.403 94.6174 490.823 93.1677 489.808 92.1529L487.198 94.7624C487.488 95.0524 487.633 95.4873 487.633 96.0672Z"
    fill="white"
  />
<path
    opacity="0.3"
    d="M487.053 97.6619L489.663 100.271C490.678 99.2566 491.258 97.9518 491.258 96.5021H487.488C487.633 96.937 487.343 97.3719 487.053 97.6619Z"
    fill="white"
  />
<path
    opacity="0.3"
    d="M484.153 97.9518L481.543 100.561C482.558 101.431 483.718 102.011 485.168 102.011V98.2418C484.733 98.2418 484.298 98.0968 484.153 97.9518Z"
    fill="white"
  />
<path
    opacity="0.3"
    d="M485.603 98.3867V102.156C487.053 102.156 488.358 101.576 489.228 100.706L486.618 98.0968C486.328 98.2417 486.038 98.3867 485.603 98.3867Z"
    fill="white"
  />
<path
    opacity="0.3"
    d="M483.573 94.9074L480.963 92.2979C480.093 93.3127 479.513 94.6174 479.513 96.0672H483.283C483.138 95.6322 483.283 95.1973 483.573 94.9074Z"
    fill="white"
  />
<path
    opacity="0.3"
    d="M483.283 96.5021H479.513C479.658 97.9518 480.238 99.1116 481.108 100.126L483.718 97.5169C483.428 97.2269 483.283 96.937 483.283 96.5021Z"
    fill="white"
  />
<path
    opacity="0.3"
    d="M485.023 93.8926V90.1233C483.573 90.2683 482.268 90.8482 481.253 91.718L483.863 94.3275C484.153 94.1825 484.588 93.8926 485.023 93.8926Z"
    fill="white"
  />
<path
    d="M485.603 89.2535C485.168 89.2535 484.588 89.2535 484.153 89.3984C480.963 89.9783 478.643 92.7328 478.643 96.0672C478.643 99.8364 481.688 102.881 485.458 102.881C487.343 102.881 489.083 102.156 490.243 100.851C491.548 99.5465 492.273 97.9518 492.273 96.0672C492.418 92.2979 489.373 89.2535 485.603 89.2535ZM487.633 96.0672C487.633 95.6322 487.488 95.1973 487.198 94.7624L489.808 92.1529C490.678 93.1677 491.258 94.4725 491.403 96.0672H487.633ZM481.398 100.561L484.008 97.9518C484.298 98.0968 484.588 98.2417 485.023 98.3867V102.156C483.718 102.011 482.413 101.431 481.398 100.561ZM486.908 94.3275C486.618 94.0376 486.183 93.8926 485.603 93.8926V90.1233C487.053 90.1233 488.503 90.7032 489.518 91.718L486.908 94.3275ZM483.138 96.0672H479.368C479.368 94.6174 479.948 93.3127 480.818 92.2979L483.428 94.9074C483.283 95.1973 483.138 95.6322 483.138 96.0672ZM483.283 96.5021C483.428 96.937 483.573 97.2269 483.718 97.5169L481.108 100.126C480.238 99.1116 479.658 97.9518 479.513 96.5021H483.283ZM485.458 97.9518C484.443 97.9518 483.573 97.082 483.573 96.0672C483.573 95.0524 484.443 94.1825 485.458 94.1825C486.183 94.1825 486.763 94.6174 487.053 95.1973V95.3423C487.198 95.4873 487.198 95.7772 487.198 96.0672C487.198 96.3571 487.198 96.5021 487.053 96.792C486.908 97.5169 486.183 97.9518 485.458 97.9518ZM485.603 98.3867C486.038 98.3867 486.328 98.2417 486.618 98.0968L489.228 100.706C488.213 101.576 486.908 102.156 485.603 102.156V98.3867ZM485.023 90.1233V93.8926C484.588 94.0376 484.153 94.1825 483.863 94.4725L481.253 91.863C482.268 90.8482 483.573 90.2683 485.023 90.1233ZM489.663 100.271L487.053 97.6619C487.343 97.3719 487.488 96.937 487.633 96.5021H491.403C491.258 97.9518 490.678 99.2565 489.663 100.271Z"
    fill="white"
  />
<g>

<path
      d="M523.593 111.869C532.321 111.869 539.397 104.794 539.397 96.0672C539.397 87.34 532.321 80.2652 523.593 80.2652C514.864 80.2652 507.788 87.34 507.788 96.0672C507.788 104.794 514.864 111.869 523.593 111.869Z"
      fill="#3B5266"
    />
<path
      d="M512.863 96.0672C512.863 91.863 515.183 88.3836 518.663 86.499L518.083 85.6292C514.313 87.6588 511.703 91.573 511.703 96.0672C511.703 100.561 514.313 104.476 518.083 106.505L518.663 105.635C515.183 103.896 512.863 100.271 512.863 96.0672Z"
      fill="#76C1AA"
    />
<path
      d="M529.102 85.6292L528.667 86.499C532.147 88.2387 534.612 91.863 534.612 96.0672C534.612 100.271 532.147 103.896 528.667 105.635L529.102 106.505C532.872 104.476 535.482 100.561 535.482 96.0672C535.337 91.573 532.872 87.6588 529.102 85.6292Z"
      fill="#76C1AA"
    />
<path
      opacity="0.3"
      d="M523.592 98.3867C524.874 98.3867 525.913 97.3482 525.913 96.0672C525.913 94.7861 524.874 93.7476 523.592 93.7476C522.311 93.7476 521.272 94.7861 521.272 96.0672C521.272 97.3482 522.311 98.3867 523.592 98.3867Z"
      fill="white"
    />
<path
      opacity="0.3"
      d="M525.042 94.3275L527.652 91.718C526.637 90.7032 525.332 90.1233 523.737 90.1233V93.8926C524.172 93.8926 524.607 94.0376 525.042 94.3275Z"
      fill="white"
    />
<path
      opacity="0.3"
      d="M525.768 96.0672H529.538C529.538 94.6174 528.958 93.1677 527.943 92.1529L525.333 94.7624C525.623 95.0524 525.768 95.4873 525.768 96.0672Z"
      fill="white"
    />
<path
      opacity="0.3"
      d="M525.188 97.6619L527.797 100.271C528.812 99.2566 529.392 97.9518 529.392 96.5021H525.622C525.767 96.937 525.477 97.3719 525.188 97.6619Z"
      fill="white"
    />
<path
      opacity="0.3"
      d="M522.287 97.9518L519.677 100.561C520.692 101.431 521.852 102.011 523.302 102.011V98.2418C522.867 98.2418 522.432 98.0968 522.287 97.9518Z"
      fill="white"
    />
<path
      opacity="0.3"
      d="M523.737 98.3867V102.156C525.187 102.156 526.492 101.576 527.362 100.706L524.752 98.0968C524.462 98.2417 524.172 98.3867 523.737 98.3867Z"
      fill="white"
    />
<path
      opacity="0.3"
      d="M521.707 94.9074L519.097 92.2979C518.227 93.3127 517.647 94.6174 517.647 96.0672H521.417C521.272 95.6322 521.417 95.1973 521.707 94.9074Z"
      fill="white"
    />
<path
      opacity="0.3"
      d="M521.272 96.5021H517.647C517.792 97.9518 518.372 99.1116 519.242 100.126L521.852 97.5169C521.562 97.2269 521.417 96.937 521.272 96.5021Z"
      fill="white"
    />
<path
      opacity="0.3"
      d="M523.158 93.8926V90.1233C521.708 90.2683 520.403 90.8482 519.388 91.718L521.998 94.3275C522.288 94.1825 522.723 93.8926 523.158 93.8926Z"
      fill="white"
    />
<path
      d="M523.737 89.2535C523.302 89.2535 522.722 89.2535 522.287 89.3984C519.097 89.9783 516.777 92.7328 516.777 96.0672C516.777 99.8364 519.822 102.881 523.592 102.881C525.477 102.881 527.217 102.156 528.377 100.851C529.682 99.5465 530.407 97.9518 530.407 96.0672C530.407 92.2979 527.507 89.2535 523.737 89.2535ZM525.767 96.0672C525.767 95.6322 525.622 95.1973 525.332 94.7624L527.942 92.1529C528.812 93.1677 529.392 94.4725 529.537 96.0672H525.767ZM519.532 100.561L522.142 97.9518C522.432 98.0968 522.722 98.2417 523.157 98.3867V102.156C521.852 102.011 520.547 101.431 519.532 100.561ZM525.042 94.3275C524.752 94.0376 524.317 93.8926 523.737 93.8926V90.1233C525.187 90.1233 526.637 90.7032 527.652 91.718L525.042 94.3275ZM521.272 96.0672H517.647C517.647 94.6174 518.227 93.3127 519.097 92.2979L521.707 94.9074C521.417 95.1973 521.272 95.6322 521.272 96.0672ZM521.272 96.5021C521.417 96.937 521.562 97.2269 521.707 97.5169L519.097 100.126C518.227 99.1116 517.647 97.9518 517.502 96.5021H521.272ZM523.592 97.9518C522.577 97.9518 521.707 97.082 521.707 96.0672C521.707 95.0524 522.577 94.1825 523.592 94.1825C524.317 94.1825 524.897 94.6174 525.187 95.1973V95.3423C525.332 95.4873 525.332 95.7772 525.332 96.0672C525.332 96.3571 525.332 96.5021 525.187 96.792C525.042 97.5169 524.317 97.9518 523.592 97.9518ZM523.737 98.3867C524.172 98.3867 524.462 98.2417 524.752 98.0968L527.362 100.706C526.347 101.576 525.042 102.156 523.737 102.156V98.3867ZM523.157 90.1233V93.8926C522.722 94.0376 522.287 94.1825 521.997 94.4725L519.387 91.863C520.402 90.8482 521.707 90.2683 523.157 90.1233ZM527.797 100.271L525.187 97.6619C525.477 97.3719 525.622 96.937 525.767 96.5021H529.537C529.392 97.9518 528.812 99.2565 527.797 100.271Z"
      fill="white"
    />
</g>
<g>
<path
      d="M561.728 111.869C570.457 111.869 577.533 104.794 577.533 96.0672C577.533 87.34 570.457 80.2652 561.728 80.2652C552.999 80.2652 545.923 87.34 545.923 96.0672C545.923 104.794 552.999 111.869 561.728 111.869Z"
      fill="#3B5266"
    />
<path
      d="M550.998 96.0672C550.998 91.863 553.318 88.3836 556.798 86.499L556.218 85.6292C552.448 87.6588 549.838 91.573 549.838 96.0672C549.838 100.561 552.448 104.476 556.218 106.505L556.798 105.635C553.318 103.896 550.998 100.271 550.998 96.0672Z"
      fill="#76C1AA"
    />
<path
      d="M567.238 85.6292L566.803 86.499C570.283 88.2387 572.748 91.863 572.748 96.0672C572.748 100.271 570.283 103.896 566.803 105.635L567.238 106.505C571.008 104.476 573.618 100.561 573.618 96.0672C573.473 91.573 571.008 87.6588 567.238 85.6292Z"
      fill="#76C1AA"
    />
<path
      opacity="0.3"
      d="M561.728 98.3867C563.009 98.3867 564.048 97.3482 564.048 96.0672C564.048 94.7861 563.009 93.7476 561.728 93.7476C560.446 93.7476 559.408 94.7861 559.408 96.0672C559.408 97.3482 560.446 98.3867 561.728 98.3867Z"
      fill="white"
    />
<path
      opacity="0.3"
      d="M563.178 94.3275L565.788 91.718C564.773 90.7032 563.468 90.1233 561.873 90.1233V93.8926C562.308 93.8926 562.743 94.0376 563.178 94.3275Z"
      fill="white"
    />
<path
      opacity="0.3"
      d="M563.903 96.0672H567.673C567.673 94.6174 567.093 93.1677 566.078 92.1529L563.468 94.7624C563.758 95.0524 563.903 95.4873 563.903 96.0672Z"
      fill="white"
    />
<path
      opacity="0.3"
      d="M563.323 97.6619L565.933 100.271C566.948 99.2566 567.528 97.9518 567.528 96.5021H563.758C563.903 96.937 563.613 97.3719 563.323 97.6619Z"
      fill="white"
    />
<path
      opacity="0.3"
      d="M560.278 97.9518L557.668 100.561C558.683 101.431 559.843 102.011 561.293 102.011V98.2418C561.003 98.2418 560.568 98.0968 560.278 97.9518Z"
      fill="white"
    />
<path
      opacity="0.3"
      d="M561.873 98.3867V102.156C563.323 102.156 564.628 101.576 565.498 100.706L562.888 98.0968C562.598 98.2417 562.308 98.3867 561.873 98.3867Z"
      fill="white"
    />
<path
      opacity="0.3"
      d="M559.843 94.9074L557.233 92.2979C556.363 93.3127 555.783 94.6174 555.783 96.0672H559.553C559.408 95.6322 559.553 95.1973 559.843 94.9074Z"
      fill="white"
    />
<path
      opacity="0.3"
      d="M559.408 96.5021H555.638C555.783 97.9518 556.363 99.1116 557.233 100.126L559.843 97.5169C559.698 97.2269 559.553 96.937 559.408 96.5021Z"
      fill="white"
    />
<path
      opacity="0.3"
      d="M561.292 93.8926V90.1233C559.842 90.2683 558.537 90.8482 557.522 91.718L560.132 94.3275C560.422 94.1825 560.857 93.8926 561.292 93.8926Z"
      fill="white"
    />
<path
      d="M561.873 89.2535C561.438 89.2535 560.858 89.2535 560.423 89.3984C557.233 89.9783 554.913 92.7328 554.913 96.0672C554.913 99.8364 557.958 102.881 561.728 102.881C563.613 102.881 565.353 102.156 566.513 100.851C567.818 99.5465 568.543 97.9518 568.543 96.0672C568.543 92.2979 565.498 89.2535 561.873 89.2535ZM563.903 96.0672C563.903 95.6322 563.758 95.1973 563.468 94.7624L566.078 92.1529C566.948 93.1677 567.528 94.4725 567.673 96.0672H563.903ZM557.668 100.561L560.278 97.9518C560.568 98.0968 560.858 98.2417 561.293 98.3867V102.156C559.988 102.011 558.683 101.431 557.668 100.561ZM563.178 94.3275C562.888 94.0376 562.453 93.8926 561.873 93.8926V90.1233C563.323 90.1233 564.773 90.7032 565.788 91.718L563.178 94.3275ZM559.408 96.0672H555.638C555.638 94.6174 556.218 93.3127 557.088 92.2979L559.698 94.9074C559.553 95.1973 559.408 95.6322 559.408 96.0672ZM559.408 96.5021C559.553 96.937 559.698 97.2269 559.843 97.5169L557.233 100.126C556.363 99.1116 555.783 97.9518 555.638 96.5021H559.408ZM561.728 97.9518C560.713 97.9518 559.843 97.082 559.843 96.0672C559.843 95.0524 560.713 94.1825 561.728 94.1825C562.453 94.1825 563.033 94.6174 563.323 95.1973V95.3423C563.468 95.4873 563.468 95.7772 563.468 96.0672C563.468 96.3571 563.468 96.5021 563.323 96.792C563.178 97.5169 562.453 97.9518 561.728 97.9518ZM561.873 98.3867C562.308 98.3867 562.598 98.2417 562.888 98.0968L565.498 100.706C564.483 101.576 563.178 102.156 561.873 102.156V98.3867ZM561.293 90.1233V93.8926C560.858 94.0376 560.423 94.1825 560.133 94.4725L557.523 91.863C558.538 90.8482 559.843 90.2683 561.293 90.1233ZM565.933 100.271L563.323 97.6619C563.613 97.3719 563.758 96.937 563.903 96.5021H567.673C567.528 97.9518 566.948 99.2565 565.933 100.271Z"
      fill="white"
    />

</g>
<g>
<path
      d="M599.863 111.869C608.591 111.869 615.667 104.794 615.667 96.0672C615.667 87.34 608.591 80.2652 599.863 80.2652C591.134 80.2652 584.058 87.34 584.058 96.0672C584.058 104.794 591.134 111.869 599.863 111.869Z"
      fill="#3B5266"
    />
<path
      d="M589.133 96.0672C589.133 91.863 591.453 88.3836 594.933 86.499L594.353 85.6292C590.583 87.6588 587.973 91.573 587.973 96.0672C587.973 100.561 590.583 104.476 594.353 106.505L594.933 105.635C591.453 103.896 589.133 100.271 589.133 96.0672Z"
      fill="#76C1AA"
    />
<path
      d="M605.372 85.6292L604.938 86.499C608.417 88.2387 610.882 91.863 610.882 96.0672C610.882 100.271 608.417 103.896 604.938 105.635L605.372 106.505C609.142 104.476 611.752 100.561 611.752 96.0672C611.607 91.573 609.142 87.6588 605.372 85.6292Z"
      fill="#76C1AA"
    />
<path
      opacity="0.3"
      d="M599.863 98.3867C601.144 98.3867 602.182 97.3482 602.182 96.0672C602.182 94.7861 601.144 93.7476 599.863 93.7476C598.581 93.7476 597.542 94.7861 597.542 96.0672C597.542 97.3482 598.581 98.3867 599.863 98.3867Z"
      fill="white"
    />
<path
      opacity="0.3"
      d="M601.313 94.3275L603.923 91.718C602.908 90.7032 601.603 90.1233 600.008 90.1233V93.8926C600.443 93.8926 600.878 94.0376 601.313 94.3275Z"
      fill="white"
    />
<path
      opacity="0.3"
      d="M602.038 96.0672H605.808C605.808 94.6174 605.228 93.1677 604.213 92.1529L601.603 94.7624C601.893 95.0524 602.038 95.4873 602.038 96.0672Z"
      fill="white"
    />
<path
      opacity="0.3"
      d="M601.458 97.6619L604.068 100.271C605.083 99.2566 605.663 97.9518 605.663 96.5021H601.893C602.038 96.937 601.748 97.3719 601.458 97.6619Z"
      fill="white"
    />
<path
      opacity="0.3"
      d="M598.413 97.9518L595.803 100.561C596.818 101.431 597.978 102.011 599.428 102.011V98.2418C599.138 98.2418 598.703 98.0968 598.413 97.9518Z"
      fill="white"
    />
<path
      opacity="0.3"
      d="M600.008 98.3867V102.156C601.458 102.156 602.763 101.576 603.633 100.706L601.023 98.0968C600.733 98.2417 600.443 98.3867 600.008 98.3867Z"
      fill="white"
    />
<path
      opacity="0.3"
      d="M597.978 94.9074L595.368 92.2979C594.498 93.3127 593.918 94.6174 593.918 96.0672H597.688C597.543 95.6322 597.688 95.1973 597.978 94.9074Z"
      fill="white"
    />
<path
      opacity="0.3"
      d="M597.543 96.5021H593.773C593.918 97.9518 594.498 99.1116 595.368 100.126L597.978 97.5169C597.833 97.2269 597.688 96.937 597.543 96.5021Z"
      fill="white"
    />
<path
      opacity="0.3"
      d="M599.428 93.8926V90.1233C597.978 90.2683 596.673 90.8482 595.658 91.718L598.268 94.3275C598.558 94.1825 598.993 93.8926 599.428 93.8926Z"
      fill="white"
    />
<path
      d="M600.008 89.2535C599.573 89.2535 598.993 89.2535 598.558 89.3984C595.368 89.9783 593.048 92.7328 593.048 96.0672C593.048 99.8364 596.093 102.881 599.863 102.881C601.748 102.881 603.488 102.156 604.648 100.851C605.953 99.5465 606.678 97.9518 606.678 96.0672C606.678 92.2979 603.633 89.2535 600.008 89.2535ZM602.038 96.0672C602.038 95.6322 601.893 95.1973 601.603 94.7624L604.213 92.1529C605.083 93.1677 605.663 94.4725 605.808 96.0672H602.038ZM595.803 100.561L598.413 97.9518C598.703 98.0968 598.993 98.2417 599.428 98.3867V102.156C598.123 102.011 596.818 101.431 595.803 100.561ZM601.313 94.3275C601.023 94.0376 600.588 93.8926 600.008 93.8926V90.1233C601.458 90.1233 602.908 90.7032 603.923 91.718L601.313 94.3275ZM597.543 96.0672H593.773C593.773 94.6174 594.353 93.3127 595.223 92.2979L597.833 94.9074C597.688 95.1973 597.543 95.6322 597.543 96.0672ZM597.543 96.5021C597.688 96.937 597.833 97.2269 597.978 97.5169L595.368 100.126C594.498 99.1116 593.918 97.9518 593.773 96.5021H597.543ZM599.863 97.9518C598.848 97.9518 597.978 97.082 597.978 96.0672C597.978 95.0524 598.848 94.1825 599.863 94.1825C600.588 94.1825 601.168 94.6174 601.458 95.1973V95.3423C601.603 95.4873 601.603 95.7772 601.603 96.0672C601.603 96.3571 601.603 96.5021 601.458 96.792C601.313 97.5169 600.588 97.9518 599.863 97.9518ZM600.008 98.3867C600.443 98.3867 600.733 98.2417 601.023 98.0968L603.633 100.706C602.618 101.576 601.313 102.156 600.008 102.156V98.3867ZM599.428 90.1233V93.8926C598.993 94.0376 598.558 94.1825 598.268 94.4725L595.658 91.863C596.673 90.8482 597.978 90.2683 599.428 90.1233ZM604.068 100.271L601.458 97.6619C601.748 97.3719 601.893 96.937 602.038 96.5021H605.808C605.663 97.9518 605.083 99.2565 604.068 100.271Z"
      fill="white"
    />

</g>
<g>

<path
      d="M637.997 111.869C646.726 111.869 653.802 104.794 653.802 96.0672C653.802 87.34 646.726 80.2652 637.997 80.2652C629.269 80.2652 622.192 87.34 622.192 96.0672C622.192 104.794 629.269 111.869 637.997 111.869Z"
      fill="#3B5266"
    />
<path
      d="M627.267 96.0672C627.267 91.863 629.587 88.3836 633.067 86.499L632.487 85.6292C628.717 87.6588 626.107 91.573 626.107 96.0672C626.107 100.561 628.717 104.476 632.487 106.505L633.067 105.635C629.587 103.896 627.267 100.271 627.267 96.0672Z"
      fill="#76C1AA"
    />
<path
      d="M643.507 85.6292L643.072 86.499C646.552 88.2387 649.017 91.863 649.017 96.0672C649.017 100.271 646.552 103.896 643.072 105.635L643.507 106.505C647.277 104.476 649.887 100.561 649.887 96.0672C649.742 91.573 647.132 87.6588 643.507 85.6292Z"
      fill="#76C1AA"
    />
<path
      opacity="0.3"
      d="M637.997 98.3867C639.278 98.3867 640.317 97.3482 640.317 96.0672C640.317 94.7861 639.278 93.7476 637.997 93.7476C636.716 93.7476 635.677 94.7861 635.677 96.0672C635.677 97.3482 636.716 98.3867 637.997 98.3867Z"
      fill="white"
    />
<path
      opacity="0.3"
      d="M639.447 94.3275L642.057 91.718C641.042 90.7032 639.737 90.1233 638.142 90.1233V93.8926C638.577 93.8926 639.012 94.0376 639.447 94.3275Z"
      fill="white"
    />
<path
      opacity="0.3"
      d="M640.172 96.0672H643.942C643.942 94.6174 643.362 93.1677 642.347 92.1529L639.737 94.7624C640.027 95.0524 640.172 95.4873 640.172 96.0672Z"
      fill="white"
    />
<path
      opacity="0.3"
      d="M639.592 97.6619L642.202 100.271C643.217 99.2566 643.797 97.9518 643.797 96.5021H640.027C640.027 96.937 639.882 97.3719 639.592 97.6619Z"
      fill="white"
    />
<path
      opacity="0.3"
      d="M636.547 97.9518L633.938 100.561C634.952 101.431 636.112 102.011 637.562 102.011V98.2418C637.272 98.2418 636.837 98.0968 636.547 97.9518Z"
      fill="white"
    />
<path
      opacity="0.3"
      d="M638.142 98.3867V102.156C639.592 102.156 640.897 101.576 641.767 100.706L639.157 98.0968C638.867 98.2417 638.577 98.3867 638.142 98.3867Z"
      fill="white"
    />
<path
      opacity="0.3"
      d="M636.112 94.9074L633.502 92.2979C632.632 93.3127 632.052 94.6174 632.052 96.0672H635.822C635.677 95.6322 635.822 95.1973 636.112 94.9074Z"
      fill="white"
    />
<path
      opacity="0.3"
      d="M635.677 96.5021H631.907C632.052 97.9518 632.632 99.1116 633.502 100.126L636.112 97.5169C635.967 97.2269 635.822 96.937 635.677 96.5021Z"
      fill="white"
    />
<path
      opacity="0.3"
      d="M637.562 93.8926V90.1233C636.112 90.2683 634.807 90.8482 633.792 91.718L636.402 94.3275C636.692 94.1825 637.127 93.8926 637.562 93.8926Z"
      fill="white"
    />
<path
      d="M638.142 89.2535C637.707 89.2535 637.127 89.2535 636.692 89.3984C633.502 89.9783 631.182 92.7328 631.182 96.0672C631.182 99.8364 634.227 102.881 637.997 102.881C639.882 102.881 641.622 102.156 642.782 100.851C644.087 99.5465 644.812 97.9518 644.812 96.0672C644.812 92.2979 641.767 89.2535 638.142 89.2535ZM640.172 96.0672C640.172 95.6322 640.027 95.1973 639.737 94.7624L642.347 92.1529C643.217 93.1677 643.797 94.4725 643.942 96.0672H640.172ZM633.937 100.561L636.547 97.9518C636.837 98.0968 637.127 98.2417 637.562 98.3867V102.156C636.257 102.011 634.952 101.431 633.937 100.561ZM639.447 94.3275C639.157 94.0376 638.722 93.8926 638.142 93.8926V90.1233C639.592 90.1233 641.042 90.7032 642.057 91.718L639.447 94.3275ZM635.677 96.0672H631.907C631.907 94.6174 632.487 93.3127 633.357 92.2979L635.967 94.9074C635.822 95.1973 635.677 95.6322 635.677 96.0672ZM635.677 96.5021C635.822 96.937 635.967 97.2269 636.112 97.5169L633.502 100.126C632.632 99.1116 632.052 97.9518 631.907 96.5021H635.677ZM637.997 97.9518C636.982 97.9518 636.112 97.082 636.112 96.0672C636.112 95.0524 636.982 94.1825 637.997 94.1825C638.722 94.1825 639.302 94.6174 639.592 95.1973V95.3423C639.737 95.4873 639.737 95.7772 639.737 96.0672C639.737 96.3571 639.737 96.5021 639.592 96.792C639.447 97.5169 638.722 97.9518 637.997 97.9518ZM638.142 98.3867C638.577 98.3867 638.867 98.2417 639.157 98.0968L641.767 100.706C640.752 101.576 639.447 102.156 638.142 102.156V98.3867ZM637.562 90.1233V93.8926C637.127 94.0376 636.692 94.1825 636.402 94.4725L633.792 91.863C634.807 90.8482 636.112 90.2683 637.562 90.1233ZM642.202 100.271L639.592 97.6619C639.882 97.3719 640.027 96.937 640.172 96.5021H643.942C643.797 97.9518 643.217 99.2565 642.202 100.271Z"
      fill="white"
    />
</g>
<g>
<path
      d="M676.132 111.869C684.861 111.869 691.937 104.794 691.937 96.0672C691.937 87.34 684.861 80.2652 676.132 80.2652C667.403 80.2652 660.327 87.34 660.327 96.0672C660.327 104.794 667.403 111.869 676.132 111.869Z"
      fill="#3B5266"
    />
<path
      d="M665.402 96.0672C665.402 91.863 667.722 88.3836 671.202 86.499L670.622 85.6292C666.852 87.6588 664.242 91.573 664.242 96.0672C664.242 100.561 666.852 104.476 670.622 106.505L671.202 105.635C667.722 103.896 665.402 100.271 665.402 96.0672Z"
      fill="#76C1AA"
    />
<path
      d="M681.497 85.6292L681.062 86.499C684.542 88.2387 687.007 91.863 687.007 96.0672C687.007 100.271 684.542 103.896 681.062 105.635L681.497 106.505C685.267 104.476 687.877 100.561 687.877 96.0672C687.877 91.573 685.267 87.6588 681.497 85.6292Z"
      fill="#76C1AA"
    />
<path
      opacity="0.3"
      d="M676.132 98.3867C677.413 98.3867 678.452 97.3482 678.452 96.0672C678.452 94.7861 677.413 93.7476 676.132 93.7476C674.851 93.7476 673.812 94.7861 673.812 96.0672C673.812 97.3482 674.851 98.3867 676.132 98.3867Z"
      fill="white"
    />
<path
      opacity="0.3"
      d="M677.582 94.3275L680.192 91.718C679.177 90.7032 677.872 90.1233 676.277 90.1233V93.8926C676.712 93.8926 677.147 94.0376 677.582 94.3275Z"
      fill="white"
    />
<path
      opacity="0.3"
      d="M678.308 96.0672H682.078C682.078 94.6174 681.498 93.1677 680.483 92.1529L677.873 94.7624C678.163 95.0524 678.308 95.4873 678.308 96.0672Z"
      fill="white"
    />
<path
      opacity="0.3"
      d="M677.728 97.6619L680.337 100.271C681.352 99.2566 681.932 97.9518 681.932 96.5021H678.163C678.163 96.937 678.018 97.3719 677.728 97.6619Z"
      fill="white"
    />
<path
      opacity="0.3"
      d="M674.682 97.9518L672.072 100.561C673.087 101.431 674.247 102.011 675.697 102.011V98.2418C675.407 98.2418 674.972 98.0968 674.682 97.9518Z"
      fill="white"
    />
<path
      opacity="0.3"
      d="M676.277 98.3867V102.156C677.727 102.156 679.032 101.576 679.902 100.706L677.292 98.0968C677.002 98.2417 676.712 98.3867 676.277 98.3867Z"
      fill="white"
    />
<path
      opacity="0.3"
      d="M674.247 94.9074L671.637 92.2979C670.767 93.3127 670.188 94.6174 670.188 96.0672H673.957C673.812 95.6322 673.957 95.1973 674.247 94.9074Z"
      fill="white"
    />
<path
      opacity="0.3"
      d="M673.813 96.5021H670.042C670.187 97.9518 670.768 99.1116 671.638 100.126L674.247 97.5169C674.102 97.2269 673.958 96.937 673.813 96.5021Z"
      fill="white"
    />
<path
      opacity="0.3"
      d="M675.698 93.8926V90.1233C674.248 90.2683 672.943 90.8482 671.928 91.718L674.538 94.3275C674.828 94.1825 675.263 93.8926 675.698 93.8926Z"
      fill="white"
    />
<path
      d="M676.277 89.2535C675.842 89.2535 675.262 89.2535 674.827 89.3984C671.637 89.9783 669.317 92.7328 669.317 96.0672C669.317 99.8364 672.362 102.881 676.132 102.881C678.017 102.881 679.757 102.156 680.917 100.851C682.222 99.5465 682.947 97.9518 682.947 96.0672C682.947 92.2979 679.902 89.2535 676.277 89.2535ZM678.307 96.0672C678.307 95.6322 678.162 95.1973 677.872 94.7624L680.482 92.1529C681.352 93.1677 681.932 94.4725 682.077 96.0672H678.307ZM672.072 100.561L674.682 97.9518C674.972 98.0968 675.262 98.2417 675.697 98.3867V102.156C674.247 102.011 673.087 101.431 672.072 100.561ZM677.582 94.3275C677.292 94.0376 676.857 93.8926 676.277 93.8926V90.1233C677.727 90.1233 679.177 90.7032 680.192 91.718L677.582 94.3275ZM673.812 96.0672H670.042C670.042 94.6174 670.622 93.3127 671.492 92.2979L674.102 94.9074C673.957 95.1973 673.812 95.6322 673.812 96.0672ZM673.812 96.5021C673.957 96.937 674.102 97.2269 674.247 97.5169L671.637 100.126C670.767 99.1116 670.187 97.9518 670.042 96.5021H673.812ZM676.132 97.9518C675.117 97.9518 674.247 97.082 674.247 96.0672C674.247 95.0524 675.117 94.1825 676.132 94.1825C676.857 94.1825 677.437 94.6174 677.727 95.1973V95.3423C677.872 95.4873 677.872 95.7772 677.872 96.0672C677.872 96.3571 677.872 96.5021 677.727 96.792C677.582 97.5169 676.857 97.9518 676.132 97.9518ZM676.277 98.3867C676.712 98.3867 677.002 98.2417 677.292 98.0968L679.902 100.706C678.887 101.576 677.582 102.156 676.277 102.156V98.3867ZM675.697 90.1233V93.8926C675.262 94.0376 674.827 94.1825 674.537 94.4725L671.927 91.863C672.942 90.8482 674.247 90.2683 675.697 90.1233ZM680.337 100.271L677.727 97.6619C678.017 97.3719 678.162 96.937 678.307 96.5021H682.077C681.932 97.9518 681.352 99.2565 680.337 100.271Z"
      fill="white"
    />

</g>
<g>
<path
      d="M714.267 111.869C722.996 111.869 730.072 104.794 730.072 96.0672C730.072 87.34 722.996 80.2652 714.267 80.2652C705.538 80.2652 698.462 87.34 698.462 96.0672C698.462 104.794 705.538 111.869 714.267 111.869Z"
      fill="#3B5266"
    />
<path
      d="M703.537 96.0672C703.537 91.863 705.857 88.3836 709.337 86.499L708.757 85.6292C704.987 87.6588 702.377 91.573 702.377 96.0672C702.377 100.561 704.987 104.476 708.757 106.505L709.337 105.635C705.857 103.896 703.537 100.271 703.537 96.0672Z"
      fill="#76C1AA"
    />
<path
      d="M719.632 85.6292L719.197 86.499C722.677 88.2387 725.142 91.863 725.142 96.0672C725.142 100.271 722.677 103.896 719.197 105.635L719.632 106.505C723.402 104.476 726.012 100.561 726.012 96.0672C726.012 91.573 723.402 87.6588 719.632 85.6292Z"
      fill="#76C1AA"
    />
<path
      opacity="0.3"
      d="M714.267 98.3867C715.548 98.3867 716.587 97.3482 716.587 96.0672C716.587 94.7861 715.548 93.7476 714.267 93.7476C712.985 93.7476 711.947 94.7861 711.947 96.0672C711.947 97.3482 712.985 98.3867 714.267 98.3867Z"
      fill="white"
    />
<path
      opacity="0.3"
      d="M715.717 94.3275L718.327 91.718C717.312 90.7032 716.007 90.1233 714.412 90.1233V93.8926C714.847 93.8926 715.282 94.0376 715.717 94.3275Z"
      fill="white"
    />
<path
      opacity="0.3"
      d="M716.442 96.0672H720.212C720.212 94.6174 719.632 93.1677 718.617 92.1529L716.007 94.7624C716.297 95.0524 716.442 95.4873 716.442 96.0672Z"
      fill="white"
    />
<path
      opacity="0.3"
      d="M715.862 97.6619L718.472 100.271C719.487 99.2566 720.067 97.9518 720.067 96.5021H716.297C716.297 96.937 716.152 97.3719 715.862 97.6619Z"
      fill="white"
    />
<path
      opacity="0.3"
      d="M712.817 97.9518L710.207 100.561C711.222 101.431 712.382 102.011 713.832 102.011V98.2418C713.542 98.2418 713.107 98.0968 712.817 97.9518Z"
      fill="white"
    />
<path
      opacity="0.3"
      d="M714.412 98.3867V102.156C715.862 102.156 717.167 101.576 718.037 100.706L715.427 98.0968C715.137 98.2417 714.847 98.3867 714.412 98.3867Z"
      fill="white"
    />
<path
      opacity="0.3"
      d="M712.382 94.9074L709.772 92.2979C708.902 93.3127 708.322 94.6174 708.322 96.0672H712.092C711.947 95.6322 712.092 95.1973 712.382 94.9074Z"
      fill="white"
    />
<path
      opacity="0.3"
      d="M711.947 96.5021H708.177C708.322 97.9518 708.902 99.1116 709.772 100.126L712.382 97.5169C712.237 97.2269 712.092 96.937 711.947 96.5021Z"
      fill="white"
    />
<path
      opacity="0.3"
      d="M713.831 93.8926V90.1233C712.381 90.2683 711.077 90.8482 710.062 91.718L712.672 94.3275C712.962 94.1825 713.396 93.8926 713.831 93.8926Z"
      fill="white"
    />
<path
      d="M714.267 89.2535C713.832 89.2535 713.252 89.2535 712.817 89.3984C709.627 89.9783 707.307 92.7328 707.307 96.0672C707.307 99.8364 710.352 102.881 714.122 102.881C716.007 102.881 717.747 102.156 718.907 100.851C720.212 99.5465 720.937 97.9518 720.937 96.0672C721.082 92.2979 718.037 89.2535 714.267 89.2535ZM716.442 96.0672C716.442 95.6322 716.297 95.1973 716.007 94.7624L718.617 92.1529C719.487 93.1677 720.067 94.4725 720.212 96.0672H716.442ZM710.207 100.561L712.817 97.9518C713.107 98.0968 713.397 98.2417 713.832 98.3867V102.156C712.382 102.011 711.222 101.431 710.207 100.561ZM715.717 94.3275C715.427 94.0376 714.992 93.8926 714.412 93.8926V90.1233C715.862 90.1233 717.312 90.7032 718.327 91.718L715.717 94.3275ZM711.947 96.0672H708.177C708.177 94.6174 708.757 93.3127 709.627 92.2979L712.237 94.9074C712.092 95.1973 711.947 95.6322 711.947 96.0672ZM711.947 96.5021C712.092 96.937 712.237 97.2269 712.382 97.5169L709.772 100.126C708.902 99.1116 708.322 97.9518 708.177 96.5021H711.947ZM714.267 97.9518C713.252 97.9518 712.382 97.082 712.382 96.0672C712.382 95.0524 713.252 94.1825 714.267 94.1825C714.992 94.1825 715.572 94.6174 715.862 95.1973V95.3423C716.007 95.4873 716.007 95.7772 716.007 96.0672C716.007 96.3571 716.007 96.5021 715.862 96.792C715.717 97.5169 714.992 97.9518 714.267 97.9518ZM714.412 98.3867C714.847 98.3867 715.137 98.2417 715.427 98.0968L718.037 100.706C717.022 101.576 715.717 102.156 714.412 102.156V98.3867ZM713.832 90.1233V93.8926C713.397 94.0376 712.962 94.1825 712.672 94.4725L710.062 91.863C711.077 90.8482 712.382 90.2683 713.832 90.1233ZM718.472 100.271L715.862 97.6619C716.152 97.3719 716.297 96.937 716.442 96.5021H720.212C720.067 97.9518 719.487 99.2565 718.472 100.271Z"
      fill="white"
    />
</g>
<g>
<path
      d="M752.402 111.869C761.131 111.869 768.207 104.794 768.207 96.0672C768.207 87.34 761.131 80.2652 752.402 80.2652C743.673 80.2652 736.597 87.34 736.597 96.0672C736.597 104.794 743.673 111.869 752.402 111.869Z"
      fill="#3B5266"
    />
<path
      d="M741.672 96.0672C741.672 91.863 743.992 88.3836 747.472 86.499L746.892 85.6292C743.122 87.6588 740.512 91.573 740.512 96.0672C740.512 100.561 743.122 104.476 746.892 106.505L747.472 105.635C743.992 103.896 741.672 100.271 741.672 96.0672Z"
      fill="#76C1AA"
    />
<path
      d="M757.767 85.6292L757.332 86.499C760.812 88.2387 763.277 91.863 763.277 96.0672C763.277 100.271 760.812 103.896 757.332 105.635L757.767 106.505C761.537 104.476 764.147 100.561 764.147 96.0672C764.147 91.573 761.537 87.6588 757.767 85.6292Z"
      fill="#76C1AA"
    />
<path
      opacity="0.3"
      d="M752.402 98.3867C753.683 98.3867 754.722 97.3482 754.722 96.0672C754.722 94.7861 753.683 93.7476 752.402 93.7476C751.121 93.7476 750.082 94.7861 750.082 96.0672C750.082 97.3482 751.121 98.3867 752.402 98.3867Z"
      fill="white"
    />
<path
      opacity="0.3"
      d="M753.707 94.3275L756.317 91.718C755.302 90.7032 753.997 90.1233 752.402 90.1233V93.8926C752.982 93.8926 753.417 94.0376 753.707 94.3275Z"
      fill="white"
    />
<path
      opacity="0.3"
      d="M754.578 96.0672H758.348C758.348 94.6174 757.768 93.1677 756.753 92.1529L754.143 94.7624C754.433 95.0524 754.578 95.4873 754.578 96.0672Z"
      fill="white"
    />
<path
      opacity="0.3"
      d="M753.998 97.6619L756.607 100.271C757.622 99.2566 758.203 97.9518 758.203 96.5021H754.433C754.433 96.937 754.288 97.3719 753.998 97.6619Z"
      fill="white"
    />
<path
      opacity="0.3"
      d="M750.952 97.9518L748.342 100.561C749.357 101.431 750.517 102.011 751.967 102.011V98.2418C751.532 98.2418 751.242 98.0968 750.952 97.9518Z"
      fill="white"
    />
<path
      opacity="0.3"
      d="M752.547 98.3867V102.156C753.997 102.156 755.302 101.576 756.172 100.706L753.562 98.0968C753.272 98.2417 752.837 98.3867 752.547 98.3867Z"
      fill="white"
    />
<path
      opacity="0.3"
      d="M750.372 94.9074L747.762 92.2979C746.892 93.3127 746.312 94.6174 746.312 96.0672H750.082C750.082 95.6322 750.227 95.1973 750.372 94.9074Z"
      fill="white"
    />
<path
      opacity="0.3"
      d="M750.083 96.5021H746.312C746.458 97.9518 747.037 99.1116 747.907 100.126L750.518 97.5169C750.373 97.2269 750.228 96.937 750.083 96.5021Z"
      fill="white"
    />
<path
      opacity="0.3"
      d="M751.967 93.8926V90.1233C750.517 90.2683 749.212 90.8482 748.197 91.718L750.807 94.3275C751.097 94.1825 751.532 93.8926 751.967 93.8926Z"
      fill="white"
    />
<path
      d="M752.402 89.2535C751.967 89.2535 751.387 89.2535 750.952 89.3984C747.762 89.9783 745.442 92.7328 745.442 96.0672C745.442 99.8364 748.487 102.881 752.257 102.881C754.142 102.881 755.882 102.156 757.042 100.851C758.347 99.5465 759.072 97.9518 759.072 96.0672C759.217 92.2979 756.172 89.2535 752.402 89.2535ZM754.577 96.0672C754.577 95.6322 754.432 95.1973 754.142 94.7624L756.752 92.1529C757.622 93.1677 758.202 94.4725 758.347 96.0672H754.577ZM748.342 100.561L750.952 97.9518C751.242 98.0968 751.532 98.2417 751.967 98.3867V102.156C750.517 102.011 749.357 101.431 748.342 100.561ZM753.707 94.3275C753.417 94.0376 752.982 93.8926 752.402 93.8926V90.1233C753.852 90.1233 755.302 90.7032 756.317 91.718L753.707 94.3275ZM750.082 96.0672H746.312C746.312 94.6174 746.892 93.3127 747.762 92.2979L750.372 94.9074C750.227 95.1973 750.082 95.6322 750.082 96.0672ZM750.082 96.5021C750.227 96.937 750.372 97.2269 750.517 97.5169L747.907 100.126C747.037 99.1116 746.457 97.9518 746.312 96.5021H750.082ZM752.402 97.9518C751.387 97.9518 750.517 97.082 750.517 96.0672C750.517 95.0524 751.387 94.1825 752.402 94.1825C753.127 94.1825 753.707 94.6174 753.997 95.1973V95.3423C754.142 95.4873 754.142 95.7772 754.142 96.0672C754.142 96.3571 754.142 96.5021 753.997 96.792C753.852 97.5169 753.127 97.9518 752.402 97.9518ZM752.547 98.3867C752.982 98.3867 753.272 98.2417 753.562 98.0968L756.172 100.706C755.157 101.576 753.852 102.156 752.547 102.156V98.3867ZM751.967 90.1233V93.8926C751.532 94.0376 751.097 94.1825 750.807 94.4725L748.197 91.863C749.212 90.8482 750.517 90.2683 751.967 90.1233ZM756.607 100.271L753.997 97.6619C754.287 97.3719 754.432 96.937 754.577 96.5021H758.347C758.202 97.9518 757.622 99.2565 756.607 100.271Z"
      fill="white"
    />
</g>
<g>
<path
      d="M790.537 111.869C799.266 111.869 806.342 104.794 806.342 96.0672C806.342 87.34 799.266 80.2652 790.537 80.2652C781.808 80.2652 774.732 87.34 774.732 96.0672C774.732 104.794 781.808 111.869 790.537 111.869Z"
      fill="#3B5266"
    />
<path
      d="M779.807 96.0672C779.807 91.863 782.127 88.3836 785.607 86.499L785.027 85.6292C781.257 87.6588 778.647 91.573 778.647 96.0672C778.647 100.561 781.257 104.476 785.027 106.505L785.607 105.635C782.127 103.896 779.807 100.271 779.807 96.0672Z"
      fill="#76C1AA"
    />
<path
      d="M795.902 85.6292L795.467 86.499C798.947 88.2387 801.412 91.863 801.412 96.0672C801.412 100.271 798.947 103.896 795.467 105.635L795.902 106.505C799.672 104.476 802.282 100.561 802.282 96.0672C802.282 91.573 799.672 87.6588 795.902 85.6292Z"
      fill="#76C1AA"
    />
<path
      opacity="0.3"
      d="M790.537 98.3867C791.818 98.3867 792.857 97.3482 792.857 96.0672C792.857 94.7861 791.818 93.7476 790.537 93.7476C789.256 93.7476 788.217 94.7861 788.217 96.0672C788.217 97.3482 789.256 98.3867 790.537 98.3867Z"
      fill="white"
    />
<path
      opacity="0.3"
      d="M791.843 94.3275L794.453 91.718C793.438 90.7032 792.133 90.1233 790.538 90.1233V93.8926C791.118 93.8926 791.553 94.0376 791.843 94.3275Z"
      fill="white"
    />
<path
      opacity="0.3"
      d="M792.712 96.0672H796.482C796.482 94.6174 795.902 93.1677 794.887 92.1529L792.277 94.7624C792.567 95.0524 792.712 95.4873 792.712 96.0672Z"
      fill="white"
    />
<path
      opacity="0.3"
      d="M792.132 97.6619L794.742 100.271C795.757 99.2566 796.337 97.9518 796.337 96.5021H792.567C792.567 96.937 792.422 97.3719 792.132 97.6619Z"
      fill="white"
    />
<path
      opacity="0.3"
      d="M789.087 97.9518L786.478 100.561C787.493 101.431 788.653 102.011 790.102 102.011V98.2418C789.667 98.2418 789.377 98.0968 789.087 97.9518Z"
      fill="white"
    />
<path
      opacity="0.3"
      d="M790.682 98.3867V102.156C792.132 102.156 793.437 101.576 794.307 100.706L791.697 98.0968C791.407 98.2417 790.972 98.3867 790.682 98.3867Z"
      fill="white"
    />
<path
      opacity="0.3"
      d="M788.507 94.9074L785.897 92.2979C785.027 93.3127 784.447 94.6174 784.447 96.0672H788.217C788.217 95.6322 788.362 95.1973 788.507 94.9074Z"
      fill="white"
    />
<path
      opacity="0.3"
      d="M788.217 96.5021H784.447C784.592 97.9518 785.172 99.1116 786.042 100.126L788.652 97.5169C788.507 97.2269 788.362 96.937 788.217 96.5021Z"
      fill="white"
    />
<path
      opacity="0.3"
      d="M790.102 93.8926V90.1233C788.652 90.2683 787.347 90.8482 786.332 91.718L788.942 94.3275C789.232 94.1825 789.667 93.8926 790.102 93.8926Z"
      fill="white"
    />
<path
      d="M790.537 89.2535C790.102 89.2535 789.522 89.2535 789.087 89.3984C785.897 89.9783 783.577 92.7328 783.577 96.0672C783.577 99.8364 786.622 102.881 790.392 102.881C792.277 102.881 794.017 102.156 795.177 100.851C796.482 99.5465 797.207 97.9518 797.207 96.0672C797.352 92.2979 794.307 89.2535 790.537 89.2535ZM792.712 96.0672C792.712 95.6322 792.567 95.1973 792.277 94.7624L794.887 92.1529C795.757 93.1677 796.337 94.4725 796.482 96.0672H792.712ZM786.477 100.561L789.087 97.9518C789.377 98.0968 789.667 98.2417 790.102 98.3867V102.156C788.652 102.011 787.492 101.431 786.477 100.561ZM791.842 94.3275C791.552 94.0376 791.117 93.8926 790.537 93.8926V90.1233C791.987 90.1233 793.437 90.7032 794.452 91.718L791.842 94.3275ZM788.217 96.0672H784.447C784.447 94.6174 785.027 93.3127 785.897 92.2979L788.507 94.9074C788.362 95.1973 788.217 95.6322 788.217 96.0672ZM788.217 96.5021C788.362 96.937 788.507 97.2269 788.652 97.5169L786.042 100.126C785.172 99.1116 784.592 97.9518 784.447 96.5021H788.217ZM790.537 97.9518C789.522 97.9518 788.652 97.082 788.652 96.0672C788.652 95.0524 789.522 94.1825 790.537 94.1825C791.262 94.1825 791.842 94.6174 792.132 95.1973V95.3423C792.277 95.4873 792.277 95.7772 792.277 96.0672C792.277 96.3571 792.277 96.5021 792.132 96.792C791.987 97.5169 791.262 97.9518 790.537 97.9518ZM790.682 98.3867C791.117 98.3867 791.407 98.2417 791.697 98.0968L794.307 100.706C793.292 101.576 791.987 102.156 790.682 102.156V98.3867ZM790.102 90.1233V93.8926C789.667 94.0376 789.232 94.1825 788.942 94.4725L786.332 91.863C787.347 90.8482 788.652 90.2683 790.102 90.1233ZM794.742 100.271L792.132 97.6619C792.422 97.3719 792.567 96.937 792.712 96.5021H796.482C796.337 97.9518 795.757 99.2565 794.742 100.271Z"
      fill="white"
    />

</g>
<g>
<path
      d="M828.672 111.869C837.4 111.869 844.477 104.794 844.477 96.0672C844.477 87.34 837.4 80.2652 828.672 80.2652C819.943 80.2652 812.867 87.34 812.867 96.0672C812.867 104.794 819.943 111.869 828.672 111.869Z"
      fill="#3B5266"
    />
<path
      d="M817.942 96.0672C817.942 91.863 820.262 88.3836 823.742 86.499L823.162 85.6292C819.392 87.6588 816.782 91.573 816.782 96.0672C816.782 100.561 819.392 104.476 823.162 106.505L823.742 105.635C820.262 103.896 817.942 100.271 817.942 96.0672Z"
      fill="#76C1AA"
    />
<path
      d="M834.037 85.6292L833.602 86.499C837.082 88.2387 839.546 91.863 839.546 96.0672C839.546 100.271 837.082 103.896 833.602 105.635L834.037 106.505C837.807 104.476 840.416 100.561 840.416 96.0672C840.416 91.573 837.807 87.6588 834.037 85.6292Z"
      fill="#76C1AA"
    />
<path
      opacity="0.3"
      d="M828.672 98.3867C829.953 98.3867 830.991 97.3482 830.991 96.0672C830.991 94.7861 829.953 93.7476 828.672 93.7476C827.39 93.7476 826.352 94.7861 826.352 96.0672C826.352 97.3482 827.39 98.3867 828.672 98.3867Z"
      fill="white"
    />
<path
      opacity="0.3"
      d="M829.977 94.3275L832.587 91.718C831.572 90.7032 830.267 90.1233 828.672 90.1233V93.8926C829.252 93.8926 829.687 94.0376 829.977 94.3275Z"
      fill="white"
    />
<path
      opacity="0.3"
      d="M830.847 96.0672H834.617C834.617 94.6174 834.037 93.1677 833.022 92.1529L830.412 94.7624C830.702 95.0524 830.847 95.4873 830.847 96.0672Z"
      fill="white"
    />
<path
      opacity="0.3"
      d="M830.267 97.6619L832.877 100.271C833.892 99.2566 834.472 97.9518 834.472 96.5021H830.847C830.702 96.937 830.557 97.3719 830.267 97.6619Z"
      fill="white"
    />
<path
      opacity="0.3"
      d="M827.222 97.9518L824.612 100.561C825.627 101.431 826.787 102.011 828.237 102.011V98.2418C827.802 98.2418 827.512 98.0968 827.222 97.9518Z"
      fill="white"
    />
<path
      opacity="0.3"
      d="M828.817 98.3867V102.156C830.267 102.156 831.572 101.576 832.442 100.706L829.832 98.0968C829.542 98.2417 829.107 98.3867 828.817 98.3867Z"
      fill="white"
    />
<path
      opacity="0.3"
      d="M826.642 94.9074L824.032 92.2979C823.162 93.3127 822.582 94.6174 822.582 96.0672H826.352C826.352 95.6322 826.497 95.1973 826.642 94.9074Z"
      fill="white"
    />
<path
      opacity="0.3"
      d="M826.352 96.5021H822.582C822.727 97.9518 823.307 99.1116 824.177 100.126L826.787 97.5169C826.642 97.2269 826.497 96.937 826.352 96.5021Z"
      fill="white"
    />
<path
      opacity="0.3"
      d="M828.237 93.8926V90.1233C826.787 90.2683 825.482 90.8482 824.467 91.718L827.077 94.3275C827.367 94.1825 827.802 93.8926 828.237 93.8926Z"
      fill="white"
    />
<path
      d="M828.672 89.2535C828.237 89.2535 827.657 89.2535 827.222 89.3984C824.032 89.9783 821.712 92.7328 821.712 96.0672C821.712 99.8364 824.757 102.881 828.527 102.881C830.412 102.881 832.152 102.156 833.312 100.851C834.617 99.5465 835.342 97.9518 835.342 96.0672C835.487 92.2979 832.442 89.2535 828.672 89.2535ZM830.847 96.0672C830.847 95.6322 830.702 95.1973 830.412 94.7624L833.022 92.1529C833.892 93.1677 834.472 94.4725 834.617 96.0672H830.847ZM824.612 100.561L827.222 97.9518C827.512 98.0968 827.802 98.2417 828.237 98.3867V102.156C826.787 102.011 825.627 101.431 824.612 100.561ZM829.977 94.3275C829.687 94.0376 829.252 93.8926 828.672 93.8926V90.1233C830.122 90.1233 831.572 90.7032 832.587 91.718L829.977 94.3275ZM826.352 96.0672H822.582C822.582 94.6174 823.162 93.3127 824.032 92.2979L826.642 94.9074C826.497 95.1973 826.352 95.6322 826.352 96.0672ZM826.352 96.5021C826.497 96.937 826.642 97.2269 826.787 97.5169L824.177 100.126C823.307 99.1116 822.727 97.9518 822.582 96.5021H826.352ZM828.672 97.9518C827.657 97.9518 826.787 97.082 826.787 96.0672C826.787 95.0524 827.657 94.1825 828.672 94.1825C829.397 94.1825 829.977 94.6174 830.267 95.1973V95.3423C830.412 95.4873 830.412 95.7772 830.412 96.0672C830.412 96.3571 830.412 96.5021 830.267 96.792C830.122 97.5169 829.397 97.9518 828.672 97.9518ZM828.817 98.3867C829.252 98.3867 829.542 98.2417 829.832 98.0968L832.442 100.706C831.427 101.576 830.122 102.156 828.817 102.156V98.3867ZM828.237 90.1233V93.8926C827.802 94.0376 827.367 94.1825 827.077 94.4725L824.467 91.863C825.482 90.8482 826.787 90.2683 828.237 90.1233ZM832.877 100.271L830.267 97.6619C830.557 97.3719 830.702 96.937 830.847 96.5021H834.617C834.472 97.9518 833.892 99.2565 832.877 100.271Z"
      fill="white"
    />

</g>
<path
    d="M83.385 83.1646C83.385 83.1646 83.53 83.1646 83.385 83.1646C83.53 83.1646 83.53 83.1646 83.385 83.1646C83.53 83.1646 84.545 83.0196 85.27 82.4398C85.995 81.5699 86.2849 80.1202 85.7049 79.3953C85.4149 79.1054 84.98 78.9604 84.545 78.9604C84.11 79.1054 83.82 79.2504 83.675 79.6853C83.675 79.8303 83.675 79.8303 83.675 79.9752C83.82 79.9752 83.82 79.9752 83.965 79.9752C84.11 79.8303 84.255 79.8303 84.4 79.8303C84.545 79.8303 84.545 79.9752 84.6899 80.1202C84.6899 80.2652 84.69 80.4102 84.545 80.5551L84.4 80.7001C84.11 80.7001 83.675 80.4102 83.24 79.9752C82.805 79.5403 82.225 79.2504 81.79 78.9604C81.065 78.6705 78.89 78.2356 77.44 79.2504C77.44 79.2504 76.57 79.9752 76.425 80.5551C76.135 81.135 76.135 81.8599 76.28 82.2948C76.135 82.4398 75.99 82.5847 75.99 82.8747C75.99 83.3096 76.425 83.5995 77.15 83.7445C77.15 83.8895 77.005 83.8895 77.005 84.0345C77.005 84.4694 77.585 84.9043 78.31 84.9043C78.89 84.9043 79.325 84.7593 79.47 84.4694C79.615 84.7593 80.05 84.9043 80.63 84.9043C81.355 84.9043 81.935 84.4694 81.935 84.0345C81.935 83.8895 81.935 83.7445 81.79 83.7445C82.225 83.7445 82.515 83.5995 82.805 83.3096C82.805 83.3096 82.805 83.3096 82.95 83.3096C82.805 83.3096 83.095 83.3096 83.385 83.1646ZM84.4 82.5847C84.255 82.7297 83.965 82.7297 83.82 82.7297C83.965 81.8599 83.385 80.99 83.24 80.5551C83.53 80.8451 83.82 80.99 84.11 81.135C84.255 81.425 84.545 81.8599 84.4 82.5847ZM82.805 83.0197C82.805 82.8747 82.66 82.5847 82.515 82.2948C82.225 81.7149 81.645 80.8451 80.195 80.4101C78.31 79.8303 77.44 80.1202 77.005 80.4101C77.005 80.4101 77.005 80.4101 77.15 80.2652C77.295 80.1202 77.44 79.9752 77.585 79.8303C78.165 79.5403 79.18 79.5403 80.63 79.9752C82.515 80.5551 83.095 81.8599 83.24 82.4398C83.24 82.5847 83.385 82.8747 83.385 83.0197C83.385 83.0197 83.385 83.0197 83.24 83.0197C82.95 82.8747 82.95 83.0197 82.805 83.0197ZM80.05 81.135C79.76 81.135 79.615 81.28 79.47 81.425C79.18 81.135 78.89 80.99 78.31 80.99C78.165 80.99 78.02 80.99 77.875 80.99C78.31 80.8451 78.89 80.8451 79.47 80.8451C79.615 81.135 79.76 81.135 80.05 81.135ZM78.31 81.5699C78.745 81.5699 79.18 81.8599 79.18 82.0049C79.18 82.1498 79.035 82.2948 78.89 82.2948H78.745C78.6 82.2948 78.455 82.2948 78.31 82.2948C77.875 82.2948 77.44 82.0048 77.44 81.8599C77.44 81.7149 77.73 81.5699 78.31 81.5699ZM78.89 82.7297H79.035C79.18 82.7297 79.18 82.7297 79.325 82.7297C79.905 82.7297 80.195 83.0196 80.195 83.1646C80.195 83.3096 79.76 83.5995 79.325 83.5995C78.745 83.5995 78.455 83.3096 78.455 83.1646C78.455 83.0196 78.6 82.8747 78.89 82.7297ZM79.615 82.0049C79.615 81.8599 80.05 81.5699 80.485 81.5699C80.63 81.5699 80.63 81.5699 80.775 81.5699C81.065 81.5699 81.355 81.8599 81.355 82.0049C81.355 82.1498 81.21 82.2948 80.92 82.4398C80.775 82.4398 80.63 82.4398 80.485 82.4398C79.905 82.4398 79.615 82.1498 79.615 82.0049ZM76.86 82.2948C76.86 82.1498 76.86 82.1498 76.86 82.0049C76.86 81.8599 77.005 81.7149 77.15 81.5699C77.005 81.7149 77.005 81.8599 77.005 82.0049C77.005 82.1498 77.005 82.2948 77.15 82.2948C77.005 82.2948 77.005 82.2948 76.86 82.2948ZM76.28 83.1646C76.28 83.0196 76.425 83.0197 76.57 82.8747C76.715 82.8747 76.86 82.7297 77.005 82.7297C77.15 82.7297 77.15 82.7297 77.295 82.7297C77.875 82.7297 78.165 83.0196 78.165 83.1646C78.165 83.3096 78.02 83.3096 78.02 83.4546C77.875 83.5995 77.585 83.5995 77.295 83.5995C76.57 83.5995 76.28 83.3096 76.28 83.1646ZM78.165 84.7593C77.585 84.7593 77.295 84.6143 77.295 84.3244C77.295 84.1794 77.73 83.8895 78.165 83.8895C78.455 83.8895 78.6 83.8895 78.89 84.0345C78.89 84.0345 79.035 84.1794 79.035 84.3244C79.035 84.4694 78.6 84.7593 78.165 84.7593ZM80.485 84.7593C79.905 84.7593 79.615 84.4694 79.615 84.3244C79.615 84.3244 79.615 84.1794 79.76 84.1794C79.905 84.0345 80.195 83.8895 80.485 83.8895C80.63 83.8895 80.775 83.8895 80.92 83.8895C81.21 84.0345 81.355 84.1794 81.355 84.3244C81.355 84.4694 80.92 84.7593 80.485 84.7593ZM82.37 83.3096C82.225 83.4546 81.935 83.5995 81.5 83.5995C81.355 83.5995 81.21 83.5995 81.065 83.5995C80.775 83.4546 80.63 83.3096 80.63 83.1646C80.63 83.0196 80.775 82.8747 81.065 82.7297C81.21 82.7297 81.355 82.7297 81.5 82.7297C81.645 82.7297 81.645 82.7297 81.79 82.7297C82.08 82.7297 82.37 82.8747 82.37 83.3096C82.37 83.1646 82.37 83.1646 82.37 83.3096Z"
    fill="white"
  />
<path
    d="M93.8249 78.5255V67.9425C93.8249 67.7976 93.8249 67.6526 93.6799 67.6526C93.5349 67.6526 93.3899 67.6526 93.3899 67.6526L92.2299 68.2325V64.4632C92.2299 64.3182 92.2299 64.1733 92.0849 64.1733C91.9399 64.1733 91.7949 64.1733 91.7949 64.1733L86.5749 67.5076H86.4299C85.5599 67.7976 84.6899 67.9425 83.9649 67.9425C81.4999 67.9425 80.6299 66.3478 80.6299 66.3478C80.6299 66.2029 80.4849 66.2029 80.3399 66.2029C80.1949 66.2029 80.0499 66.3478 80.0499 66.3478C80.0499 66.3478 79.1799 67.9425 76.715 67.9425C75.99 67.9425 75.12 67.7976 74.25 67.5076L69.03 64.1733C68.885 64.1733 68.74 64.1733 68.595 64.1733C68.45 64.1733 68.45 64.3182 68.45 64.4632V68.2325L67.435 67.6526C67.29 67.6526 67.145 67.6526 67.145 67.6526C67 67.6526 67 67.7976 67 67.9425V78.5255C67 78.6705 67 81.28 69.175 83.3096C71.06 85.1942 73.96 86.209 77.875 86.209C77.875 86.209 77.875 86.209 78.02 86.209C79.47 86.6439 80.3399 86.9339 80.3399 88.2386C80.3399 88.3836 80.4849 88.5286 80.6299 88.5286C80.7749 88.5286 80.92 88.3836 80.92 88.2386C80.92 87.0789 81.7899 86.6439 83.2399 86.209H83.3849C87.2999 86.209 90.1999 85.1942 92.0849 83.3096C93.8249 81.28 93.8249 78.8155 93.8249 78.5255ZM75.265 75.4811C75.7 75.3361 75.845 74.4663 75.845 74.4663C75.845 74.4663 76.57 74.9012 77.005 74.7562C77.005 74.9012 77.005 75.3361 77.005 75.3361C77.005 75.3361 76.86 75.6261 77.005 75.916C77.15 76.061 77.15 76.3509 77.15 76.6409C76.86 76.6409 76.715 76.6409 76.425 76.6409C75.99 76.6409 75.555 76.6409 75.265 76.6409C75.265 76.061 75.265 75.916 75.265 75.4811ZM83.3849 74.9012H84.2549C84.2549 75.3361 84.2549 75.771 84.3999 76.4959L83.3849 76.3509C83.3849 75.771 83.3849 75.3361 83.3849 74.9012ZM90.4899 76.206C89.9099 76.7858 89.0399 77.0758 88.0249 77.0758C87.7349 76.3509 87.5899 75.6261 87.5899 75.0462L91.5049 72.8716C91.5049 73.3065 91.5049 75.1912 90.4899 76.206ZM69.03 73.0166L72.945 75.1911C72.945 75.771 72.8 76.4959 72.51 77.2208C71.495 77.2208 70.77 76.9308 70.19 76.3509C69.03 75.1912 69.03 73.3065 69.03 73.0166ZM93.0999 68.6674V75.1911L91.3599 76.206C92.2299 74.7562 92.2299 73.1615 92.2299 72.8716V69.1023L93.0999 68.6674ZM91.5049 68.6674L88.6049 70.4071C88.4599 70.2621 88.0249 69.6822 87.0099 68.0875L91.5049 65.1881V68.6674ZM83.8199 68.6674C84.5449 68.6674 85.4149 68.5224 86.2849 68.2325C87.2999 69.6822 87.7349 70.4071 88.0249 70.697C87.5899 71.4219 86.2849 73.8864 87.2999 76.9308C86.8649 76.4959 85.8499 76.3509 84.8349 76.3509C84.6899 75.6261 84.6899 75.1912 84.6899 74.7562H86.2849C86.4299 74.7562 86.4299 74.4663 86.4299 74.1763V72.7266C86.4299 71.5668 85.8499 71.5668 85.8499 71.5668C85.8499 71.5668 85.4149 71.5668 85.2699 70.987C85.1249 70.4071 84.6899 69.9722 84.2549 69.9722C83.8199 69.9722 82.9499 70.2621 82.3699 70.697C81.9349 70.842 81.9349 71.1319 81.9349 71.5668C81.7899 72.5816 81.4999 72.4367 81.4999 72.4367C81.3549 72.4367 81.2099 72.5816 81.2099 72.8716V74.3213C81.2099 74.6113 81.3549 74.9012 81.4999 74.9012H83.0949C83.0949 75.3361 83.0949 75.771 82.9499 76.4959C81.9349 76.4959 81.0649 76.7858 80.4849 77.2208V67.5076C80.9199 67.9425 82.0799 68.6674 83.8199 68.6674ZM79.76 67.6526V76.9308C79.325 76.6409 78.5999 76.4959 77.7299 76.4959C77.5849 76.061 77.5849 74.9012 77.7299 74.6113C78.4549 74.4663 78.4549 73.7414 78.4549 73.1615C78.4549 72.7266 78.31 71.1319 78.31 71.1319L78.745 70.987C78.89 70.987 78.8899 70.987 78.8899 70.842C78.8899 70.697 78.8899 70.552 78.8899 70.552L78.4549 70.4071C78.3099 70.2621 78.165 70.1171 78.02 70.1171C77.875 70.1171 77.585 70.1171 77.44 70.4071C77.295 70.2621 77.005 70.4071 76.86 70.4071C76.86 70.4071 76.86 71.1319 77.585 70.987L77.7299 72.8716C77.7299 72.8716 77.73 73.3065 77.295 73.1615C76.86 73.0166 75.99 72.7266 75.41 72.8716C75.12 73.0166 74.685 73.1615 74.395 73.8864C74.105 74.6113 74.54 74.3213 74.54 74.3213L74.975 74.0314C74.975 74.0314 75.265 74.6113 74.975 75.0462C74.685 75.3361 74.83 75.6261 74.83 75.6261C74.83 75.6261 74.975 76.3509 74.975 76.6409C74.25 76.6409 73.67 76.9308 73.235 77.0758C74.105 74.0314 72.945 71.5668 72.51 70.842C72.8 70.552 73.235 69.8272 74.25 68.3775C75.12 68.6674 75.99 68.8124 76.715 68.8124C78.165 68.6674 79.035 68.2325 79.76 67.6526ZM69.03 65.1881L73.525 68.0875C72.655 69.5372 72.075 70.1171 71.93 70.4071L69.03 68.8124V65.1881ZM68.305 69.1023V72.8716C68.305 73.0166 68.305 74.7562 69.175 76.206L67.435 75.1911V68.6674L68.305 69.1023ZM67.58 79.6853L71.93 82.1498C72.365 83.3096 73.09 84.0345 74.25 85.0493C74.54 85.3392 74.975 85.4842 75.265 85.6292C72.655 85.3392 70.625 84.4694 69.32 83.0196C68.16 81.8599 67.725 80.5551 67.58 79.6853ZM80.195 87.0789C79.615 86.209 78.5999 85.9191 77.44 85.6292C76.425 85.3392 75.41 85.0493 74.54 84.3244C72.365 82.7297 71.64 81.28 72.8 77.9456H87.5899C88.7499 81.28 88.0249 82.5847 85.8499 84.3244C84.9799 84.9043 83.9649 85.3392 82.9499 85.4842C81.7899 85.9191 80.775 86.209 80.195 87.0789ZM91.2149 83.0196C89.7649 84.4694 87.7349 85.3392 85.1249 85.6292C85.5599 85.4842 85.8499 85.1942 86.1399 85.0493C87.2999 84.1794 88.1699 83.3096 88.4599 82.2948C88.4599 82.2948 88.4599 82.2948 88.6049 82.2948L92.9549 79.8303C92.8099 80.5551 92.3749 81.8599 91.2149 83.0196Z"
    fill="white"
  />
<path
    d="M80.1948 65.9129C82.2248 65.9129 83.6748 64.8981 83.6748 63.5934C83.6748 62.2886 82.0798 61.2738 80.1948 61.2738C78.1649 61.2738 76.7148 62.2886 76.7148 63.5934C76.7148 64.8981 78.1649 65.9129 80.1948 65.9129ZM80.1948 62.2886C81.2098 62.2886 81.9348 62.7236 81.9348 63.1585C81.9348 63.5934 81.4998 63.8833 80.9198 64.0283C80.3398 64.1733 80.4848 64.4632 80.1948 64.6082C79.9048 64.4632 80.0498 64.1733 79.4698 64.0283C78.8898 63.8833 78.4548 63.5934 78.4548 63.1585C78.4548 62.7236 79.1798 62.2886 80.1948 62.2886Z"
    fill="white"
  />
</svg>
