<svg
  class="tracto-cigueña transport-item is-hidden"
  width="762"
  height="167"
  viewBox="0 0 762 167"
  fill="none"
  xmlns="http://www.w3.org/2000/svg"
>
<path
    d="M157.759 130.395L155.584 132.57H132.674V128.51H124.264V58.1988H119.479V48.7756H112.955V119.522H108.895V63.9977H63.9447V71.5362H68.2947L55.5348 105.315H5.79997V139.383H0V148.807H5.50998V151.271H143.549V147.647H259.259V130.54H157.759V130.395ZM88.0146 105.025H70.3247L77.5747 72.406H88.0146V105.025Z"
    fill="#57C14C"
  />
<path
    d="M173.709 107.054V122.711H260.274L283.909 139.673H760.522V126.046H294.349L267.089 107.054H173.709Z"
    fill="#8499A7"
    stroke="#455C75"
    stroke-width="0.75"
    stroke-miterlimit="10"
  />
<path
    d="M125.382 48.9127L173.765 119.632L180.108 115.294L131.725 44.5746L125.382 48.9127Z"
    fill="#8499A7"
    stroke="#455C75"
    stroke-width="0.75"
    stroke-miterlimit="10"
  />
<path
    d="M177.351 50.4795L349.822 69.9673L350.685 62.3322L178.214 42.8445L177.351 50.4795Z"
    fill="#8499A7"
    stroke="#455C75"
    stroke-width="0.75"
    stroke-miterlimit="10"
  />
<path
    d="M350.398 70.1876L458.752 77.5288L459.272 69.8631L350.917 62.5219L350.398 70.1876Z"
    fill="#8499A7"
    stroke="#455C75"
    stroke-width="0.75"
    stroke-miterlimit="10"
  />
<path
    d="M455.749 77.698L600.926 109.512L602.571 102.007L457.395 70.1929L455.749 77.698Z"
    fill="#8499A7"
    stroke="#455C75"
    stroke-width="0.7547"
    stroke-miterlimit="10"
  />
<path
    d="M599.272 109.316L746.723 127.935L747.686 120.312L600.235 101.693L599.272 109.316Z"
    fill="#8499A7"
    stroke="#455C75"
    stroke-width="0.7547"
    stroke-miterlimit="10"
  />
<path
    d="M734.087 50.8331L753.026 128.734L760.494 126.919L741.554 49.0182L734.087 50.8331Z"
    fill="#8499A7"
    stroke="#455C75"
    stroke-width="0.75"
    stroke-miterlimit="10"
  />
<path
    d="M263.899 48.7756H256.649V109.664H263.899V48.7756Z"
    fill="#8499A7"
    stroke="#455C75"
    stroke-width="0.75"
    stroke-miterlimit="10"
  />
<path
    d="M255.357 45.1858L169.14 114.497L173.682 120.145L259.9 50.8347L255.357 45.1858Z"
    fill="#8499A7"
    stroke="#455C75"
    stroke-width="0.75"
    stroke-miterlimit="10"
  />
<path
    d="M338.574 43.4116L252.734 112.273L257.809 118.362L345.099 49.7904L338.574 43.4116Z"
    fill="#8499A7"
    stroke="#455C75"
    stroke-width="0.75"
    stroke-miterlimit="10"
  />
<path
    d="M748.487 37.4678H124.99V49.7905H748.487V37.4678Z"
    fill="#8499A7"
    stroke="#455C75"
    stroke-width="0.75"
    stroke-miterlimit="10"
  />
<path
    d="M748.487 0.934814H124.99V13.2574H748.487V0.934814Z"
    fill="#8499A7"
    stroke="#455C75"
    stroke-width="0.75"
    stroke-miterlimit="10"
  />
<path
    d="M595.657 7.16846H590.147V41.8168H595.657V7.16846Z"
    fill="#8499A7"
    stroke="#455C75"
    stroke-width="0.75"
    stroke-miterlimit="10"
  />
<path
    d="M675.407 7.16846H669.897V41.8168H675.407V7.16846Z"
    fill="#8499A7"
    stroke="#455C75"
    stroke-width="0.75"
    stroke-miterlimit="10"
  />
<path
    d="M748.922 7.16846H743.412V41.8168H748.922V7.16846Z"
    fill="#8499A7"
    stroke="#455C75"
    stroke-width="0.75"
    stroke-miterlimit="10"
  />
<path
    d="M520.548 7.16846H515.038V41.8168H520.548V7.16846Z"
    fill="#8499A7"
    stroke="#455C75"
    stroke-width="0.75"
    stroke-miterlimit="10"
  />
<path
    d="M460.518 7.16846H455.008V41.8168H460.518V7.16846Z"
    fill="#8499A7"
    stroke="#455C75"
    stroke-width="0.75"
    stroke-miterlimit="10"
  />
<path
    d="M393.384 7.16846H387.874V41.8168H393.384V7.16846Z"
    fill="#8499A7"
    stroke="#455C75"
    stroke-width="0.75"
    stroke-miterlimit="10"
  />
<path
    d="M324.363 7.16846H318.854V41.8168H324.363V7.16846Z"
    fill="#8499A7"
    stroke="#455C75"
    stroke-width="0.75"
    stroke-miterlimit="10"
  />
<path
    d="M256.649 7.16846H251.139V41.8168H256.649V7.16846Z"
    fill="#8499A7"
    stroke="#455C75"
    stroke-width="0.75"
    stroke-miterlimit="10"
  />
<path
    d="M190.384 7.16846H184.874V41.8168H190.384V7.16846Z"
    fill="#8499A7"
    stroke="#455C75"
    stroke-width="0.75"
    stroke-miterlimit="10"
  />
<path
    d="M130.499 7.16846H124.99V41.8168H130.499V7.16846Z"
    fill="#8499A7"
    stroke="#455C75"
    stroke-width="0.75"
    stroke-miterlimit="10"
  />
<path
    d="M431.083 47.3259H423.833V127.785H431.083V47.3259Z"
    fill="#8499A7"
    stroke="#455C75"
    stroke-width="0.75"
    stroke-miterlimit="10"
  />
<path
    d="M347.563 47.3259H340.313V127.785H347.563V47.3259Z"
    fill="#8499A7"
    stroke="#455C75"
    stroke-width="0.75"
    stroke-miterlimit="10"
  />
<path
    d="M422.826 44.9402L341.53 125.42L346.631 130.571L427.927 50.091L422.826 44.9402Z"
    fill="#8499A7"
    stroke="#455C75"
    stroke-width="0.75"
    stroke-miterlimit="10"
  />
<path
    d="M506.198 44.9326L424.902 125.413L430.003 130.563L511.299 50.0835L506.198 44.9326Z"
    fill="#8499A7"
    stroke="#455C75"
    stroke-width="0.75"
    stroke-miterlimit="10"
  />
<path
    d="M512.573 47.3259H505.323V127.785H512.573V47.3259Z"
    fill="#8499A7"
    stroke="#455C75"
    stroke-width="0.75"
    stroke-miterlimit="10"
  />
<path
    d="M589.747 45.0013L508.451 125.481L513.552 130.632L594.848 50.1522L589.747 45.0013Z"
    fill="#8499A7"
    stroke="#455C75"
    stroke-width="0.75"
    stroke-miterlimit="10"
  />
<path
    d="M596.237 47.3259H588.987V127.785H596.237V47.3259Z"
    fill="#8499A7"
    stroke="#455C75"
    stroke-width="0.75"
    stroke-miterlimit="10"
  />
<path
    d="M671.949 44.968L590.653 125.448L595.754 130.599L677.05 50.1189L671.949 44.968Z"
    fill="#8499A7"
    stroke="#455C75"
    stroke-width="0.75"
    stroke-miterlimit="10"
  />
<path
    d="M678.307 47.3259H671.057V127.785H678.307V47.3259Z"
    fill="#8499A7"
    stroke="#455C75"
    stroke-width="0.75"
    stroke-miterlimit="10"
  />
<path
    d="M742.977 45.0063L671.057 123.871L676.132 129.09L748.052 50.0804L742.977 45.0063Z"
    fill="#8499A7"
    stroke="#455C75"
    stroke-width="0.75"
    stroke-miterlimit="10"
  />
<path
    d="M743.557 47.3259H736.307V127.785H743.557V47.3259Z"
    fill="#8499A7"
    stroke="#455C75"
    stroke-width="0.75"
    stroke-miterlimit="10"
  />
<path
    d="M181.394 48.7756H173.709V109.664H181.394V48.7756Z"
    fill="#8499A7"
    stroke="#455C75"
    stroke-width="0.75"
    stroke-miterlimit="10"
  />
<g>
<path
      d="M32.48 166.493C41.2088 166.493 48.2849 159.418 48.2849 150.691C48.2849 141.964 41.2088 134.889 32.48 134.889C23.7512 134.889 16.675 141.964 16.675 150.691C16.675 159.418 23.7512 166.493 32.48 166.493Z"
      fill="#3B5266"
    />
<path
      d="M21.7501 150.691C21.7501 146.487 24.0701 143.007 27.55 141.123L26.9701 140.253C23.2001 142.283 20.5901 146.197 20.5901 150.691C20.5901 155.185 23.2001 159.1 26.9701 161.129L27.55 160.259C24.0701 158.375 21.7501 154.75 21.7501 150.691Z"
      fill="#76C1AA"
    />
<path
      d="M37.8451 140.253L37.4102 141.123C40.8901 142.862 43.3551 146.487 43.3551 150.691C43.3551 154.895 40.8901 158.519 37.4102 160.259L37.8451 161.129C41.6151 159.1 44.2251 155.185 44.2251 150.691C44.2251 146.052 41.6151 142.138 37.8451 140.253Z"
      fill="#76C1AA"
    />
<path
      opacity="0.3"
      d="M32.4799 153.01C33.7612 153.01 34.7999 151.972 34.7999 150.691C34.7999 149.41 33.7612 148.372 32.4799 148.372C31.1986 148.372 30.1599 149.41 30.1599 150.691C30.1599 151.972 31.1986 153.01 32.4799 153.01Z"
      fill="white"
    />
<path
      opacity="0.3"
      d="M33.93 148.951L36.54 146.342C35.525 145.327 34.22 144.747 32.625 144.747V148.516C33.06 148.516 33.495 148.661 33.93 148.951Z"
      fill="white"
    />
<path
      opacity="0.3"
      d="M34.655 150.546H38.425C38.425 149.096 37.845 147.647 36.83 146.632L34.22 149.241C34.51 149.676 34.655 150.111 34.655 150.546Z"
      fill="white"
    />
<path
      opacity="0.3"
      d="M34.0752 152.141L36.6852 154.75C37.7002 153.735 38.2802 152.431 38.2802 150.981H34.5102C34.5102 151.561 34.3652 151.851 34.0752 152.141Z"
      fill="white"
    />
<path
      opacity="0.3"
      d="M31.0301 152.431L28.4202 155.04C29.4352 155.91 30.5951 156.49 32.0451 156.49V152.721C31.7551 152.866 31.3201 152.721 31.0301 152.431Z"
      fill="white"
    />
<path
      opacity="0.3"
      d="M32.625 152.866V156.635C34.075 156.635 35.38 156.055 36.25 155.185L33.64 152.576C33.35 152.721 33.06 152.866 32.625 152.866Z"
      fill="white"
    />
<path
      opacity="0.3"
      d="M30.5951 149.386L27.9852 146.777C27.1152 147.792 26.5352 149.096 26.5352 150.546H30.3051C30.1601 150.111 30.3051 149.821 30.5951 149.386Z"
      fill="white"
    />
<path
      opacity="0.3"
      d="M30.1601 151.126H26.3901C26.5351 152.576 27.1151 153.735 27.9851 154.75L30.5951 152.141C30.4501 151.851 30.3051 151.561 30.1601 151.126Z"
      fill="white"
    />
<path
      opacity="0.3"
      d="M32.0451 148.371V144.602C30.5951 144.747 29.2901 145.327 28.2751 146.197L30.8851 148.806C31.1751 148.661 31.6101 148.516 32.0451 148.371Z"
      fill="white"
    />
<path
      d="M32.625 143.877C32.19 143.877 31.61 143.877 31.175 144.022C27.985 144.602 25.665 147.357 25.665 150.691C25.665 154.46 28.71 157.505 32.48 157.505C34.365 157.505 36.105 156.78 37.265 155.475C38.57 154.17 39.295 152.576 39.295 150.691C39.295 146.922 36.25 143.877 32.625 143.877ZM34.655 150.546C34.655 150.111 34.51 149.676 34.22 149.241L36.83 146.632C37.7 147.647 38.28 148.951 38.425 150.546H34.655ZM28.42 155.185L31.03 152.576C31.32 152.721 31.61 152.865 32.045 153.01V156.78C30.595 156.49 29.435 156.055 28.42 155.185ZM33.93 148.951C33.64 148.661 33.205 148.516 32.625 148.516V144.747C34.075 144.747 35.525 145.327 36.54 146.342L33.93 148.951ZM30.16 150.546H26.39C26.39 149.096 26.97 147.792 27.84 146.777L30.45 149.386C30.305 149.821 30.16 150.111 30.16 150.546ZM30.16 151.126C30.305 151.561 30.45 151.851 30.595 152.141L27.985 154.75C27.115 153.735 26.535 152.576 26.39 151.126H30.16ZM32.48 152.576C31.465 152.576 30.595 151.706 30.595 150.691C30.595 149.676 31.465 148.806 32.48 148.806C33.205 148.806 33.785 149.241 34.075 149.821V149.966C34.22 150.111 34.22 150.401 34.22 150.691C34.22 150.981 34.22 151.126 34.075 151.416C33.93 151.996 33.205 152.576 32.48 152.576ZM32.625 152.865C33.06 152.865 33.35 152.721 33.64 152.576L36.25 155.185C35.235 156.055 33.93 156.635 32.625 156.635V152.865ZM32.045 144.747V148.516C31.61 148.661 31.175 148.806 30.885 149.096L28.275 146.487C29.29 145.472 30.595 144.747 32.045 144.747ZM36.685 154.895L34.075 152.286C34.365 151.996 34.51 151.561 34.655 151.126H38.425C38.28 152.576 37.7 153.88 36.685 154.895Z"
      fill="white"
    />
</g>
<g>
<path
      d="M166.169 166.493C174.898 166.493 181.974 159.418 181.974 150.691C181.974 141.964 174.898 134.889 166.169 134.889C157.441 134.889 150.365 141.964 150.365 150.691C150.365 159.418 157.441 166.493 166.169 166.493Z"
      fill="#3B5266"
    />
<path
      d="M155.44 150.691C155.44 146.487 157.76 143.007 161.24 141.123L160.66 140.253C156.89 142.283 154.28 146.197 154.28 150.691C154.28 155.185 156.89 159.1 160.66 161.129L161.24 160.259C157.76 158.375 155.44 154.75 155.44 150.691Z"
      fill="#76C1AA"
    />
<path
      d="M171.535 140.253L171.1 141.123C174.58 142.862 177.045 146.487 177.045 150.691C177.045 154.895 174.58 158.519 171.1 160.259L171.535 161.129C175.305 159.1 177.915 155.185 177.915 150.691C177.915 146.052 175.305 142.138 171.535 140.253Z"
      fill="#76C1AA"
    />
<path
      opacity="0.3"
      d="M166.169 153.01C167.451 153.01 168.489 151.972 168.489 150.691C168.489 149.41 167.451 148.372 166.169 148.372C164.888 148.372 163.849 149.41 163.849 150.691C163.849 151.972 164.888 153.01 166.169 153.01Z"
      fill="white"
    />
<path
      opacity="0.3"
      d="M167.474 148.951L170.084 146.342C169.069 145.327 167.764 144.747 166.169 144.747V148.516C166.749 148.516 167.184 148.661 167.474 148.951Z"
      fill="white"
    />
<path
      opacity="0.3"
      d="M168.345 150.546H172.115C172.115 149.096 171.535 147.647 170.52 146.632L167.91 149.241C168.2 149.676 168.345 150.111 168.345 150.546Z"
      fill="white"
    />
<path
      opacity="0.3"
      d="M167.765 152.141L170.375 154.75C171.39 153.735 171.97 152.431 171.97 150.981H168.2C168.2 151.561 168.055 151.851 167.765 152.141Z"
      fill="white"
    />
<path
      opacity="0.3"
      d="M164.72 152.431L162.11 155.04C163.125 155.91 164.285 156.49 165.735 156.49V152.721C165.3 152.866 165.01 152.721 164.72 152.431Z"
      fill="white"
    />
<path
      opacity="0.3"
      d="M166.315 152.866V156.635C167.765 156.635 169.07 156.055 169.94 155.185L167.33 152.576C167.04 152.721 166.605 152.866 166.315 152.866Z"
      fill="white"
    />
<path
      opacity="0.3"
      d="M164.14 149.386L161.53 146.777C160.66 147.792 160.08 149.096 160.08 150.546H163.85C163.85 150.111 163.995 149.821 164.14 149.386Z"
      fill="white"
    />
<path
      opacity="0.3"
      d="M163.85 151.126H160.08C160.225 152.576 160.805 153.735 161.675 154.75L164.285 152.141C164.14 151.851 163.995 151.561 163.85 151.126Z"
      fill="white"
    />
<path
      opacity="0.3"
      d="M165.735 148.371V144.602C164.285 144.747 162.98 145.327 161.965 146.197L164.575 148.806C164.865 148.661 165.3 148.516 165.735 148.371Z"
      fill="white"
    />
<path
      d="M166.169 143.877C165.734 143.877 165.154 143.877 164.719 144.022C161.529 144.602 159.209 147.357 159.209 150.691C159.209 154.46 162.254 157.505 166.024 157.505C167.909 157.505 169.649 156.78 170.809 155.475C172.114 154.17 172.839 152.576 172.839 150.691C172.984 146.922 169.939 143.877 166.169 143.877ZM168.344 150.546C168.344 150.111 168.199 149.676 167.909 149.241L170.519 146.632C171.389 147.647 171.969 148.951 172.114 150.546H168.344ZM162.109 155.185L164.719 152.576C165.009 152.721 165.299 152.865 165.734 153.01V156.78C164.284 156.49 163.124 156.055 162.109 155.185ZM167.474 148.951C167.184 148.661 166.749 148.516 166.169 148.516V144.747C167.619 144.747 169.069 145.327 170.084 146.342L167.474 148.951ZM163.849 150.546H160.079C160.079 149.096 160.659 147.792 161.529 146.777L164.139 149.386C163.994 149.821 163.849 150.111 163.849 150.546ZM163.849 151.126C163.994 151.561 164.139 151.851 164.284 152.141L161.674 154.75C160.804 153.735 160.224 152.576 160.079 151.126H163.849ZM166.169 152.576C165.154 152.576 164.284 151.706 164.284 150.691C164.284 149.676 165.154 148.806 166.169 148.806C166.894 148.806 167.474 149.241 167.764 149.821V149.966C167.909 150.111 167.909 150.401 167.909 150.691C167.909 150.981 167.909 151.126 167.764 151.416C167.619 151.996 166.894 152.576 166.169 152.576ZM166.314 152.865C166.749 152.865 167.039 152.721 167.329 152.576L169.939 155.185C168.924 156.055 167.619 156.635 166.314 156.635V152.865ZM165.734 144.747V148.516C165.299 148.661 164.864 148.806 164.574 149.096L161.964 146.487C162.979 145.472 164.284 144.747 165.734 144.747ZM170.374 154.895L167.764 152.286C168.054 151.996 168.199 151.561 168.344 151.126H172.114C171.969 152.576 171.389 153.88 170.374 154.895Z"
      fill="white"
    />
</g>
<g>
<path
      d="M202.419 166.493C211.148 166.493 218.224 159.418 218.224 150.691C218.224 141.964 211.148 134.889 202.419 134.889C193.69 134.889 186.614 141.964 186.614 150.691C186.614 159.418 193.69 166.493 202.419 166.493Z"
      fill="#3B5266"
    />
<path
      d="M191.689 150.691C191.689 146.487 194.009 143.007 197.489 141.123L196.909 140.253C193.139 142.283 190.529 146.197 190.529 150.691C190.529 155.185 193.139 159.1 196.909 161.129L197.489 160.259C194.009 158.375 191.689 154.75 191.689 150.691Z"
      fill="#76C1AA"
    />
<path
      d="M207.784 140.253L207.349 141.123C210.829 142.862 213.294 146.487 213.294 150.691C213.294 154.895 210.829 158.519 207.349 160.259L207.784 161.129C211.554 159.1 214.164 155.185 214.164 150.691C214.164 146.052 211.554 142.138 207.784 140.253Z"
      fill="#76C1AA"
    />
<path
      opacity="0.3"
      d="M202.419 153.01C203.7 153.01 204.739 151.972 204.739 150.691C204.739 149.41 203.7 148.372 202.419 148.372C201.138 148.372 200.099 149.41 200.099 150.691C200.099 151.972 201.138 153.01 202.419 153.01Z"
      fill="white"
    />
<path
      opacity="0.3"
      d="M203.724 148.951L206.334 146.342C205.319 145.327 204.014 144.747 202.419 144.747V148.516C202.999 148.516 203.434 148.661 203.724 148.951Z"
      fill="white"
    />
<path
      opacity="0.3"
      d="M204.594 150.546H208.364C208.364 149.096 207.784 147.647 206.769 146.632L204.159 149.241C204.449 149.676 204.594 150.111 204.594 150.546Z"
      fill="white"
    />
<path
      opacity="0.3"
      d="M204.014 152.141L206.624 154.75C207.639 153.735 208.219 152.431 208.219 150.981H204.449C204.449 151.561 204.304 151.851 204.014 152.141Z"
      fill="white"
    />
<path
      opacity="0.3"
      d="M200.969 152.431L198.359 155.04C199.374 155.91 200.534 156.49 201.984 156.49V152.721C201.549 152.866 201.259 152.721 200.969 152.431Z"
      fill="white"
    />
<path
      opacity="0.3"
      d="M202.564 152.866V156.635C204.014 156.635 205.319 156.055 206.189 155.185L203.579 152.576C203.289 152.721 202.854 152.866 202.564 152.866Z"
      fill="white"
    />
<path
      opacity="0.3"
      d="M200.389 149.386L197.779 146.777C196.909 147.792 196.329 149.096 196.329 150.546H200.099C200.099 150.111 200.244 149.821 200.389 149.386Z"
      fill="white"
    />
<path
      opacity="0.3"
      d="M200.099 151.126H196.329C196.474 152.576 197.054 153.735 197.924 154.75L200.534 152.141C200.389 151.851 200.244 151.561 200.099 151.126Z"
      fill="white"
    />
<path
      opacity="0.3"
      d="M201.984 148.371V144.602C200.534 144.747 199.229 145.327 198.214 146.197L200.824 148.806C201.114 148.661 201.549 148.516 201.984 148.371Z"
      fill="white"
    />
<path
      d="M202.419 143.877C201.984 143.877 201.404 143.877 200.969 144.022C197.779 144.602 195.459 147.357 195.459 150.691C195.459 154.46 198.504 157.505 202.274 157.505C204.159 157.505 205.899 156.78 207.059 155.475C208.364 154.17 209.089 152.576 209.089 150.691C209.234 146.922 206.189 143.877 202.419 143.877ZM204.594 150.546C204.594 150.111 204.449 149.676 204.159 149.241L206.769 146.632C207.639 147.647 208.219 148.951 208.364 150.546H204.594ZM198.359 155.185L200.969 152.576C201.259 152.721 201.549 152.865 201.984 153.01V156.78C200.534 156.49 199.374 156.055 198.359 155.185ZM203.724 148.951C203.434 148.661 202.999 148.516 202.419 148.516V144.747C203.869 144.747 205.319 145.327 206.334 146.342L203.724 148.951ZM200.099 150.546H196.329C196.329 149.096 196.909 147.792 197.779 146.777L200.389 149.386C200.244 149.821 200.099 150.111 200.099 150.546ZM200.099 151.126C200.244 151.561 200.389 151.851 200.534 152.141L197.924 154.75C197.054 153.735 196.474 152.576 196.329 151.126H200.099ZM202.419 152.576C201.404 152.576 200.534 151.706 200.534 150.691C200.534 149.676 201.404 148.806 202.419 148.806C203.144 148.806 203.724 149.241 204.014 149.821V149.966C204.159 150.111 204.159 150.401 204.159 150.691C204.159 150.981 204.159 151.126 204.014 151.416C203.724 151.996 203.144 152.576 202.419 152.576ZM202.564 152.865C202.999 152.865 203.289 152.721 203.579 152.576L206.189 155.185C205.174 156.055 203.869 156.635 202.564 156.635V152.865ZM201.984 144.747V148.516C201.549 148.661 201.114 148.806 200.824 149.096L198.214 146.487C199.084 145.472 200.534 144.747 201.984 144.747ZM206.624 154.895L204.014 152.286C204.304 151.996 204.449 151.561 204.594 151.126H208.364C208.219 152.576 207.639 153.88 206.624 154.895Z"
      fill="white"
    />
</g>
<g>
<path
      d="M238.669 166.493C247.398 166.493 254.474 159.418 254.474 150.691C254.474 141.964 247.398 134.889 238.669 134.889C229.94 134.889 222.864 141.964 222.864 150.691C222.864 159.418 229.94 166.493 238.669 166.493Z"
      fill="#3B5266"
    />
<path
      d="M227.939 150.691C227.939 146.487 230.259 143.007 233.739 141.123L233.159 140.253C229.389 142.283 226.779 146.197 226.779 150.691C226.779 155.185 229.389 159.1 233.159 161.129L233.739 160.259C230.259 158.375 227.939 154.75 227.939 150.691Z"
      fill="#76C1AA"
    />
<path
      d="M244.034 140.253L243.599 141.123C247.079 142.862 249.544 146.487 249.544 150.691C249.544 154.895 247.079 158.519 243.599 160.259L244.034 161.129C247.804 159.1 250.414 155.185 250.414 150.691C250.414 146.052 247.804 142.138 244.034 140.253Z"
      fill="#76C1AA"
    />
<path
      opacity="0.3"
      d="M238.669 153.01C239.95 153.01 240.989 151.972 240.989 150.691C240.989 149.41 239.95 148.372 238.669 148.372C237.388 148.372 236.349 149.41 236.349 150.691C236.349 151.972 237.388 153.01 238.669 153.01Z"
      fill="white"
    />
<path
      opacity="0.3"
      d="M239.974 148.951L242.584 146.342C241.569 145.327 240.264 144.747 238.669 144.747V148.516C239.249 148.516 239.684 148.661 239.974 148.951Z"
      fill="white"
    />
<path
      opacity="0.3"
      d="M240.844 150.546H244.614C244.614 149.096 244.034 147.647 243.019 146.632L240.409 149.241C240.699 149.676 240.844 150.111 240.844 150.546Z"
      fill="white"
    />
<path
      opacity="0.3"
      d="M240.264 152.141L242.874 154.75C243.889 153.735 244.469 152.431 244.469 150.981H240.699C240.699 151.561 240.554 151.851 240.264 152.141Z"
      fill="white"
    />
<path
      opacity="0.3"
      d="M237.219 152.431L234.609 155.04C235.624 155.91 236.784 156.49 238.234 156.49V152.721C237.799 152.866 237.509 152.721 237.219 152.431Z"
      fill="white"
    />
<path
      opacity="0.3"
      d="M238.669 152.866V156.635C240.119 156.635 241.424 156.055 242.294 155.185L239.684 152.576C239.539 152.721 239.104 152.866 238.669 152.866Z"
      fill="white"
    />
<path
      opacity="0.3"
      d="M236.639 149.386L234.029 146.777C233.159 147.792 232.579 149.096 232.579 150.546H236.349C236.349 150.111 236.494 149.821 236.639 149.386Z"
      fill="white"
    />
<path
      opacity="0.3"
      d="M236.349 151.126H232.579C232.724 152.576 233.304 153.735 234.174 154.75L236.784 152.141C236.639 151.851 236.349 151.561 236.349 151.126Z"
      fill="white"
    />
<path
      opacity="0.3"
      d="M238.234 148.371V144.602C236.784 144.747 235.479 145.327 234.464 146.197L237.074 148.806C237.364 148.661 237.654 148.516 238.234 148.371Z"
      fill="white"
    />
<path
      d="M238.669 143.877C238.234 143.877 237.654 143.877 237.219 144.022C234.029 144.602 231.709 147.357 231.709 150.691C231.709 154.46 234.754 157.505 238.524 157.505C240.409 157.505 242.149 156.78 243.309 155.475C244.614 154.17 245.339 152.576 245.339 150.691C245.484 146.922 242.439 143.877 238.669 143.877ZM240.844 150.546C240.844 150.111 240.699 149.676 240.409 149.241L243.019 146.632C243.889 147.647 244.469 148.951 244.614 150.546H240.844ZM234.609 155.185L237.219 152.576C237.509 152.721 237.799 152.865 238.234 153.01V156.78C236.784 156.49 235.479 156.055 234.609 155.185ZM239.974 148.951C239.684 148.661 239.249 148.516 238.669 148.516V144.747C240.119 144.747 241.569 145.327 242.584 146.342L239.974 148.951ZM236.349 150.546H232.579C232.579 149.096 233.159 147.792 234.029 146.777L236.639 149.386C236.494 149.821 236.349 150.111 236.349 150.546ZM236.349 151.126C236.494 151.561 236.639 151.851 236.784 152.141L234.174 154.75C233.304 153.735 232.724 152.576 232.579 151.126H236.349ZM238.669 152.576C237.654 152.576 236.784 151.706 236.784 150.691C236.784 149.676 237.654 148.806 238.669 148.806C239.394 148.806 239.974 149.241 240.264 149.821V149.966C240.409 150.111 240.409 150.401 240.409 150.691C240.409 150.981 240.409 151.126 240.264 151.416C239.974 151.996 239.394 152.576 238.669 152.576ZM238.669 152.865C239.104 152.865 239.394 152.721 239.684 152.576L242.294 155.185C241.279 156.055 239.974 156.635 238.669 156.635V152.865ZM238.234 144.747V148.516C237.799 148.661 237.364 148.806 237.074 149.096L234.464 146.487C235.334 145.472 236.639 144.747 238.234 144.747ZM242.874 154.895L240.264 152.286C240.554 151.996 240.699 151.561 240.844 151.126H244.614C244.324 152.576 243.744 153.88 242.874 154.895Z"
      fill="white"
    />
</g>
<g>
<path
      d="M289.129 166.493C297.858 166.493 304.934 159.418 304.934 150.691C304.934 141.964 297.858 134.889 289.129 134.889C280.4 134.889 273.324 141.964 273.324 150.691C273.324 159.418 280.4 166.493 289.129 166.493Z"
      fill="#3B5266"
    />
<path
      d="M278.399 150.691C278.399 146.487 280.719 143.007 284.199 141.123L283.619 140.253C279.849 142.283 277.239 146.197 277.239 150.691C277.239 155.185 279.849 159.1 283.619 161.129L284.199 160.259C280.719 158.375 278.399 154.75 278.399 150.691Z"
      fill="#76C1AA"
    />
<path
      d="M294.639 140.253L294.204 141.123C297.684 142.862 300.149 146.487 300.149 150.691C300.149 154.895 297.684 158.519 294.204 160.259L294.639 161.129C298.409 159.1 301.019 155.185 301.019 150.691C300.874 146.052 298.409 142.138 294.639 140.253Z"
      fill="#76C1AA"
    />
<path
      opacity="0.3"
      d="M289.129 153.01C290.41 153.01 291.449 151.972 291.449 150.691C291.449 149.41 290.41 148.372 289.129 148.372C287.848 148.372 286.809 149.41 286.809 150.691C286.809 151.972 287.848 153.01 289.129 153.01Z"
      fill="white"
    />
<path
      opacity="0.3"
      d="M290.579 148.951L293.189 146.342C292.174 145.327 290.869 144.747 289.274 144.747V148.516C289.709 148.516 290.144 148.661 290.579 148.951Z"
      fill="white"
    />
<path
      opacity="0.3"
      d="M291.304 150.546H295.074C295.074 149.096 294.494 147.647 293.479 146.632L290.869 149.241C291.159 149.676 291.304 150.111 291.304 150.546Z"
      fill="white"
    />
<path
      opacity="0.3"
      d="M290.724 152.141L293.334 154.75C294.349 153.735 294.929 152.431 294.929 150.981H291.159C291.304 151.561 291.014 151.851 290.724 152.141Z"
      fill="white"
    />
<path
      opacity="0.3"
      d="M287.679 152.431L285.069 155.04C286.084 155.91 287.244 156.49 288.694 156.49V152.721C288.404 152.866 287.969 152.721 287.679 152.431Z"
      fill="white"
    />
<path
      opacity="0.3"
      d="M289.274 152.866V156.635C290.724 156.635 292.029 156.055 292.899 155.185L290.289 152.576C289.999 152.721 289.709 152.866 289.274 152.866Z"
      fill="white"
    />
<path
      opacity="0.3"
      d="M287.244 149.386L284.634 146.777C283.764 147.792 283.184 149.096 283.184 150.546H286.954C286.809 150.111 286.954 149.821 287.244 149.386Z"
      fill="white"
    />
<path
      opacity="0.3"
      d="M286.809 151.126H283.039C283.184 152.576 283.764 153.735 284.634 154.75L287.244 152.141C287.099 151.851 286.954 151.561 286.809 151.126Z"
      fill="white"
    />
<path
      opacity="0.3"
      d="M288.694 148.371V144.602C287.244 144.747 285.939 145.327 284.924 146.197L287.534 148.806C287.824 148.661 288.259 148.516 288.694 148.371Z"
      fill="white"
    />
<path
      d="M289.274 143.877C288.839 143.877 288.259 143.877 287.824 144.022C284.634 144.602 282.314 147.357 282.314 150.691C282.314 154.46 285.359 157.505 289.129 157.505C291.014 157.505 292.754 156.78 293.914 155.475C295.219 154.17 295.944 152.576 295.944 150.691C295.944 146.922 293.044 143.877 289.274 143.877ZM291.304 150.546C291.304 150.111 291.159 149.676 290.869 149.241L293.479 146.632C294.349 147.647 294.929 148.951 295.074 150.546H291.304ZM285.069 155.185L287.679 152.576C287.969 152.721 288.259 152.865 288.694 153.01V156.78C287.389 156.49 286.084 156.055 285.069 155.185ZM290.579 148.951C290.289 148.661 289.854 148.516 289.274 148.516V144.747C290.724 144.747 292.174 145.327 293.189 146.342L290.579 148.951ZM286.809 150.546H283.039C283.039 149.096 283.619 147.792 284.489 146.777L287.099 149.386C286.954 149.821 286.809 150.111 286.809 150.546ZM286.809 151.126C286.954 151.561 287.099 151.851 287.244 152.141L284.634 154.75C283.764 153.735 283.184 152.576 283.039 151.126H286.809ZM289.129 152.576C288.114 152.576 287.244 151.706 287.244 150.691C287.244 149.676 288.114 148.806 289.129 148.806C289.854 148.806 290.434 149.241 290.724 149.821V149.966C290.869 150.111 290.869 150.401 290.869 150.691C290.869 150.981 290.869 151.126 290.724 151.416C290.579 151.996 289.854 152.576 289.129 152.576ZM289.274 152.865C289.709 152.865 289.999 152.721 290.289 152.576L292.899 155.185C291.884 156.055 290.579 156.635 289.274 156.635V152.865ZM288.694 144.747V148.516C288.259 148.661 287.824 148.806 287.534 149.096L284.924 146.487C285.939 145.472 287.244 144.747 288.694 144.747ZM293.334 154.895L290.724 152.286C291.014 151.996 291.159 151.561 291.304 151.126H295.074C294.929 152.576 294.349 153.88 293.334 154.895Z"
      fill="white"
    />
</g>
<g>
<path
      d="M324.364 166.493C333.092 166.493 340.168 159.418 340.168 150.691C340.168 141.964 333.092 134.889 324.364 134.889C315.635 134.889 308.559 141.964 308.559 150.691C308.559 159.418 315.635 166.493 324.364 166.493Z"
      fill="#3B5266"
    />
<path
      d="M313.634 150.691C313.634 146.487 315.954 143.007 319.434 141.123L318.854 140.253C315.084 142.283 312.474 146.197 312.474 150.691C312.474 155.185 315.084 159.1 318.854 161.129L319.434 160.259C315.954 158.375 313.634 154.75 313.634 150.691Z"
      fill="#76C1AA"
    />
<path
      d="M329.729 140.253L329.294 141.123C332.774 142.862 335.239 146.487 335.239 150.691C335.239 154.895 332.774 158.519 329.294 160.259L329.729 161.129C333.499 159.1 336.109 155.185 336.109 150.691C336.109 146.052 333.499 142.138 329.729 140.253Z"
      fill="#76C1AA"
    />
<path
      opacity="0.3"
      d="M324.363 153.01C325.645 153.01 326.683 151.972 326.683 150.691C326.683 149.41 325.645 148.372 324.363 148.372C323.082 148.372 322.043 149.41 322.043 150.691C322.043 151.972 323.082 153.01 324.363 153.01Z"
      fill="white"
    />
<path
      opacity="0.3"
      d="M325.669 148.951L328.279 146.342C327.264 145.327 325.959 144.747 324.364 144.747V148.516C324.944 148.516 325.379 148.661 325.669 148.951Z"
      fill="white"
    />
<path
      opacity="0.3"
      d="M326.539 150.546H330.309C330.309 149.096 329.729 147.647 328.714 146.632L326.104 149.241C326.394 149.676 326.539 150.111 326.539 150.546Z"
      fill="white"
    />
<path
      opacity="0.3"
      d="M325.958 152.141L328.569 154.75C329.584 153.735 330.164 152.431 330.164 150.981H326.394C326.394 151.561 326.248 151.851 325.958 152.141Z"
      fill="white"
    />
<path
      opacity="0.3"
      d="M322.914 152.431L320.304 155.04C321.319 155.91 322.479 156.49 323.929 156.49V152.721C323.494 152.866 323.204 152.721 322.914 152.431Z"
      fill="white"
    />
<path
      opacity="0.3"
      d="M324.364 152.866V156.635C325.814 156.635 327.119 156.055 327.989 155.185L325.378 152.576C325.233 152.721 324.799 152.866 324.364 152.866Z"
      fill="white"
    />
<path
      opacity="0.3"
      d="M322.334 149.386L319.724 146.777C318.854 147.792 318.274 149.096 318.274 150.546H322.044C322.044 150.111 322.189 149.821 322.334 149.386Z"
      fill="white"
    />
<path
      opacity="0.3"
      d="M322.044 151.126H318.274C318.419 152.576 318.999 153.735 319.869 154.75L322.479 152.141C322.334 151.851 322.044 151.561 322.044 151.126Z"
      fill="white"
    />
<path
      opacity="0.3"
      d="M323.929 148.371V144.602C322.479 144.747 321.174 145.327 320.159 146.197L322.769 148.806C323.059 148.661 323.494 148.516 323.929 148.371Z"
      fill="white"
    />
<path
      d="M324.364 143.877C323.929 143.877 323.349 143.877 322.914 144.022C319.724 144.602 317.404 147.357 317.404 150.691C317.404 154.46 320.449 157.505 324.219 157.505C326.103 157.505 327.843 156.78 329.003 155.475C330.308 154.17 331.033 152.576 331.033 150.691C331.178 146.922 328.133 143.877 324.364 143.877ZM326.538 150.546C326.538 150.111 326.393 149.676 326.103 149.241L328.713 146.632C329.583 147.647 330.163 148.951 330.308 150.546H326.538ZM320.304 155.185L322.914 152.576C323.204 152.721 323.494 152.865 323.928 153.01V156.78C322.479 156.49 321.174 156.055 320.304 155.185ZM325.668 148.951C325.379 148.661 324.944 148.516 324.364 148.516V144.747C325.814 144.747 327.263 145.327 328.278 146.342L325.668 148.951ZM322.044 150.546H318.274C318.274 149.096 318.854 147.792 319.724 146.777L322.334 149.386C322.189 149.821 322.044 150.111 322.044 150.546ZM322.044 151.126C322.189 151.561 322.334 151.851 322.479 152.141L319.869 154.75C318.999 153.735 318.419 152.576 318.274 151.126H322.044ZM324.364 152.576C323.349 152.576 322.479 151.706 322.479 150.691C322.479 149.676 323.349 148.806 324.364 148.806C325.089 148.806 325.668 149.241 325.958 149.821V149.966C326.103 150.111 326.103 150.401 326.103 150.691C326.103 150.981 326.103 151.126 325.958 151.416C325.668 151.996 325.089 152.576 324.364 152.576ZM324.364 152.865C324.799 152.865 325.088 152.721 325.378 152.576L327.988 155.185C326.973 156.055 325.669 156.635 324.364 156.635V152.865ZM323.928 144.747V148.516C323.494 148.661 323.059 148.806 322.769 149.096L320.159 146.487C321.029 145.472 322.334 144.747 323.928 144.747ZM328.568 154.895L325.958 152.286C326.248 151.996 326.394 151.561 326.538 151.126H330.308C330.163 152.576 329.438 153.88 328.568 154.895Z"
      fill="white"
    />
</g>
<g>
<path
      d="M359.453 166.493C368.182 166.493 375.258 159.418 375.258 150.691C375.258 141.964 368.182 134.889 359.453 134.889C350.725 134.889 343.648 141.964 343.648 150.691C343.648 159.418 350.725 166.493 359.453 166.493Z"
      fill="#3B5266"
    />
<path
      d="M348.723 150.691C348.723 146.487 351.043 143.007 354.523 141.123L353.943 140.253C350.173 142.283 347.563 146.197 347.563 150.691C347.563 155.185 350.173 159.1 353.943 161.129L354.523 160.259C351.043 158.375 348.723 154.75 348.723 150.691Z"
      fill="#76C1AA"
    />
<path
      d="M364.818 140.253L364.383 141.123C367.863 142.862 370.328 146.487 370.328 150.691C370.328 154.895 367.863 158.519 364.383 160.259L364.818 161.129C368.588 159.1 371.198 155.185 371.198 150.691C371.198 146.052 368.588 142.138 364.818 140.253Z"
      fill="#76C1AA"
    />
<path
      opacity="0.3"
      d="M359.453 153.01C360.735 153.01 361.773 151.972 361.773 150.691C361.773 149.41 360.735 148.372 359.453 148.372C358.172 148.372 357.133 149.41 357.133 150.691C357.133 151.972 358.172 153.01 359.453 153.01Z"
      fill="white"
    />
<path
      opacity="0.3"
      d="M360.903 148.951L363.513 146.342C362.498 145.327 361.193 144.747 359.598 144.747V148.516C360.033 148.516 360.468 148.661 360.903 148.951Z"
      fill="white"
    />
<path
      opacity="0.3"
      d="M361.628 150.546H365.398C365.398 149.096 364.818 147.647 363.803 146.632L361.193 149.241C361.483 149.676 361.628 150.111 361.628 150.546Z"
      fill="white"
    />
<path
      opacity="0.3"
      d="M361.048 152.141L363.658 154.75C364.673 153.735 365.253 152.431 365.253 150.981H361.483C361.483 151.561 361.338 151.851 361.048 152.141Z"
      fill="white"
    />
<path
      opacity="0.3"
      d="M358.003 152.431L355.393 155.04C356.408 155.91 357.568 156.49 359.018 156.49V152.721C358.728 152.866 358.293 152.721 358.003 152.431Z"
      fill="white"
    />
<path
      opacity="0.3"
      d="M359.598 152.866V156.635C361.048 156.635 362.353 156.055 363.223 155.185L360.613 152.576C360.323 152.721 360.033 152.866 359.598 152.866Z"
      fill="white"
    />
<path
      opacity="0.3"
      d="M357.568 149.386L354.958 146.777C354.088 147.792 353.508 149.096 353.508 150.546H357.278C357.133 150.111 357.278 149.821 357.568 149.386Z"
      fill="white"
    />
<path
      opacity="0.3"
      d="M357.133 151.126H353.363C353.508 152.576 354.088 153.735 354.958 154.75L357.568 152.141C357.423 151.851 357.278 151.561 357.133 151.126Z"
      fill="white"
    />
<path
      opacity="0.3"
      d="M359.018 148.371V144.602C357.568 144.747 356.263 145.327 355.248 146.197L357.858 148.806C358.148 148.661 358.583 148.516 359.018 148.371Z"
      fill="white"
    />
<path
      d="M359.598 143.877C359.163 143.877 358.583 143.877 358.148 144.022C354.958 144.602 352.638 147.357 352.638 150.691C352.638 154.46 355.683 157.505 359.453 157.505C361.338 157.505 363.078 156.78 364.238 155.475C365.543 154.17 366.268 152.576 366.268 150.691C366.268 146.922 363.223 143.877 359.598 143.877ZM361.628 150.546C361.628 150.111 361.483 149.676 361.193 149.241L363.803 146.632C364.673 147.647 365.253 148.951 365.398 150.546H361.628ZM355.393 155.185L358.003 152.576C358.293 152.721 358.583 152.865 359.018 153.01V156.78C357.713 156.49 356.408 156.055 355.393 155.185ZM360.903 148.951C360.613 148.661 360.178 148.516 359.598 148.516V144.747C361.048 144.747 362.498 145.327 363.513 146.342L360.903 148.951ZM357.133 150.546H353.363C353.363 149.096 353.943 147.792 354.813 146.777L357.423 149.386C357.278 149.821 357.133 150.111 357.133 150.546ZM357.133 151.126C357.278 151.561 357.423 151.851 357.568 152.141L354.958 154.75C354.088 153.735 353.508 152.576 353.363 151.126H357.133ZM359.453 152.576C358.438 152.576 357.568 151.706 357.568 150.691C357.568 149.676 358.438 148.806 359.453 148.806C360.178 148.806 360.758 149.241 361.048 149.821V149.966C361.193 150.111 361.193 150.401 361.193 150.691C361.193 150.981 361.193 151.126 361.048 151.416C360.903 151.996 360.178 152.576 359.453 152.576ZM359.598 152.865C360.033 152.865 360.323 152.721 360.613 152.576L363.223 155.185C362.208 156.055 360.903 156.635 359.598 156.635V152.865ZM359.018 144.747V148.516C358.583 148.661 358.148 148.806 357.858 149.096L355.248 146.487C356.263 145.472 357.568 144.747 359.018 144.747ZM363.658 154.895L361.048 152.286C361.338 151.996 361.483 151.561 361.628 151.126H365.398C365.253 152.576 364.673 153.88 363.658 154.895Z"
      fill="white"
    />
</g>
<g>
<path
      d="M394.543 166.493C403.272 166.493 410.348 159.418 410.348 150.691C410.348 141.964 403.272 134.889 394.543 134.889C385.814 134.889 378.738 141.964 378.738 150.691C378.738 159.418 385.814 166.493 394.543 166.493Z"
      fill="#3B5266"
    />
<path
      d="M383.958 150.691C383.958 146.487 386.278 143.007 389.758 141.123L389.178 140.253C385.408 142.283 382.798 146.197 382.798 150.691C382.798 155.185 385.408 159.1 389.178 161.129L389.758 160.259C386.278 158.375 383.958 154.75 383.958 150.691Z"
      fill="#76C1AA"
    />
<path
      d="M400.053 140.253L399.618 141.123C403.098 142.862 405.563 146.487 405.563 150.691C405.563 154.895 403.098 158.519 399.618 160.259L400.053 161.129C403.823 159.1 406.433 155.185 406.433 150.691C406.433 146.052 403.823 142.138 400.053 140.253Z"
      fill="#76C1AA"
    />
<path
      opacity="0.3"
      d="M394.543 153.01C395.824 153.01 396.863 151.972 396.863 150.691C396.863 149.41 395.824 148.372 394.543 148.372C393.262 148.372 392.223 149.41 392.223 150.691C392.223 151.972 393.262 153.01 394.543 153.01Z"
      fill="white"
    />
<path
      opacity="0.3"
      d="M395.993 148.951L398.603 146.342C397.588 145.327 396.283 144.747 394.688 144.747V148.516C395.268 148.516 395.703 148.661 395.993 148.951Z"
      fill="white"
    />
<path
      opacity="0.3"
      d="M396.863 150.546H400.633C400.633 149.096 400.053 147.647 399.038 146.632L396.428 149.241C396.573 149.676 396.863 150.111 396.863 150.546Z"
      fill="white"
    />
<path
      opacity="0.3"
      d="M396.283 152.141L398.893 154.75C399.908 153.735 400.488 152.431 400.488 150.981H396.718C396.718 151.561 396.573 151.851 396.283 152.141Z"
      fill="white"
    />
<path
      opacity="0.3"
      d="M393.238 152.431L390.628 155.04C391.643 155.91 392.803 156.49 394.253 156.49V152.721C393.818 152.866 393.528 152.721 393.238 152.431Z"
      fill="white"
    />
<path
      opacity="0.3"
      d="M394.688 152.866V156.635C396.138 156.635 397.443 156.055 398.313 155.185L395.703 152.576C395.413 152.721 395.123 152.866 394.688 152.866Z"
      fill="white"
    />
<path
      opacity="0.3"
      d="M392.658 149.386L390.048 146.777C389.178 147.792 388.598 149.096 388.598 150.546H392.368C392.368 150.111 392.513 149.821 392.658 149.386Z"
      fill="white"
    />
<path
      opacity="0.3"
      d="M392.368 151.126H388.598C388.743 152.576 389.323 153.735 390.193 154.75L392.803 152.141C392.513 151.851 392.368 151.561 392.368 151.126Z"
      fill="white"
    />
<path
      opacity="0.3"
      d="M394.108 148.371V144.602C392.658 144.747 391.353 145.327 390.338 146.197L392.948 148.806C393.383 148.661 393.673 148.516 394.108 148.371Z"
      fill="white"
    />
<path
      d="M394.688 143.877C394.253 143.877 393.673 143.877 393.238 144.022C390.048 144.602 387.728 147.357 387.728 150.691C387.728 154.46 390.773 157.505 394.543 157.505C396.428 157.505 398.168 156.78 399.328 155.475C400.633 154.17 401.358 152.576 401.358 150.691C401.503 146.922 398.458 143.877 394.688 143.877ZM396.863 150.546C396.863 150.111 396.718 149.676 396.428 149.241L399.038 146.632C399.908 147.647 400.488 148.951 400.633 150.546H396.863ZM390.628 155.185L393.238 152.576C393.528 152.721 393.818 152.865 394.253 153.01V156.78C392.803 156.49 391.498 156.055 390.628 155.185ZM395.993 148.951C395.703 148.661 395.268 148.516 394.688 148.516V144.747C396.138 144.747 397.588 145.327 398.603 146.342L395.993 148.951ZM392.368 150.546H388.598C388.598 149.096 389.178 147.792 390.048 146.777L392.658 149.386C392.513 149.821 392.368 150.111 392.368 150.546ZM392.368 151.126C392.513 151.561 392.658 151.851 392.803 152.141L390.193 154.75C389.323 153.735 388.743 152.576 388.598 151.126H392.368ZM394.543 152.576C393.528 152.576 392.658 151.706 392.658 150.691C392.658 149.676 393.528 148.806 394.543 148.806C395.268 148.806 395.848 149.241 396.138 149.821V149.966C396.283 150.111 396.283 150.401 396.283 150.691C396.283 150.981 396.283 151.126 396.138 151.416C395.993 151.996 395.413 152.576 394.543 152.576ZM394.688 152.865C395.123 152.865 395.413 152.721 395.703 152.576L398.313 155.185C397.298 156.055 395.993 156.635 394.688 156.635V152.865ZM394.108 144.747V148.516C393.673 148.661 393.238 148.806 392.948 149.096L390.338 146.487C391.353 145.472 392.658 144.747 394.108 144.747ZM398.893 154.895L396.283 152.286C396.573 151.996 396.718 151.561 396.863 151.126H400.633C400.343 152.576 399.763 153.88 398.893 154.895Z"
      fill="white"
    />
</g>
<g>
<path
      d="M429.778 166.493C438.507 166.493 445.583 159.418 445.583 150.691C445.583 141.964 438.507 134.889 429.778 134.889C421.049 134.889 413.973 141.964 413.973 150.691C413.973 159.418 421.049 166.493 429.778 166.493Z"
      fill="#3B5266"
    />
<path
      d="M419.048 150.691C419.048 146.487 421.368 143.007 424.848 141.123L424.268 140.253C420.498 142.283 417.888 146.197 417.888 150.691C417.888 155.185 420.498 159.1 424.268 161.129L424.848 160.259C421.368 158.375 419.048 154.75 419.048 150.691Z"
      fill="#76C1AA"
    />
<path
      d="M435.143 140.253L434.708 141.123C438.188 142.862 440.653 146.487 440.653 150.691C440.653 154.895 438.188 158.519 434.708 160.259L435.143 161.129C438.913 159.1 441.523 155.185 441.523 150.691C441.523 146.052 438.913 142.138 435.143 140.253Z"
      fill="#76C1AA"
    />
<path
      opacity="0.3"
      d="M429.778 153.01C431.059 153.01 432.098 151.972 432.098 150.691C432.098 149.41 431.059 148.372 429.778 148.372C428.497 148.372 427.458 149.41 427.458 150.691C427.458 151.972 428.497 153.01 429.778 153.01Z"
      fill="white"
    />
<path
      opacity="0.3"
      d="M431.083 148.951L433.693 146.342C432.678 145.327 431.373 144.747 429.778 144.747V148.516C430.358 148.516 430.793 148.661 431.083 148.951Z"
      fill="white"
    />
<path
      opacity="0.3"
      d="M431.953 150.546H435.723C435.723 149.096 435.143 147.647 434.128 146.632L431.518 149.241C431.808 149.676 431.953 150.111 431.953 150.546Z"
      fill="white"
    />
<path
      opacity="0.3"
      d="M431.373 152.141L433.983 154.75C434.998 153.735 435.578 152.431 435.578 150.981H431.808C431.808 151.561 431.663 151.851 431.373 152.141Z"
      fill="white"
    />
<path
      opacity="0.3"
      d="M428.328 152.431L425.718 155.04C426.733 155.91 427.893 156.49 429.343 156.49V152.721C428.908 152.866 428.618 152.721 428.328 152.431Z"
      fill="white"
    />
<path
      opacity="0.3"
      d="M429.923 152.866V156.635C431.373 156.635 432.678 156.055 433.548 155.185L430.938 152.576C430.648 152.721 430.213 152.866 429.923 152.866Z"
      fill="white"
    />
<path
      opacity="0.3"
      d="M427.748 149.386L425.138 146.777C424.268 147.792 423.688 149.096 423.688 150.546H427.458C427.458 150.111 427.603 149.821 427.748 149.386Z"
      fill="white"
    />
<path
      opacity="0.3"
      d="M427.458 151.126H423.688C423.833 152.576 424.413 153.735 425.283 154.75L427.893 152.141C427.748 151.851 427.603 151.561 427.458 151.126Z"
      fill="white"
    />
<path
      opacity="0.3"
      d="M429.343 148.371V144.602C427.893 144.747 426.588 145.327 425.573 146.197L428.183 148.806C428.473 148.661 428.908 148.516 429.343 148.371Z"
      fill="white"
    />
</g>
<path
    d="M429.778 143.877C429.343 143.877 428.763 143.877 428.328 144.022C425.138 144.602 422.818 147.357 422.818 150.691C422.818 154.46 425.863 157.505 429.633 157.505C431.518 157.505 433.258 156.78 434.418 155.475C435.723 154.17 436.448 152.576 436.448 150.691C436.593 146.922 433.548 143.877 429.778 143.877ZM431.953 150.546C431.953 150.111 431.808 149.676 431.518 149.241L434.128 146.632C434.998 147.647 435.578 148.951 435.723 150.546H431.953ZM425.718 155.185L428.328 152.576C428.618 152.721 428.908 152.865 429.343 153.01V156.78C427.893 156.49 426.733 156.055 425.718 155.185ZM431.083 148.951C430.793 148.661 430.358 148.516 429.778 148.516V144.747C431.228 144.747 432.678 145.327 433.693 146.342L431.083 148.951ZM427.458 150.546H423.688C423.688 149.096 424.268 147.792 425.138 146.777L427.748 149.386C427.603 149.821 427.458 150.111 427.458 150.546ZM427.458 151.126C427.603 151.561 427.748 151.851 427.893 152.141L425.283 154.75C424.413 153.735 423.833 152.576 423.688 151.126H427.458ZM429.778 152.576C428.763 152.576 427.893 151.706 427.893 150.691C427.893 149.676 428.763 148.806 429.778 148.806C430.503 148.806 431.083 149.241 431.373 149.821V149.966C431.518 150.111 431.518 150.401 431.518 150.691C431.518 150.981 431.518 151.126 431.373 151.416C431.228 151.996 430.503 152.576 429.778 152.576ZM429.923 152.865C430.358 152.865 430.648 152.721 430.938 152.576L433.548 155.185C432.533 156.055 431.228 156.635 429.923 156.635V152.865ZM429.343 144.747V148.516C428.908 148.661 428.473 148.806 428.183 149.096L425.573 146.487C426.588 145.472 427.893 144.747 429.343 144.747ZM433.983 154.895L431.373 152.286C431.663 151.996 431.808 151.561 431.953 151.126H435.723C435.578 152.576 434.998 153.88 433.983 154.895Z"
    fill="white"
  />
<g>
</g>
<path
    d="M464.868 166.493C473.597 166.493 480.673 159.418 480.673 150.691C480.673 141.964 473.597 134.889 464.868 134.889C456.139 134.889 449.063 141.964 449.063 150.691C449.063 159.418 456.139 166.493 464.868 166.493Z"
    fill="#3B5266"
  />
<path
    d="M454.138 150.691C454.138 146.487 456.458 143.007 459.938 141.123L459.358 140.253C455.588 142.283 452.978 146.197 452.978 150.691C452.978 155.185 455.588 159.1 459.358 161.129L459.938 160.259C456.603 158.375 454.138 154.75 454.138 150.691Z"
    fill="#76C1AA"
  />
<path
    d="M470.378 140.253L469.943 141.123C473.423 142.862 475.888 146.487 475.888 150.691C475.888 154.895 473.423 158.519 469.943 160.259L470.378 161.129C474.148 159.1 476.758 155.185 476.758 150.691C476.758 146.052 474.148 142.138 470.378 140.253Z"
    fill="#76C1AA"
  />
<path
    opacity="0.3"
    d="M464.868 153.01C466.149 153.01 467.188 151.972 467.188 150.691C467.188 149.41 466.149 148.372 464.868 148.372C463.587 148.372 462.548 149.41 462.548 150.691C462.548 151.972 463.587 153.01 464.868 153.01Z"
    fill="white"
  />
<path
    opacity="0.3"
    d="M466.318 148.951L468.928 146.342C467.913 145.327 466.608 144.747 465.013 144.747V148.516C465.593 148.516 465.883 148.661 466.318 148.951Z"
    fill="white"
  />
<path
    opacity="0.3"
    d="M467.188 150.546H470.958C470.958 149.096 470.378 147.647 469.363 146.632L466.753 149.241C466.898 149.676 467.043 150.111 467.188 150.546Z"
    fill="white"
  />
<path
    opacity="0.3"
    d="M466.463 152.141L469.073 154.75C470.088 153.735 470.668 152.431 470.668 150.981H466.898C467.043 151.561 466.753 151.851 466.463 152.141Z"
    fill="white"
  />
<path
    opacity="0.3"
    d="M463.563 152.431L460.953 155.04C461.968 155.91 463.128 156.49 464.578 156.49V152.721C464.143 152.866 463.853 152.721 463.563 152.431Z"
    fill="white"
  />
<path
    opacity="0.3"
    d="M465.013 152.866V156.635C466.463 156.635 467.768 156.055 468.638 155.185L466.028 152.576C465.738 152.721 465.448 152.866 465.013 152.866Z"
    fill="white"
  />
<path
    opacity="0.3"
    d="M462.983 149.386L460.373 146.777C459.503 147.792 458.923 149.096 458.923 150.546H462.693C462.693 150.111 462.693 149.821 462.983 149.386Z"
    fill="white"
  />
<path
    opacity="0.3"
    d="M462.693 151.126H458.923C459.068 152.576 459.648 153.735 460.518 154.75L463.128 152.141C462.838 151.851 462.693 151.561 462.693 151.126Z"
    fill="white"
  />
<path
    opacity="0.3"
    d="M464.433 148.371V144.602C462.983 144.747 461.678 145.327 460.663 146.197L463.273 148.806C463.708 148.661 463.998 148.516 464.433 148.371Z"
    fill="white"
  />
<path
    d="M465.013 143.877C464.578 143.877 463.998 143.877 463.563 144.022C460.373 144.602 458.053 147.357 458.053 150.691C458.053 154.46 461.098 157.505 464.868 157.505C466.753 157.505 468.493 156.78 469.653 155.475C470.958 154.17 471.683 152.576 471.683 150.691C471.828 146.922 468.783 143.877 465.013 143.877ZM467.188 150.546C467.188 150.111 467.043 149.676 466.753 149.241L469.363 146.632C470.233 147.647 470.813 148.951 470.958 150.546H467.188ZM460.953 155.185L463.563 152.576C463.853 152.721 464.143 152.865 464.578 153.01V156.78C463.128 156.49 461.823 156.055 460.953 155.185ZM466.318 148.951C466.028 148.661 465.593 148.516 465.013 148.516V144.747C466.463 144.747 467.913 145.327 468.928 146.342L466.318 148.951ZM462.548 150.546H458.923C458.923 149.096 459.503 147.792 460.373 146.777L462.983 149.386C462.693 149.821 462.693 150.111 462.548 150.546ZM462.693 151.126C462.838 151.561 462.983 151.851 463.128 152.141L460.518 154.75C459.648 153.735 459.068 152.576 458.923 151.126H462.693ZM464.868 152.576C463.853 152.576 462.983 151.706 462.983 150.691C462.983 149.676 463.853 148.806 464.868 148.806C465.593 148.806 466.173 149.241 466.463 149.821V149.966C466.608 150.111 466.608 150.401 466.608 150.691C466.608 150.981 466.608 151.126 466.463 151.416C466.318 151.996 465.738 152.576 464.868 152.576ZM465.013 152.865C465.448 152.865 465.738 152.721 466.028 152.576L468.638 155.185C467.623 156.055 466.318 156.635 465.013 156.635V152.865ZM464.433 144.747V148.516C463.998 148.661 463.563 148.806 463.273 149.096L460.663 146.487C461.678 145.472 462.983 144.747 464.433 144.747ZM469.218 154.895L466.608 152.286C466.898 151.996 467.043 151.561 467.188 151.126H470.958C470.668 152.576 470.088 153.88 469.218 154.895Z"
    fill="white"
  />
<g>
</g>
<path
    d="M500.103 166.493C508.832 166.493 515.908 159.418 515.908 150.691C515.908 141.964 508.832 134.889 500.103 134.889C491.374 134.889 484.298 141.964 484.298 150.691C484.298 159.418 491.374 166.493 500.103 166.493Z"
    fill="#3B5266"
  />
<path
    d="M489.373 150.691C489.373 146.487 491.693 143.007 495.173 141.123L494.593 140.253C490.823 142.283 488.213 146.197 488.213 150.691C488.213 155.185 490.823 159.1 494.593 161.129L495.173 160.259C491.693 158.375 489.373 154.75 489.373 150.691Z"
    fill="#76C1AA"
  />
<path
    d="M505.468 140.253L505.033 141.123C508.513 142.862 510.978 146.487 510.978 150.691C510.978 154.895 508.513 158.519 505.033 160.259L505.468 161.129C509.238 159.1 511.848 155.185 511.848 150.691C511.848 146.052 509.238 142.138 505.468 140.253Z"
    fill="#76C1AA"
  />
<path
    opacity="0.3"
    d="M500.103 153.01C501.384 153.01 502.423 151.972 502.423 150.691C502.423 149.41 501.384 148.372 500.103 148.372C498.821 148.372 497.783 149.41 497.783 150.691C497.783 151.972 498.821 153.01 500.103 153.01Z"
    fill="white"
  />
<path
    opacity="0.3"
    d="M501.408 148.951L504.018 146.342C503.003 145.327 501.698 144.747 500.103 144.747V148.516C500.683 148.516 501.118 148.661 501.408 148.951Z"
    fill="white"
  />
<path
    opacity="0.3"
    d="M502.278 150.546H506.048C506.048 149.096 505.468 147.647 504.453 146.632L501.843 149.241C502.133 149.676 502.278 150.111 502.278 150.546Z"
    fill="white"
  />
<path
    opacity="0.3"
    d="M501.698 152.141L504.308 154.75C505.323 153.735 505.903 152.431 505.903 150.981H502.133C502.133 151.561 501.988 151.851 501.698 152.141Z"
    fill="white"
  />
<path
    opacity="0.3"
    d="M498.653 152.431L496.043 155.04C497.058 155.91 498.218 156.49 499.668 156.49V152.721C499.233 152.866 498.943 152.721 498.653 152.431Z"
    fill="white"
  />
<path
    opacity="0.3"
    d="M500.248 152.866V156.635C501.698 156.635 503.003 156.055 503.873 155.185L501.263 152.576C500.973 152.721 500.538 152.866 500.248 152.866Z"
    fill="white"
  />
<path
    opacity="0.3"
    d="M498.073 149.386L495.463 146.777C494.593 147.792 494.013 149.096 494.013 150.546H497.783C497.783 150.111 497.928 149.821 498.073 149.386Z"
    fill="white"
  />
<path
    opacity="0.3"
    d="M497.783 151.126H494.013C494.158 152.576 494.738 153.735 495.608 154.75L498.218 152.141C498.073 151.851 497.928 151.561 497.783 151.126Z"
    fill="white"
  />
<path
    opacity="0.3"
    d="M499.668 148.371V144.602C498.218 144.747 496.913 145.327 495.898 146.197L498.508 148.806C498.798 148.661 499.233 148.516 499.668 148.371Z"
    fill="white"
  />
<path
    d="M500.103 143.877C499.668 143.877 499.088 143.877 498.653 144.022C495.463 144.602 493.143 147.357 493.143 150.691C493.143 154.46 496.188 157.505 499.958 157.505C501.843 157.505 503.583 156.78 504.743 155.475C506.048 154.17 506.773 152.576 506.773 150.691C506.918 146.922 503.873 143.877 500.103 143.877ZM502.278 150.546C502.278 150.111 502.133 149.676 501.843 149.241L504.453 146.632C505.323 147.647 505.903 148.951 506.048 150.546H502.278ZM496.043 155.185L498.653 152.576C498.943 152.721 499.233 152.865 499.668 153.01V156.78C498.218 156.49 497.058 156.055 496.043 155.185ZM501.408 148.951C501.118 148.661 500.683 148.516 500.103 148.516V144.747C501.553 144.747 503.003 145.327 504.018 146.342L501.408 148.951ZM497.783 150.546H494.013C494.013 149.096 494.593 147.792 495.463 146.777L498.073 149.386C497.928 149.821 497.783 150.111 497.783 150.546ZM497.783 151.126C497.928 151.561 498.073 151.851 498.218 152.141L495.608 154.75C494.738 153.735 494.158 152.576 494.013 151.126H497.783ZM500.103 152.576C499.088 152.576 498.218 151.706 498.218 150.691C498.218 149.676 499.088 148.806 500.103 148.806C500.828 148.806 501.408 149.241 501.698 149.821V149.966C501.843 150.111 501.843 150.401 501.843 150.691C501.843 150.981 501.843 151.126 501.698 151.416C501.553 151.996 500.828 152.576 500.103 152.576ZM500.248 152.865C500.683 152.865 500.973 152.721 501.263 152.576L503.873 155.185C502.858 156.055 501.553 156.635 500.248 156.635V152.865ZM499.668 144.747V148.516C499.233 148.661 498.798 148.806 498.508 149.096L495.898 146.487C496.913 145.472 498.218 144.747 499.668 144.747ZM504.308 154.895L501.698 152.286C501.988 151.996 502.133 151.561 502.278 151.126H506.048C505.903 152.576 505.323 153.88 504.308 154.895Z"
    fill="white"
  />
<g>
</g>
<path
    d="M535.193 166.493C543.921 166.493 550.998 159.418 550.998 150.691C550.998 141.964 543.921 134.889 535.193 134.889C526.464 134.889 519.388 141.964 519.388 150.691C519.388 159.418 526.464 166.493 535.193 166.493Z"
    fill="#3B5266"
  />
<path
    d="M524.463 150.691C524.463 146.487 526.783 143.007 530.263 141.123L529.683 140.253C525.913 142.283 523.303 146.197 523.303 150.691C523.303 155.185 525.913 159.1 529.683 161.129L530.263 160.259C526.928 158.375 524.463 154.75 524.463 150.691Z"
    fill="#76C1AA"
  />
<path
    d="M540.703 140.253L540.268 141.123C543.748 142.862 546.213 146.487 546.213 150.691C546.213 154.895 543.748 158.519 540.268 160.259L540.703 161.129C544.473 159.1 547.082 155.185 547.082 150.691C546.937 146.052 544.473 142.138 540.703 140.253Z"
    fill="#76C1AA"
  />
<path
    opacity="0.3"
    d="M535.193 153.01C536.474 153.01 537.513 151.972 537.513 150.691C537.513 149.41 536.474 148.372 535.193 148.372C533.911 148.372 532.873 149.41 532.873 150.691C532.873 151.972 533.911 153.01 535.193 153.01Z"
    fill="white"
  />
<path
    opacity="0.3"
    d="M536.642 148.951L539.252 146.342C538.237 145.327 536.932 144.747 535.337 144.747V148.516C535.772 148.516 536.207 148.661 536.642 148.951Z"
    fill="white"
  />
<path
    opacity="0.3"
    d="M537.513 150.546H541.283C541.283 149.096 540.703 147.647 539.688 146.632L537.078 149.241C537.223 149.676 537.368 150.111 537.513 150.546Z"
    fill="white"
  />
<path
    opacity="0.3"
    d="M536.788 152.141L539.398 154.75C540.412 153.735 540.992 152.431 540.992 150.981H537.223C537.368 151.561 537.078 151.851 536.788 152.141Z"
    fill="white"
  />
<path
    opacity="0.3"
    d="M533.887 152.431L531.277 155.04C532.292 155.91 533.452 156.49 534.902 156.49V152.721C534.467 152.866 534.177 152.721 533.887 152.431Z"
    fill="white"
  />
<path
    opacity="0.3"
    d="M535.337 152.866V156.635C536.787 156.635 538.092 156.055 538.962 155.185L536.352 152.576C536.062 152.721 535.772 152.866 535.337 152.866Z"
    fill="white"
  />
<path
    opacity="0.3"
    d="M533.308 149.386L530.698 146.777C529.828 147.792 529.248 149.096 529.248 150.546H533.018C532.873 150.111 533.018 149.821 533.308 149.386Z"
    fill="white"
  />
<path
    opacity="0.3"
    d="M533.018 151.126H529.248C529.393 152.576 529.973 153.735 530.843 154.75L533.453 152.141C533.163 151.851 533.018 151.561 533.018 151.126Z"
    fill="white"
  />
<path
    opacity="0.3"
    d="M534.758 148.371V144.602C533.308 144.747 532.003 145.327 530.988 146.197L533.598 148.806C533.888 148.661 534.323 148.516 534.758 148.371Z"
    fill="white"
  />
<path
    d="M535.337 143.877C534.902 143.877 534.322 143.877 533.887 144.022C530.697 144.602 528.377 147.357 528.377 150.691C528.377 154.46 531.422 157.505 535.192 157.505C537.077 157.505 538.817 156.78 539.977 155.475C541.282 154.17 542.007 152.576 542.007 150.691C542.152 146.922 539.107 143.877 535.337 143.877ZM537.512 150.546C537.512 150.111 537.367 149.676 537.077 149.241L539.687 146.632C540.557 147.647 541.137 148.951 541.282 150.546H537.512ZM531.132 155.185L533.742 152.576C534.032 152.721 534.322 152.865 534.757 153.01V156.78C533.452 156.49 532.147 156.055 531.132 155.185ZM536.642 148.951C536.352 148.661 535.917 148.516 535.337 148.516V144.747C536.787 144.747 538.237 145.327 539.252 146.342L536.642 148.951ZM532.872 150.546H529.102C529.102 149.096 529.682 147.792 530.552 146.777L533.162 149.386C533.017 149.821 532.872 150.111 532.872 150.546ZM533.017 151.126C533.162 151.561 533.307 151.851 533.452 152.141L530.842 154.75C529.972 153.735 529.392 152.576 529.247 151.126H533.017ZM535.192 152.576C534.177 152.576 533.307 151.706 533.307 150.691C533.307 149.676 534.177 148.806 535.192 148.806C535.917 148.806 536.497 149.241 536.787 149.821V149.966C536.932 150.111 536.932 150.401 536.932 150.691C536.932 150.981 536.932 151.126 536.787 151.416C536.642 151.996 536.062 152.576 535.192 152.576ZM535.337 152.865C535.772 152.865 536.062 152.721 536.352 152.576L538.962 155.185C537.947 156.055 536.642 156.635 535.337 156.635V152.865ZM534.757 144.747V148.516C534.322 148.661 533.887 148.806 533.597 149.096L530.987 146.487C532.002 145.472 533.307 144.747 534.757 144.747ZM539.542 154.895L536.932 152.286C537.222 151.996 537.367 151.561 537.512 151.126H541.282C540.992 152.576 540.412 153.88 539.542 154.895Z"
    fill="white"
  />
<g>
</g>
<path
    d="M570.427 166.493C579.156 166.493 586.232 159.418 586.232 150.691C586.232 141.964 579.156 134.889 570.427 134.889C561.699 134.889 554.623 141.964 554.623 150.691C554.623 159.418 561.699 166.493 570.427 166.493Z"
    fill="#3B5266"
  />
<path
    d="M559.698 150.691C559.698 146.487 562.018 143.007 565.498 141.123L564.918 140.253C561.148 142.283 558.538 146.197 558.538 150.691C558.538 155.185 561.148 159.1 564.918 161.129L565.498 160.259C562.018 158.375 559.698 154.75 559.698 150.691Z"
    fill="#76C1AA"
  />
<path
    d="M575.792 140.253L575.357 141.123C578.837 142.862 581.302 146.487 581.302 150.691C581.302 154.895 578.837 158.519 575.357 160.259L575.792 161.129C579.562 159.1 582.172 155.185 582.172 150.691C582.172 146.052 579.562 142.138 575.792 140.253Z"
    fill="#76C1AA"
  />
<path
    opacity="0.3"
    d="M570.427 153.01C571.709 153.01 572.747 151.972 572.747 150.691C572.747 149.41 571.709 148.372 570.427 148.372C569.146 148.372 568.107 149.41 568.107 150.691C568.107 151.972 569.146 153.01 570.427 153.01Z"
    fill="white"
  />
<path
    opacity="0.3"
    d="M571.733 148.951L574.343 146.342C573.328 145.327 572.023 144.747 570.428 144.747V148.516C571.008 148.516 571.443 148.661 571.733 148.951Z"
    fill="white"
  />
<path
    opacity="0.3"
    d="M572.603 150.546H576.373C576.373 149.096 575.793 147.647 574.778 146.632L572.168 149.241C572.458 149.676 572.603 150.111 572.603 150.546Z"
    fill="white"
  />
<path
    opacity="0.3"
    d="M572.023 152.141L574.633 154.75C575.648 153.735 576.228 152.431 576.228 150.981H572.458C572.458 151.561 572.313 151.851 572.023 152.141Z"
    fill="white"
  />
<path
    opacity="0.3"
    d="M568.978 152.431L566.368 155.04C567.383 155.91 568.543 156.49 569.993 156.49V152.721C569.558 152.866 569.268 152.721 568.978 152.431Z"
    fill="white"
  />
<path
    opacity="0.3"
    d="M570.573 152.866V156.635C572.023 156.635 573.328 156.055 574.198 155.185L571.588 152.576C571.298 152.721 570.863 152.866 570.573 152.866Z"
    fill="white"
  />
<path
    opacity="0.3"
    d="M568.398 149.386L565.788 146.777C564.918 147.792 564.338 149.096 564.338 150.546H568.108C568.108 150.111 568.253 149.821 568.398 149.386Z"
    fill="white"
  />
<path
    opacity="0.3"
    d="M568.108 151.126H564.338C564.483 152.576 565.063 153.735 565.933 154.75L568.543 152.141C568.398 151.851 568.253 151.561 568.108 151.126Z"
    fill="white"
  />
<path
    opacity="0.3"
    d="M569.993 148.371V144.602C568.543 144.747 567.238 145.327 566.223 146.197L568.833 148.806C569.123 148.661 569.558 148.516 569.993 148.371Z"
    fill="white"
  />
<path
    d="M570.428 143.877C569.993 143.877 569.413 143.877 568.978 144.022C565.788 144.602 563.468 147.357 563.468 150.691C563.468 154.46 566.513 157.505 570.283 157.505C572.168 157.505 573.908 156.78 575.068 155.475C576.373 154.17 577.098 152.576 577.098 150.691C577.243 146.922 574.198 143.877 570.428 143.877ZM572.603 150.546C572.603 150.111 572.458 149.676 572.168 149.241L574.778 146.632C575.648 147.647 576.228 148.951 576.373 150.546H572.603ZM566.368 155.185L568.978 152.576C569.268 152.721 569.558 152.865 569.993 153.01V156.78C568.543 156.49 567.383 156.055 566.368 155.185ZM571.733 148.951C571.443 148.661 571.008 148.516 570.428 148.516V144.747C571.878 144.747 573.328 145.327 574.343 146.342L571.733 148.951ZM568.108 150.546H564.338C564.338 149.096 564.918 147.792 565.788 146.777L568.398 149.386C568.253 149.821 568.108 150.111 568.108 150.546ZM568.108 151.126C568.253 151.561 568.398 151.851 568.543 152.141L565.933 154.75C565.063 153.735 564.483 152.576 564.338 151.126H568.108ZM570.428 152.576C569.413 152.576 568.543 151.706 568.543 150.691C568.543 149.676 569.413 148.806 570.428 148.806C571.153 148.806 571.733 149.241 572.023 149.821V149.966C572.168 150.111 572.168 150.401 572.168 150.691C572.168 150.981 572.168 151.126 572.023 151.416C571.733 151.996 571.153 152.576 570.428 152.576ZM570.573 152.865C571.008 152.865 571.298 152.721 571.588 152.576L574.198 155.185C573.183 156.055 571.878 156.635 570.573 156.635V152.865ZM569.993 144.747V148.516C569.558 148.661 569.123 148.806 568.833 149.096L566.223 146.487C567.093 145.472 568.543 144.747 569.993 144.747ZM574.633 154.895L572.023 152.286C572.313 151.996 572.458 151.561 572.603 151.126H576.373C576.228 152.576 575.648 153.88 574.633 154.895Z"
    fill="white"
  />
<g>
</g>
<path
    d="M605.517 166.493C614.246 166.493 621.322 159.418 621.322 150.691C621.322 141.964 614.246 134.889 605.517 134.889C596.789 134.889 589.712 141.964 589.712 150.691C589.712 159.418 596.789 166.493 605.517 166.493Z"
    fill="#3B5266"
  />
<path
    d="M594.787 150.691C594.787 146.487 597.107 143.007 600.587 141.123L600.007 140.253C596.237 142.283 593.627 146.197 593.627 150.691C593.627 155.185 596.237 159.1 600.007 161.129L600.587 160.259C597.107 158.375 594.787 154.75 594.787 150.691Z"
    fill="#76C1AA"
  />
<path
    d="M611.027 140.253L610.592 141.123C614.072 142.862 616.537 146.487 616.537 150.691C616.537 154.895 614.072 158.519 610.592 160.259L611.027 161.129C614.797 159.1 617.407 155.185 617.407 150.691C617.262 146.052 614.797 142.138 611.027 140.253Z"
    fill="#76C1AA"
  />
<path
    opacity="0.3"
    d="M605.517 153.01C606.799 153.01 607.837 151.972 607.837 150.691C607.837 149.41 606.799 148.372 605.517 148.372C604.236 148.372 603.197 149.41 603.197 150.691C603.197 151.972 604.236 153.01 605.517 153.01Z"
    fill="white"
  />
<path
    opacity="0.3"
    d="M606.967 148.951L609.577 146.342C608.562 145.327 607.257 144.747 605.662 144.747V148.516C606.097 148.516 606.532 148.661 606.967 148.951Z"
    fill="white"
  />
<path
    opacity="0.3"
    d="M607.692 150.546H611.462C611.462 149.096 610.882 147.647 609.867 146.632L607.257 149.241C607.547 149.676 607.692 150.111 607.692 150.546Z"
    fill="white"
  />
<path
    opacity="0.3"
    d="M607.112 152.141L609.722 154.75C610.737 153.735 611.317 152.431 611.317 150.981H607.547C607.692 151.561 607.402 151.851 607.112 152.141Z"
    fill="white"
  />
<path
    opacity="0.3"
    d="M604.212 152.431L601.602 155.04C602.617 155.91 603.777 156.49 605.227 156.49V152.721C604.792 152.866 604.357 152.721 604.212 152.431Z"
    fill="white"
  />
<path
    opacity="0.3"
    d="M605.662 152.866V156.635C607.112 156.635 608.417 156.055 609.287 155.185L606.677 152.576C606.387 152.721 606.097 152.866 605.662 152.866Z"
    fill="white"
  />
<path
    opacity="0.3"
    d="M603.632 149.386L601.022 146.777C600.152 147.792 599.572 149.096 599.572 150.546H603.342C603.197 150.111 603.342 149.821 603.632 149.386Z"
    fill="white"
  />
<path
    opacity="0.3"
    d="M603.197 151.126H599.572C599.717 152.576 600.297 153.735 601.167 154.75L603.777 152.141C603.487 151.851 603.342 151.561 603.197 151.126Z"
    fill="white"
  />
<path
    opacity="0.3"
    d="M605.082 148.371V144.602C603.632 144.747 602.327 145.327 601.312 146.197L603.922 148.806C604.212 148.661 604.647 148.516 605.082 148.371Z"
    fill="white"
  />
<path
    d="M605.662 143.877C605.227 143.877 604.647 143.877 604.212 144.022C601.022 144.602 598.702 147.357 598.702 150.691C598.702 154.46 601.747 157.505 605.517 157.505C607.402 157.505 609.142 156.78 610.302 155.475C611.607 154.17 612.332 152.576 612.332 150.691C612.332 146.922 609.432 143.877 605.662 143.877ZM607.692 150.546C607.692 150.111 607.547 149.676 607.257 149.241L609.867 146.632C610.737 147.647 611.317 148.951 611.462 150.546H607.692ZM601.457 155.185L604.067 152.576C604.357 152.721 604.647 152.865 605.082 153.01V156.78C603.777 156.49 602.472 156.055 601.457 155.185ZM606.967 148.951C606.677 148.661 606.242 148.516 605.662 148.516V144.747C607.112 144.747 608.562 145.327 609.577 146.342L606.967 148.951ZM603.197 150.546H599.572C599.572 149.096 600.152 147.792 601.022 146.777L603.632 149.386C603.342 149.821 603.197 150.111 603.197 150.546ZM603.197 151.126C603.342 151.561 603.487 151.851 603.632 152.141L601.022 154.75C600.152 153.735 599.572 152.576 599.427 151.126H603.197ZM605.517 152.576C604.502 152.576 603.632 151.706 603.632 150.691C603.632 149.676 604.502 148.806 605.517 148.806C606.242 148.806 606.822 149.241 607.112 149.821V149.966C607.257 150.111 607.257 150.401 607.257 150.691C607.257 150.981 607.257 151.126 607.112 151.416C606.967 151.996 606.242 152.576 605.517 152.576ZM605.662 152.865C606.097 152.865 606.387 152.721 606.677 152.576L609.287 155.185C608.272 156.055 606.967 156.635 605.662 156.635V152.865ZM605.082 144.747V148.516C604.647 148.661 604.212 148.806 603.922 149.096L601.312 146.487C602.327 145.472 603.632 144.747 605.082 144.747ZM609.722 154.895L607.112 152.286C607.402 151.996 607.547 151.561 607.692 151.126H611.462C611.317 152.576 610.737 153.88 609.722 154.895Z"
    fill="white"
  />
<g>
</g>
<path
    d="M640.752 166.493C649.481 166.493 656.557 159.418 656.557 150.691C656.557 141.964 649.481 134.889 640.752 134.889C632.023 134.889 624.947 141.964 624.947 150.691C624.947 159.418 632.023 166.493 640.752 166.493Z"
    fill="#3B5266"
  />
<path
    d="M630.022 150.691C630.022 146.487 632.342 143.007 635.822 141.123L635.242 140.253C631.472 142.283 628.862 146.197 628.862 150.691C628.862 155.185 631.472 159.1 635.242 161.129L635.822 160.259C632.342 158.375 630.022 154.75 630.022 150.691Z"
    fill="#76C1AA"
  />
<path
    d="M646.117 140.253L645.682 141.123C649.162 142.862 651.627 146.487 651.627 150.691C651.627 154.895 649.162 158.519 645.682 160.259L646.117 161.129C649.887 159.1 652.497 155.185 652.497 150.691C652.497 146.052 649.887 142.138 646.117 140.253Z"
    fill="#76C1AA"
  />
<path
    opacity="0.3"
    d="M640.752 153.01C642.033 153.01 643.072 151.972 643.072 150.691C643.072 149.41 642.033 148.372 640.752 148.372C639.471 148.372 638.432 149.41 638.432 150.691C638.432 151.972 639.471 153.01 640.752 153.01Z"
    fill="white"
  />
<path
    opacity="0.3"
    d="M642.057 148.951L644.667 146.342C643.652 145.327 642.347 144.747 640.752 144.747V148.516C641.332 148.516 641.767 148.661 642.057 148.951Z"
    fill="white"
  />
<path
    opacity="0.3"
    d="M642.928 150.546H646.698C646.698 149.096 646.118 147.647 645.103 146.632L642.493 149.241C642.783 149.676 642.928 150.111 642.928 150.546Z"
    fill="white"
  />
<path
    opacity="0.3"
    d="M642.348 152.141L644.958 154.75C645.973 153.735 646.553 152.431 646.553 150.981H642.783C642.783 151.561 642.638 151.851 642.348 152.141Z"
    fill="white"
  />
<path
    opacity="0.3"
    d="M639.302 152.431L636.692 155.04C637.707 155.91 638.867 156.49 640.317 156.49V152.721C639.882 152.866 639.592 152.721 639.302 152.431Z"
    fill="white"
  />
<path
    opacity="0.3"
    d="M640.752 152.866V156.635C642.202 156.635 643.507 156.055 644.377 155.185L641.767 152.576C641.622 152.721 641.187 152.866 640.752 152.866Z"
    fill="white"
  />
<path
    opacity="0.3"
    d="M638.722 149.386L636.113 146.777C635.243 147.792 634.663 149.096 634.663 150.546H638.432C638.432 150.111 638.577 149.821 638.722 149.386Z"
    fill="white"
  />
<path
    opacity="0.3"
    d="M638.433 151.126H634.663C634.808 152.576 635.388 153.735 636.258 154.75L638.867 152.141C638.722 151.851 638.433 151.561 638.433 151.126Z"
    fill="white"
  />
<path
    opacity="0.3"
    d="M640.317 148.371V144.602C638.867 144.747 637.562 145.327 636.547 146.197L639.157 148.806C639.447 148.661 639.882 148.516 640.317 148.371Z"
    fill="white"
  />
<path
    d="M640.752 143.877C640.317 143.877 639.737 143.877 639.302 144.022C636.112 144.602 633.792 147.357 633.792 150.691C633.792 154.46 636.837 157.505 640.607 157.505C642.492 157.505 644.232 156.78 645.392 155.475C646.697 154.17 647.422 152.576 647.422 150.691C647.567 146.922 644.522 143.877 640.752 143.877ZM642.927 150.546C642.927 150.111 642.782 149.676 642.492 149.241L645.102 146.632C645.972 147.647 646.552 148.951 646.697 150.546H642.927ZM636.692 155.185L639.302 152.576C639.592 152.721 639.882 152.865 640.317 153.01V156.78C638.867 156.49 637.562 156.055 636.692 155.185ZM642.057 148.951C641.767 148.661 641.332 148.516 640.752 148.516V144.747C642.202 144.747 643.652 145.327 644.667 146.342L642.057 148.951ZM638.432 150.546H634.662C634.662 149.096 635.242 147.792 636.112 146.777L638.722 149.386C638.577 149.821 638.432 150.111 638.432 150.546ZM638.432 151.126C638.577 151.561 638.722 151.851 638.867 152.141L636.257 154.75C635.387 153.735 634.807 152.576 634.662 151.126H638.432ZM640.752 152.576C639.737 152.576 638.867 151.706 638.867 150.691C638.867 149.676 639.737 148.806 640.752 148.806C641.477 148.806 642.057 149.241 642.347 149.821V149.966C642.492 150.111 642.492 150.401 642.492 150.691C642.492 150.981 642.492 151.126 642.347 151.416C642.057 151.996 641.477 152.576 640.752 152.576ZM640.752 152.865C641.187 152.865 641.477 152.721 641.767 152.576L644.377 155.185C643.362 156.055 642.057 156.635 640.752 156.635V152.865ZM640.317 144.747V148.516C639.882 148.661 639.447 148.806 639.157 149.096L636.547 146.487C637.417 145.472 638.722 144.747 640.317 144.747ZM644.957 154.895L642.347 152.286C642.637 151.996 642.782 151.561 642.927 151.126H646.697C646.552 152.576 645.827 153.88 644.957 154.895Z"
    fill="white"
  />
<g>
</g>
<path
    d="M675.842 166.493C684.571 166.493 691.647 159.418 691.647 150.691C691.647 141.964 684.571 134.889 675.842 134.889C667.113 134.889 660.037 141.964 660.037 150.691C660.037 159.418 667.113 166.493 675.842 166.493Z"
    fill="#3B5266"
  />
<path
    d="M665.112 150.691C665.112 146.487 667.432 143.007 670.912 141.123L670.332 140.253C666.562 142.283 663.952 146.197 663.952 150.691C663.952 155.185 666.562 159.1 670.332 161.129L670.912 160.259C667.432 158.375 665.112 154.75 665.112 150.691Z"
    fill="#76C1AA"
  />
<path
    d="M681.207 140.253L680.772 141.123C684.252 142.862 686.717 146.487 686.717 150.691C686.717 154.895 684.252 158.519 680.772 160.259L681.207 161.129C684.977 159.1 687.587 155.185 687.587 150.691C687.587 146.052 684.977 142.138 681.207 140.253Z"
    fill="#76C1AA"
  />
<path
    opacity="0.3"
    d="M675.842 153.01C677.123 153.01 678.162 151.972 678.162 150.691C678.162 149.41 677.123 148.372 675.842 148.372C674.561 148.372 673.522 149.41 673.522 150.691C673.522 151.972 674.561 153.01 675.842 153.01Z"
    fill="white"
  />
<path
    opacity="0.3"
    d="M677.292 148.951L679.902 146.342C678.887 145.327 677.582 144.747 675.987 144.747V148.516C676.422 148.516 676.857 148.661 677.292 148.951Z"
    fill="white"
  />
<path
    opacity="0.3"
    d="M678.017 150.546H681.787C681.787 149.096 681.207 147.647 680.192 146.632L677.582 149.241C677.872 149.676 678.017 150.111 678.017 150.546Z"
    fill="white"
  />
<path
    opacity="0.3"
    d="M677.437 152.141L680.047 154.75C681.062 153.735 681.642 152.431 681.642 150.981H677.872C677.872 151.561 677.727 151.851 677.437 152.141Z"
    fill="white"
  />
<path
    opacity="0.3"
    d="M674.392 152.431L671.782 155.04C672.797 155.91 673.957 156.49 675.407 156.49V152.721C675.117 152.866 674.682 152.721 674.392 152.431Z"
    fill="white"
  />
<path
    opacity="0.3"
    d="M675.987 152.866V156.635C677.437 156.635 678.742 156.055 679.612 155.185L677.002 152.576C676.712 152.721 676.422 152.866 675.987 152.866Z"
    fill="white"
  />
<path
    opacity="0.3"
    d="M673.957 149.386L671.347 146.777C670.477 147.792 669.897 149.096 669.897 150.546H673.667C673.522 150.111 673.667 149.821 673.957 149.386Z"
    fill="white"
  />
<path
    opacity="0.3"
    d="M673.522 151.126H669.752C669.897 152.576 670.477 153.735 671.347 154.75L673.957 152.141C673.812 151.851 673.667 151.561 673.522 151.126Z"
    fill="white"
  />
<path
    opacity="0.3"
    d="M675.407 148.371V144.602C673.957 144.747 672.652 145.327 671.637 146.197L674.247 148.806C674.537 148.661 674.972 148.516 675.407 148.371Z"
    fill="white"
  />
<path
    d="M675.987 143.877C675.552 143.877 674.972 143.877 674.537 144.022C671.347 144.602 669.027 147.357 669.027 150.691C669.027 154.46 672.072 157.505 675.842 157.505C677.727 157.505 679.467 156.78 680.627 155.475C681.932 154.17 682.657 152.576 682.657 150.691C682.657 146.922 679.612 143.877 675.987 143.877ZM678.017 150.546C678.017 150.111 677.872 149.676 677.582 149.241L680.192 146.632C681.062 147.647 681.642 148.951 681.787 150.546H678.017ZM671.782 155.185L674.392 152.576C674.682 152.721 674.972 152.865 675.407 153.01V156.78C674.102 156.49 672.797 156.055 671.782 155.185ZM677.292 148.951C677.002 148.661 676.567 148.516 675.987 148.516V144.747C677.437 144.747 678.887 145.327 679.902 146.342L677.292 148.951ZM673.522 150.546H669.752C669.752 149.096 670.332 147.792 671.202 146.777L673.812 149.386C673.667 149.821 673.522 150.111 673.522 150.546ZM673.522 151.126C673.667 151.561 673.812 151.851 673.957 152.141L671.347 154.75C670.477 153.735 669.897 152.576 669.752 151.126H673.522ZM675.842 152.576C674.827 152.576 673.957 151.706 673.957 150.691C673.957 149.676 674.827 148.806 675.842 148.806C676.567 148.806 677.147 149.241 677.437 149.821V149.966C677.582 150.111 677.582 150.401 677.582 150.691C677.582 150.981 677.582 151.126 677.437 151.416C677.292 151.996 676.567 152.576 675.842 152.576ZM675.987 152.865C676.422 152.865 676.712 152.721 677.002 152.576L679.612 155.185C678.597 156.055 677.292 156.635 675.987 156.635V152.865ZM675.407 144.747V148.516C674.972 148.661 674.537 148.806 674.247 149.096L671.637 146.487C672.652 145.472 673.957 144.747 675.407 144.747ZM680.047 154.895L677.437 152.286C677.727 151.996 677.872 151.561 678.017 151.126H681.787C681.642 152.576 681.062 153.88 680.047 154.895Z"
    fill="white"
  />
<g>
</g>
<path
    d="M710.932 166.493C719.661 166.493 726.737 159.418 726.737 150.691C726.737 141.964 719.661 134.889 710.932 134.889C702.203 134.889 695.127 141.964 695.127 150.691C695.127 159.418 702.203 166.493 710.932 166.493Z"
    fill="#3B5266"
  />
<path
    d="M700.347 150.691C700.347 146.487 702.667 143.007 706.147 141.123L705.567 140.253C701.797 142.283 699.187 146.197 699.187 150.691C699.187 155.185 701.797 159.1 705.567 161.129L706.147 160.259C702.667 158.375 700.347 154.75 700.347 150.691Z"
    fill="#76C1AA"
  />
<path
    d="M716.442 140.253L716.007 141.123C719.487 142.862 721.952 146.487 721.952 150.691C721.952 154.895 719.487 158.519 716.007 160.259L716.442 161.129C720.212 159.1 722.822 155.185 722.822 150.691C722.822 146.052 720.212 142.138 716.442 140.253Z"
    fill="#76C1AA"
  />
<path
    opacity="0.3"
    d="M710.932 153.01C712.213 153.01 713.252 151.972 713.252 150.691C713.252 149.41 712.213 148.372 710.932 148.372C709.65 148.372 708.612 149.41 708.612 150.691C708.612 151.972 709.65 153.01 710.932 153.01Z"
    fill="white"
  />
<path
    opacity="0.3"
    d="M712.382 148.951L714.992 146.342C713.977 145.327 712.672 144.747 711.077 144.747V148.516C711.657 148.516 712.092 148.661 712.382 148.951Z"
    fill="white"
  />
<path
    opacity="0.3"
    d="M713.251 150.546H717.021C717.021 149.096 716.441 147.647 715.426 146.632L712.816 149.241C713.106 149.676 713.251 150.111 713.251 150.546Z"
    fill="white"
  />
<path
    opacity="0.3"
    d="M712.672 152.141L715.282 154.75C716.297 153.735 716.877 152.431 716.877 150.981H713.107C713.107 151.561 712.962 151.851 712.672 152.141Z"
    fill="white"
  />
<path
    opacity="0.3"
    d="M709.627 152.431L707.017 155.04C708.032 155.91 709.192 156.49 710.642 156.49V152.721C710.207 152.866 709.917 152.721 709.627 152.431Z"
    fill="white"
  />
<path
    opacity="0.3"
    d="M711.077 152.866V156.635C712.527 156.635 713.832 156.055 714.702 155.185L712.092 152.576C711.947 152.721 711.512 152.866 711.077 152.866Z"
    fill="white"
  />
<path
    opacity="0.3"
    d="M709.047 149.386L706.437 146.777C705.567 147.792 704.987 149.096 704.987 150.546H708.757C708.757 150.111 708.902 149.821 709.047 149.386Z"
    fill="white"
  />
<path
    opacity="0.3"
    d="M708.757 151.126H704.987C705.132 152.576 705.712 153.735 706.582 154.75L709.192 152.141C709.047 151.851 708.757 151.561 708.757 151.126Z"
    fill="white"
  />
<path
    opacity="0.3"
    d="M710.496 148.371V144.602C709.046 144.747 707.742 145.327 706.727 146.197L709.336 148.806C709.771 148.661 710.061 148.516 710.496 148.371Z"
    fill="white"
  />
<path
    d="M711.077 143.877C710.642 143.877 710.062 143.877 709.627 144.022C706.437 144.602 704.117 147.357 704.117 150.691C704.117 154.46 707.162 157.505 710.932 157.505C712.817 157.505 714.557 156.78 715.717 155.475C717.022 154.17 717.747 152.576 717.747 150.691C717.892 146.922 714.847 143.877 711.077 143.877ZM713.252 150.546C713.252 150.111 713.107 149.676 712.817 149.241L715.427 146.632C716.297 147.647 716.877 148.951 717.022 150.546H713.252ZM707.017 155.185L709.627 152.576C709.917 152.721 710.207 152.865 710.642 153.01V156.78C709.192 156.49 707.887 156.055 707.017 155.185ZM712.382 148.951C712.092 148.661 711.657 148.516 711.077 148.516V144.747C712.527 144.747 713.977 145.327 714.992 146.342L712.382 148.951ZM708.757 150.546H704.987C704.987 149.096 705.567 147.792 706.437 146.777L709.047 149.386C708.902 149.821 708.757 150.111 708.757 150.546ZM708.757 151.126C708.902 151.561 709.047 151.851 709.192 152.141L706.582 154.75C705.712 153.735 705.132 152.576 704.987 151.126H708.757ZM710.932 152.576C709.917 152.576 709.047 151.706 709.047 150.691C709.047 149.676 709.917 148.806 710.932 148.806C711.657 148.806 712.237 149.241 712.527 149.821V149.966C712.672 150.111 712.672 150.401 712.672 150.691C712.672 150.981 712.672 151.126 712.527 151.416C712.382 151.996 711.802 152.576 710.932 152.576ZM711.077 152.865C711.512 152.865 711.802 152.721 712.092 152.576L714.702 155.185C713.687 156.055 712.382 156.635 711.077 156.635V152.865ZM710.497 144.747V148.516C710.062 148.661 709.627 148.806 709.337 149.096L706.727 146.487C707.742 145.472 709.047 144.747 710.497 144.747ZM715.282 154.895L712.672 152.286C712.962 151.996 713.107 151.561 713.252 151.126H717.022C716.732 152.576 716.152 153.88 715.282 154.895Z"
    fill="white"
  />
<g>
</g>
<path
    d="M746.167 166.493C754.896 166.493 761.972 159.418 761.972 150.691C761.972 141.964 754.896 134.889 746.167 134.889C737.438 134.889 730.362 141.964 730.362 150.691C730.362 159.418 737.438 166.493 746.167 166.493Z"
    fill="#3B5266"
  />
<path
    d="M735.437 150.691C735.437 146.487 737.757 143.007 741.237 141.123L740.657 140.253C736.887 142.283 734.277 146.197 734.277 150.691C734.277 155.185 736.887 159.1 740.657 161.129L741.237 160.259C737.757 158.375 735.437 154.75 735.437 150.691Z"
    fill="#76C1AA"
  />
<path
    d="M751.532 140.253L751.097 141.123C754.577 142.862 757.042 146.487 757.042 150.691C757.042 154.895 754.577 158.519 751.097 160.259L751.532 161.129C755.302 159.1 757.912 155.185 757.912 150.691C757.912 146.052 755.302 142.138 751.532 140.253Z"
    fill="#76C1AA"
  />
<path
    opacity="0.3"
    d="M746.167 153.01C747.448 153.01 748.487 151.972 748.487 150.691C748.487 149.41 747.448 148.372 746.167 148.372C744.885 148.372 743.847 149.41 743.847 150.691C743.847 151.972 744.885 153.01 746.167 153.01Z"
    fill="white"
  />
<path
    opacity="0.3"
    d="M747.472 148.951L750.082 146.342C749.067 145.327 747.762 144.747 746.167 144.747V148.516C746.747 148.516 747.182 148.661 747.472 148.951Z"
    fill="white"
  />
<path
    opacity="0.3"
    d="M748.342 150.546H752.112C752.112 149.096 751.532 147.647 750.517 146.632L747.907 149.241C748.197 149.676 748.342 150.111 748.342 150.546Z"
    fill="white"
  />
<path
    opacity="0.3"
    d="M747.762 152.141L750.372 154.75C751.387 153.735 751.967 152.431 751.967 150.981H748.197C748.197 151.561 748.052 151.851 747.762 152.141Z"
    fill="white"
  />
<path
    opacity="0.3"
    d="M744.717 152.431L742.107 155.04C743.122 155.91 744.282 156.49 745.732 156.49V152.721C745.297 152.866 745.007 152.721 744.717 152.431Z"
    fill="white"
  />
<path
    opacity="0.3"
    d="M746.312 152.866V156.635C747.762 156.635 749.067 156.055 749.937 155.185L747.327 152.576C747.037 152.721 746.602 152.866 746.312 152.866Z"
    fill="white"
  />
<path
    opacity="0.3"
    d="M744.137 149.386L741.527 146.777C740.657 147.792 740.077 149.096 740.077 150.546H743.847C743.847 150.111 743.992 149.821 744.137 149.386Z"
    fill="white"
  />
<path
    opacity="0.3"
    d="M743.847 151.126H740.222C740.367 152.576 740.947 153.735 741.817 154.75L744.427 152.141C744.137 151.851 743.992 151.561 743.847 151.126Z"
    fill="white"
  />
<path
    opacity="0.3"
    d="M745.732 148.371V144.602C744.282 144.747 742.977 145.327 741.962 146.197L744.572 148.806C744.862 148.661 745.297 148.516 745.732 148.371Z"
    fill="white"
  />
<path
    d="M746.167 143.877C745.732 143.877 745.152 143.877 744.717 144.022C741.527 144.602 739.207 147.357 739.207 150.691C739.207 154.46 742.252 157.505 746.022 157.505C747.907 157.505 749.647 156.78 750.807 155.475C752.112 154.17 752.837 152.576 752.837 150.691C752.982 146.922 749.937 143.877 746.167 143.877ZM748.342 150.546C748.342 150.111 748.197 149.676 747.907 149.241L750.517 146.632C751.387 147.647 751.967 148.951 752.112 150.546H748.342ZM742.107 155.185L744.717 152.576C745.007 152.721 745.297 152.865 745.732 153.01V156.78C744.282 156.49 743.122 156.055 742.107 155.185ZM747.472 148.951C747.182 148.661 746.747 148.516 746.167 148.516V144.747C747.617 144.747 749.067 145.327 750.082 146.342L747.472 148.951ZM743.847 150.546H740.077C740.077 149.096 740.657 147.792 741.527 146.777L744.137 149.386C743.992 149.821 743.847 150.111 743.847 150.546ZM743.847 151.126C743.992 151.561 744.137 151.851 744.282 152.141L741.672 154.75C740.802 153.735 740.222 152.576 740.077 151.126H743.847ZM746.167 152.576C745.152 152.576 744.282 151.706 744.282 150.691C744.282 149.676 745.152 148.806 746.167 148.806C746.892 148.806 747.472 149.241 747.762 149.821V149.966C747.907 150.111 747.907 150.401 747.907 150.691C747.907 150.981 747.907 151.126 747.762 151.416C747.617 151.996 746.892 152.576 746.167 152.576ZM746.312 152.865C746.747 152.865 747.037 152.721 747.327 152.576L749.937 155.185C748.922 156.055 747.617 156.635 746.312 156.635V152.865ZM745.732 144.747V148.516C745.297 148.661 744.862 148.806 744.572 149.096L741.962 146.487C742.977 145.472 744.282 144.747 745.732 144.747ZM750.372 154.895L747.762 152.286C748.052 151.996 748.197 151.561 748.342 151.126H752.112C751.967 152.576 751.387 153.88 750.372 154.895Z"
    fill="white"
  />
<path
    d="M83.3849 137.209C83.3849 137.209 83.5299 137.209 83.3849 137.209C83.5299 137.209 83.5299 137.209 83.3849 137.209C83.5299 137.209 84.5449 137.064 85.2699 136.484C85.9949 135.614 86.2849 134.164 85.7049 133.439C85.4149 133.149 84.9799 133.005 84.5449 133.005C84.1099 133.149 83.82 133.294 83.675 133.729C83.675 133.874 83.675 133.874 83.675 134.019C83.82 134.019 83.8199 134.019 83.9649 134.019C84.1099 133.874 84.2549 133.874 84.3999 133.874C84.5449 133.874 84.5449 134.019 84.6899 134.164C84.6899 134.309 84.6899 134.454 84.5449 134.599L84.3999 134.744C84.11 134.744 83.6749 134.454 83.24 134.019C82.805 133.584 82.225 133.294 81.79 133.005C81.065 132.715 78.89 132.28 77.44 133.294C77.44 133.294 76.57 134.019 76.425 134.599C76.135 135.179 76.135 135.904 76.28 136.339C76.135 136.484 75.99 136.629 75.99 136.919C75.99 137.354 76.425 137.643 77.15 137.788C77.15 137.933 77.005 137.933 77.005 138.078C77.005 138.513 77.585 138.948 78.31 138.948C78.89 138.948 79.325 138.803 79.47 138.513C79.615 138.803 80.05 138.948 80.63 138.948C81.355 138.948 81.9349 138.513 81.9349 138.078C81.9349 137.933 81.935 137.788 81.79 137.788C82.225 137.788 82.515 137.644 82.8049 137.354C82.8049 137.354 82.805 137.354 82.95 137.354C82.805 137.354 83.0949 137.209 83.3849 137.209ZM84.3999 136.484C84.2549 136.629 83.9649 136.629 83.8199 136.629C83.9649 135.759 83.3849 134.889 83.24 134.454C83.5299 134.744 83.8199 134.889 84.1099 135.034C84.2549 135.324 84.3999 135.904 84.3999 136.484ZM82.8049 136.919C82.8049 136.774 82.66 136.484 82.515 136.194C82.225 135.614 81.645 134.744 80.195 134.309C78.31 133.729 77.44 134.019 77.005 134.309C77.005 134.309 77.005 134.309 77.15 134.164C77.295 134.019 77.44 133.874 77.585 133.729C78.165 133.439 79.18 133.439 80.63 133.874C82.5149 134.454 83.095 135.759 83.24 136.339C83.24 136.484 83.3849 136.774 83.3849 136.919C83.3849 136.919 83.3849 136.919 83.24 136.919C82.95 136.919 82.9499 136.919 82.8049 136.919ZM79.905 135.179C79.615 135.179 79.47 135.324 79.325 135.469C79.035 135.179 78.745 135.034 78.165 135.034C78.02 135.034 77.875 135.034 77.73 135.034C78.165 134.889 78.745 134.889 79.325 134.889C79.615 135.034 79.76 135.034 79.905 135.179ZM78.165 135.469C78.6 135.469 79.035 135.759 79.035 135.904C79.035 136.049 78.89 136.194 78.745 136.194H78.6C78.455 136.194 78.31 136.194 78.165 136.194C77.73 136.194 77.295 135.904 77.295 135.759C77.295 135.614 77.73 135.469 78.165 135.469ZM78.745 136.629H78.89C79.035 136.629 79.035 136.629 79.18 136.629C79.76 136.629 80.05 136.919 80.05 137.064C80.05 137.209 79.615 137.499 79.18 137.499C78.6 137.499 78.31 137.209 78.31 137.064C78.455 136.919 78.6 136.774 78.745 136.629ZM79.47 135.904C79.47 135.759 79.905 135.469 80.34 135.469C80.485 135.469 80.485 135.469 80.63 135.469C80.92 135.469 81.2099 135.759 81.2099 135.904C81.2099 136.049 81.065 136.194 80.775 136.339C80.63 136.339 80.485 136.339 80.34 136.339C79.905 136.339 79.47 136.049 79.47 135.904ZM76.86 136.194C76.86 136.049 76.86 136.049 76.86 135.904C76.86 135.759 77.005 135.614 77.15 135.469C77.005 135.614 77.005 135.759 77.005 135.904C77.005 136.049 77.005 136.194 77.15 136.194C77.005 136.194 76.86 136.194 76.86 136.194ZM76.135 137.064C76.135 136.919 76.28 136.919 76.425 136.774C76.57 136.774 76.715 136.629 76.86 136.629C77.005 136.629 77.005 136.629 77.15 136.629C77.73 136.629 78.02 136.919 78.02 137.064C78.02 137.209 77.875 137.209 77.875 137.354C77.73 137.499 77.44 137.499 77.15 137.499C76.57 137.499 76.135 137.209 76.135 137.064ZM78.165 138.658C77.585 138.658 77.295 138.513 77.295 138.223C77.295 138.078 77.73 137.788 78.165 137.788C78.455 137.788 78.6 137.789 78.89 137.934C78.89 137.934 79.035 138.078 79.035 138.223C79.035 138.513 78.6 138.658 78.165 138.658ZM80.485 138.658C79.905 138.658 79.615 138.368 79.615 138.223C79.615 138.223 79.615 138.078 79.76 138.078C79.905 137.933 80.195 137.788 80.485 137.788C80.63 137.788 80.775 137.788 80.92 137.788C81.21 137.933 81.355 138.078 81.355 138.223C81.355 138.513 80.92 138.658 80.485 138.658ZM82.3699 137.209C82.2249 137.354 81.935 137.499 81.5 137.499C81.355 137.499 81.21 137.499 81.065 137.499C80.775 137.354 80.63 137.209 80.63 137.064C80.63 136.919 80.775 136.774 81.065 136.629C81.21 136.629 81.355 136.629 81.5 136.629C81.645 136.629 81.645 136.629 81.79 136.629C82.08 136.774 82.3699 136.919 82.3699 137.209C82.3699 137.064 82.3699 137.209 82.3699 137.209Z"
    fill="white"
  />
<path
    d="M93.8249 132.569V121.987C93.8249 121.842 93.8249 121.697 93.6799 121.697C93.5349 121.697 93.3899 121.697 93.3899 121.697L92.2299 122.277V118.507C92.2299 118.362 92.2299 118.217 92.0849 118.217C91.9399 118.217 91.7949 118.217 91.7949 118.217L86.5749 121.552H86.4299C85.5599 121.842 84.6899 121.987 83.9649 121.987C81.4999 121.987 80.6299 120.392 80.6299 120.392C80.6299 120.247 80.4849 120.247 80.3399 120.247C80.1949 120.247 80.0499 120.392 80.0499 120.392C80.0499 120.392 79.1799 121.987 76.715 121.987C75.99 121.987 75.12 121.842 74.25 121.552L69.03 118.217C68.885 118.217 68.74 118.217 68.595 118.217C68.45 118.217 68.45 118.362 68.45 118.507V122.277L67.435 121.697C67.29 121.697 67.145 121.697 67.145 121.697C67 121.697 67 121.842 67 121.987V132.569C67 132.714 67 135.324 69.175 137.354C71.06 139.238 73.96 140.253 77.875 140.253C77.875 140.253 77.8749 140.253 78.0199 140.253C79.4699 140.688 80.3399 140.978 80.3399 142.283C80.3399 142.428 80.4849 142.573 80.6299 142.573C80.7749 142.573 80.9199 142.428 80.9199 142.283C80.9199 141.123 81.7899 140.688 83.2399 140.253H83.3849C87.2999 140.253 90.1999 139.238 92.0849 137.354C93.8249 135.179 93.8249 132.714 93.8249 132.569ZM75.265 129.38C75.7 129.235 75.845 128.365 75.845 128.365C75.845 128.365 76.57 128.8 77.005 128.655C77.005 128.8 77.005 129.235 77.005 129.235C77.005 129.235 76.86 129.525 77.005 129.815C77.15 129.96 77.15 130.25 77.15 130.54C76.86 130.54 76.715 130.54 76.425 130.54C75.99 130.54 75.555 130.54 75.265 130.54C75.265 129.96 75.265 129.815 75.265 129.38ZM83.3849 128.8H84.2549C84.2549 129.235 84.2549 129.67 84.3999 130.395L83.3849 130.25C83.3849 129.67 83.3849 129.235 83.3849 128.8ZM90.3449 130.25C89.7649 130.83 88.8949 131.12 87.8799 131.12C87.5899 130.395 87.4449 129.67 87.4449 129.09L91.3599 126.916C91.5049 127.205 91.5049 129.09 90.3449 130.25ZM69.03 126.916L72.945 129.09C72.945 129.67 72.8 130.395 72.51 131.12C71.495 131.12 70.77 130.83 70.19 130.25C69.03 129.09 68.885 127.205 69.03 126.916ZM93.0999 122.566V129.09L91.3599 130.105C92.2299 128.655 92.2299 127.061 92.2299 126.771V123.001L93.0999 122.566ZM91.5049 122.712L88.6049 124.451C88.4599 124.306 88.0249 123.726 87.0099 122.132L91.5049 119.232V122.712ZM83.8199 122.712C84.5449 122.712 85.4149 122.566 86.2849 122.277C87.2999 123.726 87.7349 124.451 88.0249 124.741C87.5899 125.466 86.2849 127.93 87.2999 130.975C86.8649 130.54 85.8499 130.395 84.8349 130.395C84.6899 129.67 84.6899 129.235 84.6899 128.8H86.2849C86.4299 128.8 86.4299 128.51 86.4299 128.22V126.771C86.4299 125.611 85.8499 125.611 85.8499 125.611C85.8499 125.611 85.4149 125.611 85.2699 125.031C85.1249 124.451 84.6899 124.016 84.2549 124.016C83.8199 124.016 82.9499 124.306 82.3699 124.741C81.9349 124.886 81.9349 125.176 81.9349 125.611C81.7899 126.626 81.4999 126.481 81.4999 126.481C81.3549 126.481 81.2099 126.626 81.2099 126.916V128.365C81.2099 128.655 81.3549 128.945 81.4999 128.945H83.0949C83.0949 129.38 83.0949 129.815 82.9499 130.54C81.9349 130.54 81.0649 130.83 80.4849 131.265V121.552C80.9199 121.987 81.9349 122.712 83.8199 122.712ZM79.6149 121.552V130.83C79.1799 130.54 78.4549 130.395 77.5849 130.395C77.4399 129.96 77.4399 128.8 77.5849 128.51C78.3099 128.365 78.3099 127.641 78.3099 127.061C78.3099 126.626 78.165 125.031 78.165 125.031L78.6 124.886C78.745 124.886 78.7449 124.886 78.7449 124.741C78.7449 124.596 78.7449 124.451 78.7449 124.451L78.3099 124.306C78.1649 124.161 78.02 124.016 77.875 124.016C77.73 124.016 77.4399 124.016 77.2949 124.306C77.1499 124.161 76.86 124.306 76.715 124.306C76.715 124.306 76.715 125.031 77.44 124.886L77.5849 126.771C77.5849 126.771 77.585 127.206 77.15 127.061C76.715 126.916 75.845 126.626 75.265 126.771C74.975 126.916 74.54 127.061 74.25 127.786C73.96 128.51 74.395 128.22 74.395 128.22L74.83 127.93C74.83 127.93 75.12 128.51 74.83 128.945C74.54 129.235 74.685 129.525 74.685 129.525C74.685 129.525 74.83 130.25 74.83 130.54C74.105 130.54 73.525 130.83 73.09 130.975C73.96 127.93 72.8 125.466 72.365 124.741C72.655 124.451 73.09 123.726 74.105 122.277C74.975 122.566 75.845 122.712 76.5699 122.712C78.0199 122.712 79.0349 122.132 79.6149 121.552ZM69.03 119.232L73.525 122.132C72.655 123.581 72.075 124.161 71.93 124.451L69.03 122.856V119.232ZM68.16 123.001V126.771C68.16 126.916 68.16 128.655 69.03 130.105L67.29 129.09V122.566L68.16 123.001ZM67.435 133.584L71.785 136.049C72.22 137.209 72.945 137.933 74.105 138.948C74.395 139.238 74.83 139.383 75.12 139.528C72.51 139.238 70.48 138.368 69.175 136.919C68.16 135.759 67.725 134.454 67.435 133.584ZM80.1949 140.978C79.6149 140.108 78.5999 139.818 77.44 139.528C76.425 139.238 75.41 138.948 74.54 138.223C72.365 136.629 71.64 135.179 72.8 131.845H87.5899C88.7499 135.179 88.0249 136.484 85.8499 138.223C84.9799 138.803 83.9649 139.238 82.9499 139.383C81.7899 139.818 80.7749 140.253 80.1949 140.978ZM91.2149 136.919C89.7649 138.368 87.7349 139.238 85.1249 139.528C85.5599 139.383 85.8499 139.093 86.1399 138.948C87.2999 138.078 88.1699 137.209 88.4599 136.194C88.4599 136.194 88.4599 136.194 88.6049 136.194L92.9549 133.729C92.8099 134.454 92.3749 135.759 91.2149 136.919Z"
    fill="white"
  />
<path
    d="M80.195 119.957C82.2249 119.957 83.675 118.942 83.675 117.637C83.675 116.333 82.0799 115.318 80.195 115.318C78.165 115.318 76.715 116.333 76.715 117.637C76.57 118.942 78.165 119.957 80.195 119.957ZM80.195 116.188C81.2099 116.188 81.9349 116.622 81.9349 117.057C81.9349 117.492 81.4999 117.782 80.92 117.927C80.34 118.072 80.485 118.362 80.195 118.507C79.905 118.362 80.05 118.072 79.47 117.927C78.89 117.782 78.455 117.492 78.455 117.057C78.455 116.622 79.18 116.188 80.195 116.188Z"
    fill="white"
  />
</svg>
