<svg class="tracto-remolque-modular transport-item is-hidden" width="647" height="133" viewBox="0 0 647 133" fill="none" xmlns="http://www.w3.org/2000/svg">
    <path d="M321.571 95.2361H329.299V92.7146H375.499L381.211 90.3612H636.237V107.003H381.211L375.499 104.481H328.795V102.464H321.571V95.2361Z" fill="#DCE9EF" stroke="#65819B" stroke-width="1.0365" stroke-miterlimit="10"/>
    <path d="M321.739 62.6254H174.402V85.8228H321.739V62.6254Z" fill="#314254"/>
    <path d="M174.738 89.0164V92.2102H150.714V86.3269H139.962V11.5238H135.426V0.597534H129.546V11.1877H127.362V77.0815H122.658V17.9116H72.2574L72.5934 25.9801H78.8095L64.0254 61.6167H10.2651V98.9341H0.520996V108.179H9.76105V112.382H160.962V107.843H321.907V89.0164H174.738ZM100.482 61.9528H79.4815L89.0575 26.9888H100.482V61.9528Z" fill="#76C1AA"/>

    <g class="is-hidden-eje">
        <path d="M36.9772 129.36C47.0907 129.36 55.2893 121.157 55.2893 111.037C55.2893 100.918 47.0907 92.7146 36.9772 92.7146C26.8636 92.7146 18.665 100.918 18.665 111.037C18.665 121.157 26.8636 129.36 36.9772 129.36Z" fill="#3B5266"/>
        <path d="M24.5452 111.037C24.5452 106.163 27.2332 102.128 31.2652 99.9427L30.5932 98.9342C26.2252 101.288 23.2012 105.826 23.2012 111.037C23.2012 116.248 26.2252 120.787 30.5932 123.14L31.2652 122.132C27.4012 119.946 24.5452 115.912 24.5452 111.037Z" fill="#76C1AA"/>
        <path d="M43.3612 98.9342L42.8572 99.9427C46.8892 101.96 49.7452 106.163 49.7452 111.037C49.7452 115.912 46.8892 120.115 42.8572 122.132L43.3612 123.14C47.7292 120.787 50.7533 116.248 50.7533 111.037C50.5852 105.826 47.7292 101.288 43.3612 98.9342Z" fill="#76C1AA"/>
        <path opacity="0.3" d="M36.9771 113.727C38.4616 113.727 39.6651 112.523 39.6651 111.037C39.6651 109.552 38.4616 108.348 36.9771 108.348C35.4925 108.348 34.2891 109.552 34.2891 111.037C34.2891 112.523 35.4925 113.727 36.9771 113.727Z" fill="white"/>
        <path opacity="0.3" d="M38.657 109.02L41.6811 105.994C40.505 104.818 38.993 104.145 37.145 104.145V108.516C37.649 108.516 38.153 108.684 38.657 109.02Z" fill="white"/>
        <path opacity="0.3" d="M39.6651 110.869H44.0332C44.0332 109.188 43.3612 107.507 42.1852 106.33L39.1611 109.356C39.3291 109.861 39.4971 110.365 39.6651 110.869Z" fill="white"/>
        <path opacity="0.3" d="M38.8252 112.886L41.8492 115.912C43.0252 114.735 43.6972 113.222 43.6972 111.542H39.3292C39.4972 112.046 39.1612 112.55 38.8252 112.886Z" fill="white"/>
        <path opacity="0.3" d="M35.4652 113.223L32.4412 116.248C33.6172 117.257 34.9612 117.929 36.6412 117.929V113.559C36.1372 113.559 35.8012 113.391 35.4652 113.223Z" fill="white"/>
        <path opacity="0.3" d="M37.145 113.727V118.097C38.825 118.097 40.3371 117.425 41.3451 116.416L38.321 113.39C37.985 113.558 37.649 113.559 37.145 113.727Z" fill="white"/>
        <path opacity="0.3" d="M34.7932 109.692L31.7691 106.667C30.7611 107.843 30.0891 109.356 30.0891 111.037H34.4571C34.2891 110.533 34.4571 110.029 34.7932 109.692Z" fill="white"/>
        <path opacity="0.3" d="M34.4572 111.542H30.0891C30.2571 113.222 30.9291 114.567 31.9371 115.744L34.9612 112.718C34.6252 112.382 34.4572 112.046 34.4572 111.542Z" fill="white"/>
        <path opacity="0.3" d="M36.473 108.516V104.145C34.793 104.313 33.281 104.986 32.105 105.994L35.129 109.02C35.465 108.852 35.969 108.516 36.473 108.516Z" fill="white"/>
        <path d="M37.1451 103.137C36.6411 103.137 35.9691 103.137 35.4651 103.305C31.7691 103.977 29.0811 107.171 29.0811 111.037C29.0811 115.408 32.6091 118.938 36.9771 118.938C39.1611 118.938 41.1771 118.097 42.5211 116.584C44.0332 115.071 44.8732 113.223 44.8732 111.037C45.0412 106.667 41.5131 103.137 37.1451 103.137ZM39.6651 110.869C39.6651 110.365 39.4971 109.861 39.1611 109.356L42.1851 106.33C43.1932 107.507 43.8652 109.02 44.0332 110.869H39.6651ZM32.2731 116.248L35.2971 113.222C35.6331 113.391 35.9691 113.559 36.4731 113.727V118.097C34.9611 117.929 33.4491 117.257 32.2731 116.248ZM38.6571 109.02C38.3211 108.684 37.8171 108.516 37.1451 108.516V104.145C38.8251 104.145 40.5051 104.818 41.6811 105.994L38.6571 109.02ZM34.2891 110.869H29.9211C29.9211 109.188 30.5931 107.675 31.6011 106.499L34.6251 109.524C34.4571 110.029 34.2891 110.533 34.2891 110.869ZM34.4571 111.541C34.6251 112.046 34.7931 112.382 34.9611 112.718L31.9371 115.744C30.9291 114.567 30.2571 113.222 30.0891 111.541H34.4571ZM36.9771 113.222C35.8011 113.222 34.7931 112.214 34.7931 111.037C34.7931 109.861 35.8011 108.852 36.9771 108.852C37.8171 108.852 38.4891 109.356 38.8251 110.029V110.197C38.9931 110.365 38.9931 110.701 38.9931 111.037C38.9931 111.373 38.9931 111.542 38.8251 111.878C38.6571 112.718 37.8171 113.222 36.9771 113.222ZM37.1451 113.727C37.6491 113.727 37.9851 113.559 38.3211 113.39L41.3451 116.416C40.1691 117.425 38.6571 118.097 37.1451 118.097V113.727ZM36.4731 104.145V108.516C35.9691 108.684 35.4651 108.852 35.1291 109.188L32.1051 106.162C33.2811 104.986 34.7931 104.313 36.4731 104.145ZM42.0171 115.912L38.9931 112.886C39.3291 112.55 39.4971 112.046 39.6651 111.541H44.0332C43.6972 113.222 43.0251 114.735 42.0171 115.912Z" fill="white"/>
    </g>
    <g class="is-hidden-eje">
        <path d="M203.13 129.36C213.244 129.36 221.442 121.157 221.442 111.037C221.442 100.918 213.244 92.7146 203.13 92.7146C193.017 92.7146 184.818 100.918 184.818 111.037C184.818 121.157 193.017 129.36 203.13 129.36Z" fill="#3B5266"/>
        <path d="M190.698 111.037C190.698 106.163 193.386 102.128 197.418 99.9427L196.746 98.9342C192.378 101.288 189.354 105.826 189.354 111.037C189.354 116.248 192.378 120.787 196.746 123.14L197.418 122.132C193.386 119.946 190.698 115.912 190.698 111.037Z" fill="#76C1AA"/>
        <path d="M209.347 98.9342L208.843 99.9427C212.875 101.96 215.731 106.163 215.731 111.037C215.731 115.912 212.875 120.115 208.843 122.132L209.347 123.14C213.715 120.787 216.739 116.248 216.739 111.037C216.739 105.826 213.715 101.288 209.347 98.9342Z" fill="#76C1AA"/>
        <path opacity="0.3" d="M203.13 113.727C204.615 113.727 205.818 112.523 205.818 111.037C205.818 109.552 204.615 108.348 203.13 108.348C201.646 108.348 200.442 109.552 200.442 111.037C200.442 112.523 201.646 113.727 203.13 113.727Z" fill="white"/>
        <path opacity="0.3" d="M204.81 109.02L207.834 105.994C206.658 104.818 205.146 104.145 203.298 104.145V108.516C203.802 108.516 204.306 108.684 204.81 109.02Z" fill="white"/>
        <path opacity="0.3" d="M205.65 110.869H210.018C210.018 109.188 209.346 107.507 208.17 106.33L205.146 109.356C205.482 109.861 205.65 110.365 205.65 110.869Z" fill="white"/>
        <path opacity="0.3" d="M204.978 112.886L208.002 115.912C209.178 114.735 209.85 113.222 209.85 111.542H205.482C205.482 112.046 205.314 112.55 204.978 112.886Z" fill="white"/>
        <path opacity="0.3" d="M201.45 113.223L198.426 116.248C199.602 117.257 200.946 117.929 202.626 117.929V113.559C202.29 113.559 201.786 113.391 201.45 113.223Z" fill="white"/>
        <path opacity="0.3" d="M203.298 113.727V118.097C204.978 118.097 206.49 117.425 207.498 116.416L204.474 113.39C204.138 113.558 203.802 113.559 203.298 113.727Z" fill="white"/>
        <path opacity="0.3" d="M200.946 109.692L197.922 106.667C196.914 107.843 196.242 109.356 196.242 111.037H200.61C200.442 110.533 200.61 110.029 200.946 109.692Z" fill="white"/>
        <path opacity="0.3" d="M200.442 111.542H196.074C196.242 113.222 196.914 114.567 197.922 115.744L200.946 112.718C200.778 112.382 200.61 112.046 200.442 111.542Z" fill="white"/>
        <path opacity="0.3" d="M202.626 108.516V104.145C200.946 104.313 199.434 104.986 198.258 105.994L201.282 109.02C201.618 108.852 202.122 108.516 202.626 108.516Z" fill="white"/>
        <path d="M203.13 103.137C202.626 103.137 201.954 103.137 201.45 103.305C197.754 103.977 195.066 107.171 195.066 111.037C195.066 115.408 198.594 118.938 202.962 118.938C205.146 118.938 207.162 118.097 208.506 116.584C210.018 115.071 210.858 113.223 210.858 111.037C211.026 106.667 207.498 103.137 203.13 103.137ZM205.65 110.869C205.65 110.365 205.482 109.861 205.146 109.356L208.17 106.33C209.178 107.507 209.85 109.02 210.018 110.869H205.65ZM198.426 116.248L201.45 113.222C201.786 113.391 202.122 113.559 202.626 113.727V118.097C200.946 117.929 199.602 117.257 198.426 116.248ZM204.81 109.02C204.474 108.684 203.97 108.516 203.298 108.516V104.145C204.978 104.145 206.658 104.818 207.834 105.994L204.81 109.02ZM200.442 110.869H196.074C196.074 109.188 196.746 107.675 197.754 106.499L200.778 109.524C200.61 110.029 200.442 110.533 200.442 110.869ZM200.442 111.541C200.61 112.046 200.778 112.382 200.946 112.718L197.922 115.744C196.914 114.567 196.242 113.222 196.074 111.541H200.442ZM203.13 113.222C201.954 113.222 200.946 112.214 200.946 111.037C200.946 109.861 201.954 108.852 203.13 108.852C203.97 108.852 204.642 109.356 204.978 110.029V110.197C205.146 110.365 205.146 110.701 205.146 111.037C205.146 111.373 205.146 111.542 204.978 111.878C204.81 112.718 203.97 113.222 203.13 113.222ZM203.298 113.727C203.802 113.727 204.138 113.559 204.474 113.39L207.498 116.416C206.322 117.425 204.81 118.097 203.298 118.097V113.727ZM202.626 104.145V108.516C202.122 108.684 201.618 108.852 201.282 109.188L198.258 106.162C199.434 104.986 200.946 104.313 202.626 104.145ZM208.002 115.912L204.978 112.886C205.314 112.55 205.482 112.046 205.65 111.541H210.018C209.85 113.222 209.178 114.735 208.002 115.912Z" fill="white"/>
    </g>
    <g class="is-hidden-eje">
        <path d="M247.482 129.36C257.596 129.36 265.795 121.157 265.795 111.037C265.795 100.918 257.596 92.7146 247.482 92.7146C237.369 92.7146 229.17 100.918 229.17 111.037C229.17 121.157 237.369 129.36 247.482 129.36Z" fill="#3B5266"/>
        <path d="M235.051 111.037C235.051 106.163 237.739 102.128 241.771 99.9427L241.099 98.9342C236.731 101.288 233.707 105.826 233.707 111.037C233.707 116.248 236.731 120.787 241.099 123.14L241.771 122.132C237.739 119.946 235.051 115.912 235.051 111.037Z" fill="#76C1AA"/>
        <path d="M253.699 98.9342L253.195 99.9427C257.227 101.96 260.083 106.163 260.083 111.037C260.083 115.912 257.227 120.115 253.195 122.132L253.699 123.14C258.067 120.787 261.091 116.248 261.091 111.037C261.091 105.826 258.067 101.288 253.699 98.9342Z" fill="#76C1AA"/>
        <path opacity="0.3" d="M247.483 113.727C248.967 113.727 250.171 112.523 250.171 111.037C250.171 109.552 248.967 108.348 247.483 108.348C245.998 108.348 244.795 109.552 244.795 111.037C244.795 112.523 245.998 113.727 247.483 113.727Z" fill="white"/>
        <path opacity="0.3" d="M248.994 109.02L252.018 105.994C250.842 104.818 249.33 104.145 247.482 104.145V108.516C248.154 108.516 248.658 108.684 248.994 109.02Z" fill="white"/>
        <path opacity="0.3" d="M250.003 110.869H254.371C254.371 109.188 253.699 107.507 252.523 106.33L249.499 109.356C249.835 109.861 250.003 110.365 250.003 110.869Z" fill="white"/>
        <path opacity="0.3" d="M249.331 112.886L252.355 115.912C253.531 114.735 254.203 113.222 254.203 111.542H249.835C249.835 112.046 249.667 112.55 249.331 112.886Z" fill="white"/>
        <path opacity="0.3" d="M245.802 113.223L242.778 116.248C243.954 117.257 245.298 117.929 246.978 117.929V113.559C246.474 113.559 246.138 113.391 245.802 113.223Z" fill="white"/>
        <path opacity="0.3" d="M247.482 113.727V118.097C249.162 118.097 250.674 117.425 251.682 116.416L248.658 113.39C248.49 113.558 247.986 113.559 247.482 113.727Z" fill="white"/>
        <path opacity="0.3" d="M245.13 109.692L242.107 106.667C241.099 107.843 240.427 109.356 240.427 111.037H244.794C244.794 110.533 244.962 110.029 245.13 109.692Z" fill="white"/>
        <path opacity="0.3" d="M244.795 111.542H240.427C240.595 113.222 241.267 114.567 242.275 115.744L245.299 112.718C245.131 112.382 244.795 112.046 244.795 111.542Z" fill="white"/>
        <path opacity="0.3" d="M246.979 108.516V104.145C245.299 104.313 243.787 104.986 242.611 105.994L245.635 109.02C245.971 108.852 246.307 108.516 246.979 108.516Z" fill="white"/>
        <path d="M247.483 103.137C246.979 103.137 246.307 103.137 245.803 103.305C242.106 103.977 239.418 107.171 239.418 111.037C239.418 115.408 242.946 118.938 247.315 118.938C249.499 118.938 251.515 118.097 252.859 116.584C254.371 115.071 255.211 113.223 255.211 111.037C255.379 106.667 251.851 103.137 247.483 103.137ZM250.003 110.869C250.003 110.365 249.835 109.861 249.499 109.356L252.523 106.33C253.531 107.507 254.203 109.02 254.371 110.869H250.003ZM242.778 116.248L245.803 113.222C246.139 113.391 246.475 113.559 246.979 113.727V118.097C245.299 117.929 243.786 117.257 242.778 116.248ZM248.995 109.02C248.659 108.684 248.155 108.516 247.483 108.516V104.145C249.163 104.145 250.843 104.818 252.019 105.994L248.995 109.02ZM244.794 110.869H240.426C240.426 109.188 241.098 107.675 242.106 106.499L245.131 109.524C244.963 110.029 244.794 110.533 244.794 110.869ZM244.794 111.541C244.962 112.046 245.131 112.382 245.299 112.718L242.274 115.744C241.266 114.567 240.594 113.222 240.426 111.541H244.794ZM247.483 113.222C246.307 113.222 245.299 112.214 245.299 111.037C245.299 109.861 246.307 108.852 247.483 108.852C248.323 108.852 248.995 109.356 249.331 110.029V110.197C249.499 110.365 249.499 110.701 249.499 111.037C249.499 111.373 249.499 111.542 249.331 111.878C248.995 112.718 248.323 113.222 247.483 113.222ZM247.483 113.727C247.987 113.727 248.323 113.559 248.659 113.39L251.683 116.416C250.507 117.425 248.995 118.097 247.483 118.097V113.727ZM246.979 104.145V108.516C246.475 108.684 245.971 108.852 245.635 109.188L242.61 106.162C243.619 104.986 245.131 104.313 246.979 104.145ZM252.355 115.912L249.331 112.886C249.667 112.55 249.835 112.046 250.003 111.541H254.371C254.035 113.222 253.363 114.735 252.355 115.912Z" fill="white"/>
    </g>
    <g class="is-hidden-eje">
        <path d="M291.667 129.36C301.78 129.36 309.979 121.157 309.979 111.037C309.979 100.918 301.78 92.7146 291.667 92.7146C281.553 92.7146 273.354 100.918 273.354 111.037C273.354 121.157 281.553 129.36 291.667 129.36Z" fill="#3B5266"/>
        <path d="M279.235 111.037C279.235 106.163 281.923 102.128 285.955 99.9427L285.283 98.9342C280.915 101.288 277.891 105.826 277.891 111.037C277.891 116.248 280.915 120.787 285.283 123.14L285.955 122.132C281.923 119.946 279.235 115.912 279.235 111.037Z" fill="#76C1AA"/>
        <path d="M298.051 98.9342L297.547 99.9427C301.579 101.96 304.435 106.163 304.435 111.037C304.435 115.912 301.579 120.115 297.547 122.132L298.051 123.14C302.419 120.787 305.443 116.248 305.443 111.037C305.275 105.826 302.419 101.288 298.051 98.9342Z" fill="#76C1AA"/>
        <path opacity="0.3" d="M291.667 113.727C293.151 113.727 294.355 112.523 294.355 111.037C294.355 109.552 293.151 108.348 291.667 108.348C290.182 108.348 288.979 109.552 288.979 111.037C288.979 112.523 290.182 113.727 291.667 113.727Z" fill="white"/>
        <path opacity="0.3" d="M293.346 109.02L296.371 105.994C295.195 104.818 293.683 104.145 291.834 104.145V108.516C292.338 108.516 292.842 108.684 293.346 109.02Z" fill="white"/>
        <path opacity="0.3" d="M294.186 110.869H298.554C298.554 109.188 297.882 107.507 296.706 106.33L293.682 109.356C294.018 109.861 294.186 110.365 294.186 110.869Z" fill="white"/>
        <path opacity="0.3" d="M293.514 112.886L296.538 115.912C297.714 114.735 298.386 113.222 298.386 111.542H294.018C294.186 112.046 293.85 112.55 293.514 112.886Z" fill="white"/>
        <path opacity="0.3" d="M289.986 113.223L286.962 116.248C288.138 117.257 289.482 117.929 291.163 117.929V113.559C290.826 113.559 290.322 113.391 289.986 113.223Z" fill="white"/>
        <path opacity="0.3" d="M291.834 113.727V118.097C293.515 118.097 295.027 117.425 296.035 116.416L293.011 113.39C292.675 113.558 292.338 113.559 291.834 113.727Z" fill="white"/>
        <path opacity="0.3" d="M289.483 109.692L286.459 106.667C285.451 107.843 284.779 109.356 284.779 111.037H289.147C288.979 110.533 289.147 110.029 289.483 109.692Z" fill="white"/>
        <path opacity="0.3" d="M288.978 111.542H284.61C284.778 113.222 285.45 114.567 286.458 115.744L289.482 112.718C289.314 112.382 289.146 112.046 288.978 111.542Z" fill="white"/>
        <path opacity="0.3" d="M291.163 108.516V104.145C289.482 104.313 287.97 104.986 286.794 105.994L289.819 109.02C290.155 108.852 290.658 108.516 291.163 108.516Z" fill="white"/>
        <path d="M291.835 103.137C291.331 103.137 290.659 103.137 290.155 103.305C286.458 103.977 283.771 107.171 283.771 111.037C283.771 115.408 287.298 118.938 291.667 118.938C293.851 118.938 295.867 118.097 297.211 116.584C298.723 115.071 299.563 113.223 299.563 111.037C299.563 106.667 296.035 103.137 291.835 103.137ZM294.187 110.869C294.187 110.365 294.019 109.861 293.683 109.356L296.707 106.33C297.715 107.507 298.387 109.02 298.555 110.869H294.187ZM286.963 116.248L289.987 113.222C290.323 113.391 290.659 113.559 291.163 113.727V118.097C289.651 117.929 288.139 117.257 286.963 116.248ZM293.347 109.02C293.011 108.684 292.507 108.516 291.835 108.516V104.145C293.515 104.145 295.195 104.818 296.371 105.994L293.347 109.02ZM288.979 110.869H284.611C284.611 109.188 285.283 107.675 286.291 106.499L289.315 109.524C289.147 110.029 288.979 110.533 288.979 110.869ZM288.979 111.541C289.147 112.046 289.315 112.382 289.483 112.718L286.459 115.744C285.451 114.567 284.779 113.222 284.611 111.541H288.979ZM291.667 113.222C290.491 113.222 289.483 112.214 289.483 111.037C289.483 109.861 290.491 108.852 291.667 108.852C292.507 108.852 293.179 109.356 293.515 110.029V110.197C293.683 110.365 293.683 110.701 293.683 111.037C293.683 111.373 293.683 111.542 293.515 111.878C293.347 112.718 292.507 113.222 291.667 113.222ZM291.835 113.727C292.339 113.727 292.675 113.559 293.011 113.39L296.035 116.416C294.859 117.425 293.347 118.097 291.835 118.097V113.727ZM291.163 104.145V108.516C290.659 108.684 290.155 108.852 289.819 109.188L286.794 106.162C287.971 104.986 289.483 104.313 291.163 104.145ZM296.539 115.912L293.515 112.886C293.851 112.55 294.019 112.046 294.187 111.541H298.555C298.387 113.222 297.715 114.735 296.539 115.912Z" fill="white"/>
    </g>
    <g class="is-hidden-eje">
        <path d="M431.444 132.554C441.557 132.554 449.756 124.35 449.756 114.231C449.756 104.112 441.557 95.9086 431.444 95.9086C421.33 95.9086 413.132 104.112 413.132 114.231C413.132 124.35 421.33 132.554 431.444 132.554Z" fill="#3B5266"/>
        <path d="M419.012 114.231C419.012 109.356 421.7 105.322 425.732 103.137L425.06 102.128C420.692 104.482 417.667 109.02 417.667 114.231C417.667 119.442 420.692 123.981 425.06 126.334L425.732 125.325C421.7 123.14 419.012 118.938 419.012 114.231Z" fill="#76C1AA"/>
        <path d="M437.66 102.128L437.156 103.137C441.188 105.154 444.044 109.356 444.044 114.231C444.044 119.106 441.188 123.308 437.156 125.325L437.66 126.334C442.028 123.981 445.052 119.442 445.052 114.231C445.052 108.852 442.028 104.313 437.66 102.128Z" fill="#76C1AA"/>
        <path opacity="0.3" d="M431.444 116.921C432.928 116.921 434.132 115.716 434.132 114.231C434.132 112.746 432.928 111.542 431.444 111.542C429.959 111.542 428.756 112.746 428.756 114.231C428.756 115.716 429.959 116.921 431.444 116.921Z" fill="white"/>
        <path opacity="0.3" d="M432.956 112.214L435.98 109.188C434.804 108.011 433.292 107.339 431.444 107.339V111.71C432.116 111.71 432.62 111.878 432.956 112.214Z" fill="white"/>
        <path opacity="0.3" d="M433.964 114.063H438.332C438.332 112.382 437.66 110.701 436.484 109.524L433.46 112.55C433.796 113.054 433.964 113.559 433.964 114.063Z" fill="white"/>
        <path opacity="0.3" d="M433.292 115.912L436.316 118.938C437.492 117.761 438.164 116.248 438.164 114.567H433.964C433.796 115.24 433.628 115.576 433.292 115.912Z" fill="white"/>
        <path opacity="0.3" d="M429.764 116.248L426.74 119.274C427.916 120.282 429.26 120.955 430.94 120.955V116.584C430.436 116.752 430.1 116.584 429.764 116.248Z" fill="white"/>
        <path opacity="0.3" d="M431.444 116.752V121.123C433.124 121.123 434.636 120.451 435.644 119.442L432.62 116.416C432.452 116.584 431.948 116.752 431.444 116.752Z" fill="white"/>
        <path opacity="0.3" d="M429.092 112.718L426.068 109.693C425.06 110.869 424.388 112.382 424.388 114.063H428.756C428.756 113.559 428.924 113.223 429.092 112.718Z" fill="white"/>
        <path opacity="0.3" d="M428.756 114.735H424.388C424.556 116.416 425.228 117.761 426.236 118.938L429.26 115.912C429.092 115.576 428.756 115.072 428.756 114.735Z" fill="white"/>
        <path opacity="0.3" d="M430.94 111.542V107.171C429.26 107.339 427.748 108.011 426.572 109.02L429.596 112.046C429.932 111.878 430.436 111.71 430.94 111.542Z" fill="white"/>
        <path d="M431.444 106.33C430.94 106.33 430.268 106.33 429.764 106.499C426.068 107.171 423.38 110.365 423.38 114.231C423.38 118.602 426.908 122.132 431.276 122.132C433.46 122.132 435.476 121.291 436.82 119.778C438.332 118.265 439.172 116.416 439.172 114.231C439.34 109.86 435.812 106.33 431.444 106.33ZM433.964 114.063C433.964 113.559 433.796 113.054 433.46 112.55L436.484 109.524C437.492 110.701 438.164 112.214 438.332 114.063H433.964ZM426.74 119.442L429.764 116.416C430.1 116.584 430.436 116.753 430.94 116.921V121.291C429.26 120.955 427.916 120.451 426.74 119.442ZM432.956 112.214C432.62 111.878 432.116 111.71 431.444 111.71V107.339C433.124 107.339 434.804 108.011 435.98 109.188L432.956 112.214ZM428.756 114.063H424.388C424.388 112.382 425.06 110.869 426.068 109.692L429.092 112.718C428.924 113.223 428.756 113.559 428.756 114.063ZM428.756 114.735C428.924 115.24 429.092 115.576 429.26 115.912L426.236 118.938C425.228 117.761 424.556 116.416 424.388 114.735H428.756ZM431.444 116.416C430.268 116.416 429.26 115.408 429.26 114.231C429.26 113.054 430.268 112.046 431.444 112.046C432.284 112.046 432.956 112.55 433.292 113.222V113.39C433.46 113.559 433.46 113.895 433.46 114.231C433.46 114.567 433.46 114.735 433.292 115.071C432.956 115.744 432.284 116.416 431.444 116.416ZM431.444 116.752C431.948 116.752 432.284 116.584 432.62 116.416L435.644 119.442C434.468 120.451 432.956 121.123 431.444 121.123V116.752ZM430.94 107.339V111.71C430.436 111.878 429.932 112.046 429.596 112.382L426.572 109.356C427.58 108.18 429.092 107.339 430.94 107.339ZM436.316 119.106L433.292 116.08C433.628 115.744 433.796 115.24 433.964 114.735H438.332C438.164 116.416 437.324 117.929 436.316 119.106Z" fill="white"/>
    </g>
    <g class="is-hidden-eje">
        <path d="M475.628 132.554C485.741 132.554 493.94 124.35 493.94 114.231C493.94 104.112 485.741 95.9086 475.628 95.9086C465.514 95.9086 457.315 104.112 457.315 114.231C457.315 124.35 465.514 132.554 475.628 132.554Z" fill="#3B5266"/>
        <path d="M463.196 114.231C463.196 109.356 465.884 105.322 469.915 103.137L469.243 102.128C464.876 104.482 461.852 109.02 461.852 114.231C461.852 119.442 464.876 123.981 469.243 126.334L469.915 125.325C465.884 123.14 463.196 118.938 463.196 114.231Z" fill="#76C1AA"/>
        <path d="M481.844 102.128L481.34 103.137C485.372 105.154 488.228 109.356 488.228 114.231C488.228 119.106 485.372 123.308 481.34 125.325L481.844 126.334C486.212 123.981 489.236 119.442 489.236 114.231C489.236 108.852 486.212 104.313 481.844 102.128Z" fill="#76C1AA"/>
        <path opacity="0.3" d="M475.627 116.921C477.112 116.921 478.315 115.716 478.315 114.231C478.315 112.746 477.112 111.542 475.627 111.542C474.143 111.542 472.939 112.746 472.939 114.231C472.939 115.716 474.143 116.921 475.627 116.921Z" fill="white"/>
        <path opacity="0.3" d="M477.14 112.214L480.164 109.188C478.988 108.011 477.476 107.339 475.627 107.339V111.71C476.299 111.71 476.804 111.878 477.14 112.214Z" fill="white"/>
        <path opacity="0.3" d="M478.148 114.063H482.516C482.516 112.382 481.844 110.701 480.668 109.524L477.644 112.55C477.98 113.054 478.148 113.559 478.148 114.063Z" fill="white"/>
        <path opacity="0.3" d="M477.476 115.912L480.5 118.938C481.676 117.761 482.348 116.248 482.348 114.567H477.98C477.98 115.24 477.812 115.576 477.476 115.912Z" fill="white"/>
        <path opacity="0.3" d="M473.947 116.248L470.923 119.274C472.099 120.282 473.443 120.955 475.123 120.955V116.584C474.619 116.752 474.283 116.584 473.947 116.248Z" fill="white"/>
        <path opacity="0.3" d="M475.627 116.752V121.123C477.307 121.123 478.819 120.451 479.828 119.442L476.803 116.416C476.635 116.584 476.131 116.752 475.627 116.752Z" fill="white"/>
        <path opacity="0.3" d="M473.275 112.718L470.251 109.693C469.243 110.869 468.571 112.382 468.571 114.063H472.939C472.939 113.559 473.107 113.223 473.275 112.718Z" fill="white"/>
        <path opacity="0.3" d="M472.939 114.735H468.571C468.739 116.416 469.411 117.761 470.419 118.938L473.443 115.912C473.275 115.576 472.939 115.072 472.939 114.735Z" fill="white"/>
        <path opacity="0.3" d="M475.124 111.542V107.171C473.443 107.339 471.931 108.011 470.755 109.02L473.78 112.046C474.116 111.878 474.62 111.71 475.124 111.542Z" fill="white"/>
        <path d="M475.628 106.33C475.124 106.33 474.451 106.33 473.947 106.499C470.251 107.171 467.563 110.365 467.563 114.231C467.563 118.602 471.092 122.132 475.46 122.132C477.644 122.132 479.66 121.291 481.004 119.778C482.516 118.265 483.356 116.416 483.356 114.231C483.524 109.86 479.996 106.33 475.628 106.33ZM478.148 114.063C478.148 113.559 477.98 113.054 477.644 112.55L480.668 109.524C481.676 110.701 482.348 112.214 482.516 114.063H478.148ZM470.923 119.442L473.947 116.416C474.283 116.584 474.62 116.753 475.124 116.921V121.291C473.444 120.955 471.932 120.451 470.923 119.442ZM477.14 112.214C476.804 111.878 476.3 111.71 475.628 111.71V107.339C477.308 107.339 478.988 108.011 480.164 109.188L477.14 112.214ZM472.94 114.063H468.571C468.571 112.382 469.243 110.869 470.252 109.692L473.276 112.718C473.108 113.223 472.94 113.559 472.94 114.063ZM472.94 114.735C473.108 115.24 473.276 115.576 473.444 115.912L470.42 118.938C469.412 117.761 468.739 116.416 468.571 114.735H472.94ZM475.628 116.416C474.451 116.416 473.444 115.408 473.444 114.231C473.444 113.054 474.451 112.046 475.628 112.046C476.468 112.046 477.14 112.55 477.476 113.222V113.39C477.644 113.559 477.644 113.895 477.644 114.231C477.644 114.567 477.644 114.735 477.476 115.071C477.14 115.744 476.468 116.416 475.628 116.416ZM475.628 116.752C476.132 116.752 476.468 116.584 476.804 116.416L479.828 119.442C478.652 120.451 477.14 121.123 475.628 121.123V116.752ZM475.124 107.339V111.71C474.62 111.878 474.116 112.046 473.78 112.382L470.755 109.356C471.763 108.18 473.276 107.339 475.124 107.339ZM480.5 119.106L477.476 116.08C477.812 115.744 477.98 115.24 478.148 114.735H482.516C482.348 116.416 481.508 117.929 480.5 119.106Z" fill="white"/>
    </g>
    <g class="is-hidden-eje">
        <path d="M519.812 132.554C529.926 132.554 538.124 124.35 538.124 114.231C538.124 104.112 529.926 95.9086 519.812 95.9086C509.699 95.9086 501.5 104.112 501.5 114.231C501.5 124.35 509.699 132.554 519.812 132.554Z" fill="#3B5266"/>
        <path d="M507.38 114.231C507.38 109.356 510.068 105.322 514.1 103.137L513.428 102.128C509.06 104.482 506.036 109.02 506.036 114.231C506.036 119.442 509.06 123.981 513.428 126.334L514.1 125.325C510.068 123.14 507.38 118.938 507.38 114.231Z" fill="#76C1AA"/>
        <path d="M526.028 102.128L525.524 103.137C529.556 105.154 532.412 109.356 532.412 114.231C532.412 119.106 529.556 123.308 525.524 125.325L526.028 126.334C530.396 123.981 533.42 119.442 533.42 114.231C533.42 108.852 530.396 104.313 526.028 102.128Z" fill="#76C1AA"/>
        <path opacity="0.3" d="M519.812 116.921C521.296 116.921 522.5 115.716 522.5 114.231C522.5 112.746 521.296 111.542 519.812 111.542C518.327 111.542 517.124 112.746 517.124 114.231C517.124 115.716 518.327 116.921 519.812 116.921Z" fill="white"/>
        <path opacity="0.3" d="M521.324 112.214L524.348 109.188C523.172 108.011 521.66 107.339 519.812 107.339V111.71C520.484 111.71 520.988 111.878 521.324 112.214Z" fill="white"/>
        <path opacity="0.3" d="M522.332 114.063H526.7C526.7 112.382 526.028 110.701 524.852 109.524L521.828 112.55C522.164 113.054 522.332 113.559 522.332 114.063Z" fill="white"/>
        <path opacity="0.3" d="M521.66 115.912L524.684 118.938C525.86 117.761 526.532 116.248 526.532 114.567H522.164C522.164 115.24 521.996 115.576 521.66 115.912Z" fill="white"/>
        <path opacity="0.3" d="M518.132 116.248L515.108 119.274C516.284 120.282 517.628 120.955 519.308 120.955V116.584C518.804 116.752 518.468 116.584 518.132 116.248Z" fill="white"/>
        <path opacity="0.3" d="M519.812 116.752V121.123C521.492 121.123 523.004 120.451 524.012 119.442L520.988 116.416C520.82 116.584 520.316 116.752 519.812 116.752Z" fill="white"/>
        <path opacity="0.3" d="M517.46 112.718L514.436 109.693C513.428 110.869 512.756 112.382 512.756 114.063H517.124C517.124 113.559 517.292 113.223 517.46 112.718Z" fill="white"/>
        <path opacity="0.3" d="M517.124 114.735H512.756C512.924 116.416 513.596 117.761 514.604 118.938L517.628 115.912C517.46 115.576 517.124 115.072 517.124 114.735Z" fill="white"/>
        <path opacity="0.3" d="M519.308 111.542V107.171C517.628 107.339 516.116 108.011 514.94 109.02L517.964 112.046C518.3 111.878 518.636 111.71 519.308 111.542Z" fill="white"/>
        <path d="M519.812 106.33C519.308 106.33 518.636 106.33 518.132 106.499C514.436 107.171 511.748 110.365 511.748 114.231C511.748 118.602 515.276 122.132 519.644 122.132C521.828 122.132 523.844 121.291 525.188 119.778C526.7 118.265 527.54 116.416 527.54 114.231C527.708 109.86 524.18 106.33 519.812 106.33ZM522.332 114.063C522.332 113.559 522.164 113.054 521.828 112.55L524.852 109.524C525.86 110.701 526.532 112.214 526.7 114.063H522.332ZM515.108 119.442L518.132 116.416C518.468 116.584 518.804 116.753 519.308 116.921V121.291C517.628 120.955 516.116 120.451 515.108 119.442ZM521.324 112.214C520.988 111.878 520.484 111.71 519.812 111.71V107.339C521.492 107.339 523.172 108.011 524.348 109.188L521.324 112.214ZM517.124 114.063H512.756C512.756 112.382 513.428 110.869 514.436 109.692L517.46 112.718C517.292 113.223 517.124 113.559 517.124 114.063ZM517.124 114.735C517.292 115.24 517.46 115.576 517.628 115.912L514.604 118.938C513.596 117.761 512.924 116.416 512.756 114.735H517.124ZM519.812 116.416C518.636 116.416 517.628 115.408 517.628 114.231C517.628 113.054 518.636 112.046 519.812 112.046C520.652 112.046 521.324 112.55 521.66 113.222V113.39C521.828 113.559 521.828 113.895 521.828 114.231C521.828 114.567 521.828 114.735 521.66 115.071C521.324 115.744 520.652 116.416 519.812 116.416ZM519.812 116.752C520.316 116.752 520.652 116.584 520.988 116.416L524.012 119.442C522.836 120.451 521.324 121.123 519.812 121.123V116.752ZM519.308 107.339V111.71C518.804 111.878 518.3 112.046 517.964 112.382L514.94 109.356C515.948 108.18 517.46 107.339 519.308 107.339ZM524.684 119.106L521.66 116.08C521.996 115.744 522.164 115.24 522.332 114.735H526.7C526.364 116.416 525.692 117.929 524.684 119.106Z" fill="white"/>
    </g>
    <g class="is-hidden-eje">
        <path d="M563.828 132.554C573.942 132.554 582.14 124.35 582.14 114.231C582.14 104.112 573.942 95.9086 563.828 95.9086C553.715 95.9086 545.516 104.112 545.516 114.231C545.516 124.35 553.715 132.554 563.828 132.554Z" fill="#3B5266"/>
        <path d="M551.564 114.231C551.564 109.356 554.252 105.322 558.284 103.137L557.612 102.128C553.244 104.482 550.22 109.02 550.22 114.231C550.22 119.442 553.244 123.981 557.612 126.334L558.284 125.325C554.252 123.14 551.564 118.938 551.564 114.231Z" fill="#76C1AA"/>
        <path d="M570.213 102.128L569.708 103.137C573.741 105.154 576.597 109.356 576.597 114.231C576.597 119.106 573.741 123.308 569.708 125.325L570.213 126.334C574.581 123.981 577.605 119.442 577.605 114.231C577.605 108.852 574.581 104.313 570.213 102.128Z" fill="#76C1AA"/>
        <path opacity="0.3" d="M563.829 116.921C565.313 116.921 566.516 115.716 566.516 114.231C566.516 112.746 565.313 111.542 563.829 111.542C562.344 111.542 561.141 112.746 561.141 114.231C561.141 115.716 562.344 116.921 563.829 116.921Z" fill="white"/>
        <path opacity="0.3" d="M565.508 112.214L568.532 109.188C567.356 108.011 565.844 107.339 563.996 107.339V111.71C564.668 111.71 565.172 111.878 565.508 112.214Z" fill="white"/>
        <path opacity="0.3" d="M566.517 114.063H570.885C570.885 112.382 570.213 110.701 569.037 109.524L566.013 112.55C566.349 113.054 566.517 113.559 566.517 114.063Z" fill="white"/>
        <path opacity="0.3" d="M565.845 115.912L568.869 118.938C570.045 117.761 570.717 116.248 570.717 114.567H566.349C566.349 115.24 566.181 115.576 565.845 115.912Z" fill="white"/>
        <path opacity="0.3" d="M562.316 116.248L559.292 119.274C560.468 120.282 561.812 120.955 563.492 120.955V116.584C562.988 116.752 562.652 116.584 562.316 116.248Z" fill="white"/>
        <path opacity="0.3" d="M563.996 116.752V121.123C565.676 121.123 567.188 120.451 568.196 119.442L565.172 116.416C565.004 116.584 564.5 116.752 563.996 116.752Z" fill="white"/>
        <path opacity="0.3" d="M561.645 112.718L558.62 109.693C557.612 110.869 556.94 112.382 556.94 114.063H561.309C561.309 113.559 561.477 113.223 561.645 112.718Z" fill="white"/>
        <path opacity="0.3" d="M561.308 114.735H556.94C557.108 116.416 557.78 117.761 558.788 118.938L561.812 115.912C561.644 115.576 561.308 115.072 561.308 114.735Z" fill="white"/>
        <path opacity="0.3" d="M563.492 111.542V107.171C561.813 107.339 560.301 108.011 559.125 109.02L562.148 112.046C562.484 111.878 562.82 111.71 563.492 111.542Z" fill="white"/>
        <path d="M563.996 106.33C563.492 106.33 562.82 106.33 562.316 106.499C558.62 107.171 555.932 110.365 555.932 114.231C555.932 118.602 559.46 122.132 563.828 122.132C566.012 122.132 568.028 121.291 569.372 119.778C570.884 118.265 571.724 116.416 571.724 114.231C571.892 109.86 568.364 106.33 563.996 106.33ZM566.516 114.063C566.516 113.559 566.348 113.054 566.012 112.55L569.036 109.524C570.044 110.701 570.716 112.214 570.884 114.063H566.516ZM559.292 119.442L562.316 116.416C562.652 116.584 562.988 116.753 563.492 116.921V121.291C561.812 120.955 560.3 120.451 559.292 119.442ZM565.508 112.214C565.172 111.878 564.668 111.71 563.996 111.71V107.339C565.676 107.339 567.356 108.011 568.532 109.188L565.508 112.214ZM561.308 114.063H556.94C556.94 112.382 557.612 110.869 558.62 109.692L561.644 112.718C561.476 113.223 561.308 113.559 561.308 114.063ZM561.308 114.735C561.476 115.24 561.644 115.576 561.812 115.912L558.788 118.938C557.78 117.761 557.108 116.416 556.94 114.735H561.308ZM563.828 116.416C562.652 116.416 561.644 115.408 561.644 114.231C561.644 113.054 562.652 112.046 563.828 112.046C564.668 112.046 565.34 112.55 565.676 113.222V113.39C565.844 113.559 565.844 113.895 565.844 114.231C565.844 114.567 565.844 114.735 565.676 115.071C565.508 115.744 564.836 116.416 563.828 116.416ZM563.996 116.752C564.5 116.752 564.836 116.584 565.172 116.416L568.196 119.442C567.02 120.451 565.508 121.123 563.996 121.123V116.752ZM563.492 107.339V111.71C562.988 111.878 562.484 112.046 562.148 112.382L559.124 109.356C560.132 108.18 561.644 107.339 563.492 107.339ZM568.868 119.106L565.844 116.08C566.18 115.744 566.348 115.24 566.516 114.735H570.884C570.548 116.416 569.876 117.929 568.868 119.106Z" fill="white"/>
    </g>
    <g class="is-hidden-eje">
        <path d="M608.013 132.554C618.126 132.554 626.325 124.35 626.325 114.231C626.325 104.112 618.126 95.9086 608.013 95.9086C597.899 95.9086 589.701 104.112 589.701 114.231C589.701 124.35 597.899 132.554 608.013 132.554Z" fill="#3B5266"/>
        <path d="M595.749 114.231C595.749 109.356 598.437 105.322 602.469 103.137L601.797 102.128C597.429 104.482 594.405 109.02 594.405 114.231C594.405 119.442 597.429 123.981 601.797 126.334L602.469 125.325C598.437 123.14 595.749 118.938 595.749 114.231Z" fill="#76C1AA"/>
        <path d="M614.397 102.128L613.893 103.137C617.925 105.154 620.781 109.356 620.781 114.231C620.781 119.106 617.925 123.308 613.893 125.325L614.397 126.334C618.765 123.981 621.789 119.442 621.789 114.231C621.789 108.852 618.765 104.313 614.397 102.128Z" fill="#76C1AA"/>
        <path opacity="0.3" d="M608.013 116.921C609.497 116.921 610.701 115.716 610.701 114.231C610.701 112.746 609.497 111.542 608.013 111.542C606.528 111.542 605.325 112.746 605.325 114.231C605.325 115.716 606.528 116.921 608.013 116.921Z" fill="white"/>
        <path opacity="0.3" d="M609.693 112.214L612.717 109.188C611.541 108.011 610.029 107.339 608.181 107.339V111.71C608.853 111.71 609.357 111.878 609.693 112.214Z" fill="white"/>
        <path opacity="0.3" d="M610.701 114.063H615.069C615.069 112.382 614.397 110.701 613.221 109.524L610.197 112.55C610.365 113.054 610.701 113.559 610.701 114.063Z" fill="white"/>
        <path opacity="0.3" d="M610.029 115.912L613.053 118.938C614.229 117.761 614.901 116.248 614.901 114.567H610.533C610.533 115.24 610.365 115.576 610.029 115.912Z" fill="white"/>
        <path opacity="0.3" d="M606.501 116.248L603.477 119.274C604.653 120.282 605.997 120.955 607.677 120.955V116.584C607.173 116.752 606.837 116.584 606.501 116.248Z" fill="white"/>
        <path opacity="0.3" d="M608.181 116.752V121.123C609.861 121.123 611.373 120.451 612.381 119.442L609.357 116.416C609.021 116.584 608.685 116.752 608.181 116.752Z" fill="white"/>
        <path opacity="0.3" d="M605.829 112.718L602.805 109.693C601.797 110.869 601.125 112.382 601.125 114.063H605.493C605.493 113.559 605.661 113.223 605.829 112.718Z" fill="white"/>
        <path opacity="0.3" d="M605.493 114.735H601.125C601.293 116.416 601.965 117.761 602.973 118.938L605.997 115.912C605.829 115.576 605.493 115.072 605.493 114.735Z" fill="white"/>
        <path opacity="0.3" d="M607.509 111.542V107.171C605.829 107.339 604.317 108.011 603.141 109.02L606.165 112.046C606.669 111.878 607.005 111.71 607.509 111.542Z" fill="white"/>
        <path d="M608.181 106.33C607.677 106.33 607.005 106.33 606.501 106.499C602.805 107.171 600.117 110.365 600.117 114.231C600.117 118.602 603.645 122.132 608.013 122.132C610.197 122.132 612.213 121.291 613.557 119.778C615.069 118.265 615.909 116.416 615.909 114.231C616.077 109.86 612.549 106.33 608.181 106.33ZM610.701 114.063C610.701 113.559 610.533 113.054 610.197 112.55L613.221 109.524C614.229 110.701 614.901 112.214 615.069 114.063H610.701ZM603.477 119.442L606.501 116.416C606.837 116.584 607.173 116.753 607.677 116.921V121.291C605.997 120.955 604.485 120.451 603.477 119.442ZM609.693 112.214C609.357 111.878 608.853 111.71 608.181 111.71V107.339C609.861 107.339 611.541 108.011 612.717 109.188L609.693 112.214ZM605.493 114.063H601.125C601.125 112.382 601.797 110.869 602.805 109.692L605.829 112.718C605.661 113.223 605.493 113.559 605.493 114.063ZM605.493 114.735C605.661 115.24 605.829 115.576 605.997 115.912L602.973 118.938C601.965 117.761 601.293 116.416 601.125 114.735H605.493ZM608.013 116.416C606.837 116.416 605.829 115.408 605.829 114.231C605.829 113.054 606.837 112.046 608.013 112.046C608.853 112.046 609.525 112.55 609.861 113.222V113.39C610.029 113.559 610.029 113.895 610.029 114.231C610.029 114.567 610.029 114.735 609.861 115.071C609.693 115.744 609.021 116.416 608.013 116.416ZM608.181 116.752C608.685 116.752 609.021 116.584 609.357 116.416L612.381 119.442C611.205 120.451 609.693 121.123 608.181 121.123V116.752ZM607.509 107.339V111.71C607.005 111.878 606.501 112.046 606.165 112.382L603.141 109.356C604.317 108.18 605.829 107.339 607.509 107.339ZM613.053 119.106L610.029 116.08C610.365 115.744 610.533 115.24 610.701 114.735H615.069C614.733 116.416 614.061 117.929 613.053 119.106Z" fill="white"/>
    </g>
    <path d="M96.7856 96.0767C96.7856 96.0767 96.9536 96.0767 96.7856 96.0767C96.9536 96.0767 96.9536 96.0767 96.7856 96.0767C96.9536 96.0767 98.1296 95.9086 98.9696 95.2362C99.8096 94.2276 100.146 92.5466 99.4736 91.7061C99.1376 91.37 98.6336 91.2018 98.1296 91.2018C97.6256 91.3699 97.2896 91.538 97.1216 92.0423C97.1216 92.2104 97.1216 92.2103 97.1216 92.3784C97.2896 92.3784 97.2896 92.3784 97.4576 92.3784C97.6256 92.2103 97.7936 92.2103 97.9616 92.2103C98.1296 92.2103 98.1296 92.3785 98.2976 92.5466C98.2976 92.7147 98.2976 92.8827 98.1296 93.0508L97.9616 93.2189C97.6256 93.2189 97.1216 92.8827 96.6176 92.3784C96.1136 91.8741 95.4416 91.538 94.9376 91.2018C94.0976 90.8656 91.5776 90.3612 89.8975 91.5379C89.8975 91.5379 88.8895 92.3784 88.7215 93.0508C88.3855 93.7232 88.3855 94.5638 88.5535 95.0681C88.3855 95.2362 88.2175 95.4041 88.2175 95.7403C88.2175 96.2446 88.7215 96.581 89.5615 96.7491C89.5615 96.9172 89.3935 96.9171 89.3935 97.0852C89.3935 97.5895 90.0656 98.0938 90.9056 98.0938C91.5776 98.0938 92.0816 97.9258 92.2496 97.5896C92.4176 97.9258 92.9216 98.0938 93.5936 98.0938C94.4336 98.0938 95.1056 97.5895 95.1056 97.0852C95.1056 96.9171 95.1056 96.7491 94.9376 96.7491C95.4416 96.7491 95.7776 96.5809 96.1136 96.2447C96.1136 96.2447 96.1136 96.2447 96.2816 96.2447C96.1136 96.2447 96.4496 96.2448 96.7856 96.0767ZM97.9616 95.4042C97.7936 95.5723 97.4576 95.5723 97.2896 95.5723C97.4576 94.5637 96.7856 93.5551 96.6176 93.0508C96.9536 93.387 97.2896 93.5551 97.6256 93.7232C97.7936 94.0594 98.1296 94.5637 97.9616 95.4042ZM96.1136 95.9086C96.1136 95.7405 95.9456 95.4043 95.7776 95.0681C95.4416 94.3957 94.7696 93.387 93.0896 92.8828C90.9056 92.2104 89.8975 92.5466 89.3935 92.8828C89.3935 92.8828 89.3935 92.8828 89.5615 92.7147C89.7295 92.5466 89.8976 92.3784 90.0656 92.2103C90.7376 91.8741 91.9136 91.8741 93.5936 92.3784C95.7776 93.0508 96.4496 94.5638 96.6176 95.2362C96.6176 95.4043 96.7856 95.7405 96.7856 95.9086C96.7856 95.9086 96.7856 95.9086 96.6176 95.9086C96.2816 95.7405 96.2816 95.7405 96.1136 95.9086ZM92.9216 93.7232C92.5856 93.7232 92.4176 93.8913 92.2496 94.0594C91.9136 93.7232 91.5776 93.5552 90.9056 93.5552C90.7376 93.5552 90.5696 93.5552 90.4016 93.5552C90.9056 93.3871 91.5776 93.3871 92.2496 93.3871C92.4176 93.5552 92.5856 93.7232 92.9216 93.7232ZM90.9056 94.0594C91.4096 94.0594 91.9136 94.3956 91.9136 94.5637C91.9136 94.7318 91.7456 94.8998 91.5776 94.8998H91.4096C91.2416 94.8998 91.0736 94.8998 90.9056 94.8998C90.4016 94.8998 89.8975 94.5638 89.8975 94.3957C89.8975 94.3957 90.2336 94.0594 90.9056 94.0594ZM91.5776 95.5723H91.7456C91.9136 95.5723 91.9136 95.5723 92.0816 95.5723C92.7536 95.5723 93.0896 95.9086 93.0896 96.0767C93.0896 96.2448 92.5856 96.5808 92.0816 96.5808C91.4096 96.5808 91.0735 96.2448 91.0735 96.0767C91.0735 95.9086 91.2416 95.7404 91.5776 95.5723ZM92.4176 94.5637C92.4176 94.3956 92.9216 94.0594 93.4256 94.0594C93.5936 94.0594 93.5936 94.0594 93.7616 94.0594C94.0976 94.0594 94.4336 94.3956 94.4336 94.5637C94.4336 94.7318 94.2656 94.9 93.9296 95.0681C93.7616 95.0681 93.5936 95.0681 93.4256 95.0681C92.7536 95.2362 92.4176 94.8999 92.4176 94.5637ZM89.2255 95.0681C89.2255 94.9 89.2255 94.8999 89.2255 94.7318C89.2255 94.5637 89.3935 94.3957 89.5615 94.2276C89.3935 94.3957 89.3935 94.5637 89.3935 94.7318C89.3935 94.8999 89.3935 95.0681 89.5615 95.0681C89.3935 95.0681 89.3935 95.0681 89.2255 95.0681ZM88.5535 96.0767C88.5535 95.9086 88.7215 95.9084 88.8896 95.7403C89.0576 95.7403 89.2255 95.5723 89.3935 95.5723C89.5615 95.5723 89.5616 95.5723 89.7296 95.5723C90.4016 95.5723 90.7376 95.9086 90.7376 96.0767C90.7376 96.2448 90.5696 96.2447 90.5696 96.4128C90.4016 96.5809 90.0656 96.5808 89.7296 96.5808C88.8896 96.5808 88.5535 96.2448 88.5535 96.0767ZM90.7376 97.9257C90.0655 97.9257 89.7296 97.7575 89.7296 97.4213C89.7296 97.2532 90.2335 96.9171 90.7376 96.9171C91.0736 96.9171 91.2416 96.9171 91.5776 97.0852C91.5776 97.0852 91.7456 97.2532 91.7456 97.4213C91.7456 97.5894 91.2416 97.9257 90.7376 97.9257ZM93.4256 97.9257C92.7536 97.9257 92.4176 97.5894 92.4176 97.4213C92.4176 97.4213 92.4176 97.2533 92.5856 97.2533C92.7536 97.0852 93.0896 96.9171 93.4256 96.9171C93.5936 96.9171 93.7616 96.9171 93.9296 96.9171C94.2656 97.0852 94.4336 97.2532 94.4336 97.4213C94.4336 97.5894 93.9296 97.9257 93.4256 97.9257ZM95.6096 96.0767C95.4416 96.2448 95.1056 96.4128 94.6016 96.4128C94.4336 96.4128 94.2656 96.4128 94.0976 96.4128C93.7616 96.2447 93.5936 96.0767 93.5936 95.9086C93.5936 95.7405 93.7616 95.5723 94.0976 95.4042C94.2656 95.4042 94.4336 95.4042 94.6016 95.4042C94.7696 95.4042 94.7696 95.4042 94.9376 95.4042C95.2736 95.5723 95.6096 95.7405 95.6096 96.0767Z" fill="white"/>
    <path d="M108.882 90.6974V78.4265C108.882 78.2584 108.882 78.0902 108.714 78.0902C108.546 78.0902 108.378 78.0902 108.378 78.0902L107.034 78.7626V74.3921C107.034 74.224 107.034 74.056 106.866 74.056C106.698 74.056 106.53 74.056 106.53 74.056L100.482 77.9221H100.314C99.3056 78.2583 98.2976 78.4265 97.4576 78.4265C94.6016 78.4265 93.5936 76.5775 93.5936 76.5775C93.5936 76.4094 93.4256 76.4092 93.2576 76.4092C93.0896 76.4092 92.9216 76.5775 92.9216 76.5775C92.9216 76.5775 91.9136 78.4265 89.0576 78.4265C88.2176 78.4265 87.2096 78.2583 86.2016 77.9221L80.1535 74.056C79.9855 74.056 79.8175 74.056 79.6495 74.056C79.4815 74.056 79.4815 74.224 79.4815 74.3921V78.7626L78.3055 78.0902C78.1375 78.0902 77.9695 78.0902 77.9695 78.0902C77.8015 78.0902 77.8015 78.2584 77.8015 78.4265V90.6974C77.8015 90.8655 77.8015 93.8913 80.3215 96.2446C82.5055 98.4299 85.8656 99.6065 90.4016 99.6065C90.4016 99.6065 90.4016 99.6065 90.5696 99.6065C92.2496 100.111 93.2576 100.447 93.2576 101.96C93.2576 102.128 93.4256 102.296 93.5936 102.296C93.7616 102.296 93.9296 102.128 93.9296 101.96C93.9296 100.615 94.9376 100.111 96.6176 99.6065H96.7856C101.322 99.6065 104.682 98.4299 106.866 96.2446C108.882 93.8913 108.882 90.8655 108.882 90.6974ZM87.3776 87.1674C87.8816 86.9993 88.0496 85.9908 88.0496 85.9908C88.0496 85.9908 88.8896 86.495 89.3936 86.3269C89.3936 86.495 89.3936 86.9993 89.3936 86.9993C89.3936 86.9993 89.2256 87.3356 89.3936 87.6718C89.5616 87.8399 89.5616 88.176 89.5616 88.5122C89.2256 88.5122 89.0576 88.5122 88.7216 88.5122C88.2176 88.5122 87.7136 88.5122 87.3776 88.5122C87.3776 87.8399 87.3776 87.6717 87.3776 87.1674ZM96.7856 86.495H97.7936C97.7936 86.9993 97.7936 87.5037 97.9616 88.3442L96.7856 88.1759C96.7856 87.3354 96.7856 86.9993 96.7856 86.495ZM105.018 88.0079C104.346 88.6803 103.338 89.0164 102.162 89.0164C101.826 88.1759 101.658 87.3356 101.658 86.6632L106.194 84.1418C106.194 84.6461 106.194 86.8312 105.018 88.0079ZM80.1535 84.3098L84.6896 86.8313C84.6896 87.5037 84.5216 88.3442 84.1856 89.1847C83.0095 89.1847 82.1695 88.8483 81.4975 88.1759C80.1535 86.8312 80.1535 84.646 80.1535 84.3098ZM108.042 79.0989V86.6632L106.026 87.8398C107.034 86.1589 107.034 84.3097 107.034 83.9735V79.6031L108.042 79.0989ZM106.194 79.267L102.834 81.284C102.666 81.1159 102.162 80.4436 100.986 78.5945L106.194 75.2326V79.267ZM97.2896 79.267C98.1296 79.267 99.1376 79.0988 100.146 78.7626C101.322 80.4436 101.826 81.2842 102.162 81.6203C101.658 82.4608 100.146 85.3183 101.322 88.8483C100.818 88.3441 99.6416 88.1759 98.4656 88.1759C98.2976 87.3354 98.2976 86.8312 98.2976 86.3269H100.146C100.314 86.3269 100.314 85.9907 100.314 85.6545V83.9735C100.314 82.6288 99.6416 82.6289 99.6416 82.6289C99.6416 82.6289 99.1376 82.6288 98.9696 81.9565C98.8016 81.2841 98.2976 80.7799 97.7936 80.7799C97.2896 80.7799 96.2816 81.1161 95.6096 81.6203C95.1056 81.7884 95.1056 82.1246 95.1056 82.6289C94.9376 83.8056 94.6016 83.6374 94.6016 83.6374C94.4336 83.6374 94.2656 83.8056 94.2656 84.1418V85.8227C94.2656 86.1589 94.4336 86.495 94.6016 86.495H96.4496C96.4496 86.9993 96.4496 87.5037 96.2816 88.3442C95.1056 88.3442 94.0976 88.6804 93.4256 89.1847V77.9221C93.9296 78.4264 95.2736 79.267 97.2896 79.267ZM92.5856 78.0902V88.8483C92.0816 88.5122 91.2416 88.3442 90.2336 88.3442C90.0656 87.8399 90.0656 86.495 90.2336 86.1589C91.0736 85.9908 91.0736 85.1503 91.0736 84.4779C91.0736 83.9736 90.9056 82.1245 90.9056 82.1245L91.4096 81.9565C91.5776 81.9565 91.5776 81.9565 91.5776 81.7884C91.5776 81.6203 91.5776 81.4521 91.5776 81.4521L91.0736 81.284C90.9056 81.1159 90.7376 80.9479 90.5696 80.9479C90.4016 80.9479 90.0656 80.9478 89.8976 81.284C89.7296 81.1159 89.3936 81.284 89.2256 81.284C89.2256 81.284 89.2256 82.1246 90.0656 81.9565L90.2336 84.1418C90.2336 84.1418 90.2336 84.646 89.7296 84.4779C89.2256 84.3098 88.2176 83.9737 87.5456 84.1418C87.2096 84.3099 86.7056 84.4779 86.3696 85.3184C86.0336 86.1589 86.5376 85.8227 86.5376 85.8227L87.0416 85.4864C87.0416 85.4864 87.3776 86.1589 87.0416 86.6632C86.7056 86.9994 86.8735 87.3354 86.8735 87.3354C86.8735 87.3354 87.0416 88.176 87.0416 88.5122C86.2016 88.5122 85.5296 88.8483 85.0256 89.0164C86.0336 85.4864 84.6896 82.6289 84.1856 81.7884C84.5216 81.4522 85.0255 80.6116 86.2016 78.9306C87.2096 79.2668 88.2176 79.435 89.0576 79.435C90.7376 79.2669 91.7456 78.7626 92.5856 78.0902ZM80.1535 75.2326L85.3616 78.5945C84.3535 80.2755 83.6815 80.9478 83.5135 81.284L80.1535 79.435V75.2326ZM79.3135 79.7711V84.1418C79.3135 84.3099 79.3135 86.3269 80.3215 88.0079L78.3055 86.8313V79.267L79.3135 79.7711ZM78.4735 92.0422L83.5135 94.8998C84.0175 96.2445 84.8575 97.085 86.2016 98.2617C86.5376 98.5979 87.0416 98.766 87.3776 98.9341C84.3535 98.5979 82.0015 97.5895 80.4895 95.9085C79.1455 94.5637 78.6415 93.0508 78.4735 92.0422ZM93.0896 100.615C92.4176 99.6065 91.2416 99.2703 89.8976 98.9341C88.7216 98.5979 87.5456 98.2617 86.5376 97.4212C84.0175 95.5721 83.1775 93.8913 84.5215 90.0251H101.658C103.002 93.8913 102.162 95.404 99.6416 97.4212C98.6336 98.0936 97.4576 98.598 96.2816 98.766C94.9376 99.2703 93.7616 99.6065 93.0896 100.615ZM105.858 95.7402C104.178 97.4212 101.826 98.4299 98.8016 98.766C99.3056 98.598 99.6416 98.2617 99.9776 98.0936C101.322 97.085 102.33 96.0764 102.666 94.8998C102.666 94.8998 102.666 94.8998 102.834 94.8998L107.874 92.0422C107.706 93.0508 107.202 94.5636 105.858 95.7402Z" fill="white"/>
    <path d="M93.0897 76.0731C95.4417 76.0731 97.1217 74.8965 97.1217 73.3835C97.1217 71.8706 95.2737 70.694 93.0897 70.694C90.7377 70.694 89.0576 71.8706 89.0576 73.3835C89.0576 74.8965 90.7377 76.0731 93.0897 76.0731ZM93.0897 71.8706C94.2657 71.8706 95.1057 72.3749 95.1057 72.8792C95.1057 73.3835 94.6017 73.7196 93.9297 73.8877C93.2577 74.0558 93.4257 74.3921 93.0897 74.5602C92.7537 74.3921 92.9217 74.0558 92.2497 73.8877C91.5777 73.7196 91.0736 73.3835 91.0736 72.8792C91.0736 72.3749 91.9137 71.8706 93.0897 71.8706Z" fill="white"/>
</svg>
