<svg width="902" height="112" viewBox="0 0 902 112" fill="none" xmlns="http://www.w3.org/2000/svg">
<path d="M167.474 78.0633L165.589 79.9478H141.519V75.5987H132.239V9.92633H128.034V0.648071H121.654V10.6512H119.189V67.6252H115.999V16.0151H69.0197V21.669H72.6447L59.4497 54.5777H7.24997V85.6018H0V92.8504H7.97496V96.6196H260.564V78.0633H167.474ZM93.9596 53.7079H75.6897L83.6646 23.9886H93.9596V53.7079Z" fill="#57578E"/>
<path d="M185.309 3.11255H171.534V73.424H185.309V3.11255Z" fill="#DCE9EF" stroke="#65819B" stroke-width="1.1475" stroke-miterlimit="10"/>
<path d="M901.316 60.0867H171.534V75.7435H901.316V60.0867Z" fill="#DCE9EF" stroke="#65819B" stroke-width="1.1475" stroke-miterlimit="10"/>
<path d="M33.2048 111.697C41.9337 111.697 49.0098 104.622 49.0098 95.8947C49.0098 87.1675 41.9337 80.0927 33.2048 80.0927C24.476 80.0927 17.3999 87.1675 17.3999 95.8947C17.3999 104.622 24.476 111.697 33.2048 111.697Z" fill="#3B5266"/>
<path d="M22.4749 95.8947C22.4749 91.6905 24.7949 88.2112 28.2749 86.3266L27.6949 85.4568C23.9249 87.4864 21.3149 91.4006 21.3149 95.8947C21.3149 100.389 23.9249 104.303 27.6949 106.333L28.2749 105.463C24.7949 103.578 22.4749 99.954 22.4749 95.8947Z" fill="#76C1AA"/>
<path d="M38.7148 85.4568L38.2798 86.3266C41.7598 88.0663 44.2247 91.6905 44.2247 95.8947C44.2247 100.099 41.7598 103.723 38.2798 105.463L38.7148 106.333C42.4847 104.303 45.0947 100.389 45.0947 95.8947C44.9497 91.2556 42.4847 87.3414 38.7148 85.4568Z" fill="#76C1AA"/>
<path opacity="0.3" d="M33.2048 98.2142C34.486 98.2142 35.5247 97.1757 35.5247 95.8947C35.5247 94.6136 34.486 93.5751 33.2048 93.5751C31.9235 93.5751 30.8848 94.6136 30.8848 95.8947C30.8848 97.1757 31.9235 98.2142 33.2048 98.2142Z" fill="white"/>
<path opacity="0.3" d="M34.6551 94.1552L37.2651 91.5456C36.2501 90.5308 34.9451 89.9509 33.3501 89.9509V93.7202C33.7851 93.7202 34.2201 93.8652 34.6551 94.1552Z" fill="white"/>
<path opacity="0.3" d="M35.3798 95.7498H39.1498C39.1498 94.3 38.5698 92.8504 37.5548 91.8356L34.9448 94.445C35.2348 94.8799 35.3798 95.3148 35.3798 95.7498Z" fill="white"/>
<path opacity="0.3" d="M34.8 97.4894L37.4101 100.099C38.4251 99.0841 39.0051 97.7794 39.0051 96.3297H35.2351C35.3801 96.7646 35.09 97.0545 34.8 97.4894Z" fill="white"/>
<path opacity="0.3" d="M31.755 97.6345L29.145 100.244C30.16 101.114 31.32 101.694 32.77 101.694V97.9244C32.48 98.0694 32.045 97.9245 31.755 97.6345Z" fill="white"/>
<path opacity="0.3" d="M33.3501 98.0693V101.839C34.8001 101.839 36.1051 101.259 36.9751 100.389L34.3651 97.7794C34.0751 97.9244 33.7851 98.0693 33.3501 98.0693Z" fill="white"/>
<path opacity="0.3" d="M31.32 94.5899L28.71 91.9805C27.84 92.9953 27.26 94.3 27.26 95.7498H31.03C30.885 95.3148 31.03 95.0248 31.32 94.5899Z" fill="white"/>
<path opacity="0.3" d="M30.885 96.3297H27.115C27.26 97.7794 27.84 98.9392 28.71 99.954L31.32 97.3444C31.175 97.0545 31.03 96.7646 30.885 96.3297Z" fill="white"/>
<path opacity="0.3" d="M32.77 93.5751V89.8059C31.32 89.9509 30.015 90.5307 29 91.4006L31.61 94.0101C31.9 93.8652 32.335 93.7201 32.77 93.5751Z" fill="white"/>
<path d="M33.3499 89.0811C32.9149 89.0811 32.3349 89.081 31.8999 89.226C28.7099 89.8059 26.3899 92.5603 26.3899 95.8947C26.3899 99.664 29.4349 102.708 33.2049 102.708C35.0899 102.708 36.8298 101.984 37.9898 100.679C39.2948 99.3741 40.0198 97.7793 40.0198 95.8947C40.0198 92.1254 37.1199 89.0811 33.3499 89.0811ZM35.3799 95.7498C35.3799 95.3148 35.2349 94.8799 34.9449 94.445L37.5549 91.8356C38.4248 92.8504 39.0048 94.1551 39.1498 95.7498H35.3799ZM29.1449 100.389L31.7549 97.7794C32.0449 97.9244 32.3349 98.0692 32.7699 98.2142V101.984C31.4649 101.694 30.1599 101.259 29.1449 100.389ZM34.6549 94.1551C34.3649 93.8651 33.9299 93.7201 33.3499 93.7201V89.9509C34.7999 89.9509 36.2499 90.5307 37.2648 91.5455L34.6549 94.1551ZM30.8849 95.7498H27.1149C27.1149 94.3 27.6949 92.9953 28.5649 91.9805L31.1749 94.5899C31.0299 95.0248 30.8849 95.3148 30.8849 95.7498ZM30.8849 96.3297C31.0299 96.7646 31.1749 97.0545 31.3199 97.3444L28.7099 99.954C27.8399 98.9392 27.2599 97.7794 27.1149 96.3297H30.8849ZM33.2049 97.7794C32.1899 97.7794 31.3199 96.9095 31.3199 95.8947C31.3199 94.8799 32.1899 94.0102 33.2049 94.0102C33.9299 94.0102 34.5099 94.445 34.7999 95.0249V95.1698C34.9449 95.3148 34.9449 95.6047 34.9449 95.8947C34.9449 96.1846 34.9449 96.3296 34.7999 96.6195C34.6549 97.1994 33.9299 97.7794 33.2049 97.7794ZM33.3499 98.0693C33.7849 98.0693 34.0749 97.9244 34.3649 97.7794L36.9749 100.389C35.9599 101.259 34.6549 101.839 33.3499 101.839V98.0693ZM32.7699 89.9509V93.7201C32.3349 93.8651 31.8999 94.0101 31.6099 94.3L28.9999 91.6905C30.0149 90.6756 31.3199 89.9509 32.7699 89.9509ZM37.4099 100.099L34.7999 97.4893C35.0899 97.1994 35.2349 96.7646 35.3799 96.3297H39.1498C39.0048 97.7794 38.4249 99.0841 37.4099 100.099Z" fill="white"/>
<path d="M164.574 111.697C173.303 111.697 180.379 104.622 180.379 95.8947C180.379 87.1675 173.303 80.0927 164.574 80.0927C155.846 80.0927 148.77 87.1675 148.77 95.8947C148.77 104.622 155.846 111.697 164.574 111.697Z" fill="#3B5266"/>
<path d="M153.845 95.8947C153.845 91.6905 156.165 88.2112 159.645 86.3266L159.065 85.4568C155.295 87.4864 152.685 91.4006 152.685 95.8947C152.685 100.389 155.295 104.303 159.065 106.333L159.645 105.463C156.165 103.578 153.845 99.954 153.845 95.8947Z" fill="#76C1AA"/>
<path d="M169.94 85.4568L169.505 86.3266C172.985 88.0663 175.45 91.6905 175.45 95.8947C175.45 100.099 172.985 103.723 169.505 105.463L169.94 106.333C173.71 104.303 176.32 100.389 176.32 95.8947C176.32 91.2556 173.71 87.3414 169.94 85.4568Z" fill="#76C1AA"/>
<path opacity="0.3" d="M164.574 98.2142C165.856 98.2142 166.894 97.1757 166.894 95.8947C166.894 94.6136 165.856 93.5751 164.574 93.5751C163.293 93.5751 162.254 94.6136 162.254 95.8947C162.254 97.1757 163.293 98.2142 164.574 98.2142Z" fill="white"/>
<path opacity="0.3" d="M166.024 94.1552L168.634 91.5456C167.619 90.5308 166.314 89.9509 164.719 89.9509V93.7202C165.154 93.7202 165.589 93.8652 166.024 94.1552Z" fill="white"/>
<path opacity="0.3" d="M166.749 95.7498H170.519C170.519 94.3 169.939 92.8504 168.924 91.8356L166.314 94.445C166.604 94.8799 166.749 95.3148 166.749 95.7498Z" fill="white"/>
<path opacity="0.3" d="M166.169 97.4894L168.779 100.099C169.794 99.0841 170.374 97.7794 170.374 96.3297H166.749C166.604 96.7646 166.459 97.0545 166.169 97.4894Z" fill="white"/>
<path opacity="0.3" d="M163.124 97.6345L160.514 100.244C161.529 101.114 162.689 101.694 164.139 101.694V97.9244C163.849 98.0694 163.414 97.9245 163.124 97.6345Z" fill="white"/>
<path opacity="0.3" d="M164.719 98.0693V101.839C166.169 101.839 167.474 101.259 168.344 100.389L165.734 97.7794C165.444 97.9244 165.154 98.0693 164.719 98.0693Z" fill="white"/>
<path opacity="0.3" d="M162.689 94.5899L160.079 91.9805C159.209 92.9953 158.629 94.3 158.629 95.7498H162.399C162.254 95.3148 162.399 95.0248 162.689 94.5899Z" fill="white"/>
<path opacity="0.3" d="M162.254 96.3297H158.484C158.629 97.7794 159.209 98.9392 160.079 99.954L162.689 97.3444C162.544 97.0545 162.399 96.7646 162.254 96.3297Z" fill="white"/>
<path opacity="0.3" d="M164.139 93.5751V89.8059C162.689 89.9509 161.384 90.5307 160.369 91.4006L162.979 94.0101C163.269 93.8652 163.704 93.7201 164.139 93.5751Z" fill="white"/>
<path d="M164.574 89.0811C164.139 89.0811 163.559 89.081 163.124 89.226C159.934 89.8059 157.615 92.5603 157.615 95.8947C157.615 99.664 160.659 102.708 164.429 102.708C166.314 102.708 168.054 101.984 169.214 100.679C170.519 99.3741 171.244 97.7793 171.244 95.8947C171.389 92.1254 168.344 89.0811 164.574 89.0811ZM166.749 95.7498C166.749 95.3148 166.604 94.8799 166.314 94.445L168.924 91.8356C169.794 92.8504 170.374 94.1551 170.519 95.7498H166.749ZM160.514 100.389L163.124 97.7794C163.414 97.9244 163.704 98.0692 164.139 98.2142V101.984C162.689 101.694 161.529 101.259 160.514 100.389ZM166.024 94.1551C165.734 93.8651 165.299 93.7201 164.719 93.7201V89.9509C166.169 89.9509 167.619 90.5307 168.634 91.5455L166.024 94.1551ZM162.254 95.7498H158.485C158.485 94.3 159.065 92.9953 159.934 91.9805L162.544 94.5899C162.399 95.0248 162.254 95.3148 162.254 95.7498ZM162.254 96.3297C162.399 96.7646 162.544 97.0545 162.689 97.3444L160.079 99.954C159.209 98.9392 158.63 97.7794 158.485 96.3297H162.254ZM164.574 97.7794C163.559 97.7794 162.689 96.9095 162.689 95.8947C162.689 94.8799 163.559 94.0102 164.574 94.0102C165.299 94.0102 165.879 94.445 166.169 95.0249V95.1698C166.314 95.3148 166.314 95.6047 166.314 95.8947C166.314 96.1846 166.314 96.3296 166.169 96.6195C166.024 97.1994 165.299 97.7794 164.574 97.7794ZM164.719 98.0693C165.154 98.0693 165.444 97.9244 165.734 97.7794L168.344 100.389C167.329 101.259 166.024 101.839 164.719 101.839V98.0693ZM164.139 89.9509V93.7201C163.704 93.8651 163.269 94.0101 162.979 94.3L160.37 91.6905C161.384 90.6756 162.689 89.9509 164.139 89.9509ZM168.779 100.099L166.169 97.4893C166.459 97.1994 166.604 96.7646 166.749 96.3297H170.519C170.374 97.7794 169.794 99.0841 168.779 100.099Z" fill="white"/>
<path d="M201.114 111.697C209.843 111.697 216.919 104.622 216.919 95.8947C216.919 87.1675 209.843 80.0927 201.114 80.0927C192.385 80.0927 185.309 87.1675 185.309 95.8947C185.309 104.622 192.385 111.697 201.114 111.697Z" fill="#3B5266"/>
<path d="M190.529 95.8947C190.529 91.6905 192.849 88.2112 196.329 86.3266L195.749 85.4568C191.979 87.4864 189.369 91.4006 189.369 95.8947C189.369 100.389 191.979 104.303 195.749 106.333L196.329 105.463C192.849 103.578 190.529 99.954 190.529 95.8947Z" fill="#76C1AA"/>
<path d="M206.624 85.4568L206.189 86.3266C209.669 88.0663 212.134 91.6905 212.134 95.8947C212.134 100.099 209.669 103.723 206.189 105.463L206.624 106.333C210.394 104.303 213.004 100.389 213.004 95.8947C213.004 91.2556 210.394 87.3414 206.624 85.4568Z" fill="#76C1AA"/>
<path opacity="0.3" d="M201.114 98.2142C202.395 98.2142 203.434 97.1757 203.434 95.8947C203.434 94.6136 202.395 93.5751 201.114 93.5751C199.833 93.5751 198.794 94.6136 198.794 95.8947C198.794 97.1757 199.833 98.2142 201.114 98.2142Z" fill="white"/>
<path opacity="0.3" d="M202.564 94.1552L205.174 91.5456C204.159 90.5308 202.854 89.9509 201.259 89.9509V93.7202C201.839 93.7202 202.274 93.8652 202.564 94.1552Z" fill="white"/>
<path opacity="0.3" d="M203.434 95.7498H207.204C207.204 94.3 206.624 92.8504 205.609 91.8356L202.999 94.445C203.289 94.8799 203.434 95.3148 203.434 95.7498Z" fill="white"/>
<path opacity="0.3" d="M202.854 97.4894L205.464 100.099C206.479 99.0841 207.059 97.7794 207.059 96.3297H203.289C203.289 96.7646 203.144 97.0545 202.854 97.4894Z" fill="white"/>
<path opacity="0.3" d="M199.809 97.6345L197.199 100.244C198.214 101.114 199.374 101.694 200.824 101.694V97.9244C200.389 98.0694 200.099 97.9245 199.809 97.6345Z" fill="white"/>
<path opacity="0.3" d="M201.259 98.0693V101.839C202.709 101.839 204.014 101.259 204.884 100.389L202.274 97.7794C202.129 97.9244 201.694 98.0693 201.259 98.0693Z" fill="white"/>
<path opacity="0.3" d="M199.229 94.5899L196.619 91.9805C195.749 92.9953 195.169 94.3 195.169 95.7498H198.939C198.939 95.3148 199.084 95.0248 199.229 94.5899Z" fill="white"/>
<path opacity="0.3" d="M198.939 96.3297H195.169C195.314 97.7794 195.894 98.9392 196.764 99.954L199.374 97.3444C199.229 97.0545 198.939 96.7646 198.939 96.3297Z" fill="white"/>
<path opacity="0.3" d="M200.824 93.5751V89.8059C199.374 89.9509 198.069 90.5307 197.054 91.4006L199.664 94.0101C199.954 93.8652 200.244 93.7201 200.824 93.5751Z" fill="white"/>
<path d="M201.259 89.0811C200.824 89.0811 200.244 89.081 199.809 89.226C196.619 89.8059 194.299 92.5603 194.299 95.8947C194.299 99.664 197.344 102.708 201.114 102.708C202.999 102.708 204.739 101.984 205.899 100.679C207.204 99.3741 207.929 97.7793 207.929 95.8947C208.074 92.1254 205.029 89.0811 201.259 89.0811ZM203.434 95.7498C203.434 95.3148 203.289 94.8799 202.999 94.445L205.609 91.8356C206.479 92.8504 207.059 94.1551 207.204 95.7498H203.434ZM197.199 100.389L199.809 97.7794C200.099 97.9244 200.389 98.0692 200.824 98.2142V101.984C199.374 101.694 198.069 101.259 197.199 100.389ZM202.564 94.1551C202.274 93.8651 201.839 93.7201 201.259 93.7201V89.9509C202.709 89.9509 204.159 90.5307 205.174 91.5455L202.564 94.1551ZM198.939 95.7498H195.169C195.169 94.3 195.749 92.9953 196.619 91.9805L199.229 94.5899C199.084 95.0248 198.939 95.3148 198.939 95.7498ZM198.939 96.3297C199.084 96.7646 199.229 97.0545 199.374 97.3444L196.764 99.954C195.894 98.9392 195.314 97.7794 195.169 96.3297H198.939ZM201.114 97.7794C200.099 97.7794 199.229 96.9095 199.229 95.8947C199.229 94.8799 200.099 94.0102 201.114 94.0102C201.839 94.0102 202.419 94.445 202.709 95.0249V95.1698C202.854 95.3148 202.854 95.6047 202.854 95.8947C202.854 96.1846 202.854 96.3296 202.709 96.6195C202.564 97.1994 201.984 97.7794 201.114 97.7794ZM201.259 98.0693C201.694 98.0693 201.984 97.9244 202.274 97.7794L204.884 100.389C203.869 101.259 202.564 101.839 201.259 101.839V98.0693ZM200.824 89.9509V93.7201C200.389 93.8651 199.954 94.0101 199.664 94.3L197.054 91.6905C197.924 90.6756 199.229 89.9509 200.824 89.9509ZM205.464 100.099L202.854 97.4893C203.144 97.1994 203.289 96.7646 203.434 96.3297H207.204C206.914 97.7794 206.334 99.0841 205.464 100.099Z" fill="white"/>
<path d="M237.799 111.697C246.528 111.697 253.604 104.622 253.604 95.8947C253.604 87.1675 246.528 80.0927 237.799 80.0927C229.07 80.0927 221.994 87.1675 221.994 95.8947C221.994 104.622 229.07 111.697 237.799 111.697Z" fill="#3B5266"/>
<path d="M227.069 95.8947C227.069 91.6905 229.389 88.2112 232.869 86.3266L232.289 85.4568C228.519 87.4864 225.909 91.4006 225.909 95.8947C225.909 100.389 228.519 104.303 232.289 106.333L232.869 105.463C229.389 103.578 227.069 99.954 227.069 95.8947Z" fill="#76C1AA"/>
<path d="M243.164 85.4568L242.729 86.3266C246.209 88.0663 248.674 91.6905 248.674 95.8947C248.674 100.099 246.209 103.723 242.729 105.463L243.164 106.333C246.934 104.303 249.544 100.389 249.544 95.8947C249.544 91.2556 246.934 87.3414 243.164 85.4568Z" fill="#76C1AA"/>
<path opacity="0.3" d="M237.799 98.2142C239.08 98.2142 240.119 97.1757 240.119 95.8947C240.119 94.6136 239.08 93.5751 237.799 93.5751C236.518 93.5751 235.479 94.6136 235.479 95.8947C235.479 97.1757 236.518 98.2142 237.799 98.2142Z" fill="white"/>
<path opacity="0.3" d="M239.249 94.1552L241.859 91.5456C240.844 90.5308 239.539 89.9509 237.944 89.9509V93.7202C238.379 93.7202 238.814 93.8652 239.249 94.1552Z" fill="white"/>
<path opacity="0.3" d="M239.974 95.7498H243.744C243.744 94.3 243.164 92.8504 242.149 91.8356L239.539 94.445C239.829 94.8799 239.974 95.3148 239.974 95.7498Z" fill="white"/>
<path opacity="0.3" d="M239.394 97.4894L242.004 100.099C243.019 99.0841 243.599 97.7794 243.599 96.3297H239.829C239.829 96.7646 239.684 97.0545 239.394 97.4894Z" fill="white"/>
<path opacity="0.3" d="M236.349 97.6345L233.739 100.244C234.754 101.114 235.914 101.694 237.364 101.694V97.9244C237.074 98.0694 236.639 97.9245 236.349 97.6345Z" fill="white"/>
<path opacity="0.3" d="M237.944 98.0693V101.839C239.394 101.839 240.699 101.259 241.569 100.389L238.959 97.7794C238.669 97.9244 238.379 98.0693 237.944 98.0693Z" fill="white"/>
<path opacity="0.3" d="M235.914 94.5899L233.304 91.9805C232.434 92.9953 231.854 94.3 231.854 95.7498H235.624C235.479 95.3148 235.624 95.0248 235.914 94.5899Z" fill="white"/>
<path opacity="0.3" d="M235.479 96.3297H231.709C231.854 97.7794 232.434 98.9392 233.304 99.954L235.914 97.3444C235.769 97.0545 235.624 96.7646 235.479 96.3297Z" fill="white"/>
<path opacity="0.3" d="M237.364 93.5751V89.8059C235.914 89.9509 234.609 90.5307 233.594 91.4006L236.204 94.0101C236.494 93.8652 236.929 93.7201 237.364 93.5751Z" fill="white"/>
<path d="M237.944 89.0811C237.509 89.0811 236.929 89.081 236.494 89.226C233.304 89.8059 230.984 92.5603 230.984 95.8947C230.984 99.664 234.029 102.708 237.799 102.708C239.684 102.708 241.424 101.984 242.584 100.679C243.889 99.3741 244.614 97.7793 244.614 95.8947C244.614 92.1254 241.569 89.0811 237.944 89.0811ZM239.974 95.7498C239.974 95.3148 239.829 94.8799 239.539 94.445L242.149 91.8356C243.019 92.8504 243.599 94.1551 243.744 95.7498H239.974ZM233.739 100.389L236.349 97.7794C236.639 97.9244 236.929 98.0692 237.364 98.2142V101.984C236.059 101.694 234.754 101.259 233.739 100.389ZM239.249 94.1551C238.959 93.8651 238.524 93.7201 237.944 93.7201V89.9509C239.394 89.9509 240.844 90.5307 241.859 91.5455L239.249 94.1551ZM235.479 95.7498H231.709C231.709 94.3 232.289 92.9953 233.159 91.9805L235.769 94.5899C235.624 95.0248 235.479 95.3148 235.479 95.7498ZM235.479 96.3297C235.624 96.7646 235.769 97.0545 235.914 97.3444L233.304 99.954C232.434 98.9392 231.854 97.7794 231.709 96.3297H235.479ZM237.799 97.7794C236.784 97.7794 235.914 96.9095 235.914 95.8947C235.914 94.8799 236.784 94.0102 237.799 94.0102C238.524 94.0102 239.104 94.445 239.394 95.0249V95.1698C239.539 95.3148 239.539 95.6047 239.539 95.8947C239.539 96.1846 239.539 96.3296 239.394 96.6195C239.249 97.1994 238.524 97.7794 237.799 97.7794ZM237.944 98.0693C238.379 98.0693 238.669 97.9244 238.959 97.7794L241.569 100.389C240.554 101.259 239.249 101.839 237.944 101.839V98.0693ZM237.364 89.9509V93.7201C236.929 93.8651 236.494 94.0101 236.204 94.3L233.594 91.6905C234.609 90.6756 235.914 89.9509 237.364 89.9509ZM242.004 100.099L239.394 97.4893C239.684 97.1994 239.829 96.7646 239.974 96.3297H243.744C243.599 97.7794 243.019 99.0841 242.004 100.099Z" fill="white"/>
<path d="M346.694 111.697C355.422 111.697 362.499 104.622 362.499 95.8947C362.499 87.1675 355.422 80.0927 346.694 80.0927C337.965 80.0927 330.889 87.1675 330.889 95.8947C330.889 104.622 337.965 111.697 346.694 111.697Z" fill="#3B5266"/>
<path d="M335.964 95.8947C335.964 91.6905 338.284 88.2112 341.764 86.3266L341.184 85.4568C337.414 87.4864 334.804 91.4006 334.804 95.8947C334.804 100.389 337.414 104.303 341.184 106.333L341.764 105.463C338.429 103.578 335.964 99.954 335.964 95.8947Z" fill="#76C1AA"/>
<path d="M352.204 85.4568L351.769 86.3266C355.249 88.0663 357.714 91.6905 357.714 95.8947C357.714 100.099 355.249 103.723 351.769 105.463L352.204 106.333C355.974 104.303 358.584 100.389 358.584 95.8947C358.584 91.2556 355.974 87.3414 352.204 85.4568Z" fill="#76C1AA"/>
<path opacity="0.3" d="M346.694 98.2142C347.975 98.2142 349.014 97.1757 349.014 95.8947C349.014 94.6136 347.975 93.5751 346.694 93.5751C345.412 93.5751 344.374 94.6136 344.374 95.8947C344.374 97.1757 345.412 98.2142 346.694 98.2142Z" fill="white"/>
<path opacity="0.3" d="M348.144 94.1552L350.754 91.5456C349.739 90.5308 348.434 89.9509 346.839 89.9509V93.7202C347.419 93.7202 347.709 93.8652 348.144 94.1552Z" fill="white"/>
<path opacity="0.3" d="M349.014 95.7498H352.784C352.784 94.3 352.204 92.8504 351.189 91.8356L348.579 94.445C348.724 94.8799 348.869 95.3148 349.014 95.7498Z" fill="white"/>
<path opacity="0.3" d="M348.289 97.4894L350.899 100.099C351.914 99.0841 352.494 97.7794 352.494 96.3297H348.724C348.869 96.7646 348.579 97.0545 348.289 97.4894Z" fill="white"/>
<path opacity="0.3" d="M345.389 97.6345L342.779 100.244C343.794 101.114 344.954 101.694 346.404 101.694V97.9244C345.969 98.0694 345.679 97.9245 345.389 97.6345Z" fill="white"/>
<path opacity="0.3" d="M346.839 98.0693V101.839C348.289 101.839 349.594 101.259 350.464 100.389L347.854 97.7794C347.564 97.9244 347.274 98.0693 346.839 98.0693Z" fill="white"/>
<path opacity="0.3" d="M344.809 94.5899L342.199 91.9805C341.329 92.9953 340.749 94.3 340.749 95.7498H344.519C344.519 95.3148 344.519 95.0248 344.809 94.5899Z" fill="white"/>
<path opacity="0.3" d="M344.519 96.3297H340.749C340.894 97.7794 341.474 98.9392 342.344 99.954L344.954 97.3444C344.664 97.0545 344.519 96.7646 344.519 96.3297Z" fill="white"/>
<path opacity="0.3" d="M346.259 93.5751V89.8059C344.809 89.9509 343.504 90.5307 342.489 91.4006L345.099 94.0101C345.534 93.8652 345.824 93.7201 346.259 93.5751Z" fill="white"/>
<path d="M346.839 89.0811C346.404 89.0811 345.824 89.081 345.389 89.226C342.199 89.8059 339.879 92.5603 339.879 95.8947C339.879 99.664 342.924 102.708 346.694 102.708C348.579 102.708 350.319 101.984 351.479 100.679C352.784 99.3741 353.509 97.7793 353.509 95.8947C353.654 92.1254 350.609 89.0811 346.839 89.0811ZM349.014 95.7498C349.014 95.3148 348.869 94.8799 348.579 94.445L351.189 91.8356C352.059 92.8504 352.639 94.1551 352.784 95.7498H349.014ZM342.779 100.389L345.389 97.7794C345.679 97.9244 345.969 98.0692 346.404 98.2142V101.984C344.954 101.694 343.649 101.259 342.779 100.389ZM348.144 94.1551C347.854 93.8651 347.419 93.7201 346.839 93.7201V89.9509C348.289 89.9509 349.739 90.5307 350.754 91.5455L348.144 94.1551ZM344.374 95.7498H340.749C340.749 94.3 341.329 92.9953 342.199 91.9805L344.809 94.5899C344.519 95.0248 344.519 95.3148 344.374 95.7498ZM344.519 96.3297C344.664 96.7646 344.809 97.0545 344.954 97.3444L342.344 99.954C341.474 98.9392 340.894 97.7794 340.749 96.3297H344.519ZM346.694 97.7794C345.679 97.7794 344.809 96.9095 344.809 95.8947C344.809 94.8799 345.679 94.0102 346.694 94.0102C347.419 94.0102 347.999 94.445 348.289 95.0249V95.1698C348.434 95.3148 348.434 95.6047 348.434 95.8947C348.434 96.1846 348.434 96.3296 348.289 96.6195C348.144 97.1994 347.564 97.7794 346.694 97.7794ZM346.839 98.0693C347.274 98.0693 347.564 97.9244 347.854 97.7794L350.464 100.389C349.449 101.259 348.144 101.839 346.839 101.839V98.0693ZM346.259 89.9509V93.7201C345.824 93.8651 345.389 94.0101 345.099 94.3L342.489 91.6905C343.504 90.6756 344.809 89.9509 346.259 89.9509ZM351.044 100.099L348.434 97.4893C348.724 97.1994 348.869 96.7646 349.014 96.3297H352.784C352.494 97.7794 351.914 99.0841 351.044 100.099Z" fill="white"/>
<path d="M384.683 111.697C393.412 111.697 400.488 104.622 400.488 95.8947C400.488 87.1675 393.412 80.0927 384.683 80.0927C375.955 80.0927 368.878 87.1675 368.878 95.8947C368.878 104.622 375.955 111.697 384.683 111.697Z" fill="#3B5266"/>
<path d="M373.953 95.8947C373.953 91.6905 376.273 88.2112 379.753 86.3266L379.173 85.4568C375.403 87.4864 372.793 91.4006 372.793 95.8947C372.793 100.389 375.403 104.303 379.173 106.333L379.753 105.463C376.273 103.578 373.953 99.954 373.953 95.8947Z" fill="#76C1AA"/>
<path d="M390.049 85.4568L389.614 86.3266C393.094 88.0663 395.558 91.6905 395.558 95.8947C395.558 100.099 393.094 103.723 389.614 105.463L390.049 106.333C393.818 104.303 396.428 100.389 396.428 95.8947C396.428 91.2556 393.818 87.3414 390.049 85.4568Z" fill="#76C1AA"/>
<path opacity="0.3" d="M384.683 98.2142C385.965 98.2142 387.003 97.1757 387.003 95.8947C387.003 94.6136 385.965 93.5751 384.683 93.5751C383.402 93.5751 382.364 94.6136 382.364 95.8947C382.364 97.1757 383.402 98.2142 384.683 98.2142Z" fill="white"/>
<path opacity="0.3" d="M385.988 94.1552L388.598 91.5456C387.583 90.5308 386.278 89.9509 384.683 89.9509V93.7202C385.263 93.7202 385.698 93.8652 385.988 94.1552Z" fill="white"/>
<path opacity="0.3" d="M386.858 95.7498H390.628C390.628 94.3 390.048 92.8504 389.033 91.8356L386.423 94.445C386.713 94.8799 386.858 95.3148 386.858 95.7498Z" fill="white"/>
<path opacity="0.3" d="M386.279 97.4894L388.889 100.099C389.904 99.0841 390.484 97.7794 390.484 96.3297H386.714C386.714 96.7646 386.569 97.0545 386.279 97.4894Z" fill="white"/>
<path opacity="0.3" d="M383.234 97.6345L380.624 100.244C381.639 101.114 382.799 101.694 384.249 101.694V97.9244C383.814 98.0694 383.524 97.9245 383.234 97.6345Z" fill="white"/>
<path opacity="0.3" d="M384.828 98.0693V101.839C386.278 101.839 387.583 101.259 388.453 100.389L385.843 97.7794C385.553 97.9244 385.118 98.0693 384.828 98.0693Z" fill="white"/>
<path opacity="0.3" d="M382.653 94.5899L380.043 91.9805C379.173 92.9953 378.594 94.3 378.594 95.7498H382.363C382.363 95.3148 382.508 95.0248 382.653 94.5899Z" fill="white"/>
<path opacity="0.3" d="M382.363 96.3297H378.594C378.739 97.7794 379.319 98.9392 380.189 99.954L382.798 97.3444C382.653 97.0545 382.508 96.7646 382.363 96.3297Z" fill="white"/>
<path opacity="0.3" d="M384.249 93.5751V89.8059C382.799 89.9509 381.494 90.5307 380.479 91.4006L383.089 94.0101C383.379 93.8652 383.814 93.7201 384.249 93.5751Z" fill="white"/>
<path d="M384.683 89.0811C384.248 89.0811 383.668 89.081 383.233 89.226C380.043 89.8059 377.723 92.5603 377.723 95.8947C377.723 99.664 380.768 102.708 384.538 102.708C386.423 102.708 388.163 101.984 389.323 100.679C390.628 99.3741 391.353 97.7793 391.353 95.8947C391.498 92.1254 388.453 89.0811 384.683 89.0811ZM386.858 95.7498C386.858 95.3148 386.713 94.8799 386.423 94.445L389.033 91.8356C389.903 92.8504 390.483 94.1551 390.628 95.7498H386.858ZM380.623 100.389L383.233 97.7794C383.523 97.9244 383.813 98.0692 384.248 98.2142V101.984C382.798 101.694 381.638 101.259 380.623 100.389ZM385.988 94.1551C385.698 93.8651 385.263 93.7201 384.683 93.7201V89.9509C386.133 89.9509 387.583 90.5307 388.598 91.5455L385.988 94.1551ZM382.363 95.7498H378.593C378.593 94.3 379.173 92.9953 380.043 91.9805L382.653 94.5899C382.508 95.0248 382.363 95.3148 382.363 95.7498ZM382.363 96.3297C382.508 96.7646 382.653 97.0545 382.798 97.3444L380.188 99.954C379.318 98.9392 378.738 97.7794 378.593 96.3297H382.363ZM384.683 97.7794C383.668 97.7794 382.798 96.9095 382.798 95.8947C382.798 94.8799 383.668 94.0102 384.683 94.0102C385.408 94.0102 385.988 94.445 386.278 95.0249V95.1698C386.423 95.3148 386.423 95.6047 386.423 95.8947C386.423 96.1846 386.423 96.3296 386.278 96.6195C386.133 97.1994 385.408 97.7794 384.683 97.7794ZM384.828 98.0693C385.263 98.0693 385.553 97.9244 385.843 97.7794L388.453 100.389C387.438 101.259 386.133 101.839 384.828 101.839V98.0693ZM384.248 89.9509V93.7201C383.813 93.8651 383.378 94.0101 383.088 94.3L380.478 91.6905C381.493 90.6756 382.798 89.9509 384.248 89.9509ZM388.888 100.099L386.278 97.4893C386.568 97.1994 386.713 96.7646 386.858 96.3297H390.628C390.483 97.7794 389.903 99.0841 388.888 100.099Z" fill="white"/>
<path d="M422.528 111.697C431.257 111.697 438.333 104.622 438.333 95.8947C438.333 87.1675 431.257 80.0927 422.528 80.0927C413.799 80.0927 406.723 87.1675 406.723 95.8947C406.723 104.622 413.799 111.697 422.528 111.697Z" fill="#3B5266"/>
<path d="M411.798 95.8947C411.798 91.6905 414.118 88.2112 417.598 86.3266L417.018 85.4568C413.248 87.4864 410.638 91.4006 410.638 95.8947C410.638 100.389 413.248 104.303 417.018 106.333L417.598 105.463C414.263 103.578 411.798 99.954 411.798 95.8947Z" fill="#76C1AA"/>
<path d="M428.038 85.4568L427.603 86.3266C431.083 88.0663 433.548 91.6905 433.548 95.8947C433.548 100.099 431.083 103.723 427.603 105.463L428.038 106.333C431.808 104.303 434.418 100.389 434.418 95.8947C434.273 91.2556 431.808 87.3414 428.038 85.4568Z" fill="#76C1AA"/>
<path opacity="0.3" d="M422.528 98.2142C423.81 98.2142 424.848 97.1757 424.848 95.8947C424.848 94.6136 423.81 93.5751 422.528 93.5751C421.247 93.5751 420.208 94.6136 420.208 95.8947C420.208 97.1757 421.247 98.2142 422.528 98.2142Z" fill="white"/>
<path opacity="0.3" d="M423.978 94.1552L426.588 91.5456C425.573 90.5308 424.268 89.9509 422.673 89.9509V93.7202C423.108 93.7202 423.543 93.8652 423.978 94.1552Z" fill="white"/>
<path opacity="0.3" d="M424.848 95.7498H428.618C428.618 94.3 428.038 92.8504 427.023 91.8356L424.413 94.445C424.558 94.8799 424.703 95.3148 424.848 95.7498Z" fill="white"/>
<path opacity="0.3" d="M424.123 97.4894L426.733 100.099C427.748 99.0841 428.328 97.7794 428.328 96.3297H424.558C424.703 96.7646 424.413 97.0545 424.123 97.4894Z" fill="white"/>
<path opacity="0.3" d="M421.223 97.6345L418.613 100.244C419.628 101.114 420.788 101.694 422.238 101.694V97.9244C421.803 98.0694 421.513 97.9245 421.223 97.6345Z" fill="white"/>
<path opacity="0.3" d="M422.673 98.0693V101.839C424.123 101.839 425.428 101.259 426.298 100.389L423.688 97.7794C423.398 97.9244 423.108 98.0693 422.673 98.0693Z" fill="white"/>
<path opacity="0.3" d="M420.643 94.5899L418.033 91.9805C417.163 92.9953 416.583 94.3 416.583 95.7498H420.353C420.208 95.3148 420.353 95.0248 420.643 94.5899Z" fill="white"/>
<path opacity="0.3" d="M420.353 96.3297H416.583C416.728 97.7794 417.308 98.9392 418.178 99.954L420.788 97.3444C420.498 97.0545 420.353 96.7646 420.353 96.3297Z" fill="white"/>
<path opacity="0.3" d="M422.093 93.5751V89.8059C420.643 89.9509 419.338 90.5307 418.323 91.4006L420.933 94.0101C421.223 93.8652 421.658 93.7201 422.093 93.5751Z" fill="white"/>
<path d="M422.673 89.0811C422.238 89.0811 421.658 89.081 421.223 89.226C418.033 89.8059 415.713 92.5603 415.713 95.8947C415.713 99.664 418.758 102.708 422.528 102.708C424.413 102.708 426.153 101.984 427.313 100.679C428.618 99.3741 429.343 97.7793 429.343 95.8947C429.488 92.1254 426.443 89.0811 422.673 89.0811ZM424.848 95.7498C424.848 95.3148 424.703 94.8799 424.413 94.445L427.023 91.8356C427.893 92.8504 428.473 94.1551 428.618 95.7498H424.848ZM418.468 100.389L421.078 97.7794C421.368 97.9244 421.658 98.0692 422.093 98.2142V101.984C420.788 101.694 419.483 101.259 418.468 100.389ZM423.978 94.1551C423.688 93.8651 423.253 93.7201 422.673 93.7201V89.9509C424.123 89.9509 425.573 90.5307 426.588 91.5455L423.978 94.1551ZM420.208 95.7498H416.438C416.438 94.3 417.018 92.9953 417.888 91.9805L420.498 94.5899C420.353 95.0248 420.208 95.3148 420.208 95.7498ZM420.353 96.3297C420.498 96.7646 420.643 97.0545 420.788 97.3444L418.178 99.954C417.308 98.9392 416.728 97.7794 416.583 96.3297H420.353ZM422.528 97.7794C421.513 97.7794 420.643 96.9095 420.643 95.8947C420.643 94.8799 421.513 94.0102 422.528 94.0102C423.253 94.0102 423.833 94.445 424.123 95.0249V95.1698C424.268 95.3148 424.268 95.6047 424.268 95.8947C424.268 96.1846 424.268 96.3296 424.123 96.6195C423.978 97.1994 423.253 97.7794 422.528 97.7794ZM422.673 98.0693C423.108 98.0693 423.398 97.9244 423.688 97.7794L426.298 100.389C425.283 101.259 423.978 101.839 422.673 101.839V98.0693ZM422.093 89.9509V93.7201C421.658 93.8651 421.223 94.0101 420.933 94.3L418.323 91.6905C419.338 90.6756 420.643 89.9509 422.093 89.9509ZM426.733 100.099L424.123 97.4893C424.413 97.1994 424.558 96.7646 424.703 96.3297H428.473C428.328 97.7794 427.748 99.0841 426.733 100.099Z" fill="white"/>
<path d="M460.518 111.697C469.247 111.697 476.323 104.622 476.323 95.8947C476.323 87.1675 469.247 80.0927 460.518 80.0927C451.789 80.0927 444.713 87.1675 444.713 95.8947C444.713 104.622 451.789 111.697 460.518 111.697Z" fill="#3B5266"/>
<path d="M449.788 95.8947C449.788 91.6905 452.108 88.2112 455.588 86.3266L455.008 85.4568C451.238 87.4864 448.628 91.4006 448.628 95.8947C448.628 100.389 451.238 104.303 455.008 106.333L455.588 105.463C452.108 103.578 449.788 99.954 449.788 95.8947Z" fill="#76C1AA"/>
<path d="M465.883 85.4568L465.448 86.3266C468.928 88.0663 471.393 91.6905 471.393 95.8947C471.393 100.099 468.928 103.723 465.448 105.463L465.883 106.333C469.653 104.303 472.263 100.389 472.263 95.8947C472.263 91.2556 469.653 87.3414 465.883 85.4568Z" fill="#76C1AA"/>
<path opacity="0.3" d="M460.518 98.2142C461.799 98.2142 462.838 97.1757 462.838 95.8947C462.838 94.6136 461.799 93.5751 460.518 93.5751C459.236 93.5751 458.198 94.6136 458.198 95.8947C458.198 97.1757 459.236 98.2142 460.518 98.2142Z" fill="white"/>
<path opacity="0.3" d="M461.823 94.1552L464.432 91.5456C463.418 90.5308 462.113 89.9509 460.518 89.9509V93.7202C461.098 93.7202 461.533 93.8652 461.823 94.1552Z" fill="white"/>
<path opacity="0.3" d="M462.693 95.7498H466.463C466.463 94.3 465.883 92.8504 464.868 91.8356L462.258 94.445C462.548 94.8799 462.693 95.3148 462.693 95.7498Z" fill="white"/>
<path opacity="0.3" d="M462.113 97.4894L464.723 100.099C465.738 99.0841 466.318 97.7794 466.318 96.3297H462.548C462.548 96.7646 462.403 97.0545 462.113 97.4894Z" fill="white"/>
<path opacity="0.3" d="M459.068 97.6345L456.458 100.244C457.473 101.114 458.633 101.694 460.083 101.694V97.9244C459.648 98.0694 459.358 97.9245 459.068 97.6345Z" fill="white"/>
<path opacity="0.3" d="M460.663 98.0693V101.839C462.113 101.839 463.418 101.259 464.288 100.389L461.678 97.7794C461.388 97.9244 460.953 98.0693 460.663 98.0693Z" fill="white"/>
<path opacity="0.3" d="M458.488 94.5899L455.878 91.9805C455.008 92.9953 454.428 94.3 454.428 95.7498H458.198C458.198 95.3148 458.343 95.0248 458.488 94.5899Z" fill="white"/>
<path opacity="0.3" d="M458.198 96.3297H454.428C454.573 97.7794 455.153 98.9392 456.023 99.954L458.633 97.3444C458.488 97.0545 458.343 96.7646 458.198 96.3297Z" fill="white"/>
<path opacity="0.3" d="M460.083 93.5751V89.8059C458.632 89.9509 457.328 90.5307 456.312 91.4006L458.923 94.0101C459.213 93.8652 459.648 93.7201 460.083 93.5751Z" fill="white"/>
<path d="M460.518 89.0811C460.083 89.0811 459.503 89.081 459.068 89.226C455.878 89.8059 453.558 92.5603 453.558 95.8947C453.558 99.664 456.603 102.708 460.373 102.708C462.258 102.708 463.998 101.984 465.158 100.679C466.463 99.3741 467.188 97.7793 467.188 95.8947C467.333 92.1254 464.288 89.0811 460.518 89.0811ZM462.693 95.7498C462.693 95.3148 462.548 94.8799 462.258 94.445L464.868 91.8356C465.738 92.8504 466.318 94.1551 466.463 95.7498H462.693ZM456.458 100.389L459.068 97.7794C459.358 97.9244 459.648 98.0692 460.083 98.2142V101.984C458.633 101.694 457.473 101.259 456.458 100.389ZM461.823 94.1551C461.533 93.8651 461.098 93.7201 460.518 93.7201V89.9509C461.968 89.9509 463.418 90.5307 464.433 91.5455L461.823 94.1551ZM458.198 95.7498H454.428C454.428 94.3 455.008 92.9953 455.878 91.9805L458.488 94.5899C458.343 95.0248 458.198 95.3148 458.198 95.7498ZM458.198 96.3297C458.343 96.7646 458.488 97.0545 458.633 97.3444L456.023 99.954C455.153 98.9392 454.573 97.7794 454.428 96.3297H458.198ZM460.518 97.7794C459.503 97.7794 458.633 96.9095 458.633 95.8947C458.633 94.8799 459.503 94.0102 460.518 94.0102C461.243 94.0102 461.823 94.445 462.113 95.0249V95.1698C462.258 95.3148 462.258 95.6047 462.258 95.8947C462.258 96.1846 462.258 96.3296 462.113 96.6195C461.823 97.1994 461.243 97.7794 460.518 97.7794ZM460.663 98.0693C461.098 98.0693 461.388 97.9244 461.678 97.7794L464.288 100.389C463.273 101.259 461.968 101.839 460.663 101.839V98.0693ZM460.083 89.9509V93.7201C459.648 93.8651 459.213 94.0101 458.923 94.3L456.313 91.6905C457.183 90.6756 458.633 89.9509 460.083 89.9509ZM464.723 100.099L462.113 97.4893C462.403 97.1994 462.548 96.7646 462.693 96.3297H466.463C466.318 97.7794 465.593 99.0841 464.723 100.099Z" fill="white"/>
<path d="M498.363 111.697C507.091 111.697 514.167 104.622 514.167 95.8947C514.167 87.1675 507.091 80.0927 498.363 80.0927C489.634 80.0927 482.558 87.1675 482.558 95.8947C482.558 104.622 489.634 111.697 498.363 111.697Z" fill="#3B5266"/>
<path d="M487.633 95.8947C487.633 91.6905 489.953 88.2112 493.433 86.3266L492.853 85.4568C489.083 87.4864 486.473 91.4006 486.473 95.8947C486.473 100.389 489.083 104.303 492.853 106.333L493.433 105.463C489.953 103.578 487.633 99.954 487.633 95.8947Z" fill="#76C1AA"/>
<path d="M503.872 85.4568L503.438 86.3266C506.918 88.0663 509.382 91.6905 509.382 95.8947C509.382 100.099 506.918 103.723 503.438 105.463L503.872 106.333C507.642 104.303 510.253 100.389 510.253 95.8947C510.108 91.2556 507.642 87.3414 503.872 85.4568Z" fill="#76C1AA"/>
<path opacity="0.3" d="M498.362 98.2142C499.644 98.2142 500.682 97.1757 500.682 95.8947C500.682 94.6136 499.644 93.5751 498.362 93.5751C497.081 93.5751 496.042 94.6136 496.042 95.8947C496.042 97.1757 497.081 98.2142 498.362 98.2142Z" fill="white"/>
<path opacity="0.3" d="M499.813 94.1552L502.423 91.5456C501.408 90.5308 500.103 89.9509 498.508 89.9509V93.7202C498.943 93.7202 499.378 93.8652 499.813 94.1552Z" fill="white"/>
<path opacity="0.3" d="M500.538 95.7498H504.308C504.308 94.3 503.728 92.8504 502.713 91.8356L500.103 94.445C500.393 94.8799 500.538 95.3148 500.538 95.7498Z" fill="white"/>
<path opacity="0.3" d="M499.958 97.4894L502.568 100.099C503.583 99.0841 504.163 97.7794 504.163 96.3297H500.393C500.538 96.7646 500.248 97.0545 499.958 97.4894Z" fill="white"/>
<path opacity="0.3" d="M496.913 97.6345L494.303 100.244C495.318 101.114 496.478 101.694 497.928 101.694V97.9244C497.638 98.0694 497.203 97.9245 496.913 97.6345Z" fill="white"/>
<path opacity="0.3" d="M498.508 98.0693V101.839C499.958 101.839 501.263 101.259 502.133 100.389L499.523 97.7794C499.233 97.9244 498.943 98.0693 498.508 98.0693Z" fill="white"/>
<path opacity="0.3" d="M496.478 94.5899L493.868 91.9805C492.998 92.9953 492.418 94.3 492.418 95.7498H496.188C496.043 95.3148 496.188 95.0248 496.478 94.5899Z" fill="white"/>
<path opacity="0.3" d="M496.043 96.3297H492.273C492.418 97.7794 492.998 98.9392 493.868 99.954L496.478 97.3444C496.333 97.0545 496.188 96.7646 496.043 96.3297Z" fill="white"/>
<path opacity="0.3" d="M497.928 93.5751V89.8059C496.478 89.9509 495.173 90.5307 494.158 91.4006L496.768 94.0101C497.058 93.8652 497.493 93.7201 497.928 93.5751Z" fill="white"/>
<path d="M498.508 89.0811C498.073 89.0811 497.493 89.081 497.058 89.226C493.868 89.8059 491.548 92.5603 491.548 95.8947C491.548 99.664 494.593 102.708 498.363 102.708C500.248 102.708 501.988 101.984 503.148 100.679C504.453 99.3741 505.178 97.7793 505.178 95.8947C505.178 92.1254 502.133 89.0811 498.508 89.0811ZM500.538 95.7498C500.538 95.3148 500.393 94.8799 500.103 94.445L502.713 91.8356C503.583 92.8504 504.163 94.1551 504.308 95.7498H500.538ZM494.303 100.389L496.913 97.7794C497.203 97.9244 497.493 98.0692 497.928 98.2142V101.984C496.623 101.694 495.318 101.259 494.303 100.389ZM499.813 94.1551C499.523 93.8651 499.088 93.7201 498.508 93.7201V89.9509C499.958 89.9509 501.408 90.5307 502.423 91.5455L499.813 94.1551ZM496.043 95.7498H492.273C492.273 94.3 492.853 92.9953 493.723 91.9805L496.333 94.5899C496.188 95.0248 496.043 95.3148 496.043 95.7498ZM496.043 96.3297C496.188 96.7646 496.333 97.0545 496.478 97.3444L493.868 99.954C492.998 98.9392 492.418 97.7794 492.273 96.3297H496.043ZM498.363 97.7794C497.348 97.7794 496.478 96.9095 496.478 95.8947C496.478 94.8799 497.348 94.0102 498.363 94.0102C499.088 94.0102 499.668 94.445 499.958 95.0249V95.1698C500.103 95.3148 500.103 95.6047 500.103 95.8947C500.103 96.1846 500.103 96.3296 499.958 96.6195C499.813 97.1994 499.088 97.7794 498.363 97.7794ZM498.508 98.0693C498.943 98.0693 499.233 97.9244 499.523 97.7794L502.133 100.389C501.118 101.259 499.813 101.839 498.508 101.839V98.0693ZM497.928 89.9509V93.7201C497.493 93.8651 497.058 94.0101 496.768 94.3L494.158 91.6905C495.173 90.6756 496.478 89.9509 497.928 89.9509ZM502.568 100.099L499.958 97.4893C500.248 97.1994 500.393 96.7646 500.538 96.3297H504.308C504.163 97.7794 503.583 99.0841 502.568 100.099Z" fill="white"/>
<path d="M536.353 111.697C545.082 111.697 552.158 104.622 552.158 95.8947C552.158 87.1675 545.082 80.0927 536.353 80.0927C527.624 80.0927 520.548 87.1675 520.548 95.8947C520.548 104.622 527.624 111.697 536.353 111.697Z" fill="#3B5266"/>
<path d="M525.623 95.8947C525.623 91.6905 527.943 88.2112 531.423 86.3266L530.843 85.4568C527.073 87.4864 524.463 91.4006 524.463 95.8947C524.463 100.389 527.073 104.303 530.843 106.333L531.423 105.463C527.943 103.578 525.623 99.954 525.623 95.8947Z" fill="#76C1AA"/>
<path d="M541.718 85.4568L541.283 86.3266C544.763 88.0663 547.228 91.6905 547.228 95.8947C547.228 100.099 544.763 103.723 541.283 105.463L541.718 106.333C545.488 104.303 548.098 100.389 548.098 95.8947C548.098 91.2556 545.488 87.3414 541.718 85.4568Z" fill="#76C1AA"/>
<path opacity="0.3" d="M536.353 98.2142C537.634 98.2142 538.673 97.1757 538.673 95.8947C538.673 94.6136 537.634 93.5751 536.353 93.5751C535.071 93.5751 534.033 94.6136 534.033 95.8947C534.033 97.1757 535.071 98.2142 536.353 98.2142Z" fill="white"/>
<path opacity="0.3" d="M537.658 94.1552L540.268 91.5456C539.253 90.5308 537.948 89.9509 536.353 89.9509V93.7202C536.933 93.7202 537.368 93.8652 537.658 94.1552Z" fill="white"/>
<path opacity="0.3" d="M538.528 95.7498H542.298C542.298 94.3 541.718 92.8504 540.703 91.8356L538.093 94.445C538.383 94.8799 538.528 95.3148 538.528 95.7498Z" fill="white"/>
<path opacity="0.3" d="M537.948 97.4894L540.558 100.099C541.573 99.0841 542.153 97.7794 542.153 96.3297H538.383C538.383 96.7646 538.238 97.0545 537.948 97.4894Z" fill="white"/>
<path opacity="0.3" d="M534.903 97.6345L532.293 100.244C533.308 101.114 534.468 101.694 535.918 101.694V97.9244C535.483 98.0694 535.193 97.9245 534.903 97.6345Z" fill="white"/>
<path opacity="0.3" d="M536.353 98.0693V101.839C537.803 101.839 539.108 101.259 539.978 100.389L537.368 97.7794C537.223 97.9244 536.788 98.0693 536.353 98.0693Z" fill="white"/>
<path opacity="0.3" d="M534.323 94.5899L531.713 91.9805C530.843 92.9953 530.263 94.3 530.263 95.7498H534.033C534.033 95.3148 534.178 95.0248 534.323 94.5899Z" fill="white"/>
<path opacity="0.3" d="M534.033 96.3297H530.263C530.408 97.7794 530.988 98.9392 531.858 99.954L534.468 97.3444C534.323 97.0545 534.033 96.7646 534.033 96.3297Z" fill="white"/>
<path opacity="0.3" d="M535.918 93.5751V89.8059C534.468 89.9509 533.163 90.5307 532.148 91.4006L534.758 94.0101C535.048 93.8652 535.338 93.7201 535.918 93.5751Z" fill="white"/>
<path d="M536.353 89.0811C535.918 89.0811 535.338 89.081 534.903 89.226C531.713 89.8059 529.393 92.5603 529.393 95.8947C529.393 99.664 532.438 102.708 536.208 102.708C538.093 102.708 539.833 101.984 540.993 100.679C542.298 99.3741 543.023 97.7793 543.023 95.8947C543.168 92.1254 540.123 89.0811 536.353 89.0811ZM538.528 95.7498C538.528 95.3148 538.383 94.8799 538.093 94.445L540.703 91.8356C541.573 92.8504 542.153 94.1551 542.298 95.7498H538.528ZM532.293 100.389L534.903 97.7794C535.193 97.9244 535.483 98.0692 535.918 98.2142V101.984C534.468 101.694 533.163 101.259 532.293 100.389ZM537.658 94.1551C537.368 93.8651 536.933 93.7201 536.353 93.7201V89.9509C537.803 89.9509 539.253 90.5307 540.268 91.5455L537.658 94.1551ZM534.033 95.7498H530.263C530.263 94.3 530.843 92.9953 531.713 91.9805L534.323 94.5899C534.178 95.0248 534.033 95.3148 534.033 95.7498ZM534.033 96.3297C534.178 96.7646 534.323 97.0545 534.468 97.3444L531.858 99.954C530.988 98.9392 530.408 97.7794 530.263 96.3297H534.033ZM536.353 97.7794C535.338 97.7794 534.468 96.9095 534.468 95.8947C534.468 94.8799 535.338 94.0102 536.353 94.0102C537.078 94.0102 537.658 94.445 537.948 95.0249V95.1698C538.093 95.3148 538.093 95.6047 538.093 95.8947C538.093 96.1846 538.093 96.3296 537.948 96.6195C537.658 97.1994 537.078 97.7794 536.353 97.7794ZM536.353 98.0693C536.788 98.0693 537.078 97.9244 537.368 97.7794L539.978 100.389C538.963 101.259 537.658 101.839 536.353 101.839V98.0693ZM535.918 89.9509V93.7201C535.483 93.8651 535.048 94.0101 534.758 94.3L532.148 91.6905C533.018 90.6756 534.323 89.9509 535.918 89.9509ZM540.558 100.099L537.948 97.4893C538.238 97.1994 538.383 96.7646 538.528 96.3297H542.298C542.008 97.7794 541.428 99.0841 540.558 100.099Z" fill="white"/>
<path d="M574.197 111.697C582.926 111.697 590.002 104.622 590.002 95.8947C590.002 87.1675 582.926 80.0927 574.197 80.0927C565.469 80.0927 558.393 87.1675 558.393 95.8947C558.393 104.622 565.469 111.697 574.197 111.697Z" fill="#3B5266"/>
<path d="M563.468 95.8947C563.468 91.6905 565.788 88.2112 569.268 86.3266L568.688 85.4568C564.918 87.4864 562.308 91.4006 562.308 95.8947C562.308 100.389 564.918 104.303 568.688 106.333L569.268 105.463C565.788 103.578 563.468 99.954 563.468 95.8947Z" fill="#76C1AA"/>
<path d="M579.562 85.4568L579.127 86.3266C582.607 88.0663 585.072 91.6905 585.072 95.8947C585.072 100.099 582.607 103.723 579.127 105.463L579.562 106.333C583.332 104.303 585.942 100.389 585.942 95.8947C585.942 91.2556 583.332 87.3414 579.562 85.4568Z" fill="#76C1AA"/>
<path opacity="0.3" d="M574.197 98.2142C575.479 98.2142 576.517 97.1757 576.517 95.8947C576.517 94.6136 575.479 93.5751 574.197 93.5751C572.916 93.5751 571.877 94.6136 571.877 95.8947C571.877 97.1757 572.916 98.2142 574.197 98.2142Z" fill="white"/>
<path opacity="0.3" d="M575.502 94.1552L578.112 91.5456C577.097 90.5308 575.792 89.9509 574.197 89.9509V93.7202C574.777 93.7202 575.212 93.8652 575.502 94.1552Z" fill="white"/>
<path opacity="0.3" d="M576.372 95.7498H580.143C580.143 94.3 579.563 92.8504 578.547 91.8356L575.938 94.445C576.228 94.8799 576.372 95.3148 576.372 95.7498Z" fill="white"/>
<path opacity="0.3" d="M575.792 97.4894L578.402 100.099C579.417 99.0841 579.997 97.7794 579.997 96.3297H576.227C576.227 96.7646 576.082 97.0545 575.792 97.4894Z" fill="white"/>
<path opacity="0.3" d="M572.748 97.6345L570.138 100.244C571.153 101.114 572.313 101.694 573.763 101.694V97.9244C573.473 98.0694 573.038 97.9245 572.748 97.6345Z" fill="white"/>
<path opacity="0.3" d="M574.343 98.0693V101.839C575.793 101.839 577.098 101.259 577.968 100.389L575.358 97.7794C575.068 97.9244 574.633 98.0693 574.343 98.0693Z" fill="white"/>
<path opacity="0.3" d="M572.168 94.5899L569.557 91.9805C568.687 92.9953 568.107 94.3 568.107 95.7498H571.878C571.878 95.3148 572.023 95.0248 572.168 94.5899Z" fill="white"/>
<path opacity="0.3" d="M571.878 96.3297H568.107C568.252 97.7794 568.832 98.9392 569.702 99.954L572.313 97.3444C572.168 97.0545 572.023 96.7646 571.878 96.3297Z" fill="white"/>
<path opacity="0.3" d="M573.763 93.5751V89.8059C572.313 89.9509 571.008 90.5307 569.993 91.4006L572.603 94.0101C572.893 93.8652 573.328 93.7201 573.763 93.5751Z" fill="white"/>
<path d="M574.197 89.0811C573.762 89.0811 573.182 89.081 572.747 89.226C569.557 89.8059 567.237 92.5603 567.237 95.8947C567.237 99.664 570.282 102.708 574.052 102.708C575.937 102.708 577.677 101.984 578.837 100.679C580.142 99.3741 580.867 97.7793 580.867 95.8947C581.012 92.1254 577.967 89.0811 574.197 89.0811ZM576.372 95.7498C576.372 95.3148 576.227 94.8799 575.937 94.445L578.547 91.8356C579.417 92.8504 579.997 94.1551 580.142 95.7498H576.372ZM570.137 100.389L572.747 97.7794C573.037 97.9244 573.327 98.0692 573.762 98.2142V101.984C572.312 101.694 571.152 101.259 570.137 100.389ZM575.502 94.1551C575.212 93.8651 574.777 93.7201 574.197 93.7201V89.9509C575.647 89.9509 577.097 90.5307 578.112 91.5455L575.502 94.1551ZM571.877 95.7498H568.107C568.107 94.3 568.687 92.9953 569.557 91.9805L572.167 94.5899C572.022 95.0248 571.877 95.3148 571.877 95.7498ZM571.877 96.3297C572.022 96.7646 572.167 97.0545 572.312 97.3444L569.702 99.954C568.832 98.9392 568.252 97.7794 568.107 96.3297H571.877ZM574.197 97.7794C573.182 97.7794 572.312 96.9095 572.312 95.8947C572.312 94.8799 573.182 94.0102 574.197 94.0102C574.922 94.0102 575.502 94.445 575.792 95.0249V95.1698C575.937 95.3148 575.937 95.6047 575.937 95.8947C575.937 96.1846 575.937 96.3296 575.792 96.6195C575.647 97.1994 574.922 97.7794 574.197 97.7794ZM574.342 98.0693C574.777 98.0693 575.067 97.9244 575.357 97.7794L577.967 100.389C576.952 101.259 575.647 101.839 574.342 101.839V98.0693ZM573.762 89.9509V93.7201C573.327 93.8651 572.892 94.0101 572.602 94.3L569.992 91.6905C571.007 90.6756 572.312 89.9509 573.762 89.9509ZM578.402 100.099L575.792 97.4893C576.082 97.1994 576.227 96.7646 576.372 96.3297H580.142C579.997 97.7794 579.417 99.0841 578.402 100.099Z" fill="white"/>
<path d="M612.042 111.697C620.771 111.697 627.847 104.622 627.847 95.8947C627.847 87.1675 620.771 80.0927 612.042 80.0927C603.313 80.0927 596.237 87.1675 596.237 95.8947C596.237 104.622 603.313 111.697 612.042 111.697Z" fill="#3B5266"/>
<path d="M601.457 95.8947C601.457 91.6905 603.777 88.2112 607.257 86.3266L606.677 85.4568C602.907 87.4864 600.297 91.4006 600.297 95.8947C600.297 100.389 602.907 104.303 606.677 106.333L607.257 105.463C603.777 103.578 601.457 99.954 601.457 95.8947Z" fill="#76C1AA"/>
<path d="M617.552 85.4568L617.117 86.3266C620.597 88.0663 623.062 91.6905 623.062 95.8947C623.062 100.099 620.597 103.723 617.117 105.463L617.552 106.333C621.322 104.303 623.932 100.389 623.932 95.8947C623.932 91.2556 621.322 87.3414 617.552 85.4568Z" fill="#76C1AA"/>
<path opacity="0.3" d="M612.042 98.2142C613.323 98.2142 614.362 97.1757 614.362 95.8947C614.362 94.6136 613.323 93.5751 612.042 93.5751C610.761 93.5751 609.722 94.6136 609.722 95.8947C609.722 97.1757 610.761 98.2142 612.042 98.2142Z" fill="white"/>
<path opacity="0.3" d="M613.492 94.1552L616.103 91.5456C615.088 90.5308 613.783 89.9509 612.188 89.9509V93.7202C612.768 93.7202 613.202 93.8652 613.492 94.1552Z" fill="white"/>
<path opacity="0.3" d="M614.363 95.7498H618.133C618.133 94.3 617.553 92.8504 616.538 91.8356L613.928 94.445C614.073 94.8799 614.363 95.3148 614.363 95.7498Z" fill="white"/>
<path opacity="0.3" d="M613.783 97.4894L616.393 100.099C617.408 99.0841 617.988 97.7794 617.988 96.3297H614.218C614.218 96.7646 613.928 97.0545 613.783 97.4894Z" fill="white"/>
<path opacity="0.3" d="M610.737 97.6345L608.127 100.244C609.142 101.114 610.302 101.694 611.752 101.694V97.9244C611.317 98.0694 611.027 97.9245 610.737 97.6345Z" fill="white"/>
<path opacity="0.3" d="M612.188 98.0693V101.839C613.637 101.839 614.942 101.259 615.812 100.389L613.203 97.7794C612.913 97.9244 612.622 98.0693 612.188 98.0693Z" fill="white"/>
<path opacity="0.3" d="M610.158 94.5899L607.548 91.9805C606.678 92.9953 606.098 94.3 606.098 95.7498H609.868C609.868 95.3148 609.868 95.0248 610.158 94.5899Z" fill="white"/>
<path opacity="0.3" d="M609.868 96.3297H606.098C606.243 97.7794 606.823 98.9392 607.693 99.954L610.303 97.3444C610.013 97.0545 609.868 96.7646 609.868 96.3297Z" fill="white"/>
<path opacity="0.3" d="M611.608 93.5751V89.8059C610.158 89.9509 608.853 90.5307 607.838 91.4006L610.448 94.0101C610.883 93.8652 611.173 93.7201 611.608 93.5751Z" fill="white"/>
<path d="M612.187 89.0811C611.753 89.0811 611.173 89.081 610.738 89.226C607.548 89.8059 605.228 92.5603 605.228 95.8947C605.228 99.664 608.272 102.708 612.042 102.708C613.927 102.708 615.667 101.984 616.827 100.679C618.132 99.3741 618.857 97.7793 618.857 95.8947C619.002 92.1254 615.957 89.0811 612.187 89.0811ZM614.362 95.7498C614.362 95.3148 614.217 94.8799 613.927 94.445L616.537 91.8356C617.407 92.8504 617.987 94.1551 618.132 95.7498H614.362ZM608.128 100.389L610.738 97.7794C611.028 97.9244 611.318 98.0692 611.753 98.2142V101.984C610.303 101.694 608.998 101.259 608.128 100.389ZM613.492 94.1551C613.202 93.8651 612.767 93.7201 612.187 93.7201V89.9509C613.637 89.9509 615.087 90.5307 616.102 91.5455L613.492 94.1551ZM609.723 95.7498H606.098C606.098 94.3 606.678 92.9953 607.548 91.9805L610.157 94.5899C609.867 95.0248 609.868 95.3148 609.723 95.7498ZM609.867 96.3297C610.012 96.7646 610.158 97.0545 610.303 97.3444L607.693 99.954C606.823 98.9392 606.243 97.7794 606.098 96.3297H609.867ZM612.042 97.7794C611.027 97.7794 610.157 96.9095 610.157 95.8947C610.157 94.8799 611.027 94.0102 612.042 94.0102C612.767 94.0102 613.347 94.445 613.637 95.0249V95.1698C613.782 95.3148 613.782 95.6047 613.782 95.8947C613.782 96.1846 613.782 96.3296 613.637 96.6195C613.492 97.1994 612.912 97.7794 612.042 97.7794ZM612.187 98.0693C612.622 98.0693 612.913 97.9244 613.203 97.7794L615.812 100.389C614.797 101.259 613.492 101.839 612.187 101.839V98.0693ZM611.607 89.9509V93.7201C611.172 93.8651 610.737 94.0101 610.447 94.3L607.838 91.6905C608.853 90.6756 610.157 89.9509 611.607 89.9509ZM616.392 100.099L613.782 97.4893C614.072 97.1994 614.217 96.7646 614.362 96.3297H618.132C617.842 97.7794 617.262 99.0841 616.392 100.099Z" fill="white"/>
<path d="M650.032 111.697C658.761 111.697 665.837 104.622 665.837 95.8947C665.837 87.1675 658.761 80.0927 650.032 80.0927C641.303 80.0927 634.227 87.1675 634.227 95.8947C634.227 104.622 641.303 111.697 650.032 111.697Z" fill="#3B5266"/>
<path d="M639.302 95.8947C639.302 91.6905 641.622 88.2112 645.102 86.3266L644.522 85.4568C640.752 87.4864 638.142 91.4006 638.142 95.8947C638.142 100.389 640.752 104.303 644.522 106.333L645.102 105.463C641.622 103.578 639.302 99.954 639.302 95.8947Z" fill="#76C1AA"/>
<path d="M655.397 85.4568L654.962 86.3266C658.442 88.0663 660.907 91.6905 660.907 95.8947C660.907 100.099 658.442 103.723 654.962 105.463L655.397 106.333C659.167 104.303 661.777 100.389 661.777 95.8947C661.777 91.2556 659.167 87.3414 655.397 85.4568Z" fill="#76C1AA"/>
<path opacity="0.3" d="M650.032 98.2142C651.313 98.2142 652.352 97.1757 652.352 95.8947C652.352 94.6136 651.313 93.5751 650.032 93.5751C648.751 93.5751 647.712 94.6136 647.712 95.8947C647.712 97.1757 648.751 98.2142 650.032 98.2142Z" fill="white"/>
<path opacity="0.3" d="M651.337 94.1552L653.947 91.5456C652.932 90.5308 651.627 89.9509 650.032 89.9509V93.7202C650.612 93.7202 651.047 93.8652 651.337 94.1552Z" fill="white"/>
<path opacity="0.3" d="M652.207 95.7498H655.978C655.978 94.3 655.397 92.8504 654.382 91.8356L651.772 94.445C652.062 94.8799 652.207 95.3148 652.207 95.7498Z" fill="white"/>
<path opacity="0.3" d="M651.627 97.4894L654.237 100.099C655.252 99.0841 655.832 97.7794 655.832 96.3297H652.062C652.062 96.7646 651.917 97.0545 651.627 97.4894Z" fill="white"/>
<path opacity="0.3" d="M648.582 97.6345L645.972 100.244C646.987 101.114 648.147 101.694 649.597 101.694V97.9244C649.162 98.0694 648.872 97.9245 648.582 97.6345Z" fill="white"/>
<path opacity="0.3" d="M650.177 98.0693V101.839C651.627 101.839 652.932 101.259 653.802 100.389L651.192 97.7794C650.902 97.9244 650.467 98.0693 650.177 98.0693Z" fill="white"/>
<path opacity="0.3" d="M648.002 94.5899L645.392 91.9805C644.522 92.9953 643.942 94.3 643.942 95.7498H647.712C647.712 95.3148 647.857 95.0248 648.002 94.5899Z" fill="white"/>
<path opacity="0.3" d="M647.712 96.3297H643.942C644.087 97.7794 644.667 98.9392 645.537 99.954L648.147 97.3444C648.002 97.0545 647.857 96.7646 647.712 96.3297Z" fill="white"/>
<path opacity="0.3" d="M649.597 93.5751V89.8059C648.147 89.9509 646.842 90.5307 645.827 91.4006L648.437 94.0101C648.727 93.8652 649.162 93.7201 649.597 93.5751Z" fill="white"/>
<path d="M650.032 89.0811C649.597 89.0811 649.017 89.081 648.582 89.226C645.392 89.8059 643.072 92.5603 643.072 95.8947C643.072 99.664 646.117 102.708 649.887 102.708C651.772 102.708 653.512 101.984 654.672 100.679C655.977 99.3741 656.702 97.7793 656.702 95.8947C656.847 92.1254 653.802 89.0811 650.032 89.0811ZM652.207 95.7498C652.207 95.3148 652.062 94.8799 651.772 94.445L654.382 91.8356C655.252 92.8504 655.832 94.1551 655.977 95.7498H652.207ZM645.972 100.389L648.582 97.7794C648.872 97.9244 649.162 98.0692 649.597 98.2142V101.984C648.147 101.694 646.987 101.259 645.972 100.389ZM651.337 94.1551C651.047 93.8651 650.612 93.7201 650.032 93.7201V89.9509C651.482 89.9509 652.932 90.5307 653.947 91.5455L651.337 94.1551ZM647.712 95.7498H643.942C643.942 94.3 644.522 92.9953 645.392 91.9805L648.002 94.5899C647.857 95.0248 647.712 95.3148 647.712 95.7498ZM647.712 96.3297C647.857 96.7646 648.002 97.0545 648.147 97.3444L645.537 99.954C644.667 98.9392 644.087 97.7794 643.942 96.3297H647.712ZM650.032 97.7794C649.017 97.7794 648.147 96.9095 648.147 95.8947C648.147 94.8799 649.017 94.0102 650.032 94.0102C650.757 94.0102 651.337 94.445 651.627 95.0249V95.1698C651.772 95.3148 651.772 95.6047 651.772 95.8947C651.772 96.1846 651.772 96.3296 651.627 96.6195C651.482 97.1994 650.757 97.7794 650.032 97.7794ZM650.177 98.0693C650.612 98.0693 650.902 97.9244 651.192 97.7794L653.802 100.389C652.787 101.259 651.482 101.839 650.177 101.839V98.0693ZM649.597 89.9509V93.7201C649.162 93.8651 648.727 94.0101 648.437 94.3L645.827 91.6905C646.842 90.6756 648.147 89.9509 649.597 89.9509ZM654.237 100.099L651.627 97.4893C651.917 97.1994 652.062 96.7646 652.207 96.3297H655.977C655.832 97.7794 655.252 99.0841 654.237 100.099Z" fill="white"/>
<path d="M687.877 111.697C696.606 111.697 703.682 104.622 703.682 95.8947C703.682 87.1675 696.606 80.0927 687.877 80.0927C679.148 80.0927 672.072 87.1675 672.072 95.8947C672.072 104.622 679.148 111.697 687.877 111.697Z" fill="#3B5266"/>
<path d="M677.147 95.8947C677.147 91.6905 679.467 88.2112 682.947 86.3266L682.367 85.4568C678.597 87.4864 675.987 91.4006 675.987 95.8947C675.987 100.389 678.597 104.303 682.367 106.333L682.947 105.463C679.612 103.578 677.147 99.954 677.147 95.8947Z" fill="#76C1AA"/>
<path d="M693.387 85.4568L692.952 86.3266C696.432 88.0663 698.897 91.6905 698.897 95.8947C698.897 100.099 696.432 103.723 692.952 105.463L693.387 106.333C697.157 104.303 699.767 100.389 699.767 95.8947C699.622 91.2556 697.157 87.3414 693.387 85.4568Z" fill="#76C1AA"/>
<path opacity="0.3" d="M687.877 98.2142C689.158 98.2142 690.197 97.1757 690.197 95.8947C690.197 94.6136 689.158 93.5751 687.877 93.5751C686.596 93.5751 685.557 94.6136 685.557 95.8947C685.557 97.1757 686.596 98.2142 687.877 98.2142Z" fill="white"/>
<path opacity="0.3" d="M689.327 94.1552L691.936 91.5456C690.921 90.5308 689.616 89.9509 688.021 89.9509V93.7202C688.456 93.7202 688.892 93.8652 689.327 94.1552Z" fill="white"/>
<path opacity="0.3" d="M690.197 95.7498H693.967C693.967 94.3 693.387 92.8504 692.372 91.8356L689.762 94.445C689.907 94.8799 690.052 95.3148 690.197 95.7498Z" fill="white"/>
<path opacity="0.3" d="M689.472 97.4894L692.082 100.099C693.097 99.0841 693.677 97.7794 693.677 96.3297H689.907C690.052 96.7646 689.762 97.0545 689.472 97.4894Z" fill="white"/>
<path opacity="0.3" d="M686.572 97.6345L683.962 100.244C684.977 101.114 686.137 101.694 687.587 101.694V97.9244C687.152 98.0694 686.862 97.9245 686.572 97.6345Z" fill="white"/>
<path opacity="0.3" d="M688.021 98.0693V101.839C689.472 101.839 690.777 101.259 691.647 100.389L689.037 97.7794C688.747 97.9244 688.456 98.0693 688.021 98.0693Z" fill="white"/>
<path opacity="0.3" d="M685.992 94.5899L683.382 91.9805C682.512 92.9953 681.932 94.3 681.932 95.7498H685.702C685.557 95.3148 685.702 95.0248 685.992 94.5899Z" fill="white"/>
<path opacity="0.3" d="M685.702 96.3297H681.932C682.077 97.7794 682.657 98.9392 683.527 99.954L686.137 97.3444C685.847 97.0545 685.702 96.7646 685.702 96.3297Z" fill="white"/>
<path opacity="0.3" d="M687.442 93.5751V89.8059C685.992 89.9509 684.687 90.5307 683.672 91.4006L686.282 94.0101C686.572 93.8652 687.007 93.7201 687.442 93.5751Z" fill="white"/>
<path d="M688.022 89.0811C687.587 89.0811 687.007 89.081 686.572 89.226C683.382 89.8059 681.062 92.5603 681.062 95.8947C681.062 99.664 684.107 102.708 687.877 102.708C689.762 102.708 691.502 101.984 692.662 100.679C693.967 99.3741 694.692 97.7793 694.692 95.8947C694.837 92.1254 691.792 89.0811 688.022 89.0811ZM690.197 95.7498C690.197 95.3148 690.052 94.8799 689.762 94.445L692.372 91.8356C693.242 92.8504 693.822 94.1551 693.967 95.7498H690.197ZM683.817 100.389L686.427 97.7794C686.717 97.9244 687.007 98.0692 687.442 98.2142V101.984C686.137 101.694 684.832 101.259 683.817 100.389ZM689.327 94.1551C689.037 93.8651 688.602 93.7201 688.022 93.7201V89.9509C689.472 89.9509 690.922 90.5307 691.937 91.5455L689.327 94.1551ZM685.557 95.7498H681.787C681.787 94.3 682.367 92.9953 683.237 91.9805L685.847 94.5899C685.702 95.0248 685.557 95.3148 685.557 95.7498ZM685.702 96.3297C685.847 96.7646 685.992 97.0545 686.137 97.3444L683.527 99.954C682.657 98.9392 682.077 97.7794 681.932 96.3297H685.702ZM687.877 97.7794C686.862 97.7794 685.992 96.9095 685.992 95.8947C685.992 94.8799 686.862 94.0102 687.877 94.0102C688.602 94.0102 689.182 94.445 689.472 95.0249V95.1698C689.617 95.3148 689.617 95.6047 689.617 95.8947C689.617 96.1846 689.617 96.3296 689.472 96.6195C689.327 97.1994 688.747 97.7794 687.877 97.7794ZM688.022 98.0693C688.457 98.0693 688.747 97.9244 689.037 97.7794L691.647 100.389C690.632 101.259 689.327 101.839 688.022 101.839V98.0693ZM687.442 89.9509V93.7201C687.007 93.8651 686.572 94.0101 686.282 94.3L683.672 91.6905C684.687 90.6756 685.992 89.9509 687.442 89.9509ZM692.227 100.099L689.617 97.4893C689.907 97.1994 690.052 96.7646 690.197 96.3297H693.967C693.677 97.7794 693.097 99.0841 692.227 100.099Z" fill="white"/>
<path d="M725.867 111.697C734.596 111.697 741.672 104.622 741.672 95.8947C741.672 87.1675 734.596 80.0927 725.867 80.0927C717.138 80.0927 710.062 87.1675 710.062 95.8947C710.062 104.622 717.138 111.697 725.867 111.697Z" fill="#3B5266"/>
<path d="M715.137 95.8947C715.137 91.6905 717.457 88.2112 720.937 86.3266L720.357 85.4568C716.587 87.4864 713.977 91.4006 713.977 95.8947C713.977 100.389 716.587 104.303 720.357 106.333L720.937 105.463C717.457 103.578 715.137 99.954 715.137 95.8947Z" fill="#76C1AA"/>
<path d="M731.232 85.4568L730.797 86.3266C734.277 88.0663 736.742 91.6905 736.742 95.8947C736.742 100.099 734.277 103.723 730.797 105.463L731.232 106.333C735.002 104.303 737.612 100.389 737.612 95.8947C737.612 91.2556 735.002 87.3414 731.232 85.4568Z" fill="#76C1AA"/>
<path opacity="0.3" d="M725.867 98.2142C727.148 98.2142 728.187 97.1757 728.187 95.8947C728.187 94.6136 727.148 93.5751 725.867 93.5751C724.586 93.5751 723.547 94.6136 723.547 95.8947C723.547 97.1757 724.586 98.2142 725.867 98.2142Z" fill="white"/>
<path opacity="0.3" d="M727.172 94.1552L729.782 91.5456C728.767 90.5308 727.462 89.9509 725.867 89.9509V93.7202C726.447 93.7202 726.882 93.8652 727.172 94.1552Z" fill="white"/>
<path opacity="0.3" d="M728.041 95.7498H731.812C731.812 94.3 731.232 92.8504 730.216 91.8356L727.606 94.445C727.896 94.8799 728.041 95.3148 728.041 95.7498Z" fill="white"/>
<path opacity="0.3" d="M727.462 97.4894L730.072 100.099C731.087 99.0841 731.667 97.7794 731.667 96.3297H727.897C727.897 96.7646 727.752 97.0545 727.462 97.4894Z" fill="white"/>
<path opacity="0.3" d="M724.417 97.6345L721.807 100.244C722.822 101.114 723.982 101.694 725.432 101.694V97.9244C724.997 98.0694 724.707 97.9245 724.417 97.6345Z" fill="white"/>
<path opacity="0.3" d="M726.012 98.0693V101.839C727.462 101.839 728.767 101.259 729.637 100.389L727.027 97.7794C726.737 97.9244 726.302 98.0693 726.012 98.0693Z" fill="white"/>
<path opacity="0.3" d="M723.837 94.5899L721.227 91.9805C720.357 92.9953 719.777 94.3 719.777 95.7498H723.547C723.547 95.3148 723.692 95.0248 723.837 94.5899Z" fill="white"/>
<path opacity="0.3" d="M723.547 96.3297H719.777C719.922 97.7794 720.502 98.9392 721.372 99.954L723.982 97.3444C723.837 97.0545 723.692 96.7646 723.547 96.3297Z" fill="white"/>
<path opacity="0.3" d="M725.432 93.5751V89.8059C723.982 89.9509 722.677 90.5307 721.662 91.4006L724.272 94.0101C724.562 93.8652 724.997 93.7201 725.432 93.5751Z" fill="white"/>
<path d="M725.867 89.0811C725.432 89.0811 724.852 89.081 724.417 89.226C721.227 89.8059 718.907 92.5603 718.907 95.8947C718.907 99.664 721.952 102.708 725.722 102.708C727.607 102.708 729.347 101.984 730.507 100.679C731.812 99.3741 732.537 97.7793 732.537 95.8947C732.682 92.1254 729.637 89.0811 725.867 89.0811ZM728.042 95.7498C728.042 95.3148 727.897 94.8799 727.607 94.445L730.217 91.8356C731.087 92.8504 731.667 94.1551 731.812 95.7498H728.042ZM721.807 100.389L724.417 97.7794C724.707 97.9244 724.997 98.0692 725.432 98.2142V101.984C723.982 101.694 722.822 101.259 721.807 100.389ZM727.172 94.1551C726.882 93.8651 726.447 93.7201 725.867 93.7201V89.9509C727.317 89.9509 728.767 90.5307 729.782 91.5455L727.172 94.1551ZM723.547 95.7498H719.777C719.777 94.3 720.357 92.9953 721.227 91.9805L723.837 94.5899C723.692 95.0248 723.547 95.3148 723.547 95.7498ZM723.547 96.3297C723.692 96.7646 723.837 97.0545 723.982 97.3444L721.372 99.954C720.502 98.9392 719.922 97.7794 719.777 96.3297H723.547ZM725.867 97.7794C724.852 97.7794 723.982 96.9095 723.982 95.8947C723.982 94.8799 724.852 94.0102 725.867 94.0102C726.592 94.0102 727.172 94.445 727.462 95.0249V95.1698C727.607 95.3148 727.607 95.6047 727.607 95.8947C727.607 96.1846 727.607 96.3296 727.462 96.6195C727.172 97.1994 726.592 97.7794 725.867 97.7794ZM726.012 98.0693C726.447 98.0693 726.737 97.9244 727.027 97.7794L729.637 100.389C728.622 101.259 727.317 101.839 726.012 101.839V98.0693ZM725.432 89.9509V93.7201C724.997 93.8651 724.562 94.0101 724.272 94.3L721.662 91.6905C722.532 90.6756 723.982 89.9509 725.432 89.9509ZM730.072 100.099L727.462 97.4893C727.752 97.1994 727.897 96.7646 728.042 96.3297H731.812C731.667 97.7794 731.087 99.0841 730.072 100.099Z" fill="white"/>
<path d="M763.712 111.697C772.44 111.697 779.517 104.622 779.517 95.8947C779.517 87.1675 772.44 80.0927 763.712 80.0927C754.983 80.0927 747.907 87.1675 747.907 95.8947C747.907 104.622 754.983 111.697 763.712 111.697Z" fill="#3B5266"/>
<path d="M752.982 95.8947C752.982 91.6905 755.302 88.2112 758.782 86.3266L758.202 85.4568C754.432 87.4864 751.822 91.4006 751.822 95.8947C751.822 100.389 754.432 104.303 758.202 106.333L758.782 105.463C755.302 103.578 752.982 99.954 752.982 95.8947Z" fill="#76C1AA"/>
<path d="M769.222 85.4568L768.787 86.3266C772.267 88.0663 774.732 91.6905 774.732 95.8947C774.732 100.099 772.267 103.723 768.787 105.463L769.222 106.333C772.992 104.303 775.602 100.389 775.602 95.8947C775.457 91.2556 772.992 87.3414 769.222 85.4568Z" fill="#76C1AA"/>
<path opacity="0.3" d="M763.712 98.2142C764.993 98.2142 766.032 97.1757 766.032 95.8947C766.032 94.6136 764.993 93.5751 763.712 93.5751C762.43 93.5751 761.392 94.6136 761.392 95.8947C761.392 97.1757 762.43 98.2142 763.712 98.2142Z" fill="white"/>
<path opacity="0.3" d="M765.162 94.1552L767.772 91.5456C766.757 90.5308 765.452 89.9509 763.857 89.9509V93.7202C764.292 93.7202 764.727 93.8652 765.162 94.1552Z" fill="white"/>
<path opacity="0.3" d="M765.887 95.7498H769.657C769.657 94.3 769.077 92.8504 768.062 91.8356L765.452 94.445C765.742 94.8799 765.887 95.3148 765.887 95.7498Z" fill="white"/>
<path opacity="0.3" d="M765.307 97.4894L767.917 100.099C768.932 99.0841 769.512 97.7794 769.512 96.3297H765.742C765.887 96.7646 765.597 97.0545 765.307 97.4894Z" fill="white"/>
<path opacity="0.3" d="M762.262 97.6345L759.652 100.244C760.667 101.114 761.827 101.694 763.277 101.694V97.9244C762.987 98.0694 762.552 97.9245 762.262 97.6345Z" fill="white"/>
<path opacity="0.3" d="M763.857 98.0693V101.839C765.307 101.839 766.612 101.259 767.482 100.389L764.872 97.7794C764.582 97.9244 764.292 98.0693 763.857 98.0693Z" fill="white"/>
<path opacity="0.3" d="M761.827 94.5899L759.217 91.9805C758.347 92.9953 757.767 94.3 757.767 95.7498H761.537C761.392 95.3148 761.537 95.0248 761.827 94.5899Z" fill="white"/>
<path opacity="0.3" d="M761.392 96.3297H757.622C757.767 97.7794 758.347 98.9392 759.217 99.954L761.827 97.3444C761.682 97.0545 761.537 96.7646 761.392 96.3297Z" fill="white"/>
<path opacity="0.3" d="M763.277 93.5751V89.8059C761.827 89.9509 760.522 90.5307 759.507 91.4006L762.117 94.0101C762.407 93.8652 762.842 93.7201 763.277 93.5751Z" fill="white"/>
<path d="M763.857 89.0811C763.422 89.0811 762.842 89.081 762.407 89.226C759.217 89.8059 756.897 92.5603 756.897 95.8947C756.897 99.664 759.942 102.708 763.712 102.708C765.597 102.708 767.337 101.984 768.497 100.679C769.802 99.3741 770.527 97.7793 770.527 95.8947C770.527 92.1254 767.627 89.0811 763.857 89.0811ZM765.887 95.7498C765.887 95.3148 765.742 94.8799 765.452 94.445L768.062 91.8356C768.932 92.8504 769.512 94.1551 769.657 95.7498H765.887ZM759.652 100.389L762.262 97.7794C762.552 97.9244 762.842 98.0692 763.277 98.2142V101.984C761.972 101.694 760.667 101.259 759.652 100.389ZM765.162 94.1551C764.872 93.8651 764.437 93.7201 763.857 93.7201V89.9509C765.307 89.9509 766.757 90.5307 767.772 91.5455L765.162 94.1551ZM761.392 95.7498H757.622C757.622 94.3 758.202 92.9953 759.072 91.9805L761.682 94.5899C761.537 95.0248 761.392 95.3148 761.392 95.7498ZM761.392 96.3297C761.537 96.7646 761.682 97.0545 761.827 97.3444L759.217 99.954C758.347 98.9392 757.767 97.7794 757.622 96.3297H761.392ZM763.712 97.7794C762.697 97.7794 761.827 96.9095 761.827 95.8947C761.827 94.8799 762.697 94.0102 763.712 94.0102C764.437 94.0102 765.017 94.445 765.307 95.0249V95.1698C765.452 95.3148 765.452 95.6047 765.452 95.8947C765.452 96.1846 765.452 96.3296 765.307 96.6195C765.162 97.1994 764.437 97.7794 763.712 97.7794ZM763.857 98.0693C764.292 98.0693 764.582 97.9244 764.872 97.7794L767.482 100.389C766.467 101.259 765.162 101.839 763.857 101.839V98.0693ZM763.277 89.9509V93.7201C762.842 93.8651 762.407 94.0101 762.117 94.3L759.507 91.6905C760.522 90.6756 761.827 89.9509 763.277 89.9509ZM767.917 100.099L765.307 97.4893C765.597 97.1994 765.742 96.7646 765.887 96.3297H769.657C769.512 97.7794 768.932 99.0841 767.917 100.099Z" fill="white"/>
<path d="M801.701 111.697C810.43 111.697 817.506 104.622 817.506 95.8947C817.506 87.1675 810.43 80.0927 801.701 80.0927C792.973 80.0927 785.896 87.1675 785.896 95.8947C785.896 104.622 792.973 111.697 801.701 111.697Z" fill="#3B5266"/>
<path d="M790.972 95.8947C790.972 91.6905 793.291 88.2112 796.771 86.3266L796.191 85.4568C792.421 87.4864 789.812 91.4006 789.812 95.8947C789.812 100.389 792.421 104.303 796.191 106.333L796.771 105.463C793.291 103.578 790.972 99.954 790.972 95.8947Z" fill="#76C1AA"/>
<path d="M807.066 85.4568L806.631 86.3266C810.111 88.0663 812.576 91.6905 812.576 95.8947C812.576 100.099 810.111 103.723 806.631 105.463L807.066 106.333C810.836 104.303 813.446 100.389 813.446 95.8947C813.446 91.2556 810.836 87.3414 807.066 85.4568Z" fill="#76C1AA"/>
<path opacity="0.3" d="M801.701 98.2142C802.983 98.2142 804.021 97.1757 804.021 95.8947C804.021 94.6136 802.983 93.5751 801.701 93.5751C800.42 93.5751 799.381 94.6136 799.381 95.8947C799.381 97.1757 800.42 98.2142 801.701 98.2142Z" fill="white"/>
<path opacity="0.3" d="M803.006 94.1552L805.616 91.5456C804.601 90.5308 803.296 89.9509 801.701 89.9509V93.7202C802.281 93.7202 802.716 93.8652 803.006 94.1552Z" fill="white"/>
<path opacity="0.3" d="M803.876 95.7498H807.646C807.646 94.3 807.066 92.8504 806.051 91.8356L803.441 94.445C803.731 94.8799 803.876 95.3148 803.876 95.7498Z" fill="white"/>
<path opacity="0.3" d="M803.296 97.4894L805.906 100.099C806.921 99.0841 807.501 97.7794 807.501 96.3297H803.731C803.731 96.7646 803.586 97.0545 803.296 97.4894Z" fill="white"/>
<path opacity="0.3" d="M800.251 97.6345L797.641 100.244C798.656 101.114 799.816 101.694 801.266 101.694V97.9244C800.831 98.0694 800.541 97.9245 800.251 97.6345Z" fill="white"/>
<path opacity="0.3" d="M801.701 98.0693V101.839C803.151 101.839 804.456 101.259 805.326 100.389L802.716 97.7794C802.571 97.9244 802.136 98.0693 801.701 98.0693Z" fill="white"/>
<path opacity="0.3" d="M799.671 94.5899L797.061 91.9805C796.191 92.9953 795.611 94.3 795.611 95.7498H799.381C799.381 95.3148 799.526 95.0248 799.671 94.5899Z" fill="white"/>
<path opacity="0.3" d="M799.381 96.3297H795.611C795.756 97.7794 796.336 98.9392 797.206 99.954L799.816 97.3444C799.671 97.0545 799.381 96.7646 799.381 96.3297Z" fill="white"/>
<path opacity="0.3" d="M801.266 93.5751V89.8059C799.816 89.9509 798.511 90.5307 797.496 91.4006L800.106 94.0101C800.396 93.8652 800.831 93.7201 801.266 93.5751Z" fill="white"/>
<path d="M801.701 89.0811C801.266 89.0811 800.686 89.081 800.251 89.226C797.061 89.8059 794.741 92.5603 794.741 95.8947C794.741 99.664 797.786 102.708 801.556 102.708C803.441 102.708 805.181 101.984 806.341 100.679C807.646 99.3741 808.371 97.7793 808.371 95.8947C808.516 92.1254 805.471 89.0811 801.701 89.0811ZM803.876 95.7498C803.876 95.3148 803.731 94.8799 803.441 94.445L806.051 91.8356C806.921 92.8504 807.501 94.1551 807.646 95.7498H803.876ZM797.641 100.389L800.251 97.7794C800.541 97.9244 800.831 98.0692 801.266 98.2142V101.984C799.816 101.694 798.511 101.259 797.641 100.389ZM803.006 94.1551C802.716 93.8651 802.281 93.7201 801.701 93.7201V89.9509C803.151 89.9509 804.601 90.5307 805.616 91.5455L803.006 94.1551ZM799.381 95.7498H795.611C795.611 94.3 796.191 92.9953 797.061 91.9805L799.671 94.5899C799.526 95.0248 799.381 95.3148 799.381 95.7498ZM799.381 96.3297C799.526 96.7646 799.671 97.0545 799.816 97.3444L797.206 99.954C796.336 98.9392 795.756 97.7794 795.611 96.3297H799.381ZM801.701 97.7794C800.686 97.7794 799.816 96.9095 799.816 95.8947C799.816 94.8799 800.686 94.0102 801.701 94.0102C802.426 94.0102 803.006 94.445 803.296 95.0249V95.1698C803.441 95.3148 803.441 95.6047 803.441 95.8947C803.441 96.1846 803.441 96.3296 803.296 96.6195C803.006 97.1994 802.426 97.7794 801.701 97.7794ZM801.701 98.0693C802.136 98.0693 802.426 97.9244 802.716 97.7794L805.326 100.389C804.311 101.259 803.006 101.839 801.701 101.839V98.0693ZM801.266 89.9509V93.7201C800.831 93.8651 800.396 94.0101 800.106 94.3L797.496 91.6905C798.366 90.6756 799.671 89.9509 801.266 89.9509ZM805.906 100.099L803.296 97.4893C803.586 97.1994 803.731 96.7646 803.876 96.3297H807.646C807.501 97.7794 806.776 99.0841 805.906 100.099Z" fill="white"/>
<path d="M839.546 111.697C848.275 111.697 855.351 104.622 855.351 95.8947C855.351 87.1675 848.275 80.0927 839.546 80.0927C830.817 80.0927 823.741 87.1675 823.741 95.8947C823.741 104.622 830.817 111.697 839.546 111.697Z" fill="#3B5266"/>
<path d="M828.816 95.8947C828.816 91.6905 831.136 88.2112 834.616 86.3266L834.036 85.4568C830.266 87.4864 827.656 91.4006 827.656 95.8947C827.656 100.389 830.266 104.303 834.036 106.333L834.616 105.463C831.136 103.578 828.816 99.954 828.816 95.8947Z" fill="#76C1AA"/>
<path d="M844.911 85.4568L844.476 86.3266C847.956 88.0663 850.421 91.6905 850.421 95.8947C850.421 100.099 847.956 103.723 844.476 105.463L844.911 106.333C848.681 104.303 851.291 100.389 851.291 95.8947C851.291 91.2556 848.681 87.3414 844.911 85.4568Z" fill="#76C1AA"/>
<path opacity="0.3" d="M839.546 98.2142C840.827 98.2142 841.866 97.1757 841.866 95.8947C841.866 94.6136 840.827 93.5751 839.546 93.5751C838.265 93.5751 837.226 94.6136 837.226 95.8947C837.226 97.1757 838.265 98.2142 839.546 98.2142Z" fill="white"/>
<path opacity="0.3" d="M840.996 94.1552L843.606 91.5456C842.591 90.5308 841.286 89.9509 839.691 89.9509V93.7202C840.126 93.7202 840.561 93.8652 840.996 94.1552Z" fill="white"/>
<path opacity="0.3" d="M841.721 95.7498H845.491C845.491 94.3 844.911 92.8504 843.896 91.8356L841.286 94.445C841.576 94.8799 841.721 95.3148 841.721 95.7498Z" fill="white"/>
<path opacity="0.3" d="M841.141 97.4894L843.751 100.099C844.766 99.0841 845.346 97.7794 845.346 96.3297H841.576C841.576 96.7646 841.431 97.0545 841.141 97.4894Z" fill="white"/>
<path opacity="0.3" d="M838.096 97.6345L835.486 100.244C836.501 101.114 837.661 101.694 839.111 101.694V97.9244C838.821 98.0694 838.386 97.9245 838.096 97.6345Z" fill="white"/>
<path opacity="0.3" d="M839.691 98.0693V101.839C841.141 101.839 842.446 101.259 843.316 100.389L840.706 97.7794C840.416 97.9244 840.126 98.0693 839.691 98.0693Z" fill="white"/>
<path opacity="0.3" d="M837.661 94.5899L835.051 91.9805C834.181 92.9953 833.601 94.3 833.601 95.7498H837.371C837.226 95.3148 837.371 95.0248 837.661 94.5899Z" fill="white"/>
<path opacity="0.3" d="M837.226 96.3297H833.456C833.601 97.7794 834.181 98.9392 835.051 99.954L837.661 97.3444C837.516 97.0545 837.371 96.7646 837.226 96.3297Z" fill="white"/>
<path opacity="0.3" d="M839.111 93.5751V89.8059C837.661 89.9509 836.356 90.5307 835.341 91.4006L837.951 94.0101C838.241 93.8652 838.676 93.7201 839.111 93.5751Z" fill="white"/>
<path d="M839.691 89.0811C839.256 89.0811 838.676 89.081 838.241 89.226C835.051 89.8059 832.731 92.5603 832.731 95.8947C832.731 99.664 835.776 102.708 839.546 102.708C841.431 102.708 843.171 101.984 844.331 100.679C845.636 99.3741 846.361 97.7793 846.361 95.8947C846.361 92.1254 843.316 89.0811 839.691 89.0811ZM841.721 95.7498C841.721 95.3148 841.576 94.8799 841.286 94.445L843.896 91.8356C844.766 92.8504 845.346 94.1551 845.491 95.7498H841.721ZM835.486 100.389L838.096 97.7794C838.386 97.9244 838.676 98.0692 839.111 98.2142V101.984C837.661 101.694 836.501 101.259 835.486 100.389ZM840.996 94.1551C840.706 93.8651 840.271 93.7201 839.691 93.7201V89.9509C841.141 89.9509 842.591 90.5307 843.606 91.5455L840.996 94.1551ZM837.226 95.7498H833.456C833.456 94.3 834.036 92.9953 834.906 91.9805L837.516 94.5899C837.371 95.0248 837.226 95.3148 837.226 95.7498ZM837.226 96.3297C837.371 96.7646 837.516 97.0545 837.661 97.3444L835.051 99.954C834.181 98.9392 833.601 97.7794 833.456 96.3297H837.226ZM839.546 97.7794C838.531 97.7794 837.661 96.9095 837.661 95.8947C837.661 94.8799 838.531 94.0102 839.546 94.0102C840.271 94.0102 840.851 94.445 841.141 95.0249V95.1698C841.286 95.3148 841.286 95.6047 841.286 95.8947C841.286 96.1846 841.286 96.3296 841.141 96.6195C840.996 97.1994 840.271 97.7794 839.546 97.7794ZM839.691 98.0693C840.126 98.0693 840.416 97.9244 840.706 97.7794L843.316 100.389C842.301 101.259 840.996 101.839 839.691 101.839V98.0693ZM839.111 89.9509V93.7201C838.676 93.8651 838.241 94.0101 837.951 94.3L835.341 91.6905C836.356 90.6756 837.661 89.9509 839.111 89.9509ZM843.751 100.099L841.141 97.4893C841.431 97.1994 841.576 96.7646 841.721 96.3297H845.491C845.346 97.7794 844.766 99.0841 843.751 100.099Z" fill="white"/>
<path d="M877.391 111.697C886.12 111.697 893.196 104.622 893.196 95.8947C893.196 87.1675 886.12 80.0927 877.391 80.0927C868.662 80.0927 861.586 87.1675 861.586 95.8947C861.586 104.622 868.662 111.697 877.391 111.697Z" fill="#3B5266"/>
<path d="M866.806 95.8947C866.806 91.6905 869.126 88.2112 872.607 86.3266L872.027 85.4568C868.257 87.4864 865.646 91.4006 865.646 95.8947C865.646 100.389 868.257 104.303 872.027 106.333L872.607 105.463C869.126 103.578 866.806 99.954 866.806 95.8947Z" fill="#76C1AA"/>
<path d="M882.901 85.4568L882.466 86.3266C885.946 88.0663 888.411 91.6905 888.411 95.8947C888.411 100.099 885.946 103.723 882.466 105.463L882.901 106.333C886.671 104.303 889.281 100.389 889.281 95.8947C889.281 91.2556 886.671 87.3414 882.901 85.4568Z" fill="#76C1AA"/>
<path opacity="0.3" d="M877.391 98.2142C878.673 98.2142 879.711 97.1757 879.711 95.8947C879.711 94.6136 878.673 93.5751 877.391 93.5751C876.11 93.5751 875.071 94.6136 875.071 95.8947C875.071 97.1757 876.11 98.2142 877.391 98.2142Z" fill="white"/>
<path opacity="0.3" d="M878.842 94.1552L881.452 91.5456C880.437 90.5308 879.132 89.9509 877.537 89.9509V93.7202C878.117 93.7202 878.552 93.8652 878.842 94.1552Z" fill="white"/>
<path opacity="0.3" d="M879.712 95.7498H883.482C883.482 94.3 882.902 92.8504 881.887 91.8356L879.277 94.445C879.422 94.8799 879.712 95.3148 879.712 95.7498Z" fill="white"/>
<path opacity="0.3" d="M879.132 97.4894L881.742 100.099C882.757 99.0841 883.337 97.7794 883.337 96.3297H879.567C879.567 96.7646 879.277 97.0545 879.132 97.4894Z" fill="white"/>
<path opacity="0.3" d="M876.087 97.6345L873.477 100.244C874.492 101.114 875.652 101.694 877.102 101.694V97.9244C876.667 98.0694 876.377 97.9245 876.087 97.6345Z" fill="white"/>
<path opacity="0.3" d="M877.537 98.0693V101.839C878.987 101.839 880.292 101.259 881.162 100.389L878.552 97.7794C878.262 97.9244 877.972 98.0693 877.537 98.0693Z" fill="white"/>
<path opacity="0.3" d="M875.507 94.5899L872.897 91.9805C872.027 92.9953 871.447 94.3 871.447 95.7498H875.217C875.217 95.3148 875.362 95.0248 875.507 94.5899Z" fill="white"/>
<path opacity="0.3" d="M875.217 96.3297H871.447C871.592 97.7794 872.172 98.9392 873.042 99.954L875.652 97.3444C875.362 97.0545 875.217 96.7646 875.217 96.3297Z" fill="white"/>
<path opacity="0.3" d="M876.956 93.5751V89.8059C875.506 89.9509 874.202 90.5307 873.187 91.4006L875.797 94.0101C876.232 93.8652 876.521 93.7201 876.956 93.5751Z" fill="white"/>
<path d="M877.537 89.0811C877.102 89.0811 876.522 89.081 876.087 89.226C872.897 89.8059 870.577 92.5603 870.577 95.8947C870.577 99.664 873.622 102.708 877.392 102.708C879.276 102.708 881.017 101.984 882.177 100.679C883.482 99.3741 884.206 97.7793 884.206 95.8947C884.351 92.1254 881.307 89.0811 877.537 89.0811ZM879.712 95.7498C879.712 95.3148 879.567 94.8799 879.277 94.445L881.887 91.8356C882.757 92.8504 883.336 94.1551 883.481 95.7498H879.712ZM873.477 100.389L876.087 97.7794C876.377 97.9244 876.667 98.0692 877.102 98.2142V101.984C875.652 101.694 874.347 101.259 873.477 100.389ZM878.841 94.1551C878.551 93.8651 878.117 93.7201 877.537 93.7201V89.9509C878.987 89.9509 880.437 90.5307 881.452 91.5455L878.841 94.1551ZM875.217 95.7498H871.447C871.447 94.3 872.027 92.9953 872.897 91.9805L875.507 94.5899C875.362 95.0248 875.217 95.3148 875.217 95.7498ZM875.217 96.3297C875.362 96.7646 875.507 97.0545 875.652 97.3444L873.042 99.954C872.172 98.9392 871.592 97.7794 871.447 96.3297H875.217ZM877.392 97.7794C876.377 97.7794 875.507 96.9095 875.507 95.8947C875.507 94.8799 876.377 94.0102 877.392 94.0102C878.117 94.0102 878.697 94.445 878.987 95.0249V95.1698C879.132 95.3148 879.132 95.6047 879.132 95.8947C879.132 96.1846 879.132 96.3296 878.987 96.6195C878.842 97.1994 878.262 97.7794 877.392 97.7794ZM877.537 98.0693C877.972 98.0693 878.262 97.9244 878.552 97.7794L881.162 100.389C880.147 101.259 878.842 101.839 877.537 101.839V98.0693ZM876.957 89.9509V93.7201C876.522 93.8651 876.087 94.0101 875.797 94.3L873.187 91.6905C874.202 90.6756 875.507 89.9509 876.957 89.9509ZM881.741 100.099L879.132 97.4893C879.422 97.1994 879.567 96.7646 879.712 96.3297H883.481C883.191 97.7794 882.611 99.0841 881.741 100.099Z" fill="white"/>
<path d="M91.385 81.2525C91.385 81.2525 91.53 81.2525 91.385 81.2525C91.53 81.2525 91.53 81.2525 91.385 81.2525C91.53 81.2525 92.545 81.1075 93.27 80.5276C93.995 79.6578 94.2849 78.2081 93.7049 77.4832C93.4149 77.1933 92.98 77.0482 92.545 77.0482C92.11 77.1932 91.82 77.3382 91.675 77.7731C91.675 77.9181 91.675 77.9182 91.675 78.0632C91.82 78.0632 91.82 78.0632 91.965 78.0632C92.11 77.9182 92.255 77.918 92.4 77.918C92.545 77.918 92.545 78.0631 92.6899 78.2081C92.6899 78.3531 92.69 78.4979 92.545 78.6429L92.4 78.788C92.11 78.788 91.675 78.4981 91.24 78.0632C90.805 77.6282 90.225 77.3382 89.79 77.0482C89.065 76.7583 86.89 76.3235 85.44 77.3383C85.44 77.3383 84.57 78.063 84.425 78.6429C84.135 79.2228 84.135 79.9478 84.28 80.3827C84.135 80.5276 83.99 80.6727 83.99 80.9626C83.99 81.3975 84.425 81.6874 85.15 81.8324C85.15 81.9774 85.005 81.9773 85.005 82.1223C85.005 82.5572 85.585 82.9921 86.31 82.9921C86.89 82.9921 87.325 82.8472 87.47 82.5573C87.615 82.8472 88.05 82.9921 88.63 82.9921C89.355 82.9921 89.935 82.5572 89.935 82.1223C89.935 81.9773 89.935 81.8324 89.79 81.8324C90.225 81.8324 90.515 81.6874 90.805 81.3974C90.805 81.3974 90.805 81.3974 90.95 81.3974C90.805 81.3974 91.095 81.3974 91.385 81.2525ZM92.4 80.6725C92.255 80.8175 91.965 80.8175 91.82 80.8175C91.965 79.9477 91.385 79.0778 91.24 78.6429C91.53 78.9328 91.82 79.0779 92.11 79.2228C92.255 79.5128 92.545 79.9477 92.4 80.6725ZM90.805 81.1075C90.805 80.9626 90.66 80.6726 90.515 80.3827C90.225 79.8028 89.645 78.9329 88.195 78.498C86.31 77.9181 85.44 78.208 85.005 78.498C85.005 78.498 85.005 78.498 85.15 78.353C85.295 78.2081 85.44 78.063 85.585 77.918C86.165 77.6281 87.18 77.6282 88.63 78.0632C90.515 78.643 91.095 79.9477 91.24 80.5276C91.24 80.6726 91.385 80.9626 91.385 81.1075C91.385 81.1075 91.385 81.1075 91.24 81.1075C90.95 80.9626 90.95 80.9626 90.805 81.1075ZM88.05 79.2228C87.76 79.2228 87.615 79.3679 87.47 79.5129C87.18 79.2229 86.89 79.0779 86.31 79.0779C86.165 79.0779 86.02 79.0779 85.875 79.0779C86.31 78.9329 86.89 78.933 87.47 78.933C87.615 79.0779 87.76 79.2228 88.05 79.2228ZM86.31 79.5129C86.745 79.5129 87.18 79.8027 87.18 79.9477C87.18 80.0927 87.035 80.2377 86.89 80.2377H86.745C86.6 80.2377 86.455 80.2377 86.31 80.2377C85.875 80.2377 85.44 79.9477 85.44 79.8027C85.44 79.8027 85.73 79.5129 86.31 79.5129ZM86.89 80.8175H87.035C87.18 80.8175 87.18 80.8175 87.325 80.8175C87.905 80.8175 88.195 81.1075 88.195 81.2525C88.195 81.3974 87.76 81.6875 87.325 81.6875C86.745 81.6875 86.455 81.3974 86.455 81.2525C86.455 80.9625 86.6 80.8175 86.89 80.8175ZM87.615 79.9477C87.615 79.8027 88.05 79.5129 88.485 79.5129C88.63 79.5129 88.63 79.5129 88.775 79.5129C89.065 79.5129 89.355 79.8027 89.355 79.9477C89.355 80.0927 89.21 80.2377 88.92 80.3827C88.775 80.3827 88.63 80.3827 88.485 80.3827C87.905 80.5276 87.615 80.2376 87.615 79.9477ZM84.86 80.3827C84.86 80.2377 84.86 80.2376 84.86 80.0926C84.86 79.9477 85.005 79.8028 85.15 79.6578C85.005 79.8028 85.005 79.9477 85.005 80.0926C85.005 80.2376 85.005 80.3827 85.15 80.3827C85.005 80.3827 85.005 80.3827 84.86 80.3827ZM84.28 81.1075C84.28 80.9626 84.425 80.9625 84.57 80.8175C84.715 80.8175 84.86 80.6725 85.005 80.6725C85.15 80.6725 85.15 80.6725 85.295 80.6725C85.875 80.6725 86.165 80.9626 86.165 81.1075C86.165 81.2525 86.02 81.2524 86.02 81.3974C85.875 81.5424 85.585 81.5423 85.295 81.5423C84.57 81.6873 84.28 81.3975 84.28 81.1075ZM86.165 82.8471C85.585 82.8471 85.295 82.7023 85.295 82.4123C85.295 82.2673 85.73 81.9773 86.165 81.9773C86.455 81.9773 86.6 81.9773 86.89 82.1223C86.89 82.1223 87.035 82.2673 87.035 82.4123C87.035 82.5573 86.6 82.8471 86.165 82.8471ZM88.485 82.8471C87.905 82.8471 87.615 82.5573 87.615 82.4123C87.615 82.4123 87.615 82.2672 87.76 82.2672C87.905 82.1222 88.195 81.9773 88.485 81.9773C88.63 81.9773 88.775 81.9773 88.92 81.9773C89.21 82.1223 89.355 82.2673 89.355 82.4123C89.355 82.5573 88.92 82.8471 88.485 82.8471ZM90.37 81.2525C90.225 81.3974 89.935 81.5423 89.5 81.5423C89.355 81.5423 89.21 81.5423 89.065 81.5423C88.775 81.3974 88.63 81.2525 88.63 81.1075C88.63 80.9626 88.775 80.8175 89.065 80.6725C89.21 80.6725 89.355 80.6725 89.5 80.6725C89.645 80.6725 89.645 80.6725 89.79 80.6725C90.08 80.8175 90.37 80.9625 90.37 81.2525Z" fill="white"/>
<path d="M101.825 76.6135V66.0305C101.825 65.8855 101.825 65.7406 101.68 65.7406C101.535 65.7406 101.39 65.7406 101.39 65.7406L100.23 66.3203V62.5511C100.23 62.4061 100.23 62.2612 100.085 62.2612C99.9399 62.2612 99.7949 62.2612 99.7949 62.2612L94.5749 65.5955H94.4299C93.5599 65.8854 92.6899 66.0305 91.9649 66.0305C89.4999 66.0305 88.6299 64.4358 88.6299 64.4358C88.6299 64.2908 88.4849 64.2909 88.3399 64.2909C88.1949 64.2909 88.0499 64.4358 88.0499 64.4358C88.0499 64.4358 87.1799 66.0305 84.715 66.0305C83.99 66.0305 83.12 65.8854 82.25 65.5955L77.03 62.2612C76.885 62.2612 76.74 62.2612 76.595 62.2612C76.45 62.2612 76.45 62.4061 76.45 62.5511V66.3203L75.435 65.7406C75.29 65.7406 75.145 65.7406 75.145 65.7406C75 65.7406 75 65.8855 75 66.0305V76.6135C75 76.7585 75 79.3679 77.175 81.3975C79.06 83.2821 81.96 84.2969 85.875 84.2969C85.875 84.2969 85.875 84.2969 86.02 84.2969C87.47 84.7319 88.3399 85.0218 88.3399 86.3266C88.3399 86.4716 88.4849 86.6165 88.6299 86.6165C88.7749 86.6165 88.92 86.4716 88.92 86.3266C88.92 85.1668 89.7899 84.7319 91.2399 84.2969H91.3849C95.2999 84.2969 98.1999 83.2821 100.085 81.3975C101.825 79.3679 101.825 76.7585 101.825 76.6135ZM83.265 73.569C83.7 73.424 83.845 72.5542 83.845 72.5542C83.845 72.5542 84.57 72.9891 85.005 72.8441C85.005 72.9891 85.005 73.424 85.005 73.424C85.005 73.424 84.86 73.714 85.005 74.0039C85.15 74.1489 85.15 74.4389 85.15 74.7288C84.86 74.7288 84.715 74.7288 84.425 74.7288C83.99 74.7288 83.555 74.7288 83.265 74.7288C83.265 74.1489 83.265 74.0039 83.265 73.569ZM91.3849 72.8441H92.2549C92.2549 73.279 92.2549 73.7141 92.3999 74.4389L91.3849 74.2938C91.3849 73.7139 91.3849 73.279 91.3849 72.8441ZM98.4899 74.2938C97.9099 74.8737 97.0399 75.1638 96.0249 75.1638C95.7349 74.4389 95.5899 73.714 95.5899 73.1341L99.5049 70.9596C99.5049 71.3945 99.5049 73.134 98.4899 74.2938ZM77.03 70.9596L80.945 73.1341C80.945 73.714 80.8 74.4389 80.51 75.1638C79.495 75.1638 78.77 74.8737 78.19 74.2938C77.03 73.134 77.03 71.3945 77.03 70.9596ZM101.1 66.6104V73.1341L99.3599 74.1489C100.23 72.6992 100.23 71.1046 100.23 70.8146V67.0452L101.1 66.6104ZM99.5049 66.7553L96.6049 68.4949C96.4599 68.35 96.0249 67.7701 95.0099 66.1754L99.5049 63.276V66.7553ZM91.8199 66.7553C92.5449 66.7553 93.4149 66.6103 94.2849 66.3203C95.2999 67.7701 95.7349 68.495 96.0249 68.785C95.5899 69.5098 94.2849 71.9743 95.2999 75.0187C94.8649 74.5838 93.8499 74.4389 92.8349 74.4389C92.6899 73.7141 92.6899 73.279 92.6899 72.8441H94.2849C94.4299 72.8441 94.4299 72.5543 94.4299 72.2643V70.8146C94.4299 69.6548 93.8499 69.6548 93.8499 69.6548C93.8499 69.6548 93.4149 69.6547 93.2699 69.0749C93.1249 68.495 92.6899 68.0601 92.2549 68.0601C91.8199 68.0601 90.9499 68.3501 90.3699 68.785C89.9349 68.93 89.9349 69.2199 89.9349 69.6548C89.7899 70.6696 89.4999 70.5246 89.4999 70.5246C89.3549 70.5246 89.2099 70.6696 89.2099 70.9596V72.4093C89.2099 72.6992 89.3549 72.9892 89.4999 72.9892H91.0949C91.0949 73.4241 91.0949 73.859 90.9499 74.5839C89.9349 74.5839 89.0649 74.8738 88.4849 75.3087V65.5955C88.9199 66.0304 90.0799 66.7553 91.8199 66.7553ZM87.76 65.7406V75.0187C87.325 74.7287 86.5999 74.5839 85.7299 74.5839C85.5849 74.149 85.5849 72.9891 85.7299 72.6992C86.4549 72.5542 86.4549 71.8293 86.4549 71.2494C86.4549 70.8145 86.31 69.2198 86.31 69.2198L86.745 69.0749C86.89 69.0749 86.8899 69.0749 86.8899 68.9299C86.8899 68.7849 86.8899 68.64 86.8899 68.64L86.4549 68.4949C86.3099 68.35 86.165 68.2051 86.02 68.2051C85.875 68.2051 85.585 68.205 85.44 68.4949C85.295 68.35 85.005 68.4949 84.86 68.4949C84.86 68.4949 84.86 69.2198 85.585 69.0749L85.7299 70.9596C85.7299 70.9596 85.73 71.3944 85.295 71.2494C84.86 71.1045 83.99 70.8146 83.41 70.9596C83.12 71.1045 82.685 71.2494 82.395 71.9743C82.105 72.6992 82.54 72.4093 82.54 72.4093L82.975 72.1192C82.975 72.1192 83.265 72.6992 82.975 73.1341C82.685 73.4241 82.83 73.7141 82.83 73.7141C82.83 73.7141 82.975 74.4389 82.975 74.7288C82.25 74.7288 81.67 75.0188 81.235 75.1638C82.105 72.1194 80.945 69.6548 80.51 68.9299C80.8 68.64 81.235 67.9152 82.25 66.4655C83.12 66.7554 83.99 66.9003 84.715 66.9003C86.165 66.7553 87.035 66.1755 87.76 65.7406ZM77.03 63.276L81.525 66.1754C80.655 67.6251 80.075 68.205 79.93 68.4949L77.03 66.9003V63.276ZM76.305 67.1903V70.9596C76.305 71.1045 76.305 72.8441 77.175 74.2938L75.435 73.2791V66.7553L76.305 67.1903ZM75.58 77.7732L79.93 80.2378C80.365 81.3976 81.09 82.1225 82.25 83.1373C82.54 83.4272 82.975 83.572 83.265 83.717C80.655 83.4271 78.625 82.5573 77.32 81.1076C76.16 79.9478 75.725 78.643 75.58 77.7732ZM88.195 85.1667C87.615 84.2969 86.5999 84.007 85.44 83.717C84.425 83.4271 83.41 83.1373 82.54 82.4124C80.365 80.8177 79.64 79.368 80.8 76.0336H95.5899C96.7499 79.368 96.0249 80.6727 93.8499 82.4124C92.9799 82.9923 91.9649 83.4271 90.9499 83.5721C89.7899 84.007 88.775 84.2969 88.195 85.1667ZM99.2149 80.9627C97.7649 82.4124 95.7349 83.2821 93.1249 83.5721C93.5599 83.4271 93.8499 83.1371 94.1399 82.9921C95.2999 82.1223 96.1699 81.2526 96.4599 80.2378C96.4599 80.2378 96.4599 80.2378 96.6049 80.2378L100.955 77.7732C100.81 78.643 100.375 79.8029 99.2149 80.9627Z" fill="white"/>
<path d="M88.1948 64.0009C90.2248 64.0009 91.6748 62.9861 91.6748 61.6813C91.6748 60.3766 90.0798 59.3618 88.1948 59.3618C86.1649 59.3618 84.7148 60.3766 84.7148 61.6813C84.7148 62.9861 86.1649 64.0009 88.1948 64.0009ZM88.1948 60.3766C89.2098 60.3766 89.9348 60.8114 89.9348 61.2463C89.9348 61.6813 89.4998 61.9714 88.9198 62.1163C88.3398 62.2613 88.4848 62.5511 88.1948 62.6961C87.9048 62.5511 88.0498 62.2613 87.4698 62.1163C86.8898 61.9714 86.4548 61.6813 86.4548 61.2463C86.4548 60.6665 87.1798 60.3766 88.1948 60.3766Z" fill="white"/>
</svg>
