<svg class="tracto-cama-baja transport-item is-hidden" width="644" height="130" viewBox="0 0 644 130" fill="none" xmlns="http://www.w3.org/2000/svg">
<path d="M174.738 89.3337V92.5275H150.714V86.6442H139.962V11.841H135.426V0.914703H129.546V11.5048H127.362V77.3988H122.658V18.2287H72.2574L72.5934 26.2973H78.8095L64.0254 61.9339H10.2651V99.2514H0.520996V108.497H9.76105V112.699H160.962V108.161H321.907V89.3337H174.738ZM100.482 62.2701H79.4815L89.0575 27.3059H100.482V62.2701Z" fill="#76C1AA"/>
<path d="M227.994 66.9768H331.651L361.051 89.1656H635.565V103.79H350.635L325.267 85.4675H227.994V66.9768Z" fill="#DCE9EF" stroke="#65819B" stroke-miterlimit="10"/>
<g class="is-hidden-eje">
<path d="M36.9772 129.677C47.0907 129.677 55.2893 121.474 55.2893 111.354C55.2893 101.235 47.0907 93.0318 36.9772 93.0318C26.8636 93.0318 18.665 101.235 18.665 111.354C18.665 121.474 26.8636 129.677 36.9772 129.677Z" fill="#3B5266"/>
<path d="M24.5452 111.354C24.5452 106.48 27.2332 102.445 31.2652 100.26L30.5932 99.2514C26.2252 101.605 23.2012 106.143 23.2012 111.354C23.2012 116.565 26.2252 121.104 30.5932 123.457L31.2652 122.449C27.4012 120.432 24.5452 116.229 24.5452 111.354Z" fill="#76C1AA"/>
<path d="M43.3612 99.2514L42.8572 100.26C46.8892 102.277 49.7452 106.48 49.7452 111.354C49.7452 116.229 46.8892 120.432 42.8572 122.449L43.3612 123.457C47.7292 121.104 50.7533 116.565 50.7533 111.354C50.5852 106.143 47.7292 101.605 43.3612 99.2514Z" fill="#76C1AA"/>
<path opacity="0.3" d="M36.9771 114.044C38.4616 114.044 39.6651 112.84 39.6651 111.354C39.6651 109.869 38.4616 108.665 36.9771 108.665C35.4925 108.665 34.2891 109.869 34.2891 111.354C34.2891 112.84 35.4925 114.044 36.9771 114.044Z" fill="white"/>
<path opacity="0.3" d="M38.657 109.337L41.6811 106.312C40.505 105.135 38.993 104.462 37.145 104.462V108.833C37.649 108.833 38.153 109.001 38.657 109.337Z" fill="white"/>
<path opacity="0.3" d="M39.6651 111.354H44.0332C44.0332 109.673 43.3612 107.992 42.1852 106.816L39.1611 109.842C39.3291 110.178 39.4971 110.682 39.6651 111.354Z" fill="white"/>
<path opacity="0.3" d="M38.8252 113.203L41.8492 116.229C43.0252 115.053 43.6972 113.54 43.6972 111.859H39.3292C39.4972 112.363 39.1612 112.867 38.8252 113.203Z" fill="white"/>
<path opacity="0.3" d="M35.4652 113.54L32.4412 116.565C33.6172 117.574 34.9612 118.246 36.6412 118.246V113.876C36.1372 113.876 35.8012 113.708 35.4652 113.54Z" fill="white"/>
<path opacity="0.3" d="M37.145 114.044V118.414C38.825 118.414 40.3371 117.742 41.3451 116.734L38.321 113.708C37.985 113.876 37.649 114.044 37.145 114.044Z" fill="white"/>
<path opacity="0.3" d="M34.7932 110.01L31.7691 106.984C30.7611 108.161 30.0891 109.673 30.0891 111.354H34.4571C34.2891 110.85 34.4571 110.346 34.7932 110.01Z" fill="white"/>
<path opacity="0.3" d="M34.4572 111.859H30.0891C30.2571 113.54 30.9291 114.884 31.9371 116.061L34.9612 113.035C34.6252 112.699 34.4572 112.363 34.4572 111.859Z" fill="white"/>
<path opacity="0.3" d="M36.473 108.833V104.462C34.793 104.631 33.281 105.303 32.105 106.312L35.129 109.337C35.465 109.169 35.969 108.833 36.473 108.833Z" fill="white"/>
<path d="M37.1451 103.454C36.6411 103.454 35.9691 103.454 35.4651 103.622C31.7691 104.294 29.0811 107.488 29.0811 111.354C29.0811 115.725 32.6091 119.255 36.9771 119.255C39.1611 119.255 41.1771 118.414 42.5211 116.902C44.0332 115.389 44.8732 113.54 44.8732 111.354C45.0412 106.984 41.5131 103.454 37.1451 103.454ZM39.6651 111.354C39.6651 110.85 39.4971 110.346 39.1611 109.842L42.1851 106.816C43.1932 107.992 43.8652 109.505 44.0332 111.354H39.6651ZM32.2731 116.565L35.2971 113.54C35.6331 113.708 35.9691 113.876 36.4731 114.044V118.414C34.9611 118.246 33.4491 117.574 32.2731 116.565ZM38.6571 109.337C38.3211 109.001 37.8171 108.833 37.1451 108.833V104.462C38.8251 104.462 40.5051 105.135 41.6811 106.312L38.6571 109.337ZM34.2891 111.354H29.9211C29.9211 109.673 30.5931 108.161 31.6011 106.984L34.6251 110.01C34.4571 110.346 34.2891 110.85 34.2891 111.354ZM34.4571 111.859C34.6251 112.363 34.7931 112.699 34.9611 113.035L31.9371 116.061C30.9291 114.884 30.2571 113.54 30.0891 111.859H34.4571ZM36.9771 113.54C35.8011 113.54 34.7931 112.531 34.7931 111.354C34.7931 110.178 35.8011 109.169 36.9771 109.169C37.8171 109.169 38.4891 109.673 38.8251 110.346V110.514C38.9931 110.682 38.9931 111.018 38.9931 111.354C38.9931 111.691 38.9931 111.859 38.8251 112.195C38.6571 113.035 37.8171 113.54 36.9771 113.54ZM37.1451 114.044C37.6491 114.044 37.9851 113.876 38.3211 113.708L41.3451 116.734C40.1691 117.742 38.6571 118.414 37.1451 118.414V114.044ZM36.4731 104.462V108.833C35.9691 109.001 35.4651 109.169 35.1291 109.505L32.1051 106.48C33.2811 105.303 34.7931 104.631 36.4731 104.462ZM42.0171 116.229L38.9931 113.203C39.3291 112.867 39.4971 112.363 39.6651 111.859H44.0332C43.6972 113.54 43.0251 115.053 42.0171 116.229Z" fill="white"/>
</g>
<g class="is-hidden-eje">
<path d="M203.13 129.677C213.244 129.677 221.442 121.474 221.442 111.354C221.442 101.235 213.244 93.0318 203.13 93.0318C193.017 93.0318 184.818 101.235 184.818 111.354C184.818 121.474 193.017 129.677 203.13 129.677Z" fill="#3B5266"/>
<path d="M190.698 111.354C190.698 106.48 193.386 102.445 197.418 100.26L196.746 99.2514C192.378 101.605 189.354 106.143 189.354 111.354C189.354 116.565 192.378 121.104 196.746 123.457L197.418 122.449C193.386 120.432 190.698 116.229 190.698 111.354Z" fill="#76C1AA"/>
<path d="M209.347 99.2514L208.843 100.26C212.875 102.277 215.731 106.48 215.731 111.354C215.731 116.229 212.875 120.432 208.843 122.449L209.347 123.457C213.715 121.104 216.739 116.565 216.739 111.354C216.739 106.143 213.715 101.605 209.347 99.2514Z" fill="#76C1AA"/>
<path opacity="0.3" d="M203.13 114.044C204.615 114.044 205.818 112.84 205.818 111.354C205.818 109.869 204.615 108.665 203.13 108.665C201.646 108.665 200.442 109.869 200.442 111.354C200.442 112.84 201.646 114.044 203.13 114.044Z" fill="white"/>
<path opacity="0.3" d="M204.81 109.337L207.834 106.312C206.658 105.135 205.146 104.462 203.298 104.462V108.833C203.802 108.833 204.306 109.001 204.81 109.337Z" fill="white"/>
<path opacity="0.3" d="M205.65 111.354H210.018C210.018 109.673 209.346 107.992 208.17 106.816L205.146 109.842C205.482 110.178 205.65 110.682 205.65 111.354Z" fill="white"/>
<path opacity="0.3" d="M204.978 113.203L208.002 116.229C209.178 115.053 209.85 113.54 209.85 111.859H205.482C205.482 112.363 205.314 112.867 204.978 113.203Z" fill="white"/>
<path opacity="0.3" d="M201.45 113.54L198.426 116.565C199.602 117.574 200.946 118.246 202.626 118.246V113.876C202.29 113.876 201.786 113.708 201.45 113.54Z" fill="white"/>
<path opacity="0.3" d="M203.298 114.044V118.414C204.978 118.414 206.49 117.742 207.498 116.734L204.474 113.708C204.138 113.876 203.802 114.044 203.298 114.044Z" fill="white"/>
<path opacity="0.3" d="M200.946 110.01L197.922 106.984C196.914 108.161 196.242 109.673 196.242 111.354H200.61C200.442 110.85 200.61 110.346 200.946 110.01Z" fill="white"/>
<path opacity="0.3" d="M200.442 111.859H196.074C196.242 113.54 196.914 114.884 197.922 116.061L200.946 113.035C200.778 112.699 200.61 112.363 200.442 111.859Z" fill="white"/>
<path opacity="0.3" d="M202.626 108.833V104.462C200.946 104.631 199.434 105.303 198.258 106.312L201.282 109.337C201.618 109.169 202.122 108.833 202.626 108.833Z" fill="white"/>
<path d="M203.13 103.454C202.626 103.454 201.954 103.454 201.45 103.622C197.754 104.294 195.066 107.488 195.066 111.354C195.066 115.725 198.594 119.255 202.962 119.255C205.146 119.255 207.162 118.414 208.506 116.902C210.018 115.389 210.858 113.54 210.858 111.354C211.026 106.984 207.498 103.454 203.13 103.454ZM205.65 111.354C205.65 110.85 205.482 110.346 205.146 109.842L208.17 106.816C209.178 107.992 209.85 109.505 210.018 111.354H205.65ZM198.426 116.565L201.45 113.54C201.786 113.708 202.122 113.876 202.626 114.044V118.414C200.946 118.246 199.602 117.574 198.426 116.565ZM204.81 109.337C204.474 109.001 203.97 108.833 203.298 108.833V104.462C204.978 104.462 206.658 105.135 207.834 106.312L204.81 109.337ZM200.442 111.354H196.074C196.074 109.673 196.746 108.161 197.754 106.984L200.778 110.01C200.61 110.346 200.442 110.85 200.442 111.354ZM200.442 111.859C200.61 112.363 200.778 112.699 200.946 113.035L197.922 116.061C196.914 114.884 196.242 113.54 196.074 111.859H200.442ZM203.13 113.54C201.954 113.54 200.946 112.531 200.946 111.354C200.946 110.178 201.954 109.169 203.13 109.169C203.97 109.169 204.642 109.673 204.978 110.346V110.514C205.146 110.682 205.146 111.018 205.146 111.354C205.146 111.691 205.146 111.859 204.978 112.195C204.81 113.035 203.97 113.54 203.13 113.54ZM203.298 114.044C203.802 114.044 204.138 113.876 204.474 113.708L207.498 116.734C206.322 117.742 204.81 118.414 203.298 118.414V114.044ZM202.626 104.462V108.833C202.122 109.001 201.618 109.169 201.282 109.505L198.258 106.48C199.434 105.303 200.946 104.631 202.626 104.462ZM208.002 116.229L204.978 113.203C205.314 112.867 205.482 112.363 205.65 111.859H210.018C209.85 113.54 209.178 115.053 208.002 116.229Z" fill="white"/>
</g>
<g class="is-hidden-eje">
<path d="M247.482 129.677C257.596 129.677 265.795 121.474 265.795 111.354C265.795 101.235 257.596 93.0318 247.482 93.0318C237.369 93.0318 229.17 101.235 229.17 111.354C229.17 121.474 237.369 129.677 247.482 129.677Z" fill="#3B5266"/>
<path d="M235.051 111.354C235.051 106.48 237.739 102.445 241.771 100.26L241.099 99.2514C236.731 101.605 233.707 106.143 233.707 111.354C233.707 116.565 236.731 121.104 241.099 123.457L241.771 122.449C237.739 120.432 235.051 116.229 235.051 111.354Z" fill="#76C1AA"/>
<path d="M253.699 99.2514L253.195 100.26C257.227 102.277 260.083 106.48 260.083 111.354C260.083 116.229 257.227 120.432 253.195 122.449L253.699 123.457C258.067 121.104 261.091 116.565 261.091 111.354C261.091 106.143 258.067 101.605 253.699 99.2514Z" fill="#76C1AA"/>
<path opacity="0.3" d="M247.483 114.044C248.967 114.044 250.171 112.84 250.171 111.354C250.171 109.869 248.967 108.665 247.483 108.665C245.998 108.665 244.795 109.869 244.795 111.354C244.795 112.84 245.998 114.044 247.483 114.044Z" fill="white"/>
<path opacity="0.3" d="M248.994 109.337L252.018 106.312C250.842 105.135 249.33 104.462 247.482 104.462V108.833C248.154 108.833 248.658 109.001 248.994 109.337Z" fill="white"/>
<path opacity="0.3" d="M250.003 111.354H254.371C254.371 109.673 253.699 107.992 252.523 106.816L249.499 109.842C249.835 110.178 250.003 110.682 250.003 111.354Z" fill="white"/>
<path opacity="0.3" d="M249.331 113.203L252.355 116.229C253.531 115.053 254.203 113.54 254.203 111.859H249.835C249.835 112.363 249.667 112.867 249.331 113.203Z" fill="white"/>
<path opacity="0.3" d="M245.802 113.54L242.778 116.565C243.954 117.574 245.298 118.246 246.978 118.246V113.876C246.474 113.876 246.138 113.708 245.802 113.54Z" fill="white"/>
<path opacity="0.3" d="M247.482 114.044V118.414C249.162 118.414 250.674 117.742 251.682 116.734L248.658 113.708C248.49 113.876 247.986 114.044 247.482 114.044Z" fill="white"/>
<path opacity="0.3" d="M245.13 110.01L242.107 106.984C241.099 108.161 240.427 109.673 240.427 111.354H244.794C244.794 110.85 244.962 110.346 245.13 110.01Z" fill="white"/>
<path opacity="0.3" d="M244.795 111.859H240.427C240.595 113.54 241.267 114.884 242.275 116.061L245.299 113.035C245.131 112.699 244.795 112.363 244.795 111.859Z" fill="white"/>
<path opacity="0.3" d="M246.979 108.833V104.462C245.299 104.631 243.787 105.303 242.611 106.312L245.635 109.337C245.971 109.169 246.307 108.833 246.979 108.833Z" fill="white"/>
<path d="M247.483 103.454C246.979 103.454 246.307 103.454 245.803 103.622C242.106 104.294 239.418 107.488 239.418 111.354C239.418 115.725 242.946 119.255 247.315 119.255C249.499 119.255 251.515 118.414 252.859 116.902C254.371 115.389 255.211 113.54 255.211 111.354C255.379 106.984 251.851 103.454 247.483 103.454ZM250.003 111.354C250.003 110.85 249.835 110.346 249.499 109.842L252.523 106.816C253.531 107.992 254.203 109.505 254.371 111.354H250.003ZM242.778 116.565L245.803 113.54C246.139 113.708 246.475 113.876 246.979 114.044V118.414C245.299 118.246 243.786 117.574 242.778 116.565ZM248.995 109.337C248.659 109.001 248.155 108.833 247.483 108.833V104.462C249.163 104.462 250.843 105.135 252.019 106.312L248.995 109.337ZM244.794 111.354H240.426C240.426 109.673 241.098 108.161 242.106 106.984L245.131 110.01C244.963 110.346 244.794 110.85 244.794 111.354ZM244.794 111.859C244.962 112.363 245.131 112.699 245.299 113.035L242.274 116.061C241.266 114.884 240.594 113.54 240.426 111.859H244.794ZM247.483 113.54C246.307 113.54 245.299 112.531 245.299 111.354C245.299 110.178 246.307 109.169 247.483 109.169C248.323 109.169 248.995 109.673 249.331 110.346V110.514C249.499 110.682 249.499 111.018 249.499 111.354C249.499 111.691 249.499 111.859 249.331 112.195C248.995 113.035 248.323 113.54 247.483 113.54ZM247.483 114.044C247.987 114.044 248.323 113.876 248.659 113.708L251.683 116.734C250.507 117.742 248.995 118.414 247.483 118.414V114.044ZM246.979 104.462V108.833C246.475 109.001 245.971 109.169 245.635 109.505L242.61 106.48C243.619 105.303 245.131 104.631 246.979 104.462ZM252.355 116.229L249.331 113.203C249.667 112.867 249.835 112.363 250.003 111.859H254.371C254.035 113.54 253.363 115.053 252.355 116.229Z" fill="white"/>
</g>
<g class="is-hidden-eje">
<path d="M291.667 129.677C301.78 129.677 309.979 121.474 309.979 111.354C309.979 101.235 301.78 93.0318 291.667 93.0318C281.553 93.0318 273.354 101.235 273.354 111.354C273.354 121.474 281.553 129.677 291.667 129.677Z" fill="#3B5266"/>
<path d="M279.235 111.354C279.235 106.48 281.923 102.445 285.955 100.26L285.283 99.2514C280.915 101.605 277.891 106.143 277.891 111.354C277.891 116.565 280.915 121.104 285.283 123.457L285.955 122.449C281.923 120.432 279.235 116.229 279.235 111.354Z" fill="#76C1AA"/>
<path d="M298.051 99.2514L297.547 100.26C301.579 102.277 304.435 106.48 304.435 111.354C304.435 116.229 301.579 120.432 297.547 122.449L298.051 123.457C302.419 121.104 305.443 116.565 305.443 111.354C305.275 106.143 302.419 101.605 298.051 99.2514Z" fill="#76C1AA"/>
<path opacity="0.3" d="M291.667 114.044C293.151 114.044 294.355 112.84 294.355 111.354C294.355 109.869 293.151 108.665 291.667 108.665C290.182 108.665 288.979 109.869 288.979 111.354C288.979 112.84 290.182 114.044 291.667 114.044Z" fill="white"/>
<path opacity="0.3" d="M293.346 109.337L296.371 106.312C295.195 105.135 293.683 104.462 291.834 104.462V108.833C292.338 108.833 292.842 109.001 293.346 109.337Z" fill="white"/>
<path opacity="0.3" d="M294.186 111.354H298.554C298.554 109.673 297.882 107.992 296.706 106.816L293.682 109.842C294.018 110.178 294.186 110.682 294.186 111.354Z" fill="white"/>
<path opacity="0.3" d="M293.514 113.203L296.538 116.229C297.714 115.053 298.386 113.54 298.386 111.859H294.018C294.186 112.363 293.85 112.867 293.514 113.203Z" fill="white"/>
<path opacity="0.3" d="M289.986 113.54L286.962 116.565C288.138 117.574 289.482 118.246 291.163 118.246V113.876C290.826 113.876 290.322 113.708 289.986 113.54Z" fill="white"/>
<path opacity="0.3" d="M291.834 114.044V118.414C293.515 118.414 295.027 117.742 296.035 116.734L293.011 113.708C292.675 113.876 292.338 114.044 291.834 114.044Z" fill="white"/>
<path opacity="0.3" d="M289.483 110.01L286.459 106.984C285.451 108.161 284.779 109.673 284.779 111.354H289.147C288.979 110.85 289.147 110.346 289.483 110.01Z" fill="white"/>
<path opacity="0.3" d="M288.978 111.859H284.61C284.778 113.54 285.45 114.884 286.458 116.061L289.482 113.035C289.314 112.699 289.146 112.363 288.978 111.859Z" fill="white"/>
<path opacity="0.3" d="M291.163 108.833V104.462C289.482 104.631 287.97 105.303 286.794 106.312L289.819 109.337C290.155 109.169 290.658 108.833 291.163 108.833Z" fill="white"/>
<path d="M291.835 103.454C291.331 103.454 290.659 103.454 290.155 103.622C286.458 104.294 283.771 107.488 283.771 111.354C283.771 115.725 287.298 119.255 291.667 119.255C293.851 119.255 295.867 118.414 297.211 116.902C298.723 115.389 299.563 113.54 299.563 111.354C299.563 106.984 296.035 103.454 291.835 103.454ZM294.187 111.354C294.187 110.85 294.019 110.346 293.683 109.842L296.707 106.816C297.715 107.992 298.387 109.505 298.555 111.354H294.187ZM286.963 116.565L289.987 113.54C290.323 113.708 290.659 113.876 291.163 114.044V118.414C289.651 118.246 288.139 117.574 286.963 116.565ZM293.347 109.337C293.011 109.001 292.507 108.833 291.835 108.833V104.462C293.515 104.462 295.195 105.135 296.371 106.312L293.347 109.337ZM288.979 111.354H284.611C284.611 109.673 285.283 108.161 286.291 106.984L289.315 110.01C289.147 110.346 288.979 110.85 288.979 111.354ZM288.979 111.859C289.147 112.363 289.315 112.699 289.483 113.035L286.459 116.061C285.451 114.884 284.779 113.54 284.611 111.859H288.979ZM291.667 113.54C290.491 113.54 289.483 112.531 289.483 111.354C289.483 110.178 290.491 109.169 291.667 109.169C292.507 109.169 293.179 109.673 293.515 110.346V110.514C293.683 110.682 293.683 111.018 293.683 111.354C293.683 111.691 293.683 111.859 293.515 112.195C293.347 113.035 292.507 113.54 291.667 113.54ZM291.835 114.044C292.339 114.044 292.675 113.876 293.011 113.708L296.035 116.734C294.859 117.742 293.347 118.414 291.835 118.414V114.044ZM291.163 104.462V108.833C290.659 109.001 290.155 109.169 289.819 109.505L286.794 106.48C287.971 105.303 289.483 104.631 291.163 104.462ZM296.539 116.229L293.515 113.203C293.851 112.867 294.019 112.363 294.187 111.859H298.555C298.387 113.54 297.715 115.053 296.539 116.229Z" fill="white"/>
</g>
<g class="is-hidden-eje">
<path d="M431.444 129.677C441.557 129.677 449.756 121.474 449.756 111.354C449.756 101.235 441.557 93.0318 431.444 93.0318C421.33 93.0318 413.132 101.235 413.132 111.354C413.132 121.474 421.33 129.677 431.444 129.677Z" fill="#3B5266"/>
<path d="M419.012 111.354C419.012 106.48 421.7 102.445 425.732 100.26L425.06 99.2514C420.692 101.605 417.667 106.143 417.667 111.354C417.667 116.565 420.692 121.104 425.06 123.457L425.732 122.449C421.7 120.432 419.012 116.229 419.012 111.354Z" fill="#76C1AA"/>
<path d="M437.66 99.2514L437.156 100.26C441.188 102.277 444.044 106.48 444.044 111.354C444.044 116.229 441.188 120.432 437.156 122.449L437.66 123.457C442.028 121.104 445.052 116.565 445.052 111.354C445.052 106.143 442.028 101.605 437.66 99.2514Z" fill="#76C1AA"/>
<path opacity="0.3" d="M431.444 114.044C432.928 114.044 434.132 112.84 434.132 111.354C434.132 109.869 432.928 108.665 431.444 108.665C429.959 108.665 428.756 109.869 428.756 111.354C428.756 112.84 429.959 114.044 431.444 114.044Z" fill="white"/>
<path opacity="0.3" d="M432.956 109.337L435.98 106.312C434.804 105.135 433.292 104.462 431.444 104.462V108.833C432.116 108.833 432.62 109.001 432.956 109.337Z" fill="white"/>
<path opacity="0.3" d="M433.964 111.354H438.332C438.332 109.673 437.66 107.992 436.484 106.816L433.46 109.842C433.796 110.178 433.964 110.682 433.964 111.354Z" fill="white"/>
<path opacity="0.3" d="M433.292 113.203L436.316 116.229C437.492 115.053 438.164 113.54 438.164 111.859H433.964C433.796 112.363 433.628 112.867 433.292 113.203Z" fill="white"/>
<path opacity="0.3" d="M429.764 113.54L426.74 116.565C427.916 117.574 429.26 118.246 430.94 118.246V113.876C430.436 113.876 430.1 113.708 429.764 113.54Z" fill="white"/>
<path opacity="0.3" d="M431.444 114.044V118.414C433.124 118.414 434.636 117.742 435.644 116.734L432.62 113.708C432.452 113.876 431.948 114.044 431.444 114.044Z" fill="white"/>
<path opacity="0.3" d="M429.092 110.01L426.068 106.984C425.06 108.161 424.388 109.673 424.388 111.354H428.756C428.756 110.85 428.924 110.346 429.092 110.01Z" fill="white"/>
<path opacity="0.3" d="M428.756 111.859H424.388C424.556 113.54 425.228 114.884 426.236 116.061L429.26 113.035C429.092 112.699 428.756 112.363 428.756 111.859Z" fill="white"/>
<path opacity="0.3" d="M430.94 108.833V104.462C429.26 104.631 427.748 105.303 426.572 106.312L429.596 109.337C429.932 109.169 430.436 108.833 430.94 108.833Z" fill="white"/>
<path d="M431.444 103.454C430.94 103.454 430.268 103.454 429.764 103.622C426.068 104.294 423.38 107.488 423.38 111.354C423.38 115.725 426.908 119.255 431.276 119.255C433.46 119.255 435.476 118.414 436.82 116.902C438.332 115.389 439.172 113.54 439.172 111.354C439.34 106.984 435.812 103.454 431.444 103.454ZM433.964 111.354C433.964 110.85 433.796 110.346 433.46 109.842L436.484 106.816C437.492 107.992 438.164 109.505 438.332 111.354H433.964ZM426.74 116.565L429.764 113.54C430.1 113.708 430.436 113.876 430.94 114.044V118.414C429.26 118.246 427.916 117.574 426.74 116.565ZM432.956 109.337C432.62 109.001 432.116 108.833 431.444 108.833V104.462C433.124 104.462 434.804 105.135 435.98 106.312L432.956 109.337ZM428.756 111.354H424.388C424.388 109.673 425.06 108.161 426.068 106.984L429.092 110.01C428.924 110.346 428.756 110.85 428.756 111.354ZM428.756 111.859C428.924 112.363 429.092 112.699 429.26 113.035L426.236 116.061C425.228 114.884 424.556 113.54 424.388 111.859H428.756ZM431.444 113.54C430.268 113.54 429.26 112.531 429.26 111.354C429.26 110.178 430.268 109.169 431.444 109.169C432.284 109.169 432.956 109.673 433.292 110.346V110.514C433.46 110.682 433.46 111.018 433.46 111.354C433.46 111.691 433.46 111.859 433.292 112.195C432.956 113.035 432.284 113.54 431.444 113.54ZM431.444 114.044C431.948 114.044 432.284 113.876 432.62 113.708L435.644 116.734C434.468 117.742 432.956 118.414 431.444 118.414V114.044ZM430.94 104.462V108.833C430.436 109.001 429.932 109.169 429.596 109.505L426.572 106.48C427.58 105.303 429.092 104.631 430.94 104.462ZM436.316 116.229L433.292 113.203C433.628 112.867 433.796 112.363 433.964 111.859H438.332C438.164 113.54 437.324 115.053 436.316 116.229Z" fill="white"/>
</g>
<g class="is-hidden-eje">
<path d="M475.628 129.677C485.741 129.677 493.94 121.474 493.94 111.354C493.94 101.235 485.741 93.0318 475.628 93.0318C465.514 93.0318 457.315 101.235 457.315 111.354C457.315 121.474 465.514 129.677 475.628 129.677Z" fill="#3B5266"/>
<path d="M463.196 111.354C463.196 106.48 465.884 102.445 469.915 100.26L469.243 99.2514C464.876 101.605 461.852 106.143 461.852 111.354C461.852 116.565 464.876 121.104 469.243 123.457L469.915 122.449C465.884 120.432 463.196 116.229 463.196 111.354Z" fill="#76C1AA"/>
<path d="M481.844 99.2514L481.34 100.26C485.372 102.277 488.228 106.48 488.228 111.354C488.228 116.229 485.372 120.432 481.34 122.449L481.844 123.457C486.212 121.104 489.236 116.565 489.236 111.354C489.236 106.143 486.212 101.605 481.844 99.2514Z" fill="#76C1AA"/>
<path opacity="0.3" d="M475.627 114.044C477.112 114.044 478.315 112.84 478.315 111.354C478.315 109.869 477.112 108.665 475.627 108.665C474.143 108.665 472.939 109.869 472.939 111.354C472.939 112.84 474.143 114.044 475.627 114.044Z" fill="white"/>
<path opacity="0.3" d="M477.14 109.337L480.164 106.312C478.988 105.135 477.476 104.462 475.627 104.462V108.833C476.299 108.833 476.804 109.001 477.14 109.337Z" fill="white"/>
<path opacity="0.3" d="M478.148 111.354H482.516C482.516 109.673 481.844 107.992 480.668 106.816L477.644 109.842C477.98 110.178 478.148 110.682 478.148 111.354Z" fill="white"/>
<path opacity="0.3" d="M477.476 113.203L480.5 116.229C481.676 115.053 482.348 113.54 482.348 111.859H477.98C477.98 112.363 477.812 112.867 477.476 113.203Z" fill="white"/>
<path opacity="0.3" d="M473.947 113.54L470.923 116.565C472.099 117.574 473.443 118.246 475.123 118.246V113.876C474.619 113.876 474.283 113.708 473.947 113.54Z" fill="white"/>
<path opacity="0.3" d="M475.627 114.044V118.414C477.307 118.414 478.819 117.742 479.828 116.734L476.803 113.708C476.635 113.876 476.131 114.044 475.627 114.044Z" fill="white"/>
<path opacity="0.3" d="M473.275 110.01L470.251 106.984C469.243 108.161 468.571 109.673 468.571 111.354H472.939C472.939 110.85 473.107 110.346 473.275 110.01Z" fill="white"/>
<path opacity="0.3" d="M472.939 111.859H468.571C468.739 113.54 469.411 114.884 470.419 116.061L473.443 113.035C473.275 112.699 472.939 112.363 472.939 111.859Z" fill="white"/>
<path opacity="0.3" d="M475.124 108.833V104.462C473.443 104.631 471.931 105.303 470.755 106.312L473.78 109.337C474.116 109.169 474.62 108.833 475.124 108.833Z" fill="white"/>
<path d="M475.628 103.454C475.124 103.454 474.451 103.454 473.947 103.622C470.251 104.294 467.563 107.488 467.563 111.354C467.563 115.725 471.092 119.255 475.46 119.255C477.644 119.255 479.66 118.414 481.004 116.902C482.516 115.389 483.356 113.54 483.356 111.354C483.524 106.984 479.996 103.454 475.628 103.454ZM478.148 111.354C478.148 110.85 477.98 110.346 477.644 109.842L480.668 106.816C481.676 107.992 482.348 109.505 482.516 111.354H478.148ZM470.923 116.565L473.947 113.54C474.283 113.708 474.62 113.876 475.124 114.044V118.414C473.444 118.246 471.932 117.574 470.923 116.565ZM477.14 109.337C476.804 109.001 476.3 108.833 475.628 108.833V104.462C477.308 104.462 478.988 105.135 480.164 106.312L477.14 109.337ZM472.94 111.354H468.571C468.571 109.673 469.243 108.161 470.252 106.984L473.276 110.01C473.108 110.346 472.94 110.85 472.94 111.354ZM472.94 111.859C473.108 112.363 473.276 112.699 473.444 113.035L470.42 116.061C469.412 114.884 468.739 113.54 468.571 111.859H472.94ZM475.628 113.54C474.451 113.54 473.444 112.531 473.444 111.354C473.444 110.178 474.451 109.169 475.628 109.169C476.468 109.169 477.14 109.673 477.476 110.346V110.514C477.644 110.682 477.644 111.018 477.644 111.354C477.644 111.691 477.644 111.859 477.476 112.195C477.14 113.035 476.468 113.54 475.628 113.54ZM475.628 114.044C476.132 114.044 476.468 113.876 476.804 113.708L479.828 116.734C478.652 117.742 477.14 118.414 475.628 118.414V114.044ZM475.124 104.462V108.833C474.62 109.001 474.116 109.169 473.78 109.505L470.755 106.48C471.763 105.303 473.276 104.631 475.124 104.462ZM480.5 116.229L477.476 113.203C477.812 112.867 477.98 112.363 478.148 111.859H482.516C482.348 113.54 481.508 115.053 480.5 116.229Z" fill="white"/>
</g>
<g class="is-hidden-eje">
<path d="M519.812 129.677C529.926 129.677 538.124 121.474 538.124 111.354C538.124 101.235 529.926 93.0318 519.812 93.0318C509.699 93.0318 501.5 101.235 501.5 111.354C501.5 121.474 509.699 129.677 519.812 129.677Z" fill="#3B5266"/>
<path d="M507.38 111.354C507.38 106.48 510.068 102.445 514.1 100.26L513.428 99.2514C509.06 101.605 506.036 106.143 506.036 111.354C506.036 116.565 509.06 121.104 513.428 123.457L514.1 122.449C510.068 120.432 507.38 116.229 507.38 111.354Z" fill="#76C1AA"/>
<path d="M526.028 99.2514L525.524 100.26C529.556 102.277 532.412 106.48 532.412 111.354C532.412 116.229 529.556 120.432 525.524 122.449L526.028 123.457C530.396 121.104 533.42 116.565 533.42 111.354C533.42 106.143 530.396 101.605 526.028 99.2514Z" fill="#76C1AA"/>
<path opacity="0.3" d="M519.812 114.044C521.296 114.044 522.5 112.84 522.5 111.354C522.5 109.869 521.296 108.665 519.812 108.665C518.327 108.665 517.124 109.869 517.124 111.354C517.124 112.84 518.327 114.044 519.812 114.044Z" fill="white"/>
<path opacity="0.3" d="M521.324 109.337L524.348 106.312C523.172 105.135 521.66 104.462 519.812 104.462V108.833C520.484 108.833 520.988 109.001 521.324 109.337Z" fill="white"/>
<path opacity="0.3" d="M522.332 111.354H526.7C526.7 109.673 526.028 107.992 524.852 106.816L521.828 109.842C522.164 110.178 522.332 110.682 522.332 111.354Z" fill="white"/>
<path opacity="0.3" d="M521.66 113.203L524.684 116.229C525.86 115.053 526.532 113.54 526.532 111.859H522.164C522.164 112.363 521.996 112.867 521.66 113.203Z" fill="white"/>
<path opacity="0.3" d="M518.132 113.54L515.108 116.565C516.284 117.574 517.628 118.246 519.308 118.246V113.876C518.804 113.876 518.468 113.708 518.132 113.54Z" fill="white"/>
<path opacity="0.3" d="M519.812 114.044V118.414C521.492 118.414 523.004 117.742 524.012 116.734L520.988 113.708C520.82 113.876 520.316 114.044 519.812 114.044Z" fill="white"/>
<path opacity="0.3" d="M517.46 110.01L514.436 106.984C513.428 108.161 512.756 109.673 512.756 111.354H517.124C517.124 110.85 517.292 110.346 517.46 110.01Z" fill="white"/>
<path opacity="0.3" d="M517.124 111.859H512.756C512.924 113.54 513.596 114.884 514.604 116.061L517.628 113.035C517.46 112.699 517.124 112.363 517.124 111.859Z" fill="white"/>
<path opacity="0.3" d="M519.308 108.833V104.462C517.628 104.631 516.116 105.303 514.94 106.312L517.964 109.337C518.3 109.169 518.636 108.833 519.308 108.833Z" fill="white"/>
<path d="M519.812 103.454C519.308 103.454 518.636 103.454 518.132 103.622C514.436 104.294 511.748 107.488 511.748 111.354C511.748 115.725 515.276 119.255 519.644 119.255C521.828 119.255 523.844 118.414 525.188 116.902C526.7 115.389 527.54 113.54 527.54 111.354C527.708 106.984 524.18 103.454 519.812 103.454ZM522.332 111.354C522.332 110.85 522.164 110.346 521.828 109.842L524.852 106.816C525.86 107.992 526.532 109.505 526.7 111.354H522.332ZM515.108 116.565L518.132 113.54C518.468 113.708 518.804 113.876 519.308 114.044V118.414C517.628 118.246 516.116 117.574 515.108 116.565ZM521.324 109.337C520.988 109.001 520.484 108.833 519.812 108.833V104.462C521.492 104.462 523.172 105.135 524.348 106.312L521.324 109.337ZM517.124 111.354H512.756C512.756 109.673 513.428 108.161 514.436 106.984L517.46 110.01C517.292 110.346 517.124 110.85 517.124 111.354ZM517.124 111.859C517.292 112.363 517.46 112.699 517.628 113.035L514.604 116.061C513.596 114.884 512.924 113.54 512.756 111.859H517.124ZM519.812 113.54C518.636 113.54 517.628 112.531 517.628 111.354C517.628 110.178 518.636 109.169 519.812 109.169C520.652 109.169 521.324 109.673 521.66 110.346V110.514C521.828 110.682 521.828 111.018 521.828 111.354C521.828 111.691 521.828 111.859 521.66 112.195C521.324 113.035 520.652 113.54 519.812 113.54ZM519.812 114.044C520.316 114.044 520.652 113.876 520.988 113.708L524.012 116.734C522.836 117.742 521.324 118.414 519.812 118.414V114.044ZM519.308 104.462V108.833C518.804 109.001 518.3 109.169 517.964 109.505L514.94 106.48C515.948 105.303 517.46 104.631 519.308 104.462ZM524.684 116.229L521.66 113.203C521.996 112.867 522.164 112.363 522.332 111.859H526.7C526.364 113.54 525.692 115.053 524.684 116.229Z" fill="white"/>
</g>
<g class="is-hidden-eje">
<path d="M563.828 129.677C573.942 129.677 582.14 121.474 582.14 111.354C582.14 101.235 573.942 93.0318 563.828 93.0318C553.715 93.0318 545.516 101.235 545.516 111.354C545.516 121.474 553.715 129.677 563.828 129.677Z" fill="#3B5266"/>
<path d="M551.564 111.354C551.564 106.48 554.252 102.445 558.284 100.26L557.612 99.2514C553.244 101.605 550.22 106.143 550.22 111.354C550.22 116.565 553.244 121.104 557.612 123.457L558.284 122.449C554.252 120.432 551.564 116.229 551.564 111.354Z" fill="#76C1AA"/>
<path d="M570.213 99.2514L569.708 100.26C573.741 102.277 576.597 106.48 576.597 111.354C576.597 116.229 573.741 120.432 569.708 122.449L570.213 123.457C574.581 121.104 577.605 116.565 577.605 111.354C577.605 106.143 574.581 101.605 570.213 99.2514Z" fill="#76C1AA"/>
<path opacity="0.3" d="M563.829 114.044C565.313 114.044 566.516 112.84 566.516 111.354C566.516 109.869 565.313 108.665 563.829 108.665C562.344 108.665 561.141 109.869 561.141 111.354C561.141 112.84 562.344 114.044 563.829 114.044Z" fill="white"/>
<path opacity="0.3" d="M565.508 109.337L568.532 106.312C567.356 105.135 565.844 104.462 563.996 104.462V108.833C564.668 108.833 565.172 109.001 565.508 109.337Z" fill="white"/>
<path opacity="0.3" d="M566.517 111.354H570.885C570.885 109.673 570.213 107.992 569.037 106.816L566.013 109.842C566.349 110.178 566.517 110.682 566.517 111.354Z" fill="white"/>
<path opacity="0.3" d="M565.845 113.203L568.869 116.229C570.045 115.053 570.717 113.54 570.717 111.859H566.349C566.349 112.363 566.181 112.867 565.845 113.203Z" fill="white"/>
<path opacity="0.3" d="M562.316 113.54L559.292 116.565C560.468 117.574 561.812 118.246 563.492 118.246V113.876C562.988 113.876 562.652 113.708 562.316 113.54Z" fill="white"/>
<path opacity="0.3" d="M563.996 114.044V118.414C565.676 118.414 567.188 117.742 568.196 116.734L565.172 113.708C565.004 113.876 564.5 114.044 563.996 114.044Z" fill="white"/>
<path opacity="0.3" d="M561.645 110.01L558.62 106.984C557.612 108.161 556.94 109.673 556.94 111.354H561.309C561.309 110.85 561.477 110.346 561.645 110.01Z" fill="white"/>
<path opacity="0.3" d="M561.308 111.859H556.94C557.108 113.54 557.78 114.884 558.788 116.061L561.812 113.035C561.644 112.699 561.308 112.363 561.308 111.859Z" fill="white"/>
<path opacity="0.3" d="M563.492 108.833V104.462C561.813 104.631 560.301 105.303 559.125 106.312L562.148 109.337C562.484 109.169 562.82 108.833 563.492 108.833Z" fill="white"/>
<path d="M563.996 103.454C563.492 103.454 562.82 103.454 562.316 103.622C558.62 104.294 555.932 107.488 555.932 111.354C555.932 115.725 559.46 119.255 563.828 119.255C566.012 119.255 568.028 118.414 569.372 116.902C570.884 115.389 571.724 113.54 571.724 111.354C571.892 106.984 568.364 103.454 563.996 103.454ZM566.516 111.354C566.516 110.85 566.348 110.346 566.012 109.842L569.036 106.816C570.044 107.992 570.716 109.505 570.884 111.354H566.516ZM559.292 116.565L562.316 113.54C562.652 113.708 562.988 113.876 563.492 114.044V118.414C561.812 118.246 560.3 117.574 559.292 116.565ZM565.508 109.337C565.172 109.001 564.668 108.833 563.996 108.833V104.462C565.676 104.462 567.356 105.135 568.532 106.312L565.508 109.337ZM561.308 111.354H556.94C556.94 109.673 557.612 108.161 558.62 106.984L561.644 110.01C561.476 110.346 561.308 110.85 561.308 111.354ZM561.308 111.859C561.476 112.363 561.644 112.699 561.812 113.035L558.788 116.061C557.78 114.884 557.108 113.54 556.94 111.859H561.308ZM563.828 113.54C562.652 113.54 561.644 112.531 561.644 111.354C561.644 110.178 562.652 109.169 563.828 109.169C564.668 109.169 565.34 109.673 565.676 110.346V110.514C565.844 110.682 565.844 111.018 565.844 111.354C565.844 111.691 565.844 111.859 565.676 112.195C565.508 113.035 564.836 113.54 563.828 113.54ZM563.996 114.044C564.5 114.044 564.836 113.876 565.172 113.708L568.196 116.734C567.02 117.742 565.508 118.414 563.996 118.414V114.044ZM563.492 104.462V108.833C562.988 109.001 562.484 109.169 562.148 109.505L559.124 106.48C560.132 105.303 561.644 104.631 563.492 104.462ZM568.868 116.229L565.844 113.203C566.18 112.867 566.348 112.363 566.516 111.859H570.884C570.548 113.54 569.876 115.053 568.868 116.229Z" fill="white"/>
</g>
<g class="is-hidden-eje">
<path d="M608.013 129.677C618.126 129.677 626.325 121.474 626.325 111.354C626.325 101.235 618.126 93.0318 608.013 93.0318C597.899 93.0318 589.701 101.235 589.701 111.354C589.701 121.474 597.899 129.677 608.013 129.677Z" fill="#3B5266"/>
<path d="M595.749 111.354C595.749 106.48 598.437 102.445 602.469 100.26L601.797 99.2514C597.429 101.605 594.405 106.143 594.405 111.354C594.405 116.565 597.429 121.104 601.797 123.457L602.469 122.449C598.437 120.432 595.749 116.229 595.749 111.354Z" fill="#76C1AA"/>
<path d="M614.397 99.2514L613.893 100.26C617.925 102.277 620.781 106.48 620.781 111.354C620.781 116.229 617.925 120.432 613.893 122.449L614.397 123.457C618.765 121.104 621.789 116.565 621.789 111.354C621.789 106.143 618.765 101.605 614.397 99.2514Z" fill="#76C1AA"/>
<path opacity="0.3" d="M608.013 114.044C609.497 114.044 610.701 112.84 610.701 111.354C610.701 109.869 609.497 108.665 608.013 108.665C606.528 108.665 605.325 109.869 605.325 111.354C605.325 112.84 606.528 114.044 608.013 114.044Z" fill="white"/>
<path opacity="0.3" d="M609.693 109.337L612.717 106.312C611.541 105.135 610.029 104.462 608.181 104.462V108.833C608.853 108.833 609.357 109.001 609.693 109.337Z" fill="white"/>
<path opacity="0.3" d="M610.701 111.354H615.069C615.069 109.673 614.397 107.992 613.221 106.816L610.197 109.842C610.365 110.178 610.701 110.682 610.701 111.354Z" fill="white"/>
<path opacity="0.3" d="M610.029 113.203L613.053 116.229C614.229 115.053 614.901 113.54 614.901 111.859H610.533C610.533 112.363 610.365 112.867 610.029 113.203Z" fill="white"/>
<path opacity="0.3" d="M606.501 113.54L603.477 116.565C604.653 117.574 605.997 118.246 607.677 118.246V113.876C607.173 113.876 606.837 113.708 606.501 113.54Z" fill="white"/>
<path opacity="0.3" d="M608.181 114.044V118.414C609.861 118.414 611.373 117.742 612.381 116.734L609.357 113.708C609.021 113.876 608.685 114.044 608.181 114.044Z" fill="white"/>
<path opacity="0.3" d="M605.829 110.01L602.805 106.984C601.797 108.161 601.125 109.673 601.125 111.354H605.493C605.493 110.85 605.661 110.346 605.829 110.01Z" fill="white"/>
<path opacity="0.3" d="M605.493 111.859H601.125C601.293 113.54 601.965 114.884 602.973 116.061L605.997 113.035C605.829 112.699 605.493 112.363 605.493 111.859Z" fill="white"/>
<path opacity="0.3" d="M607.509 108.833V104.462C605.829 104.631 604.317 105.303 603.141 106.312L606.165 109.337C606.669 109.169 607.005 108.833 607.509 108.833Z" fill="white"/>
<path d="M608.181 103.454C607.677 103.454 607.005 103.454 606.501 103.622C602.805 104.294 600.117 107.488 600.117 111.354C600.117 115.725 603.645 119.255 608.013 119.255C610.197 119.255 612.213 118.414 613.557 116.902C615.069 115.389 615.909 113.54 615.909 111.354C616.077 106.984 612.549 103.454 608.181 103.454ZM610.701 111.354C610.701 110.85 610.533 110.346 610.197 109.842L613.221 106.816C614.229 107.992 614.901 109.505 615.069 111.354H610.701ZM603.477 116.565L606.501 113.54C606.837 113.708 607.173 113.876 607.677 114.044V118.414C605.997 118.246 604.485 117.574 603.477 116.565ZM609.693 109.337C609.357 109.001 608.853 108.833 608.181 108.833V104.462C609.861 104.462 611.541 105.135 612.717 106.312L609.693 109.337ZM605.493 111.354H601.125C601.125 109.673 601.797 108.161 602.805 106.984L605.829 110.01C605.661 110.346 605.493 110.85 605.493 111.354ZM605.493 111.859C605.661 112.363 605.829 112.699 605.997 113.035L602.973 116.061C601.965 114.884 601.293 113.54 601.125 111.859H605.493ZM608.013 113.54C606.837 113.54 605.829 112.531 605.829 111.354C605.829 110.178 606.837 109.169 608.013 109.169C608.853 109.169 609.525 109.673 609.861 110.346V110.514C610.029 110.682 610.029 111.018 610.029 111.354C610.029 111.691 610.029 111.859 609.861 112.195C609.693 113.035 609.021 113.54 608.013 113.54ZM608.181 114.044C608.685 114.044 609.021 113.876 609.357 113.708L612.381 116.734C611.205 117.742 609.693 118.414 608.181 118.414V114.044ZM607.509 104.462V108.833C607.005 109.001 606.501 109.169 606.165 109.505L603.141 106.48C604.317 105.303 605.829 104.631 607.509 104.462ZM613.053 116.229L610.029 113.203C610.365 112.867 610.533 112.363 610.701 111.859H615.069C614.733 113.54 614.061 115.053 613.053 116.229Z" fill="white"/>
</g>
<path d="M96.7856 96.3937C96.7856 96.3937 96.9536 96.3937 96.7856 96.3937C96.9536 96.3937 96.9536 96.3937 96.7856 96.3937C96.9536 96.3937 98.1296 96.2257 98.9696 95.5533C99.8096 94.5447 100.146 92.8637 99.4736 92.0232C99.1376 91.687 98.6336 91.5189 98.1296 91.5189C97.6256 91.687 97.2896 91.8551 97.1216 92.3594C97.1216 92.5275 97.1216 92.5275 97.1216 92.6956C97.2896 92.6956 97.2896 92.6956 97.4576 92.6956C97.6256 92.5275 97.7936 92.5275 97.9616 92.5275C98.1296 92.5275 98.1296 92.6956 98.2976 92.8637C98.2976 93.0318 98.2976 93.1999 98.1296 93.368L97.9616 93.5361C97.6256 93.5361 97.1216 93.1999 96.6176 92.6956C96.1136 92.1913 95.4416 91.8551 94.9376 91.5189C94.0976 91.1827 91.5776 90.6785 89.8975 91.8551C89.8975 91.8551 88.8895 92.6956 88.7215 93.368C88.3855 94.0404 88.3855 94.8809 88.5535 95.3852C88.3855 95.5533 88.2175 95.7214 88.2175 96.0576C88.2175 96.5619 88.7215 96.898 89.5615 97.0661C89.5615 97.2342 89.3935 97.2342 89.3935 97.4023C89.3935 97.9066 90.0656 98.4109 90.9056 98.4109C91.5776 98.4109 92.0816 98.2428 92.2496 97.9066C92.4176 98.2428 92.9216 98.4109 93.5936 98.4109C94.4336 98.4109 95.1056 97.9066 95.1056 97.4023C95.1056 97.2342 95.1056 97.0661 94.9376 97.0661C95.4416 97.0661 95.7776 96.898 96.1136 96.5618C96.1136 96.5618 96.1136 96.5618 96.2816 96.5618C96.1136 96.5618 96.4496 96.5618 96.7856 96.3937ZM97.9616 95.7214C97.7936 95.8895 97.4576 95.8895 97.2896 95.8895C97.4576 94.8809 96.7856 93.8723 96.6176 93.368C96.9536 93.7042 97.2896 93.8723 97.6256 94.0404C97.7936 94.3766 98.1296 94.8809 97.9616 95.7214ZM96.1136 96.2257C96.1136 96.0576 95.9456 95.7214 95.7776 95.3852C95.4416 94.7128 94.7696 93.7042 93.0896 93.1999C90.9056 92.5275 89.8975 92.8637 89.3935 93.1999C89.3935 93.1999 89.3935 93.1999 89.5615 93.0318C89.7295 92.8637 89.8976 92.6956 90.0656 92.5275C90.7376 92.1913 91.9136 92.1913 93.5936 92.6956C95.7776 93.368 96.4496 94.8809 96.6176 95.5533C96.6176 95.7214 96.7856 96.0576 96.7856 96.2257C96.7856 96.2257 96.7856 96.2257 96.6176 96.2257C96.2816 96.0576 96.2816 96.2257 96.1136 96.2257ZM92.9216 94.0404C92.5856 94.0404 92.4176 94.2085 92.2496 94.3766C91.9136 94.0404 91.5776 93.8723 90.9056 93.8723C90.7376 93.8723 90.5696 93.8723 90.4016 93.8723C90.9056 93.7042 91.5776 93.7042 92.2496 93.7042C92.4176 94.0404 92.5856 94.0404 92.9216 94.0404ZM90.9056 94.5447C91.4096 94.5447 91.9136 94.8809 91.9136 95.049C91.9136 95.2171 91.7456 95.3852 91.5776 95.3852H91.4096C91.2416 95.3852 91.0736 95.3852 90.9056 95.3852C90.4016 95.3852 89.8975 95.049 89.8975 94.8809C89.8975 94.7128 90.2336 94.5447 90.9056 94.5447ZM91.5776 95.8895H91.7456C91.9136 95.8895 91.9136 95.8895 92.0816 95.8895C92.7536 95.8895 93.0896 96.2257 93.0896 96.3937C93.0896 96.5618 92.5856 96.898 92.0816 96.898C91.4096 96.898 91.0735 96.5618 91.0735 96.3937C91.0735 96.2257 91.2416 96.0576 91.5776 95.8895ZM92.4176 95.049C92.4176 94.8809 92.9216 94.5447 93.4256 94.5447C93.5936 94.5447 93.5936 94.5447 93.7616 94.5447C94.0976 94.5447 94.4336 94.8809 94.4336 95.049C94.4336 95.2171 94.2656 95.3852 93.9296 95.5533C93.7616 95.5533 93.5936 95.5533 93.4256 95.5533C92.7536 95.5533 92.4176 95.2171 92.4176 95.049ZM89.2255 95.3852C89.2255 95.2171 89.2255 95.2171 89.2255 95.049C89.2255 94.8809 89.3935 94.7128 89.5615 94.5447C89.3935 94.7128 89.3935 94.8809 89.3935 95.049C89.3935 95.2171 89.3935 95.3852 89.5615 95.3852C89.3935 95.3852 89.3935 95.3852 89.2255 95.3852ZM88.5535 96.3937C88.5535 96.2257 88.7215 96.2257 88.8896 96.0576C89.0576 96.0576 89.2255 95.8895 89.3935 95.8895C89.5615 95.8895 89.5616 95.8895 89.7296 95.8895C90.4016 95.8895 90.7376 96.2257 90.7376 96.3937C90.7376 96.5618 90.5696 96.5619 90.5696 96.7299C90.4016 96.898 90.0656 96.898 89.7296 96.898C88.8896 96.898 88.5535 96.5618 88.5535 96.3937ZM90.7376 98.2428C90.0655 98.2428 89.7296 98.0747 89.7296 97.7385C89.7296 97.5704 90.2335 97.2342 90.7376 97.2342C91.0736 97.2342 91.2416 97.2342 91.5776 97.4023C91.5776 97.4023 91.7456 97.5704 91.7456 97.7385C91.7456 97.9066 91.2416 98.2428 90.7376 98.2428ZM93.4256 98.2428C92.7536 98.2428 92.4176 97.9066 92.4176 97.7385C92.4176 97.7385 92.4176 97.5704 92.5856 97.5704C92.7536 97.4023 93.0896 97.2342 93.4256 97.2342C93.5936 97.2342 93.7616 97.2342 93.9296 97.2342C94.2656 97.4023 94.4336 97.5704 94.4336 97.7385C94.4336 97.9066 93.9296 98.2428 93.4256 98.2428ZM95.6096 96.5618C95.4416 96.7299 95.1056 96.898 94.6016 96.898C94.4336 96.898 94.2656 96.898 94.0976 96.898C93.7616 96.7299 93.5936 96.5618 93.5936 96.3937C93.5936 96.2257 93.7616 96.0576 94.0976 95.8895C94.2656 95.8895 94.4336 95.8895 94.6016 95.8895C94.7696 95.8895 94.7696 95.8895 94.9376 95.8895C95.2736 95.8895 95.6096 96.0576 95.6096 96.5618C95.6096 96.3937 95.6096 96.3937 95.6096 96.5618Z" fill="white"/>
<path d="M108.882 91.0147V78.7436C108.882 78.5755 108.882 78.4074 108.714 78.4074C108.546 78.4074 108.378 78.4074 108.378 78.4074L107.034 79.0798V74.7093C107.034 74.5412 107.034 74.3731 106.866 74.3731C106.698 74.3731 106.53 74.3731 106.53 74.3731L100.482 78.2393H100.314C99.3056 78.5755 98.2976 78.7436 97.4576 78.7436C94.6016 78.7436 93.5936 76.8945 93.5936 76.8945C93.5936 76.7264 93.4256 76.7264 93.2576 76.7264C93.0896 76.7264 92.9216 76.8945 92.9216 76.8945C92.9216 76.8945 91.9136 78.7436 89.0576 78.7436C88.2176 78.7436 87.2096 78.5755 86.2016 78.2393L80.1535 74.3731C79.9855 74.3731 79.8175 74.3731 79.6495 74.3731C79.4815 74.3731 79.4815 74.5412 79.4815 74.7093V79.0798L78.3055 78.4074C78.1375 78.4074 77.9695 78.4074 77.9695 78.4074C77.8015 78.4074 77.8015 78.5755 77.8015 78.7436V91.0147C77.8015 91.1828 77.8015 94.2085 80.3215 96.5619C82.5055 98.7471 85.8656 99.9238 90.4016 99.9238C90.4016 99.9238 90.4016 99.9238 90.5696 99.9238C92.2496 100.428 93.2576 100.764 93.2576 102.277C93.2576 102.445 93.4256 102.613 93.5936 102.613C93.7616 102.613 93.9296 102.445 93.9296 102.277C93.9296 100.932 94.9376 100.428 96.6176 99.9238H96.7856C101.322 99.9238 104.682 98.7471 106.866 96.5619C108.882 94.2085 108.882 91.3509 108.882 91.0147ZM87.3776 87.4846C87.8816 87.3165 88.0496 86.3079 88.0496 86.3079C88.0496 86.3079 88.8896 86.8122 89.3936 86.6441C89.3936 86.8122 89.3936 87.3165 89.3936 87.3165C89.3936 87.3165 89.2256 87.6527 89.3936 87.9889C89.5616 88.157 89.5616 88.4932 89.5616 88.8294C89.2256 88.8294 89.0576 88.8294 88.7216 88.8294C88.2176 88.8294 87.7136 88.8294 87.3776 88.8294C87.3776 88.157 87.3776 87.9889 87.3776 87.4846ZM96.7856 86.8122H97.7936C97.7936 87.3165 97.7936 87.8208 97.9616 88.6613L96.7856 88.4932C96.7856 87.8208 96.7856 87.3165 96.7856 86.8122ZM105.018 88.3251C104.346 88.9975 103.338 89.3337 102.162 89.3337C101.826 88.4932 101.658 87.6527 101.658 86.9803L106.194 84.4589C106.194 84.9632 106.194 87.1484 105.018 88.3251ZM80.1535 84.627L84.6896 87.1484C84.6896 87.8208 84.5216 88.6613 84.1856 89.5018C83.0095 89.5018 82.1695 89.1656 81.4975 88.4932C80.1535 87.1484 80.1535 84.9632 80.1535 84.627ZM108.042 79.5841V87.1484L106.026 88.3251C107.034 86.6441 107.034 84.7951 107.034 84.4589V80.0884L108.042 79.5841ZM106.194 79.5841L102.834 81.6012C102.666 81.4331 102.162 80.7607 100.986 78.9117L106.194 75.5497V79.5841ZM97.2896 79.5841C98.1296 79.5841 99.1376 79.416 100.146 79.0798C101.322 80.7608 101.826 81.6012 102.162 81.9374C101.658 82.7779 100.146 85.6356 101.322 89.1656C100.818 88.6613 99.6416 88.4932 98.4656 88.4932C98.2976 87.6527 98.2976 87.1484 98.2976 86.6441H100.146C100.314 86.6441 100.314 86.308 100.314 85.9718V84.2908C100.314 82.946 99.6416 82.946 99.6416 82.946C99.6416 82.946 99.1376 82.946 98.9696 82.2736C98.8016 81.6012 98.2976 81.0969 97.7936 81.0969C97.2896 81.0969 96.2816 81.4331 95.6096 81.9374C95.1056 82.1055 95.1056 82.4417 95.1056 82.946C94.9376 84.1227 94.6016 83.9546 94.6016 83.9546C94.4336 83.9546 94.2656 84.1227 94.2656 84.4589V86.1399C94.2656 86.476 94.4336 86.8122 94.6016 86.8122H96.4496C96.4496 87.3165 96.4496 87.8208 96.2816 88.6613C95.1056 88.6613 94.0976 88.9975 93.4256 89.5018V78.2393C93.9296 78.7436 95.2736 79.5841 97.2896 79.5841ZM92.5856 78.4074V89.1656C92.0816 88.8294 91.2416 88.6613 90.2336 88.6613C90.0656 88.157 90.0656 86.8122 90.2336 86.476C91.0736 86.3079 91.0736 85.4675 91.0736 84.7951C91.0736 84.2908 90.9056 82.4417 90.9056 82.4417L91.4096 82.2736C91.5776 82.2736 91.5776 82.2736 91.5776 82.1055C91.5776 81.9374 91.5776 81.7693 91.5776 81.7693L91.0736 81.6012C90.9056 81.4331 90.7376 81.265 90.5696 81.265C90.4016 81.265 90.0656 81.265 89.8976 81.6012C89.7296 81.4331 89.3936 81.6012 89.2256 81.6012C89.2256 81.6012 89.2256 82.4417 90.0656 82.2736L90.2336 84.4589C90.2336 84.4589 90.2336 84.9632 89.7296 84.7951C89.2256 84.627 88.2176 84.2908 87.5456 84.4589C87.2096 84.627 86.7056 84.7951 86.3696 85.6356C86.0336 86.476 86.5376 86.1399 86.5376 86.1399L87.0416 85.8037C87.0416 85.8037 87.3776 86.476 87.0416 86.9803C86.7056 87.3165 86.8735 87.6527 86.8735 87.6527C86.8735 87.6527 87.0416 88.4932 87.0416 88.8294C86.2016 88.8294 85.5296 89.1656 85.0256 89.3337C86.0336 85.8037 84.6896 82.946 84.1856 82.1055C84.5216 81.7693 85.0255 80.9288 86.2016 79.2479C87.2096 79.5841 88.2176 79.7522 89.0576 79.7522C90.7376 79.5841 91.7456 79.0798 92.5856 78.4074ZM80.1535 75.5497L85.3616 78.9117C84.3535 80.5926 83.6815 81.265 83.5135 81.6012L80.1535 79.7522V75.5497ZM79.3135 80.0884V84.4589C79.3135 84.627 79.3135 86.6441 80.3215 88.3251L78.3055 87.1484V79.5841L79.3135 80.0884ZM78.4735 92.3594L83.5135 95.2171C84.0175 96.5619 84.8575 97.4023 86.2016 98.579C86.5376 98.9152 87.0416 99.0833 87.3776 99.2514C84.3535 98.9152 82.0015 97.9066 80.4895 96.2257C79.1455 94.8809 78.6415 93.368 78.4735 92.3594ZM93.0896 100.932C92.4176 99.9238 91.2416 99.5876 89.8976 99.2514C88.7216 98.9152 87.5456 98.579 86.5376 97.7385C84.0175 95.8895 83.1775 94.2085 84.5215 90.3423H101.658C103.002 94.2085 102.162 95.7214 99.6416 97.7385C98.6336 98.4109 97.4576 98.9152 96.2816 99.0833C94.9376 99.5876 93.7616 99.9238 93.0896 100.932ZM105.858 96.2257C104.178 97.9066 101.826 98.9152 98.8016 99.2514C99.3056 99.0833 99.6416 98.7471 99.9776 98.579C101.322 97.5704 102.33 96.5619 102.666 95.3852C102.666 95.3852 102.666 95.3852 102.834 95.3852L107.874 92.5275C107.706 93.368 107.202 94.8809 105.858 96.2257Z" fill="white"/>
<path d="M93.0897 76.3902C95.4417 76.3902 97.1217 75.2135 97.1217 73.7007C97.1217 72.1878 95.2737 71.0111 93.0897 71.0111C90.7377 71.0111 89.0576 72.1878 89.0576 73.7007C89.0576 75.2135 90.7377 76.3902 93.0897 76.3902ZM93.0897 72.1878C94.2657 72.1878 95.1057 72.6921 95.1057 73.1964C95.1057 73.7007 94.6017 74.0369 93.9297 74.205C93.2577 74.3731 93.4257 74.7093 93.0897 74.8774C92.7537 74.7093 92.9217 74.3731 92.2497 74.205C91.5777 74.0369 91.0736 73.7007 91.0736 73.1964C91.0736 72.6921 91.9137 72.1878 93.0897 72.1878Z" fill="white"/>
</svg>
