<svg class="tracto-dolly-modular transport-item is-hidden" width="851" height="118" viewBox="0 0 851 118" fill="none" xmlns="http://www.w3.org/2000/svg">
<path d="M137.024 83.4659V80.1315H127.454V10.8348H122.959V0.39679H118.029V10.6899H115.709V72.303H110.925V16.0539H103.095V17.3586H66.1197V23.7374H71.0497L57.7097 57.3709H7.97497L7.53997 92.1643H0V99.7027H8.26497V103.037H242.729V83.6109H137.024V83.4659ZM90.9146 57.3709H72.7897L80.9096 24.8971H90.9146V57.3709Z" fill="#30876A"/>
<path d="M170.809 62.4449H250.269L274.629 82.886H391.643V100.283H268.394L243.744 78.3919H170.809V62.4449Z" fill="#DCE9EF" stroke="#65819B" stroke-width="1.0365" stroke-miterlimit="10"/>
<path d="M310.009 48.0927H423.398V83.4659H850.276V100.428H406.723V89.9897L398.603 60.2704H345.823L331.323 75.4925H311.024L310.009 48.0927Z" fill="#DCE9EF" stroke="#65819B" stroke-width="1.0365" stroke-miterlimit="10"/>
<path d="M406.723 89.9897H423.398V83.4659" fill="#DCE9EF"/>
<path d="M406.723 89.9897H423.398V83.4659" stroke="#65819B" stroke-width="1.0365" stroke-miterlimit="10"/>
<g>
<path d="M35.2349 117.679C43.9637 117.679 51.0398 110.605 51.0398 101.877C51.0398 93.1502 43.9637 86.0754 35.2349 86.0754C26.506 86.0754 19.4299 93.1502 19.4299 101.877C19.4299 110.605 26.506 117.679 35.2349 117.679Z" fill="#3B5266"/>
<path d="M24.505 101.877C24.505 97.6731 26.825 94.1938 30.3049 92.3092L29.7249 91.4394C25.955 93.469 23.345 97.3832 23.345 101.877C23.345 106.371 25.955 110.286 29.7249 112.315L30.3049 111.446C26.825 109.561 24.505 105.937 24.505 101.877Z" fill="#76C1AA"/>
<path d="M40.7448 91.4394L40.3098 92.3092C43.7898 94.0489 46.2548 97.6731 46.2548 101.877C46.2548 106.082 43.7898 109.706 40.3098 111.446L40.7448 112.315C44.5148 110.286 47.1248 106.371 47.1248 101.877C46.9798 97.2382 44.5148 93.324 40.7448 91.4394Z" fill="#76C1AA"/>
<path opacity="0.3" d="M35.2348 104.197C36.5161 104.197 37.5547 103.158 37.5547 101.877C37.5547 100.596 36.5161 99.5578 35.2348 99.5578C33.9535 99.5578 32.9148 100.596 32.9148 101.877C32.9148 103.158 33.9535 104.197 35.2348 104.197Z" fill="white"/>
<path opacity="0.3" d="M36.6851 100.138L39.2951 97.5282C38.2801 96.5134 36.9751 95.9335 35.3801 95.9335V99.7028C35.8151 99.7028 36.2501 99.8478 36.6851 100.138Z" fill="white"/>
<path opacity="0.3" d="M37.4099 101.732H41.1798C41.1798 100.283 40.5998 98.8329 39.5848 97.8181L36.9749 100.428C37.2649 100.863 37.4099 101.298 37.4099 101.732Z" fill="white"/>
<path opacity="0.3" d="M36.8301 103.472L39.4401 106.082C40.4551 105.067 41.0351 103.762 41.0351 102.312H37.2651C37.4101 102.747 37.1201 103.037 36.8301 103.472Z" fill="white"/>
<path opacity="0.3" d="M33.9301 103.617L31.3201 106.226C32.3351 107.096 33.495 107.676 34.945 107.676V103.907C34.51 104.052 34.075 103.907 33.9301 103.617Z" fill="white"/>
<path opacity="0.3" d="M35.3801 104.052V107.821C36.8301 107.821 38.1351 107.241 39.0051 106.372L36.3951 103.762C36.1051 103.907 35.8151 104.052 35.3801 104.052Z" fill="white"/>
<path opacity="0.3" d="M33.35 100.573L30.74 97.9631C29.87 98.978 29.29 100.283 29.29 101.732H33.06C32.915 101.298 33.06 101.008 33.35 100.573Z" fill="white"/>
<path opacity="0.3" d="M32.915 102.312H29.145C29.29 103.762 29.87 104.922 30.74 105.937L33.35 103.327C33.205 103.037 33.06 102.747 32.915 102.312Z" fill="white"/>
<path opacity="0.3" d="M34.8 99.5578V95.9335C33.35 96.0785 32.045 96.6584 31.03 97.5282L33.64 100.138C33.93 99.8478 34.365 99.7028 34.8 99.5578Z" fill="white"/>
<path d="M35.3799 95.0637C34.9449 95.0637 34.3649 95.0636 33.9299 95.2086C30.7399 95.7885 28.4199 98.5429 28.4199 101.877C28.4199 105.647 31.4649 108.691 35.2349 108.691C37.1199 108.691 38.8599 107.966 40.0199 106.661C41.3249 105.357 42.0499 103.762 42.0499 101.877C42.0499 98.108 39.1499 95.0637 35.3799 95.0637ZM37.4099 101.732C37.4099 101.297 37.2649 100.862 36.9749 100.428L39.5849 97.8181C40.4549 98.8329 41.0349 100.138 41.1799 101.732H37.4099ZM31.1749 106.372L33.7849 103.762C34.0749 103.907 34.3649 104.052 34.7999 104.197V107.966C33.4949 107.676 32.1899 107.241 31.1749 106.372ZM36.6849 100.138C36.3949 99.8478 35.9599 99.7027 35.3799 99.7027V95.9335C36.8299 95.9335 38.2799 96.5133 39.2949 97.5281L36.6849 100.138ZM32.9149 101.732H29.1449C29.1449 100.283 29.7249 98.9779 30.5949 97.9631L33.2049 100.573C33.0599 101.008 32.9149 101.297 32.9149 101.732ZM32.9149 102.312C33.0599 102.747 33.2049 103.037 33.3499 103.327L30.7399 105.937C29.8699 104.922 29.2899 103.762 29.1449 102.312H32.9149ZM35.2349 103.762C34.2199 103.762 33.3499 102.892 33.3499 101.877C33.3499 100.862 34.2199 99.9927 35.2349 99.9927C35.9599 99.9927 36.5399 100.428 36.8299 101.008V101.152C36.9749 101.297 36.9749 101.587 36.9749 101.877C36.9749 102.167 36.9749 102.312 36.8299 102.602C36.6849 103.182 35.9599 103.762 35.2349 103.762ZM35.3799 104.052C35.8149 104.052 36.1049 103.907 36.3949 103.762L39.0049 106.372C37.9899 107.241 36.6849 107.821 35.3799 107.821V104.052ZM34.7999 95.9335V99.7027C34.3649 99.8477 33.9299 99.9927 33.6399 100.283L31.0299 97.6732C32.0449 96.6583 33.3499 95.9335 34.7999 95.9335ZM39.4399 106.082L36.8299 103.472C37.1199 103.182 37.2649 102.747 37.4099 102.312H41.1799C41.0349 103.762 40.4549 105.067 39.4399 106.082Z" fill="white"/>
</g>
<g>
<path d="M147.899 117.679C156.628 117.679 163.704 110.605 163.704 101.877C163.704 93.1502 156.628 86.0754 147.899 86.0754C139.171 86.0754 132.094 93.1502 132.094 101.877C132.094 110.605 139.171 117.679 147.899 117.679Z" fill="#3B5266"/>
<path d="M137.169 101.877C137.169 97.6731 139.489 94.1938 142.969 92.3092L142.389 91.4394C138.619 93.469 136.009 97.3832 136.009 101.877C136.009 106.371 138.619 110.286 142.389 112.315L142.969 111.446C139.489 109.561 137.169 105.937 137.169 101.877Z" fill="#76C1AA"/>
<path d="M153.264 91.4394L152.829 92.3092C156.309 94.0489 158.774 97.6731 158.774 101.877C158.774 106.082 156.309 109.706 152.829 111.446L153.264 112.315C157.034 110.286 159.644 106.371 159.644 101.877C159.644 97.2382 157.034 93.324 153.264 91.4394Z" fill="#76C1AA"/>
<path opacity="0.3" d="M147.899 104.197C149.181 104.197 150.219 103.158 150.219 101.877C150.219 100.596 149.181 99.5578 147.899 99.5578C146.618 99.5578 145.579 100.596 145.579 101.877C145.579 103.158 146.618 104.197 147.899 104.197Z" fill="white"/>
<path opacity="0.3" d="M149.204 100.138L151.814 97.5282C150.799 96.5134 149.494 95.9335 147.899 95.9335V99.7028C148.479 99.7028 148.914 99.8478 149.204 100.138Z" fill="white"/>
<path opacity="0.3" d="M150.074 101.732H153.844C153.844 100.283 153.264 98.8329 152.249 97.8181L149.639 100.428C149.929 100.863 150.074 101.298 150.074 101.732Z" fill="white"/>
<path opacity="0.3" d="M149.495 103.472L152.105 106.082C153.12 105.067 153.7 103.762 153.7 102.312H149.93C149.93 102.747 149.785 103.037 149.495 103.472Z" fill="white"/>
<path opacity="0.3" d="M146.45 103.617L143.84 106.226C144.855 107.096 146.015 107.676 147.465 107.676V103.907C147.03 104.052 146.74 103.907 146.45 103.617Z" fill="white"/>
<path opacity="0.3" d="M148.045 104.052V107.821C149.495 107.821 150.8 107.241 151.67 106.372L149.06 103.762C148.77 103.907 148.335 104.052 148.045 104.052Z" fill="white"/>
<path opacity="0.3" d="M145.87 100.573L143.26 97.9631C142.39 98.978 141.81 100.283 141.81 101.732H145.58C145.58 101.298 145.725 101.008 145.87 100.573Z" fill="white"/>
<path opacity="0.3" d="M145.58 102.312H141.81C141.955 103.762 142.535 104.922 143.405 105.937L146.015 103.327C145.87 103.037 145.725 102.747 145.58 102.312Z" fill="white"/>
<path opacity="0.3" d="M147.465 99.5578V95.9335C146.015 96.0785 144.71 96.6584 143.695 97.5282L146.305 100.138C146.595 99.8478 147.03 99.7028 147.465 99.5578Z" fill="white"/>
<path d="M147.899 95.0637C147.464 95.0637 146.884 95.0636 146.449 95.2086C143.259 95.7885 140.939 98.5429 140.939 101.877C140.939 105.647 143.984 108.691 147.754 108.691C149.639 108.691 151.379 107.966 152.539 106.661C153.844 105.357 154.569 103.762 154.569 101.877C154.714 98.108 151.669 95.0637 147.899 95.0637ZM150.074 101.732C150.074 101.297 149.929 100.862 149.639 100.428L152.249 97.8181C153.119 98.8329 153.699 100.138 153.844 101.732H150.074ZM143.839 106.372L146.449 103.762C146.739 103.907 147.029 104.052 147.464 104.197V107.966C146.014 107.676 144.854 107.241 143.839 106.372ZM149.204 100.138C148.914 99.8478 148.479 99.7027 147.899 99.7027V95.9335C149.349 95.9335 150.799 96.5133 151.814 97.5281L149.204 100.138ZM145.579 101.732H141.809C141.809 100.283 142.389 98.9779 143.259 97.9631L145.869 100.573C145.724 101.008 145.579 101.297 145.579 101.732ZM145.579 102.312C145.724 102.747 145.869 103.037 146.014 103.327L143.404 105.937C142.534 104.922 141.954 103.762 141.809 102.312H145.579ZM147.899 103.762C146.884 103.762 146.014 102.892 146.014 101.877C146.014 100.862 146.884 99.9927 147.899 99.9927C148.624 99.9927 149.204 100.428 149.494 101.008V101.152C149.639 101.297 149.639 101.587 149.639 101.877C149.639 102.167 149.639 102.312 149.494 102.602C149.349 103.182 148.624 103.762 147.899 103.762ZM148.044 104.052C148.479 104.052 148.769 103.907 149.059 103.762L151.669 106.372C150.654 107.241 149.349 107.821 148.044 107.821V104.052ZM147.464 95.9335V99.7027C147.029 99.8477 146.594 99.9927 146.304 100.283L143.694 97.6732C144.709 96.6583 146.014 95.9335 147.464 95.9335ZM152.104 106.082L149.494 103.472C149.784 103.182 149.929 102.747 150.074 102.312H153.844C153.699 103.762 153.119 105.067 152.104 106.082Z" fill="white"/>
</g>
<g>
<path d="M185.599 117.679C194.328 117.679 201.404 110.605 201.404 101.877C201.404 93.1502 194.328 86.0754 185.599 86.0754C176.87 86.0754 169.794 93.1502 169.794 101.877C169.794 110.605 176.87 117.679 185.599 117.679Z" fill="#3B5266"/>
<path d="M174.869 101.877C174.869 97.6731 177.189 94.1938 180.669 92.3092L180.089 91.4394C176.319 93.469 173.709 97.3832 173.709 101.877C173.709 106.371 176.319 110.286 180.089 112.315L180.669 111.446C177.189 109.561 174.869 105.937 174.869 101.877Z" fill="#76C1AA"/>
<path d="M190.964 91.4394L190.529 92.3092C194.009 94.0489 196.474 97.6731 196.474 101.877C196.474 106.082 194.009 109.706 190.529 111.446L190.964 112.315C194.734 110.286 197.344 106.371 197.344 101.877C197.344 97.2382 194.734 93.324 190.964 91.4394Z" fill="#76C1AA"/>
<path opacity="0.3" d="M185.599 104.197C186.88 104.197 187.919 103.158 187.919 101.877C187.919 100.596 186.88 99.5578 185.599 99.5578C184.318 99.5578 183.279 100.596 183.279 101.877C183.279 103.158 184.318 104.197 185.599 104.197Z" fill="white"/>
<path opacity="0.3" d="M186.904 100.138L189.514 97.5282C188.499 96.5134 187.194 95.9335 185.599 95.9335V99.7028C186.179 99.7028 186.614 99.8478 186.904 100.138Z" fill="white"/>
<path opacity="0.3" d="M187.774 101.732H191.544C191.544 100.283 190.964 98.8329 189.949 97.8181L187.339 100.428C187.629 100.863 187.774 101.298 187.774 101.732Z" fill="white"/>
<path opacity="0.3" d="M187.194 103.472L189.804 106.082C190.819 105.067 191.399 103.762 191.399 102.312H187.629C187.629 102.747 187.484 103.037 187.194 103.472Z" fill="white"/>
<path opacity="0.3" d="M184.149 103.617L181.539 106.226C182.554 107.096 183.714 107.676 185.164 107.676V103.907C184.729 104.052 184.439 103.907 184.149 103.617Z" fill="white"/>
<path opacity="0.3" d="M185.744 104.052V107.821C187.194 107.821 188.499 107.241 189.369 106.372L186.759 103.762C186.469 103.907 186.034 104.052 185.744 104.052Z" fill="white"/>
<path opacity="0.3" d="M183.569 100.573L180.959 97.9631C180.089 98.978 179.509 100.283 179.509 101.732H183.279C183.279 101.298 183.424 101.008 183.569 100.573Z" fill="white"/>
<path opacity="0.3" d="M183.279 102.312H179.509C179.654 103.762 180.234 104.922 181.104 105.937L183.714 103.327C183.569 103.037 183.424 102.747 183.279 102.312Z" fill="white"/>
<path opacity="0.3" d="M185.164 99.5578V95.9335C183.714 96.0785 182.409 96.6584 181.394 97.5282L184.004 100.138C184.294 99.8478 184.729 99.7028 185.164 99.5578Z" fill="white"/>
<path d="M185.599 95.0637C185.164 95.0637 184.584 95.0636 184.149 95.2086C180.959 95.7885 178.639 98.5429 178.639 101.877C178.639 105.647 181.684 108.691 185.454 108.691C187.339 108.691 189.079 107.966 190.239 106.661C191.544 105.357 192.269 103.762 192.269 101.877C192.414 98.108 189.369 95.0637 185.599 95.0637ZM187.774 101.732C187.774 101.297 187.629 100.862 187.339 100.428L189.949 97.8181C190.819 98.8329 191.399 100.138 191.544 101.732H187.774ZM181.539 106.372L184.149 103.762C184.439 103.907 184.729 104.052 185.164 104.197V107.966C183.714 107.676 182.554 107.241 181.539 106.372ZM186.904 100.138C186.614 99.8478 186.179 99.7027 185.599 99.7027V95.9335C187.049 95.9335 188.499 96.5133 189.514 97.5281L186.904 100.138ZM183.279 101.732H179.509C179.509 100.283 180.089 98.9779 180.959 97.9631L183.569 100.573C183.424 101.008 183.279 101.297 183.279 101.732ZM183.279 102.312C183.424 102.747 183.569 103.037 183.714 103.327L181.104 105.937C180.234 104.922 179.654 103.762 179.509 102.312H183.279ZM185.599 103.762C184.584 103.762 183.714 102.892 183.714 101.877C183.714 100.862 184.584 99.9927 185.599 99.9927C186.324 99.9927 186.904 100.428 187.194 101.008V101.152C187.339 101.297 187.339 101.587 187.339 101.877C187.339 102.167 187.339 102.312 187.194 102.602C187.049 103.182 186.324 103.762 185.599 103.762ZM185.744 104.052C186.179 104.052 186.469 103.907 186.759 103.762L189.369 106.372C188.354 107.241 187.049 107.821 185.744 107.821V104.052ZM185.164 95.9335V99.7027C184.729 99.8477 184.294 99.9927 184.004 100.283L181.394 97.6732C182.409 96.6583 183.714 95.9335 185.164 95.9335ZM189.804 106.082L187.194 103.472C187.484 103.182 187.629 102.747 187.774 102.312H191.544C191.399 103.762 190.819 105.067 189.804 106.082Z" fill="white"/>
</g>
<g>
<path d="M223.299 117.679C232.028 117.679 239.104 110.605 239.104 101.877C239.104 93.1502 232.028 86.0754 223.299 86.0754C214.57 86.0754 207.494 93.1502 207.494 101.877C207.494 110.605 214.57 117.679 223.299 117.679Z" fill="#3B5266"/>
<path d="M212.569 101.877C212.569 97.6731 214.889 94.1938 218.369 92.3092L217.789 91.4394C214.019 93.469 211.409 97.3832 211.409 101.877C211.409 106.371 214.019 110.286 217.789 112.315L218.369 111.446C214.889 109.561 212.569 105.937 212.569 101.877Z" fill="#76C1AA"/>
<path d="M228.664 91.4394L228.229 92.3092C231.709 94.0489 234.174 97.6731 234.174 101.877C234.174 106.082 231.709 109.706 228.229 111.446L228.664 112.315C232.434 110.286 235.044 106.371 235.044 101.877C235.044 97.2382 232.434 93.324 228.664 91.4394Z" fill="#76C1AA"/>
<path opacity="0.3" d="M223.299 104.197C224.58 104.197 225.619 103.158 225.619 101.877C225.619 100.596 224.58 99.5578 223.299 99.5578C222.018 99.5578 220.979 100.596 220.979 101.877C220.979 103.158 222.018 104.197 223.299 104.197Z" fill="white"/>
<path opacity="0.3" d="M224.604 100.138L227.214 97.5282C226.199 96.5134 224.894 95.9335 223.299 95.9335V99.7028C223.879 99.7028 224.314 99.8478 224.604 100.138Z" fill="white"/>
<path opacity="0.3" d="M225.474 101.732H229.244C229.244 100.283 228.664 98.8329 227.649 97.8181L225.039 100.428C225.329 100.863 225.474 101.298 225.474 101.732Z" fill="white"/>
<path opacity="0.3" d="M224.894 103.472L227.504 106.082C228.519 105.067 229.099 103.762 229.099 102.312H225.329C225.329 102.747 225.184 103.037 224.894 103.472Z" fill="white"/>
<path opacity="0.3" d="M221.849 103.617L219.239 106.226C220.254 107.096 221.414 107.676 222.864 107.676V103.907C222.429 104.052 222.139 103.907 221.849 103.617Z" fill="white"/>
<path opacity="0.3" d="M223.444 104.052V107.821C224.894 107.821 226.199 107.241 227.069 106.372L224.459 103.762C224.169 103.907 223.734 104.052 223.444 104.052Z" fill="white"/>
<path opacity="0.3" d="M221.269 100.573L218.659 97.9631C217.789 98.978 217.209 100.283 217.209 101.732H220.979C220.979 101.298 221.124 101.008 221.269 100.573Z" fill="white"/>
<path opacity="0.3" d="M220.979 102.312H217.209C217.354 103.762 217.934 104.922 218.804 105.937L221.414 103.327C221.269 103.037 221.124 102.747 220.979 102.312Z" fill="white"/>
<path opacity="0.3" d="M222.864 99.5578V95.9335C221.414 96.0785 220.109 96.6584 219.094 97.5282L221.704 100.138C221.994 99.8478 222.429 99.7028 222.864 99.5578Z" fill="white"/>
<path d="M223.299 95.0637C222.864 95.0637 222.284 95.0636 221.849 95.2086C218.659 95.7885 216.339 98.5429 216.339 101.877C216.339 105.647 219.384 108.691 223.154 108.691C225.039 108.691 226.779 107.966 227.939 106.661C229.244 105.357 229.969 103.762 229.969 101.877C230.114 98.108 227.069 95.0637 223.299 95.0637ZM225.474 101.732C225.474 101.297 225.329 100.862 225.039 100.428L227.649 97.8181C228.519 98.8329 229.099 100.138 229.244 101.732H225.474ZM219.239 106.372L221.849 103.762C222.139 103.907 222.429 104.052 222.864 104.197V107.966C221.414 107.676 220.254 107.241 219.239 106.372ZM224.604 100.138C224.314 99.8478 223.879 99.7027 223.299 99.7027V95.9335C224.749 95.9335 226.199 96.5133 227.214 97.5281L224.604 100.138ZM220.979 101.732H217.209C217.209 100.283 217.789 98.9779 218.659 97.9631L221.269 100.573C221.124 101.008 220.979 101.297 220.979 101.732ZM220.979 102.312C221.124 102.747 221.269 103.037 221.414 103.327L218.804 105.937C217.934 104.922 217.354 103.762 217.209 102.312H220.979ZM223.299 103.762C222.284 103.762 221.414 102.892 221.414 101.877C221.414 100.862 222.284 99.9927 223.299 99.9927C224.024 99.9927 224.604 100.428 224.894 101.008V101.152C225.039 101.297 225.039 101.587 225.039 101.877C225.039 102.167 225.039 102.312 224.894 102.602C224.749 103.182 224.024 103.762 223.299 103.762ZM223.444 104.052C223.879 104.052 224.169 103.907 224.459 103.762L227.069 106.372C226.054 107.241 224.749 107.821 223.444 107.821V104.052ZM222.864 95.9335V99.7027C222.429 99.8477 221.994 99.9927 221.704 100.283L219.094 97.6732C220.109 96.6583 221.414 95.9335 222.864 95.9335ZM227.504 106.082L224.894 103.472C225.184 103.182 225.329 102.747 225.474 102.312H229.244C229.099 103.762 228.519 105.067 227.504 106.082Z" fill="white"/>
</g>
<g>
<path d="M291.304 117.679C300.033 117.679 307.109 110.605 307.109 101.877C307.109 93.1502 300.033 86.0754 291.304 86.0754C282.575 86.0754 275.499 93.1502 275.499 101.877C275.499 110.605 282.575 117.679 291.304 117.679Z" fill="#3B5266"/>
<path d="M280.574 101.877C280.574 97.6731 282.894 94.1938 286.374 92.3092L285.794 91.4394C282.024 93.469 279.414 97.3832 279.414 101.877C279.414 106.371 282.024 110.286 285.794 112.315L286.374 111.446C282.894 109.561 280.574 105.937 280.574 101.877Z" fill="#76C1AA"/>
<path d="M296.669 91.4394L296.234 92.3092C299.714 94.0489 302.179 97.6731 302.179 101.877C302.179 106.082 299.714 109.706 296.234 111.446L296.669 112.315C300.439 110.286 303.049 106.371 303.049 101.877C303.049 97.2382 300.439 93.324 296.669 91.4394Z" fill="#76C1AA"/>
<path opacity="0.3" d="M291.304 104.197C292.585 104.197 293.624 103.158 293.624 101.877C293.624 100.596 292.585 99.5578 291.304 99.5578C290.022 99.5578 288.984 100.596 288.984 101.877C288.984 103.158 290.022 104.197 291.304 104.197Z" fill="white"/>
<path opacity="0.3" d="M292.609 100.138L295.219 97.5282C294.204 96.5134 292.899 95.9335 291.304 95.9335V99.7028C291.884 99.7028 292.319 99.8478 292.609 100.138Z" fill="white"/>
<path opacity="0.3" d="M293.479 101.732H297.249C297.249 100.283 296.669 98.8329 295.654 97.8181L293.044 100.428C293.334 100.863 293.479 101.298 293.479 101.732Z" fill="white"/>
<path opacity="0.3" d="M292.899 103.472L295.509 106.082C296.524 105.067 297.104 103.762 297.104 102.312H293.479C293.334 102.747 293.189 103.037 292.899 103.472Z" fill="white"/>
<path opacity="0.3" d="M289.854 103.617L287.244 106.226C288.259 107.096 289.419 107.676 290.869 107.676V103.907C290.434 104.052 290.144 103.907 289.854 103.617Z" fill="white"/>
<path opacity="0.3" d="M291.449 104.052V107.821C292.899 107.821 294.204 107.241 295.074 106.372L292.464 103.762C292.174 103.907 291.739 104.052 291.449 104.052Z" fill="white"/>
<path opacity="0.3" d="M289.274 100.573L286.664 97.9631C285.794 98.978 285.214 100.283 285.214 101.732H288.984C288.984 101.298 289.129 101.008 289.274 100.573Z" fill="white"/>
<path opacity="0.3" d="M288.984 102.312H285.214C285.359 103.762 285.939 104.922 286.809 105.937L289.419 103.327C289.274 103.037 289.129 102.747 288.984 102.312Z" fill="white"/>
<path opacity="0.3" d="M290.869 99.5578V95.9335C289.419 96.0785 288.114 96.6584 287.099 97.5282L289.709 100.138C289.999 99.8478 290.434 99.7028 290.869 99.5578Z" fill="white"/>
<path d="M291.304 95.0637C290.869 95.0637 290.289 95.0636 289.854 95.2086C286.664 95.7885 284.344 98.5429 284.344 101.877C284.344 105.647 287.389 108.691 291.159 108.691C293.044 108.691 294.784 107.966 295.944 106.661C297.249 105.357 297.974 103.762 297.974 101.877C298.119 98.108 295.074 95.0637 291.304 95.0637ZM293.479 101.732C293.479 101.297 293.334 100.862 293.044 100.428L295.654 97.8181C296.524 98.8329 297.104 100.138 297.249 101.732H293.479ZM287.244 106.372L289.854 103.762C290.144 103.907 290.434 104.052 290.869 104.197V107.966C289.419 107.676 288.259 107.241 287.244 106.372ZM292.609 100.138C292.319 99.8478 291.884 99.7027 291.304 99.7027V95.9335C292.754 95.9335 294.204 96.5133 295.219 97.5281L292.609 100.138ZM288.984 101.732H285.214C285.214 100.283 285.794 98.9779 286.664 97.9631L289.274 100.573C289.129 101.008 288.984 101.297 288.984 101.732ZM288.984 102.312C289.129 102.747 289.274 103.037 289.419 103.327L286.809 105.937C285.939 104.922 285.359 103.762 285.214 102.312H288.984ZM291.304 103.762C290.289 103.762 289.419 102.892 289.419 101.877C289.419 100.862 290.289 99.9927 291.304 99.9927C292.029 99.9927 292.609 100.428 292.899 101.008V101.152C293.044 101.297 293.044 101.587 293.044 101.877C293.044 102.167 293.044 102.312 292.899 102.602C292.609 103.182 292.029 103.762 291.304 103.762ZM291.449 104.052C291.884 104.052 292.174 103.907 292.464 103.762L295.074 106.372C294.059 107.241 292.754 107.821 291.449 107.821V104.052ZM290.869 95.9335V99.7027C290.434 99.8477 289.999 99.9927 289.709 100.283L287.099 97.6732C287.969 96.6583 289.419 95.9335 290.869 95.9335ZM295.509 106.082L292.899 103.472C293.189 103.182 293.334 102.747 293.479 102.312H297.249C297.104 103.762 296.524 105.067 295.509 106.082Z" fill="white"/>
</g>
<g>
<path d="M329.004 117.679C337.732 117.679 344.809 110.605 344.809 101.877C344.809 93.1502 337.732 86.0754 329.004 86.0754C320.275 86.0754 313.199 93.1502 313.199 101.877C313.199 110.605 320.275 117.679 329.004 117.679Z" fill="#3B5266"/>
<path d="M318.274 101.877C318.274 97.6731 320.594 94.1938 324.074 92.3092L323.494 91.4394C319.724 93.469 317.114 97.3832 317.114 101.877C317.114 106.371 319.724 110.286 323.494 112.315L324.074 111.446C320.594 109.561 318.274 105.937 318.274 101.877Z" fill="#76C1AA"/>
<path d="M334.369 91.4394L333.934 92.3092C337.414 94.0489 339.879 97.6731 339.879 101.877C339.879 106.082 337.414 109.706 333.934 111.446L334.369 112.315C338.139 110.286 340.749 106.371 340.749 101.877C340.749 97.2382 338.139 93.324 334.369 91.4394Z" fill="#76C1AA"/>
<path opacity="0.3" d="M329.004 104.197C330.285 104.197 331.324 103.158 331.324 101.877C331.324 100.596 330.285 99.5578 329.004 99.5578C327.722 99.5578 326.684 100.596 326.684 101.877C326.684 103.158 327.722 104.197 329.004 104.197Z" fill="white"/>
<path opacity="0.3" d="M330.309 100.138L332.919 97.5282C331.904 96.5134 330.599 95.9335 329.004 95.9335V99.7028C329.584 99.7028 330.019 99.8478 330.309 100.138Z" fill="white"/>
<path opacity="0.3" d="M331.179 101.732H334.949C334.949 100.283 334.369 98.8329 333.354 97.8181L330.744 100.428C331.034 100.863 331.179 101.298 331.179 101.732Z" fill="white"/>
<path opacity="0.3" d="M330.599 103.472L333.209 106.082C334.224 105.067 334.804 103.762 334.804 102.312H331.179C331.034 102.747 330.889 103.037 330.599 103.472Z" fill="white"/>
<path opacity="0.3" d="M327.554 103.617L324.944 106.226C325.959 107.096 327.119 107.676 328.569 107.676V103.907C328.134 104.052 327.844 103.907 327.554 103.617Z" fill="white"/>
<path opacity="0.3" d="M329.149 104.052V107.821C330.599 107.821 331.904 107.241 332.774 106.372L330.164 103.762C329.874 103.907 329.439 104.052 329.149 104.052Z" fill="white"/>
<path opacity="0.3" d="M326.974 100.573L324.364 97.9631C323.494 98.978 322.914 100.283 322.914 101.732H326.684C326.684 101.298 326.829 101.008 326.974 100.573Z" fill="white"/>
<path opacity="0.3" d="M326.684 102.312H322.914C323.059 103.762 323.639 104.922 324.509 105.937L327.119 103.327C326.974 103.037 326.829 102.747 326.684 102.312Z" fill="white"/>
<path opacity="0.3" d="M328.569 99.5578V95.9335C327.119 96.0785 325.814 96.6584 324.799 97.5282L327.409 100.138C327.699 99.8478 328.134 99.7028 328.569 99.5578Z" fill="white"/>
<path d="M329.004 95.0637C328.569 95.0637 327.989 95.0636 327.554 95.2086C324.364 95.7885 322.044 98.5429 322.044 101.877C322.044 105.647 325.089 108.691 328.859 108.691C330.744 108.691 332.484 107.966 333.644 106.661C334.949 105.357 335.674 103.762 335.674 101.877C335.819 98.108 332.774 95.0637 329.004 95.0637ZM331.179 101.732C331.179 101.297 331.034 100.862 330.744 100.428L333.354 97.8181C334.224 98.8329 334.804 100.138 334.949 101.732H331.179ZM324.944 106.372L327.554 103.762C327.844 103.907 328.134 104.052 328.569 104.197V107.966C327.119 107.676 325.959 107.241 324.944 106.372ZM330.309 100.138C330.019 99.8478 329.584 99.7027 329.004 99.7027V95.9335C330.454 95.9335 331.904 96.5133 332.919 97.5281L330.309 100.138ZM326.684 101.732H322.914C322.914 100.283 323.494 98.9779 324.364 97.9631L326.974 100.573C326.829 101.008 326.684 101.297 326.684 101.732ZM326.684 102.312C326.829 102.747 326.974 103.037 327.119 103.327L324.509 105.937C323.639 104.922 323.059 103.762 322.914 102.312H326.684ZM329.004 103.762C327.989 103.762 327.119 102.892 327.119 101.877C327.119 100.862 327.989 99.9927 329.004 99.9927C329.729 99.9927 330.309 100.428 330.599 101.008V101.152C330.744 101.297 330.744 101.587 330.744 101.877C330.744 102.167 330.744 102.312 330.599 102.602C330.309 103.182 329.729 103.762 329.004 103.762ZM329.149 104.052C329.584 104.052 329.874 103.907 330.164 103.762L332.774 106.372C331.759 107.241 330.454 107.821 329.149 107.821V104.052ZM328.569 95.9335V99.7027C328.134 99.8477 327.699 99.9927 327.409 100.283L324.799 97.6732C325.669 96.6583 327.119 95.9335 328.569 95.9335ZM333.209 106.082L330.599 103.472C330.889 103.182 331.034 102.747 331.179 102.312H334.949C334.804 103.762 334.224 105.067 333.209 106.082Z" fill="white"/>
</g>
<g>
<path d="M366.704 117.679C375.432 117.679 382.509 110.605 382.509 101.877C382.509 93.1502 375.432 86.0754 366.704 86.0754C357.975 86.0754 350.899 93.1502 350.899 101.877C350.899 110.605 357.975 117.679 366.704 117.679Z" fill="#3B5266"/>
<path d="M355.973 101.877C355.973 97.6731 358.293 94.1938 361.773 92.3092L361.193 91.4394C357.423 93.469 354.813 97.3832 354.813 101.877C354.813 106.371 357.423 110.286 361.193 112.315L361.773 111.446C358.293 109.561 355.973 105.937 355.973 101.877Z" fill="#76C1AA"/>
<path d="M372.069 91.4394L371.634 92.3092C375.114 94.0489 377.579 97.6731 377.579 101.877C377.579 106.082 375.114 109.706 371.634 111.446L372.069 112.315C375.839 110.286 378.449 106.371 378.449 101.877C378.449 97.2382 375.839 93.324 372.069 91.4394Z" fill="#76C1AA"/>
<path opacity="0.3" d="M366.704 104.197C367.985 104.197 369.023 103.158 369.023 101.877C369.023 100.596 367.985 99.5578 366.704 99.5578C365.422 99.5578 364.384 100.596 364.384 101.877C364.384 103.158 365.422 104.197 366.704 104.197Z" fill="white"/>
<path opacity="0.3" d="M368.009 100.138L370.619 97.5282C369.604 96.5134 368.299 95.9335 366.704 95.9335V99.7028C367.284 99.7028 367.719 99.8478 368.009 100.138Z" fill="white"/>
<path opacity="0.3" d="M368.879 101.732H372.649C372.649 100.283 372.069 98.8329 371.054 97.8181L368.444 100.428C368.734 100.863 368.879 101.298 368.879 101.732Z" fill="white"/>
<path opacity="0.3" d="M368.299 103.472L370.909 106.082C371.924 105.067 372.504 103.762 372.504 102.312H368.879C368.734 102.747 368.589 103.037 368.299 103.472Z" fill="white"/>
<path opacity="0.3" d="M365.254 103.617L362.644 106.226C363.659 107.096 364.819 107.676 366.269 107.676V103.907C365.834 104.052 365.544 103.907 365.254 103.617Z" fill="white"/>
<path opacity="0.3" d="M366.849 104.052V107.821C368.299 107.821 369.604 107.241 370.474 106.372L367.864 103.762C367.574 103.907 367.139 104.052 366.849 104.052Z" fill="white"/>
<path opacity="0.3" d="M364.674 100.573L362.064 97.9631C361.194 98.978 360.614 100.283 360.614 101.732H364.384C364.384 101.298 364.529 101.008 364.674 100.573Z" fill="white"/>
<path opacity="0.3" d="M364.384 102.312H360.614C360.759 103.762 361.339 104.922 362.209 105.937L364.819 103.327C364.674 103.037 364.529 102.747 364.384 102.312Z" fill="white"/>
<path opacity="0.3" d="M366.269 99.5578V95.9335C364.819 96.0785 363.514 96.6584 362.499 97.5282L365.109 100.138C365.399 99.8478 365.834 99.7028 366.269 99.5578Z" fill="white"/>
<path d="M366.704 95.0637C366.269 95.0637 365.689 95.0636 365.254 95.2086C362.064 95.7885 359.744 98.5429 359.744 101.877C359.744 105.647 362.789 108.691 366.559 108.691C368.444 108.691 370.184 107.966 371.344 106.661C372.649 105.357 373.374 103.762 373.374 101.877C373.519 98.108 370.474 95.0637 366.704 95.0637ZM368.879 101.732C368.879 101.297 368.734 100.862 368.444 100.428L371.054 97.8181C371.924 98.8329 372.504 100.138 372.649 101.732H368.879ZM362.644 106.372L365.254 103.762C365.544 103.907 365.834 104.052 366.269 104.197V107.966C364.819 107.676 363.659 107.241 362.644 106.372ZM368.009 100.138C367.719 99.8478 367.284 99.7027 366.704 99.7027V95.9335C368.154 95.9335 369.604 96.5133 370.619 97.5281L368.009 100.138ZM364.384 101.732H360.614C360.614 100.283 361.194 98.9779 362.064 97.9631L364.674 100.573C364.529 101.008 364.384 101.297 364.384 101.732ZM364.384 102.312C364.529 102.747 364.674 103.037 364.819 103.327L362.209 105.937C361.339 104.922 360.759 103.762 360.614 102.312H364.384ZM366.704 103.762C365.689 103.762 364.819 102.892 364.819 101.877C364.819 100.862 365.689 99.9927 366.704 99.9927C367.429 99.9927 368.009 100.428 368.299 101.008V101.152C368.444 101.297 368.444 101.587 368.444 101.877C368.444 102.167 368.444 102.312 368.299 102.602C368.009 103.182 367.429 103.762 366.704 103.762ZM366.849 104.052C367.284 104.052 367.574 103.907 367.864 103.762L370.474 106.372C369.459 107.241 368.154 107.821 366.849 107.821V104.052ZM366.269 95.9335V99.7027C365.834 99.8477 365.399 99.9927 365.109 100.283L362.499 97.6732C363.369 96.6583 364.819 95.9335 366.269 95.9335ZM370.909 106.082L368.299 103.472C368.589 103.182 368.734 102.747 368.879 102.312H372.649C372.504 103.762 371.924 105.067 370.909 106.082Z" fill="white"/>
</g>
<g>
<path d="M437.173 117.679C445.902 117.679 452.978 110.605 452.978 101.877C452.978 93.1502 445.902 86.0754 437.173 86.0754C428.444 86.0754 421.368 93.1502 421.368 101.877C421.368 110.605 428.444 117.679 437.173 117.679Z" fill="#3B5266"/>
<path d="M426.443 101.877C426.443 97.6731 428.763 94.1938 432.243 92.3092L431.663 91.4394C427.893 93.469 425.283 97.3832 425.283 101.877C425.283 106.371 427.893 110.286 431.663 112.315L432.243 111.446C428.763 109.561 426.443 105.937 426.443 101.877Z" fill="#76C1AA"/>
<path d="M442.538 91.4394L442.103 92.3092C445.583 94.0489 448.048 97.6731 448.048 101.877C448.048 106.082 445.583 109.706 442.103 111.446L442.538 112.315C446.308 110.286 448.918 106.371 448.918 101.877C448.918 97.2382 446.308 93.324 442.538 91.4394Z" fill="#76C1AA"/>
<path opacity="0.3" d="M437.173 104.197C438.454 104.197 439.493 103.158 439.493 101.877C439.493 100.596 438.454 99.5578 437.173 99.5578C435.892 99.5578 434.853 100.596 434.853 101.877C434.853 103.158 435.892 104.197 437.173 104.197Z" fill="white"/>
<path opacity="0.3" d="M438.478 100.138L441.088 97.5282C440.073 96.5134 438.768 95.9335 437.173 95.9335V99.7028C437.753 99.7028 438.188 99.8478 438.478 100.138Z" fill="white"/>
<path opacity="0.3" d="M439.348 101.732H443.118C443.118 100.283 442.538 98.8329 441.523 97.8181L438.913 100.428C439.203 100.863 439.348 101.298 439.348 101.732Z" fill="white"/>
<path opacity="0.3" d="M438.768 103.472L441.378 106.082C442.393 105.067 442.973 103.762 442.973 102.312H439.203C439.203 102.747 439.058 103.037 438.768 103.472Z" fill="white"/>
<path opacity="0.3" d="M435.723 103.617L433.113 106.226C434.128 107.096 435.288 107.676 436.738 107.676V103.907C436.303 104.052 436.013 103.907 435.723 103.617Z" fill="white"/>
<path opacity="0.3" d="M437.318 104.052V107.821C438.768 107.821 440.073 107.241 440.943 106.372L438.333 103.762C438.043 103.907 437.608 104.052 437.318 104.052Z" fill="white"/>
<path opacity="0.3" d="M435.143 100.573L432.533 97.9631C431.663 98.978 431.083 100.283 431.083 101.732H434.853C434.853 101.298 434.998 101.008 435.143 100.573Z" fill="white"/>
<path opacity="0.3" d="M434.853 102.312H431.228C431.373 103.762 431.953 104.922 432.823 105.937L435.433 103.327C435.143 103.037 434.998 102.747 434.853 102.312Z" fill="white"/>
<path opacity="0.3" d="M436.738 99.5578V95.9335C435.288 96.0785 433.983 96.6584 432.968 97.5282L435.578 100.138C435.868 99.8478 436.303 99.7028 436.738 99.5578Z" fill="white"/>
<path d="M437.173 95.0637C436.738 95.0637 436.158 95.0636 435.723 95.2086C432.533 95.7885 430.213 98.5429 430.213 101.877C430.213 105.647 433.258 108.691 437.028 108.691C438.913 108.691 440.653 107.966 441.813 106.661C443.118 105.357 443.843 103.762 443.843 101.877C443.988 98.108 440.943 95.0637 437.173 95.0637ZM439.348 101.732C439.348 101.297 439.203 100.862 438.913 100.428L441.523 97.8181C442.393 98.8329 442.973 100.138 443.118 101.732H439.348ZM433.113 106.372L435.723 103.762C436.013 103.907 436.303 104.052 436.738 104.197V107.966C435.288 107.676 434.128 107.241 433.113 106.372ZM438.478 100.138C438.188 99.8478 437.753 99.7027 437.173 99.7027V95.9335C438.623 95.9335 440.073 96.5133 441.088 97.5281L438.478 100.138ZM434.853 101.732H431.083C431.083 100.283 431.663 98.9779 432.533 97.9631L435.143 100.573C434.998 101.008 434.853 101.297 434.853 101.732ZM434.853 102.312C434.998 102.747 435.143 103.037 435.288 103.327L432.678 105.937C431.808 104.922 431.228 103.762 431.083 102.312H434.853ZM437.173 103.762C436.158 103.762 435.288 102.892 435.288 101.877C435.288 100.862 436.158 99.9927 437.173 99.9927C437.898 99.9927 438.478 100.428 438.768 101.008V101.152C438.913 101.297 438.913 101.587 438.913 101.877C438.913 102.167 438.913 102.312 438.768 102.602C438.623 103.182 437.898 103.762 437.173 103.762ZM437.318 104.052C437.753 104.052 438.043 103.907 438.333 103.762L440.943 106.372C439.928 107.241 438.623 107.821 437.318 107.821V104.052ZM436.738 95.9335V99.7027C436.303 99.8477 435.868 99.9927 435.578 100.283L432.968 97.6732C433.983 96.6583 435.288 95.9335 436.738 95.9335ZM441.378 106.082L438.768 103.472C439.058 103.182 439.203 102.747 439.348 102.312H443.118C442.973 103.762 442.393 105.067 441.378 106.082Z" fill="white"/>
</g>
<g>
<path d="M475.888 117.679C484.617 117.679 491.693 110.605 491.693 101.877C491.693 93.1502 484.617 86.0754 475.888 86.0754C467.159 86.0754 460.083 93.1502 460.083 101.877C460.083 110.605 467.159 117.679 475.888 117.679Z" fill="#3B5266"/>
<path d="M465.158 101.877C465.158 97.6731 467.478 94.1938 470.958 92.3092L470.378 91.4394C466.608 93.469 463.998 97.3832 463.998 101.877C463.998 106.371 466.608 110.286 470.378 112.315L470.958 111.446C467.478 109.561 465.158 105.937 465.158 101.877Z" fill="#76C1AA"/>
<path d="M481.253 91.4394L480.818 92.3092C484.298 94.0489 486.763 97.6731 486.763 101.877C486.763 106.082 484.298 109.706 480.818 111.446L481.253 112.315C485.023 110.286 487.633 106.371 487.633 101.877C487.633 97.2382 485.023 93.324 481.253 91.4394Z" fill="#76C1AA"/>
<path opacity="0.3" d="M475.888 104.197C477.169 104.197 478.208 103.158 478.208 101.877C478.208 100.596 477.169 99.5578 475.888 99.5578C474.607 99.5578 473.568 100.596 473.568 101.877C473.568 103.158 474.607 104.197 475.888 104.197Z" fill="white"/>
<path opacity="0.3" d="M477.193 100.138L479.803 97.5282C478.788 96.5134 477.483 95.9335 475.888 95.9335V99.7028C476.468 99.7028 476.903 99.8478 477.193 100.138Z" fill="white"/>
<path opacity="0.3" d="M478.063 101.732H481.833C481.833 100.283 481.253 98.8329 480.238 97.8181L477.628 100.428C477.918 100.863 478.063 101.298 478.063 101.732Z" fill="white"/>
<path opacity="0.3" d="M477.483 103.472L480.093 106.082C481.108 105.067 481.688 103.762 481.688 102.312H477.918C477.918 102.747 477.773 103.037 477.483 103.472Z" fill="white"/>
<path opacity="0.3" d="M474.438 103.617L471.828 106.226C472.843 107.096 474.003 107.676 475.453 107.676V103.907C475.018 104.052 474.728 103.907 474.438 103.617Z" fill="white"/>
<path opacity="0.3" d="M476.033 104.052V107.821C477.483 107.821 478.788 107.241 479.658 106.372L477.048 103.762C476.758 103.907 476.323 104.052 476.033 104.052Z" fill="white"/>
<path opacity="0.3" d="M473.858 100.573L471.248 97.9631C470.378 98.978 469.798 100.283 469.798 101.732H473.568C473.568 101.298 473.713 101.008 473.858 100.573Z" fill="white"/>
<path opacity="0.3" d="M473.568 102.312H469.798C469.943 103.762 470.523 104.922 471.393 105.937L474.003 103.327C473.858 103.037 473.713 102.747 473.568 102.312Z" fill="white"/>
<path opacity="0.3" d="M475.453 99.5578V95.9335C474.003 96.0785 472.698 96.6584 471.683 97.5282L474.293 100.138C474.583 99.8478 475.018 99.7028 475.453 99.5578Z" fill="white"/>
<path d="M475.888 95.0637C475.453 95.0637 474.873 95.0636 474.438 95.2086C471.248 95.7885 468.928 98.5429 468.928 101.877C468.928 105.647 471.973 108.691 475.743 108.691C477.628 108.691 479.368 107.966 480.528 106.661C481.833 105.357 482.558 103.762 482.558 101.877C482.703 98.108 479.658 95.0637 475.888 95.0637ZM478.063 101.732C478.063 101.297 477.918 100.862 477.628 100.428L480.238 97.8181C481.108 98.8329 481.688 100.138 481.833 101.732H478.063ZM471.828 106.372L474.438 103.762C474.728 103.907 475.018 104.052 475.453 104.197V107.966C474.003 107.676 472.843 107.241 471.828 106.372ZM477.193 100.138C476.903 99.8478 476.468 99.7027 475.888 99.7027V95.9335C477.338 95.9335 478.788 96.5133 479.803 97.5281L477.193 100.138ZM473.568 101.732H469.798C469.798 100.283 470.378 98.9779 471.248 97.9631L473.858 100.573C473.713 101.008 473.568 101.297 473.568 101.732ZM473.568 102.312C473.713 102.747 473.858 103.037 474.003 103.327L471.393 105.937C470.523 104.922 469.943 103.762 469.798 102.312H473.568ZM475.888 103.762C474.873 103.762 474.003 102.892 474.003 101.877C474.003 100.862 474.873 99.9927 475.888 99.9927C476.613 99.9927 477.193 100.428 477.483 101.008V101.152C477.628 101.297 477.628 101.587 477.628 101.877C477.628 102.167 477.628 102.312 477.483 102.602C477.193 103.182 476.613 103.762 475.888 103.762ZM476.033 104.052C476.468 104.052 476.758 103.907 477.048 103.762L479.658 106.372C478.643 107.241 477.338 107.821 476.033 107.821V104.052ZM475.453 95.9335V99.7027C475.018 99.8477 474.583 99.9927 474.293 100.283L471.683 97.6732C472.553 96.6583 474.003 95.9335 475.453 95.9335ZM480.093 106.082L477.483 103.472C477.773 103.182 477.918 102.747 478.063 102.312H481.833C481.688 103.762 481.108 105.067 480.093 106.082Z" fill="white"/>
</g>
<g>
<path d="M514.457 117.679C523.186 117.679 530.262 110.605 530.262 101.877C530.262 93.1502 523.186 86.0754 514.457 86.0754C505.728 86.0754 498.652 93.1502 498.652 101.877C498.652 110.605 505.728 117.679 514.457 117.679Z" fill="#3B5266"/>
<path d="M503.872 101.877C503.872 97.6731 506.192 94.1938 509.672 92.3092L509.092 91.4394C505.322 93.469 502.712 97.3832 502.712 101.877C502.712 106.371 505.322 110.286 509.092 112.315L509.672 111.446C506.192 109.561 503.872 105.937 503.872 101.877Z" fill="#76C1AA"/>
<path d="M519.967 91.4394L519.532 92.3092C523.012 94.0489 525.477 97.6731 525.477 101.877C525.477 106.082 523.012 109.706 519.532 111.446L519.967 112.315C523.737 110.286 526.347 106.371 526.347 101.877C526.347 97.2382 523.737 93.324 519.967 91.4394Z" fill="#76C1AA"/>
<path opacity="0.3" d="M514.457 104.197C515.739 104.197 516.777 103.158 516.777 101.877C516.777 100.596 515.739 99.5578 514.457 99.5578C513.176 99.5578 512.137 100.596 512.137 101.877C512.137 103.158 513.176 104.197 514.457 104.197Z" fill="white"/>
<path opacity="0.3" d="M515.907 100.138L518.517 97.5282C517.502 96.5134 516.197 95.9335 514.603 95.9335V99.7028C515.183 99.7028 515.618 99.8478 515.907 100.138Z" fill="white"/>
<path opacity="0.3" d="M516.778 101.732H520.548C520.548 100.283 519.968 98.8329 518.953 97.8181L516.343 100.428C516.633 100.863 516.778 101.298 516.778 101.732Z" fill="white"/>
<path opacity="0.3" d="M516.198 103.472L518.808 106.082C519.823 105.067 520.403 103.762 520.403 102.312H516.778C516.633 102.747 516.488 103.037 516.198 103.472Z" fill="white"/>
<path opacity="0.3" d="M513.153 103.617L510.543 106.226C511.558 107.096 512.718 107.676 514.168 107.676V103.907C513.733 104.052 513.443 103.907 513.153 103.617Z" fill="white"/>
<path opacity="0.3" d="M514.603 104.052V107.821C516.053 107.821 517.358 107.241 518.228 106.372L515.618 103.762C515.473 103.907 515.038 104.052 514.603 104.052Z" fill="white"/>
<path opacity="0.3" d="M512.573 100.573L509.963 97.9631C509.093 98.978 508.513 100.283 508.513 101.732H512.283C512.283 101.298 512.428 101.008 512.573 100.573Z" fill="white"/>
<path opacity="0.3" d="M512.283 102.312H508.513C508.658 103.762 509.238 104.922 510.108 105.937L512.718 103.327C512.573 103.037 512.283 102.747 512.283 102.312Z" fill="white"/>
<path opacity="0.3" d="M514.168 99.5578V95.9335C512.718 96.0785 511.413 96.6584 510.398 97.5282L513.008 100.138C513.298 99.8478 513.588 99.7028 514.168 99.5578Z" fill="white"/>
<path d="M514.602 95.0637C514.167 95.0637 513.588 95.0636 513.153 95.2086C509.963 95.7885 507.643 98.5429 507.643 101.877C507.643 105.647 510.688 108.691 514.457 108.691C516.342 108.691 518.082 107.966 519.242 106.661C520.547 105.357 521.272 103.762 521.272 101.877C521.417 98.108 518.372 95.0637 514.602 95.0637ZM516.777 101.732C516.777 101.297 516.632 100.862 516.342 100.428L518.952 97.8181C519.822 98.8329 520.402 100.138 520.547 101.732H516.777ZM510.543 106.372L513.153 103.762C513.443 103.907 513.733 104.052 514.168 104.197V107.966C512.718 107.676 511.413 107.241 510.543 106.372ZM515.907 100.138C515.617 99.8478 515.182 99.7027 514.602 99.7027V95.9335C516.052 95.9335 517.502 96.5133 518.517 97.5281L515.907 100.138ZM512.283 101.732H508.513C508.513 100.283 509.093 98.9779 509.963 97.9631L512.573 100.573C512.428 101.008 512.283 101.297 512.283 101.732ZM512.283 102.312C512.428 102.747 512.573 103.037 512.718 103.327L510.108 105.937C509.238 104.922 508.658 103.762 508.513 102.312H512.283ZM514.457 103.762C513.442 103.762 512.573 102.892 512.573 101.877C512.573 100.862 513.442 99.9927 514.457 99.9927C515.182 99.9927 515.762 100.428 516.052 101.008V101.152C516.197 101.297 516.197 101.587 516.197 101.877C516.197 102.167 516.197 102.312 516.052 102.602C515.907 103.182 515.327 103.762 514.457 103.762ZM514.602 104.052C515.037 104.052 515.328 103.907 515.617 103.762L518.227 106.372C517.212 107.241 515.907 107.821 514.602 107.821V104.052ZM514.168 95.9335V99.7027C513.733 99.8477 513.297 99.9927 513.007 100.283L510.398 97.6732C511.268 96.6583 512.573 95.9335 514.168 95.9335ZM518.807 106.082L516.197 103.472C516.487 103.182 516.632 102.747 516.777 102.312H520.547C520.257 103.762 519.677 105.067 518.807 106.082Z" fill="white"/>
</g>
<g>
<path d="M553.172 117.679C561.901 117.679 568.977 110.605 568.977 101.877C568.977 93.1502 561.901 86.0754 553.172 86.0754C544.443 86.0754 537.367 93.1502 537.367 101.877C537.367 110.605 544.443 117.679 553.172 117.679Z" fill="#3B5266"/>
<path d="M542.442 101.877C542.442 97.6731 544.762 94.1938 548.242 92.3092L547.662 91.4394C543.892 93.469 541.282 97.3832 541.282 101.877C541.282 106.371 543.892 110.286 547.662 112.315L548.242 111.446C544.907 109.561 542.442 105.937 542.442 101.877Z" fill="#76C1AA"/>
<path d="M558.682 91.4394L558.247 92.3092C561.727 94.0489 564.192 97.6731 564.192 101.877C564.192 106.082 561.727 109.706 558.247 111.446L558.682 112.315C562.452 110.286 565.062 106.371 565.062 101.877C565.062 97.2382 562.452 93.324 558.682 91.4394Z" fill="#76C1AA"/>
<path opacity="0.3" d="M553.172 104.197C554.453 104.197 555.492 103.158 555.492 101.877C555.492 100.596 554.453 99.5578 553.172 99.5578C551.891 99.5578 550.852 100.596 550.852 101.877C550.852 103.158 551.891 104.197 553.172 104.197Z" fill="white"/>
<path opacity="0.3" d="M554.622 100.138L557.232 97.5282C556.217 96.5134 554.912 95.9335 553.317 95.9335V99.7028C553.752 99.7028 554.187 99.8478 554.622 100.138Z" fill="white"/>
<path opacity="0.3" d="M555.492 101.732H559.262C559.262 100.283 558.682 98.8329 557.667 97.8181L555.057 100.428C555.202 100.863 555.347 101.298 555.492 101.732Z" fill="white"/>
<path opacity="0.3" d="M554.767 103.472L557.377 106.082C558.392 105.067 558.972 103.762 558.972 102.312H555.202C555.347 102.747 555.057 103.037 554.767 103.472Z" fill="white"/>
<path opacity="0.3" d="M551.867 103.617L549.257 106.226C550.272 107.096 551.432 107.676 552.882 107.676V103.907C552.447 104.052 552.157 103.907 551.867 103.617Z" fill="white"/>
<path opacity="0.3" d="M553.317 104.052V107.821C554.767 107.821 556.072 107.241 556.942 106.372L554.332 103.762C554.042 103.907 553.752 104.052 553.317 104.052Z" fill="white"/>
<path opacity="0.3" d="M551.287 100.573L548.677 97.9631C547.807 98.978 547.227 100.283 547.227 101.732H550.997C550.997 101.298 550.997 101.008 551.287 100.573Z" fill="white"/>
<path opacity="0.3" d="M550.997 102.312H547.227C547.372 103.762 547.952 104.922 548.822 105.937L551.432 103.327C551.142 103.037 550.997 102.747 550.997 102.312Z" fill="white"/>
<path opacity="0.3" d="M552.737 99.5578V95.9335C551.287 96.0785 549.982 96.6584 548.967 97.5282L551.577 100.138C552.012 99.8478 552.302 99.7028 552.737 99.5578Z" fill="white"/>
<path d="M553.317 95.0637C552.882 95.0637 552.302 95.0636 551.867 95.2086C548.677 95.7885 546.357 98.5429 546.357 101.877C546.357 105.647 549.402 108.691 553.172 108.691C555.057 108.691 556.797 107.966 557.957 106.661C559.262 105.357 559.987 103.762 559.987 101.877C560.132 98.108 557.087 95.0637 553.317 95.0637ZM555.492 101.732C555.492 101.297 555.347 100.862 555.057 100.428L557.667 97.8181C558.537 98.8329 559.117 100.138 559.262 101.732H555.492ZM549.257 106.372L551.867 103.762C552.157 103.907 552.447 104.052 552.882 104.197V107.966C551.432 107.676 550.127 107.241 549.257 106.372ZM554.622 100.138C554.332 99.8478 553.897 99.7027 553.317 99.7027V95.9335C554.767 95.9335 556.217 96.5133 557.232 97.5281L554.622 100.138ZM550.852 101.732H547.227C547.227 100.283 547.807 98.9779 548.677 97.9631L551.287 100.573C550.997 101.008 550.997 101.297 550.852 101.732ZM550.997 102.312C551.142 102.747 551.287 103.037 551.432 103.327L548.822 105.937C547.952 104.922 547.372 103.762 547.227 102.312H550.997ZM553.172 103.762C552.157 103.762 551.287 102.892 551.287 101.877C551.287 100.862 552.157 99.9927 553.172 99.9927C553.897 99.9927 554.477 100.428 554.767 101.008V101.152C554.912 101.297 554.912 101.587 554.912 101.877C554.912 102.167 554.912 102.312 554.767 102.602C554.622 103.182 554.042 103.762 553.172 103.762ZM553.317 104.052C553.752 104.052 554.042 103.907 554.332 103.762L556.942 106.372C555.927 107.241 554.622 107.821 553.317 107.821V104.052ZM552.737 95.9335V99.7027C552.302 99.8477 551.867 99.9927 551.577 100.283L548.967 97.6732C549.982 96.6583 551.287 95.9335 552.737 95.9335ZM557.522 106.082L554.912 103.472C555.202 103.182 555.347 102.747 555.492 102.312H559.262C558.972 103.762 558.392 105.067 557.522 106.082Z" fill="white"/>
</g>
<g>
<path d="M591.887 117.679C600.616 117.679 607.692 110.605 607.692 101.877C607.692 93.1502 600.616 86.0754 591.887 86.0754C583.158 86.0754 576.082 93.1502 576.082 101.877C576.082 110.605 583.158 117.679 591.887 117.679Z" fill="#3B5266"/>
<path d="M581.157 101.877C581.157 97.6731 583.477 94.1938 586.957 92.3092L586.377 91.4394C582.607 93.469 579.997 97.3832 579.997 101.877C579.997 106.371 582.607 110.286 586.377 112.315L586.957 111.446C583.477 109.561 581.157 105.937 581.157 101.877Z" fill="#76C1AA"/>
<path d="M597.397 91.4394L596.962 92.3092C600.442 94.0489 602.907 97.6731 602.907 101.877C602.907 106.082 600.442 109.706 596.962 111.446L597.397 112.315C601.167 110.286 603.777 106.371 603.777 101.877C603.632 97.2382 601.167 93.324 597.397 91.4394Z" fill="#76C1AA"/>
<path opacity="0.3" d="M591.887 104.197C593.168 104.197 594.207 103.158 594.207 101.877C594.207 100.596 593.168 99.5578 591.887 99.5578C590.606 99.5578 589.567 100.596 589.567 101.877C589.567 103.158 590.606 104.197 591.887 104.197Z" fill="white"/>
<path opacity="0.3" d="M593.337 100.138L595.947 97.5282C594.932 96.5134 593.627 95.9335 592.032 95.9335V99.7028C592.467 99.7028 592.902 99.8478 593.337 100.138Z" fill="white"/>
<path opacity="0.3" d="M594.062 101.732H597.832C597.832 100.283 597.252 98.8329 596.237 97.8181L593.627 100.428C593.917 100.863 594.062 101.298 594.062 101.732Z" fill="white"/>
<path opacity="0.3" d="M593.482 103.472L596.092 106.082C597.107 105.067 597.687 103.762 597.687 102.312H593.917C594.062 102.747 593.772 103.037 593.482 103.472Z" fill="white"/>
<path opacity="0.3" d="M590.582 103.617L587.972 106.226C588.987 107.096 590.147 107.676 591.597 107.676V103.907C591.162 104.052 590.727 103.907 590.582 103.617Z" fill="white"/>
<path opacity="0.3" d="M592.032 104.052V107.821C593.482 107.821 594.787 107.241 595.657 106.372L593.047 103.762C592.757 103.907 592.467 104.052 592.032 104.052Z" fill="white"/>
<path opacity="0.3" d="M590.002 100.573L587.392 97.9631C586.522 98.978 585.942 100.283 585.942 101.732H589.712C589.567 101.298 589.712 101.008 590.002 100.573Z" fill="white"/>
<path opacity="0.3" d="M589.712 102.312H585.942C586.087 103.762 586.667 104.922 587.537 105.937L590.147 103.327C589.857 103.037 589.712 102.747 589.712 102.312Z" fill="white"/>
<path opacity="0.3" d="M591.452 99.5578V95.9335C590.002 96.0785 588.697 96.6584 587.682 97.5282L590.292 100.138C590.582 99.8478 591.017 99.7028 591.452 99.5578Z" fill="white"/>
<path d="M592.032 95.0637C591.597 95.0637 591.017 95.0636 590.582 95.2086C587.392 95.7885 585.072 98.5429 585.072 101.877C585.072 105.647 588.117 108.691 591.887 108.691C593.772 108.691 595.512 107.966 596.672 106.661C597.977 105.357 598.702 103.762 598.702 101.877C598.847 98.108 595.802 95.0637 592.032 95.0637ZM594.062 101.732C594.062 101.297 593.917 100.862 593.627 100.428L596.237 97.8181C597.107 98.8329 597.687 100.138 597.832 101.732H594.062ZM587.827 106.372L590.437 103.762C590.727 103.907 591.017 104.052 591.452 104.197V107.966C590.147 107.676 588.842 107.241 587.827 106.372ZM593.337 100.138C593.047 99.8478 592.612 99.7027 592.032 99.7027V95.9335C593.482 95.9335 594.932 96.5133 595.947 97.5281L593.337 100.138ZM589.567 101.732H585.797C585.797 100.283 586.377 98.9779 587.247 97.9631L589.857 100.573C589.712 101.008 589.567 101.297 589.567 101.732ZM589.712 102.312C589.857 102.747 590.002 103.037 590.147 103.327L587.537 105.937C586.667 104.922 586.087 103.762 585.942 102.312H589.712ZM591.887 103.762C590.872 103.762 590.002 102.892 590.002 101.877C590.002 100.862 590.872 99.9927 591.887 99.9927C592.612 99.9927 593.192 100.428 593.482 101.008V101.152C593.627 101.297 593.627 101.587 593.627 101.877C593.627 102.167 593.627 102.312 593.482 102.602C593.337 103.182 592.612 103.762 591.887 103.762ZM592.032 104.052C592.467 104.052 592.757 103.907 593.047 103.762L595.657 106.372C594.642 107.241 593.337 107.821 592.032 107.821V104.052ZM591.452 95.9335V99.7027C591.017 99.8477 590.582 99.9927 590.292 100.283L587.682 97.6732C588.697 96.6583 590.002 95.9335 591.452 95.9335ZM596.092 106.082L593.482 103.472C593.772 103.182 593.917 102.747 594.062 102.312H597.832C597.687 103.762 597.107 105.067 596.092 106.082Z" fill="white"/>
</g>
<g>
<path d="M630.603 117.679C639.332 117.679 646.408 110.605 646.408 101.877C646.408 93.1502 639.332 86.0754 630.603 86.0754C621.874 86.0754 614.798 93.1502 614.798 101.877C614.798 110.605 621.874 117.679 630.603 117.679Z" fill="#3B5266"/>
<path d="M619.873 101.877C619.873 97.6731 622.193 94.1938 625.673 92.3092L625.093 91.4394C621.323 93.469 618.713 97.3832 618.713 101.877C618.713 106.371 621.323 110.286 625.093 112.315L625.673 111.446C622.193 109.561 619.873 105.937 619.873 101.877Z" fill="#76C1AA"/>
<path d="M635.968 91.4394L635.533 92.3092C639.013 94.0489 641.478 97.6731 641.478 101.877C641.478 106.082 639.013 109.706 635.533 111.446L635.968 112.315C639.738 110.286 642.348 106.371 642.348 101.877C642.348 97.2382 639.738 93.324 635.968 91.4394Z" fill="#76C1AA"/>
<path opacity="0.3" d="M630.603 104.197C631.884 104.197 632.923 103.158 632.923 101.877C632.923 100.596 631.884 99.5578 630.603 99.5578C629.321 99.5578 628.283 100.596 628.283 101.877C628.283 103.158 629.321 104.197 630.603 104.197Z" fill="white"/>
<path opacity="0.3" d="M632.053 100.138L634.663 97.5282C633.648 96.5134 632.343 95.9335 630.748 95.9335V99.7028C631.183 99.7028 631.618 99.8478 632.053 100.138Z" fill="white"/>
<path opacity="0.3" d="M632.778 101.732H636.548C636.548 100.283 635.968 98.8329 634.953 97.8181L632.343 100.428C632.633 100.863 632.778 101.298 632.778 101.732Z" fill="white"/>
<path opacity="0.3" d="M632.198 103.472L634.808 106.082C635.823 105.067 636.403 103.762 636.403 102.312H632.778C632.633 102.747 632.488 103.037 632.198 103.472Z" fill="white"/>
<path opacity="0.3" d="M629.153 103.617L626.543 106.226C627.558 107.096 628.718 107.676 630.168 107.676V103.907C629.878 104.052 629.443 103.907 629.153 103.617Z" fill="white"/>
<path opacity="0.3" d="M630.748 104.052V107.821C632.198 107.821 633.503 107.241 634.373 106.372L631.763 103.762C631.473 103.907 631.183 104.052 630.748 104.052Z" fill="white"/>
<path opacity="0.3" d="M628.718 100.573L626.108 97.9631C625.238 98.978 624.658 100.283 624.658 101.732H628.428C628.283 101.298 628.428 101.008 628.718 100.573Z" fill="white"/>
<path opacity="0.3" d="M628.283 102.312H624.513C624.658 103.762 625.238 104.922 626.108 105.937L628.718 103.327C628.573 103.037 628.428 102.747 628.283 102.312Z" fill="white"/>
<path opacity="0.3" d="M630.168 99.5578V95.9335C628.718 96.0785 627.412 96.6584 626.397 97.5282L629.008 100.138C629.298 99.8478 629.733 99.7028 630.168 99.5578Z" fill="white"/>
<path d="M630.748 95.0637C630.313 95.0637 629.733 95.0636 629.298 95.2086C626.108 95.7885 623.788 98.5429 623.788 101.877C623.788 105.647 626.833 108.691 630.603 108.691C632.488 108.691 634.228 107.966 635.388 106.661C636.693 105.357 637.418 103.762 637.418 101.877C637.418 98.108 634.373 95.0637 630.748 95.0637ZM632.778 101.732C632.778 101.297 632.633 100.862 632.343 100.428L634.953 97.8181C635.823 98.8329 636.403 100.138 636.548 101.732H632.778ZM626.543 106.372L629.153 103.762C629.443 103.907 629.733 104.052 630.168 104.197V107.966C628.718 107.676 627.558 107.241 626.543 106.372ZM632.053 100.138C631.763 99.8478 631.328 99.7027 630.748 99.7027V95.9335C632.198 95.9335 633.648 96.5133 634.663 97.5281L632.053 100.138ZM628.283 101.732H624.513C624.513 100.283 625.093 98.9779 625.963 97.9631L628.573 100.573C628.428 101.008 628.283 101.297 628.283 101.732ZM628.283 102.312C628.428 102.747 628.573 103.037 628.718 103.327L626.108 105.937C625.238 104.922 624.658 103.762 624.513 102.312H628.283ZM630.603 103.762C629.588 103.762 628.718 102.892 628.718 101.877C628.718 100.862 629.588 99.9927 630.603 99.9927C631.328 99.9927 631.908 100.428 632.198 101.008V101.152C632.343 101.297 632.343 101.587 632.343 101.877C632.343 102.167 632.343 102.312 632.198 102.602C632.053 103.182 631.328 103.762 630.603 103.762ZM630.748 104.052C631.183 104.052 631.473 103.907 631.763 103.762L634.373 106.372C633.358 107.241 632.053 107.821 630.748 107.821V104.052ZM630.168 95.9335V99.7027C629.733 99.8477 629.298 99.9927 629.008 100.283L626.398 97.6732C627.413 96.6583 628.718 95.9335 630.168 95.9335ZM634.808 106.082L632.198 103.472C632.488 103.182 632.633 102.747 632.778 102.312H636.548C636.403 103.762 635.823 105.067 634.808 106.082Z" fill="white"/>
</g>
<g>
<path d="M669.317 117.679C678.046 117.679 685.122 110.605 685.122 101.877C685.122 93.1502 678.046 86.0754 669.317 86.0754C660.588 86.0754 653.512 93.1502 653.512 101.877C653.512 110.605 660.588 117.679 669.317 117.679Z" fill="#3B5266"/>
<path d="M658.587 101.877C658.587 97.6731 660.907 94.1938 664.387 92.3092L663.807 91.4394C660.037 93.469 657.427 97.3832 657.427 101.877C657.427 106.371 660.037 110.286 663.807 112.315L664.387 111.446C660.907 109.561 658.587 105.937 658.587 101.877Z" fill="#76C1AA"/>
<path d="M674.682 91.4394L674.247 92.3092C677.727 94.0489 680.192 97.6731 680.192 101.877C680.192 106.082 677.727 109.706 674.247 111.446L674.682 112.315C678.452 110.286 681.062 106.371 681.062 101.877C681.062 97.2382 678.452 93.324 674.682 91.4394Z" fill="#76C1AA"/>
<path opacity="0.3" d="M669.317 104.197C670.598 104.197 671.637 103.158 671.637 101.877C671.637 100.596 670.598 99.5578 669.317 99.5578C668.035 99.5578 666.997 100.596 666.997 101.877C666.997 103.158 668.035 104.197 669.317 104.197Z" fill="white"/>
<path opacity="0.3" d="M670.622 100.138L673.232 97.5282C672.217 96.5134 670.912 95.9335 669.317 95.9335V99.7028C669.897 99.7028 670.332 99.8478 670.622 100.138Z" fill="white"/>
<path opacity="0.3" d="M671.492 101.732H675.262C675.262 100.283 674.682 98.8329 673.667 97.8181L671.057 100.428C671.347 100.863 671.492 101.298 671.492 101.732Z" fill="white"/>
<path opacity="0.3" d="M670.912 103.472L673.522 106.082C674.537 105.067 675.117 103.762 675.117 102.312H671.347C671.347 102.747 671.202 103.037 670.912 103.472Z" fill="white"/>
<path opacity="0.3" d="M667.867 103.617L665.257 106.226C666.272 107.096 667.432 107.676 668.882 107.676V103.907C668.447 104.052 668.157 103.907 667.867 103.617Z" fill="white"/>
<path opacity="0.3" d="M669.462 104.052V107.821C670.912 107.821 672.217 107.241 673.087 106.372L670.477 103.762C670.187 103.907 669.752 104.052 669.462 104.052Z" fill="white"/>
<path opacity="0.3" d="M667.287 100.573L664.677 97.9631C663.807 98.978 663.227 100.283 663.227 101.732H666.997C666.997 101.298 667.142 101.008 667.287 100.573Z" fill="white"/>
<path opacity="0.3" d="M666.997 102.312H663.227C663.372 103.762 663.952 104.922 664.822 105.937L667.432 103.327C667.287 103.037 667.142 102.747 666.997 102.312Z" fill="white"/>
<path opacity="0.3" d="M668.882 99.5578V95.9335C667.432 96.0785 666.127 96.6584 665.112 97.5282L667.722 100.138C668.012 99.8478 668.447 99.7028 668.882 99.5578Z" fill="white"/>
<path d="M669.317 95.0637C668.882 95.0637 668.302 95.0636 667.867 95.2086C664.677 95.7885 662.357 98.5429 662.357 101.877C662.357 105.647 665.402 108.691 669.172 108.691C671.057 108.691 672.797 107.966 673.957 106.661C675.262 105.357 675.987 103.762 675.987 101.877C676.132 98.108 673.087 95.0637 669.317 95.0637ZM671.492 101.732C671.492 101.297 671.347 100.862 671.057 100.428L673.667 97.8181C674.537 98.8329 675.117 100.138 675.262 101.732H671.492ZM665.257 106.372L667.867 103.762C668.157 103.907 668.447 104.052 668.882 104.197V107.966C667.432 107.676 666.272 107.241 665.257 106.372ZM670.622 100.138C670.332 99.8478 669.897 99.7027 669.317 99.7027V95.9335C670.767 95.9335 672.217 96.5133 673.232 97.5281L670.622 100.138ZM666.997 101.732H663.227C663.227 100.283 663.807 98.9779 664.677 97.9631L667.287 100.573C667.142 101.008 666.997 101.297 666.997 101.732ZM666.997 102.312C667.142 102.747 667.287 103.037 667.432 103.327L664.822 105.937C663.952 104.922 663.372 103.762 663.227 102.312H666.997ZM669.317 103.762C668.302 103.762 667.432 102.892 667.432 101.877C667.432 100.862 668.302 99.9927 669.317 99.9927C670.042 99.9927 670.622 100.428 670.912 101.008V101.152C671.057 101.297 671.057 101.587 671.057 101.877C671.057 102.167 671.057 102.312 670.912 102.602C670.767 103.182 670.042 103.762 669.317 103.762ZM669.462 104.052C669.897 104.052 670.187 103.907 670.477 103.762L673.087 106.372C672.072 107.241 670.767 107.821 669.462 107.821V104.052ZM668.882 95.9335V99.7027C668.447 99.8477 668.012 99.9927 667.722 100.283L665.112 97.6732C666.127 96.6583 667.432 95.9335 668.882 95.9335ZM673.522 106.082L670.912 103.472C671.202 103.182 671.347 102.747 671.492 102.312H675.262C675.117 103.762 674.537 105.067 673.522 106.082Z" fill="white"/>
</g>
<g>
<path d="M708.032 117.679C716.761 117.679 723.837 110.605 723.837 101.877C723.837 93.1502 716.761 86.0754 708.032 86.0754C699.304 86.0754 692.228 93.1502 692.228 101.877C692.228 110.605 699.304 117.679 708.032 117.679Z" fill="#3B5266"/>
<path d="M697.303 101.877C697.303 97.6731 699.623 94.1938 703.103 92.3092L702.523 91.4394C698.753 93.469 696.143 97.3832 696.143 101.877C696.143 106.371 698.753 110.286 702.523 112.315L703.103 111.446C699.623 109.561 697.303 105.937 697.303 101.877Z" fill="#76C1AA"/>
<path d="M713.397 91.4394L712.962 92.3092C716.442 94.0489 718.907 97.6731 718.907 101.877C718.907 106.082 716.442 109.706 712.962 111.446L713.397 112.315C717.167 110.286 719.777 106.371 719.777 101.877C719.777 97.2382 717.167 93.324 713.397 91.4394Z" fill="#76C1AA"/>
<path opacity="0.3" d="M708.032 104.197C709.314 104.197 710.352 103.158 710.352 101.877C710.352 100.596 709.314 99.5578 708.032 99.5578C706.751 99.5578 705.712 100.596 705.712 101.877C705.712 103.158 706.751 104.197 708.032 104.197Z" fill="white"/>
<path opacity="0.3" d="M709.338 100.138L711.948 97.5282C710.933 96.5134 709.628 95.9335 708.033 95.9335V99.7028C708.613 99.7028 709.048 99.8478 709.338 100.138Z" fill="white"/>
<path opacity="0.3" d="M710.208 101.732H713.977C713.977 100.283 713.398 98.8329 712.383 97.8181L709.772 100.428C710.062 100.863 710.208 101.298 710.208 101.732Z" fill="white"/>
<path opacity="0.3" d="M709.627 103.472L712.237 106.082C713.252 105.067 713.833 103.762 713.833 102.312H710.062C710.062 102.747 709.917 103.037 709.627 103.472Z" fill="white"/>
<path opacity="0.3" d="M706.582 103.617L703.972 106.226C704.987 107.096 706.147 107.676 707.597 107.676V103.907C707.162 104.052 706.872 103.907 706.582 103.617Z" fill="white"/>
<path opacity="0.3" d="M708.177 104.052V107.821C709.627 107.821 710.932 107.241 711.802 106.372L709.192 103.762C708.902 103.907 708.467 104.052 708.177 104.052Z" fill="white"/>
<path opacity="0.3" d="M706.002 100.573L703.392 97.9631C702.522 98.978 701.942 100.283 701.942 101.732H705.712C705.712 101.298 705.857 101.008 706.002 100.573Z" fill="white"/>
<path opacity="0.3" d="M705.712 102.312H701.942C702.087 103.762 702.667 104.922 703.537 105.937L706.147 103.327C706.002 103.037 705.857 102.747 705.712 102.312Z" fill="white"/>
<path opacity="0.3" d="M707.597 99.5578V95.9335C706.147 96.0785 704.842 96.6584 703.827 97.5282L706.437 100.138C706.727 99.8478 707.162 99.7028 707.597 99.5578Z" fill="white"/>
<path d="M708.032 95.0637C707.597 95.0637 707.017 95.0636 706.582 95.2086C703.392 95.7885 701.072 98.5429 701.072 101.877C701.072 105.647 704.117 108.691 707.887 108.691C709.772 108.691 711.512 107.966 712.672 106.661C713.977 105.357 714.702 103.762 714.702 101.877C714.847 98.108 711.802 95.0637 708.032 95.0637ZM710.207 101.732C710.207 101.297 710.062 100.862 709.772 100.428L712.382 97.8181C713.252 98.8329 713.832 100.138 713.977 101.732H710.207ZM703.972 106.372L706.582 103.762C706.872 103.907 707.162 104.052 707.597 104.197V107.966C706.147 107.676 704.987 107.241 703.972 106.372ZM709.337 100.138C709.047 99.8478 708.612 99.7027 708.032 99.7027V95.9335C709.482 95.9335 710.932 96.5133 711.947 97.5281L709.337 100.138ZM705.712 101.732H701.942C701.942 100.283 702.522 98.9779 703.392 97.9631L706.002 100.573C705.857 101.008 705.712 101.297 705.712 101.732ZM705.712 102.312C705.857 102.747 706.002 103.037 706.147 103.327L703.537 105.937C702.667 104.922 702.087 103.762 701.942 102.312H705.712ZM708.032 103.762C707.017 103.762 706.147 102.892 706.147 101.877C706.147 100.862 707.017 99.9927 708.032 99.9927C708.757 99.9927 709.337 100.428 709.627 101.008V101.152C709.772 101.297 709.772 101.587 709.772 101.877C709.772 102.167 709.772 102.312 709.627 102.602C709.337 103.182 708.757 103.762 708.032 103.762ZM708.177 104.052C708.612 104.052 708.902 103.907 709.192 103.762L711.802 106.372C710.787 107.241 709.482 107.821 708.177 107.821V104.052ZM707.597 95.9335V99.7027C707.162 99.8477 706.727 99.9927 706.437 100.283L703.827 97.6732C704.697 96.6583 706.147 95.9335 707.597 95.9335ZM712.237 106.082L709.627 103.472C709.917 103.182 710.062 102.747 710.207 102.312H713.977C713.832 103.762 713.107 105.067 712.237 106.082Z" fill="white"/>
</g>
<g>
<path d="M746.602 117.679C755.331 117.679 762.407 110.605 762.407 101.877C762.407 93.1502 755.331 86.0754 746.602 86.0754C737.873 86.0754 730.797 93.1502 730.797 101.877C730.797 110.605 737.873 117.679 746.602 117.679Z" fill="#3B5266"/>
<path d="M736.017 101.877C736.017 97.6731 738.337 94.1938 741.817 92.3092L741.237 91.4394C737.467 93.469 734.857 97.3832 734.857 101.877C734.857 106.371 737.467 110.286 741.237 112.315L741.817 111.446C738.337 109.561 736.017 105.937 736.017 101.877Z" fill="#76C1AA"/>
<path d="M752.112 91.4394L751.677 92.3092C755.157 94.0489 757.622 97.6731 757.622 101.877C757.622 106.082 755.157 109.706 751.677 111.446L752.112 112.315C755.882 110.286 758.492 106.371 758.492 101.877C758.492 97.2382 755.882 93.324 752.112 91.4394Z" fill="#76C1AA"/>
<path opacity="0.3" d="M746.602 104.197C747.883 104.197 748.922 103.158 748.922 101.877C748.922 100.596 747.883 99.5578 746.602 99.5578C745.32 99.5578 744.282 100.596 744.282 101.877C744.282 103.158 745.32 104.197 746.602 104.197Z" fill="white"/>
<path opacity="0.3" d="M748.052 100.138L750.662 97.5282C749.647 96.5134 748.342 95.9335 746.747 95.9335V99.7028C747.327 99.7028 747.762 99.8478 748.052 100.138Z" fill="white"/>
<path opacity="0.3" d="M748.922 101.732H752.692C752.692 100.283 752.112 98.8329 751.097 97.8181L748.487 100.428C748.632 100.863 748.922 101.298 748.922 101.732Z" fill="white"/>
<path opacity="0.3" d="M748.342 103.472L750.952 106.082C751.967 105.067 752.547 103.762 752.547 102.312H748.777C748.777 102.747 748.632 103.037 748.342 103.472Z" fill="white"/>
<path opacity="0.3" d="M745.297 103.617L742.687 106.226C743.702 107.096 744.862 107.676 746.312 107.676V103.907C745.877 104.052 745.587 103.907 745.297 103.617Z" fill="white"/>
<path opacity="0.3" d="M746.747 104.052V107.821C748.197 107.821 749.502 107.241 750.372 106.372L747.762 103.762C747.472 103.907 747.182 104.052 746.747 104.052Z" fill="white"/>
<path opacity="0.3" d="M744.717 100.573L742.107 97.9631C741.237 98.978 740.657 100.283 740.657 101.732H744.427C744.427 101.298 744.572 101.008 744.717 100.573Z" fill="white"/>
<path opacity="0.3" d="M744.427 102.312H740.657C740.802 103.762 741.382 104.922 742.252 105.937L744.862 103.327C744.717 103.037 744.427 102.747 744.427 102.312Z" fill="white"/>
<path opacity="0.3" d="M746.167 99.5578V95.9335C744.717 96.0785 743.412 96.6584 742.397 97.5282L745.007 100.138C745.442 99.8478 745.732 99.7028 746.167 99.5578Z" fill="white"/>
<path d="M746.747 95.0637C746.312 95.0637 745.732 95.0636 745.297 95.2086C742.107 95.7885 739.787 98.5429 739.787 101.877C739.787 105.647 742.832 108.691 746.602 108.691C748.487 108.691 750.227 107.966 751.387 106.661C752.692 105.357 753.417 103.762 753.417 101.877C753.562 98.108 750.517 95.0637 746.747 95.0637ZM748.922 101.732C748.922 101.297 748.777 100.862 748.487 100.428L751.097 97.8181C751.967 98.8329 752.547 100.138 752.692 101.732H748.922ZM742.687 106.372L745.297 103.762C745.587 103.907 745.877 104.052 746.312 104.197V107.966C744.862 107.676 743.557 107.241 742.687 106.372ZM748.052 100.138C747.762 99.8478 747.327 99.7027 746.747 99.7027V95.9335C748.197 95.9335 749.647 96.5133 750.662 97.5281L748.052 100.138ZM744.427 101.732H740.657C740.657 100.283 741.237 98.9779 742.107 97.9631L744.717 100.573C744.572 101.008 744.427 101.297 744.427 101.732ZM744.427 102.312C744.572 102.747 744.717 103.037 744.862 103.327L742.252 105.937C741.382 104.922 740.802 103.762 740.657 102.312H744.427ZM746.602 103.762C745.587 103.762 744.717 102.892 744.717 101.877C744.717 100.862 745.587 99.9927 746.602 99.9927C747.327 99.9927 747.907 100.428 748.197 101.008V101.152C748.342 101.297 748.342 101.587 748.342 101.877C748.342 102.167 748.342 102.312 748.197 102.602C748.052 103.182 747.472 103.762 746.602 103.762ZM746.747 104.052C747.182 104.052 747.472 103.907 747.762 103.762L750.372 106.372C749.357 107.241 748.052 107.821 746.747 107.821V104.052ZM746.167 95.9335V99.7027C745.732 99.8477 745.297 99.9927 745.007 100.283L742.397 97.6732C743.412 96.6583 744.717 95.9335 746.167 95.9335ZM750.952 106.082L748.342 103.472C748.632 103.182 748.777 102.747 748.922 102.312H752.692C752.402 103.762 751.822 105.067 750.952 106.082Z" fill="white"/>
</g>
<g>
<path d="M785.317 117.679C794.046 117.679 801.122 110.605 801.122 101.877C801.122 93.1502 794.046 86.0754 785.317 86.0754C776.588 86.0754 769.512 93.1502 769.512 101.877C769.512 110.605 776.588 117.679 785.317 117.679Z" fill="#3B5266"/>
<path d="M774.587 101.877C774.587 97.6731 776.907 94.1938 780.387 92.3092L779.807 91.4394C776.037 93.469 773.427 97.3832 773.427 101.877C773.427 106.371 776.037 110.286 779.807 112.315L780.387 111.446C777.052 109.561 774.587 105.937 774.587 101.877Z" fill="#76C1AA"/>
<path d="M790.827 91.4394L790.392 92.3092C793.872 94.0489 796.337 97.6731 796.337 101.877C796.337 106.082 793.872 109.706 790.392 111.446L790.827 112.315C794.597 110.286 797.207 106.371 797.207 101.877C797.207 97.2382 794.597 93.324 790.827 91.4394Z" fill="#76C1AA"/>
<path opacity="0.3" d="M785.317 104.197C786.598 104.197 787.636 103.158 787.636 101.877C787.636 100.596 786.598 99.5578 785.317 99.5578C784.035 99.5578 782.997 100.596 782.997 101.877C782.997 103.158 784.035 104.197 785.317 104.197Z" fill="white"/>
<path opacity="0.3" d="M786.767 100.138L789.377 97.5282C788.362 96.5134 787.057 95.9335 785.462 95.9335V99.7028C785.897 99.7028 786.332 99.8478 786.767 100.138Z" fill="white"/>
<path opacity="0.3" d="M787.637 101.732H791.407C791.407 100.283 790.827 98.8329 789.812 97.8181L787.202 100.428C787.347 100.863 787.492 101.298 787.637 101.732Z" fill="white"/>
<path opacity="0.3" d="M786.912 103.472L789.522 106.082C790.537 105.067 791.117 103.762 791.117 102.312H787.347C787.492 102.747 787.202 103.037 786.912 103.472Z" fill="white"/>
<path opacity="0.3" d="M784.012 103.617L781.402 106.226C782.417 107.096 783.577 107.676 785.027 107.676V103.907C784.592 104.052 784.302 103.907 784.012 103.617Z" fill="white"/>
<path opacity="0.3" d="M785.462 104.052V107.821C786.912 107.821 788.217 107.241 789.087 106.372L786.477 103.762C786.187 103.907 785.897 104.052 785.462 104.052Z" fill="white"/>
<path opacity="0.3" d="M783.432 100.573L780.822 97.9631C779.952 98.978 779.372 100.283 779.372 101.732H783.142C783.142 101.298 783.142 101.008 783.432 100.573Z" fill="white"/>
<path opacity="0.3" d="M783.142 102.312H779.372C779.517 103.762 780.097 104.922 780.967 105.937L783.577 103.327C783.287 103.037 783.142 102.747 783.142 102.312Z" fill="white"/>
<path opacity="0.3" d="M784.882 99.5578V95.9335C783.432 96.0785 782.127 96.6584 781.112 97.5282L783.722 100.138C784.157 99.8478 784.447 99.7028 784.882 99.5578Z" fill="white"/>
<path d="M785.462 95.0637C785.027 95.0637 784.447 95.0636 784.012 95.2086C780.822 95.7885 778.502 98.5429 778.502 101.877C778.502 105.647 781.547 108.691 785.317 108.691C787.202 108.691 788.942 107.966 790.102 106.661C791.407 105.357 792.132 103.762 792.132 101.877C792.277 98.108 789.232 95.0637 785.462 95.0637ZM787.637 101.732C787.637 101.297 787.492 100.862 787.202 100.428L789.812 97.8181C790.682 98.8329 791.262 100.138 791.407 101.732H787.637ZM781.402 106.372L784.012 103.762C784.302 103.907 784.592 104.052 785.027 104.197V107.966C783.577 107.676 782.272 107.241 781.402 106.372ZM786.767 100.138C786.477 99.8478 786.042 99.7027 785.462 99.7027V95.9335C786.912 95.9335 788.362 96.5133 789.377 97.5281L786.767 100.138ZM782.997 101.732H779.227C779.227 100.283 779.807 98.9779 780.677 97.9631L783.287 100.573C783.142 101.008 783.142 101.297 782.997 101.732ZM783.142 102.312C783.287 102.747 783.432 103.037 783.577 103.327L780.967 105.937C780.097 104.922 779.517 103.762 779.372 102.312H783.142ZM785.317 103.762C784.302 103.762 783.432 102.892 783.432 101.877C783.432 100.862 784.302 99.9927 785.317 99.9927C786.042 99.9927 786.622 100.428 786.912 101.008V101.152C787.057 101.297 787.057 101.587 787.057 101.877C787.057 102.167 787.057 102.312 786.912 102.602C786.767 103.182 786.187 103.762 785.317 103.762ZM785.462 104.052C785.897 104.052 786.187 103.907 786.477 103.762L789.087 106.372C788.072 107.241 786.767 107.821 785.462 107.821V104.052ZM784.882 95.9335V99.7027C784.447 99.8477 784.012 99.9927 783.722 100.283L781.112 97.6732C782.127 96.6583 783.432 95.9335 784.882 95.9335ZM789.667 106.082L787.057 103.472C787.347 103.182 787.492 102.747 787.637 102.312H791.407C791.117 103.762 790.537 105.067 789.667 106.082Z" fill="white"/>
</g>
<g>
<path d="M824.032 117.679C832.76 117.679 839.836 110.605 839.836 101.877C839.836 93.1502 832.76 86.0754 824.032 86.0754C815.303 86.0754 808.227 93.1502 808.227 101.877C808.227 110.605 815.303 117.679 824.032 117.679Z" fill="#3B5266"/>
<path d="M813.302 101.877C813.302 97.6731 815.622 94.1938 819.102 92.3092L818.522 91.4394C814.752 93.469 812.142 97.3832 812.142 101.877C812.142 106.371 814.752 110.286 818.522 112.315L819.102 111.446C815.622 109.561 813.302 105.937 813.302 101.877Z" fill="#76C1AA"/>
<path d="M829.541 91.4394L829.106 92.3092C832.586 94.0489 835.051 97.6731 835.051 101.877C835.051 106.082 832.586 109.706 829.106 111.446L829.541 112.315C833.311 110.286 835.921 106.371 835.921 101.877C835.776 97.2382 833.311 93.324 829.541 91.4394Z" fill="#76C1AA"/>
<path opacity="0.3" d="M824.031 104.197C825.313 104.197 826.351 103.158 826.351 101.877C826.351 100.596 825.313 99.5578 824.031 99.5578C822.75 99.5578 821.711 100.596 821.711 101.877C821.711 103.158 822.75 104.197 824.031 104.197Z" fill="white"/>
<path opacity="0.3" d="M825.482 100.138L828.092 97.5282C827.077 96.5134 825.772 95.9335 824.177 95.9335V99.7028C824.612 99.7028 825.047 99.8478 825.482 100.138Z" fill="white"/>
<path opacity="0.3" d="M826.207 101.732H829.977C829.977 100.283 829.397 98.8329 828.382 97.8181L825.772 100.428C826.062 100.863 826.207 101.298 826.207 101.732Z" fill="white"/>
<path opacity="0.3" d="M825.627 103.472L828.237 106.082C829.252 105.067 829.832 103.762 829.832 102.312H826.062C826.207 102.747 825.917 103.037 825.627 103.472Z" fill="white"/>
<path opacity="0.3" d="M822.727 103.617L820.117 106.226C821.132 107.096 822.292 107.676 823.742 107.676V103.907C823.307 104.052 822.872 103.907 822.727 103.617Z" fill="white"/>
<path opacity="0.3" d="M824.177 104.052V107.821C825.627 107.821 826.932 107.241 827.802 106.372L825.192 103.762C824.902 103.907 824.612 104.052 824.177 104.052Z" fill="white"/>
<path opacity="0.3" d="M822.147 100.573L819.537 97.9631C818.667 98.978 818.087 100.283 818.087 101.732H821.857C821.712 101.298 821.857 101.008 822.147 100.573Z" fill="white"/>
<path opacity="0.3" d="M821.712 102.312H817.942C818.087 103.762 818.667 104.922 819.537 105.937L822.147 103.327C822.002 103.037 821.857 102.747 821.712 102.312Z" fill="white"/>
<path opacity="0.3" d="M823.597 99.5578V95.9335C822.147 96.0785 820.842 96.6584 819.827 97.5282L822.437 100.138C822.727 99.8478 823.162 99.7028 823.597 99.5578Z" fill="white"/>
</g>
<path d="M824.177 95.0637C823.742 95.0637 823.162 95.0636 822.727 95.2086C819.537 95.7885 817.217 98.5429 817.217 101.877C817.217 105.647 820.262 108.691 824.032 108.691C825.917 108.691 827.657 107.966 828.817 106.661C830.122 105.357 830.847 103.762 830.847 101.877C830.847 98.108 827.947 95.0637 824.177 95.0637ZM826.207 101.732C826.207 101.297 826.062 100.862 825.772 100.428L828.382 97.8181C829.252 98.8329 829.832 100.138 829.977 101.732H826.207ZM819.972 106.372L822.582 103.762C822.872 103.907 823.162 104.052 823.597 104.197V107.966C822.292 107.676 820.987 107.241 819.972 106.372ZM825.482 100.138C825.192 99.8478 824.757 99.7027 824.177 99.7027V95.9335C825.627 95.9335 827.077 96.5133 828.092 97.5281L825.482 100.138ZM821.712 101.732H817.942C817.942 100.283 818.522 98.9779 819.392 97.9631L822.002 100.573C821.857 101.008 821.712 101.297 821.712 101.732ZM821.712 102.312C821.857 102.747 822.002 103.037 822.147 103.327L819.537 105.937C818.667 104.922 818.087 103.762 817.942 102.312H821.712ZM824.032 103.762C823.017 103.762 822.147 102.892 822.147 101.877C822.147 100.862 823.017 99.9927 824.032 99.9927C824.757 99.9927 825.337 100.428 825.627 101.008V101.152C825.772 101.297 825.772 101.587 825.772 101.877C825.772 102.167 825.772 102.312 825.627 102.602C825.482 103.182 824.757 103.762 824.032 103.762ZM824.177 104.052C824.612 104.052 824.902 103.907 825.192 103.762L827.802 106.372C826.787 107.241 825.482 107.821 824.177 107.821V104.052ZM823.597 95.9335V99.7027C823.162 99.8477 822.727 99.9927 822.437 100.283L819.827 97.6732C820.842 96.6583 822.147 95.9335 823.597 95.9335ZM828.237 106.082L825.627 103.472C825.917 103.182 826.062 102.747 826.207 102.312H829.977C829.832 103.762 829.252 105.067 828.237 106.082Z" fill="white"/>
<path d="M84.385 88.8298C84.385 88.8298 84.53 88.8298 84.385 88.8298C84.53 88.8298 84.53 88.8298 84.385 88.8298C84.53 88.8298 85.545 88.6848 86.27 88.1049C86.995 87.2351 87.2849 85.7854 86.7049 85.0606C86.4149 84.7706 85.98 84.6257 85.545 84.6257C85.11 84.7707 84.82 84.9156 84.675 85.3505C84.675 85.4955 84.675 85.4955 84.675 85.6405C84.82 85.6405 84.82 85.6405 84.965 85.6405C85.11 85.4955 85.255 85.4955 85.4 85.4955C85.545 85.4955 85.545 85.6405 85.6899 85.7854C85.6899 85.9304 85.69 86.0754 85.545 86.2203L85.4 86.3654C85.11 86.3654 84.675 86.0754 84.24 85.6405C83.805 85.2056 83.225 84.9156 82.79 84.6257C82.065 84.3357 79.89 83.9008 78.44 84.9156C78.44 84.9156 77.57 85.6404 77.425 86.2203C77.135 86.8002 77.135 87.5251 77.28 87.96C77.135 88.105 76.99 88.25 76.99 88.5399C76.99 88.9748 77.425 89.2647 78.15 89.4097C78.15 89.5547 78.005 89.5547 78.005 89.6997C78.005 90.1346 78.585 90.5695 79.31 90.5695C79.89 90.5695 80.325 90.4245 80.47 90.1346C80.615 90.4245 81.05 90.5695 81.63 90.5695C82.355 90.5695 82.935 90.1346 82.935 89.6997C82.935 89.5547 82.935 89.4097 82.79 89.4097C83.225 89.4097 83.515 89.2648 83.805 88.9748C83.805 88.9748 83.805 88.9748 83.95 88.9748C83.805 88.9748 84.095 88.9748 84.385 88.8298ZM85.4 88.1049C85.255 88.2499 84.965 88.25 84.82 88.25C84.965 87.3801 84.385 86.5103 84.24 86.0754C84.53 86.3653 84.82 86.5103 85.11 86.6552C85.255 87.0901 85.545 87.525 85.4 88.1049ZM83.805 88.5399C83.805 88.3949 83.66 88.105 83.515 87.8151C83.225 87.2352 82.645 86.3653 81.195 85.9304C79.31 85.3505 78.44 85.6404 78.005 85.9304C78.005 85.9304 78.005 85.9304 78.15 85.7854C78.295 85.6405 78.44 85.4955 78.585 85.3505C79.165 85.0606 80.18 85.0606 81.63 85.4955C83.515 86.0754 84.095 87.3801 84.24 87.96C84.24 88.105 84.385 88.3949 84.385 88.5399C84.385 88.5399 84.385 88.5399 84.24 88.5399C83.95 88.5399 83.95 88.5399 83.805 88.5399ZM81.05 86.8002C80.76 86.8002 80.615 86.9452 80.47 87.0902C80.18 86.8003 79.89 86.6552 79.31 86.6552C79.165 86.6552 79.02 86.6552 78.875 86.6552C79.31 86.5103 79.89 86.5103 80.47 86.5103C80.615 86.6553 80.76 86.8002 81.05 86.8002ZM79.31 87.0902C79.745 87.0902 80.18 87.3801 80.18 87.5251C80.18 87.6701 80.035 87.8151 79.89 87.8151H79.745C79.6 87.8151 79.455 87.8151 79.31 87.8151C78.875 87.8151 78.44 87.525 78.44 87.3801C78.44 87.3801 78.73 87.0902 79.31 87.0902ZM79.89 88.3949H80.035C80.18 88.3949 80.18 88.3949 80.325 88.3949C80.905 88.3949 81.195 88.6848 81.195 88.8298C81.195 88.9748 80.76 89.2648 80.325 89.2648C79.745 89.2648 79.455 88.9748 79.455 88.8298C79.455 88.5398 79.6 88.3949 79.89 88.3949ZM80.615 87.5251C80.615 87.3801 81.05 87.0902 81.485 87.0902C81.63 87.0902 81.63 87.0902 81.775 87.0902C82.065 87.0902 82.355 87.3801 82.355 87.5251C82.355 87.6701 82.21 87.815 81.92 87.96C81.775 87.96 81.63 87.96 81.485 87.96C80.905 87.96 80.615 87.815 80.615 87.5251ZM77.86 87.96C77.86 87.815 77.86 87.815 77.86 87.67C77.86 87.5251 78.005 87.3801 78.15 87.2351C78.005 87.3801 78.005 87.5251 78.005 87.67C78.005 87.815 78.005 87.96 78.15 87.96C78.005 87.96 78.005 87.96 77.86 87.96ZM82.645 87.8151C82.645 87.96 82.645 87.96 82.645 87.8151C82.645 87.96 82.645 87.96 82.645 87.8151C82.645 87.96 82.645 87.96 82.645 87.8151ZM77.28 88.6849C77.28 88.5399 77.425 88.5399 77.57 88.3949C77.715 88.3949 77.86 88.25 78.005 88.25C78.15 88.25 78.15 88.25 78.295 88.25C78.875 88.25 79.165 88.5399 79.165 88.6849C79.165 88.8298 79.02 88.8298 79.02 88.9748C78.875 89.1198 78.585 89.1197 78.295 89.1197C77.57 89.1197 77.28 88.9748 77.28 88.6849ZM79.165 90.4245C78.585 90.4245 78.295 90.2796 78.295 89.9896C78.295 89.8447 78.73 89.5546 79.165 89.5546C79.455 89.5546 79.6 89.5547 79.89 89.6997C79.89 89.6997 80.035 89.8447 80.035 89.9896C80.035 90.1346 79.6 90.4245 79.165 90.4245ZM81.485 90.4245C80.905 90.4245 80.615 90.1346 80.615 89.9896C80.615 89.9896 80.615 89.8446 80.76 89.8446C80.905 89.6996 81.195 89.5546 81.485 89.5546C81.63 89.5546 81.775 89.5546 81.92 89.5546C82.21 89.6996 82.355 89.8447 82.355 89.9896C82.355 90.1346 81.92 90.4245 81.485 90.4245ZM83.37 88.8298C83.225 88.9748 82.935 89.1197 82.5 89.1197C82.355 89.1197 82.21 89.1197 82.065 89.1197C81.775 88.9748 81.63 88.8298 81.63 88.6849C81.63 88.5399 81.775 88.3949 82.065 88.25C82.21 88.25 82.355 88.25 82.5 88.25C82.645 88.25 82.645 88.25 82.79 88.25C83.08 88.3949 83.37 88.5398 83.37 88.8298Z" fill="white"/>
<path d="M94.8249 84.1908V73.6077C94.8249 73.4628 94.8249 73.3179 94.6799 73.3179C94.5349 73.3179 94.3899 73.3179 94.3899 73.3179L93.2299 73.8977V70.1285C93.2299 69.9835 93.2299 69.8385 93.0849 69.8385C92.9399 69.8385 92.7949 69.8385 92.7949 69.8385L87.5749 73.1728H87.4299C86.5599 73.4628 85.6899 73.6077 84.9649 73.6077C82.4999 73.6077 81.6299 72.0131 81.6299 72.0131C81.6299 71.8681 81.4849 71.8681 81.3399 71.8681C81.1949 71.8681 81.0499 72.0131 81.0499 72.0131C81.0499 72.0131 80.1799 73.6077 77.715 73.6077C76.99 73.6077 76.12 73.4628 75.25 73.1728L70.03 69.8385C69.885 69.8385 69.74 69.8385 69.595 69.8385C69.45 69.8385 69.45 69.9835 69.45 70.1285V73.8977L68.435 73.3179C68.29 73.3179 68.145 73.3179 68.145 73.3179C68 73.3179 68 73.4628 68 73.6077V84.1908C68 84.3358 68 86.9453 70.175 88.9749C72.06 90.8595 74.96 91.8743 78.875 91.8743C78.875 91.8743 78.875 91.8743 79.02 91.8743C80.47 92.3092 81.3399 92.5991 81.3399 93.9039C81.3399 94.0489 81.4849 94.1938 81.6299 94.1938C81.7749 94.1938 81.92 94.0489 81.92 93.9039C81.92 92.7441 82.7899 92.3092 84.2399 91.8743H84.3849C88.2999 91.8743 91.1999 90.8595 93.0849 88.9749C94.8249 86.9453 94.8249 84.3358 94.8249 84.1908ZM76.265 81.1463C76.7 81.0014 76.845 80.1315 76.845 80.1315C76.845 80.1315 77.57 80.5664 78.005 80.4215C78.005 80.5664 78.005 81.0014 78.005 81.0014C78.005 81.0014 77.86 81.2913 78.005 81.5812C78.15 81.7262 78.15 82.0161 78.15 82.3061C77.86 82.3061 77.715 82.3061 77.425 82.3061C76.99 82.3061 76.555 82.3061 76.265 82.3061C76.265 81.7262 76.265 81.4363 76.265 81.1463ZM84.3849 80.4215H85.2549C85.2549 80.8564 85.2549 81.2914 85.3999 82.0162L84.3849 81.8712C84.3849 81.2913 84.3849 80.8564 84.3849 80.4215ZM91.4899 81.8712C90.9099 82.4511 90.0399 82.7411 89.0249 82.7411C88.7349 82.0162 88.5899 81.2913 88.5899 80.7114L92.5049 78.5368C92.5049 78.9718 92.5049 80.7114 91.4899 81.8712ZM70.03 78.5368L73.945 80.7114C73.945 81.2913 73.8 82.0162 73.51 82.7411C72.495 82.7411 71.77 82.4511 71.19 81.8712C70.03 80.7114 70.03 78.9718 70.03 78.5368ZM94.0999 74.1877V80.7114L92.3599 81.7263C93.2299 80.2765 93.2299 78.6819 93.2299 78.3919V74.6226L94.0999 74.1877ZM92.5049 74.3326L89.6049 76.0723C89.4599 75.9273 89.0249 75.3475 88.0099 73.7528L92.5049 70.8533V74.3326ZM84.8199 74.3326C85.5449 74.3326 86.4149 74.1877 87.2849 73.8977C88.2999 75.3474 88.7349 76.0723 89.0249 76.3623C88.5899 77.0871 87.2849 79.5516 88.2999 82.5961C87.8649 82.1611 86.8499 82.0162 85.8349 82.0162C85.6899 81.2914 85.6899 80.8564 85.6899 80.4215H87.2849C87.4299 80.4215 87.4299 80.1316 87.4299 79.8416V78.3919C87.4299 77.2321 86.8499 77.2321 86.8499 77.2321C86.8499 77.2321 86.4149 77.2321 86.2699 76.6522C86.1249 76.0723 85.6899 75.6374 85.2549 75.6374C84.8199 75.6374 83.9499 75.9273 83.3699 76.3623C82.9349 76.5072 82.9349 76.7971 82.9349 77.2321C82.7899 78.2469 82.4999 78.1019 82.4999 78.1019C82.3549 78.1019 82.2099 78.2469 82.2099 78.5368V79.9866C82.2099 80.2765 82.3549 80.5665 82.4999 80.5665H84.0949C84.0949 81.0014 84.0949 81.4363 83.9499 82.1612C82.9349 82.1612 82.0649 82.4511 81.4849 82.886V73.1728C81.9199 73.6078 83.0799 74.3326 84.8199 74.3326ZM80.76 73.3179V82.5961C80.325 82.3061 79.5999 82.1612 78.7299 82.1612C78.5849 81.7262 78.5849 80.5665 78.7299 80.2765C79.4549 80.1316 79.4549 79.4067 79.4549 78.8268C79.4549 78.3919 79.31 76.7972 79.31 76.7972L79.745 76.6522C79.89 76.6522 79.8899 76.6522 79.8899 76.5072C79.8899 76.3622 79.8899 76.2173 79.8899 76.2173L79.4549 76.0723C79.3099 75.9273 79.165 75.7823 79.02 75.7823C78.875 75.7823 78.585 75.7824 78.44 76.0723C78.295 75.9273 78.005 76.0723 77.86 76.0723C77.86 76.0723 77.86 76.7972 78.585 76.6522L78.7299 78.5368C78.7299 78.5368 78.73 78.9718 78.295 78.8268C77.86 78.6818 76.99 78.3919 76.41 78.5368C76.12 78.6818 75.685 78.8268 75.395 79.5517C75.105 80.2765 75.54 79.9866 75.54 79.9866L75.975 79.6966C75.975 79.6966 76.265 80.2765 75.975 80.7114C75.685 81.0014 75.83 81.2914 75.83 81.2914C75.83 81.2914 75.975 82.0161 75.975 82.3061C75.25 82.3061 74.67 82.5961 74.235 82.7411C75.105 79.6967 73.945 77.2321 73.51 76.5072C73.8 76.2173 74.235 75.4925 75.25 74.0427C76.12 74.3327 76.99 74.4776 77.715 74.4776C79.165 74.3327 80.035 73.7528 80.76 73.3179ZM70.03 70.8533L74.525 73.7528C73.655 75.2025 73.075 75.7824 72.93 76.0723L70.03 74.4776V70.8533ZM69.305 74.7676V78.5368C69.305 78.6818 69.305 80.4215 70.175 81.8712L68.435 80.8564V74.1877L69.305 74.7676ZM68.58 85.2055L72.93 87.6701C73.365 88.8299 74.09 89.5547 75.25 90.5695C75.54 90.8595 75.975 91.0045 76.265 91.1495C73.655 90.8595 71.625 89.9897 70.32 88.54C69.16 87.3802 68.725 86.2203 68.58 85.2055ZM81.195 92.7441C80.615 91.8743 79.5999 91.5843 78.44 91.2944C77.425 91.0045 76.41 90.7146 75.54 89.9897C73.365 88.395 72.64 86.9452 73.8 83.6109H88.5899C89.7499 86.9452 89.0249 88.25 86.8499 89.9897C85.9799 90.5696 84.9649 91.0045 83.9499 91.1495C82.7899 91.5844 81.775 91.8743 81.195 92.7441ZM92.2149 88.54C90.7649 89.9897 88.7349 90.8595 86.1249 91.1495C86.5599 91.0045 86.8499 90.7145 87.1399 90.5695C88.2999 89.6997 89.1699 88.8299 89.4599 87.8151C89.4599 87.8151 89.4599 87.8151 89.6049 87.8151L93.9549 85.3506C93.8099 86.0754 93.3749 87.3802 92.2149 88.54Z" fill="white"/>
<path d="M81.1948 71.5782C83.2248 71.5782 84.6748 70.5633 84.6748 69.2586C84.6748 67.9539 83.0798 66.9391 81.1948 66.9391C79.1649 66.9391 77.7148 67.9539 77.7148 69.2586C77.7148 70.5633 79.1649 71.5782 81.1948 71.5782ZM81.1948 67.9539C82.2098 67.9539 82.9348 68.3888 82.9348 68.8237C82.9348 69.2586 82.4998 69.5486 81.9198 69.6936C81.3398 69.8385 81.4848 70.1284 81.1948 70.2734C80.9048 70.1284 81.0498 69.8385 80.4698 69.6936C79.8898 69.5486 79.4548 69.2586 79.4548 68.8237C79.4548 68.2438 80.1798 67.9539 81.1948 67.9539Z" fill="white"/>
</svg>
