<svg class="tracto-dolly-modular transport-item is-hidden" width="871" height="133" viewBox="0 0 871 133" fill="none" xmlns="http://www.w3.org/2000/svg">
    <path d="M240.93 66.0532H328.627L357.019 91.9401H542.828V107.741H347.611L321.739 85.0481H240.93V66.0532Z" fill="#DCE9EF" stroke="#65819B" stroke-miterlimit="10"/>
    <path d="M174.738 89.0825V92.2763H150.714V86.3929H139.962V11.5898H135.426V0.663452H129.546V11.2535H127.362V77.1476H122.658V17.9774H72.2574L72.5934 26.0462H78.8095L64.0254 61.6826H10.2651V99.0002H0.520996V108.246H9.76105V112.448H160.962V107.909H321.907V89.0825H174.738ZM100.482 62.0188H79.4815L89.0575 27.0547H100.482V62.0188Z" fill="#30876A"/>

    <g class="is-hidden-eje">
        <path d="M36.9772 129.426C47.0907 129.426 55.2893 121.222 55.2893 111.103C55.2893 100.984 47.0907 92.7805 36.9772 92.7805C26.8636 92.7805 18.665 100.984 18.665 111.103C18.665 121.222 26.8636 129.426 36.9772 129.426Z" fill="#3B5266"/>
        <path d="M24.5452 111.103C24.5452 106.228 27.2332 102.194 31.2652 100.009L30.5932 99.0002C26.2252 101.354 23.2012 105.892 23.2012 111.103C23.2012 116.314 26.2252 120.853 30.5932 123.206L31.2652 122.197C27.4012 120.18 24.5452 115.978 24.5452 111.103Z" fill="#76C1AA"/>
        <path d="M43.3612 99.0002L42.8572 100.009C46.8892 102.026 49.7452 106.228 49.7452 111.103C49.7452 115.978 46.8892 120.18 42.8572 122.197L43.3612 123.206C47.7292 120.853 50.7533 116.314 50.7533 111.103C50.5852 105.892 47.7292 101.354 43.3612 99.0002Z" fill="#76C1AA"/>
        <path opacity="0.3" d="M36.9771 113.793C38.4616 113.793 39.6651 112.589 39.6651 111.103C39.6651 109.618 38.4616 108.414 36.9771 108.414C35.4925 108.414 34.2891 109.618 34.2891 111.103C34.2891 112.589 35.4925 113.793 36.9771 113.793Z" fill="white"/>
        <path opacity="0.3" d="M38.657 109.086L41.6811 106.06C40.505 104.884 38.993 104.211 37.145 104.211V108.582C37.649 108.582 38.153 108.75 38.657 109.086Z" fill="white"/>
        <path opacity="0.3" d="M39.6651 111.103H44.0332C44.0332 109.422 43.3612 107.741 42.1852 106.564L39.1611 109.59C39.3291 109.926 39.4971 110.431 39.6651 111.103Z" fill="white"/>
        <path opacity="0.3" d="M38.8252 112.952L41.8492 115.978C43.0252 114.801 43.6972 113.288 43.6972 111.607H39.3292C39.4972 112.112 39.1612 112.616 38.8252 112.952Z" fill="white"/>
        <path opacity="0.3" d="M35.4652 113.288L32.4412 116.314C33.6172 117.323 34.9612 117.995 36.6412 117.995V113.625C36.1372 113.625 35.8012 113.456 35.4652 113.288Z" fill="white"/>
        <path opacity="0.3" d="M37.145 113.793V118.163C38.825 118.163 40.3371 117.491 41.3451 116.482L38.321 113.457C37.985 113.625 37.649 113.793 37.145 113.793Z" fill="white"/>
        <path opacity="0.3" d="M34.7932 109.758L31.7691 106.733C30.7611 107.909 30.0891 109.422 30.0891 111.103H34.4571C34.2891 110.599 34.4571 110.095 34.7932 109.758Z" fill="white"/>
        <path opacity="0.3" d="M34.4572 111.607H30.0891C30.2571 113.288 30.9291 114.633 31.9371 115.81L34.9612 112.784C34.6252 112.448 34.4572 112.112 34.4572 111.607Z" fill="white"/>
        <path opacity="0.3" d="M36.473 108.582V104.211C34.793 104.379 33.281 105.052 32.105 106.06L35.129 109.086C35.465 108.918 35.969 108.582 36.473 108.582Z" fill="white"/>
        <path d="M37.1451 103.203C36.6411 103.203 35.9691 103.203 35.4651 103.371C31.7691 104.043 29.0811 107.237 29.0811 111.103C29.0811 115.474 32.6091 119.004 36.9771 119.004C39.1611 119.004 41.1771 118.163 42.5211 116.65C44.0332 115.137 44.8732 113.288 44.8732 111.103C45.0412 106.733 41.5131 103.203 37.1451 103.203ZM39.6651 111.103C39.6651 110.599 39.4971 110.095 39.1611 109.59L42.1851 106.565C43.1932 107.741 43.8652 109.254 44.0332 111.103H39.6651ZM32.2731 116.314L35.2971 113.288C35.6331 113.456 35.9691 113.625 36.4731 113.793V118.163C34.9611 117.995 33.4491 117.323 32.2731 116.314ZM38.6571 109.086C38.3211 108.75 37.8171 108.582 37.1451 108.582V104.211C38.8251 104.211 40.5051 104.884 41.6811 106.06L38.6571 109.086ZM34.2891 111.103H29.9211C29.9211 109.422 30.5931 107.909 31.6011 106.733L34.6251 109.758C34.4571 110.095 34.2891 110.599 34.2891 111.103ZM34.4571 111.607C34.6251 112.112 34.7931 112.448 34.9611 112.784L31.9371 115.81C30.9291 114.633 30.2571 113.288 30.0891 111.607H34.4571ZM36.9771 113.288C35.8011 113.288 34.7931 112.28 34.7931 111.103C34.7931 109.926 35.8011 108.918 36.9771 108.918C37.8171 108.918 38.4891 109.422 38.8251 110.095V110.263C38.9931 110.431 38.9931 110.767 38.9931 111.103C38.9931 111.439 38.9931 111.607 38.8251 111.944C38.6571 112.784 37.8171 113.288 36.9771 113.288ZM37.1451 113.793C37.6491 113.793 37.9851 113.625 38.3211 113.457L41.3451 116.482C40.1691 117.491 38.6571 118.163 37.1451 118.163V113.793ZM36.4731 104.211V108.582C35.9691 108.75 35.4651 108.918 35.1291 109.254L32.1051 106.228C33.2811 105.052 34.7931 104.379 36.4731 104.211ZM42.0171 115.978L38.9931 112.952C39.3291 112.616 39.4971 112.112 39.6651 111.607H44.0332C43.6972 113.288 43.0251 114.801 42.0171 115.978Z" fill="white"/>
    </g>
    <g class="is-hidden-eje">
        <path d="M203.13 129.426C213.244 129.426 221.442 121.222 221.442 111.103C221.442 100.984 213.244 92.7805 203.13 92.7805C193.017 92.7805 184.818 100.984 184.818 111.103C184.818 121.222 193.017 129.426 203.13 129.426Z" fill="#3B5266"/>
        <path d="M190.698 111.103C190.698 106.228 193.386 102.194 197.418 100.009L196.746 99.0002C192.378 101.354 189.354 105.892 189.354 111.103C189.354 116.314 192.378 120.853 196.746 123.206L197.418 122.197C193.386 120.18 190.698 115.978 190.698 111.103Z" fill="#76C1AA"/>
        <path d="M209.347 99.0002L208.843 100.009C212.875 102.026 215.731 106.228 215.731 111.103C215.731 115.978 212.875 120.18 208.843 122.197L209.347 123.206C213.715 120.853 216.739 116.314 216.739 111.103C216.739 105.892 213.715 101.354 209.347 99.0002Z" fill="#76C1AA"/>
        <path opacity="0.3" d="M203.13 113.793C204.615 113.793 205.818 112.589 205.818 111.103C205.818 109.618 204.615 108.414 203.13 108.414C201.646 108.414 200.442 109.618 200.442 111.103C200.442 112.589 201.646 113.793 203.13 113.793Z" fill="white"/>
        <path opacity="0.3" d="M204.81 109.086L207.834 106.06C206.658 104.884 205.146 104.211 203.298 104.211V108.582C203.802 108.582 204.306 108.75 204.81 109.086Z" fill="white"/>
        <path opacity="0.3" d="M205.65 111.103H210.018C210.018 109.422 209.346 107.741 208.17 106.564L205.146 109.59C205.482 109.926 205.65 110.431 205.65 111.103Z" fill="white"/>
        <path opacity="0.3" d="M204.978 112.952L208.002 115.978C209.178 114.801 209.85 113.288 209.85 111.607H205.482C205.482 112.112 205.314 112.616 204.978 112.952Z" fill="white"/>
        <path opacity="0.3" d="M201.45 113.288L198.426 116.314C199.602 117.323 200.946 117.995 202.626 117.995V113.625C202.29 113.625 201.786 113.456 201.45 113.288Z" fill="white"/>
        <path opacity="0.3" d="M203.298 113.793V118.163C204.978 118.163 206.49 117.491 207.498 116.482L204.474 113.457C204.138 113.625 203.802 113.793 203.298 113.793Z" fill="white"/>
        <path opacity="0.3" d="M200.946 109.758L197.922 106.733C196.914 107.909 196.242 109.422 196.242 111.103H200.61C200.442 110.599 200.61 110.095 200.946 109.758Z" fill="white"/>
        <path opacity="0.3" d="M200.442 111.607H196.074C196.242 113.288 196.914 114.633 197.922 115.81L200.946 112.784C200.778 112.448 200.61 112.112 200.442 111.607Z" fill="white"/>
        <path opacity="0.3" d="M202.626 108.582V104.211C200.946 104.379 199.434 105.052 198.258 106.06L201.282 109.086C201.618 108.918 202.122 108.582 202.626 108.582Z" fill="white"/>
        <path d="M203.13 103.203C202.626 103.203 201.954 103.203 201.45 103.371C197.754 104.043 195.066 107.237 195.066 111.103C195.066 115.474 198.594 119.004 202.962 119.004C205.146 119.004 207.162 118.163 208.506 116.65C210.018 115.137 210.858 113.288 210.858 111.103C211.026 106.733 207.498 103.203 203.13 103.203ZM205.65 111.103C205.65 110.599 205.482 110.095 205.146 109.59L208.17 106.565C209.178 107.741 209.85 109.254 210.018 111.103H205.65ZM198.426 116.314L201.45 113.288C201.786 113.456 202.122 113.625 202.626 113.793V118.163C200.946 117.995 199.602 117.323 198.426 116.314ZM204.81 109.086C204.474 108.75 203.97 108.582 203.298 108.582V104.211C204.978 104.211 206.658 104.884 207.834 106.06L204.81 109.086ZM200.442 111.103H196.074C196.074 109.422 196.746 107.909 197.754 106.733L200.778 109.758C200.61 110.095 200.442 110.599 200.442 111.103ZM200.442 111.607C200.61 112.112 200.778 112.448 200.946 112.784L197.922 115.81C196.914 114.633 196.242 113.288 196.074 111.607H200.442ZM203.13 113.288C201.954 113.288 200.946 112.28 200.946 111.103C200.946 109.926 201.954 108.918 203.13 108.918C203.97 108.918 204.642 109.422 204.978 110.095V110.263C205.146 110.431 205.146 110.767 205.146 111.103C205.146 111.439 205.146 111.607 204.978 111.944C204.81 112.784 203.97 113.288 203.13 113.288ZM203.298 113.793C203.802 113.793 204.138 113.625 204.474 113.457L207.498 116.482C206.322 117.491 204.81 118.163 203.298 118.163V113.793ZM202.626 104.211V108.582C202.122 108.75 201.618 108.918 201.282 109.254L198.258 106.228C199.434 105.052 200.946 104.379 202.626 104.211ZM208.002 115.978L204.978 112.952C205.314 112.616 205.482 112.112 205.65 111.607H210.018C209.85 113.288 209.178 114.801 208.002 115.978Z" fill="white"/>
    </g>
    <g class="is-hidden-eje">
        <path d="M247.482 129.426C257.596 129.426 265.795 121.222 265.795 111.103C265.795 100.984 257.596 92.7805 247.482 92.7805C237.369 92.7805 229.17 100.984 229.17 111.103C229.17 121.222 237.369 129.426 247.482 129.426Z" fill="#3B5266"/>
        <path d="M235.051 111.103C235.051 106.228 237.739 102.194 241.771 100.009L241.099 99.0002C236.731 101.354 233.707 105.892 233.707 111.103C233.707 116.314 236.731 120.853 241.099 123.206L241.771 122.197C237.739 120.18 235.051 115.978 235.051 111.103Z" fill="#76C1AA"/>
        <path d="M253.699 99.0002L253.195 100.009C257.227 102.026 260.083 106.228 260.083 111.103C260.083 115.978 257.227 120.18 253.195 122.197L253.699 123.206C258.067 120.853 261.091 116.314 261.091 111.103C261.091 105.892 258.067 101.354 253.699 99.0002Z" fill="#76C1AA"/>
        <path opacity="0.3" d="M247.483 113.793C248.967 113.793 250.171 112.589 250.171 111.103C250.171 109.618 248.967 108.414 247.483 108.414C245.998 108.414 244.795 109.618 244.795 111.103C244.795 112.589 245.998 113.793 247.483 113.793Z" fill="white"/>
        <path opacity="0.3" d="M248.994 109.086L252.018 106.06C250.842 104.884 249.33 104.211 247.482 104.211V108.582C248.154 108.582 248.658 108.75 248.994 109.086Z" fill="white"/>
        <path opacity="0.3" d="M250.003 111.103H254.371C254.371 109.422 253.699 107.741 252.523 106.564L249.499 109.59C249.835 109.926 250.003 110.431 250.003 111.103Z" fill="white"/>
        <path opacity="0.3" d="M249.331 112.952L252.355 115.978C253.531 114.801 254.203 113.288 254.203 111.607H249.835C249.835 112.112 249.667 112.616 249.331 112.952Z" fill="white"/>
        <path opacity="0.3" d="M245.802 113.288L242.778 116.314C243.954 117.323 245.298 117.995 246.978 117.995V113.625C246.474 113.625 246.138 113.456 245.802 113.288Z" fill="white"/>
        <path opacity="0.3" d="M247.482 113.793V118.163C249.162 118.163 250.674 117.491 251.682 116.482L248.658 113.457C248.49 113.625 247.986 113.793 247.482 113.793Z" fill="white"/>
        <path opacity="0.3" d="M245.13 109.758L242.107 106.733C241.099 107.909 240.427 109.422 240.427 111.103H244.794C244.794 110.599 244.962 110.095 245.13 109.758Z" fill="white"/>
        <path opacity="0.3" d="M244.795 111.607H240.427C240.595 113.288 241.267 114.633 242.275 115.81L245.299 112.784C245.131 112.448 244.795 112.112 244.795 111.607Z" fill="white"/>
        <path opacity="0.3" d="M246.979 108.582V104.211C245.299 104.379 243.787 105.052 242.611 106.06L245.635 109.086C245.971 108.918 246.307 108.582 246.979 108.582Z" fill="white"/>
        <path d="M247.483 103.203C246.979 103.203 246.307 103.203 245.803 103.371C242.106 104.043 239.418 107.237 239.418 111.103C239.418 115.474 242.946 119.004 247.315 119.004C249.499 119.004 251.515 118.163 252.859 116.65C254.371 115.137 255.211 113.288 255.211 111.103C255.379 106.733 251.851 103.203 247.483 103.203ZM250.003 111.103C250.003 110.599 249.835 110.095 249.499 109.59L252.523 106.565C253.531 107.741 254.203 109.254 254.371 111.103H250.003ZM242.778 116.314L245.803 113.288C246.139 113.456 246.475 113.625 246.979 113.793V118.163C245.299 117.995 243.786 117.323 242.778 116.314ZM248.995 109.086C248.659 108.75 248.155 108.582 247.483 108.582V104.211C249.163 104.211 250.843 104.884 252.019 106.06L248.995 109.086ZM244.794 111.103H240.426C240.426 109.422 241.098 107.909 242.106 106.733L245.131 109.758C244.963 110.095 244.794 110.599 244.794 111.103ZM244.794 111.607C244.962 112.112 245.131 112.448 245.299 112.784L242.274 115.81C241.266 114.633 240.594 113.288 240.426 111.607H244.794ZM247.483 113.288C246.307 113.288 245.299 112.28 245.299 111.103C245.299 109.926 246.307 108.918 247.483 108.918C248.323 108.918 248.995 109.422 249.331 110.095V110.263C249.499 110.431 249.499 110.767 249.499 111.103C249.499 111.439 249.499 111.607 249.331 111.944C248.995 112.784 248.323 113.288 247.483 113.288ZM247.483 113.793C247.987 113.793 248.323 113.625 248.659 113.457L251.683 116.482C250.507 117.491 248.995 118.163 247.483 118.163V113.793ZM246.979 104.211V108.582C246.475 108.75 245.971 108.918 245.635 109.254L242.61 106.228C243.619 105.052 245.131 104.379 246.979 104.211ZM252.355 115.978L249.331 112.952C249.667 112.616 249.835 112.112 250.003 111.607H254.371C254.035 113.288 253.363 114.801 252.355 115.978Z" fill="white"/>
    </g>
    <g class="is-hidden-eje">
        <path d="M291.667 129.426C301.78 129.426 309.979 121.222 309.979 111.103C309.979 100.984 301.78 92.7805 291.667 92.7805C281.553 92.7805 273.354 100.984 273.354 111.103C273.354 121.222 281.553 129.426 291.667 129.426Z" fill="#3B5266"/>
        <path d="M279.235 111.103C279.235 106.228 281.923 102.194 285.955 100.009L285.283 99.0002C280.915 101.354 277.891 105.892 277.891 111.103C277.891 116.314 280.915 120.853 285.283 123.206L285.955 122.197C281.923 120.18 279.235 115.978 279.235 111.103Z" fill="#76C1AA"/>
        <path d="M298.051 99.0002L297.547 100.009C301.579 102.026 304.435 106.228 304.435 111.103C304.435 115.978 301.579 120.18 297.547 122.197L298.051 123.206C302.419 120.853 305.443 116.314 305.443 111.103C305.275 105.892 302.419 101.354 298.051 99.0002Z" fill="#76C1AA"/>
        <path opacity="0.3" d="M291.667 113.793C293.151 113.793 294.355 112.589 294.355 111.103C294.355 109.618 293.151 108.414 291.667 108.414C290.182 108.414 288.979 109.618 288.979 111.103C288.979 112.589 290.182 113.793 291.667 113.793Z" fill="white"/>
        <path opacity="0.3" d="M293.346 109.086L296.371 106.06C295.195 104.884 293.683 104.211 291.834 104.211V108.582C292.338 108.582 292.842 108.75 293.346 109.086Z" fill="white"/>
        <path opacity="0.3" d="M294.186 111.103H298.554C298.554 109.422 297.882 107.741 296.706 106.564L293.682 109.59C294.018 109.926 294.186 110.431 294.186 111.103Z" fill="white"/>
        <path opacity="0.3" d="M293.514 112.952L296.538 115.978C297.714 114.801 298.386 113.288 298.386 111.607H294.018C294.186 112.112 293.85 112.616 293.514 112.952Z" fill="white"/>
        <path opacity="0.3" d="M289.986 113.288L286.962 116.314C288.138 117.323 289.482 117.995 291.163 117.995V113.625C290.826 113.625 290.322 113.456 289.986 113.288Z" fill="white"/>
        <path opacity="0.3" d="M291.834 113.793V118.163C293.515 118.163 295.027 117.491 296.035 116.482L293.011 113.457C292.675 113.625 292.338 113.793 291.834 113.793Z" fill="white"/>
        <path opacity="0.3" d="M289.483 109.758L286.459 106.733C285.451 107.909 284.779 109.422 284.779 111.103H289.147C288.979 110.599 289.147 110.095 289.483 109.758Z" fill="white"/>
        <path opacity="0.3" d="M288.978 111.607H284.61C284.778 113.288 285.45 114.633 286.458 115.81L289.482 112.784C289.314 112.448 289.146 112.112 288.978 111.607Z" fill="white"/>
        <path opacity="0.3" d="M291.163 108.582V104.211C289.482 104.379 287.97 105.052 286.794 106.06L289.819 109.086C290.155 108.918 290.658 108.582 291.163 108.582Z" fill="white"/>
        <path d="M291.835 103.203C291.331 103.203 290.659 103.203 290.155 103.371C286.458 104.043 283.771 107.237 283.771 111.103C283.771 115.474 287.298 119.004 291.667 119.004C293.851 119.004 295.867 118.163 297.211 116.65C298.723 115.137 299.563 113.288 299.563 111.103C299.563 106.733 296.035 103.203 291.835 103.203ZM294.187 111.103C294.187 110.599 294.019 110.095 293.683 109.59L296.707 106.565C297.715 107.741 298.387 109.254 298.555 111.103H294.187ZM286.963 116.314L289.987 113.288C290.323 113.456 290.659 113.625 291.163 113.793V118.163C289.651 117.995 288.139 117.323 286.963 116.314ZM293.347 109.086C293.011 108.75 292.507 108.582 291.835 108.582V104.211C293.515 104.211 295.195 104.884 296.371 106.06L293.347 109.086ZM288.979 111.103H284.611C284.611 109.422 285.283 107.909 286.291 106.733L289.315 109.758C289.147 110.095 288.979 110.599 288.979 111.103ZM288.979 111.607C289.147 112.112 289.315 112.448 289.483 112.784L286.459 115.81C285.451 114.633 284.779 113.288 284.611 111.607H288.979ZM291.667 113.288C290.491 113.288 289.483 112.28 289.483 111.103C289.483 109.926 290.491 108.918 291.667 108.918C292.507 108.918 293.179 109.422 293.515 110.095V110.263C293.683 110.431 293.683 110.767 293.683 111.103C293.683 111.439 293.683 111.607 293.515 111.944C293.347 112.784 292.507 113.288 291.667 113.288ZM291.835 113.793C292.339 113.793 292.675 113.625 293.011 113.457L296.035 116.482C294.859 117.491 293.347 118.163 291.835 118.163V113.793ZM291.163 104.211V108.582C290.659 108.75 290.155 108.918 289.819 109.254L286.794 106.228C287.971 105.052 289.483 104.379 291.163 104.211ZM296.539 115.978L293.515 112.952C293.851 112.616 294.019 112.112 294.187 111.607H298.555C298.387 113.288 297.715 114.801 296.539 115.978Z" fill="white"/>
    </g>

    <g class="is-hidden-eje">
        <path d="M375.331 131.947C385.445 131.947 393.643 123.744 393.643 113.625C393.643 103.505 385.445 95.302 375.331 95.302C365.218 95.302 357.019 103.505 357.019 113.625C357.019 123.744 365.218 131.947 375.331 131.947Z" fill="#3B5266"/>
        <path d="M362.899 113.625C362.899 108.75 365.587 104.716 369.619 102.53L368.947 101.522C364.579 103.875 361.555 108.414 361.555 113.625C361.555 118.836 364.579 123.374 368.947 125.728L369.619 124.719C365.755 122.702 362.899 118.499 362.899 113.625Z" fill="#76C1AA"/>
        <path d="M381.715 101.522L381.211 102.53C385.243 104.548 388.099 108.75 388.099 113.625C388.099 118.499 385.243 122.702 381.211 124.719L381.715 125.728C386.083 123.374 389.107 118.836 389.107 113.625C389.107 108.414 386.083 103.875 381.715 101.522Z" fill="#76C1AA"/>
        <path opacity="0.3" d="M375.331 116.314C376.816 116.314 378.019 115.11 378.019 113.625C378.019 112.139 376.816 110.935 375.331 110.935C373.847 110.935 372.643 112.139 372.643 113.625C372.643 115.11 373.847 116.314 375.331 116.314Z" fill="white"/>
        <path opacity="0.3" d="M377.011 111.607L380.035 108.582C378.859 107.405 377.347 106.733 375.499 106.733V111.103C376.171 111.103 376.507 111.271 377.011 111.607Z" fill="white"/>
        <path opacity="0.3" d="M378.019 113.625H382.387C382.387 111.944 381.715 110.263 380.539 109.086L377.515 112.112C377.683 112.448 377.851 112.952 378.019 113.625Z" fill="white"/>
        <path opacity="0.3" d="M377.179 115.474L380.203 118.499C381.379 117.323 382.051 115.81 382.051 114.129H377.683C377.851 114.633 377.515 115.137 377.179 115.474Z" fill="white"/>
        <path opacity="0.3" d="M373.819 115.81L370.795 118.836C371.971 119.844 373.315 120.517 374.995 120.517V116.146C374.491 116.146 374.155 115.978 373.819 115.81Z" fill="white"/>
        <path opacity="0.3" d="M375.499 116.314V120.685C377.179 120.685 378.691 120.012 379.699 119.004L376.675 115.978C376.339 116.146 376.003 116.314 375.499 116.314Z" fill="white"/>
        <path opacity="0.3" d="M373.147 112.28L370.123 109.254C369.115 110.431 368.443 111.944 368.443 113.625H372.811C372.811 113.12 372.811 112.616 373.147 112.28Z" fill="white"/>
        <path opacity="0.3" d="M372.811 114.129H368.443C368.611 115.81 369.283 117.155 370.291 118.331L373.315 115.306C372.979 114.969 372.811 114.633 372.811 114.129Z" fill="white"/>
        <path opacity="0.3" d="M374.827 111.103V106.733C373.147 106.901 371.635 107.573 370.459 108.582L373.483 111.607C373.987 111.439 374.323 111.103 374.827 111.103Z" fill="white"/>
        <path d="M375.499 105.724C374.995 105.724 374.323 105.724 373.819 105.892C370.123 106.565 367.435 109.758 367.435 113.625C367.435 117.995 370.963 121.525 375.331 121.525C377.515 121.525 379.531 120.685 380.875 119.172C382.387 117.659 383.227 115.81 383.227 113.625C383.395 109.254 379.867 105.724 375.499 105.724ZM378.019 113.625C378.019 113.12 377.851 112.616 377.515 112.112L380.539 109.086C381.547 110.263 382.219 111.776 382.387 113.625H378.019ZM370.795 118.836L373.819 115.81C374.155 115.978 374.491 116.146 374.995 116.314V120.685C373.315 120.517 371.803 119.844 370.795 118.836ZM377.011 111.607C376.675 111.271 376.171 111.103 375.499 111.103V106.733C377.179 106.733 378.859 107.405 380.035 108.582L377.011 111.607ZM372.643 113.625H368.443C368.443 111.944 369.115 110.431 370.123 109.254L373.147 112.28C372.811 112.616 372.811 113.12 372.643 113.625ZM372.811 114.129C372.979 114.633 373.147 114.969 373.315 115.306L370.291 118.331C369.283 117.155 368.611 115.81 368.443 114.129H372.811ZM375.331 115.81C374.155 115.81 373.147 114.801 373.147 113.625C373.147 112.448 374.155 111.439 375.331 111.439C376.171 111.439 376.843 111.944 377.179 112.616V112.784C377.347 112.952 377.347 113.288 377.347 113.625C377.347 113.961 377.347 114.129 377.179 114.465C377.011 115.306 376.339 115.81 375.331 115.81ZM375.499 116.314C376.003 116.314 376.339 116.146 376.675 115.978L379.699 119.004C378.523 120.012 377.011 120.685 375.499 120.685V116.314ZM374.827 106.733V111.103C374.323 111.271 373.819 111.439 373.483 111.776L370.459 108.75C371.635 107.573 373.147 106.901 374.827 106.733ZM380.371 118.499L377.347 115.474C377.683 115.137 377.851 114.633 378.019 114.129H382.387C382.051 115.81 381.379 117.323 380.371 118.499Z" fill="white"/>
    </g>
    <g class="is-hidden-eje">
        <path d="M424.052 131.947C434.165 131.947 442.364 123.744 442.364 113.625C442.364 103.505 434.165 95.302 424.052 95.302C413.938 95.302 405.74 103.505 405.74 113.625C405.74 123.744 413.938 131.947 424.052 131.947Z" fill="#3B5266"/>
        <path d="M411.619 113.625C411.619 108.75 414.307 104.716 418.339 102.53L417.667 101.522C413.299 103.875 410.275 108.414 410.275 113.625C410.275 118.836 413.299 123.374 417.667 125.728L418.339 124.719C414.307 122.702 411.619 118.499 411.619 113.625Z" fill="#76C1AA"/>
        <path d="M430.267 101.522L429.763 102.53C433.795 104.548 436.651 108.75 436.651 113.625C436.651 118.499 433.795 122.702 429.763 124.719L430.267 125.728C434.635 123.374 437.659 118.836 437.659 113.625C437.659 108.414 434.635 103.875 430.267 101.522Z" fill="#76C1AA"/>
        <path opacity="0.3" d="M424.052 116.314C425.536 116.314 426.74 115.11 426.74 113.625C426.74 112.139 425.536 110.935 424.052 110.935C422.567 110.935 421.364 112.139 421.364 113.625C421.364 115.11 422.567 116.314 424.052 116.314Z" fill="white"/>
        <path opacity="0.3" d="M425.564 111.607L428.588 108.582C427.412 107.405 425.9 106.733 424.052 106.733V111.103C424.724 111.103 425.228 111.271 425.564 111.607Z" fill="white"/>
        <path opacity="0.3" d="M426.572 113.625H430.94C430.94 111.944 430.268 110.263 429.092 109.086L426.068 112.112C426.404 112.448 426.572 112.952 426.572 113.625Z" fill="white"/>
        <path opacity="0.3" d="M425.9 115.474L428.924 118.499C430.1 117.323 430.772 115.81 430.772 114.129H426.404C426.404 114.633 426.236 115.137 425.9 115.474Z" fill="white"/>
        <path opacity="0.3" d="M422.372 115.81L419.348 118.836C420.524 119.844 421.868 120.517 423.548 120.517V116.146C423.044 116.146 422.708 115.978 422.372 115.81Z" fill="white"/>
        <path opacity="0.3" d="M424.22 116.314V120.685C425.9 120.685 427.412 120.012 428.42 119.004L425.396 115.978C425.06 116.146 424.556 116.314 424.22 116.314Z" fill="white"/>
        <path opacity="0.3" d="M421.7 112.28L418.676 109.254C417.668 110.431 416.996 111.944 416.996 113.625H421.364C421.364 113.12 421.532 112.616 421.7 112.28Z" fill="white"/>
        <path opacity="0.3" d="M421.364 114.129H416.996C417.164 115.81 417.836 117.155 418.844 118.331L421.868 115.306C421.7 114.969 421.532 114.633 421.364 114.129Z" fill="white"/>
        <path opacity="0.3" d="M423.548 111.103V106.733C421.868 106.901 420.356 107.573 419.18 108.582L422.204 111.607C422.54 111.439 423.044 111.103 423.548 111.103Z" fill="white"/>
        <path d="M424.052 105.724C423.548 105.724 422.876 105.724 422.372 105.892C418.676 106.565 415.988 109.758 415.988 113.625C415.988 117.995 419.516 121.525 423.884 121.525C426.068 121.525 428.084 120.685 429.428 119.172C430.94 117.659 431.78 115.81 431.78 113.625C431.948 109.254 428.42 105.724 424.052 105.724ZM426.572 113.625C426.572 113.12 426.404 112.616 426.068 112.112L429.092 109.086C430.1 110.263 430.772 111.776 430.94 113.625H426.572ZM419.348 118.836L422.372 115.81C422.708 115.978 423.044 116.146 423.548 116.314V120.685C421.868 120.517 420.524 119.844 419.348 118.836ZM425.564 111.607C425.228 111.271 424.724 111.103 424.052 111.103V106.733C425.732 106.733 427.412 107.405 428.588 108.582L425.564 111.607ZM421.364 113.625H416.996C416.996 111.944 417.668 110.431 418.676 109.254L421.7 112.28C421.532 112.616 421.364 113.12 421.364 113.625ZM421.364 114.129C421.532 114.633 421.7 114.969 421.868 115.306L418.844 118.331C417.836 117.155 417.164 115.81 416.996 114.129H421.364ZM424.052 115.81C422.876 115.81 421.868 114.801 421.868 113.625C421.868 112.448 422.876 111.439 424.052 111.439C424.892 111.439 425.564 111.944 425.9 112.616V112.784C426.068 112.952 426.068 113.288 426.068 113.625C426.068 113.961 426.068 114.129 425.9 114.465C425.732 115.306 424.892 115.81 424.052 115.81ZM424.22 116.314C424.724 116.314 425.06 116.146 425.396 115.978L428.42 119.004C427.244 120.012 425.732 120.685 424.22 120.685V116.314ZM423.548 106.733V111.103C423.044 111.271 422.54 111.439 422.204 111.776L419.18 108.75C420.188 107.573 421.868 106.901 423.548 106.733ZM428.924 118.499L425.9 115.474C426.236 115.137 426.404 114.633 426.572 114.129H430.94C430.772 115.81 430.1 117.323 428.924 118.499Z" fill="white"/>
    </g>
    <g class="is-hidden-eje">
        <path d="M472.604 131.947C482.717 131.947 490.916 123.744 490.916 113.625C490.916 103.505 482.717 95.302 472.604 95.302C462.49 95.302 454.292 103.505 454.292 113.625C454.292 123.744 462.49 131.947 472.604 131.947Z" fill="#3B5266"/>
        <path d="M460.172 113.625C460.172 108.75 462.86 104.716 466.892 102.53L466.22 101.522C461.852 103.875 458.828 108.414 458.828 113.625C458.828 118.836 461.852 123.374 466.22 125.728L466.892 124.719C463.028 122.702 460.172 118.499 460.172 113.625Z" fill="#76C1AA"/>
        <path d="M478.988 101.522L478.484 102.53C482.516 104.548 485.372 108.75 485.372 113.625C485.372 118.499 482.516 122.702 478.484 124.719L478.988 125.728C483.356 123.374 486.38 118.836 486.38 113.625C486.212 108.414 483.356 103.875 478.988 101.522Z" fill="#76C1AA"/>
        <path opacity="0.3" d="M472.604 116.314C474.088 116.314 475.292 115.11 475.292 113.625C475.292 112.139 474.088 110.935 472.604 110.935C471.119 110.935 469.916 112.139 469.916 113.625C469.916 115.11 471.119 116.314 472.604 116.314Z" fill="white"/>
        <path opacity="0.3" d="M474.284 111.607L477.308 108.582C476.132 107.405 474.62 106.733 472.772 106.733V111.103C473.276 111.103 473.78 111.271 474.284 111.607Z" fill="white"/>
        <path opacity="0.3" d="M475.292 113.625H479.66C479.66 111.944 478.988 110.263 477.812 109.086L474.788 112.112C474.956 112.448 475.124 112.952 475.292 113.625Z" fill="white"/>
        <path opacity="0.3" d="M474.452 115.474L477.476 118.499C478.652 117.323 479.324 115.81 479.324 114.129H474.956C475.124 114.633 474.788 115.137 474.452 115.474Z" fill="white"/>
        <path opacity="0.3" d="M471.092 115.81L468.068 118.836C469.244 119.844 470.588 120.517 472.268 120.517V116.146C471.764 116.146 471.428 115.978 471.092 115.81Z" fill="white"/>
        <path opacity="0.3" d="M472.772 116.314V120.685C474.452 120.685 475.964 120.012 476.972 119.004L473.948 115.978C473.612 116.146 473.276 116.314 472.772 116.314Z" fill="white"/>
        <path opacity="0.3" d="M470.42 112.28L467.396 109.254C466.388 110.431 465.716 111.944 465.716 113.625H470.084C469.916 113.12 470.084 112.616 470.42 112.28Z" fill="white"/>
        <path opacity="0.3" d="M470.084 114.129H465.716C465.884 115.81 466.556 117.155 467.564 118.331L470.588 115.306C470.252 114.969 470.084 114.633 470.084 114.129Z" fill="white"/>
        <path opacity="0.3" d="M472.1 111.103V106.733C470.42 106.901 468.908 107.573 467.732 108.582L470.756 111.607C471.092 111.439 471.596 111.103 472.1 111.103Z" fill="white"/>
        <path d="M472.772 105.724C472.268 105.724 471.596 105.724 471.092 105.892C467.396 106.565 464.708 109.758 464.708 113.625C464.708 117.995 468.236 121.525 472.604 121.525C474.788 121.525 476.804 120.685 478.148 119.172C479.66 117.659 480.5 115.81 480.5 113.625C480.668 109.254 477.14 105.724 472.772 105.724ZM475.292 113.625C475.292 113.12 475.124 112.616 474.788 112.112L477.812 109.086C478.82 110.263 479.492 111.776 479.66 113.625H475.292ZM467.9 118.836L470.924 115.81C471.26 115.978 471.596 116.146 472.1 116.314V120.685C470.588 120.517 469.076 119.844 467.9 118.836ZM474.284 111.607C473.948 111.271 473.444 111.103 472.772 111.103V106.733C474.452 106.733 476.132 107.405 477.308 108.582L474.284 111.607ZM469.916 113.625H465.548C465.548 111.944 466.22 110.431 467.228 109.254L470.252 112.28C470.084 112.616 469.916 113.12 469.916 113.625ZM470.084 114.129C470.252 114.633 470.42 114.969 470.588 115.306L467.564 118.331C466.556 117.155 465.884 115.81 465.716 114.129H470.084ZM472.604 115.81C471.428 115.81 470.42 114.801 470.42 113.625C470.42 112.448 471.428 111.439 472.604 111.439C473.444 111.439 474.116 111.944 474.452 112.616V112.784C474.62 112.952 474.62 113.288 474.62 113.625C474.62 113.961 474.62 114.129 474.452 114.465C474.284 115.306 473.444 115.81 472.604 115.81ZM472.772 116.314C473.276 116.314 473.612 116.146 473.948 115.978L476.972 119.004C475.796 120.012 474.284 120.685 472.772 120.685V116.314ZM472.1 106.733V111.103C471.596 111.271 471.092 111.439 470.756 111.776L467.732 108.75C468.908 107.573 470.42 106.901 472.1 106.733ZM477.644 118.499L474.62 115.474C474.956 115.137 475.124 114.633 475.292 114.129H479.66C479.324 115.81 478.652 117.323 477.644 118.499Z" fill="white"/>
    </g>
    <g class="is-hidden-eje">
        <path d="M521.324 131.947C531.438 131.947 539.636 123.744 539.636 113.625C539.636 103.505 531.438 95.302 521.324 95.302C511.211 95.302 503.012 103.505 503.012 113.625C503.012 123.744 511.211 131.947 521.324 131.947Z" fill="#3B5266"/>
        <path d="M508.892 113.625C508.892 108.75 511.58 104.716 515.612 102.53L514.94 101.522C510.572 103.875 507.548 108.414 507.548 113.625C507.548 118.836 510.572 123.374 514.94 125.728L515.612 124.719C511.58 122.702 508.892 118.499 508.892 113.625Z" fill="#76C1AA"/>
        <path d="M527.541 101.522L527.037 102.53C531.069 104.548 533.925 108.75 533.925 113.625C533.925 118.499 531.069 122.702 527.037 124.719L527.541 125.728C531.909 123.374 534.933 118.836 534.933 113.625C534.933 108.414 531.909 103.875 527.541 101.522Z" fill="#76C1AA"/>
        <path opacity="0.3" d="M521.324 116.314C522.809 116.314 524.012 115.11 524.012 113.625C524.012 112.139 522.809 110.935 521.324 110.935C519.84 110.935 518.636 112.139 518.636 113.625C518.636 115.11 519.84 116.314 521.324 116.314Z" fill="white"/>
        <path opacity="0.3" d="M522.837 111.607L525.861 108.582C524.685 107.405 523.173 106.733 521.325 106.733V111.103C521.997 111.103 522.501 111.271 522.837 111.607Z" fill="white"/>
        <path opacity="0.3" d="M523.845 113.625H528.213C528.213 111.944 527.541 110.263 526.365 109.086L523.341 112.112C523.677 112.448 523.845 112.952 523.845 113.625Z" fill="white"/>
        <path opacity="0.3" d="M523.172 115.474L526.196 118.499C527.372 117.323 528.044 115.81 528.044 114.129H523.676C523.676 114.633 523.508 115.137 523.172 115.474Z" fill="white"/>
        <path opacity="0.3" d="M519.645 115.81L516.621 118.836C517.797 119.844 519.141 120.517 520.821 120.517V116.146C520.317 116.146 519.981 115.978 519.645 115.81Z" fill="white"/>
        <path opacity="0.3" d="M521.493 116.314V120.685C523.173 120.685 524.685 120.012 525.693 119.004L522.669 115.978C522.333 116.146 521.829 116.314 521.493 116.314Z" fill="white"/>
        <path opacity="0.3" d="M518.973 112.28L515.949 109.254C514.941 110.431 514.269 111.944 514.269 113.625H518.637C518.637 113.12 518.805 112.616 518.973 112.28Z" fill="white"/>
        <path opacity="0.3" d="M518.637 114.129H514.269C514.437 115.81 515.109 117.155 516.117 118.331L519.141 115.306C518.973 114.969 518.805 114.633 518.637 114.129Z" fill="white"/>
        <path opacity="0.3" d="M520.821 111.103V106.733C519.141 106.901 517.629 107.573 516.453 108.582L519.477 111.607C519.813 111.439 520.317 111.103 520.821 111.103Z" fill="white"/>
        <path d="M521.324 105.724C520.82 105.724 520.148 105.724 519.644 105.892C515.948 106.565 513.26 109.758 513.26 113.625C513.26 117.995 516.788 121.525 521.156 121.525C523.34 121.525 525.356 120.685 526.7 119.172C528.212 117.659 529.052 115.81 529.052 113.625C529.22 109.254 525.692 105.724 521.324 105.724ZM523.844 113.625C523.844 113.12 523.676 112.616 523.34 112.112L526.364 109.086C527.372 110.263 528.044 111.776 528.212 113.625H523.844ZM516.62 118.836L519.644 115.81C519.98 115.978 520.316 116.146 520.82 116.314V120.685C519.14 120.517 517.796 119.844 516.62 118.836ZM522.836 111.607C522.5 111.271 521.996 111.103 521.324 111.103V106.733C523.004 106.733 524.684 107.405 525.86 108.582L522.836 111.607ZM518.636 113.625H514.268C514.268 111.944 514.94 110.431 515.948 109.254L518.972 112.28C518.804 112.616 518.636 113.12 518.636 113.625ZM518.636 114.129C518.804 114.633 518.972 114.969 519.14 115.306L516.116 118.331C515.108 117.155 514.436 115.81 514.268 114.129H518.636ZM521.324 115.81C520.148 115.81 519.14 114.801 519.14 113.625C519.14 112.448 520.148 111.439 521.324 111.439C522.164 111.439 522.836 111.944 523.172 112.616V112.784C523.34 112.952 523.34 113.288 523.34 113.625C523.34 113.961 523.34 114.129 523.172 114.465C522.836 115.306 522.164 115.81 521.324 115.81ZM521.492 116.314C521.996 116.314 522.332 116.146 522.668 115.978L525.692 119.004C524.516 120.012 523.004 120.685 521.492 120.685V116.314ZM520.82 106.733V111.103C520.316 111.271 519.812 111.439 519.476 111.776L516.452 108.75C517.46 107.573 519.14 106.901 520.82 106.733ZM526.196 118.499L523.172 115.474C523.508 115.137 523.676 114.633 523.844 114.129H528.212C528.044 115.81 527.372 117.323 526.196 118.499Z" fill="white"/>
    </g>
    <path d="M96.7856 96.3107C96.7856 96.3107 96.9536 96.3107 96.7856 96.3107C96.9536 96.3107 96.9536 96.3107 96.7856 96.3107C96.9536 96.3107 98.1296 96.1426 98.9696 95.4702C99.8096 94.4616 100.146 92.7806 99.4736 91.9401C99.1376 91.6039 98.6336 91.4358 98.1296 91.4358C97.6256 91.6039 97.2896 91.772 97.1216 92.2763C97.1216 92.4444 97.1216 92.4444 97.1216 92.6125C97.2896 92.6125 97.2896 92.6125 97.4576 92.6125C97.6256 92.4444 97.7936 92.4445 97.9616 92.4445C98.1296 92.4445 98.1296 92.6125 98.2976 92.7806C98.2976 92.9487 98.2976 93.1169 98.1296 93.285L97.9616 93.453C97.6256 93.453 97.1216 93.1168 96.6176 92.6125C96.1136 92.1083 95.4416 91.772 94.9376 91.4358C94.0976 91.0997 91.5776 90.5954 89.8975 91.7721C89.8975 91.7721 88.8895 92.6126 88.7215 93.285C88.3855 93.9574 88.3855 94.7978 88.5535 95.3021C88.3855 95.4702 88.2175 95.6383 88.2175 95.9745C88.2175 96.4788 88.7215 96.8149 89.5615 96.983C89.5615 97.1511 89.3935 97.1511 89.3935 97.3192C89.3935 97.8235 90.0656 98.3279 90.9056 98.3279C91.5776 98.3279 92.0816 98.1597 92.2496 97.8235C92.4176 98.1597 92.9216 98.3279 93.5936 98.3279C94.4336 98.3279 95.1056 97.8235 95.1056 97.3192C95.1056 97.1511 95.1056 96.983 94.9376 96.983C95.4416 96.983 95.7776 96.8149 96.1136 96.4788C96.1136 96.4788 96.1136 96.4788 96.2816 96.4788C96.1136 96.4788 96.4496 96.3107 96.7856 96.3107ZM97.9616 95.4702C97.7936 95.6383 97.4576 95.6383 97.2896 95.6383C97.4576 94.6297 96.7856 93.6211 96.6176 93.1168C96.9536 93.453 97.2896 93.6211 97.6256 93.7892C97.7936 94.1254 98.1296 94.6297 97.9616 95.4702ZM96.1136 95.9745C96.1136 95.8064 95.9456 95.4702 95.7776 95.134C95.4416 94.4616 94.7696 93.453 93.0896 92.9488C90.9056 92.2764 89.8975 92.6126 89.3935 92.9488C89.3935 92.9488 89.3935 92.9487 89.5615 92.7806C89.7295 92.6125 89.8976 92.4444 90.0656 92.2763C90.7376 91.9401 91.9136 91.9402 93.5936 92.4445C95.7776 93.1169 96.4496 94.6297 96.6176 95.3021C96.6176 95.4702 96.7856 95.8064 96.7856 95.9745C96.7856 95.9745 96.7856 95.9745 96.6176 95.9745C96.2816 95.9745 96.2816 95.9745 96.1136 95.9745ZM92.9216 93.7892C92.5856 93.7892 92.4176 93.9574 92.2496 94.1255C91.9136 93.7893 91.5776 93.6211 90.9056 93.6211C90.7376 93.6211 90.5696 93.6211 90.4016 93.6211C90.9056 93.453 91.5776 93.453 92.2496 93.453C92.4176 93.7892 92.5856 93.7892 92.9216 93.7892ZM90.9056 94.2935C91.4096 94.2935 91.9136 94.6297 91.9136 94.7978C91.9136 94.9659 91.7456 95.134 91.5776 95.134H91.4096C91.2416 95.134 91.0736 95.134 90.9056 95.134C90.4016 95.134 89.8975 94.7978 89.8975 94.6297C89.8975 94.4616 90.2336 94.2935 90.9056 94.2935ZM91.5776 95.6383H91.7456C91.9136 95.6383 91.9136 95.6383 92.0816 95.6383C92.7536 95.6383 93.0896 95.9744 93.0896 96.1425C93.0896 96.3106 92.5856 96.6469 92.0816 96.6469C91.4096 96.6469 91.0735 96.3106 91.0735 96.1425C91.0735 95.9744 91.2416 95.8064 91.5776 95.6383ZM92.4176 94.7978C92.4176 94.6297 92.9216 94.2935 93.4256 94.2935C93.5936 94.2935 93.5936 94.2935 93.7616 94.2935C94.0976 94.2935 94.4336 94.6297 94.4336 94.7978C94.4336 94.9659 94.2656 95.134 93.9296 95.3021C93.7616 95.3021 93.5936 95.3021 93.4256 95.3021C92.7536 95.3021 92.4176 94.9659 92.4176 94.7978ZM89.2255 95.134C89.2255 94.9659 89.2255 94.9659 89.2255 94.7978C89.2255 94.6297 89.3935 94.4616 89.5615 94.2935C89.3935 94.4616 89.3935 94.6297 89.3935 94.7978C89.3935 94.9659 89.3935 95.134 89.5615 95.134C89.3935 95.134 89.3935 95.134 89.2255 95.134ZM88.5535 96.1425C88.5535 95.9744 88.7215 95.9745 88.8896 95.8064C89.0576 95.8064 89.2255 95.6383 89.3935 95.6383C89.5615 95.6383 89.5616 95.6383 89.7296 95.6383C90.4016 95.6383 90.7376 95.9744 90.7376 96.1425C90.7376 96.3106 90.5696 96.3107 90.5696 96.4788C90.4016 96.6468 90.0656 96.6469 89.7296 96.6469C88.8896 96.6469 88.5535 96.3106 88.5535 96.1425ZM90.7376 97.9917C90.0655 97.9917 89.7296 97.8236 89.7296 97.4874C89.7296 97.3193 90.2335 96.983 90.7376 96.983C91.0736 96.983 91.2416 96.9831 91.5776 97.1512C91.5776 97.1512 91.7456 97.3193 91.7456 97.4874C91.7456 97.6555 91.2416 97.9917 90.7376 97.9917ZM93.4256 97.9917C92.7536 97.9917 92.4176 97.6555 92.4176 97.4874C92.4176 97.4874 92.4176 97.3192 92.5856 97.3192C92.7536 97.1511 93.0896 96.983 93.4256 96.983C93.5936 96.983 93.7616 96.983 93.9296 96.983C94.2656 97.1511 94.4336 97.3193 94.4336 97.4874C94.4336 97.6555 93.9296 97.9917 93.4256 97.9917ZM95.6096 96.3107C95.4416 96.4788 95.1056 96.6469 94.6016 96.6469C94.4336 96.6469 94.2656 96.6469 94.0976 96.6469C93.7616 96.4788 93.5936 96.3106 93.5936 96.1425C93.5936 95.9744 93.7616 95.8064 94.0976 95.6383C94.2656 95.6383 94.4336 95.6383 94.6016 95.6383C94.7696 95.6383 94.7696 95.6383 94.9376 95.6383C95.2736 95.6383 95.6096 95.9745 95.6096 96.3107C95.6096 96.1426 95.6096 96.1426 95.6096 96.3107Z" fill="white"/>
    <path d="M108.882 90.9315V78.6604C108.882 78.4923 108.882 78.3242 108.714 78.3242C108.546 78.3242 108.378 78.3242 108.378 78.3242L107.034 78.9966V74.626C107.034 74.4579 107.034 74.2898 106.866 74.2898C106.698 74.2898 106.53 74.2898 106.53 74.2898L100.482 78.1561H100.314C99.3056 78.4923 98.2976 78.6604 97.4576 78.6604C94.6016 78.6604 93.5936 76.8113 93.5936 76.8113C93.5936 76.6432 93.4256 76.6432 93.2576 76.6432C93.0896 76.6432 92.9216 76.8113 92.9216 76.8113C92.9216 76.8113 91.9136 78.6604 89.0576 78.6604C88.2176 78.6604 87.2096 78.4923 86.2016 78.1561L80.1535 74.2898C79.9855 74.2898 79.8175 74.2898 79.6495 74.2898C79.4815 74.2898 79.4815 74.4579 79.4815 74.626V78.9966L78.3055 78.3242C78.1375 78.3242 77.9695 78.3242 77.9695 78.3242C77.8015 78.3242 77.8015 78.4923 77.8015 78.6604V90.9315C77.8015 91.0996 77.8015 94.1253 80.3215 96.4787C82.5055 98.6639 85.8656 99.8406 90.4016 99.8406C90.4016 99.8406 90.4016 99.8406 90.5696 99.8406C92.2496 100.345 93.2576 100.681 93.2576 102.194C93.2576 102.362 93.4256 102.53 93.5936 102.53C93.7616 102.53 93.9296 102.362 93.9296 102.194C93.9296 100.849 94.9376 100.345 96.6176 99.8406H96.7856C101.322 99.8406 104.682 98.6639 106.866 96.4787C108.882 93.9572 108.882 91.0996 108.882 90.9315ZM87.3776 87.2333C87.8816 87.0652 88.0496 86.0566 88.0496 86.0566C88.0496 86.0566 88.8896 86.5609 89.3936 86.3928C89.3936 86.5609 89.3936 87.0652 89.3936 87.0652C89.3936 87.0652 89.2256 87.4014 89.3936 87.7376C89.5616 87.9057 89.5616 88.2419 89.5616 88.5781C89.2256 88.5781 89.0576 88.5781 88.7216 88.5781C88.2176 88.5781 87.7136 88.5781 87.3776 88.5781C87.3776 87.9057 87.3776 87.7376 87.3776 87.2333ZM96.7856 86.561H97.7936C97.7936 87.0653 97.7936 87.5695 97.9616 88.41L96.7856 88.2419C96.7856 87.5696 96.7856 87.0653 96.7856 86.561ZM105.018 88.2419C104.346 88.9143 103.338 89.2505 102.162 89.2505C101.826 88.41 101.658 87.5695 101.658 86.8971L106.194 84.3756C106.194 84.7118 106.194 86.8972 105.018 88.2419ZM80.1535 84.3756L84.6896 86.8971C84.6896 87.5695 84.5216 88.41 84.1856 89.2505C83.0095 89.2505 82.1695 88.9143 81.4975 88.2419C80.1535 86.8972 80.1535 84.7118 80.1535 84.3756ZM108.042 79.3327V86.8971L106.026 88.0738C107.034 86.3928 107.034 84.5438 107.034 84.2076V79.8371L108.042 79.3327ZM106.194 79.3327L102.834 81.3499C102.666 81.1818 102.162 80.5095 100.986 78.6604L106.194 75.2984V79.3327ZM97.2896 79.3327C98.1296 79.3327 99.1376 79.1646 100.146 78.8284C101.322 80.5094 101.826 81.3499 102.162 81.6861C101.658 82.5266 100.146 85.3842 101.322 88.9143C100.818 88.41 99.6416 88.2419 98.4656 88.2419C98.2976 87.4015 98.2976 86.8971 98.2976 86.3928H100.146C100.314 86.3928 100.314 86.0567 100.314 85.7205V84.0395C100.314 82.6947 99.6416 82.6947 99.6416 82.6947C99.6416 82.6947 99.1376 82.6947 98.9696 82.0223C98.8016 81.3499 98.2976 80.8456 97.7936 80.8456C97.2896 80.8456 96.2816 81.1818 95.6096 81.6861C95.1056 81.8542 95.1056 82.1904 95.1056 82.6947C94.9376 83.8713 94.6016 83.7033 94.6016 83.7033C94.4336 83.7033 94.2656 83.8714 94.2656 84.2076V85.8885C94.2656 86.2247 94.4336 86.561 94.6016 86.561H96.4496C96.4496 87.0653 96.4496 87.5695 96.2816 88.41C95.1056 88.41 94.0976 88.7462 93.4256 89.2505V77.988C93.9296 78.4922 95.2736 79.3327 97.2896 79.3327ZM92.5856 78.1561V88.9143C92.0816 88.5781 91.2416 88.41 90.2336 88.41C90.0656 87.9057 90.0656 86.561 90.2336 86.2248C91.0736 86.0567 91.0736 85.2162 91.0736 84.5438C91.0736 84.0395 90.9056 82.1904 90.9056 82.1904L91.4096 82.0223C91.5776 82.0223 91.5776 82.0223 91.5776 81.8542C91.5776 81.6861 91.5776 81.5181 91.5776 81.5181L91.0736 81.3499C90.9056 81.1818 90.7376 81.0137 90.5696 81.0137C90.4016 81.0137 90.0656 81.0137 89.8976 81.3499C89.7296 81.1818 89.3936 81.3499 89.2256 81.3499C89.2256 81.3499 89.2256 82.1904 90.0656 82.0223L90.2336 84.2076C90.2336 84.2076 90.2336 84.7119 89.7296 84.5438C89.2256 84.3757 88.2176 84.0395 87.5456 84.2076C87.2096 84.3757 86.7056 84.5438 86.3696 85.3843C86.0336 86.2248 86.5376 85.8885 86.5376 85.8885L87.0416 85.5523C87.0416 85.5523 87.3776 86.2247 87.0416 86.729C86.7056 87.0652 86.8735 87.4015 86.8735 87.4015C86.8735 87.4015 87.0416 88.2419 87.0416 88.5781C86.2016 88.5781 85.5296 88.9143 85.0256 89.0824C86.0336 85.5524 84.6896 82.6947 84.1856 81.8542C84.5216 81.518 85.0255 80.6776 86.2016 78.9966C87.2096 79.3328 88.2176 79.5009 89.0576 79.5009C90.7376 79.3328 91.7456 78.8285 92.5856 78.1561ZM80.1535 75.2984L85.3616 78.6604C84.3535 80.3414 83.6815 81.0137 83.5135 81.3499L80.1535 79.5009V75.2984ZM79.3135 79.8371V84.2076C79.3135 84.3757 79.3135 86.3928 80.3215 88.0738L78.3055 86.8971V79.3327L79.3135 79.8371ZM78.4735 92.1082L83.5135 94.9658C84.0175 96.3106 84.8575 97.1511 86.2016 98.3278C86.5376 98.664 87.0416 98.832 87.3776 99.0001C84.3535 98.6639 82.0015 97.6554 80.4895 95.9744C79.1455 94.6296 78.6415 93.1167 78.4735 92.1082ZM93.0896 100.681C92.4176 99.6725 91.2416 99.3363 89.8976 99.0001C88.7216 98.6639 87.5456 98.3278 86.5376 97.4873C84.0175 95.6382 83.1775 93.9572 84.5215 90.091H101.658C103.002 93.9572 102.162 95.4701 99.6416 97.4873C98.6336 98.1597 97.4576 98.664 96.2816 98.8321C94.9376 99.3363 93.7616 99.6725 93.0896 100.681ZM105.858 95.9744C104.178 97.6554 101.826 98.6639 98.8016 99.0001C99.3056 98.832 99.6416 98.4959 99.9776 98.3278C101.322 97.3192 102.33 96.3106 102.666 95.1339C102.666 95.1339 102.666 95.1339 102.834 95.1339L107.874 92.2762C107.706 93.1167 107.202 94.6296 105.858 95.9744Z" fill="white"/>
    <path d="M93.0897 76.1391C95.4417 76.1391 97.1217 74.9623 97.1217 73.4494C97.1217 71.9365 95.2737 70.7599 93.0897 70.7599C90.7377 70.7599 89.0576 71.9365 89.0576 73.4494C89.0576 74.9623 90.7377 76.1391 93.0897 76.1391ZM93.0897 71.9366C94.2657 71.9366 95.1057 72.4409 95.1057 72.9452C95.1057 73.4495 94.6017 73.7857 93.9297 73.9538C93.2577 74.1219 93.4257 74.4581 93.0897 74.6262C92.7537 74.4581 92.9217 74.1219 92.2497 73.9538C91.5777 73.7857 91.0736 73.4495 91.0736 72.9452C91.0736 72.4409 91.9137 71.9366 93.0897 71.9366Z" fill="white"/>
    <path d="M443.036 52.7735H573.572V91.2678H860.35V106.901H552.404V91.604L546.692 68.0704H476.636L468.068 78.1562H443.036V52.7735Z" fill="#DCE9EF" stroke="#65819B" stroke-width="1.0365" stroke-miterlimit="10"/>
    <path d="M573.573 91.2678H552.405V106.901H573.573V91.2678Z" fill="#DCE9EF" stroke="#65819B" stroke-width="1.0365" stroke-miterlimit="10"/>
    <g class="is-hidden-eje">
        <path d="M654.213 132.115C664.326 132.115 672.525 123.912 672.525 113.793C672.525 103.673 664.326 95.4702 654.213 95.4702C644.099 95.4702 635.901 103.673 635.901 113.793C635.901 123.912 644.099 132.115 654.213 132.115Z" fill="#3B5266"/>
        <path d="M641.781 113.793C641.781 108.918 644.469 104.884 648.501 102.698L647.829 101.69C643.461 104.043 640.437 108.582 640.437 113.793C640.437 119.004 643.461 123.542 647.829 125.896L648.501 124.887C644.469 122.87 641.781 118.668 641.781 113.793Z" fill="#76C1AA"/>
        <path d="M660.597 101.69L660.093 102.698C664.125 104.716 666.981 108.918 666.981 113.793C666.981 118.668 664.125 122.87 660.093 124.887L660.597 125.896C664.965 123.542 667.989 119.004 667.989 113.793C667.821 108.582 664.965 104.043 660.597 101.69Z" fill="#76C1AA"/>
        <path opacity="0.3" d="M654.213 116.482C655.697 116.482 656.901 115.278 656.901 113.793C656.901 112.307 655.697 111.103 654.213 111.103C652.728 111.103 651.525 112.307 651.525 113.793C651.525 115.278 652.728 116.482 654.213 116.482Z" fill="white"/>
        <path opacity="0.3" d="M655.893 111.776L658.917 108.75C657.741 107.573 656.229 106.901 654.381 106.901V111.271C654.885 111.271 655.389 111.44 655.893 111.776Z" fill="white"/>
        <path opacity="0.3" d="M656.734 113.625H661.102C661.102 111.944 660.429 110.263 659.254 109.086L656.229 112.112C656.565 112.616 656.734 113.12 656.734 113.625Z" fill="white"/>
        <path opacity="0.3" d="M656.061 115.642L659.085 118.668C660.261 117.491 660.933 115.978 660.933 114.297H656.565C656.733 114.801 656.397 115.306 656.061 115.642Z" fill="white"/>
        <path opacity="0.3" d="M652.533 115.978L649.509 119.004C650.685 120.013 652.029 120.685 653.709 120.685V116.314C653.373 116.314 652.869 116.146 652.533 115.978Z" fill="white"/>
        <path opacity="0.3" d="M654.381 116.482V120.853C656.061 120.853 657.573 120.181 658.581 119.172L655.557 116.146C655.221 116.314 654.885 116.482 654.381 116.482Z" fill="white"/>
        <path opacity="0.3" d="M652.029 112.448L649.005 109.422C647.997 110.599 647.325 112.112 647.325 113.793H651.693C651.525 113.289 651.693 112.784 652.029 112.448Z" fill="white"/>
        <path opacity="0.3" d="M651.525 114.297H647.325C647.493 115.978 648.165 117.323 649.173 118.5L652.197 115.474C651.861 115.138 651.693 114.801 651.525 114.297Z" fill="white"/>
        <path opacity="0.3" d="M653.709 111.271V106.901C652.029 107.069 650.517 107.741 649.341 108.75L652.365 111.776C652.701 111.608 653.205 111.271 653.709 111.271Z" fill="white"/>
        <path d="M654.381 105.892C653.877 105.892 653.205 105.892 652.701 106.06C649.005 106.733 646.317 109.927 646.317 113.793C646.317 118.163 649.845 121.693 654.213 121.693C656.397 121.693 658.413 120.853 659.757 119.34C661.269 117.827 662.109 115.978 662.109 113.793C662.109 109.422 658.581 105.892 654.381 105.892ZM656.733 113.625C656.733 113.12 656.565 112.616 656.229 112.112L659.253 109.086C660.261 110.263 660.933 111.776 661.101 113.625H656.733ZM649.509 119.004L652.533 115.978C652.869 116.146 653.205 116.314 653.709 116.482V120.853C652.197 120.685 650.685 120.012 649.509 119.004ZM655.893 111.776C655.557 111.44 655.053 111.271 654.381 111.271V106.901C656.061 106.901 657.741 107.573 658.917 108.75L655.893 111.776ZM651.525 113.625H647.157C647.157 111.944 647.829 110.431 648.837 109.254L651.861 112.28C651.693 112.784 651.525 113.289 651.525 113.625ZM651.525 114.297C651.693 114.801 651.861 115.138 652.029 115.474L649.005 118.5C647.997 117.323 647.325 115.978 647.157 114.297H651.525ZM654.213 115.978C653.037 115.978 652.029 114.97 652.029 113.793C652.029 112.616 653.037 111.608 654.213 111.608C655.053 111.608 655.725 112.112 656.061 112.784V112.952C656.229 113.12 656.229 113.457 656.229 113.793C656.229 114.129 656.229 114.297 656.061 114.633C655.893 115.474 655.053 115.978 654.213 115.978ZM654.381 116.482C654.885 116.482 655.221 116.314 655.557 116.146L658.581 119.172C657.405 120.181 655.893 120.853 654.381 120.853V116.482ZM653.709 106.901V111.271C653.205 111.439 652.701 111.608 652.365 111.944L649.341 108.918C650.517 107.741 652.029 107.069 653.709 106.901ZM659.085 118.668L656.061 115.642C656.397 115.306 656.565 114.801 656.733 114.297H661.101C660.933 115.978 660.261 117.491 659.085 118.668Z" fill="white"/>
    </g>
    <g class="is-hidden-eje">
        <path d="M698.397 132.115C708.511 132.115 716.709 123.912 716.709 113.793C716.709 103.673 708.511 95.4702 698.397 95.4702C688.284 95.4702 680.085 103.673 680.085 113.793C680.085 123.912 688.284 132.115 698.397 132.115Z" fill="#3B5266"/>
        <path d="M685.965 113.793C685.965 108.918 688.653 104.884 692.685 102.698L692.013 101.69C687.645 104.043 684.621 108.582 684.621 113.793C684.621 119.004 687.645 123.542 692.013 125.896L692.685 124.887C688.653 122.87 685.965 118.668 685.965 113.793Z" fill="#76C1AA"/>
        <path d="M704.613 101.69L704.109 102.698C708.141 104.716 710.997 108.918 710.997 113.793C710.997 118.668 708.141 122.87 704.109 124.887L704.613 125.896C708.981 123.542 712.005 119.004 712.005 113.793C712.005 108.582 708.981 104.043 704.613 101.69Z" fill="#76C1AA"/>
        <path opacity="0.3" d="M698.397 116.482C699.882 116.482 701.085 115.278 701.085 113.793C701.085 112.307 699.882 111.103 698.397 111.103C696.912 111.103 695.709 112.307 695.709 113.793C695.709 115.278 696.912 116.482 698.397 116.482Z" fill="white"/>
        <path opacity="0.3" d="M700.077 111.776L703.101 108.75C701.925 107.573 700.413 106.901 698.564 106.901V111.271C699.068 111.271 699.572 111.44 700.077 111.776Z" fill="white"/>
        <path opacity="0.3" d="M700.917 113.625H705.285C705.285 111.944 704.613 110.263 703.437 109.086L700.413 112.112C700.749 112.616 700.917 113.12 700.917 113.625Z" fill="white"/>
        <path opacity="0.3" d="M700.245 115.642L703.269 118.668C704.445 117.491 705.117 115.978 705.117 114.297H700.749C700.749 114.801 700.581 115.306 700.245 115.642Z" fill="white"/>
        <path opacity="0.3" d="M696.717 115.978L693.693 119.004C694.869 120.013 696.213 120.685 697.893 120.685V116.314C697.557 116.314 697.053 116.146 696.717 115.978Z" fill="white"/>
        <path opacity="0.3" d="M698.564 116.482V120.853C700.244 120.853 701.756 120.181 702.764 119.172L699.74 116.146C699.404 116.314 699.068 116.482 698.564 116.482Z" fill="white"/>
        <path opacity="0.3" d="M696.213 112.448L693.189 109.422C692.181 110.599 691.509 112.112 691.509 113.793H695.877C695.709 113.289 695.877 112.784 696.213 112.448Z" fill="white"/>
        <path opacity="0.3" d="M695.709 114.297H691.341C691.509 115.978 692.181 117.323 693.189 118.5L696.213 115.474C696.045 115.138 695.877 114.801 695.709 114.297Z" fill="white"/>
        <path opacity="0.3" d="M697.893 111.271V106.901C696.213 107.069 694.701 107.741 693.525 108.75L696.549 111.776C696.885 111.608 697.389 111.271 697.893 111.271Z" fill="white"/>
        <path d="M698.565 105.892C698.061 105.892 697.389 105.892 696.885 106.06C693.189 106.733 690.501 109.927 690.501 113.793C690.501 118.163 694.029 121.693 698.397 121.693C700.581 121.693 702.597 120.853 703.941 119.34C705.453 117.827 706.293 115.978 706.293 113.793C706.293 109.422 702.765 105.892 698.565 105.892ZM700.917 113.625C700.917 113.12 700.749 112.616 700.413 112.112L703.437 109.086C704.445 110.263 705.117 111.776 705.285 113.625H700.917ZM693.693 119.004L696.717 115.978C697.053 116.146 697.389 116.314 697.893 116.482V120.853C696.381 120.685 694.869 120.012 693.693 119.004ZM700.077 111.776C699.741 111.44 699.237 111.271 698.565 111.271V106.901C700.245 106.901 701.925 107.573 703.101 108.75L700.077 111.776ZM695.709 113.625H691.341C691.341 111.944 692.013 110.431 693.021 109.254L696.045 112.28C695.877 112.784 695.709 113.289 695.709 113.625ZM695.709 114.297C695.877 114.801 696.045 115.138 696.213 115.474L693.189 118.5C692.181 117.323 691.509 115.978 691.341 114.297H695.709ZM698.397 115.978C697.221 115.978 696.213 114.97 696.213 113.793C696.213 112.616 697.221 111.608 698.397 111.608C699.237 111.608 699.909 112.112 700.245 112.784V112.952C700.413 113.12 700.413 113.457 700.413 113.793C700.413 114.129 700.413 114.297 700.245 114.633C700.077 115.474 699.237 115.978 698.397 115.978ZM698.565 116.482C699.069 116.482 699.405 116.314 699.741 116.146L702.765 119.172C701.589 120.181 700.077 120.853 698.565 120.853V116.482ZM697.893 106.901V111.271C697.389 111.439 696.885 111.608 696.549 111.944L693.525 108.918C694.701 107.741 696.213 107.069 697.893 106.901ZM703.269 118.668L700.245 115.642C700.581 115.306 700.749 114.801 700.917 114.297H705.285C705.117 115.978 704.445 117.491 703.269 118.668Z" fill="white"/>
    </g>
    <g class="is-hidden-eje">
        <path d="M742.582 132.115C752.695 132.115 760.894 123.912 760.894 113.793C760.894 103.673 752.695 95.4702 742.582 95.4702C732.468 95.4702 724.27 103.673 724.27 113.793C724.27 123.912 732.468 132.115 742.582 132.115Z" fill="#3B5266"/>
        <path d="M730.15 113.793C730.15 108.918 732.838 104.884 736.87 102.698L736.198 101.69C731.83 104.043 728.806 108.582 728.806 113.793C728.806 119.004 731.83 123.542 736.198 125.896L736.87 124.887C732.838 122.87 730.15 118.668 730.15 113.793Z" fill="#76C1AA"/>
        <path d="M748.798 101.69L748.294 102.698C752.326 104.716 755.182 108.918 755.182 113.793C755.182 118.668 752.326 122.87 748.294 124.887L748.798 125.896C753.166 123.542 756.19 119.004 756.19 113.793C756.19 108.582 753.166 104.043 748.798 101.69Z" fill="#76C1AA"/>
        <path opacity="0.3" d="M742.582 116.482C744.066 116.482 745.27 115.278 745.27 113.793C745.27 112.307 744.066 111.103 742.582 111.103C741.097 111.103 739.894 112.307 739.894 113.793C739.894 115.278 741.097 116.482 742.582 116.482Z" fill="white"/>
        <path opacity="0.3" d="M744.261 111.776L747.285 108.75C746.109 107.573 744.597 106.901 742.749 106.901V111.271C743.253 111.271 743.757 111.44 744.261 111.776Z" fill="white"/>
        <path opacity="0.3" d="M745.101 113.625H749.469C749.469 111.944 748.797 110.263 747.621 109.086L744.597 112.112C744.933 112.616 745.101 113.12 745.101 113.625Z" fill="white"/>
        <path opacity="0.3" d="M744.429 115.642L747.453 118.668C748.629 117.491 749.301 115.978 749.301 114.297H744.933C744.933 114.801 744.765 115.306 744.429 115.642Z" fill="white"/>
        <path opacity="0.3" d="M740.901 115.978L737.877 119.004C739.053 120.013 740.397 120.685 742.077 120.685V116.314C741.741 116.314 741.237 116.146 740.901 115.978Z" fill="white"/>
        <path opacity="0.3" d="M742.749 116.482V120.853C744.429 120.853 745.941 120.181 746.949 119.172L743.925 116.146C743.589 116.314 743.253 116.482 742.749 116.482Z" fill="white"/>
        <path opacity="0.3" d="M740.398 112.448L737.373 109.422C736.365 110.599 735.693 112.112 735.693 113.793H740.061C739.893 113.289 740.062 112.784 740.398 112.448Z" fill="white"/>
        <path opacity="0.3" d="M739.893 114.297H735.525C735.693 115.978 736.365 117.323 737.373 118.5L740.397 115.474C740.229 115.138 740.061 114.801 739.893 114.297Z" fill="white"/>
        <path opacity="0.3" d="M742.077 111.271V106.901C740.397 107.069 738.885 107.741 737.709 108.75L740.733 111.776C741.069 111.608 741.573 111.271 742.077 111.271Z" fill="white"/>
        <path d="M742.75 105.892C742.246 105.892 741.574 105.892 741.07 106.06C737.374 106.733 734.686 109.927 734.686 113.793C734.686 118.163 738.214 121.693 742.582 121.693C744.766 121.693 746.782 120.853 748.126 119.34C749.638 117.827 750.478 115.978 750.478 113.793C750.478 109.422 746.95 105.892 742.75 105.892ZM745.102 113.625C745.102 113.12 744.934 112.616 744.598 112.112L747.622 109.086C748.63 110.263 749.302 111.776 749.47 113.625H745.102ZM737.878 119.004L740.902 115.978C741.238 116.146 741.574 116.314 742.078 116.482V120.853C740.398 120.685 739.054 120.012 737.878 119.004ZM744.262 111.776C743.926 111.44 743.422 111.271 742.75 111.271V106.901C744.43 106.901 746.11 107.573 747.286 108.75L744.262 111.776ZM739.894 113.625H735.526C735.526 111.944 736.198 110.431 737.206 109.254L740.23 112.28C740.062 112.784 739.894 113.289 739.894 113.625ZM739.894 114.297C740.062 114.801 740.23 115.138 740.398 115.474L737.374 118.5C736.366 117.323 735.694 115.978 735.526 114.297H739.894ZM742.582 115.978C741.406 115.978 740.398 114.97 740.398 113.793C740.398 112.616 741.406 111.608 742.582 111.608C743.422 111.608 744.094 112.112 744.43 112.784V112.952C744.598 113.12 744.598 113.457 744.598 113.793C744.598 114.129 744.598 114.297 744.43 114.633C744.262 115.474 743.422 115.978 742.582 115.978ZM742.75 116.482C743.254 116.482 743.59 116.314 743.926 116.146L746.95 119.172C745.774 120.181 744.262 120.853 742.75 120.853V116.482ZM742.078 106.901V111.271C741.574 111.439 741.07 111.608 740.734 111.944L737.71 108.918C738.886 107.741 740.398 107.069 742.078 106.901ZM747.454 118.668L744.43 115.642C744.766 115.306 744.934 114.801 745.102 114.297H749.47C749.302 115.978 748.63 117.491 747.454 118.668Z" fill="white"/>
    </g>
    <g class="is-hidden-eje">
        <path d="M786.766 132.115C796.879 132.115 805.078 123.912 805.078 113.793C805.078 103.673 796.879 95.4702 786.766 95.4702C776.652 95.4702 768.454 103.673 768.454 113.793C768.454 123.912 776.652 132.115 786.766 132.115Z" fill="#3B5266"/>
        <path d="M774.334 113.793C774.334 108.918 777.022 104.884 781.054 102.698L780.382 101.69C776.014 104.043 772.99 108.582 772.99 113.793C772.99 119.004 776.014 123.542 780.382 125.896L781.054 124.887C777.022 122.87 774.334 118.668 774.334 113.793Z" fill="#76C1AA"/>
        <path d="M792.982 101.69L792.478 102.698C796.51 104.716 799.366 108.918 799.366 113.793C799.366 118.668 796.51 122.87 792.478 124.887L792.982 125.896C797.35 123.542 800.374 119.004 800.374 113.793C800.374 108.582 797.35 104.043 792.982 101.69Z" fill="#76C1AA"/>
        <path opacity="0.3" d="M786.766 116.482C788.25 116.482 789.454 115.278 789.454 113.793C789.454 112.307 788.25 111.103 786.766 111.103C785.281 111.103 784.078 112.307 784.078 113.793C784.078 115.278 785.281 116.482 786.766 116.482Z" fill="white"/>
        <path opacity="0.3" d="M788.278 111.776L791.302 108.75C790.126 107.573 788.614 106.901 786.766 106.901V111.271C787.438 111.271 787.942 111.44 788.278 111.776Z" fill="white"/>
        <path opacity="0.3" d="M789.286 113.625H793.654C793.654 111.944 792.982 110.263 791.806 109.086L788.782 112.112C789.118 112.616 789.286 113.12 789.286 113.625Z" fill="white"/>
        <path opacity="0.3" d="M788.614 115.642L791.638 118.668C792.814 117.491 793.486 115.978 793.486 114.297H789.118C789.118 114.801 788.95 115.306 788.614 115.642Z" fill="white"/>
        <path opacity="0.3" d="M785.086 115.978L782.062 119.004C783.238 120.013 784.582 120.685 786.262 120.685V116.314C785.926 116.314 785.422 116.146 785.086 115.978Z" fill="white"/>
        <path opacity="0.3" d="M786.934 116.482V120.853C788.614 120.853 790.126 120.181 791.134 119.172L788.11 116.146C787.774 116.314 787.27 116.482 786.934 116.482Z" fill="white"/>
        <path opacity="0.3" d="M784.414 112.448L781.39 109.422C780.382 110.599 779.71 112.112 779.71 113.793H784.078C784.078 113.289 784.246 112.784 784.414 112.448Z" fill="white"/>
        <path opacity="0.3" d="M784.078 114.297H779.71C779.878 115.978 780.55 117.323 781.558 118.5L784.582 115.474C784.414 115.138 784.246 114.801 784.078 114.297Z" fill="white"/>
        <path opacity="0.3" d="M786.262 111.271V106.901C784.582 107.069 783.07 107.741 781.894 108.75L784.918 111.776C785.254 111.608 785.758 111.271 786.262 111.271Z" fill="white"/>
        <path d="M786.766 105.892C786.262 105.892 785.59 105.892 785.086 106.06C781.39 106.733 778.702 109.927 778.702 113.793C778.702 118.163 782.23 121.693 786.598 121.693C788.782 121.693 790.798 120.853 792.142 119.34C793.654 117.827 794.494 115.978 794.494 113.793C794.662 109.422 791.134 105.892 786.766 105.892ZM789.286 113.625C789.286 113.12 789.118 112.616 788.782 112.112L791.806 109.086C792.814 110.263 793.486 111.776 793.654 113.625H789.286ZM782.062 119.004L785.086 115.978C785.422 116.146 785.758 116.314 786.262 116.482V120.853C784.582 120.685 783.238 120.012 782.062 119.004ZM788.278 111.776C787.942 111.44 787.438 111.271 786.766 111.271V106.901C788.446 106.901 790.126 107.573 791.302 108.75L788.278 111.776ZM784.078 113.625H779.71C779.71 111.944 780.382 110.431 781.39 109.254L784.414 112.28C784.246 112.784 784.078 113.289 784.078 113.625ZM784.078 114.297C784.246 114.801 784.414 115.138 784.582 115.474L781.558 118.5C780.55 117.323 779.878 115.978 779.71 114.297H784.078ZM786.766 115.978C785.59 115.978 784.582 114.97 784.582 113.793C784.582 112.616 785.59 111.608 786.766 111.608C787.606 111.608 788.278 112.112 788.614 112.784V112.952C788.782 113.12 788.782 113.457 788.782 113.793C788.782 114.129 788.782 114.297 788.614 114.633C788.446 115.474 787.606 115.978 786.766 115.978ZM786.934 116.482C787.438 116.482 787.774 116.314 788.11 116.146L791.134 119.172C789.958 120.181 788.446 120.853 786.934 120.853V116.482ZM786.262 106.901V111.271C785.758 111.439 785.254 111.608 784.918 111.944L781.894 108.918C783.07 107.741 784.582 107.069 786.262 106.901ZM791.638 118.668L788.614 115.642C788.95 115.306 789.118 114.801 789.286 114.297H793.654C793.486 115.978 792.814 117.491 791.638 118.668Z" fill="white"/>
    </g>
    <g class="is-hidden-eje">
        <path d="M830.95 132.115C841.063 132.115 849.262 123.912 849.262 113.793C849.262 103.673 841.063 95.4702 830.95 95.4702C820.836 95.4702 812.638 103.673 812.638 113.793C812.638 123.912 820.836 132.115 830.95 132.115Z" fill="#3B5266"/>
        <path d="M818.517 113.793C818.517 108.918 821.205 104.884 825.237 102.698L824.565 101.69C820.197 104.043 817.173 108.582 817.173 113.793C817.173 119.004 820.197 123.542 824.565 125.896L825.237 124.887C821.205 122.87 818.517 118.668 818.517 113.793Z" fill="#76C1AA"/>
        <path d="M837.166 101.69L836.662 102.698C840.694 104.716 843.55 108.918 843.55 113.793C843.55 118.668 840.694 122.87 836.662 124.887L837.166 125.896C841.534 123.542 844.558 119.004 844.558 113.793C844.558 108.582 841.534 104.043 837.166 101.69Z" fill="#76C1AA"/>
        <path opacity="0.3" d="M830.95 116.482C832.434 116.482 833.638 115.278 833.638 113.793C833.638 112.307 832.434 111.103 830.95 111.103C829.465 111.103 828.262 112.307 828.262 113.793C828.262 115.278 829.465 116.482 830.95 116.482Z" fill="white"/>
        <path opacity="0.3" d="M832.462 111.776L835.486 108.75C834.31 107.573 832.798 106.901 830.95 106.901V111.271C831.622 111.271 832.126 111.44 832.462 111.776Z" fill="white"/>
        <path opacity="0.3" d="M833.47 113.625H837.838C837.838 111.944 837.166 110.263 835.99 109.086L832.966 112.112C833.302 112.616 833.47 113.12 833.47 113.625Z" fill="white"/>
        <path opacity="0.3" d="M832.798 115.642L835.822 118.668C836.998 117.491 837.67 115.978 837.67 114.297H833.302C833.302 114.801 833.134 115.306 832.798 115.642Z" fill="white"/>
        <path opacity="0.3" d="M829.27 115.978L826.246 119.004C827.422 120.013 828.766 120.685 830.446 120.685V116.314C829.942 116.314 829.606 116.146 829.27 115.978Z" fill="white"/>
        <path opacity="0.3" d="M831.118 116.482V120.853C832.798 120.853 834.31 120.181 835.318 119.172L832.294 116.146C831.958 116.314 831.454 116.482 831.118 116.482Z" fill="white"/>
        <path opacity="0.3" d="M828.598 112.448L825.574 109.422C824.566 110.599 823.894 112.112 823.894 113.793H828.262C828.262 113.289 828.43 112.784 828.598 112.448Z" fill="white"/>
        <path opacity="0.3" d="M828.262 114.297H823.894C824.062 115.978 824.734 117.323 825.742 118.5L828.766 115.474C828.598 115.138 828.43 114.801 828.262 114.297Z" fill="white"/>
        <path opacity="0.3" d="M830.446 111.271V106.901C828.766 107.069 827.254 107.741 826.078 108.75L829.102 111.776C829.438 111.608 829.942 111.271 830.446 111.271Z" fill="white"/>
        <path d="M830.95 105.892C830.446 105.892 829.774 105.892 829.27 106.06C825.574 106.733 822.886 109.927 822.886 113.793C822.886 118.163 826.414 121.693 830.782 121.693C832.966 121.693 834.982 120.853 836.326 119.34C837.838 117.827 838.678 115.978 838.678 113.793C838.846 109.422 835.318 105.892 830.95 105.892ZM833.47 113.625C833.47 113.12 833.302 112.616 832.966 112.112L835.99 109.086C836.998 110.263 837.67 111.776 837.838 113.625H833.47ZM826.246 119.004L829.27 115.978C829.606 116.146 829.942 116.314 830.446 116.482V120.853C828.766 120.685 827.422 120.012 826.246 119.004ZM832.462 111.776C832.126 111.44 831.622 111.271 830.95 111.271V106.901C832.63 106.901 834.31 107.573 835.486 108.75L832.462 111.776ZM828.262 113.625H823.894C823.894 111.944 824.566 110.431 825.574 109.254L828.598 112.28C828.43 112.784 828.262 113.289 828.262 113.625ZM828.262 114.297C828.43 114.801 828.598 115.138 828.766 115.474L825.742 118.5C824.734 117.323 824.062 115.978 823.894 114.297H828.262ZM830.95 115.978C829.774 115.978 828.766 114.97 828.766 113.793C828.766 112.616 829.774 111.608 830.95 111.608C831.79 111.608 832.462 112.112 832.798 112.784V112.952C832.966 113.12 832.966 113.457 832.966 113.793C832.966 114.129 832.966 114.297 832.798 114.633C832.63 115.474 831.79 115.978 830.95 115.978ZM831.118 116.482C831.622 116.482 831.958 116.314 832.294 116.146L835.318 119.172C834.142 120.181 832.63 120.853 831.118 120.853V116.482ZM830.446 106.901V111.271C829.942 111.439 829.438 111.608 829.102 111.944L826.078 108.918C827.254 107.741 828.766 107.069 830.446 106.901ZM835.822 118.668L832.798 115.642C833.134 115.306 833.302 114.801 833.47 114.297H837.838C837.67 115.978 836.998 117.491 835.822 118.668Z" fill="white"/>
    </g>
</svg>
