<svg class="tracto-modular transport-item is-hidden"  width="843" height="114" viewBox="0 0 843 114" fill="none" xmlns="http://www.w3.org/2000/svg">
<path d="M151.669 80.0842V81.8239H130.934V77.1848H121.944V10.0626H117.449V0.349487H111.795V9.33778H110.345V68.1965H106.14V16.0065H62.9297V21.9503L67.2797 21.8054L54.0848 55.5839H7.10497V87.9127H0V96.756H7.24997V99.3655H131.949V96.901H249.834V80.0842H151.669ZM87.1446 55.004H69.8897L77.7197 23.4001H87.1446V55.004Z" fill="#3449B2"/>
<path d="M168.054 49.785H280.864V82.8386H841.721V96.466H262.449V83.1286L257.519 62.8325H197.199L189.659 71.6758H168.054V49.785Z" fill="#DCE9EF" stroke="#65819B" stroke-width="1.0365" stroke-miterlimit="10"/>
<path d="M280.719 82.8386H262.449V96.321H280.719V82.8386Z" fill="#DCE9EF" stroke="#65819B" stroke-width="1.0365" stroke-miterlimit="10"/>
<g>
<path d="M34.6548 113.428C43.3836 113.428 50.4597 106.353 50.4597 97.6258C50.4597 88.8986 43.3836 81.8239 34.6548 81.8239C25.926 81.8239 18.8499 88.8986 18.8499 97.6258C18.8499 106.353 25.926 113.428 34.6548 113.428Z" fill="#3B5266"/>
<path d="M23.9249 97.6258C23.9249 93.4216 26.2449 89.9423 29.7249 88.0576L29.1449 87.1878C25.3749 89.2174 22.7649 93.1317 22.7649 97.6258C22.7649 102.12 25.3749 106.034 29.1449 108.064L29.7249 107.194C26.2449 105.454 23.9249 101.83 23.9249 97.6258Z" fill="#76C1AA"/>
<path d="M40.1647 87.1878L39.7297 88.0576C43.2097 89.7973 45.6747 93.4216 45.6747 97.6258C45.6747 101.83 43.2097 105.454 39.7297 107.194L40.1647 108.064C43.9347 106.034 46.5447 102.12 46.5447 97.6258C46.3997 93.1317 43.9347 89.2174 40.1647 87.1878Z" fill="#76C1AA"/>
<path opacity="0.3" d="M34.6547 99.9454C35.936 99.9454 36.9747 98.9069 36.9747 97.6259C36.9747 96.3448 35.936 95.3063 34.6547 95.3063C33.3734 95.3063 32.3347 96.3448 32.3347 97.6259C32.3347 98.9069 33.3734 99.9454 34.6547 99.9454Z" fill="white"/>
<path opacity="0.3" d="M36.105 95.8861L38.715 93.2766C37.7 92.2618 36.395 91.6819 34.8 91.6819V95.4512C35.235 95.4512 35.67 95.5962 36.105 95.8861Z" fill="white"/>
<path opacity="0.3" d="M36.8298 97.4808H40.5997C40.5997 96.0311 40.0198 94.5814 39.0048 93.5666L36.3948 96.1761C36.6848 96.611 36.8298 97.0459 36.8298 97.4808Z" fill="white"/>
<path opacity="0.3" d="M36.25 99.2205L38.86 101.83C39.875 100.815 40.455 99.5105 40.455 98.0607H36.685C36.83 98.4956 36.54 98.9306 36.25 99.2205Z" fill="white"/>
<path opacity="0.3" d="M33.35 99.5104L30.74 102.12C31.755 102.99 32.915 103.57 34.365 103.57V99.8004C33.93 99.8004 33.495 99.6554 33.35 99.5104Z" fill="white"/>
<path opacity="0.3" d="M34.8 99.9454V103.715C36.25 103.715 37.555 103.135 38.425 102.265L35.815 99.6554C35.525 99.8004 35.235 99.9454 34.8 99.9454Z" fill="white"/>
<path opacity="0.3" d="M32.7699 96.466L30.16 93.8566C29.29 94.8714 28.71 96.1761 28.71 97.6259H32.4799C32.3349 97.1909 32.4799 96.756 32.7699 96.466Z" fill="white"/>
<path opacity="0.3" d="M32.3349 98.0607H28.5649C28.7099 99.5105 29.2899 100.67 30.1599 101.685L32.7699 99.0756C32.6249 98.7856 32.4799 98.4956 32.3349 98.0607Z" fill="white"/>
<path opacity="0.3" d="M34.2199 95.4512V91.6819C32.7699 91.8269 31.4649 92.4068 30.45 93.2766L33.0599 95.8861C33.3499 95.7411 33.7849 95.4512 34.2199 95.4512Z" fill="white"/>
<path d="M34.7998 90.8121C34.3648 90.8121 33.7848 90.8121 33.3498 90.9571C30.1598 91.537 27.8398 94.2915 27.8398 97.6258C27.8398 101.395 30.8848 104.44 34.6548 104.44C36.5398 104.44 38.2798 103.715 39.4398 102.41C40.7448 101.105 41.4698 99.5105 41.4698 97.6258C41.4698 93.8566 38.5698 90.8121 34.7998 90.8121ZM36.8298 97.4809C36.8298 97.0459 36.6848 96.611 36.3948 96.1761L39.0048 93.5666C39.8748 94.5814 40.4548 95.8862 40.5998 97.4809H36.8298ZM30.5948 102.12L33.2048 99.5105C33.4948 99.6554 33.7848 99.8004 34.2198 99.9454V103.715C32.9148 103.57 31.6098 102.99 30.5948 102.12ZM36.1048 95.8862C35.8148 95.5962 35.3798 95.4513 34.7998 95.4513V91.682C36.2498 91.682 37.6998 92.2619 38.7148 93.2767L36.1048 95.8862ZM32.3348 97.4809H28.5648C28.5648 96.0311 29.1448 94.7264 30.0148 93.7116L32.6248 96.3211C32.4798 96.756 32.3348 97.1909 32.3348 97.4809ZM32.3348 98.0607C32.4798 98.4957 32.6248 98.7856 32.7698 99.0756L30.1598 101.685C29.2898 100.67 28.7098 99.5105 28.5648 98.0607H32.3348ZM34.6548 99.5105C33.6398 99.5105 32.7698 98.6407 32.7698 97.6258C32.7698 96.611 33.6398 95.7412 34.6548 95.7412C35.3798 95.7412 35.9598 96.1761 36.2498 96.756V96.901C36.3948 97.046 36.3948 97.3359 36.3948 97.6258C36.3948 97.9158 36.3948 98.0608 36.2498 98.3507C36.1048 99.0756 35.3798 99.5105 34.6548 99.5105ZM34.7998 99.9454C35.2348 99.9454 35.5248 99.8004 35.8148 99.6554L38.4248 102.265C37.4098 103.135 36.1048 103.715 34.7998 103.715V99.9454ZM34.2198 91.682V95.4513C33.7848 95.5962 33.3498 95.7412 33.0598 96.0311L30.4498 93.4217C31.4648 92.4069 32.7698 91.8269 34.2198 91.682ZM38.8598 101.83L36.2498 99.2205C36.5398 98.9306 36.6848 98.4957 36.8298 98.0607H40.5998C40.4548 99.5105 39.8748 100.815 38.8598 101.83Z" fill="white"/>
</g>
<g>
<path d="M159.789 113.428C168.518 113.428 175.594 106.353 175.594 97.6258C175.594 88.8986 168.518 81.8239 159.789 81.8239C151.06 81.8239 143.984 88.8986 143.984 97.6258C143.984 106.353 151.06 113.428 159.789 113.428Z" fill="#3B5266"/>
<path d="M149.059 97.6258C149.059 93.4216 151.379 89.9423 154.859 88.0576L154.279 87.1878C150.509 89.2174 147.899 93.1317 147.899 97.6258C147.899 102.12 150.509 106.034 154.279 108.064L154.859 107.194C151.379 105.454 149.059 101.83 149.059 97.6258Z" fill="#76C1AA"/>
<path d="M165.154 87.1878L164.719 88.0576C168.199 89.7973 170.664 93.4216 170.664 97.6258C170.664 101.83 168.199 105.454 164.719 107.194L165.154 108.064C168.924 106.034 171.534 102.12 171.534 97.6258C171.534 93.1317 168.924 89.2174 165.154 87.1878Z" fill="#76C1AA"/>
<path opacity="0.3" d="M159.789 99.9454C161.071 99.9454 162.109 98.9069 162.109 97.6259C162.109 96.3448 161.071 95.3063 159.789 95.3063C158.508 95.3063 157.469 96.3448 157.469 97.6259C157.469 98.9069 158.508 99.9454 159.789 99.9454Z" fill="white"/>
<path opacity="0.3" d="M161.094 95.8861L163.704 93.2766C162.689 92.2618 161.384 91.6819 159.789 91.6819V95.4512C160.369 95.4512 160.804 95.5962 161.094 95.8861Z" fill="white"/>
<path opacity="0.3" d="M161.964 97.4808H165.734C165.734 96.0311 165.154 94.5814 164.139 93.5666L161.529 96.1761C161.819 96.611 161.964 97.0459 161.964 97.4808Z" fill="white"/>
<path opacity="0.3" d="M161.385 99.2205L163.995 101.83C165.01 100.815 165.59 99.5105 165.59 98.0607H161.82C161.82 98.4956 161.675 98.9306 161.385 99.2205Z" fill="white"/>
<path opacity="0.3" d="M158.339 99.5104L155.729 102.12C156.744 102.99 157.904 103.57 159.354 103.57V99.8004C158.919 99.8004 158.629 99.6554 158.339 99.5104Z" fill="white"/>
<path opacity="0.3" d="M159.935 99.9454V103.715C161.385 103.715 162.69 103.135 163.56 102.265L160.95 99.6554C160.66 99.8004 160.225 99.9454 159.935 99.9454Z" fill="white"/>
<path opacity="0.3" d="M157.759 96.466L155.149 93.8566C154.279 94.8714 153.699 96.1761 153.699 97.6259H157.469C157.469 97.1909 157.614 96.756 157.759 96.466Z" fill="white"/>
<path opacity="0.3" d="M157.469 98.0607H153.699C153.844 99.5105 154.424 100.67 155.294 101.685L157.904 99.0756C157.759 98.7856 157.614 98.4956 157.469 98.0607Z" fill="white"/>
<path opacity="0.3" d="M159.354 95.4512V91.6819C157.904 91.8269 156.599 92.4068 155.584 93.2766L158.194 95.8861C158.484 95.7411 158.919 95.4512 159.354 95.4512Z" fill="white"/>
<path d="M159.789 90.8121C159.354 90.8121 158.774 90.8121 158.339 90.9571C155.149 91.537 152.829 94.2915 152.829 97.6258C152.829 101.395 155.874 104.44 159.644 104.44C161.529 104.44 163.269 103.715 164.429 102.41C165.734 101.105 166.459 99.5105 166.459 97.6258C166.604 93.8566 163.559 90.8121 159.789 90.8121ZM161.964 97.4809C161.964 97.0459 161.819 96.611 161.529 96.1761L164.139 93.5666C165.009 94.5814 165.589 95.8862 165.734 97.4809H161.964ZM155.729 102.12L158.339 99.5105C158.629 99.6554 158.919 99.8004 159.354 99.9454V103.715C157.904 103.57 156.744 102.99 155.729 102.12ZM161.094 95.8862C160.804 95.5962 160.369 95.4513 159.789 95.4513V91.682C161.239 91.682 162.689 92.2619 163.704 93.2767L161.094 95.8862ZM157.469 97.4809H153.699C153.699 96.0311 154.279 94.7264 155.149 93.7116L157.759 96.3211C157.614 96.756 157.469 97.1909 157.469 97.4809ZM157.469 98.0607C157.614 98.4957 157.759 98.7856 157.904 99.0756L155.294 101.685C154.424 100.67 153.844 99.5105 153.699 98.0607H157.469ZM159.789 99.5105C158.774 99.5105 157.904 98.6407 157.904 97.6258C157.904 96.611 158.774 95.7412 159.789 95.7412C160.514 95.7412 161.094 96.1761 161.384 96.756V96.901C161.529 97.046 161.529 97.3359 161.529 97.6258C161.529 97.9158 161.529 98.0608 161.384 98.3507C161.239 99.0756 160.514 99.5105 159.789 99.5105ZM159.934 99.9454C160.369 99.9454 160.659 99.8004 160.949 99.6554L163.559 102.265C162.544 103.135 161.239 103.715 159.934 103.715V99.9454ZM159.354 91.682V95.4513C158.919 95.5962 158.484 95.7412 158.194 96.0311L155.584 93.4217C156.599 92.4069 157.904 91.8269 159.354 91.682ZM163.994 101.83L161.384 99.2205C161.674 98.9306 161.819 98.4957 161.964 98.0607H165.734C165.589 99.5105 165.009 100.815 163.994 101.83Z" fill="white"/>
</g>
<g>
<path d="M197.054 113.428C205.783 113.428 212.859 106.353 212.859 97.6258C212.859 88.8986 205.783 81.8239 197.054 81.8239C188.325 81.8239 181.249 88.8986 181.249 97.6258C181.249 106.353 188.325 113.428 197.054 113.428Z" fill="#3B5266"/>
<path d="M186.324 97.6258C186.324 93.4216 188.644 89.9423 192.124 88.0576L191.544 87.1878C187.774 89.2174 185.164 93.1317 185.164 97.6258C185.164 102.12 187.774 106.034 191.544 108.064L192.124 107.194C188.644 105.454 186.324 101.83 186.324 97.6258Z" fill="#76C1AA"/>
<path d="M202.419 87.1878L201.984 88.0576C205.464 89.7973 207.929 93.4216 207.929 97.6258C207.929 101.83 205.464 105.454 201.984 107.194L202.419 108.064C206.189 106.034 208.799 102.12 208.799 97.6258C208.799 93.1317 206.189 89.2174 202.419 87.1878Z" fill="#76C1AA"/>
<path opacity="0.3" d="M197.054 99.9454C198.335 99.9454 199.374 98.9069 199.374 97.6259C199.374 96.3448 198.335 95.3063 197.054 95.3063C195.773 95.3063 194.734 96.3448 194.734 97.6259C194.734 98.9069 195.773 99.9454 197.054 99.9454Z" fill="white"/>
<path opacity="0.3" d="M198.359 95.8861L200.969 93.2766C199.954 92.2618 198.649 91.6819 197.054 91.6819V95.4512C197.634 95.4512 198.069 95.5962 198.359 95.8861Z" fill="white"/>
<path opacity="0.3" d="M199.229 97.4808H202.999C202.999 96.0311 202.419 94.5814 201.404 93.5666L198.794 96.1761C199.084 96.611 199.229 97.0459 199.229 97.4808Z" fill="white"/>
<path opacity="0.3" d="M198.649 99.2205L201.259 101.83C202.274 100.815 202.854 99.5105 202.854 98.0607H199.084C199.084 98.4956 198.939 98.9306 198.649 99.2205Z" fill="white"/>
<path opacity="0.3" d="M195.604 99.5104L192.994 102.12C194.009 102.99 195.169 103.57 196.619 103.57V99.8004C196.184 99.8004 195.894 99.6554 195.604 99.5104Z" fill="white"/>
<path opacity="0.3" d="M197.199 99.9454V103.715C198.649 103.715 199.954 103.135 200.824 102.265L198.214 99.6554C197.924 99.8004 197.489 99.9454 197.199 99.9454Z" fill="white"/>
<path opacity="0.3" d="M195.024 96.466L192.414 93.8566C191.544 94.8714 190.964 96.1761 190.964 97.6259H194.734C194.734 97.1909 194.879 96.756 195.024 96.466Z" fill="white"/>
<path opacity="0.3" d="M194.734 98.0607H190.964C191.109 99.5105 191.689 100.67 192.559 101.685L195.169 99.0756C195.024 98.7856 194.879 98.4956 194.734 98.0607Z" fill="white"/>
<path opacity="0.3" d="M196.619 95.4512V91.6819C195.169 91.8269 193.864 92.4068 192.849 93.2766L195.459 95.8861C195.749 95.7411 196.184 95.4512 196.619 95.4512Z" fill="white"/>
<path d="M197.054 90.8121C196.619 90.8121 196.039 90.8121 195.604 90.9571C192.414 91.537 190.094 94.2915 190.094 97.6258C190.094 101.395 193.139 104.44 196.909 104.44C198.794 104.44 200.534 103.715 201.694 102.41C202.999 101.105 203.724 99.5105 203.724 97.6258C203.869 93.8566 200.824 90.8121 197.054 90.8121ZM199.229 97.4809C199.229 97.0459 199.084 96.611 198.794 96.1761L201.404 93.5666C202.274 94.5814 202.854 95.8862 202.999 97.4809H199.229ZM192.994 102.12L195.604 99.5105C195.894 99.6554 196.184 99.8004 196.619 99.9454V103.715C195.169 103.57 194.009 102.99 192.994 102.12ZM198.359 95.8862C198.069 95.5962 197.634 95.4513 197.054 95.4513V91.682C198.504 91.682 199.954 92.2619 200.969 93.2767L198.359 95.8862ZM194.734 97.4809H190.964C190.964 96.0311 191.544 94.7264 192.414 93.7116L195.024 96.3211C194.879 96.756 194.734 97.1909 194.734 97.4809ZM194.734 98.0607C194.879 98.4957 195.024 98.7856 195.169 99.0756L192.559 101.685C191.689 100.67 191.109 99.5105 190.964 98.0607H194.734ZM197.054 99.5105C196.039 99.5105 195.169 98.6407 195.169 97.6258C195.169 96.611 196.039 95.7412 197.054 95.7412C197.779 95.7412 198.359 96.1761 198.649 96.756V96.901C198.794 97.046 198.794 97.3359 198.794 97.6258C198.794 97.9158 198.794 98.0608 198.649 98.3507C198.504 99.0756 197.779 99.5105 197.054 99.5105ZM197.199 99.9454C197.634 99.9454 197.924 99.8004 198.214 99.6554L200.824 102.265C199.809 103.135 198.504 103.715 197.199 103.715V99.9454ZM196.619 91.682V95.4513C196.184 95.5962 195.749 95.7412 195.459 96.0311L192.849 93.4217C193.864 92.4069 195.169 91.8269 196.619 91.682ZM201.259 101.83L198.649 99.2205C198.939 98.9306 199.084 98.4957 199.229 98.0607H202.999C202.854 99.5105 202.274 100.815 201.259 101.83Z" fill="white"/>
</g>
<g>
<path d="M234.319 113.428C243.048 113.428 250.124 106.353 250.124 97.6258C250.124 88.8986 243.048 81.8239 234.319 81.8239C225.59 81.8239 218.514 88.8986 218.514 97.6258C218.514 106.353 225.59 113.428 234.319 113.428Z" fill="#3B5266"/>
<path d="M223.589 97.6258C223.589 93.4216 225.909 89.9423 229.389 88.0576L228.809 87.1878C225.039 89.2174 222.429 93.1317 222.429 97.6258C222.429 102.12 225.039 106.034 228.809 108.064L229.389 107.194C225.909 105.454 223.589 101.83 223.589 97.6258Z" fill="#76C1AA"/>
<path d="M239.684 87.1878L239.249 88.0576C242.729 89.7973 245.194 93.4216 245.194 97.6258C245.194 101.83 242.729 105.454 239.249 107.194L239.684 108.064C243.454 106.034 246.064 102.12 246.064 97.6258C246.064 93.1317 243.454 89.2174 239.684 87.1878Z" fill="#76C1AA"/>
<path opacity="0.3" d="M234.319 99.9454C235.6 99.9454 236.639 98.9069 236.639 97.6259C236.639 96.3448 235.6 95.3063 234.319 95.3063C233.037 95.3063 231.999 96.3448 231.999 97.6259C231.999 98.9069 233.037 99.9454 234.319 99.9454Z" fill="white"/>
<path opacity="0.3" d="M235.769 95.8861L238.379 93.2766C237.364 92.2618 236.059 91.6819 234.464 91.6819V95.4512C234.899 95.4512 235.334 95.5962 235.769 95.8861Z" fill="white"/>
<path opacity="0.3" d="M236.494 97.4808H240.264C240.264 96.0311 239.684 94.5814 238.669 93.5666L236.059 96.1761C236.349 96.611 236.494 97.0459 236.494 97.4808Z" fill="white"/>
<path opacity="0.3" d="M235.914 99.2205L238.524 101.83C239.539 100.815 240.119 99.5105 240.119 98.0607H236.349C236.349 98.4956 236.204 98.9306 235.914 99.2205Z" fill="white"/>
<path opacity="0.3" d="M232.869 99.5104L230.259 102.12C231.274 102.99 232.434 103.57 233.884 103.57V99.8004C233.594 99.8004 233.159 99.6554 232.869 99.5104Z" fill="white"/>
<path opacity="0.3" d="M234.464 99.9454V103.715C235.914 103.715 237.219 103.135 238.089 102.265L235.479 99.6554C235.189 99.8004 234.899 99.9454 234.464 99.9454Z" fill="white"/>
<path opacity="0.3" d="M232.434 96.466L229.824 93.8566C228.954 94.8714 228.374 96.1761 228.374 97.6259H232.144C231.999 97.1909 232.144 96.756 232.434 96.466Z" fill="white"/>
<path opacity="0.3" d="M231.999 98.0607H228.229C228.374 99.5105 228.954 100.67 229.824 101.685L232.434 99.0756C232.289 98.7856 232.144 98.4956 231.999 98.0607Z" fill="white"/>
<path opacity="0.3" d="M233.884 95.4512V91.6819C232.434 91.8269 231.129 92.4068 230.114 93.2766L232.724 95.8861C233.014 95.7411 233.449 95.4512 233.884 95.4512Z" fill="white"/>
<path d="M234.464 90.8121C234.029 90.8121 233.449 90.8121 233.014 90.9571C229.824 91.537 227.504 94.2915 227.504 97.6258C227.504 101.395 230.549 104.44 234.319 104.44C236.204 104.44 237.944 103.715 239.104 102.41C240.409 101.105 241.134 99.5105 241.134 97.6258C241.134 93.8566 238.089 90.8121 234.464 90.8121ZM236.494 97.4809C236.494 97.0459 236.349 96.611 236.059 96.1761L238.669 93.5666C239.539 94.5814 240.119 95.8862 240.264 97.4809H236.494ZM230.259 102.12L232.869 99.5105C233.159 99.6554 233.449 99.8004 233.884 99.9454V103.715C232.579 103.57 231.274 102.99 230.259 102.12ZM235.769 95.8862C235.479 95.5962 235.044 95.4513 234.464 95.4513V91.682C235.914 91.682 237.364 92.2619 238.379 93.2767L235.769 95.8862ZM231.999 97.4809H228.229C228.229 96.0311 228.809 94.7264 229.679 93.7116L232.289 96.3211C232.144 96.756 231.999 97.1909 231.999 97.4809ZM231.999 98.0607C232.144 98.4957 232.289 98.7856 232.434 99.0756L229.824 101.685C228.954 100.67 228.374 99.5105 228.229 98.0607H231.999ZM234.319 99.5105C233.304 99.5105 232.434 98.6407 232.434 97.6258C232.434 96.611 233.304 95.7412 234.319 95.7412C235.044 95.7412 235.624 96.1761 235.914 96.756V96.901C236.059 97.046 236.059 97.3359 236.059 97.6258C236.059 97.9158 236.059 98.0608 235.914 98.3507C235.769 99.0756 235.044 99.5105 234.319 99.5105ZM234.464 99.9454C234.899 99.9454 235.189 99.8004 235.479 99.6554L238.089 102.265C237.074 103.135 235.769 103.715 234.464 103.715V99.9454ZM233.884 91.682V95.4513C233.449 95.5962 233.014 95.7412 232.724 96.0311L230.114 93.4217C231.129 92.4069 232.434 91.8269 233.884 91.682ZM238.524 101.83L235.914 99.2205C236.204 98.9306 236.349 98.4957 236.494 98.0607H240.264C240.119 99.5105 239.539 100.815 238.524 101.83Z" fill="white"/>
</g>
<g>
<path d="M304.934 113.428C313.662 113.428 320.738 106.353 320.738 97.6258C320.738 88.8986 313.662 81.8239 304.934 81.8239C296.205 81.8239 289.129 88.8986 289.129 97.6258C289.129 106.353 296.205 113.428 304.934 113.428Z" fill="#3B5266"/>
<path d="M294.203 97.6258C294.203 93.4216 296.523 89.9423 300.003 88.0576L299.423 87.1878C295.653 89.2174 293.043 93.1317 293.043 97.6258C293.043 102.12 295.653 106.034 299.423 108.064L300.003 107.194C296.523 105.454 294.203 101.83 294.203 97.6258Z" fill="#76C1AA"/>
<path d="M310.299 87.1878L309.864 88.0576C313.344 89.7973 315.808 93.4216 315.808 97.6258C315.808 101.83 313.344 105.454 309.864 107.194L310.299 108.064C314.069 106.034 316.678 102.12 316.678 97.6258C316.678 93.1317 314.069 89.2174 310.299 87.1878Z" fill="#76C1AA"/>
<path opacity="0.3" d="M304.933 99.9454C306.215 99.9454 307.254 98.9069 307.254 97.6259C307.254 96.3448 306.215 95.3063 304.933 95.3063C303.652 95.3063 302.614 96.3448 302.614 97.6259C302.614 98.9069 303.652 99.9454 304.933 99.9454Z" fill="white"/>
<path opacity="0.3" d="M306.239 95.8861L308.849 93.2766C307.834 92.2618 306.529 91.6819 304.934 91.6819V95.4512C305.514 95.4512 305.949 95.5962 306.239 95.8861Z" fill="white"/>
<path opacity="0.3" d="M307.109 97.4808H310.879C310.879 96.0311 310.299 94.5814 309.284 93.5666L306.674 96.1761C306.964 96.611 307.109 97.0459 307.109 97.4808Z" fill="white"/>
<path opacity="0.3" d="M306.529 99.2205L309.139 101.83C310.154 100.815 310.734 99.5105 310.734 98.0607H306.964C306.964 98.4956 306.819 98.9306 306.529 99.2205Z" fill="white"/>
<path opacity="0.3" d="M303.484 99.5104L300.874 102.12C301.889 102.99 303.049 103.57 304.499 103.57V99.8004C304.064 99.8004 303.774 99.6554 303.484 99.5104Z" fill="white"/>
<path opacity="0.3" d="M305.079 99.9454V103.715C306.529 103.715 307.834 103.135 308.704 102.265L306.094 99.6554C305.804 99.8004 305.369 99.9454 305.079 99.9454Z" fill="white"/>
<path opacity="0.3" d="M302.904 96.466L300.294 93.8566C299.424 94.8714 298.844 96.1761 298.844 97.6259H302.614C302.614 97.1909 302.759 96.756 302.904 96.466Z" fill="white"/>
<path opacity="0.3" d="M302.614 98.0607H298.844C298.989 99.5105 299.569 100.67 300.439 101.685L303.049 99.0756C302.904 98.7856 302.759 98.4956 302.614 98.0607Z" fill="white"/>
<path opacity="0.3" d="M304.499 95.4512V91.6819C303.049 91.8269 301.744 92.4068 300.729 93.2766L303.339 95.8861C303.629 95.7411 304.064 95.4512 304.499 95.4512Z" fill="white"/>
<path d="M304.934 90.8121C304.499 90.8121 303.919 90.8121 303.484 90.9571C300.294 91.537 297.974 94.2915 297.974 97.6258C297.974 101.395 301.019 104.44 304.789 104.44C306.674 104.44 308.414 103.715 309.574 102.41C310.879 101.105 311.604 99.5105 311.604 97.6258C311.749 93.8566 308.704 90.8121 304.934 90.8121ZM307.109 97.4809C307.109 97.0459 306.964 96.611 306.674 96.1761L309.284 93.5666C310.154 94.5814 310.734 95.8862 310.879 97.4809H307.109ZM300.874 102.12L303.484 99.5105C303.774 99.6554 304.064 99.8004 304.499 99.9454V103.715C303.049 103.57 301.889 102.99 300.874 102.12ZM306.239 95.8862C305.949 95.5962 305.514 95.4513 304.934 95.4513V91.682C306.384 91.682 307.834 92.2619 308.849 93.2767L306.239 95.8862ZM302.614 97.4809H298.844C298.844 96.0311 299.424 94.7264 300.294 93.7116L302.904 96.3211C302.759 96.756 302.614 97.1909 302.614 97.4809ZM302.614 98.0607C302.759 98.4957 302.904 98.7856 303.049 99.0756L300.439 101.685C299.569 100.67 298.989 99.5105 298.844 98.0607H302.614ZM304.934 99.5105C303.919 99.5105 303.049 98.6407 303.049 97.6258C303.049 96.611 303.919 95.7412 304.934 95.7412C305.659 95.7412 306.239 96.1761 306.529 96.756V96.901C306.674 97.046 306.674 97.3359 306.674 97.6258C306.674 97.9158 306.674 98.0608 306.529 98.3507C306.384 99.0756 305.659 99.5105 304.934 99.5105ZM305.079 99.9454C305.514 99.9454 305.804 99.8004 306.094 99.6554L308.704 102.265C307.689 103.135 306.384 103.715 305.079 103.715V99.9454ZM304.499 91.682V95.4513C304.064 95.5962 303.629 95.7412 303.339 96.0311L300.729 93.4217C301.599 92.4069 303.049 91.8269 304.499 91.682ZM309.139 101.83L306.529 99.2205C306.819 98.9306 306.964 98.4957 307.109 98.0607H310.879C310.734 99.5105 310.154 100.815 309.139 101.83Z" fill="white"/>
</g>
<g>
<path d="M344.519 113.428C353.247 113.428 360.323 106.353 360.323 97.6258C360.323 88.8986 353.247 81.8239 344.519 81.8239C335.79 81.8239 328.714 88.8986 328.714 97.6258C328.714 106.353 335.79 113.428 344.519 113.428Z" fill="#3B5266"/>
<path d="M333.789 97.6258C333.789 93.4216 336.109 89.9423 339.589 88.0576L339.009 87.1878C335.239 89.2174 332.629 93.1317 332.629 97.6258C332.629 102.12 335.239 106.034 339.009 108.064L339.589 107.194C336.109 105.454 333.789 101.83 333.789 97.6258Z" fill="#76C1AA"/>
<path d="M349.884 87.1878L349.449 88.0576C352.929 89.7973 355.394 93.4216 355.394 97.6258C355.394 101.83 352.929 105.454 349.449 107.194L349.884 108.064C353.654 106.034 356.264 102.12 356.264 97.6258C356.264 93.1317 353.654 89.2174 349.884 87.1878Z" fill="#76C1AA"/>
<path opacity="0.3" d="M344.518 99.9454C345.8 99.9454 346.839 98.9069 346.839 97.6259C346.839 96.3448 345.8 95.3063 344.518 95.3063C343.237 95.3063 342.198 96.3448 342.198 97.6259C342.198 98.9069 343.237 99.9454 344.518 99.9454Z" fill="white"/>
<path opacity="0.3" d="M345.969 95.8861L348.579 93.2766C347.564 92.2618 346.259 91.6819 344.664 91.6819V95.4512C345.099 95.4512 345.534 95.5962 345.969 95.8861Z" fill="white"/>
<path opacity="0.3" d="M346.694 97.4808H350.464C350.464 96.0311 349.884 94.5814 348.869 93.5666L346.259 96.1761C346.549 96.611 346.694 97.0459 346.694 97.4808Z" fill="white"/>
<path opacity="0.3" d="M346.114 99.2205L348.724 101.83C349.739 100.815 350.319 99.5105 350.319 98.0607H346.549C346.549 98.4956 346.404 98.9306 346.114 99.2205Z" fill="white"/>
<path opacity="0.3" d="M343.069 99.5104L340.459 102.12C341.474 102.99 342.634 103.57 344.084 103.57V99.8004C343.794 99.8004 343.359 99.6554 343.069 99.5104Z" fill="white"/>
<path opacity="0.3" d="M344.664 99.9454V103.715C346.114 103.715 347.419 103.135 348.289 102.265L345.679 99.6554C345.389 99.8004 345.099 99.9454 344.664 99.9454Z" fill="white"/>
<path opacity="0.3" d="M342.634 96.466L340.024 93.8566C339.154 94.8714 338.574 96.1761 338.574 97.6259H342.344C342.199 97.1909 342.344 96.756 342.634 96.466Z" fill="white"/>
<path opacity="0.3" d="M342.199 98.0607H338.429C338.574 99.5105 339.154 100.67 340.024 101.685L342.634 99.0756C342.489 98.7856 342.344 98.4956 342.199 98.0607Z" fill="white"/>
<path opacity="0.3" d="M344.084 95.4512V91.6819C342.634 91.8269 341.329 92.4068 340.314 93.2766L342.924 95.8861C343.214 95.7411 343.649 95.4512 344.084 95.4512Z" fill="white"/>
<path d="M344.664 90.8121C344.229 90.8121 343.649 90.8121 343.214 90.9571C340.024 91.537 337.704 94.2915 337.704 97.6258C337.704 101.395 340.749 104.44 344.519 104.44C346.404 104.44 348.144 103.715 349.304 102.41C350.609 101.105 351.334 99.5105 351.334 97.6258C351.334 93.8566 348.289 90.8121 344.664 90.8121ZM346.694 97.4809C346.694 97.0459 346.549 96.611 346.259 96.1761L348.869 93.5666C349.739 94.5814 350.319 95.8862 350.464 97.4809H346.694ZM340.459 102.12L343.069 99.5105C343.359 99.6554 343.649 99.8004 344.084 99.9454V103.715C342.634 103.57 341.474 102.99 340.459 102.12ZM345.969 95.8862C345.679 95.5962 345.244 95.4513 344.664 95.4513V91.682C346.114 91.682 347.564 92.2619 348.579 93.2767L345.969 95.8862ZM342.199 97.4809H338.429C338.429 96.0311 339.009 94.7264 339.879 93.7116L342.489 96.3211C342.344 96.756 342.199 97.1909 342.199 97.4809ZM342.199 98.0607C342.344 98.4957 342.489 98.7856 342.634 99.0756L340.024 101.685C339.154 100.67 338.574 99.5105 338.429 98.0607H342.199ZM344.519 99.5105C343.504 99.5105 342.634 98.6407 342.634 97.6258C342.634 96.611 343.504 95.7412 344.519 95.7412C345.244 95.7412 345.824 96.1761 346.114 96.756V96.901C346.259 97.046 346.259 97.3359 346.259 97.6258C346.259 97.9158 346.259 98.0608 346.114 98.3507C345.969 99.0756 345.244 99.5105 344.519 99.5105ZM344.664 99.9454C345.099 99.9454 345.389 99.8004 345.679 99.6554L348.289 102.265C347.274 103.135 345.969 103.715 344.664 103.715V99.9454ZM344.084 91.682V95.4513C343.649 95.5962 343.214 95.7412 342.924 96.0311L340.314 93.4217C341.329 92.4069 342.634 91.8269 344.084 91.682ZM348.724 101.83L346.114 99.2205C346.404 98.9306 346.549 98.4957 346.694 98.0607H350.464C350.319 99.5105 349.739 100.815 348.724 101.83Z" fill="white"/>
</g>
<g>
<path d="M384.103 113.428C392.832 113.428 399.908 106.353 399.908 97.6258C399.908 88.8986 392.832 81.8239 384.103 81.8239C375.374 81.8239 368.298 88.8986 368.298 97.6258C368.298 106.353 375.374 113.428 384.103 113.428Z" fill="#3B5266"/>
<path d="M373.373 97.6258C373.373 93.4216 375.693 89.9423 379.173 88.0576L378.593 87.1878C374.823 89.2174 372.213 93.1317 372.213 97.6258C372.213 102.12 374.823 106.034 378.593 108.064L379.173 107.194C375.838 105.454 373.373 101.83 373.373 97.6258Z" fill="#76C1AA"/>
<path d="M389.613 87.1878L389.178 88.0576C392.658 89.7973 395.123 93.4216 395.123 97.6258C395.123 101.83 392.658 105.454 389.178 107.194L389.613 108.064C393.383 106.034 395.993 102.12 395.993 97.6258C395.848 93.1317 393.383 89.2174 389.613 87.1878Z" fill="#76C1AA"/>
<path opacity="0.3" d="M384.103 99.9454C385.384 99.9454 386.423 98.9069 386.423 97.6259C386.423 96.3448 385.384 95.3063 384.103 95.3063C382.822 95.3063 381.783 96.3448 381.783 97.6259C381.783 98.9069 382.822 99.9454 384.103 99.9454Z" fill="white"/>
<path opacity="0.3" d="M385.553 95.8861L388.163 93.2766C387.148 92.2618 385.843 91.6819 384.248 91.6819V95.4512C384.683 95.4512 385.118 95.5962 385.553 95.8861Z" fill="white"/>
<path opacity="0.3" d="M386.278 97.4808H390.048C390.048 96.0311 389.468 94.5814 388.453 93.5666L385.843 96.1761C386.133 96.611 386.278 97.0459 386.278 97.4808Z" fill="white"/>
<path opacity="0.3" d="M385.698 99.2205L388.308 101.83C389.323 100.815 389.903 99.5105 389.903 98.0607H386.133C386.278 98.4956 385.988 98.9306 385.698 99.2205Z" fill="white"/>
<path opacity="0.3" d="M382.798 99.5104L380.188 102.12C381.203 102.99 382.363 103.57 383.813 103.57V99.8004C383.378 99.8004 383.088 99.6554 382.798 99.5104Z" fill="white"/>
<path opacity="0.3" d="M384.248 99.9454V103.715C385.698 103.715 387.003 103.135 387.873 102.265L385.263 99.6554C384.973 99.8004 384.683 99.9454 384.248 99.9454Z" fill="white"/>
<path opacity="0.3" d="M382.218 96.466L379.608 93.8566C378.738 94.8714 378.158 96.1761 378.158 97.6259H381.928C381.783 97.1909 381.928 96.756 382.218 96.466Z" fill="white"/>
<path opacity="0.3" d="M381.928 98.0607H378.158C378.303 99.5105 378.883 100.67 379.753 101.685L382.363 99.0756C382.073 98.7856 381.928 98.4956 381.928 98.0607Z" fill="white"/>
<path opacity="0.3" d="M383.668 95.4512V91.6819C382.218 91.8269 380.913 92.4068 379.898 93.2766L382.508 95.8861C382.798 95.7411 383.233 95.4512 383.668 95.4512Z" fill="white"/>
<path d="M384.248 90.8121C383.813 90.8121 383.233 90.8121 382.798 90.9571C379.608 91.537 377.288 94.2915 377.288 97.6258C377.288 101.395 380.333 104.44 384.103 104.44C385.988 104.44 387.728 103.715 388.888 102.41C390.193 101.105 390.918 99.5105 390.918 97.6258C391.063 93.8566 388.018 90.8121 384.248 90.8121ZM386.278 97.4809C386.278 97.0459 386.133 96.611 385.843 96.1761L388.453 93.5666C389.323 94.5814 389.903 95.8862 390.048 97.4809H386.278ZM380.043 102.12L382.653 99.5105C382.943 99.6554 383.233 99.8004 383.668 99.9454V103.715C382.363 103.57 381.058 102.99 380.043 102.12ZM385.553 95.8862C385.263 95.5962 384.828 95.4513 384.248 95.4513V91.682C385.698 91.682 387.148 92.2619 388.163 93.2767L385.553 95.8862ZM381.783 97.4809H378.013C378.013 96.0311 378.593 94.7264 379.463 93.7116L382.073 96.3211C381.928 96.756 381.783 97.1909 381.783 97.4809ZM381.928 98.0607C382.073 98.4957 382.218 98.7856 382.363 99.0756L379.753 101.685C378.883 100.67 378.303 99.5105 378.158 98.0607H381.928ZM384.103 99.5105C383.088 99.5105 382.218 98.6407 382.218 97.6258C382.218 96.611 383.088 95.7412 384.103 95.7412C384.828 95.7412 385.408 96.1761 385.698 96.756V96.901C385.843 97.046 385.843 97.3359 385.843 97.6258C385.843 97.9158 385.843 98.0608 385.698 98.3507C385.553 99.0756 384.828 99.5105 384.103 99.5105ZM384.248 99.9454C384.683 99.9454 384.973 99.8004 385.263 99.6554L387.873 102.265C386.858 103.135 385.553 103.715 384.248 103.715V99.9454ZM383.668 91.682V95.4513C383.233 95.5962 382.798 95.7412 382.508 96.0311L379.898 93.4217C380.913 92.4069 382.218 91.8269 383.668 91.682ZM388.308 101.83L385.698 99.2205C385.988 98.9306 386.133 98.4957 386.278 98.0607H390.048C389.903 99.5105 389.323 100.815 388.308 101.83Z" fill="white"/>
</g>
<g>
<path d="M423.688 113.428C432.417 113.428 439.493 106.353 439.493 97.6258C439.493 88.8986 432.417 81.8239 423.688 81.8239C414.959 81.8239 407.883 88.8986 407.883 97.6258C407.883 106.353 414.959 113.428 423.688 113.428Z" fill="#3B5266"/>
<path d="M413.103 97.6258C413.103 93.4216 415.423 89.9423 418.903 88.0576L418.323 87.1878C414.553 89.2174 411.943 93.1317 411.943 97.6258C411.943 102.12 414.553 106.034 418.323 108.064L418.903 107.194C415.423 105.454 413.103 101.83 413.103 97.6258Z" fill="#76C1AA"/>
<path d="M429.198 87.1878L428.763 88.0576C432.243 89.7973 434.708 93.4216 434.708 97.6258C434.708 101.83 432.243 105.454 428.763 107.194L429.198 108.064C432.968 106.034 435.578 102.12 435.578 97.6258C435.578 93.1317 432.968 89.2174 429.198 87.1878Z" fill="#76C1AA"/>
<path opacity="0.3" d="M423.688 99.9454C424.969 99.9454 426.008 98.9069 426.008 97.6259C426.008 96.3448 424.969 95.3063 423.688 95.3063C422.407 95.3063 421.368 96.3448 421.368 97.6259C421.368 98.9069 422.407 99.9454 423.688 99.9454Z" fill="white"/>
<path opacity="0.3" d="M425.138 95.8861L427.748 93.2766C426.733 92.2618 425.428 91.6819 423.833 91.6819V95.4512C424.413 95.4512 424.848 95.5962 425.138 95.8861Z" fill="white"/>
<path opacity="0.3" d="M426.008 97.4808H429.778C429.778 96.0311 429.198 94.5814 428.183 93.5666L425.573 96.1761C425.718 96.611 426.008 97.0459 426.008 97.4808Z" fill="white"/>
<path opacity="0.3" d="M425.428 99.2205L428.038 101.83C429.053 100.815 429.633 99.5105 429.633 98.0607H425.863C425.863 98.4956 425.573 98.9306 425.428 99.2205Z" fill="white"/>
<path opacity="0.3" d="M422.383 99.5104L419.773 102.12C420.788 102.99 421.948 103.57 423.398 103.57V99.8004C422.963 99.8004 422.673 99.6554 422.383 99.5104Z" fill="white"/>
<path opacity="0.3" d="M423.833 99.9454V103.715C425.283 103.715 426.588 103.135 427.458 102.265L424.848 99.6554C424.558 99.8004 424.268 99.9454 423.833 99.9454Z" fill="white"/>
<path opacity="0.3" d="M421.803 96.466L419.193 93.8566C418.323 94.8714 417.743 96.1761 417.743 97.6259H421.513C421.513 97.1909 421.658 96.756 421.803 96.466Z" fill="white"/>
<path opacity="0.3" d="M421.513 98.0607H417.743C417.888 99.5105 418.468 100.67 419.338 101.685L421.948 99.0756C421.658 98.7856 421.513 98.4956 421.513 98.0607Z" fill="white"/>
<path opacity="0.3" d="M423.253 95.4512V91.6819C421.803 91.8269 420.498 92.4068 419.483 93.2766L422.093 95.8861C422.528 95.7411 422.818 95.4512 423.253 95.4512Z" fill="white"/>
<path d="M423.833 90.8121C423.398 90.8121 422.818 90.8121 422.383 90.9571C419.193 91.537 416.873 94.2915 416.873 97.6258C416.873 101.395 419.918 104.44 423.688 104.44C425.573 104.44 427.313 103.715 428.473 102.41C429.778 101.105 430.503 99.5105 430.503 97.6258C430.648 93.8566 427.603 90.8121 423.833 90.8121ZM426.008 97.4809C426.008 97.0459 425.863 96.611 425.573 96.1761L428.183 93.5666C429.053 94.5814 429.633 95.8862 429.778 97.4809H426.008ZM419.773 102.12L422.383 99.5105C422.673 99.6554 422.963 99.8004 423.398 99.9454V103.715C421.948 103.57 420.643 102.99 419.773 102.12ZM425.138 95.8862C424.848 95.5962 424.413 95.4513 423.833 95.4513V91.682C425.283 91.682 426.733 92.2619 427.748 93.2767L425.138 95.8862ZM421.513 97.4809H417.743C417.743 96.0311 418.323 94.7264 419.193 93.7116L421.803 96.3211C421.658 96.756 421.513 97.1909 421.513 97.4809ZM421.513 98.0607C421.658 98.4957 421.803 98.7856 421.948 99.0756L419.338 101.685C418.468 100.67 417.888 99.5105 417.743 98.0607H421.513ZM423.688 99.5105C422.673 99.5105 421.803 98.6407 421.803 97.6258C421.803 96.611 422.673 95.7412 423.688 95.7412C424.413 95.7412 424.993 96.1761 425.283 96.756V96.901C425.428 97.046 425.428 97.3359 425.428 97.6258C425.428 97.9158 425.428 98.0608 425.283 98.3507C425.138 99.0756 424.558 99.5105 423.688 99.5105ZM423.833 99.9454C424.268 99.9454 424.558 99.8004 424.848 99.6554L427.458 102.265C426.443 103.135 425.138 103.715 423.833 103.715V99.9454ZM423.253 91.682V95.4513C422.818 95.5962 422.383 95.7412 422.093 96.0311L419.483 93.4217C420.498 92.4069 421.803 91.8269 423.253 91.682ZM428.038 101.83L425.428 99.2205C425.718 98.9306 425.863 98.4957 426.008 98.0607H429.778C429.488 99.5105 428.908 100.815 428.038 101.83Z" fill="white"/>
</g>
<g>
<path d="M463.418 113.428C472.147 113.428 479.223 106.353 479.223 97.6258C479.223 88.8986 472.147 81.8239 463.418 81.8239C454.689 81.8239 447.613 88.8986 447.613 97.6258C447.613 106.353 454.689 113.428 463.418 113.428Z" fill="#3B5266"/>
<path d="M452.688 97.6258C452.688 93.4216 455.008 89.9423 458.488 88.0576L457.908 87.1878C454.138 89.2174 451.528 93.1317 451.528 97.6258C451.528 102.12 454.138 106.034 457.908 108.064L458.488 107.194C455.008 105.454 452.688 101.83 452.688 97.6258Z" fill="#76C1AA"/>
<path d="M468.783 87.1878L468.348 88.0576C471.828 89.7973 474.293 93.4216 474.293 97.6258C474.293 101.83 471.828 105.454 468.348 107.194L468.783 108.064C472.553 106.034 475.163 102.12 475.163 97.6258C475.163 93.1317 472.553 89.2174 468.783 87.1878Z" fill="#76C1AA"/>
<path opacity="0.3" d="M463.418 99.9454C464.699 99.9454 465.738 98.9069 465.738 97.6259C465.738 96.3448 464.699 95.3063 463.418 95.3063C462.137 95.3063 461.098 96.3448 461.098 97.6259C461.098 98.9069 462.137 99.9454 463.418 99.9454Z" fill="white"/>
<path opacity="0.3" d="M464.723 95.8861L467.333 93.2766C466.318 92.2618 465.013 91.6819 463.418 91.6819V95.4512C463.998 95.4512 464.433 95.5962 464.723 95.8861Z" fill="white"/>
<path opacity="0.3" d="M465.593 97.4808H469.363C469.363 96.0311 468.783 94.5814 467.768 93.5666L465.158 96.1761C465.448 96.611 465.593 97.0459 465.593 97.4808Z" fill="white"/>
<path opacity="0.3" d="M465.013 99.2205L467.623 101.83C468.638 100.815 469.218 99.5105 469.218 98.0607H465.448C465.448 98.4956 465.303 98.9306 465.013 99.2205Z" fill="white"/>
<path opacity="0.3" d="M461.968 99.5104L459.358 102.12C460.373 102.99 461.533 103.57 462.983 103.57V99.8004C462.548 99.8004 462.258 99.6554 461.968 99.5104Z" fill="white"/>
<path opacity="0.3" d="M463.563 99.9454V103.715C465.013 103.715 466.318 103.135 467.188 102.265L464.578 99.6554C464.288 99.8004 463.853 99.9454 463.563 99.9454Z" fill="white"/>
<path opacity="0.3" d="M461.388 96.466L458.778 93.8566C457.908 94.8714 457.328 96.1761 457.328 97.6259H461.098C461.098 97.1909 461.243 96.756 461.388 96.466Z" fill="white"/>
<path opacity="0.3" d="M461.098 98.0607H457.328C457.473 99.5105 458.053 100.67 458.923 101.685L461.533 99.0756C461.388 98.7856 461.098 98.4956 461.098 98.0607Z" fill="white"/>
<path opacity="0.3" d="M462.983 95.4512V91.6819C461.533 91.8269 460.228 92.4068 459.213 93.2766L461.823 95.8861C462.113 95.7411 462.548 95.4512 462.983 95.4512Z" fill="white"/>
<path d="M463.418 90.8121C462.983 90.8121 462.403 90.8121 461.968 90.9571C458.778 91.537 456.458 94.2915 456.458 97.6258C456.458 101.395 459.503 104.44 463.273 104.44C465.158 104.44 466.898 103.715 468.058 102.41C469.363 101.105 470.088 99.5105 470.088 97.6258C470.233 93.8566 467.188 90.8121 463.418 90.8121ZM465.593 97.4809C465.593 97.0459 465.448 96.611 465.158 96.1761L467.768 93.5666C468.638 94.5814 469.218 95.8862 469.363 97.4809H465.593ZM459.358 102.12L461.968 99.5105C462.258 99.6554 462.548 99.8004 462.983 99.9454V103.715C461.533 103.57 460.373 102.99 459.358 102.12ZM464.723 95.8862C464.433 95.5962 463.998 95.4513 463.418 95.4513V91.682C464.868 91.682 466.318 92.2619 467.333 93.2767L464.723 95.8862ZM461.098 97.4809H457.328C457.328 96.0311 457.908 94.7264 458.778 93.7116L461.388 96.3211C461.243 96.756 461.098 97.1909 461.098 97.4809ZM461.098 98.0607C461.243 98.4957 461.388 98.7856 461.533 99.0756L458.923 101.685C458.053 100.67 457.473 99.5105 457.328 98.0607H461.098ZM463.418 99.5105C462.403 99.5105 461.533 98.6407 461.533 97.6258C461.533 96.611 462.403 95.7412 463.418 95.7412C464.143 95.7412 464.723 96.1761 465.013 96.756V96.901C465.158 97.046 465.158 97.3359 465.158 97.6258C465.158 97.9158 465.158 98.0608 465.013 98.3507C464.723 99.0756 464.143 99.5105 463.418 99.5105ZM463.563 99.9454C463.998 99.9454 464.288 99.8004 464.578 99.6554L467.188 102.265C466.173 103.135 464.868 103.715 463.563 103.715V99.9454ZM462.983 91.682V95.4513C462.548 95.5962 462.113 95.7412 461.823 96.0311L459.213 93.4217C460.083 92.4069 461.533 91.8269 462.983 91.682ZM467.623 101.83L465.013 99.2205C465.303 98.9306 465.448 98.4957 465.593 98.0607H469.363C469.218 99.5105 468.493 100.815 467.623 101.83Z" fill="white"/>
</g>
<g>
<path d="M503.003 113.428C511.732 113.428 518.808 106.353 518.808 97.6258C518.808 88.8986 511.732 81.8239 503.003 81.8239C494.274 81.8239 487.198 88.8986 487.198 97.6258C487.198 106.353 494.274 113.428 503.003 113.428Z" fill="#3B5266"/>
<path d="M492.273 97.6258C492.273 93.4216 494.593 89.9423 498.073 88.0576L497.493 87.1878C493.723 89.2174 491.113 93.1317 491.113 97.6258C491.113 102.12 493.723 106.034 497.493 108.064L498.073 107.194C494.593 105.454 492.273 101.83 492.273 97.6258Z" fill="#76C1AA"/>
<path d="M508.368 87.1878L507.933 88.0576C511.413 89.7973 513.878 93.4216 513.878 97.6258C513.878 101.83 511.413 105.454 507.933 107.194L508.368 108.064C512.138 106.034 514.748 102.12 514.748 97.6258C514.748 93.1317 512.138 89.2174 508.368 87.1878Z" fill="#76C1AA"/>
<path opacity="0.3" d="M503.003 99.9454C504.284 99.9454 505.323 98.9069 505.323 97.6259C505.323 96.3448 504.284 95.3063 503.003 95.3063C501.722 95.3063 500.683 96.3448 500.683 97.6259C500.683 98.9069 501.722 99.9454 503.003 99.9454Z" fill="white"/>
<path opacity="0.3" d="M504.308 95.8861L506.918 93.2766C505.903 92.2618 504.598 91.6819 503.003 91.6819V95.4512C503.583 95.4512 504.018 95.5962 504.308 95.8861Z" fill="white"/>
<path opacity="0.3" d="M505.178 97.4808H508.948C508.948 96.0311 508.368 94.5814 507.353 93.5666L504.743 96.1761C505.033 96.611 505.178 97.0459 505.178 97.4808Z" fill="white"/>
<path opacity="0.3" d="M504.598 99.2205L507.208 101.83C508.223 100.815 508.803 99.5105 508.803 98.0607H505.033C505.033 98.4956 504.888 98.9306 504.598 99.2205Z" fill="white"/>
<path opacity="0.3" d="M501.553 99.5104L498.943 102.12C499.958 102.99 501.118 103.57 502.568 103.57V99.8004C502.133 99.8004 501.843 99.6554 501.553 99.5104Z" fill="white"/>
<path opacity="0.3" d="M503.148 99.9454V103.715C504.598 103.715 505.903 103.135 506.773 102.265L504.163 99.6554C503.873 99.8004 503.438 99.9454 503.148 99.9454Z" fill="white"/>
<path opacity="0.3" d="M500.973 96.466L498.363 93.8566C497.493 94.8714 496.913 96.1761 496.913 97.6259H500.683C500.683 97.1909 500.828 96.756 500.973 96.466Z" fill="white"/>
<path opacity="0.3" d="M500.683 98.0607H496.913C497.058 99.5105 497.638 100.67 498.508 101.685L501.118 99.0756C500.973 98.7856 500.828 98.4956 500.683 98.0607Z" fill="white"/>
<path opacity="0.3" d="M502.568 95.4512V91.6819C501.118 91.8269 499.813 92.4068 498.798 93.2766L501.408 95.8861C501.698 95.7411 502.133 95.4512 502.568 95.4512Z" fill="white"/>
<path d="M503.003 90.8121C502.568 90.8121 501.988 90.8121 501.553 90.9571C498.363 91.537 496.043 94.2915 496.043 97.6258C496.043 101.395 499.088 104.44 502.858 104.44C504.743 104.44 506.483 103.715 507.643 102.41C508.948 101.105 509.673 99.5105 509.673 97.6258C509.818 93.8566 506.773 90.8121 503.003 90.8121ZM505.178 97.4809C505.178 97.0459 505.033 96.611 504.743 96.1761L507.353 93.5666C508.223 94.5814 508.803 95.8862 508.948 97.4809H505.178ZM498.943 102.12L501.553 99.5105C501.843 99.6554 502.133 99.8004 502.568 99.9454V103.715C501.118 103.57 499.958 102.99 498.943 102.12ZM504.308 95.8862C504.018 95.5962 503.583 95.4513 503.003 95.4513V91.682C504.453 91.682 505.903 92.2619 506.918 93.2767L504.308 95.8862ZM500.683 97.4809H496.913C496.913 96.0311 497.493 94.7264 498.363 93.7116L500.973 96.3211C500.828 96.756 500.683 97.1909 500.683 97.4809ZM500.683 98.0607C500.828 98.4957 500.973 98.7856 501.118 99.0756L498.508 101.685C497.638 100.67 497.058 99.5105 496.913 98.0607H500.683ZM503.003 99.5105C501.988 99.5105 501.118 98.6407 501.118 97.6258C501.118 96.611 501.988 95.7412 503.003 95.7412C503.728 95.7412 504.308 96.1761 504.598 96.756V96.901C504.743 97.046 504.743 97.3359 504.743 97.6258C504.743 97.9158 504.743 98.0608 504.598 98.3507C504.453 99.0756 503.728 99.5105 503.003 99.5105ZM503.148 99.9454C503.583 99.9454 503.873 99.8004 504.163 99.6554L506.773 102.265C505.758 103.135 504.453 103.715 503.148 103.715V99.9454ZM502.568 91.682V95.4513C502.133 95.5962 501.698 95.7412 501.408 96.0311L498.798 93.4217C499.813 92.4069 501.118 91.8269 502.568 91.682ZM507.208 101.83L504.598 99.2205C504.888 98.9306 505.033 98.4957 505.178 98.0607H508.948C508.803 99.5105 508.223 100.815 507.208 101.83Z" fill="white"/>
</g>
<g>
<path d="M542.587 113.428C551.316 113.428 558.392 106.353 558.392 97.6258C558.392 88.8986 551.316 81.8239 542.587 81.8239C533.858 81.8239 526.782 88.8986 526.782 97.6258C526.782 106.353 533.858 113.428 542.587 113.428Z" fill="#3B5266"/>
<path d="M531.857 97.6258C531.857 93.4216 534.177 89.9423 537.657 88.0576L537.077 87.1878C533.307 89.2174 530.697 93.1317 530.697 97.6258C530.697 102.12 533.307 106.034 537.077 108.064L537.657 107.194C534.177 105.454 531.857 101.83 531.857 97.6258Z" fill="#76C1AA"/>
<path d="M548.097 87.1878L547.662 88.0576C551.142 89.7973 553.607 93.4216 553.607 97.6258C553.607 101.83 551.142 105.454 547.662 107.194L548.097 108.064C551.867 106.034 554.477 102.12 554.477 97.6258C554.332 93.1317 551.867 89.2174 548.097 87.1878Z" fill="#76C1AA"/>
<path opacity="0.3" d="M542.587 99.9454C543.868 99.9454 544.907 98.9069 544.907 97.6259C544.907 96.3448 543.868 95.3063 542.587 95.3063C541.306 95.3063 540.267 96.3448 540.267 97.6259C540.267 98.9069 541.306 99.9454 542.587 99.9454Z" fill="white"/>
<path opacity="0.3" d="M544.037 95.8861L546.647 93.2766C545.632 92.2618 544.327 91.6819 542.732 91.6819V95.4512C543.167 95.4512 543.602 95.5962 544.037 95.8861Z" fill="white"/>
<path opacity="0.3" d="M544.763 97.4808H548.533C548.533 96.0311 547.953 94.5814 546.938 93.5666L544.328 96.1761C544.618 96.611 544.763 97.0459 544.763 97.4808Z" fill="white"/>
<path opacity="0.3" d="M544.183 99.2205L546.793 101.83C547.808 100.815 548.388 99.5105 548.388 98.0607H544.618C544.763 98.4956 544.473 98.9306 544.183 99.2205Z" fill="white"/>
<path opacity="0.3" d="M541.137 99.5104L538.527 102.12C539.542 102.99 540.702 103.57 542.152 103.57V99.8004C541.862 99.8004 541.427 99.6554 541.137 99.5104Z" fill="white"/>
<path opacity="0.3" d="M542.732 99.9454V103.715C544.182 103.715 545.487 103.135 546.357 102.265L543.747 99.6554C543.457 99.8004 543.167 99.9454 542.732 99.9454Z" fill="white"/>
<path opacity="0.3" d="M540.703 96.466L538.093 93.8566C537.223 94.8714 536.643 96.1761 536.643 97.6259H540.413C540.268 97.1909 540.413 96.756 540.703 96.466Z" fill="white"/>
<path opacity="0.3" d="M540.267 98.0607H536.498C536.643 99.5105 537.223 100.67 538.093 101.685L540.702 99.0756C540.557 98.7856 540.412 98.4956 540.267 98.0607Z" fill="white"/>
<path opacity="0.3" d="M542.152 95.4512V91.6819C540.702 91.8269 539.397 92.4068 538.382 93.2766L540.992 95.8861C541.282 95.7411 541.717 95.4512 542.152 95.4512Z" fill="white"/>
<path d="M542.732 90.8121C542.297 90.8121 541.717 90.8121 541.282 90.9571C538.092 91.537 535.772 94.2915 535.772 97.6258C535.772 101.395 538.817 104.44 542.587 104.44C544.472 104.44 546.212 103.715 547.372 102.41C548.677 101.105 549.402 99.5105 549.402 97.6258C549.402 93.8566 546.357 90.8121 542.732 90.8121ZM544.762 97.4809C544.762 97.0459 544.617 96.611 544.327 96.1761L546.937 93.5666C547.807 94.5814 548.387 95.8862 548.532 97.4809H544.762ZM538.527 102.12L541.137 99.5105C541.427 99.6554 541.717 99.8004 542.152 99.9454V103.715C540.847 103.57 539.542 102.99 538.527 102.12ZM544.037 95.8862C543.747 95.5962 543.312 95.4513 542.732 95.4513V91.682C544.182 91.682 545.632 92.2619 546.647 93.2767L544.037 95.8862ZM540.267 97.4809H536.497C536.497 96.0311 537.077 94.7264 537.947 93.7116L540.557 96.3211C540.412 96.756 540.267 97.1909 540.267 97.4809ZM540.267 98.0607C540.412 98.4957 540.557 98.7856 540.702 99.0756L538.092 101.685C537.222 100.67 536.642 99.5105 536.497 98.0607H540.267ZM542.587 99.5105C541.572 99.5105 540.702 98.6407 540.702 97.6258C540.702 96.611 541.572 95.7412 542.587 95.7412C543.312 95.7412 543.892 96.1761 544.182 96.756V96.901C544.327 97.046 544.327 97.3359 544.327 97.6258C544.327 97.9158 544.327 98.0608 544.182 98.3507C544.037 99.0756 543.312 99.5105 542.587 99.5105ZM542.732 99.9454C543.167 99.9454 543.457 99.8004 543.747 99.6554L546.357 102.265C545.342 103.135 544.037 103.715 542.732 103.715V99.9454ZM542.152 91.682V95.4513C541.717 95.5962 541.282 95.7412 540.992 96.0311L538.382 93.4217C539.397 92.4069 540.702 91.8269 542.152 91.682ZM546.792 101.83L544.182 99.2205C544.472 98.9306 544.617 98.4957 544.762 98.0607H548.532C548.387 99.5105 547.807 100.815 546.792 101.83Z" fill="white"/>
</g>
<g>
<path d="M582.172 113.428C590.901 113.428 597.977 106.353 597.977 97.6258C597.977 88.8986 590.901 81.8239 582.172 81.8239C573.443 81.8239 566.367 88.8986 566.367 97.6258C566.367 106.353 573.443 113.428 582.172 113.428Z" fill="#3B5266"/>
<path d="M571.442 97.6258C571.442 93.4216 573.762 89.9423 577.242 88.0576L576.662 87.1878C572.892 89.2174 570.282 93.1317 570.282 97.6258C570.282 102.12 572.892 106.034 576.662 108.064L577.242 107.194C573.907 105.454 571.442 101.83 571.442 97.6258Z" fill="#76C1AA"/>
<path d="M587.682 87.1878L587.247 88.0576C590.727 89.7973 593.192 93.4216 593.192 97.6258C593.192 101.83 590.727 105.454 587.247 107.194L587.682 108.064C591.452 106.034 594.062 102.12 594.062 97.6258C594.062 93.1317 591.452 89.2174 587.682 87.1878Z" fill="#76C1AA"/>
<path opacity="0.3" d="M582.172 99.9454C583.453 99.9454 584.492 98.9069 584.492 97.6259C584.492 96.3448 583.453 95.3063 582.172 95.3063C580.891 95.3063 579.852 96.3448 579.852 97.6259C579.852 98.9069 580.891 99.9454 582.172 99.9454Z" fill="white"/>
<path opacity="0.3" d="M583.622 95.8861L586.232 93.2766C585.217 92.2618 583.912 91.6819 582.317 91.6819V95.4512C582.752 95.4512 583.187 95.5962 583.622 95.8861Z" fill="white"/>
<path opacity="0.3" d="M584.492 97.4808H588.262C588.262 96.0311 587.682 94.5814 586.667 93.5666L584.057 96.1761C584.202 96.611 584.347 97.0459 584.492 97.4808Z" fill="white"/>
<path opacity="0.3" d="M583.767 99.2205L586.377 101.83C587.392 100.815 587.972 99.5105 587.972 98.0607H584.347C584.347 98.4956 584.057 98.9306 583.767 99.2205Z" fill="white"/>
<path opacity="0.3" d="M580.867 99.5104L578.257 102.12C579.272 102.99 580.432 103.57 581.882 103.57V99.8004C581.447 99.8004 581.157 99.6554 580.867 99.5104Z" fill="white"/>
<path opacity="0.3" d="M582.317 99.9454V103.715C583.767 103.715 585.072 103.135 585.942 102.265L583.332 99.6554C583.042 99.8004 582.752 99.9454 582.317 99.9454Z" fill="white"/>
<path opacity="0.3" d="M580.287 96.466L577.677 93.8566C576.807 94.8714 576.227 96.1761 576.227 97.6259H579.997C579.997 97.1909 579.997 96.756 580.287 96.466Z" fill="white"/>
<path opacity="0.3" d="M579.997 98.0607H576.227C576.372 99.5105 576.952 100.67 577.822 101.685L580.432 99.0756C580.142 98.7856 579.997 98.4956 579.997 98.0607Z" fill="white"/>
<path opacity="0.3" d="M581.737 95.4512V91.6819C580.287 91.8269 578.982 92.4068 577.967 93.2766L580.577 95.8861C580.867 95.7411 581.302 95.4512 581.737 95.4512Z" fill="white"/>
<path d="M582.317 90.8121C581.882 90.8121 581.302 90.8121 580.867 90.9571C577.677 91.537 575.357 94.2915 575.357 97.6258C575.357 101.395 578.402 104.44 582.172 104.44C584.057 104.44 585.797 103.715 586.957 102.41C588.262 101.105 588.987 99.5105 588.987 97.6258C589.132 93.8566 586.087 90.8121 582.317 90.8121ZM584.492 97.4809C584.492 97.0459 584.347 96.611 584.057 96.1761L586.667 93.5666C587.537 94.5814 588.117 95.8862 588.262 97.4809H584.492ZM578.112 102.12L580.722 99.5105C581.012 99.6554 581.302 99.8004 581.737 99.9454V103.715C580.432 103.57 579.127 102.99 578.112 102.12ZM583.622 95.8862C583.332 95.5962 582.897 95.4513 582.317 95.4513V91.682C583.767 91.682 585.217 92.2619 586.232 93.2767L583.622 95.8862ZM579.852 97.4809H576.082C576.082 96.0311 576.662 94.7264 577.532 93.7116L580.142 96.3211C579.997 96.756 579.997 97.1909 579.852 97.4809ZM579.997 98.0607C580.142 98.4957 580.287 98.7856 580.432 99.0756L577.822 101.685C576.952 100.67 576.372 99.5105 576.227 98.0607H579.997ZM582.172 99.5105C581.157 99.5105 580.287 98.6407 580.287 97.6258C580.287 96.611 581.157 95.7412 582.172 95.7412C582.897 95.7412 583.477 96.1761 583.767 96.756V96.901C583.912 97.046 583.912 97.3359 583.912 97.6258C583.912 97.9158 583.912 98.0608 583.767 98.3507C583.622 99.0756 583.042 99.5105 582.172 99.5105ZM582.317 99.9454C582.752 99.9454 583.042 99.8004 583.332 99.6554L585.942 102.265C584.927 103.135 583.622 103.715 582.317 103.715V99.9454ZM581.737 91.682V95.4513C581.302 95.5962 580.867 95.7412 580.577 96.0311L577.967 93.4217C578.982 92.4069 580.287 91.8269 581.737 91.682ZM586.522 101.83L583.912 99.2205C584.202 98.9306 584.347 98.4957 584.492 98.0607H588.262C587.972 99.5105 587.392 100.815 586.522 101.83Z" fill="white"/>
</g>
<g>
<path d="M621.757 113.428C630.486 113.428 637.562 106.353 637.562 97.6258C637.562 88.8986 630.486 81.8239 621.757 81.8239C613.028 81.8239 605.952 88.8986 605.952 97.6258C605.952 106.353 613.028 113.428 621.757 113.428Z" fill="#3B5266"/>
<path d="M611.172 97.6258C611.172 93.4216 613.492 89.9423 616.972 88.0576L616.392 87.1878C612.622 89.2174 610.012 93.1317 610.012 97.6258C610.012 102.12 612.622 106.034 616.392 108.064L616.972 107.194C613.492 105.454 611.172 101.83 611.172 97.6258Z" fill="#76C1AA"/>
<path d="M627.267 87.1878L626.832 88.0576C630.312 89.7973 632.777 93.4216 632.777 97.6258C632.777 101.83 630.312 105.454 626.832 107.194L627.267 108.064C631.037 106.034 633.647 102.12 633.647 97.6258C633.647 93.1317 631.037 89.2174 627.267 87.1878Z" fill="#76C1AA"/>
<path opacity="0.3" d="M621.757 99.9454C623.038 99.9454 624.077 98.9069 624.077 97.6259C624.077 96.3448 623.038 95.3063 621.757 95.3063C620.476 95.3063 619.437 96.3448 619.437 97.6259C619.437 98.9069 620.476 99.9454 621.757 99.9454Z" fill="white"/>
<path opacity="0.3" d="M623.207 95.8861L625.817 93.2766C624.802 92.2618 623.497 91.6819 621.902 91.6819V95.4512C622.482 95.4512 622.917 95.5962 623.207 95.8861Z" fill="white"/>
<path opacity="0.3" d="M624.077 97.4808H627.847C627.847 96.0311 627.267 94.5814 626.252 93.5666L623.642 96.1761C623.932 96.611 624.077 97.0459 624.077 97.4808Z" fill="white"/>
<path opacity="0.3" d="M623.497 99.2205L626.107 101.83C627.122 100.815 627.702 99.5105 627.702 98.0607H623.932C623.932 98.4956 623.787 98.9306 623.497 99.2205Z" fill="white"/>
<path opacity="0.3" d="M620.452 99.5104L617.842 102.12C618.857 102.99 620.017 103.57 621.467 103.57V99.8004C621.032 99.8004 620.742 99.6554 620.452 99.5104Z" fill="white"/>
<path opacity="0.3" d="M621.902 99.9454V103.715C623.352 103.715 624.657 103.135 625.527 102.265L622.917 99.6554C622.772 99.8004 622.337 99.9454 621.902 99.9454Z" fill="white"/>
<path opacity="0.3" d="M619.872 96.466L617.262 93.8566C616.392 94.8714 615.812 96.1761 615.812 97.6259H619.582C619.582 97.1909 619.727 96.756 619.872 96.466Z" fill="white"/>
<path opacity="0.3" d="M619.582 98.0607H615.812C615.957 99.5105 616.537 100.67 617.407 101.685L620.017 99.0756C619.872 98.7856 619.582 98.4956 619.582 98.0607Z" fill="white"/>
<path opacity="0.3" d="M621.467 95.4512V91.6819C620.017 91.8269 618.712 92.4068 617.697 93.2766L620.307 95.8861C620.597 95.7411 620.887 95.4512 621.467 95.4512Z" fill="white"/>
<path d="M621.902 90.8121C621.467 90.8121 620.887 90.8121 620.452 90.9571C617.262 91.537 614.942 94.2915 614.942 97.6258C614.942 101.395 617.987 104.44 621.757 104.44C623.642 104.44 625.382 103.715 626.542 102.41C627.847 101.105 628.572 99.5105 628.572 97.6258C628.717 93.8566 625.672 90.8121 621.902 90.8121ZM624.077 97.4809C624.077 97.0459 623.932 96.611 623.642 96.1761L626.252 93.5666C627.122 94.5814 627.702 95.8862 627.847 97.4809H624.077ZM617.842 102.12L620.452 99.5105C620.742 99.6554 621.032 99.8004 621.467 99.9454V103.715C620.017 103.57 618.712 102.99 617.842 102.12ZM623.207 95.8862C622.917 95.5962 622.482 95.4513 621.902 95.4513V91.682C623.352 91.682 624.802 92.2619 625.817 93.2767L623.207 95.8862ZM619.582 97.4809H615.812C615.812 96.0311 616.392 94.7264 617.262 93.7116L619.872 96.3211C619.727 96.756 619.582 97.1909 619.582 97.4809ZM619.582 98.0607C619.727 98.4957 619.872 98.7856 620.017 99.0756L617.407 101.685C616.537 100.67 615.957 99.5105 615.812 98.0607H619.582ZM621.757 99.5105C620.742 99.5105 619.872 98.6407 619.872 97.6258C619.872 96.611 620.742 95.7412 621.757 95.7412C622.482 95.7412 623.062 96.1761 623.352 96.756V96.901C623.497 97.046 623.497 97.3359 623.497 97.6258C623.497 97.9158 623.497 98.0608 623.352 98.3507C623.207 99.0756 622.627 99.5105 621.757 99.5105ZM621.902 99.9454C622.337 99.9454 622.627 99.8004 622.917 99.6554L625.527 102.265C624.512 103.135 623.207 103.715 621.902 103.715V99.9454ZM621.467 91.682V95.4513C621.032 95.5962 620.597 95.7412 620.307 96.0311L617.697 93.4217C618.567 92.4069 619.872 91.8269 621.467 91.682ZM626.107 101.83L623.497 99.2205C623.787 98.9306 623.932 98.4957 624.077 98.0607H627.847C627.557 99.5105 626.977 100.815 626.107 101.83Z" fill="white"/>
</g>
<g>
<path d="M661.488 113.428C670.216 113.428 677.292 106.353 677.292 97.6258C677.292 88.8986 670.216 81.8239 661.488 81.8239C652.759 81.8239 645.683 88.8986 645.683 97.6258C645.683 106.353 652.759 113.428 661.488 113.428Z" fill="#3B5266"/>
<path d="M650.758 97.6258C650.758 93.4216 653.078 89.9423 656.558 88.0576L655.978 87.1878C652.208 89.2174 649.598 93.1317 649.598 97.6258C649.598 102.12 652.208 106.034 655.978 108.064L656.558 107.194C653.078 105.454 650.758 101.83 650.758 97.6258Z" fill="#76C1AA"/>
<path d="M666.853 87.1878L666.417 88.0576C669.897 89.7973 672.363 93.4216 672.363 97.6258C672.363 101.83 669.897 105.454 666.417 107.194L666.853 108.064C670.623 106.034 673.232 102.12 673.232 97.6258C673.232 93.1317 670.623 89.2174 666.853 87.1878Z" fill="#76C1AA"/>
<path opacity="0.3" d="M661.487 99.9454C662.769 99.9454 663.807 98.9069 663.807 97.6259C663.807 96.3448 662.769 95.3063 661.487 95.3063C660.206 95.3063 659.167 96.3448 659.167 97.6259C659.167 98.9069 660.206 99.9454 661.487 99.9454Z" fill="white"/>
<path opacity="0.3" d="M662.792 95.8861L665.402 93.2766C664.387 92.2618 663.082 91.6819 661.487 91.6819V95.4512C662.067 95.4512 662.502 95.5962 662.792 95.8861Z" fill="white"/>
<path opacity="0.3" d="M663.663 97.4808H667.432C667.432 96.0311 666.852 94.5814 665.837 93.5666L663.228 96.1761C663.518 96.611 663.663 97.0459 663.663 97.4808Z" fill="white"/>
<path opacity="0.3" d="M663.083 99.2205L665.692 101.83C666.707 100.815 667.287 99.5105 667.287 98.0607H663.517C663.517 98.4956 663.373 98.9306 663.083 99.2205Z" fill="white"/>
<path opacity="0.3" d="M660.038 99.5104L657.428 102.12C658.443 102.99 659.603 103.57 661.053 103.57V99.8004C660.618 99.8004 660.328 99.6554 660.038 99.5104Z" fill="white"/>
<path opacity="0.3" d="M661.632 99.9454V103.715C663.082 103.715 664.387 103.135 665.257 102.265L662.647 99.6554C662.357 99.8004 661.922 99.9454 661.632 99.9454Z" fill="white"/>
<path opacity="0.3" d="M659.457 96.466L656.847 93.8566C655.977 94.8714 655.397 96.1761 655.397 97.6259H659.167C659.167 97.1909 659.312 96.756 659.457 96.466Z" fill="white"/>
<path opacity="0.3" d="M659.167 98.0607H655.397C655.542 99.5105 656.122 100.67 656.992 101.685L659.603 99.0756C659.458 98.7856 659.312 98.4956 659.167 98.0607Z" fill="white"/>
<path opacity="0.3" d="M661.052 95.4512V91.6819C659.602 91.8269 658.297 92.4068 657.282 93.2766L659.892 95.8861C660.182 95.7411 660.617 95.4512 661.052 95.4512Z" fill="white"/>
<path d="M661.488 90.8121C661.053 90.8121 660.473 90.8121 660.038 90.9571C656.848 91.537 654.528 94.2915 654.528 97.6258C654.528 101.395 657.573 104.44 661.343 104.44C663.228 104.44 664.968 103.715 666.128 102.41C667.433 101.105 668.158 99.5105 668.158 97.6258C668.303 93.8566 665.258 90.8121 661.488 90.8121ZM663.663 97.4809C663.663 97.0459 663.518 96.611 663.228 96.1761L665.838 93.5666C666.708 94.5814 667.288 95.8862 667.433 97.4809H663.663ZM657.428 102.12L660.038 99.5105C660.328 99.6554 660.618 99.8004 661.053 99.9454V103.715C659.603 103.57 658.443 102.99 657.428 102.12ZM662.793 95.8862C662.503 95.5962 662.068 95.4513 661.488 95.4513V91.682C662.938 91.682 664.388 92.2619 665.403 93.2767L662.793 95.8862ZM659.168 97.4809H655.398C655.398 96.0311 655.978 94.7264 656.848 93.7116L659.458 96.3211C659.313 96.756 659.168 97.1909 659.168 97.4809ZM659.168 98.0607C659.313 98.4957 659.458 98.7856 659.603 99.0756L656.993 101.685C656.123 100.67 655.543 99.5105 655.398 98.0607H659.168ZM661.488 99.5105C660.473 99.5105 659.603 98.6407 659.603 97.6258C659.603 96.611 660.473 95.7412 661.488 95.7412C662.213 95.7412 662.793 96.1761 663.083 96.756V96.901C663.228 97.046 663.228 97.3359 663.228 97.6258C663.228 97.9158 663.228 98.0608 663.083 98.3507C662.793 99.0756 662.213 99.5105 661.488 99.5105ZM661.633 99.9454C662.068 99.9454 662.358 99.8004 662.648 99.6554L665.258 102.265C664.243 103.135 662.938 103.715 661.633 103.715V99.9454ZM661.053 91.682V95.4513C660.618 95.5962 660.183 95.7412 659.893 96.0311L657.283 93.4217C658.153 92.4069 659.603 91.8269 661.053 91.682ZM665.693 101.83L663.083 99.2205C663.373 98.9306 663.518 98.4957 663.663 98.0607H667.433C667.288 99.5105 666.708 100.815 665.693 101.83Z" fill="white"/>
</g>
<g>
<path d="M701.072 113.428C709.8 113.428 716.876 106.353 716.876 97.6258C716.876 88.8986 709.8 81.8239 701.072 81.8239C692.343 81.8239 685.267 88.8986 685.267 97.6258C685.267 106.353 692.343 113.428 701.072 113.428Z" fill="#3B5266"/>
<path d="M690.342 97.6258C690.342 93.4216 692.662 89.9423 696.142 88.0576L695.562 87.1878C691.792 89.2174 689.182 93.1317 689.182 97.6258C689.182 102.12 691.792 106.034 695.562 108.064L696.142 107.194C692.662 105.454 690.342 101.83 690.342 97.6258Z" fill="#76C1AA"/>
<path d="M706.436 87.1878L706.001 88.0576C709.481 89.7973 711.946 93.4216 711.946 97.6258C711.946 101.83 709.481 105.454 706.001 107.194L706.436 108.064C710.206 106.034 712.816 102.12 712.816 97.6258C712.816 93.1317 710.206 89.2174 706.436 87.1878Z" fill="#76C1AA"/>
<path opacity="0.3" d="M701.072 99.9454C702.353 99.9454 703.392 98.9069 703.392 97.6259C703.392 96.3448 702.353 95.3063 701.072 95.3063C699.791 95.3063 698.752 96.3448 698.752 97.6259C698.752 98.9069 699.791 99.9454 701.072 99.9454Z" fill="white"/>
<path opacity="0.3" d="M702.376 95.8861L704.986 93.2766C703.971 92.2618 702.666 91.6819 701.071 91.6819V95.4512C701.651 95.4512 702.086 95.5962 702.376 95.8861Z" fill="white"/>
<path opacity="0.3" d="M703.246 97.4808H707.016C707.016 96.0311 706.436 94.5814 705.421 93.5666L702.812 96.1761C703.102 96.611 703.246 97.0459 703.246 97.4808Z" fill="white"/>
<path opacity="0.3" d="M702.667 99.2205L705.277 101.83C706.292 100.815 706.872 99.5105 706.872 98.0607H703.247C703.102 98.4956 702.957 98.9306 702.667 99.2205Z" fill="white"/>
<path opacity="0.3" d="M699.622 99.5104L697.012 102.12C698.027 102.99 699.187 103.57 700.637 103.57V99.8004C700.202 99.8004 699.912 99.6554 699.622 99.5104Z" fill="white"/>
<path opacity="0.3" d="M701.216 99.9454V103.715C702.666 103.715 703.971 103.135 704.841 102.265L702.231 99.6554C701.941 99.8004 701.506 99.9454 701.216 99.9454Z" fill="white"/>
<path opacity="0.3" d="M699.042 96.466L696.431 93.8566C695.561 94.8714 694.981 96.1761 694.981 97.6259H698.752C698.752 97.1909 698.897 96.756 699.042 96.466Z" fill="white"/>
<path opacity="0.3" d="M698.752 98.0607H694.981C695.126 99.5105 695.707 100.67 696.577 101.685L699.187 99.0756C699.042 98.7856 698.897 98.4956 698.752 98.0607Z" fill="white"/>
<path opacity="0.3" d="M700.637 95.4512V91.6819C699.187 91.8269 697.882 92.4068 696.867 93.2766L699.477 95.8861C699.767 95.7411 700.202 95.4512 700.637 95.4512Z" fill="white"/>
<path d="M701.071 90.8121C700.636 90.8121 700.056 90.8121 699.621 90.9571C696.431 91.537 694.111 94.2915 694.111 97.6258C694.111 101.395 697.156 104.44 700.926 104.44C702.811 104.44 704.551 103.715 705.711 102.41C707.016 101.105 707.741 99.5105 707.741 97.6258C707.886 93.8566 704.841 90.8121 701.071 90.8121ZM703.246 97.4809C703.246 97.0459 703.101 96.611 702.811 96.1761L705.421 93.5666C706.291 94.5814 706.871 95.8862 707.016 97.4809H703.246ZM697.011 102.12L699.621 99.5105C699.911 99.6554 700.201 99.8004 700.636 99.9454V103.715C699.186 103.57 698.026 102.99 697.011 102.12ZM702.376 95.8862C702.086 95.5962 701.651 95.4513 701.071 95.4513V91.682C702.521 91.682 703.971 92.2619 704.986 93.2767L702.376 95.8862ZM698.751 97.4809H694.981C694.981 96.0311 695.561 94.7264 696.431 93.7116L699.041 96.3211C698.896 96.756 698.751 97.1909 698.751 97.4809ZM698.751 98.0607C698.896 98.4957 699.041 98.7856 699.186 99.0756L696.576 101.685C695.706 100.67 695.126 99.5105 694.981 98.0607H698.751ZM701.071 99.5105C700.056 99.5105 699.186 98.6407 699.186 97.6258C699.186 96.611 700.056 95.7412 701.071 95.7412C701.796 95.7412 702.376 96.1761 702.666 96.756V96.901C702.811 97.046 702.811 97.3359 702.811 97.6258C702.811 97.9158 702.811 98.0608 702.666 98.3507C702.521 99.0756 701.796 99.5105 701.071 99.5105ZM701.216 99.9454C701.651 99.9454 701.941 99.8004 702.231 99.6554L704.841 102.265C703.826 103.135 702.521 103.715 701.216 103.715V99.9454ZM700.636 91.682V95.4513C700.201 95.5962 699.766 95.7412 699.476 96.0311L696.866 93.4217C697.881 92.4069 699.186 91.8269 700.636 91.682ZM705.276 101.83L702.666 99.2205C702.956 98.9306 703.101 98.4957 703.246 98.0607H707.016C706.871 99.5105 706.291 100.815 705.276 101.83Z" fill="white"/>
</g>
<g>
<path d="M740.656 113.428C749.385 113.428 756.461 106.353 756.461 97.6258C756.461 88.8986 749.385 81.8239 740.656 81.8239C731.928 81.8239 724.852 88.8986 724.852 97.6258C724.852 106.353 731.928 113.428 740.656 113.428Z" fill="#3B5266"/>
<path d="M729.926 97.6258C729.926 93.4216 732.246 89.9423 735.726 88.0576L735.146 87.1878C731.376 89.2174 728.766 93.1317 728.766 97.6258C728.766 102.12 731.376 106.034 735.146 108.064L735.726 107.194C732.246 105.454 729.926 101.83 729.926 97.6258Z" fill="#76C1AA"/>
<path d="M746.166 87.1878L745.731 88.0576C749.211 89.7973 751.676 93.4216 751.676 97.6258C751.676 101.83 749.211 105.454 745.731 107.194L746.166 108.064C749.936 106.034 752.546 102.12 752.546 97.6258C752.401 93.1317 749.936 89.2174 746.166 87.1878Z" fill="#76C1AA"/>
<path opacity="0.3" d="M740.656 99.9454C741.938 99.9454 742.976 98.9069 742.976 97.6259C742.976 96.3448 741.938 95.3063 740.656 95.3063C739.375 95.3063 738.336 96.3448 738.336 97.6259C738.336 98.9069 739.375 99.9454 740.656 99.9454Z" fill="white"/>
<path opacity="0.3" d="M742.106 95.8861L744.716 93.2766C743.701 92.2618 742.396 91.6819 740.801 91.6819V95.4512C741.236 95.4512 741.671 95.5962 742.106 95.8861Z" fill="white"/>
<path opacity="0.3" d="M742.831 97.4808H746.602C746.602 96.0311 746.021 94.5814 745.006 93.5666L742.396 96.1761C742.686 96.611 742.831 97.0459 742.831 97.4808Z" fill="white"/>
<path opacity="0.3" d="M742.251 99.2205L744.861 101.83C745.876 100.815 746.456 99.5105 746.456 98.0607H742.686C742.831 98.4956 742.541 98.9306 742.251 99.2205Z" fill="white"/>
<path opacity="0.3" d="M739.206 99.5104L736.596 102.12C737.611 102.99 738.771 103.57 740.221 103.57V99.8004C739.931 99.8004 739.496 99.6554 739.206 99.5104Z" fill="white"/>
<path opacity="0.3" d="M740.801 99.9454V103.715C742.251 103.715 743.556 103.135 744.426 102.265L741.816 99.6554C741.526 99.8004 741.236 99.9454 740.801 99.9454Z" fill="white"/>
<path opacity="0.3" d="M738.771 96.466L736.161 93.8566C735.291 94.8714 734.711 96.1761 734.711 97.6259H738.481C738.336 97.1909 738.481 96.756 738.771 96.466Z" fill="white"/>
<path opacity="0.3" d="M738.336 98.0607H734.566C734.711 99.5105 735.291 100.67 736.161 101.685L738.771 99.0756C738.626 98.7856 738.481 98.4956 738.336 98.0607Z" fill="white"/>
<path opacity="0.3" d="M740.221 95.4512V91.6819C738.771 91.8269 737.466 92.4068 736.451 93.2766L739.061 95.8861C739.351 95.7411 739.786 95.4512 740.221 95.4512Z" fill="white"/>
<path d="M740.801 90.8121C740.366 90.8121 739.786 90.8121 739.351 90.9571C736.161 91.537 733.841 94.2915 733.841 97.6258C733.841 101.395 736.886 104.44 740.656 104.44C742.541 104.44 744.281 103.715 745.441 102.41C746.746 101.105 747.471 99.5105 747.471 97.6258C747.471 93.8566 744.571 90.8121 740.801 90.8121ZM742.831 97.4809C742.831 97.0459 742.686 96.611 742.396 96.1761L745.006 93.5666C745.876 94.5814 746.456 95.8862 746.601 97.4809H742.831ZM736.596 102.12L739.206 99.5105C739.496 99.6554 739.786 99.8004 740.221 99.9454V103.715C738.916 103.57 737.611 102.99 736.596 102.12ZM742.106 95.8862C741.816 95.5962 741.381 95.4513 740.801 95.4513V91.682C742.251 91.682 743.701 92.2619 744.716 93.2767L742.106 95.8862ZM738.336 97.4809H734.566C734.566 96.0311 735.146 94.7264 736.016 93.7116L738.626 96.3211C738.481 96.756 738.336 97.1909 738.336 97.4809ZM738.336 98.0607C738.481 98.4957 738.626 98.7856 738.771 99.0756L736.161 101.685C735.291 100.67 734.711 99.5105 734.566 98.0607H738.336ZM740.656 99.5105C739.641 99.5105 738.771 98.6407 738.771 97.6258C738.771 96.611 739.641 95.7412 740.656 95.7412C741.381 95.7412 741.961 96.1761 742.251 96.756V96.901C742.396 97.046 742.396 97.3359 742.396 97.6258C742.396 97.9158 742.396 98.0608 742.251 98.3507C742.106 99.0756 741.381 99.5105 740.656 99.5105ZM740.801 99.9454C741.236 99.9454 741.526 99.8004 741.816 99.6554L744.426 102.265C743.411 103.135 742.106 103.715 740.801 103.715V99.9454ZM740.221 91.682V95.4513C739.786 95.5962 739.351 95.7412 739.061 96.0311L736.451 93.4217C737.466 92.4069 738.771 91.8269 740.221 91.682ZM744.861 101.83L742.251 99.2205C742.541 98.9306 742.686 98.4957 742.831 98.0607H746.601C746.456 99.5105 745.876 100.815 744.861 101.83Z" fill="white"/>
</g>
<g>
<path d="M780.241 113.428C788.97 113.428 796.046 106.353 796.046 97.6258C796.046 88.8986 788.97 81.8239 780.241 81.8239C771.513 81.8239 764.437 88.8986 764.437 97.6258C764.437 106.353 771.513 113.428 780.241 113.428Z" fill="#3B5266"/>
<path d="M769.512 97.6258C769.512 93.4216 771.832 89.9423 775.312 88.0576L774.731 87.1878C770.962 89.2174 768.352 93.1317 768.352 97.6258C768.352 102.12 770.962 106.034 774.731 108.064L775.312 107.194C771.977 105.454 769.512 101.83 769.512 97.6258Z" fill="#76C1AA"/>
<path d="M785.751 87.1878L785.316 88.0576C788.796 89.7973 791.261 93.4216 791.261 97.6258C791.261 101.83 788.796 105.454 785.316 107.194L785.751 108.064C789.521 106.034 792.131 102.12 792.131 97.6258C792.131 93.1317 789.521 89.2174 785.751 87.1878Z" fill="#76C1AA"/>
<path opacity="0.3" d="M780.241 99.9454C781.523 99.9454 782.561 98.9069 782.561 97.6259C782.561 96.3448 781.523 95.3063 780.241 95.3063C778.96 95.3063 777.921 96.3448 777.921 97.6259C777.921 98.9069 778.96 99.9454 780.241 99.9454Z" fill="white"/>
<path opacity="0.3" d="M781.692 95.8861L784.302 93.2766C783.287 92.2618 781.982 91.6819 780.387 91.6819V95.4512C780.822 95.4512 781.257 95.5962 781.692 95.8861Z" fill="white"/>
<path opacity="0.3" d="M782.562 97.4808H786.332C786.332 96.0311 785.752 94.5814 784.737 93.5666L782.127 96.1761C782.272 96.611 782.417 97.0459 782.562 97.4808Z" fill="white"/>
<path opacity="0.3" d="M781.837 99.2205L784.447 101.83C785.462 100.815 786.042 99.5105 786.042 98.0607H782.272C782.417 98.4956 782.127 98.9306 781.837 99.2205Z" fill="white"/>
<path opacity="0.3" d="M778.937 99.5104L776.327 102.12C777.342 102.99 778.502 103.57 779.952 103.57V99.8004C779.517 99.8004 779.227 99.6554 778.937 99.5104Z" fill="white"/>
<path opacity="0.3" d="M780.387 99.9454V103.715C781.837 103.715 783.142 103.135 784.012 102.265L781.402 99.6554C781.112 99.8004 780.822 99.9454 780.387 99.9454Z" fill="white"/>
<path opacity="0.3" d="M778.357 96.466L775.747 93.8566C774.877 94.8714 774.297 96.1761 774.297 97.6259H778.067C778.067 97.1909 778.067 96.756 778.357 96.466Z" fill="white"/>
<path opacity="0.3" d="M778.067 98.0607H774.297C774.442 99.5105 775.022 100.67 775.892 101.685L778.502 99.0756C778.212 98.7856 778.067 98.4956 778.067 98.0607Z" fill="white"/>
<path opacity="0.3" d="M779.807 95.4512V91.6819C778.357 91.8269 777.052 92.4068 776.037 93.2766L778.647 95.8861C779.082 95.7411 779.372 95.4512 779.807 95.4512Z" fill="white"/>
<path d="M780.387 90.8121C779.952 90.8121 779.372 90.8121 778.937 90.9571C775.747 91.537 773.427 94.2915 773.427 97.6258C773.427 101.395 776.472 104.44 780.242 104.44C782.127 104.44 783.867 103.715 785.027 102.41C786.332 101.105 787.057 99.5105 787.057 97.6258C787.202 93.8566 784.157 90.8121 780.387 90.8121ZM782.562 97.4809C782.562 97.0459 782.417 96.611 782.127 96.1761L784.737 93.5666C785.607 94.5814 786.187 95.8862 786.332 97.4809H782.562ZM776.327 102.12L778.937 99.5105C779.227 99.6554 779.517 99.8004 779.952 99.9454V103.715C778.502 103.57 777.197 102.99 776.327 102.12ZM781.692 95.8862C781.402 95.5962 780.967 95.4513 780.387 95.4513V91.682C781.837 91.682 783.287 92.2619 784.302 93.2767L781.692 95.8862ZM777.922 97.4809H774.297C774.297 96.0311 774.877 94.7264 775.747 93.7116L778.357 96.3211C778.067 96.756 778.067 97.1909 777.922 97.4809ZM778.067 98.0607C778.212 98.4957 778.357 98.7856 778.502 99.0756L775.892 101.685C775.022 100.67 774.442 99.5105 774.297 98.0607H778.067ZM780.242 99.5105C779.227 99.5105 778.357 98.6407 778.357 97.6258C778.357 96.611 779.227 95.7412 780.242 95.7412C780.967 95.7412 781.547 96.1761 781.837 96.756V96.901C781.982 97.046 781.982 97.3359 781.982 97.6258C781.982 97.9158 781.982 98.0608 781.837 98.3507C781.692 99.0756 781.112 99.5105 780.242 99.5105ZM780.387 99.9454C780.822 99.9454 781.112 99.8004 781.402 99.6554L784.012 102.265C782.997 103.135 781.692 103.715 780.387 103.715V99.9454ZM779.807 91.682V95.4513C779.372 95.5962 778.937 95.7412 778.647 96.0311L776.037 93.4217C777.052 92.4069 778.357 91.8269 779.807 91.682ZM784.592 101.83L781.982 99.2205C782.272 98.9306 782.417 98.4957 782.562 98.0607H786.332C786.042 99.5105 785.462 100.815 784.592 101.83Z" fill="white"/>
</g>
<g>
<path d="M819.972 113.428C828.701 113.428 835.777 106.353 835.777 97.6258C835.777 88.8986 828.701 81.8239 819.972 81.8239C811.243 81.8239 804.167 88.8986 804.167 97.6258C804.167 106.353 811.243 113.428 819.972 113.428Z" fill="#3B5266"/>
<path d="M809.242 97.6258C809.242 93.4216 811.562 89.9423 815.042 88.0576L814.462 87.1878C810.692 89.2174 808.082 93.1317 808.082 97.6258C808.082 102.12 810.692 106.034 814.462 108.064L815.042 107.194C811.562 105.454 809.242 101.83 809.242 97.6258Z" fill="#76C1AA"/>
<path d="M825.337 87.1878L824.902 88.0576C828.382 89.7973 830.847 93.4216 830.847 97.6258C830.847 101.83 828.382 105.454 824.902 107.194L825.337 108.064C829.107 106.034 831.717 102.12 831.717 97.6258C831.717 93.1317 829.107 89.2174 825.337 87.1878Z" fill="#76C1AA"/>
<path opacity="0.3" d="M819.972 99.9454C821.253 99.9454 822.292 98.9069 822.292 97.6259C822.292 96.3448 821.253 95.3063 819.972 95.3063C818.691 95.3063 817.652 96.3448 817.652 97.6259C817.652 98.9069 818.691 99.9454 819.972 99.9454Z" fill="white"/>
<path opacity="0.3" d="M821.277 95.8861L823.887 93.2766C822.872 92.2618 821.567 91.6819 819.972 91.6819V95.4512C820.552 95.4512 820.987 95.5962 821.277 95.8861Z" fill="white"/>
<path opacity="0.3" d="M822.147 97.4808H825.917C825.917 96.0311 825.337 94.5814 824.322 93.5666L821.712 96.1761C822.002 96.611 822.147 97.0459 822.147 97.4808Z" fill="white"/>
<path opacity="0.3" d="M821.567 99.2205L824.177 101.83C825.192 100.815 825.772 99.5105 825.772 98.0607H822.147C822.002 98.4956 821.857 98.9306 821.567 99.2205Z" fill="white"/>
<path opacity="0.3" d="M818.522 99.5104L815.912 102.12C816.927 102.99 818.087 103.57 819.537 103.57V99.8004C819.102 99.8004 818.812 99.6554 818.522 99.5104Z" fill="white"/>
<path opacity="0.3" d="M819.972 99.9454V103.715C821.422 103.715 822.727 103.135 823.597 102.265L820.987 99.6554C820.842 99.8004 820.407 99.9454 819.972 99.9454Z" fill="white"/>
<path opacity="0.3" d="M817.942 96.466L815.332 93.8566C814.462 94.8714 813.882 96.1761 813.882 97.6259H817.652C817.652 97.1909 817.797 96.756 817.942 96.466Z" fill="white"/>
<path opacity="0.3" d="M817.652 98.0607H813.882C814.027 99.5105 814.607 100.67 815.477 101.685L818.087 99.0756C817.942 98.7856 817.652 98.4956 817.652 98.0607Z" fill="white"/>
<path opacity="0.3" d="M819.537 95.4512V91.6819C818.087 91.8269 816.782 92.4068 815.767 93.2766L818.377 95.8861C818.667 95.7411 819.102 95.4512 819.537 95.4512Z" fill="white"/>
<path d="M819.972 90.8121C819.537 90.8121 818.957 90.8121 818.522 90.9571C815.332 91.537 813.012 94.2915 813.012 97.6258C813.012 101.395 816.057 104.44 819.827 104.44C821.712 104.44 823.452 103.715 824.612 102.41C825.917 101.105 826.642 99.5105 826.642 97.6258C826.787 93.8566 823.742 90.8121 819.972 90.8121ZM822.147 97.4809C822.147 97.0459 822.002 96.611 821.712 96.1761L824.322 93.5666C825.192 94.5814 825.772 95.8862 825.917 97.4809H822.147ZM815.912 102.12L818.522 99.5105C818.812 99.6554 819.102 99.8004 819.537 99.9454V103.715C818.087 103.57 816.782 102.99 815.912 102.12ZM821.277 95.8862C820.987 95.5962 820.552 95.4513 819.972 95.4513V91.682C821.422 91.682 822.872 92.2619 823.887 93.2767L821.277 95.8862ZM817.652 97.4809H813.882C813.882 96.0311 814.462 94.7264 815.332 93.7116L817.942 96.3211C817.797 96.756 817.652 97.1909 817.652 97.4809ZM817.652 98.0607C817.797 98.4957 817.942 98.7856 818.087 99.0756L815.477 101.685C814.607 100.67 814.027 99.5105 813.882 98.0607H817.652ZM819.972 99.5105C818.957 99.5105 818.087 98.6407 818.087 97.6258C818.087 96.611 818.957 95.7412 819.972 95.7412C820.697 95.7412 821.277 96.1761 821.567 96.756V96.901C821.712 97.046 821.712 97.3359 821.712 97.6258C821.712 97.9158 821.712 98.0608 821.567 98.3507C821.277 99.0756 820.697 99.5105 819.972 99.5105ZM819.972 99.9454C820.407 99.9454 820.697 99.8004 820.987 99.6554L823.597 102.265C822.582 103.135 821.277 103.715 819.972 103.715V99.9454ZM819.537 91.682V95.4513C819.102 95.5962 818.667 95.7412 818.377 96.0311L815.767 93.4217C816.637 92.4069 817.942 91.8269 819.537 91.682ZM824.177 101.83L821.567 99.2205C821.857 98.9306 822.002 98.4957 822.147 98.0607H825.917C825.772 99.5105 825.047 100.815 824.177 101.83Z" fill="white"/>
</g>
<path d="M83.385 85.3032C83.385 85.3032 83.53 85.3032 83.385 85.3032C83.53 85.3032 83.53 85.3032 83.385 85.3032C83.53 85.3032 84.545 85.1582 85.27 84.5784C85.995 83.7085 86.2849 82.2588 85.7049 81.5339C85.4149 81.244 84.98 81.099 84.545 81.099C84.11 81.244 83.82 81.389 83.675 81.8239C83.675 81.9689 83.675 81.9688 83.675 82.1138C83.82 82.1138 83.82 82.1138 83.965 82.1138C84.11 81.9688 84.255 81.9688 84.4 81.9688C84.545 81.9688 84.545 82.1138 84.6899 82.2588C84.6899 82.4038 84.69 82.5487 84.545 82.6937L84.4 82.8387C84.11 82.8387 83.675 82.5487 83.24 82.1138C82.805 81.6789 82.225 81.389 81.79 81.099C81.065 80.8091 78.89 80.3741 77.44 81.389C77.44 81.389 76.57 82.1138 76.425 82.6937C76.135 83.2736 76.135 83.9985 76.28 84.4334C76.135 84.5783 75.99 84.7233 75.99 85.0132C75.99 85.4482 76.425 85.7381 77.15 85.8831C77.15 86.0281 77.005 86.0281 77.005 86.1731C77.005 86.608 77.585 87.0428 78.31 87.0428C78.89 87.0428 79.325 86.8979 79.47 86.6079C79.615 86.8979 80.05 87.0428 80.63 87.0428C81.355 87.0428 81.935 86.608 81.935 86.1731C81.935 86.0281 81.935 85.8831 81.79 85.8831C82.225 85.8831 82.515 85.7381 82.805 85.4482C82.805 85.4482 82.805 85.4482 82.95 85.4482C82.805 85.4482 83.095 85.3032 83.385 85.3032ZM84.4 84.5784C84.255 84.7233 83.965 84.7233 83.82 84.7233C83.965 83.8535 83.385 82.9837 83.24 82.5488C83.53 82.8387 83.82 82.9837 84.11 83.1286C84.255 83.4186 84.545 83.9985 84.4 84.5784ZM82.805 85.0132C82.805 84.8683 82.66 84.5783 82.515 84.2884C82.225 83.7085 81.645 82.8387 80.195 82.4038C78.31 81.8239 77.44 82.1138 77.005 82.4038C77.005 82.4038 77.005 82.4038 77.15 82.2588C77.295 82.1138 77.44 81.9689 77.585 81.8239C78.165 81.534 79.18 81.5339 80.63 81.9688C82.515 82.5487 83.095 83.8535 83.24 84.4334C83.24 84.5783 83.385 84.8683 83.385 85.0132C83.385 85.0132 83.385 85.0132 83.24 85.0132C82.95 85.0132 82.95 85.0132 82.805 85.0132ZM80.05 83.2736C79.76 83.2736 79.615 83.4186 79.47 83.5635C79.18 83.2736 78.89 83.1286 78.31 83.1286C78.165 83.1286 78.02 83.1286 77.875 83.1286C78.31 82.9837 78.89 82.9837 79.47 82.9837C79.615 83.1286 79.76 83.1286 80.05 83.2736ZM78.31 83.5635C78.745 83.5635 79.18 83.8535 79.18 83.9985C79.18 84.1434 79.035 84.2884 78.89 84.2884H78.745C78.6 84.2884 78.455 84.2884 78.31 84.2884C77.875 84.2884 77.44 83.9985 77.44 83.8535C77.44 83.7085 77.73 83.5635 78.31 83.5635ZM78.89 84.7233H79.035C79.18 84.7233 79.18 84.7233 79.325 84.7233C79.905 84.7233 80.195 85.0133 80.195 85.1582C80.195 85.3032 79.76 85.5931 79.325 85.5931C78.745 85.5931 78.455 85.3032 78.455 85.1582C78.455 85.0133 78.6 84.8683 78.89 84.7233ZM79.615 83.9985C79.615 83.8535 80.05 83.5635 80.485 83.5635C80.63 83.5635 80.63 83.5635 80.775 83.5635C81.065 83.5635 81.355 83.8535 81.355 83.9985C81.355 84.1434 81.21 84.2884 80.92 84.4334C80.775 84.4334 80.63 84.4334 80.485 84.4334C79.905 84.4334 79.615 84.1434 79.615 83.9985ZM76.86 84.2884C76.86 84.1434 76.86 84.1434 76.86 83.9985C76.86 83.8535 77.005 83.7085 77.15 83.5635C77.005 83.7085 77.005 83.8535 77.005 83.9985C77.005 84.1434 77.005 84.2884 77.15 84.2884C77.005 84.2884 77.005 84.2884 76.86 84.2884ZM76.28 85.1582C76.28 85.0133 76.425 85.0132 76.57 84.8683C76.715 84.8683 76.86 84.7233 77.005 84.7233C77.15 84.7233 77.15 84.7233 77.295 84.7233C77.875 84.7233 78.165 85.0133 78.165 85.1582C78.165 85.3032 78.02 85.3032 78.02 85.4482C77.875 85.5932 77.585 85.5931 77.295 85.5931C76.57 85.5931 76.28 85.3032 76.28 85.1582ZM78.165 86.7529C77.585 86.7529 77.295 86.6079 77.295 86.318C77.295 86.173 77.73 85.8831 78.165 85.8831C78.455 85.8831 78.6 85.8831 78.89 86.0281C78.89 86.0281 79.035 86.173 79.035 86.318C79.035 86.6079 78.6 86.7529 78.165 86.7529ZM80.485 86.7529C79.905 86.7529 79.615 86.463 79.615 86.318C79.615 86.318 79.615 86.1731 79.76 86.1731C79.905 86.0281 80.195 85.8831 80.485 85.8831C80.63 85.8831 80.775 85.8831 80.92 85.8831C81.21 86.0281 81.355 86.173 81.355 86.318C81.355 86.6079 80.92 86.7529 80.485 86.7529ZM82.37 85.3032C82.225 85.4482 81.935 85.5931 81.5 85.5931C81.355 85.5931 81.21 85.5931 81.065 85.5931C80.775 85.4482 80.63 85.3032 80.63 85.1582C80.63 85.0133 80.775 84.8683 81.065 84.7233C81.21 84.7233 81.355 84.7233 81.5 84.7233C81.645 84.7233 81.645 84.7233 81.79 84.7233C82.08 84.8683 82.37 85.0133 82.37 85.3032C82.37 85.1582 82.37 85.3032 82.37 85.3032Z" fill="white"/>
<path d="M93.8249 80.6641V70.0812C93.8249 69.9362 93.8249 69.7912 93.6799 69.7912C93.5349 69.7912 93.3899 69.7912 93.3899 69.7912L92.2299 70.3711V66.6019C92.2299 66.4569 92.2299 66.3119 92.0849 66.3119C91.9399 66.3119 91.7949 66.3119 91.7949 66.3119L86.5749 69.6462H86.4299C85.5599 69.9362 84.6899 70.0812 83.9649 70.0812C81.4999 70.0812 80.6299 68.4865 80.6299 68.4865C80.6299 68.3415 80.4849 68.3415 80.3399 68.3415C80.1949 68.3415 80.0499 68.4865 80.0499 68.4865C80.0499 68.4865 79.1799 70.0812 76.715 70.0812C75.99 70.0812 75.12 69.9362 74.25 69.6462L69.03 66.3119C68.885 66.3119 68.74 66.3119 68.595 66.3119C68.45 66.3119 68.45 66.4569 68.45 66.6019V70.3711L67.435 69.7912C67.29 69.7912 67.145 69.7912 67.145 69.7912C67 69.7912 67 69.9362 67 70.0812V80.6641C67 80.809 67 83.4186 69.175 85.4482C71.06 87.3328 73.96 88.3476 77.875 88.3476C77.875 88.3476 77.875 88.3476 78.02 88.3476C79.47 88.7825 80.3399 89.0725 80.3399 90.3772C80.3399 90.5222 80.4849 90.6671 80.6299 90.6671C80.7749 90.6671 80.92 90.5222 80.92 90.3772C80.92 89.2174 81.7899 88.7825 83.2399 88.3476H83.3849C87.2999 88.3476 90.1999 87.3328 92.0849 85.4482C93.8249 83.2736 93.8249 80.809 93.8249 80.6641ZM75.265 77.4747C75.7 77.3298 75.845 76.4599 75.845 76.4599C75.845 76.4599 76.57 76.8948 77.005 76.7499C77.005 76.8948 77.005 77.3297 77.005 77.3297C77.005 77.3297 76.86 77.6197 77.005 77.9096C77.15 78.0546 77.15 78.3445 77.15 78.6345C76.86 78.6345 76.715 78.6345 76.425 78.6345C75.99 78.6345 75.555 78.6345 75.265 78.6345C75.265 78.0546 75.265 77.9096 75.265 77.4747ZM83.3849 76.8948H84.2549C84.2549 77.3297 84.2549 77.7646 84.3999 78.4895L83.3849 78.3445C83.3849 77.7646 83.3849 77.3297 83.3849 76.8948ZM90.4899 78.3445C89.9099 78.9244 89.0399 79.2144 88.0249 79.2144C87.7349 78.4895 87.5899 77.7647 87.5899 77.1848L91.5049 75.0102C91.5049 75.3001 91.5049 77.1847 90.4899 78.3445ZM69.03 75.0102L72.945 77.1848C72.945 77.7647 72.8 78.4895 72.51 79.2144C71.495 79.2144 70.77 78.9244 70.19 78.3445C69.03 77.1847 69.03 75.3001 69.03 75.0102ZM93.0999 70.661V77.1848L91.3599 78.1996C92.2299 76.7499 92.2299 75.1552 92.2299 74.8652V71.0959L93.0999 70.661ZM91.5049 70.806L88.6049 72.5457C88.4599 72.4007 88.0249 71.8208 87.0099 70.2261L91.5049 67.3267V70.806ZM83.8199 70.806C84.5449 70.806 85.4149 70.661 86.2849 70.3711C87.2999 71.8208 87.7349 72.5457 88.0249 72.8356C87.5899 73.5605 86.2849 76.025 87.2999 79.0694C86.8649 78.6345 85.8499 78.4895 84.8349 78.4895C84.6899 77.7646 84.6899 77.3297 84.6899 76.8948H86.2849C86.4299 76.8948 86.4299 76.6049 86.4299 76.3149V74.8652C86.4299 73.7054 85.8499 73.7055 85.8499 73.7055C85.8499 73.7055 85.4149 73.7055 85.2699 73.1256C85.1249 72.5457 84.6899 72.1108 84.2549 72.1108C83.8199 72.1108 82.9499 72.4007 82.3699 72.8356C81.9349 72.9806 81.9349 73.2705 81.9349 73.7055C81.7899 74.7203 81.4999 74.5753 81.4999 74.5753C81.3549 74.5753 81.2099 74.7202 81.2099 75.0102V76.4599C81.2099 76.7499 81.3549 77.0398 81.4999 77.0398H83.0949C83.0949 77.4747 83.0949 77.9096 82.9499 78.6345C81.9349 78.6345 81.0649 78.9244 80.4849 79.3593V69.6462C80.9199 70.0811 82.0799 70.806 83.8199 70.806ZM79.76 69.6462V78.9244C79.325 78.6345 78.5999 78.4895 77.7299 78.4895C77.5849 78.0546 77.5849 76.8948 77.7299 76.6049C78.4549 76.4599 78.4549 75.7351 78.4549 75.1552C78.4549 74.7203 78.31 73.1256 78.31 73.1256L78.745 72.9806C78.89 72.9806 78.8899 72.9806 78.8899 72.8356C78.8899 72.6906 78.8899 72.5457 78.8899 72.5457L78.4549 72.4007C78.3099 72.2557 78.165 72.1108 78.02 72.1108C77.875 72.1108 77.585 72.1108 77.44 72.4007C77.295 72.2557 77.005 72.4007 76.86 72.4007C76.86 72.4007 76.86 73.1256 77.585 72.9806L77.7299 74.8652C77.7299 74.8652 77.73 75.3001 77.295 75.1552C76.86 75.0102 75.99 74.7202 75.41 74.8652C75.12 75.0102 74.685 75.1552 74.395 75.88C74.105 76.6049 74.54 76.3149 74.54 76.3149L74.975 76.025C74.975 76.025 75.265 76.6049 74.975 77.0398C74.685 77.3297 74.83 77.6197 74.83 77.6197C74.83 77.6197 74.975 78.3445 74.975 78.6345C74.25 78.6345 73.67 78.9244 73.235 79.0694C74.105 76.025 72.945 73.5605 72.51 72.8356C72.8 72.5457 73.235 71.8208 74.25 70.3711C75.12 70.661 75.99 70.806 76.715 70.806C78.165 70.806 79.035 70.2261 79.76 69.6462ZM69.03 67.3267L73.525 70.2261C72.655 71.6759 72.075 72.2557 71.93 72.5457L69.03 70.951V67.3267ZM68.305 71.0959V74.8652C68.305 75.0102 68.305 76.7499 69.175 78.1996L67.435 77.1848V70.661L68.305 71.0959ZM67.58 81.6789L71.93 84.1434C72.365 85.3032 73.09 86.028 74.25 87.0428C74.54 87.3328 74.975 87.4778 75.265 87.6227C72.655 87.3328 70.625 86.4629 69.32 85.0132C68.16 83.8535 67.725 82.5487 67.58 81.6789ZM80.195 89.0725C79.615 88.2026 78.5999 87.9127 77.44 87.6227C76.425 87.3328 75.41 87.0428 74.54 86.318C72.365 84.7233 71.64 83.2736 72.8 79.9392H87.5899C88.7499 83.2736 88.0249 84.5783 85.8499 86.318C84.9799 86.8979 83.9649 87.3328 82.9499 87.4778C81.7899 87.9127 80.775 88.3476 80.195 89.0725ZM91.2149 85.0132C89.7649 86.4629 87.7349 87.3328 85.1249 87.6227C85.5599 87.4778 85.8499 87.1878 86.1399 87.0428C87.2999 86.173 88.1699 85.3032 88.4599 84.2884C88.4599 84.2884 88.4599 84.2884 88.6049 84.2884L92.9549 81.8239C92.8099 82.5487 92.3749 83.8535 91.2149 85.0132Z" fill="white"/>
<path d="M80.1948 68.0515C82.2248 68.0515 83.6748 67.0367 83.6748 65.732C83.6748 64.4272 82.0798 63.4124 80.1948 63.4124C78.1649 63.4124 76.7148 64.4272 76.7148 65.732C76.7148 67.0367 78.1649 67.9065 80.1948 68.0515ZM80.1948 64.2823C81.2098 64.2823 81.9348 64.7172 81.9348 65.1521C81.9348 65.587 81.4998 65.8769 80.9198 66.0219C80.3398 66.1669 80.4848 66.4568 80.1948 66.6018C79.9048 66.4568 80.0498 66.1669 79.4698 66.0219C78.8898 65.8769 78.4548 65.587 78.4548 65.1521C78.4548 64.7172 79.1798 64.2823 80.1948 64.2823Z" fill="white"/>
</svg>
