<svg class="tracto-cigueña transport-item is-hidden" width="884" height="193" viewBox="0 0 884 193" fill="none" xmlns="http://www.w3.org/2000/svg">
<path d="M182.946 150.721L180.426 153.243H153.882V148.536H144.138V67.0093H138.594V56.083H131.034V138.114H126.33V73.7332H74.2493V82.4741H79.2894L64.5053 121.641H6.88093V161.143H0.160889V172.07H6.54493V174.927H166.482V170.725H300.547V150.889H182.946V150.721ZM102.137 121.304H81.6414L90.0414 83.4826H102.137V121.304Z" fill="#57C14C"/>
<path d="M201.426 123.658V141.812H301.723L329.107 161.479H881.326V145.678H341.203L309.619 123.658H201.426Z" fill="#8499A7" stroke="#455C75" stroke-width="0.75" stroke-miterlimit="10"/>
<path d="M145.432 56.2416L201.49 138.241L208.84 133.211L152.782 51.2114L145.432 56.2416Z" fill="#8499A7" stroke="#455C75" stroke-width="0.75" stroke-miterlimit="10"/>
<path d="M205.646 58.0586L405.476 80.655L406.476 71.802L206.646 49.2056L205.646 58.0586Z" fill="#8499A7" stroke="#455C75" stroke-width="0.75" stroke-miterlimit="10"/>
<path d="M406.143 80.9104L531.687 89.4226L532.289 80.5342L406.745 72.022L406.143 80.9104Z" fill="#8499A7" stroke="#455C75" stroke-width="0.75" stroke-miterlimit="10"/>
<path d="M528.207 89.6187L696.413 126.508L698.319 117.806L530.114 80.9163L528.207 89.6187Z" fill="#8499A7" stroke="#455C75" stroke-width="0.7547" stroke-miterlimit="10"/>
<path d="M694.497 126.28L865.338 147.869L866.454 139.03L695.613 117.441L694.497 126.28Z" fill="#8499A7" stroke="#455C75" stroke-width="0.7547" stroke-miterlimit="10"/>
<path d="M850.698 58.4684L872.642 148.795L881.294 146.691L859.35 56.364L850.698 58.4684Z" fill="#8499A7" stroke="#455C75" stroke-width="0.75" stroke-miterlimit="10"/>
<path d="M305.923 56.083H297.523V126.684H305.923V56.083Z" fill="#8499A7" stroke="#455C75" stroke-width="0.75" stroke-miterlimit="10"/>
<path d="M296.026 51.9207L196.131 132.287L201.395 138.837L301.289 58.4706L296.026 51.9207Z" fill="#8499A7" stroke="#455C75" stroke-width="0.75" stroke-miterlimit="10"/>
<path d="M392.443 49.8633L292.987 129.709L298.867 136.769L400.003 57.2596L392.443 49.8633Z" fill="#8499A7" stroke="#455C75" stroke-width="0.75" stroke-miterlimit="10"/>
<path d="M867.382 42.9712H144.978V57.2595H867.382V42.9712Z" fill="#8499A7" stroke="#455C75" stroke-width="0.75" stroke-miterlimit="10"/>
<path d="M867.382 0.61084H144.978V14.8989H867.382V0.61084Z" fill="#8499A7" stroke="#455C75" stroke-width="0.75" stroke-miterlimit="10"/>
<path d="M690.309 7.83887H683.925V48.0142H690.309V7.83887Z" fill="#8499A7" stroke="#455C75" stroke-width="0.75" stroke-miterlimit="10"/>
<path d="M782.71 7.83887H776.326V48.0142H782.71V7.83887Z" fill="#8499A7" stroke="#455C75" stroke-width="0.75" stroke-miterlimit="10"/>
<path d="M867.886 7.83887H861.502V48.0142H867.886V7.83887Z" fill="#8499A7" stroke="#455C75" stroke-width="0.75" stroke-miterlimit="10"/>
<path d="M603.284 7.83887H596.9V48.0142H603.284V7.83887Z" fill="#8499A7" stroke="#455C75" stroke-width="0.75" stroke-miterlimit="10"/>
<path d="M533.732 7.83887H527.348V48.0142H533.732V7.83887Z" fill="#8499A7" stroke="#455C75" stroke-width="0.75" stroke-miterlimit="10"/>
<path d="M455.947 7.83887H449.563V48.0142H455.947V7.83887Z" fill="#8499A7" stroke="#455C75" stroke-width="0.75" stroke-miterlimit="10"/>
<path d="M375.979 7.83887H369.595V48.0142H375.979V7.83887Z" fill="#8499A7" stroke="#455C75" stroke-width="0.75" stroke-miterlimit="10"/>
<path d="M297.523 7.83887H291.139V48.0142H297.523V7.83887Z" fill="#8499A7" stroke="#455C75" stroke-width="0.75" stroke-miterlimit="10"/>
<path d="M220.746 7.83887H214.362V48.0142H220.746V7.83887Z" fill="#8499A7" stroke="#455C75" stroke-width="0.75" stroke-miterlimit="10"/>
<path d="M151.362 7.83887H144.978V48.0142H151.362V7.83887Z" fill="#8499A7" stroke="#455C75" stroke-width="0.75" stroke-miterlimit="10"/>
<path d="M499.628 54.4019H491.228V147.696H499.628V54.4019Z" fill="#8499A7" stroke="#455C75" stroke-width="0.75" stroke-miterlimit="10"/>
<path d="M402.859 54.4019H394.459V147.696H402.859V54.4019Z" fill="#8499A7" stroke="#455C75" stroke-width="0.75" stroke-miterlimit="10"/>
<path d="M490.061 51.6358L395.869 144.953L401.779 150.926L495.971 57.6083L490.061 51.6358Z" fill="#8499A7" stroke="#455C75" stroke-width="0.75" stroke-miterlimit="10"/>
<path d="M586.658 51.6268L492.466 144.944L498.377 150.917L592.569 57.5993L586.658 51.6268Z" fill="#8499A7" stroke="#455C75" stroke-width="0.75" stroke-miterlimit="10"/>
<path d="M594.045 54.4019H585.645V147.696H594.045V54.4019Z" fill="#8499A7" stroke="#455C75" stroke-width="0.75" stroke-miterlimit="10"/>
<path d="M683.461 51.7064L589.269 145.024L595.179 150.996L689.371 57.6789L683.461 51.7064Z" fill="#8499A7" stroke="#455C75" stroke-width="0.75" stroke-miterlimit="10"/>
<path d="M690.981 54.4019H682.581V147.696H690.981V54.4019Z" fill="#8499A7" stroke="#455C75" stroke-width="0.75" stroke-miterlimit="10"/>
<path d="M778.702 51.668L684.51 144.985L690.421 150.958L784.612 57.6405L778.702 51.668Z" fill="#8499A7" stroke="#455C75" stroke-width="0.75" stroke-miterlimit="10"/>
<path d="M786.07 54.4019H777.669V147.696H786.07V54.4019Z" fill="#8499A7" stroke="#455C75" stroke-width="0.75" stroke-miterlimit="10"/>
<path d="M860.998 51.7122L777.669 143.157L783.549 149.208L866.878 57.5956L860.998 51.7122Z" fill="#8499A7" stroke="#455C75" stroke-width="0.75" stroke-miterlimit="10"/>
<path d="M861.67 54.4019H853.27V147.696H861.67V54.4019Z" fill="#8499A7" stroke="#455C75" stroke-width="0.75" stroke-miterlimit="10"/>
<path d="M210.33 56.083H201.426V126.684H210.33V56.083Z" fill="#8499A7" stroke="#455C75" stroke-width="0.75" stroke-miterlimit="10"/>
<g class="is-hidden-eje">
<path d="M37.7931 192.578C47.9066 192.578 56.1052 184.374 56.1052 174.255C56.1052 164.136 47.9066 155.932 37.7931 155.932C27.6796 155.932 19.481 164.136 19.481 174.255C19.481 184.374 27.6796 192.578 37.7931 192.578Z" fill="#3B5266"/>
<path d="M25.3611 174.255C25.3611 169.38 28.0491 165.346 32.0811 163.16L31.4091 162.152C27.0411 164.505 24.0171 169.044 24.0171 174.255C24.0171 179.466 27.0411 184.005 31.4091 186.358L32.0811 185.349C28.0491 183.164 25.3611 178.962 25.3611 174.255Z" fill="#76C1AA"/>
<path d="M44.0094 162.152L43.5054 163.16C47.5374 165.178 50.3934 169.38 50.3934 174.255C50.3934 179.13 47.5374 183.332 43.5054 185.349L44.0094 186.358C48.3774 184.005 51.4014 179.466 51.4014 174.255C51.4014 168.876 48.3774 164.337 44.0094 162.152Z" fill="#76C1AA"/>
<path opacity="0.3" d="M37.7932 176.945C39.2778 176.945 40.4812 175.74 40.4812 174.255C40.4812 172.77 39.2778 171.566 37.7932 171.566C36.3087 171.566 35.1052 172.77 35.1052 174.255C35.1052 175.74 36.3087 176.945 37.7932 176.945Z" fill="white"/>
<path opacity="0.3" d="M39.473 172.238L42.497 169.212C41.321 168.035 39.809 167.363 37.9609 167.363V171.733C38.4649 171.733 38.9689 171.901 39.473 172.238Z" fill="white"/>
<path opacity="0.3" d="M40.3131 174.087H44.6811C44.6811 172.406 44.0091 170.725 42.8331 169.548L39.8091 172.574C40.1451 173.078 40.3131 173.582 40.3131 174.087Z" fill="white"/>
<path opacity="0.3" d="M39.6411 175.936L42.6651 178.962C43.8411 177.785 44.5131 176.272 44.5131 174.591H40.1451C40.1451 175.263 39.9771 175.6 39.6411 175.936Z" fill="white"/>
<path opacity="0.3" d="M36.1129 176.272L33.0889 179.298C34.2649 180.306 35.6089 180.979 37.2889 180.979V176.608C36.9529 176.776 36.4489 176.608 36.1129 176.272Z" fill="white"/>
<path opacity="0.3" d="M37.9609 176.776V181.146C39.641 181.146 41.153 180.474 42.161 179.466L39.1369 176.44C38.8009 176.608 38.4649 176.776 37.9609 176.776Z" fill="white"/>
<path opacity="0.3" d="M35.6091 172.742L32.585 169.717C31.577 170.893 30.905 172.406 30.905 174.087H35.2731C35.1051 173.582 35.2731 173.246 35.6091 172.742Z" fill="white"/>
<path opacity="0.3" d="M35.1051 174.759H30.7371C30.9051 176.44 31.5771 177.785 32.5851 178.961L35.6091 175.936C35.4411 175.599 35.2731 175.263 35.1051 174.759Z" fill="white"/>
<path opacity="0.3" d="M37.2892 171.565V167.195C35.6092 167.363 34.0972 168.035 32.9211 169.044L35.9452 172.07C36.2812 171.901 36.7852 171.733 37.2892 171.565Z" fill="white"/>
<path d="M37.961 166.354C37.457 166.354 36.785 166.354 36.281 166.523C32.585 167.195 29.897 170.389 29.897 174.255C29.897 178.625 33.425 182.155 37.793 182.155C39.977 182.155 41.993 181.315 43.337 179.802C44.849 178.289 45.6891 176.44 45.6891 174.255C45.6891 169.884 42.161 166.354 37.961 166.354ZM40.313 174.087C40.313 173.582 40.145 173.078 39.809 172.574L42.833 169.548C43.8411 170.725 44.5131 172.238 44.6811 174.087H40.313ZM33.089 179.466L36.113 176.44C36.449 176.608 36.785 176.776 37.289 176.944V181.315C35.609 180.979 34.265 180.474 33.089 179.466ZM39.473 172.238C39.137 171.902 38.633 171.733 37.961 171.733V167.363C39.641 167.363 41.321 168.035 42.497 169.212L39.473 172.238ZM35.105 174.087H30.737C30.737 172.406 31.409 170.893 32.417 169.716L35.441 172.742C35.273 173.246 35.105 173.582 35.105 174.087ZM35.105 174.759C35.273 175.263 35.441 175.6 35.609 175.936L32.585 178.961C31.577 177.785 30.905 176.44 30.737 174.759H35.105ZM37.793 176.44C36.617 176.44 35.609 175.431 35.609 174.255C35.609 173.078 36.617 172.07 37.793 172.07C38.633 172.07 39.305 172.574 39.641 173.246V173.414C39.809 173.582 39.809 173.919 39.809 174.255C39.809 174.591 39.809 174.759 39.641 175.095C39.473 175.768 38.633 176.44 37.793 176.44ZM37.961 176.776C38.465 176.776 38.801 176.608 39.137 176.44L42.161 179.466C40.985 180.474 39.473 181.147 37.961 181.147V176.776ZM37.289 167.363V171.733C36.785 171.901 36.281 172.07 35.945 172.406L32.921 169.38C34.097 168.203 35.609 167.363 37.289 167.363ZM42.665 179.13L39.641 176.104C39.977 175.768 40.145 175.263 40.313 174.759H44.6811C44.5131 176.44 43.8411 177.953 42.665 179.13Z" fill="white"/>
</g>
<g class="is-hidden-eje">
<path d="M192.69 192.578C202.804 192.578 211.002 184.374 211.002 174.255C211.002 164.136 202.804 155.932 192.69 155.932C182.577 155.932 174.378 164.136 174.378 174.255C174.378 184.374 182.577 192.578 192.69 192.578Z" fill="#3B5266"/>
<path d="M180.258 174.255C180.258 169.38 182.946 165.346 186.978 163.16L186.306 162.152C181.938 164.505 178.914 169.044 178.914 174.255C178.914 179.466 181.938 184.005 186.306 186.358L186.978 185.349C182.946 183.164 180.258 178.962 180.258 174.255Z" fill="#76C1AA"/>
<path d="M198.906 162.152L198.402 163.16C202.434 165.178 205.29 169.38 205.29 174.255C205.29 179.13 202.434 183.332 198.402 185.349L198.906 186.358C203.274 184.005 206.298 179.466 206.298 174.255C206.298 168.876 203.274 164.337 198.906 162.152Z" fill="#76C1AA"/>
<path opacity="0.3" d="M192.69 176.945C194.175 176.945 195.378 175.74 195.378 174.255C195.378 172.77 194.175 171.566 192.69 171.566C191.205 171.566 190.002 172.77 190.002 174.255C190.002 175.74 191.205 176.945 192.69 176.945Z" fill="white"/>
<path opacity="0.3" d="M194.202 172.238L197.226 169.212C196.05 168.035 194.538 167.363 192.69 167.363V171.733C193.362 171.733 193.866 171.901 194.202 172.238Z" fill="white"/>
<path opacity="0.3" d="M195.21 174.087H199.578C199.578 172.406 198.906 170.725 197.73 169.548L194.706 172.574C195.042 173.078 195.21 173.582 195.21 174.087Z" fill="white"/>
<path opacity="0.3" d="M194.538 175.936L197.562 178.962C198.738 177.785 199.41 176.272 199.41 174.591H195.042C195.042 175.263 194.874 175.6 194.538 175.936Z" fill="white"/>
<path opacity="0.3" d="M191.01 176.272L187.986 179.298C189.162 180.306 190.506 180.979 192.186 180.979V176.608C191.682 176.776 191.346 176.608 191.01 176.272Z" fill="white"/>
<path opacity="0.3" d="M192.858 176.776V181.146C194.538 181.146 196.05 180.474 197.058 179.466L194.034 176.44C193.698 176.608 193.194 176.776 192.858 176.776Z" fill="white"/>
<path opacity="0.3" d="M190.338 172.742L187.314 169.717C186.306 170.893 185.634 172.406 185.634 174.087H190.002C190.002 173.582 190.17 173.246 190.338 172.742Z" fill="white"/>
<path opacity="0.3" d="M190.002 174.759H185.634C185.802 176.44 186.474 177.785 187.482 178.961L190.506 175.936C190.338 175.599 190.17 175.263 190.002 174.759Z" fill="white"/>
<path opacity="0.3" d="M192.186 171.565V167.195C190.506 167.363 188.994 168.035 187.818 169.044L190.842 172.07C191.178 171.901 191.682 171.733 192.186 171.565Z" fill="white"/>
<path d="M192.69 166.354C192.186 166.354 191.514 166.354 191.01 166.523C187.314 167.195 184.626 170.389 184.626 174.255C184.626 178.625 188.154 182.155 192.522 182.155C194.706 182.155 196.722 181.315 198.066 179.802C199.578 178.289 200.418 176.44 200.418 174.255C200.586 169.884 197.058 166.354 192.69 166.354ZM195.21 174.087C195.21 173.582 195.042 173.078 194.706 172.574L197.73 169.548C198.738 170.725 199.41 172.238 199.578 174.087H195.21ZM187.986 179.466L191.01 176.44C191.346 176.608 191.682 176.776 192.186 176.944V181.315C190.506 180.979 189.162 180.474 187.986 179.466ZM194.202 172.238C193.866 171.902 193.362 171.733 192.69 171.733V167.363C194.37 167.363 196.05 168.035 197.226 169.212L194.202 172.238ZM190.002 174.087H185.634C185.634 172.406 186.306 170.893 187.314 169.716L190.338 172.742C190.17 173.246 190.002 173.582 190.002 174.087ZM190.002 174.759C190.17 175.263 190.338 175.6 190.506 175.936L187.482 178.961C186.474 177.785 185.802 176.44 185.634 174.759H190.002ZM192.69 176.44C191.514 176.44 190.506 175.431 190.506 174.255C190.506 173.078 191.514 172.07 192.69 172.07C193.53 172.07 194.202 172.574 194.538 173.246V173.414C194.706 173.582 194.706 173.919 194.706 174.255C194.706 174.591 194.706 174.759 194.538 175.095C194.37 175.768 193.53 176.44 192.69 176.44ZM192.858 176.776C193.362 176.776 193.698 176.608 194.034 176.44L197.058 179.466C195.882 180.474 194.37 181.147 192.858 181.147V176.776ZM192.186 167.363V171.733C191.682 171.901 191.178 172.07 190.842 172.406L187.818 169.38C188.994 168.203 190.506 167.363 192.186 167.363ZM197.562 179.13L194.538 176.104C194.874 175.768 195.042 175.263 195.21 174.759H199.578C199.41 176.44 198.738 177.953 197.562 179.13Z" fill="white"/>
</g>
<g class="is-hidden-eje">
<path d="M234.69 192.578C244.804 192.578 253.002 184.374 253.002 174.255C253.002 164.136 244.804 155.932 234.69 155.932C224.577 155.932 216.378 164.136 216.378 174.255C216.378 184.374 224.577 192.578 234.69 192.578Z" fill="#3B5266"/>
<path d="M222.258 174.255C222.258 169.38 224.946 165.346 228.978 163.16L228.306 162.152C223.938 164.505 220.914 169.044 220.914 174.255C220.914 179.466 223.938 184.005 228.306 186.358L228.978 185.349C224.946 183.164 222.258 178.962 222.258 174.255Z" fill="#76C1AA"/>
<path d="M240.906 162.152L240.402 163.16C244.434 165.178 247.29 169.38 247.29 174.255C247.29 179.13 244.434 183.332 240.402 185.349L240.906 186.358C245.274 184.005 248.298 179.466 248.298 174.255C248.298 168.876 245.274 164.337 240.906 162.152Z" fill="#76C1AA"/>
<path opacity="0.3" d="M234.69 176.945C236.175 176.945 237.378 175.74 237.378 174.255C237.378 172.77 236.175 171.566 234.69 171.566C233.206 171.566 232.002 172.77 232.002 174.255C232.002 175.74 233.206 176.945 234.69 176.945Z" fill="white"/>
<path opacity="0.3" d="M236.202 172.238L239.226 169.212C238.05 168.035 236.538 167.363 234.69 167.363V171.733C235.362 171.733 235.866 171.901 236.202 172.238Z" fill="white"/>
<path opacity="0.3" d="M237.21 174.087H241.578C241.578 172.406 240.906 170.725 239.73 169.548L236.706 172.574C237.042 173.078 237.21 173.582 237.21 174.087Z" fill="white"/>
<path opacity="0.3" d="M236.538 175.936L239.562 178.962C240.738 177.785 241.41 176.272 241.41 174.591H237.042C237.042 175.263 236.874 175.6 236.538 175.936Z" fill="white"/>
<path opacity="0.3" d="M233.01 176.272L229.986 179.298C231.162 180.306 232.506 180.979 234.186 180.979V176.608C233.682 176.776 233.346 176.608 233.01 176.272Z" fill="white"/>
<path opacity="0.3" d="M234.858 176.776V181.146C236.538 181.146 238.05 180.474 239.058 179.466L236.034 176.44C235.698 176.608 235.194 176.776 234.858 176.776Z" fill="white"/>
<path opacity="0.3" d="M232.338 172.742L229.314 169.717C228.306 170.893 227.634 172.406 227.634 174.087H232.002C232.002 173.582 232.17 173.246 232.338 172.742Z" fill="white"/>
<path opacity="0.3" d="M232.002 174.759H227.634C227.802 176.44 228.474 177.785 229.482 178.961L232.506 175.936C232.338 175.599 232.17 175.263 232.002 174.759Z" fill="white"/>
<path opacity="0.3" d="M234.186 171.565V167.195C232.506 167.363 230.994 168.035 229.818 169.044L232.842 172.07C233.178 171.901 233.682 171.733 234.186 171.565Z" fill="white"/>
<path d="M234.69 166.354C234.186 166.354 233.514 166.354 233.01 166.523C229.314 167.195 226.626 170.389 226.626 174.255C226.626 178.625 230.154 182.155 234.522 182.155C236.706 182.155 238.722 181.315 240.066 179.802C241.578 178.289 242.418 176.44 242.418 174.255C242.586 169.884 239.058 166.354 234.69 166.354ZM237.21 174.087C237.21 173.582 237.042 173.078 236.706 172.574L239.73 169.548C240.738 170.725 241.41 172.238 241.578 174.087H237.21ZM229.986 179.466L233.01 176.44C233.346 176.608 233.682 176.776 234.186 176.944V181.315C232.506 180.979 231.162 180.474 229.986 179.466ZM236.202 172.238C235.866 171.902 235.362 171.733 234.69 171.733V167.363C236.37 167.363 238.05 168.035 239.226 169.212L236.202 172.238ZM232.002 174.087H227.634C227.634 172.406 228.306 170.893 229.314 169.716L232.338 172.742C232.17 173.246 232.002 173.582 232.002 174.087ZM232.002 174.759C232.17 175.263 232.338 175.6 232.506 175.936L229.482 178.961C228.474 177.785 227.802 176.44 227.634 174.759H232.002ZM234.69 176.44C233.514 176.44 232.506 175.431 232.506 174.255C232.506 173.078 233.514 172.07 234.69 172.07C235.53 172.07 236.202 172.574 236.538 173.246V173.414C236.706 173.582 236.706 173.919 236.706 174.255C236.706 174.591 236.706 174.759 236.538 175.095C236.202 175.768 235.53 176.44 234.69 176.44ZM234.858 176.776C235.362 176.776 235.698 176.608 236.034 176.44L239.058 179.466C237.882 180.474 236.37 181.147 234.858 181.147V176.776ZM234.186 167.363V171.733C233.682 171.901 233.178 172.07 232.842 172.406L229.818 169.38C230.826 168.203 232.506 167.363 234.186 167.363ZM239.562 179.13L236.538 176.104C236.874 175.768 237.042 175.263 237.21 174.759H241.578C241.41 176.44 240.738 177.953 239.562 179.13Z" fill="white"/>
</g>
<g class="is-hidden-eje">
<path d="M276.691 192.578C286.804 192.578 295.003 184.374 295.003 174.255C295.003 164.136 286.804 155.932 276.691 155.932C266.577 155.932 258.378 164.136 258.378 174.255C258.378 184.374 266.577 192.578 276.691 192.578Z" fill="#3B5266"/>
<path d="M264.258 174.255C264.258 169.38 266.946 165.346 270.978 163.16L270.306 162.152C265.938 164.505 262.914 169.044 262.914 174.255C262.914 179.466 265.938 184.005 270.306 186.358L270.978 185.349C266.946 183.164 264.258 178.962 264.258 174.255Z" fill="#76C1AA"/>
<path d="M282.907 162.152L282.403 163.16C286.435 165.178 289.291 169.38 289.291 174.255C289.291 179.13 286.435 183.332 282.403 185.349L282.907 186.358C287.275 184.005 290.299 179.466 290.299 174.255C290.299 168.876 287.275 164.337 282.907 162.152Z" fill="#76C1AA"/>
<path opacity="0.3" d="M276.691 176.945C278.175 176.945 279.379 175.74 279.379 174.255C279.379 172.77 278.175 171.566 276.691 171.566C275.206 171.566 274.003 172.77 274.003 174.255C274.003 175.74 275.206 176.945 276.691 176.945Z" fill="white"/>
<path opacity="0.3" d="M278.202 172.238L281.226 169.212C280.05 168.035 278.538 167.363 276.69 167.363V171.733C277.362 171.733 277.866 171.901 278.202 172.238Z" fill="white"/>
<path opacity="0.3" d="M279.211 174.087H283.579C283.579 172.406 282.907 170.725 281.731 169.548L278.707 172.574C279.043 173.078 279.211 173.582 279.211 174.087Z" fill="white"/>
<path opacity="0.3" d="M278.539 175.936L281.563 178.962C282.739 177.785 283.411 176.272 283.411 174.591H279.043C279.043 175.263 278.875 175.6 278.539 175.936Z" fill="white"/>
<path opacity="0.3" d="M275.011 176.272L271.987 179.298C273.163 180.306 274.507 180.979 276.187 180.979V176.608C275.683 176.776 275.347 176.608 275.011 176.272Z" fill="white"/>
<path opacity="0.3" d="M276.69 176.776V181.146C278.37 181.146 279.882 180.474 280.89 179.466L277.866 176.44C277.698 176.608 277.194 176.776 276.69 176.776Z" fill="white"/>
<path opacity="0.3" d="M274.339 172.742L271.315 169.717C270.307 170.893 269.635 172.406 269.635 174.087H274.003C274.003 173.582 274.171 173.246 274.339 172.742Z" fill="white"/>
<path opacity="0.3" d="M274.003 174.759H269.635C269.803 176.44 270.475 177.785 271.483 178.961L274.507 175.936C274.339 175.599 274.003 175.263 274.003 174.759Z" fill="white"/>
<path opacity="0.3" d="M276.187 171.565V167.195C274.507 167.363 272.995 168.035 271.819 169.044L274.843 172.07C275.179 171.901 275.515 171.733 276.187 171.565Z" fill="white"/>
<path d="M276.691 166.354C276.187 166.354 275.515 166.354 275.011 166.523C271.314 167.195 268.626 170.389 268.626 174.255C268.626 178.625 272.154 182.155 276.523 182.155C278.707 182.155 280.723 181.315 282.067 179.802C283.579 178.289 284.419 176.44 284.419 174.255C284.587 169.884 281.059 166.354 276.691 166.354ZM279.211 174.087C279.211 173.582 279.043 173.078 278.707 172.574L281.731 169.548C282.739 170.725 283.411 172.238 283.579 174.087H279.211ZM271.986 179.466L275.011 176.44C275.347 176.608 275.683 176.776 276.187 176.944V181.315C274.507 180.979 272.995 180.474 271.986 179.466ZM278.203 172.238C277.867 171.902 277.363 171.733 276.691 171.733V167.363C278.371 167.363 280.051 168.035 281.227 169.212L278.203 172.238ZM274.003 174.087H269.634C269.634 172.406 270.306 170.893 271.314 169.716L274.339 172.742C274.171 173.246 274.003 173.582 274.003 174.087ZM274.003 174.759C274.171 175.263 274.339 175.6 274.507 175.936L271.482 178.961C270.474 177.785 269.802 176.44 269.634 174.759H274.003ZM276.691 176.44C275.515 176.44 274.507 175.431 274.507 174.255C274.507 173.078 275.515 172.07 276.691 172.07C277.531 172.07 278.203 172.574 278.539 173.246V173.414C278.707 173.582 278.707 173.919 278.707 174.255C278.707 174.591 278.707 174.759 278.539 175.095C278.203 175.768 277.531 176.44 276.691 176.44ZM276.691 176.776C277.195 176.776 277.531 176.608 277.867 176.44L280.891 179.466C279.715 180.474 278.203 181.147 276.691 181.147V176.776ZM276.187 167.363V171.733C275.683 171.901 275.179 172.07 274.843 172.406L271.818 169.38C272.826 168.203 274.339 167.363 276.187 167.363ZM281.563 179.13L278.539 176.104C278.875 175.768 279.043 175.263 279.211 174.759H283.579C283.243 176.44 282.571 177.953 281.563 179.13Z" fill="white"/>
</g>
<g class="is-hidden-eje">
<path d="M335.155 192.578C345.268 192.578 353.467 184.374 353.467 174.255C353.467 164.136 345.268 155.932 335.155 155.932C325.041 155.932 316.843 164.136 316.843 174.255C316.843 184.374 325.041 192.578 335.155 192.578Z" fill="#3B5266"/>
<path d="M322.723 174.255C322.723 169.38 325.411 165.346 329.443 163.16L328.771 162.152C324.403 164.505 321.379 169.044 321.379 174.255C321.379 179.466 324.403 184.005 328.771 186.358L329.443 185.349C325.411 183.164 322.723 178.962 322.723 174.255Z" fill="#76C1AA"/>
<path d="M341.539 162.152L341.035 163.16C345.067 165.178 347.923 169.38 347.923 174.255C347.923 179.13 345.067 183.332 341.035 185.349L341.539 186.358C345.907 184.005 348.931 179.466 348.931 174.255C348.763 168.876 345.907 164.337 341.539 162.152Z" fill="#76C1AA"/>
<path opacity="0.3" d="M335.155 176.945C336.639 176.945 337.843 175.74 337.843 174.255C337.843 172.77 336.639 171.566 335.155 171.566C333.67 171.566 332.467 172.77 332.467 174.255C332.467 175.74 333.67 176.945 335.155 176.945Z" fill="white"/>
<path opacity="0.3" d="M336.835 172.238L339.859 169.212C338.683 168.035 337.171 167.363 335.323 167.363V171.733C335.827 171.733 336.331 171.901 336.835 172.238Z" fill="white"/>
<path opacity="0.3" d="M337.675 174.087H342.043C342.043 172.406 341.371 170.725 340.195 169.548L337.171 172.574C337.507 173.078 337.675 173.582 337.675 174.087Z" fill="white"/>
<path opacity="0.3" d="M337.003 175.936L340.027 178.962C341.203 177.785 341.875 176.272 341.875 174.591H337.507C337.675 175.263 337.339 175.6 337.003 175.936Z" fill="white"/>
<path opacity="0.3" d="M333.475 176.272L330.451 179.298C331.627 180.306 332.971 180.979 334.651 180.979V176.608C334.315 176.776 333.811 176.608 333.475 176.272Z" fill="white"/>
<path opacity="0.3" d="M335.323 176.776V181.146C337.003 181.146 338.515 180.474 339.523 179.466L336.499 176.44C336.163 176.608 335.827 176.776 335.323 176.776Z" fill="white"/>
<path opacity="0.3" d="M332.971 172.742L329.947 169.717C328.939 170.893 328.267 172.406 328.267 174.087H332.635C332.467 173.582 332.635 173.246 332.971 172.742Z" fill="white"/>
<path opacity="0.3" d="M332.467 174.759H328.099C328.267 176.44 328.939 177.785 329.947 178.961L332.971 175.936C332.803 175.599 332.635 175.263 332.467 174.759Z" fill="white"/>
<path opacity="0.3" d="M334.651 171.565V167.195C332.971 167.363 331.459 168.035 330.283 169.044L333.307 172.07C333.643 171.901 334.147 171.733 334.651 171.565Z" fill="white"/>
<path d="M335.323 166.354C334.819 166.354 334.147 166.354 333.643 166.523C329.947 167.195 327.259 170.389 327.259 174.255C327.259 178.625 330.787 182.155 335.155 182.155C337.339 182.155 339.355 181.315 340.699 179.802C342.211 178.289 343.051 176.44 343.051 174.255C343.051 169.884 339.691 166.354 335.323 166.354ZM337.675 174.087C337.675 173.582 337.507 173.078 337.171 172.574L340.195 169.548C341.203 170.725 341.875 172.238 342.043 174.087H337.675ZM330.451 179.466L333.475 176.44C333.811 176.608 334.147 176.776 334.651 176.944V181.315C333.139 180.979 331.627 180.474 330.451 179.466ZM336.835 172.238C336.499 171.902 335.995 171.733 335.323 171.733V167.363C337.003 167.363 338.683 168.035 339.859 169.212L336.835 172.238ZM332.467 174.087H328.099C328.099 172.406 328.771 170.893 329.779 169.716L332.803 172.742C332.635 173.246 332.467 173.582 332.467 174.087ZM332.467 174.759C332.635 175.263 332.803 175.6 332.971 175.936L329.947 178.961C328.939 177.785 328.267 176.44 328.099 174.759H332.467ZM335.155 176.44C333.979 176.44 332.971 175.431 332.971 174.255C332.971 173.078 333.979 172.07 335.155 172.07C335.995 172.07 336.667 172.574 337.003 173.246V173.414C337.171 173.582 337.171 173.919 337.171 174.255C337.171 174.591 337.171 174.759 337.003 175.095C336.835 175.768 335.995 176.44 335.155 176.44ZM335.323 176.776C335.827 176.776 336.163 176.608 336.499 176.44L339.523 179.466C338.347 180.474 336.835 181.147 335.323 181.147V176.776ZM334.651 167.363V171.733C334.147 171.901 333.643 172.07 333.307 172.406L330.283 169.38C331.459 168.203 332.971 167.363 334.651 167.363ZM340.027 179.13L337.003 176.104C337.339 175.768 337.507 175.263 337.675 174.759H342.043C341.875 176.44 341.203 177.953 340.027 179.13Z" fill="white"/>
</g>
<g class="is-hidden-eje">
<path d="M375.979 192.578C386.093 192.578 394.291 184.374 394.291 174.255C394.291 164.136 386.093 155.932 375.979 155.932C365.866 155.932 357.667 164.136 357.667 174.255C357.667 184.374 365.866 192.578 375.979 192.578Z" fill="#3B5266"/>
<path d="M363.547 174.255C363.547 169.38 366.235 165.346 370.267 163.16L369.595 162.152C365.227 164.505 362.203 169.044 362.203 174.255C362.203 179.466 365.227 184.005 369.595 186.358L370.267 185.349C366.235 183.164 363.547 178.962 363.547 174.255Z" fill="#76C1AA"/>
<path d="M382.195 162.152L381.691 163.16C385.723 165.178 388.579 169.38 388.579 174.255C388.579 179.13 385.723 183.332 381.691 185.349L382.195 186.358C386.563 184.005 389.587 179.466 389.587 174.255C389.587 168.876 386.563 164.337 382.195 162.152Z" fill="#76C1AA"/>
<path opacity="0.3" d="M375.979 176.945C377.464 176.945 378.667 175.74 378.667 174.255C378.667 172.77 377.464 171.566 375.979 171.566C374.495 171.566 373.291 172.77 373.291 174.255C373.291 175.74 374.495 176.945 375.979 176.945Z" fill="white"/>
<path opacity="0.3" d="M377.491 172.238L380.515 169.212C379.339 168.035 377.827 167.363 375.979 167.363V171.733C376.651 171.733 377.155 171.901 377.491 172.238Z" fill="white"/>
<path opacity="0.3" d="M378.499 174.087H382.867C382.867 172.406 382.195 170.725 381.019 169.548L377.995 172.574C378.331 173.078 378.499 173.582 378.499 174.087Z" fill="white"/>
<path opacity="0.3" d="M377.827 175.936L380.851 178.962C382.027 177.785 382.699 176.272 382.699 174.591H378.331C378.331 175.263 378.163 175.6 377.827 175.936Z" fill="white"/>
<path opacity="0.3" d="M374.299 176.272L371.275 179.298C372.451 180.306 373.795 180.979 375.475 180.979V176.608C374.971 176.776 374.635 176.608 374.299 176.272Z" fill="white"/>
<path opacity="0.3" d="M375.979 176.776V181.146C377.659 181.146 379.171 180.474 380.179 179.466L377.155 176.44C376.987 176.608 376.483 176.776 375.979 176.776Z" fill="white"/>
<path opacity="0.3" d="M373.627 172.742L370.603 169.717C369.595 170.893 368.923 172.406 368.923 174.087H373.291C373.291 173.582 373.459 173.246 373.627 172.742Z" fill="white"/>
<path opacity="0.3" d="M373.291 174.759H368.923C369.091 176.44 369.763 177.785 370.771 178.961L373.795 175.936C373.627 175.599 373.291 175.263 373.291 174.759Z" fill="white"/>
<path opacity="0.3" d="M375.475 171.565V167.195C373.795 167.363 372.283 168.035 371.107 169.044L374.131 172.07C374.467 171.901 374.971 171.733 375.475 171.565Z" fill="white"/>
<path d="M375.979 166.354C375.475 166.354 374.803 166.354 374.299 166.523C370.603 167.195 367.915 170.389 367.915 174.255C367.915 178.625 371.443 182.155 375.811 182.155C377.995 182.155 380.011 181.315 381.355 179.802C382.867 178.289 383.707 176.44 383.707 174.255C383.875 169.884 380.347 166.354 375.979 166.354ZM378.499 174.087C378.499 173.582 378.331 173.078 377.995 172.574L381.019 169.548C382.027 170.725 382.699 172.238 382.867 174.087H378.499ZM371.275 179.466L374.299 176.44C374.635 176.608 374.971 176.776 375.475 176.944V181.315C373.795 180.979 372.283 180.474 371.275 179.466ZM377.491 172.238C377.155 171.902 376.651 171.733 375.979 171.733V167.363C377.659 167.363 379.339 168.035 380.515 169.212L377.491 172.238ZM373.291 174.087H368.923C368.923 172.406 369.595 170.893 370.603 169.716L373.627 172.742C373.459 173.246 373.291 173.582 373.291 174.087ZM373.291 174.759C373.459 175.263 373.627 175.6 373.795 175.936L370.771 178.961C369.763 177.785 369.091 176.44 368.923 174.759H373.291ZM375.979 176.44C374.803 176.44 373.795 175.431 373.795 174.255C373.795 173.078 374.803 172.07 375.979 172.07C376.819 172.07 377.491 172.574 377.827 173.246V173.414C377.995 173.582 377.995 173.919 377.995 174.255C377.995 174.591 377.995 174.759 377.827 175.095C377.491 175.768 376.819 176.44 375.979 176.44ZM375.979 176.776C376.483 176.776 376.819 176.608 377.155 176.44L380.179 179.466C379.003 180.474 377.491 181.147 375.979 181.147V176.776ZM375.475 167.363V171.733C374.971 171.901 374.467 172.07 374.131 172.406L371.107 169.38C372.115 168.203 373.627 167.363 375.475 167.363ZM380.851 179.13L377.827 176.104C378.163 175.768 378.331 175.263 378.499 174.759H382.867C382.699 176.44 381.859 177.953 380.851 179.13Z" fill="white"/>
</g>
<g class="is-hidden-eje">
<path d="M416.635 192.578C426.749 192.578 434.947 184.374 434.947 174.255C434.947 164.136 426.749 155.932 416.635 155.932C406.522 155.932 398.323 164.136 398.323 174.255C398.323 184.374 406.522 192.578 416.635 192.578Z" fill="#3B5266"/>
<path d="M404.203 174.255C404.203 169.38 406.891 165.346 410.923 163.16L410.251 162.152C405.883 164.505 402.859 169.044 402.859 174.255C402.859 179.466 405.883 184.005 410.251 186.358L410.923 185.349C406.891 183.164 404.203 178.962 404.203 174.255Z" fill="#76C1AA"/>
<path d="M422.851 162.152L422.347 163.16C426.379 165.178 429.235 169.38 429.235 174.255C429.235 179.13 426.379 183.332 422.347 185.349L422.851 186.358C427.219 184.005 430.243 179.466 430.243 174.255C430.243 168.876 427.219 164.337 422.851 162.152Z" fill="#76C1AA"/>
<path opacity="0.3" d="M416.635 176.945C418.12 176.945 419.323 175.74 419.323 174.255C419.323 172.77 418.12 171.566 416.635 171.566C415.151 171.566 413.947 172.77 413.947 174.255C413.947 175.74 415.151 176.945 416.635 176.945Z" fill="white"/>
<path opacity="0.3" d="M418.315 172.238L421.339 169.212C420.163 168.035 418.651 167.363 416.803 167.363V171.733C417.307 171.733 417.811 171.901 418.315 172.238Z" fill="white"/>
<path opacity="0.3" d="M419.155 174.087H423.523C423.523 172.406 422.851 170.725 421.675 169.548L418.651 172.574C418.987 173.078 419.155 173.582 419.155 174.087Z" fill="white"/>
<path opacity="0.3" d="M418.483 175.936L421.507 178.962C422.683 177.785 423.355 176.272 423.355 174.591H418.987C418.987 175.263 418.819 175.6 418.483 175.936Z" fill="white"/>
<path opacity="0.3" d="M414.955 176.272L411.931 179.298C413.107 180.306 414.451 180.979 416.131 180.979V176.608C415.795 176.776 415.291 176.608 414.955 176.272Z" fill="white"/>
<path opacity="0.3" d="M416.803 176.776V181.146C418.483 181.146 419.995 180.474 421.003 179.466L417.979 176.44C417.643 176.608 417.307 176.776 416.803 176.776Z" fill="white"/>
<path opacity="0.3" d="M414.451 172.742L411.427 169.717C410.419 170.893 409.747 172.406 409.747 174.087H414.115C413.947 173.582 414.115 173.246 414.451 172.742Z" fill="white"/>
<path opacity="0.3" d="M413.947 174.759H409.579C409.747 176.44 410.419 177.785 411.427 178.961L414.451 175.936C414.283 175.599 414.115 175.263 413.947 174.759Z" fill="white"/>
<path opacity="0.3" d="M416.131 171.565V167.195C414.451 167.363 412.939 168.035 411.763 169.044L414.787 172.07C415.123 171.901 415.627 171.733 416.131 171.565Z" fill="white"/>
<path d="M416.803 166.354C416.299 166.354 415.627 166.354 415.123 166.523C411.427 167.195 408.739 170.389 408.739 174.255C408.739 178.625 412.267 182.155 416.635 182.155C418.819 182.155 420.835 181.315 422.179 179.802C423.691 178.289 424.531 176.44 424.531 174.255C424.531 169.884 421.003 166.354 416.803 166.354ZM419.155 174.087C419.155 173.582 418.987 173.078 418.651 172.574L421.675 169.548C422.683 170.725 423.355 172.238 423.523 174.087H419.155ZM411.931 179.466L414.955 176.44C415.291 176.608 415.627 176.776 416.131 176.944V181.315C414.619 180.979 413.107 180.474 411.931 179.466ZM418.315 172.238C417.979 171.902 417.475 171.733 416.803 171.733V167.363C418.483 167.363 420.163 168.035 421.339 169.212L418.315 172.238ZM413.947 174.087H409.579C409.579 172.406 410.251 170.893 411.259 169.716L414.283 172.742C414.115 173.246 413.947 173.582 413.947 174.087ZM413.947 174.759C414.115 175.263 414.283 175.6 414.451 175.936L411.427 178.961C410.419 177.785 409.747 176.44 409.579 174.759H413.947ZM416.635 176.44C415.459 176.44 414.451 175.431 414.451 174.255C414.451 173.078 415.459 172.07 416.635 172.07C417.475 172.07 418.147 172.574 418.483 173.246V173.414C418.651 173.582 418.651 173.919 418.651 174.255C418.651 174.591 418.651 174.759 418.483 175.095C418.315 175.768 417.475 176.44 416.635 176.44ZM416.803 176.776C417.307 176.776 417.643 176.608 417.979 176.44L421.003 179.466C419.827 180.474 418.315 181.147 416.803 181.147V176.776ZM416.131 167.363V171.733C415.627 171.901 415.123 172.07 414.787 172.406L411.763 169.38C412.939 168.203 414.451 167.363 416.131 167.363ZM421.507 179.13L418.483 176.104C418.819 175.768 418.987 175.263 419.155 174.759H423.523C423.355 176.44 422.683 177.953 421.507 179.13Z" fill="white"/>
</g>
<g class="is-hidden-eje">
<path d="M457.292 192.578C467.405 192.578 475.604 184.374 475.604 174.255C475.604 164.136 467.405 155.932 457.292 155.932C447.178 155.932 438.979 164.136 438.979 174.255C438.979 184.374 447.178 192.578 457.292 192.578Z" fill="#3B5266"/>
<path d="M445.028 174.255C445.028 169.38 447.716 165.346 451.747 163.16L451.076 162.152C446.708 164.505 443.684 169.044 443.684 174.255C443.684 179.466 446.708 184.005 451.076 186.358L451.747 185.349C447.716 183.164 445.028 178.962 445.028 174.255Z" fill="#76C1AA"/>
<path d="M463.676 162.152L463.172 163.16C467.204 165.178 470.06 169.38 470.06 174.255C470.06 179.13 467.204 183.332 463.172 185.349L463.676 186.358C468.044 184.005 471.068 179.466 471.068 174.255C471.068 168.876 468.044 164.337 463.676 162.152Z" fill="#76C1AA"/>
<path opacity="0.3" d="M457.292 176.945C458.776 176.945 459.98 175.74 459.98 174.255C459.98 172.77 458.776 171.566 457.292 171.566C455.807 171.566 454.604 172.77 454.604 174.255C454.604 175.74 455.807 176.945 457.292 176.945Z" fill="white"/>
<path opacity="0.3" d="M458.971 172.238L461.995 169.212C460.819 168.035 459.307 167.363 457.459 167.363V171.733C458.131 171.733 458.635 171.901 458.971 172.238Z" fill="white"/>
<path opacity="0.3" d="M459.98 174.087H464.348C464.348 172.406 463.676 170.725 462.5 169.548L459.476 172.574C459.644 173.078 459.98 173.582 459.98 174.087Z" fill="white"/>
<path opacity="0.3" d="M459.308 175.936L462.332 178.962C463.508 177.785 464.18 176.272 464.18 174.591H459.812C459.812 175.263 459.644 175.6 459.308 175.936Z" fill="white"/>
<path opacity="0.3" d="M455.78 176.272L452.755 179.298C453.931 180.306 455.275 180.979 456.956 180.979V176.608C456.452 176.776 456.116 176.608 455.78 176.272Z" fill="white"/>
<path opacity="0.3" d="M457.459 176.776V181.146C459.139 181.146 460.651 180.474 461.659 179.466L458.635 176.44C458.299 176.608 457.963 176.776 457.459 176.776Z" fill="white"/>
<path opacity="0.3" d="M455.107 172.742L452.084 169.717C451.076 170.893 450.404 172.406 450.404 174.087H454.772C454.772 173.582 454.939 173.246 455.107 172.742Z" fill="white"/>
<path opacity="0.3" d="M454.772 174.759H450.404C450.572 176.44 451.244 177.785 452.252 178.961L455.276 175.936C454.94 175.599 454.772 175.263 454.772 174.759Z" fill="white"/>
<path opacity="0.3" d="M456.787 171.565V167.195C455.107 167.363 453.595 168.035 452.419 169.044L455.443 172.07C455.947 171.901 456.283 171.733 456.787 171.565Z" fill="white"/>
<path d="M457.46 166.354C456.956 166.354 456.284 166.354 455.78 166.523C452.084 167.195 449.396 170.389 449.396 174.255C449.396 178.625 452.924 182.155 457.292 182.155C459.476 182.155 461.492 181.315 462.836 179.802C464.348 178.289 465.188 176.44 465.188 174.255C465.356 169.884 461.828 166.354 457.46 166.354ZM459.98 174.087C459.98 173.582 459.812 173.078 459.476 172.574L462.5 169.548C463.508 170.725 464.18 172.238 464.348 174.087H459.98ZM452.756 179.466L455.78 176.44C456.116 176.608 456.452 176.776 456.956 176.944V181.315C455.276 180.979 453.764 180.474 452.756 179.466ZM458.972 172.238C458.636 171.902 458.132 171.733 457.46 171.733V167.363C459.14 167.363 460.82 168.035 461.996 169.212L458.972 172.238ZM454.772 174.087H450.404C450.404 172.406 451.076 170.893 452.084 169.716L455.108 172.742C454.94 173.246 454.772 173.582 454.772 174.087ZM454.772 174.759C454.94 175.263 455.108 175.6 455.276 175.936L452.252 178.961C451.244 177.785 450.572 176.44 450.404 174.759H454.772ZM457.292 176.44C456.116 176.44 455.108 175.431 455.108 174.255C455.108 173.078 456.116 172.07 457.292 172.07C458.132 172.07 458.804 172.574 459.14 173.246V173.414C459.308 173.582 459.308 173.919 459.308 174.255C459.308 174.591 459.308 174.759 459.14 175.095C458.972 175.768 458.3 176.44 457.292 176.44ZM457.46 176.776C457.964 176.776 458.3 176.608 458.636 176.44L461.66 179.466C460.484 180.474 458.972 181.147 457.46 181.147V176.776ZM456.788 167.363V171.733C456.284 171.901 455.78 172.07 455.444 172.406L452.42 169.38C453.596 168.203 455.108 167.363 456.788 167.363ZM462.332 179.13L459.308 176.104C459.644 175.768 459.812 175.263 459.98 174.759H464.348C464.012 176.44 463.34 177.953 462.332 179.13Z" fill="white"/>
</g>
<g class="is-hidden-eje">
<path d="M498.116 192.578C508.229 192.578 516.428 184.374 516.428 174.255C516.428 164.136 508.229 155.932 498.116 155.932C488.002 155.932 479.804 164.136 479.804 174.255C479.804 184.374 488.002 192.578 498.116 192.578Z" fill="#3B5266"/>
<path d="M485.684 174.255C485.684 169.38 488.372 165.346 492.404 163.16L491.732 162.152C487.364 164.505 484.34 169.044 484.34 174.255C484.34 179.466 487.364 184.005 491.732 186.358L492.404 185.349C488.372 183.164 485.684 178.962 485.684 174.255Z" fill="#76C1AA"/>
<path d="M504.332 162.152L503.828 163.16C507.86 165.178 510.716 169.38 510.716 174.255C510.716 179.13 507.86 183.332 503.828 185.349L504.332 186.358C508.7 184.005 511.724 179.466 511.724 174.255C511.724 168.876 508.7 164.337 504.332 162.152Z" fill="#76C1AA"/>
<path opacity="0.3" d="M498.116 176.945C499.6 176.945 500.804 175.74 500.804 174.255C500.804 172.77 499.6 171.566 498.116 171.566C496.631 171.566 495.428 172.77 495.428 174.255C495.428 175.74 496.631 176.945 498.116 176.945Z" fill="white"/>
<path opacity="0.3" d="M499.628 172.238L502.652 169.212C501.476 168.035 499.964 167.363 498.116 167.363V171.733C498.788 171.733 499.292 171.901 499.628 172.238Z" fill="white"/>
<path opacity="0.3" d="M500.636 174.087H505.004C505.004 172.406 504.332 170.725 503.156 169.548L500.132 172.574C500.468 173.078 500.636 173.582 500.636 174.087Z" fill="white"/>
<path opacity="0.3" d="M499.964 175.936L502.988 178.962C504.164 177.785 504.836 176.272 504.836 174.591H500.468C500.468 175.263 500.3 175.6 499.964 175.936Z" fill="white"/>
<path opacity="0.3" d="M496.436 176.272L493.412 179.298C494.588 180.306 495.932 180.979 497.612 180.979V176.608C497.108 176.776 496.772 176.608 496.436 176.272Z" fill="white"/>
<path opacity="0.3" d="M498.284 176.776V181.146C499.964 181.146 501.476 180.474 502.484 179.466L499.46 176.44C499.124 176.608 498.62 176.776 498.284 176.776Z" fill="white"/>
<path opacity="0.3" d="M495.764 172.742L492.74 169.717C491.732 170.893 491.06 172.406 491.06 174.087H495.428C495.428 173.582 495.596 173.246 495.764 172.742Z" fill="white"/>
<path opacity="0.3" d="M495.428 174.759H491.06C491.228 176.44 491.9 177.785 492.908 178.961L495.932 175.936C495.764 175.599 495.596 175.263 495.428 174.759Z" fill="white"/>
<path opacity="0.3" d="M497.612 171.565V167.195C495.932 167.363 494.42 168.035 493.244 169.044L496.268 172.07C496.604 171.901 497.108 171.733 497.612 171.565Z" fill="white"/>
<path d="M498.116 166.354C497.612 166.354 496.94 166.354 496.436 166.523C492.74 167.195 490.052 170.389 490.052 174.255C490.052 178.625 493.58 182.155 497.948 182.155C500.132 182.155 502.148 181.315 503.492 179.802C505.004 178.289 505.844 176.44 505.844 174.255C506.012 169.884 502.484 166.354 498.116 166.354ZM500.636 174.087C500.636 173.582 500.468 173.078 500.132 172.574L503.156 169.548C504.164 170.725 504.836 172.238 505.004 174.087H500.636ZM493.412 179.466L496.436 176.44C496.772 176.608 497.108 176.776 497.612 176.944V181.315C495.932 180.979 494.588 180.474 493.412 179.466ZM499.628 172.238C499.292 171.902 498.788 171.733 498.116 171.733V167.363C499.796 167.363 501.476 168.035 502.652 169.212L499.628 172.238ZM495.428 174.087H491.06C491.06 172.406 491.732 170.893 492.74 169.716L495.764 172.742C495.596 173.246 495.428 173.582 495.428 174.087ZM495.428 174.759C495.596 175.263 495.764 175.6 495.932 175.936L492.908 178.961C491.9 177.785 491.228 176.44 491.06 174.759H495.428ZM498.116 176.44C496.94 176.44 495.932 175.431 495.932 174.255C495.932 173.078 496.94 172.07 498.116 172.07C498.956 172.07 499.628 172.574 499.964 173.246V173.414C500.132 173.582 500.132 173.919 500.132 174.255C500.132 174.591 500.132 174.759 499.964 175.095C499.796 175.768 498.956 176.44 498.116 176.44ZM498.284 176.776C498.788 176.776 499.124 176.608 499.46 176.44L502.484 179.466C501.308 180.474 499.796 181.147 498.284 181.147V176.776ZM497.612 167.363V171.733C497.108 171.901 496.604 172.07 496.268 172.406L493.244 169.38C494.42 168.203 495.932 167.363 497.612 167.363ZM502.988 179.13L499.964 176.104C500.3 175.768 500.468 175.263 500.636 174.759H505.004C504.836 176.44 504.164 177.953 502.988 179.13Z" fill="white"/>
</g>
<g class="is-hidden-eje">
<path d="M538.772 192.578C548.886 192.578 557.084 184.374 557.084 174.255C557.084 164.136 548.886 155.932 538.772 155.932C528.659 155.932 520.46 164.136 520.46 174.255C520.46 184.374 528.659 192.578 538.772 192.578Z" fill="#3B5266"/>
<path d="M526.34 174.255C526.34 169.38 529.028 165.346 533.06 163.16L532.388 162.152C528.02 164.505 524.996 169.044 524.996 174.255C524.996 179.466 528.02 184.005 532.388 186.358L533.06 185.349C529.196 183.164 526.34 178.962 526.34 174.255Z" fill="#76C1AA"/>
<path d="M545.156 162.152L544.652 163.16C548.684 165.178 551.54 169.38 551.54 174.255C551.54 179.13 548.684 183.332 544.652 185.349L545.156 186.358C549.524 184.005 552.548 179.466 552.548 174.255C552.548 168.876 549.524 164.337 545.156 162.152Z" fill="#76C1AA"/>
<path opacity="0.3" d="M538.772 176.945C540.257 176.945 541.46 175.74 541.46 174.255C541.46 172.77 540.257 171.566 538.772 171.566C537.287 171.566 536.084 172.77 536.084 174.255C536.084 175.74 537.287 176.945 538.772 176.945Z" fill="white"/>
<path opacity="0.3" d="M540.452 172.238L543.476 169.212C542.3 168.035 540.788 167.363 538.94 167.363V171.733C539.612 171.733 539.948 171.901 540.452 172.238Z" fill="white"/>
<path opacity="0.3" d="M541.46 174.087H545.828C545.828 172.406 545.156 170.725 543.98 169.548L540.956 172.574C541.124 173.078 541.292 173.582 541.46 174.087Z" fill="white"/>
<path opacity="0.3" d="M540.62 175.936L543.644 178.962C544.82 177.785 545.492 176.272 545.492 174.591H541.124C541.292 175.263 540.956 175.6 540.62 175.936Z" fill="white"/>
<path opacity="0.3" d="M537.26 176.272L534.236 179.298C535.412 180.306 536.756 180.979 538.436 180.979V176.608C537.932 176.776 537.596 176.608 537.26 176.272Z" fill="white"/>
<path opacity="0.3" d="M538.94 176.776V181.146C540.62 181.146 542.132 180.474 543.14 179.466L540.116 176.44C539.78 176.608 539.444 176.776 538.94 176.776Z" fill="white"/>
<path opacity="0.3" d="M536.588 172.742L533.564 169.717C532.556 170.893 531.884 172.406 531.884 174.087H536.252C536.252 173.582 536.252 173.246 536.588 172.742Z" fill="white"/>
<path opacity="0.3" d="M536.252 174.759H531.884C532.052 176.44 532.724 177.785 533.732 178.961L536.756 175.936C536.42 175.599 536.252 175.263 536.252 174.759Z" fill="white"/>
<path opacity="0.3" d="M538.268 171.565V167.195C536.588 167.363 535.076 168.035 533.9 169.044L536.924 172.07C537.428 171.901 537.764 171.733 538.268 171.565Z" fill="white"/>
<path d="M538.94 166.354C538.436 166.354 537.764 166.354 537.26 166.523C533.564 167.195 530.876 170.389 530.876 174.255C530.876 178.625 534.404 182.155 538.772 182.155C540.956 182.155 542.972 181.315 544.316 179.802C545.828 178.289 546.668 176.44 546.668 174.255C546.836 169.884 543.308 166.354 538.94 166.354ZM541.46 174.087C541.46 173.582 541.292 173.078 540.956 172.574L543.98 169.548C544.988 170.725 545.66 172.238 545.828 174.087H541.46ZM534.236 179.466L537.26 176.44C537.596 176.608 537.932 176.776 538.436 176.944V181.315C536.756 180.979 535.244 180.474 534.236 179.466ZM540.452 172.238C540.116 171.902 539.612 171.733 538.94 171.733V167.363C540.62 167.363 542.3 168.035 543.476 169.212L540.452 172.238ZM536.084 174.087H531.884C531.884 172.406 532.556 170.893 533.564 169.716L536.588 172.742C536.252 173.246 536.252 173.582 536.084 174.087ZM536.252 174.759C536.42 175.263 536.588 175.6 536.756 175.936L533.732 178.961C532.724 177.785 532.052 176.44 531.884 174.759H536.252ZM538.772 176.44C537.596 176.44 536.588 175.431 536.588 174.255C536.588 173.078 537.596 172.07 538.772 172.07C539.612 172.07 540.284 172.574 540.62 173.246V173.414C540.788 173.582 540.788 173.919 540.788 174.255C540.788 174.591 540.788 174.759 540.62 175.095C540.452 175.768 539.78 176.44 538.772 176.44ZM538.94 176.776C539.444 176.776 539.78 176.608 540.116 176.44L543.14 179.466C541.964 180.474 540.452 181.147 538.94 181.147V176.776ZM538.268 167.363V171.733C537.764 171.901 537.26 172.07 536.924 172.406L533.9 169.38C535.076 168.203 536.588 167.363 538.268 167.363ZM543.812 179.13L540.788 176.104C541.124 175.768 541.292 175.263 541.46 174.759H545.828C545.492 176.44 544.82 177.953 543.812 179.13Z" fill="white"/>
</g>
<g class="is-hidden-eje">
<path d="M579.596 192.578C589.71 192.578 597.908 184.374 597.908 174.255C597.908 164.136 589.71 155.932 579.596 155.932C569.483 155.932 561.284 164.136 561.284 174.255C561.284 184.374 569.483 192.578 579.596 192.578Z" fill="#3B5266"/>
<path d="M567.164 174.255C567.164 169.38 569.852 165.346 573.884 163.16L573.212 162.152C568.844 164.505 565.82 169.044 565.82 174.255C565.82 179.466 568.844 184.005 573.212 186.358L573.884 185.349C569.852 183.164 567.164 178.962 567.164 174.255Z" fill="#76C1AA"/>
<path d="M585.813 162.152L585.309 163.16C589.341 165.178 592.197 169.38 592.197 174.255C592.197 179.13 589.341 183.332 585.309 185.349L585.813 186.358C590.181 184.005 593.205 179.466 593.205 174.255C593.205 168.876 590.181 164.337 585.813 162.152Z" fill="#76C1AA"/>
<path opacity="0.3" d="M579.596 176.945C581.081 176.945 582.284 175.74 582.284 174.255C582.284 172.77 581.081 171.566 579.596 171.566C578.112 171.566 576.908 172.77 576.908 174.255C576.908 175.74 578.112 176.945 579.596 176.945Z" fill="white"/>
<path opacity="0.3" d="M581.109 172.238L584.133 169.212C582.957 168.035 581.445 167.363 579.597 167.363V171.733C580.269 171.733 580.773 171.901 581.109 172.238Z" fill="white"/>
<path opacity="0.3" d="M582.116 174.087H586.484C586.484 172.406 585.812 170.725 584.636 169.548L581.612 172.574C581.948 173.078 582.116 173.582 582.116 174.087Z" fill="white"/>
<path opacity="0.3" d="M581.445 175.936L584.469 178.962C585.645 177.785 586.317 176.272 586.317 174.591H581.949C581.949 175.263 581.781 175.6 581.445 175.936Z" fill="white"/>
<path opacity="0.3" d="M577.917 176.272L574.893 179.298C576.069 180.306 577.413 180.979 579.093 180.979V176.608C578.589 176.776 578.253 176.608 577.917 176.272Z" fill="white"/>
<path opacity="0.3" d="M579.765 176.776V181.146C581.445 181.146 582.957 180.474 583.965 179.466L580.941 176.44C580.605 176.608 580.101 176.776 579.765 176.776Z" fill="white"/>
<path opacity="0.3" d="M577.244 172.742L574.221 169.717C573.213 170.893 572.541 172.406 572.541 174.087H576.908C576.908 173.582 577.076 173.246 577.244 172.742Z" fill="white"/>
<path opacity="0.3" d="M576.909 174.759H572.541C572.709 176.44 573.38 177.785 574.388 178.961L577.413 175.936C577.245 175.599 577.077 175.263 576.909 174.759Z" fill="white"/>
<path opacity="0.3" d="M579.093 171.565V167.195C577.413 167.363 575.901 168.035 574.725 169.044L577.749 172.07C578.085 171.901 578.589 171.733 579.093 171.565Z" fill="white"/>
<path d="M579.596 166.354C579.092 166.354 578.42 166.354 577.916 166.523C574.22 167.195 571.532 170.389 571.532 174.255C571.532 178.625 575.06 182.155 579.428 182.155C581.612 182.155 583.628 181.315 584.972 179.802C586.484 178.289 587.324 176.44 587.324 174.255C587.492 169.884 583.964 166.354 579.596 166.354ZM582.116 174.087C582.116 173.582 581.948 173.078 581.612 172.574L584.636 169.548C585.644 170.725 586.316 172.238 586.484 174.087H582.116ZM574.892 179.466L577.916 176.44C578.252 176.608 578.588 176.776 579.092 176.944V181.315C577.412 180.979 576.068 180.474 574.892 179.466ZM581.108 172.238C580.772 171.902 580.268 171.733 579.596 171.733V167.363C581.276 167.363 582.956 168.035 584.132 169.212L581.108 172.238ZM576.908 174.087H572.54C572.54 172.406 573.212 170.893 574.22 169.716L577.244 172.742C577.076 173.246 576.908 173.582 576.908 174.087ZM576.908 174.759C577.076 175.263 577.244 175.6 577.412 175.936L574.388 178.961C573.38 177.785 572.708 176.44 572.54 174.759H576.908ZM579.596 176.44C578.42 176.44 577.412 175.431 577.412 174.255C577.412 173.078 578.42 172.07 579.596 172.07C580.436 172.07 581.108 172.574 581.444 173.246V173.414C581.612 173.582 581.612 173.919 581.612 174.255C581.612 174.591 581.612 174.759 581.444 175.095C581.276 175.768 580.436 176.44 579.596 176.44ZM579.764 176.776C580.268 176.776 580.604 176.608 580.94 176.44L583.964 179.466C582.788 180.474 581.276 181.147 579.764 181.147V176.776ZM579.092 167.363V171.733C578.588 171.901 578.084 172.07 577.748 172.406L574.724 169.38C575.9 168.203 577.412 167.363 579.092 167.363ZM584.468 179.13L581.444 176.104C581.78 175.768 581.948 175.263 582.116 174.759H586.484C586.316 176.44 585.644 177.953 584.468 179.13Z" fill="white"/>
</g>
<g class="is-hidden-eje">
<path d="M620.253 192.578C630.366 192.578 638.565 184.374 638.565 174.255C638.565 164.136 630.366 155.932 620.253 155.932C610.139 155.932 601.94 164.136 601.94 174.255C601.94 184.374 610.139 192.578 620.253 192.578Z" fill="#3B5266"/>
<path d="M607.821 174.255C607.821 169.38 610.509 165.346 614.541 163.16L613.868 162.152C609.501 164.505 606.477 169.044 606.477 174.255C606.477 179.466 609.501 184.005 613.868 186.358L614.541 185.349C610.677 183.164 607.821 178.962 607.821 174.255Z" fill="#76C1AA"/>
<path d="M626.636 162.152L626.132 163.16C630.164 165.178 633.02 169.38 633.02 174.255C633.02 179.13 630.164 183.332 626.132 185.349L626.636 186.358C631.004 184.005 634.028 179.466 634.028 174.255C633.86 168.876 631.004 164.337 626.636 162.152Z" fill="#76C1AA"/>
<path opacity="0.3" d="M620.252 176.945C621.737 176.945 622.94 175.74 622.94 174.255C622.94 172.77 621.737 171.566 620.252 171.566C618.768 171.566 617.564 172.77 617.564 174.255C617.564 175.74 618.768 176.945 620.252 176.945Z" fill="white"/>
<path opacity="0.3" d="M621.932 172.238L624.957 169.212C623.781 168.035 622.269 167.363 620.42 167.363V171.733C620.924 171.733 621.428 171.901 621.932 172.238Z" fill="white"/>
<path opacity="0.3" d="M622.941 174.087H627.309C627.309 172.406 626.637 170.725 625.461 169.548L622.437 172.574C622.605 173.078 622.773 173.582 622.941 174.087Z" fill="white"/>
<path opacity="0.3" d="M622.1 175.936L625.124 178.962C626.3 177.785 626.972 176.272 626.972 174.591H622.604C622.772 175.263 622.436 175.6 622.1 175.936Z" fill="white"/>
<path opacity="0.3" d="M618.74 176.272L615.716 179.298C616.892 180.306 618.236 180.979 619.916 180.979V176.608C619.412 176.776 619.076 176.608 618.74 176.272Z" fill="white"/>
<path opacity="0.3" d="M620.42 176.776V181.146C622.1 181.146 623.613 180.474 624.621 179.466L621.596 176.44C621.26 176.608 620.924 176.776 620.42 176.776Z" fill="white"/>
<path opacity="0.3" d="M618.068 172.742L615.044 169.717C614.036 170.893 613.364 172.406 613.364 174.087H617.732C617.564 173.582 617.732 173.246 618.068 172.742Z" fill="white"/>
<path opacity="0.3" d="M617.732 174.759H613.364C613.532 176.44 614.204 177.785 615.212 178.961L618.236 175.936C617.9 175.599 617.732 175.263 617.732 174.759Z" fill="white"/>
<path opacity="0.3" d="M619.748 171.565V167.195C618.068 167.363 616.556 168.035 615.38 169.044L618.404 172.07C618.74 171.901 619.244 171.733 619.748 171.565Z" fill="white"/>
<path d="M620.42 166.354C619.916 166.354 619.244 166.354 618.74 166.523C615.044 167.195 612.356 170.389 612.356 174.255C612.356 178.625 615.884 182.155 620.252 182.155C622.436 182.155 624.452 181.315 625.796 179.802C627.308 178.289 628.148 176.44 628.148 174.255C628.316 169.884 624.788 166.354 620.42 166.354ZM622.94 174.087C622.94 173.582 622.772 173.078 622.436 172.574L625.46 169.548C626.468 170.725 627.14 172.238 627.308 174.087H622.94ZM615.548 179.466L618.572 176.44C618.908 176.608 619.244 176.776 619.748 176.944V181.315C618.236 180.979 616.724 180.474 615.548 179.466ZM621.932 172.238C621.596 171.902 621.092 171.733 620.42 171.733V167.363C622.1 167.363 623.78 168.035 624.956 169.212L621.932 172.238ZM617.564 174.087H613.196C613.196 172.406 613.868 170.893 614.876 169.716L617.9 172.742C617.732 173.246 617.564 173.582 617.564 174.087ZM617.732 174.759C617.9 175.263 618.068 175.6 618.236 175.936L615.212 178.961C614.204 177.785 613.532 176.44 613.364 174.759H617.732ZM620.252 176.44C619.076 176.44 618.068 175.431 618.068 174.255C618.068 173.078 619.076 172.07 620.252 172.07C621.092 172.07 621.764 172.574 622.1 173.246V173.414C622.268 173.582 622.268 173.919 622.268 174.255C622.268 174.591 622.268 174.759 622.1 175.095C621.932 175.768 621.26 176.44 620.252 176.44ZM620.42 176.776C620.924 176.776 621.26 176.608 621.596 176.44L624.62 179.466C623.444 180.474 621.932 181.147 620.42 181.147V176.776ZM619.748 167.363V171.733C619.244 171.901 618.74 172.07 618.404 172.406L615.38 169.38C616.556 168.203 618.068 167.363 619.748 167.363ZM625.292 179.13L622.268 176.104C622.604 175.768 622.772 175.263 622.94 174.759H627.308C626.972 176.44 626.3 177.953 625.292 179.13Z" fill="white"/>
</g>
<g class="is-hidden-eje">
<path d="M661.077 192.578C671.19 192.578 679.389 184.374 679.389 174.255C679.389 164.136 671.19 155.932 661.077 155.932C650.963 155.932 642.765 164.136 642.765 174.255C642.765 184.374 650.963 192.578 661.077 192.578Z" fill="#3B5266"/>
<path d="M648.645 174.255C648.645 169.38 651.333 165.346 655.365 163.16L654.693 162.152C650.325 164.505 647.301 169.044 647.301 174.255C647.301 179.466 650.325 184.005 654.693 186.358L655.365 185.349C651.333 183.164 648.645 178.962 648.645 174.255Z" fill="#76C1AA"/>
<path d="M667.293 162.152L666.789 163.16C670.821 165.178 673.677 169.38 673.677 174.255C673.677 179.13 670.821 183.332 666.789 185.349L667.293 186.358C671.661 184.005 674.685 179.466 674.685 174.255C674.685 168.876 671.661 164.337 667.293 162.152Z" fill="#76C1AA"/>
<path opacity="0.3" d="M661.077 176.945C662.561 176.945 663.765 175.74 663.765 174.255C663.765 172.77 662.561 171.566 661.077 171.566C659.592 171.566 658.389 172.77 658.389 174.255C658.389 175.74 659.592 176.945 661.077 176.945Z" fill="white"/>
<path opacity="0.3" d="M662.589 172.238L665.613 169.212C664.437 168.035 662.925 167.363 661.077 167.363V171.733C661.749 171.733 662.253 171.901 662.589 172.238Z" fill="white"/>
<path opacity="0.3" d="M663.597 174.087H667.965C667.965 172.406 667.293 170.725 666.117 169.548L663.093 172.574C663.429 173.078 663.597 173.582 663.597 174.087Z" fill="white"/>
<path opacity="0.3" d="M662.925 175.936L665.949 178.962C667.125 177.785 667.797 176.272 667.797 174.591H663.429C663.429 175.263 663.261 175.6 662.925 175.936Z" fill="white"/>
<path opacity="0.3" d="M659.397 176.272L656.373 179.298C657.549 180.306 658.893 180.979 660.573 180.979V176.608C660.069 176.776 659.733 176.608 659.397 176.272Z" fill="white"/>
<path opacity="0.3" d="M661.245 176.776V181.146C662.925 181.146 664.437 180.474 665.445 179.466L662.421 176.44C662.085 176.608 661.581 176.776 661.245 176.776Z" fill="white"/>
<path opacity="0.3" d="M658.725 172.742L655.701 169.717C654.693 170.893 654.021 172.406 654.021 174.087H658.389C658.389 173.582 658.557 173.246 658.725 172.742Z" fill="white"/>
<path opacity="0.3" d="M658.389 174.759H654.021C654.189 176.44 654.861 177.785 655.869 178.961L658.893 175.936C658.725 175.599 658.557 175.263 658.389 174.759Z" fill="white"/>
<path opacity="0.3" d="M660.573 171.565V167.195C658.893 167.363 657.381 168.035 656.205 169.044L659.229 172.07C659.565 171.901 660.069 171.733 660.573 171.565Z" fill="white"/>
<path d="M661.077 166.354C660.573 166.354 659.901 166.354 659.397 166.523C655.701 167.195 653.013 170.389 653.013 174.255C653.013 178.625 656.541 182.155 660.909 182.155C663.093 182.155 665.109 181.315 666.453 179.802C667.965 178.289 668.805 176.44 668.805 174.255C668.973 169.884 665.445 166.354 661.077 166.354ZM663.597 174.087C663.597 173.582 663.429 173.078 663.093 172.574L666.117 169.548C667.125 170.725 667.797 172.238 667.965 174.087H663.597ZM656.373 179.466L659.397 176.44C659.733 176.608 660.069 176.776 660.573 176.944V181.315C658.893 180.979 657.549 180.474 656.373 179.466ZM662.589 172.238C662.253 171.902 661.749 171.733 661.077 171.733V167.363C662.757 167.363 664.437 168.035 665.613 169.212L662.589 172.238ZM658.389 174.087H654.021C654.021 172.406 654.693 170.893 655.701 169.716L658.725 172.742C658.557 173.246 658.389 173.582 658.389 174.087ZM658.389 174.759C658.557 175.263 658.725 175.6 658.893 175.936L655.869 178.961C654.861 177.785 654.189 176.44 654.021 174.759H658.389ZM661.077 176.44C659.901 176.44 658.893 175.431 658.893 174.255C658.893 173.078 659.901 172.07 661.077 172.07C661.917 172.07 662.589 172.574 662.925 173.246V173.414C663.093 173.582 663.093 173.919 663.093 174.255C663.093 174.591 663.093 174.759 662.925 175.095C662.589 175.768 661.917 176.44 661.077 176.44ZM661.245 176.776C661.749 176.776 662.085 176.608 662.421 176.44L665.445 179.466C664.269 180.474 662.757 181.147 661.245 181.147V176.776ZM660.573 167.363V171.733C660.069 171.901 659.565 172.07 659.229 172.406L656.205 169.38C657.213 168.203 658.893 167.363 660.573 167.363ZM665.949 179.13L662.925 176.104C663.261 175.768 663.429 175.263 663.597 174.759H667.965C667.797 176.44 667.125 177.953 665.949 179.13Z" fill="white"/>
</g>
<g class="is-hidden-eje">
<path d="M701.733 192.578C711.847 192.578 720.045 184.374 720.045 174.255C720.045 164.136 711.847 155.932 701.733 155.932C691.62 155.932 683.421 164.136 683.421 174.255C683.421 184.374 691.62 192.578 701.733 192.578Z" fill="#3B5266"/>
<path d="M689.301 174.255C689.301 169.38 691.989 165.346 696.021 163.16L695.349 162.152C690.981 164.505 687.957 169.044 687.957 174.255C687.957 179.466 690.981 184.005 695.349 186.358L696.021 185.349C691.989 183.164 689.301 178.962 689.301 174.255Z" fill="#76C1AA"/>
<path d="M708.117 162.152L707.613 163.16C711.645 165.178 714.501 169.38 714.501 174.255C714.501 179.13 711.645 183.332 707.613 185.349L708.117 186.358C712.485 184.005 715.509 179.466 715.509 174.255C715.341 168.876 712.485 164.337 708.117 162.152Z" fill="#76C1AA"/>
<path opacity="0.3" d="M701.733 176.945C703.217 176.945 704.421 175.74 704.421 174.255C704.421 172.77 703.217 171.566 701.733 171.566C700.248 171.566 699.045 172.77 699.045 174.255C699.045 175.74 700.248 176.945 701.733 176.945Z" fill="white"/>
<path opacity="0.3" d="M703.413 172.238L706.437 169.212C705.261 168.035 703.749 167.363 701.901 167.363V171.733C702.405 171.733 702.909 171.901 703.413 172.238Z" fill="white"/>
<path opacity="0.3" d="M704.253 174.087H708.621C708.621 172.406 707.949 170.725 706.773 169.548L703.749 172.574C704.085 173.078 704.253 173.582 704.253 174.087Z" fill="white"/>
<path opacity="0.3" d="M703.581 175.936L706.605 178.962C707.781 177.785 708.453 176.272 708.453 174.591H704.085C704.253 175.263 703.917 175.6 703.581 175.936Z" fill="white"/>
<path opacity="0.3" d="M700.221 176.272L697.197 179.298C698.373 180.306 699.717 180.979 701.397 180.979V176.608C700.893 176.776 700.389 176.608 700.221 176.272Z" fill="white"/>
<path opacity="0.3" d="M701.901 176.776V181.146C703.581 181.146 705.093 180.474 706.101 179.466L703.077 176.44C702.741 176.608 702.405 176.776 701.901 176.776Z" fill="white"/>
<path opacity="0.3" d="M699.549 172.742L696.525 169.717C695.517 170.893 694.845 172.406 694.845 174.087H699.213C699.045 173.582 699.213 173.246 699.549 172.742Z" fill="white"/>
<path opacity="0.3" d="M699.045 174.759H694.845C695.013 176.44 695.685 177.785 696.693 178.961L699.717 175.936C699.381 175.599 699.213 175.263 699.045 174.759Z" fill="white"/>
<path opacity="0.3" d="M701.229 171.565V167.195C699.549 167.363 698.037 168.035 696.861 169.044L699.885 172.07C700.221 171.901 700.725 171.733 701.229 171.565Z" fill="white"/>
<path d="M701.901 166.354C701.397 166.354 700.725 166.354 700.221 166.523C696.525 167.195 693.837 170.389 693.837 174.255C693.837 178.625 697.365 182.155 701.733 182.155C703.917 182.155 705.933 181.315 707.277 179.802C708.789 178.289 709.629 176.44 709.629 174.255C709.629 169.884 706.269 166.354 701.901 166.354ZM704.253 174.087C704.253 173.582 704.085 173.078 703.749 172.574L706.773 169.548C707.781 170.725 708.453 172.238 708.621 174.087H704.253ZM697.029 179.466L700.053 176.44C700.389 176.608 700.725 176.776 701.229 176.944V181.315C699.717 180.979 698.205 180.474 697.029 179.466ZM703.413 172.238C703.077 171.902 702.573 171.733 701.901 171.733V167.363C703.581 167.363 705.261 168.035 706.437 169.212L703.413 172.238ZM699.045 174.087H694.845C694.845 172.406 695.517 170.893 696.525 169.716L699.549 172.742C699.213 173.246 699.045 173.582 699.045 174.087ZM699.045 174.759C699.213 175.263 699.381 175.6 699.549 175.936L696.525 178.961C695.517 177.785 694.845 176.44 694.677 174.759H699.045ZM701.733 176.44C700.557 176.44 699.549 175.431 699.549 174.255C699.549 173.078 700.557 172.07 701.733 172.07C702.573 172.07 703.245 172.574 703.581 173.246V173.414C703.749 173.582 703.749 173.919 703.749 174.255C703.749 174.591 703.749 174.759 703.581 175.095C703.413 175.768 702.573 176.44 701.733 176.44ZM701.901 176.776C702.405 176.776 702.741 176.608 703.077 176.44L706.101 179.466C704.925 180.474 703.413 181.147 701.901 181.147V176.776ZM701.229 167.363V171.733C700.725 171.901 700.221 172.07 699.885 172.406L696.861 169.38C698.037 168.203 699.549 167.363 701.229 167.363ZM706.605 179.13L703.581 176.104C703.917 175.768 704.085 175.263 704.253 174.759H708.621C708.453 176.44 707.781 177.953 706.605 179.13Z" fill="white"/>
</g>
<g class="is-hidden-eje">
<path d="M742.557 192.578C752.671 192.578 760.869 184.374 760.869 174.255C760.869 164.136 752.671 155.932 742.557 155.932C732.444 155.932 724.245 164.136 724.245 174.255C724.245 184.374 732.444 192.578 742.557 192.578Z" fill="#3B5266"/>
<path d="M730.125 174.255C730.125 169.38 732.813 165.346 736.845 163.16L736.173 162.152C731.805 164.505 728.781 169.044 728.781 174.255C728.781 179.466 731.805 184.005 736.173 186.358L736.845 185.349C732.813 183.164 730.125 178.962 730.125 174.255Z" fill="#76C1AA"/>
<path d="M748.774 162.152L748.27 163.16C752.302 165.178 755.158 169.38 755.158 174.255C755.158 179.13 752.302 183.332 748.27 185.349L748.774 186.358C753.142 184.005 756.166 179.466 756.166 174.255C756.166 168.876 753.142 164.337 748.774 162.152Z" fill="#76C1AA"/>
<path opacity="0.3" d="M742.557 176.945C744.042 176.945 745.245 175.74 745.245 174.255C745.245 172.77 744.042 171.566 742.557 171.566C741.073 171.566 739.869 172.77 739.869 174.255C739.869 175.74 741.073 176.945 742.557 176.945Z" fill="white"/>
<path opacity="0.3" d="M744.069 172.238L747.093 169.212C745.917 168.035 744.405 167.363 742.557 167.363V171.733C743.229 171.733 743.733 171.901 744.069 172.238Z" fill="white"/>
<path opacity="0.3" d="M745.077 174.087H749.445C749.445 172.406 748.773 170.725 747.597 169.548L744.573 172.574C744.909 173.078 745.077 173.582 745.077 174.087Z" fill="white"/>
<path opacity="0.3" d="M744.405 175.936L747.429 178.962C748.605 177.785 749.277 176.272 749.277 174.591H744.909C744.909 175.263 744.741 175.6 744.405 175.936Z" fill="white"/>
<path opacity="0.3" d="M740.877 176.272L737.853 179.298C739.029 180.306 740.373 180.979 742.053 180.979V176.608C741.549 176.776 741.213 176.608 740.877 176.272Z" fill="white"/>
<path opacity="0.3" d="M742.557 176.776V181.146C744.237 181.146 745.749 180.474 746.757 179.466L743.733 176.44C743.565 176.608 743.061 176.776 742.557 176.776Z" fill="white"/>
<path opacity="0.3" d="M740.205 172.742L737.181 169.717C736.173 170.893 735.501 172.406 735.501 174.087H739.869C739.869 173.582 740.037 173.246 740.205 172.742Z" fill="white"/>
<path opacity="0.3" d="M739.869 174.759H735.501C735.669 176.44 736.341 177.785 737.349 178.961L740.373 175.936C740.205 175.599 739.869 175.263 739.869 174.759Z" fill="white"/>
<path opacity="0.3" d="M742.053 171.565V167.195C740.373 167.363 738.861 168.035 737.685 169.044L740.709 172.07C741.045 171.901 741.549 171.733 742.053 171.565Z" fill="white"/>
<path d="M742.557 166.354C742.053 166.354 741.381 166.354 740.877 166.523C737.181 167.195 734.493 170.389 734.493 174.255C734.493 178.625 738.021 182.155 742.389 182.155C744.573 182.155 746.589 181.315 747.933 179.802C749.445 178.289 750.285 176.44 750.285 174.255C750.453 169.884 746.925 166.354 742.557 166.354ZM745.077 174.087C745.077 173.582 744.909 173.078 744.573 172.574L747.597 169.548C748.605 170.725 749.277 172.238 749.445 174.087H745.077ZM737.853 179.466L740.877 176.44C741.213 176.608 741.549 176.776 742.053 176.944V181.315C740.373 180.979 738.861 180.474 737.853 179.466ZM744.069 172.238C743.733 171.902 743.229 171.733 742.557 171.733V167.363C744.237 167.363 745.917 168.035 747.093 169.212L744.069 172.238ZM739.869 174.087H735.501C735.501 172.406 736.173 170.893 737.181 169.716L740.205 172.742C740.037 173.246 739.869 173.582 739.869 174.087ZM739.869 174.759C740.037 175.263 740.205 175.6 740.373 175.936L737.349 178.961C736.341 177.785 735.669 176.44 735.501 174.759H739.869ZM742.557 176.44C741.381 176.44 740.373 175.431 740.373 174.255C740.373 173.078 741.381 172.07 742.557 172.07C743.397 172.07 744.069 172.574 744.405 173.246V173.414C744.573 173.582 744.573 173.919 744.573 174.255C744.573 174.591 744.573 174.759 744.405 175.095C744.069 175.768 743.397 176.44 742.557 176.44ZM742.557 176.776C743.061 176.776 743.397 176.608 743.733 176.44L746.757 179.466C745.581 180.474 744.069 181.147 742.557 181.147V176.776ZM742.053 167.363V171.733C741.549 171.901 741.045 172.07 740.709 172.406L737.685 169.38C738.693 168.203 740.205 167.363 742.053 167.363ZM747.429 179.13L744.405 176.104C744.741 175.768 744.909 175.263 745.077 174.759H749.445C749.277 176.44 748.437 177.953 747.429 179.13Z" fill="white"/>
</g>
<g class="is-hidden-eje">
<path d="M783.214 192.578C793.327 192.578 801.526 184.374 801.526 174.255C801.526 164.136 793.327 155.932 783.214 155.932C773.1 155.932 764.902 164.136 764.902 174.255C764.902 184.374 773.1 192.578 783.214 192.578Z" fill="#3B5266"/>
<path d="M770.782 174.255C770.782 169.38 773.47 165.346 777.502 163.16L776.83 162.152C772.462 164.505 769.438 169.044 769.438 174.255C769.438 179.466 772.462 184.005 776.83 186.358L777.502 185.349C773.47 183.164 770.782 178.962 770.782 174.255Z" fill="#76C1AA"/>
<path d="M789.43 162.152L788.926 163.16C792.958 165.178 795.814 169.38 795.814 174.255C795.814 179.13 792.958 183.332 788.926 185.349L789.43 186.358C793.798 184.005 796.822 179.466 796.822 174.255C796.822 168.876 793.798 164.337 789.43 162.152Z" fill="#76C1AA"/>
<path opacity="0.3" d="M783.214 176.945C784.698 176.945 785.902 175.74 785.902 174.255C785.902 172.77 784.698 171.566 783.214 171.566C781.729 171.566 780.526 172.77 780.526 174.255C780.526 175.74 781.729 176.945 783.214 176.945Z" fill="white"/>
<path opacity="0.3" d="M784.894 172.238L787.918 169.212C786.742 168.035 785.23 167.363 783.382 167.363V171.733C783.886 171.733 784.39 171.901 784.894 172.238Z" fill="white"/>
<path opacity="0.3" d="M785.734 174.087H790.102C790.102 172.406 789.43 170.725 788.254 169.548L785.23 172.574C785.566 173.078 785.734 173.582 785.734 174.087Z" fill="white"/>
<path opacity="0.3" d="M785.062 175.936L788.085 178.962C789.261 177.785 789.933 176.272 789.933 174.591H785.565C785.565 175.263 785.398 175.6 785.062 175.936Z" fill="white"/>
<path opacity="0.3" d="M781.534 176.272L778.51 179.298C779.686 180.306 781.03 180.979 782.71 180.979V176.608C782.374 176.776 781.87 176.608 781.534 176.272Z" fill="white"/>
<path opacity="0.3" d="M783.382 176.776V181.146C785.062 181.146 786.574 180.474 787.582 179.466L784.558 176.44C784.222 176.608 783.886 176.776 783.382 176.776Z" fill="white"/>
<path opacity="0.3" d="M781.03 172.742L778.006 169.717C776.998 170.893 776.326 172.406 776.326 174.087H780.694C780.526 173.582 780.694 173.246 781.03 172.742Z" fill="white"/>
<path opacity="0.3" d="M780.526 174.759H776.158C776.326 176.44 776.998 177.785 778.006 178.961L781.03 175.936C780.862 175.599 780.694 175.263 780.526 174.759Z" fill="white"/>
<path opacity="0.3" d="M782.71 171.565V167.195C781.03 167.363 779.518 168.035 778.342 169.044L781.366 172.07C781.702 171.901 782.206 171.733 782.71 171.565Z" fill="white"/>
<path d="M783.382 166.354C782.878 166.354 782.206 166.354 781.702 166.523C778.006 167.195 775.318 170.389 775.318 174.255C775.318 178.625 778.846 182.155 783.214 182.155C785.398 182.155 787.414 181.315 788.758 179.802C790.27 178.289 791.11 176.44 791.11 174.255C791.11 169.884 787.582 166.354 783.382 166.354ZM785.734 174.087C785.734 173.582 785.566 173.078 785.23 172.574L788.254 169.548C789.262 170.725 789.934 172.238 790.102 174.087H785.734ZM778.51 179.466L781.534 176.44C781.87 176.608 782.206 176.776 782.71 176.944V181.315C781.198 180.979 779.686 180.474 778.51 179.466ZM784.894 172.238C784.558 171.902 784.054 171.733 783.382 171.733V167.363C785.062 167.363 786.742 168.035 787.918 169.212L784.894 172.238ZM780.526 174.087H776.158C776.158 172.406 776.83 170.893 777.838 169.716L780.862 172.742C780.694 173.246 780.526 173.582 780.526 174.087ZM780.526 174.759C780.694 175.263 780.862 175.6 781.03 175.936L778.006 178.961C776.998 177.785 776.326 176.44 776.158 174.759H780.526ZM783.214 176.44C782.038 176.44 781.03 175.431 781.03 174.255C781.03 173.078 782.038 172.07 783.214 172.07C784.054 172.07 784.726 172.574 785.062 173.246V173.414C785.23 173.582 785.23 173.919 785.23 174.255C785.23 174.591 785.23 174.759 785.062 175.095C784.894 175.768 784.054 176.44 783.214 176.44ZM783.382 176.776C783.886 176.776 784.222 176.608 784.558 176.44L787.582 179.466C786.406 180.474 784.894 181.147 783.382 181.147V176.776ZM782.71 167.363V171.733C782.206 171.901 781.702 172.07 781.366 172.406L778.342 169.38C779.518 168.203 781.03 167.363 782.71 167.363ZM788.086 179.13L785.062 176.104C785.398 175.768 785.566 175.263 785.734 174.759H790.102C789.934 176.44 789.262 177.953 788.086 179.13Z" fill="white"/>
</g>
<g class="is-hidden-eje">
<path d="M823.87 192.578C833.983 192.578 842.182 184.374 842.182 174.255C842.182 164.136 833.983 155.932 823.87 155.932C813.756 155.932 805.558 164.136 805.558 174.255C805.558 184.374 813.756 192.578 823.87 192.578Z" fill="#3B5266"/>
<path d="M811.606 174.255C811.606 169.38 814.294 165.346 818.326 163.16L817.654 162.152C813.286 164.505 810.262 169.044 810.262 174.255C810.262 179.466 813.286 184.005 817.654 186.358L818.326 185.349C814.294 183.164 811.606 178.962 811.606 174.255Z" fill="#76C1AA"/>
<path d="M830.254 162.152L829.75 163.16C833.782 165.178 836.638 169.38 836.638 174.255C836.638 179.13 833.782 183.332 829.75 185.349L830.254 186.358C834.622 184.005 837.646 179.466 837.646 174.255C837.646 168.876 834.622 164.337 830.254 162.152Z" fill="#76C1AA"/>
<path opacity="0.3" d="M823.87 176.945C825.354 176.945 826.558 175.74 826.558 174.255C826.558 172.77 825.354 171.566 823.87 171.566C822.385 171.566 821.182 172.77 821.182 174.255C821.182 175.74 822.385 176.945 823.87 176.945Z" fill="white"/>
<path opacity="0.3" d="M825.55 172.238L828.574 169.212C827.398 168.035 825.886 167.363 824.038 167.363V171.733C824.71 171.733 825.214 171.901 825.55 172.238Z" fill="white"/>
<path opacity="0.3" d="M826.558 174.087H830.926C830.926 172.406 830.254 170.725 829.078 169.548L826.054 172.574C826.39 173.078 826.558 173.582 826.558 174.087Z" fill="white"/>
<path opacity="0.3" d="M825.886 175.936L828.91 178.962C830.086 177.785 830.758 176.272 830.758 174.591H826.39C826.39 175.263 826.222 175.6 825.886 175.936Z" fill="white"/>
<path opacity="0.3" d="M822.358 176.272L819.333 179.298C820.51 180.306 821.854 180.979 823.534 180.979V176.608C823.03 176.776 822.694 176.608 822.358 176.272Z" fill="white"/>
<path opacity="0.3" d="M824.038 176.776V181.146C825.718 181.146 827.23 180.474 828.238 179.466L825.214 176.44C825.046 176.608 824.542 176.776 824.038 176.776Z" fill="white"/>
<path opacity="0.3" d="M821.686 172.742L818.661 169.717C817.653 170.893 816.981 172.406 816.981 174.087H821.35C821.35 173.582 821.518 173.246 821.686 172.742Z" fill="white"/>
<path opacity="0.3" d="M821.349 174.759H816.981C817.149 176.44 817.821 177.785 818.829 178.961L821.853 175.936C821.685 175.599 821.349 175.263 821.349 174.759Z" fill="white"/>
<path opacity="0.3" d="M823.365 171.565V167.195C821.685 167.363 820.174 168.035 818.998 169.044L822.021 172.07C822.525 171.901 822.861 171.733 823.365 171.565Z" fill="white"/>
<path d="M824.038 166.354C823.534 166.354 822.862 166.354 822.358 166.523C818.662 167.195 815.974 170.389 815.974 174.255C815.974 178.625 819.502 182.155 823.87 182.155C826.054 182.155 828.07 181.315 829.414 179.802C830.926 178.289 831.766 176.44 831.766 174.255C831.934 169.884 828.406 166.354 824.038 166.354ZM826.558 174.087C826.558 173.582 826.39 173.078 826.054 172.574L829.078 169.548C830.086 170.725 830.758 172.238 830.926 174.087H826.558ZM819.334 179.466L822.358 176.44C822.694 176.608 823.03 176.776 823.534 176.944V181.315C821.854 180.979 820.342 180.474 819.334 179.466ZM825.55 172.238C825.214 171.902 824.71 171.733 824.038 171.733V167.363C825.718 167.363 827.398 168.035 828.574 169.212L825.55 172.238ZM821.35 174.087H816.982C816.982 172.406 817.654 170.893 818.662 169.716L821.686 172.742C821.518 173.246 821.35 173.582 821.35 174.087ZM821.35 174.759C821.518 175.263 821.686 175.6 821.854 175.936L818.83 178.961C817.822 177.785 817.15 176.44 816.982 174.759H821.35ZM823.87 176.44C822.694 176.44 821.686 175.431 821.686 174.255C821.686 173.078 822.694 172.07 823.87 172.07C824.71 172.07 825.382 172.574 825.718 173.246V173.414C825.886 173.582 825.886 173.919 825.886 174.255C825.886 174.591 825.886 174.759 825.718 175.095C825.55 175.768 824.878 176.44 823.87 176.44ZM824.038 176.776C824.542 176.776 824.878 176.608 825.214 176.44L828.238 179.466C827.062 180.474 825.55 181.147 824.038 181.147V176.776ZM823.366 167.363V171.733C822.862 171.901 822.358 172.07 822.022 172.406L818.998 169.38C820.174 168.203 821.686 167.363 823.366 167.363ZM828.91 179.13L825.886 176.104C826.222 175.768 826.39 175.263 826.558 174.759H830.926C830.59 176.44 829.918 177.953 828.91 179.13Z" fill="white"/>
</g>
<g class="is-hidden-eje">
<path d="M864.694 192.578C874.808 192.578 883.007 184.374 883.007 174.255C883.007 164.136 874.808 155.932 864.694 155.932C854.581 155.932 846.382 164.136 846.382 174.255C846.382 184.374 854.581 192.578 864.694 192.578Z" fill="#3B5266"/>
<path d="M852.262 174.255C852.262 169.38 854.95 165.346 858.982 163.16L858.31 162.152C853.942 164.505 850.918 169.044 850.918 174.255C850.918 179.466 853.942 184.005 858.31 186.358L858.982 185.349C854.95 183.164 852.262 178.962 852.262 174.255Z" fill="#76C1AA"/>
<path d="M870.911 162.152L870.407 163.16C874.439 165.178 877.295 169.38 877.295 174.255C877.295 179.13 874.439 183.332 870.407 185.349L870.911 186.358C875.279 184.005 878.303 179.466 878.303 174.255C878.303 168.876 875.279 164.337 870.911 162.152Z" fill="#76C1AA"/>
<path opacity="0.3" d="M864.694 176.945C866.179 176.945 867.382 175.74 867.382 174.255C867.382 172.77 866.179 171.566 864.694 171.566C863.21 171.566 862.006 172.77 862.006 174.255C862.006 175.74 863.21 176.945 864.694 176.945Z" fill="white"/>
<path opacity="0.3" d="M866.207 172.238L869.231 169.212C868.055 168.035 866.543 167.363 864.695 167.363V171.733C865.367 171.733 865.871 171.901 866.207 172.238Z" fill="white"/>
<path opacity="0.3" d="M867.214 174.087H871.583C871.583 172.406 870.91 170.725 869.734 169.548L866.71 172.574C867.046 173.078 867.214 173.582 867.214 174.087Z" fill="white"/>
<path opacity="0.3" d="M866.542 175.936L869.567 178.962C870.743 177.785 871.414 176.272 871.414 174.591H867.046C867.046 175.263 866.878 175.6 866.542 175.936Z" fill="white"/>
<path opacity="0.3" d="M863.015 176.272L859.991 179.298C861.167 180.306 862.511 180.979 864.191 180.979V176.608C863.687 176.776 863.351 176.608 863.015 176.272Z" fill="white"/>
<path opacity="0.3" d="M864.862 176.776V181.146C866.542 181.146 868.054 180.474 869.062 179.466L866.038 176.44C865.702 176.608 865.198 176.776 864.862 176.776Z" fill="white"/>
<path opacity="0.3" d="M862.343 172.742L859.319 169.717C858.311 170.893 857.639 172.406 857.639 174.087H862.007C862.007 173.582 862.175 173.246 862.343 172.742Z" fill="white"/>
<path opacity="0.3" d="M862.007 174.759H857.807C857.975 176.44 858.647 177.785 859.655 178.961L862.679 175.936C862.343 175.599 862.175 175.263 862.007 174.759Z" fill="white"/>
<path opacity="0.3" d="M864.19 171.565V167.195C862.51 167.363 860.998 168.035 859.822 169.044L862.846 172.07C863.182 171.901 863.686 171.733 864.19 171.565Z" fill="white"/>
<path d="M864.694 166.354C864.19 166.354 863.518 166.354 863.014 166.523C859.318 167.195 856.63 170.389 856.63 174.255C856.63 178.625 860.158 182.155 864.527 182.155C866.711 182.155 868.727 181.315 870.071 179.802C871.583 178.289 872.423 176.44 872.423 174.255C872.591 169.884 869.063 166.354 864.694 166.354ZM867.215 174.087C867.215 173.582 867.047 173.078 866.711 172.574L869.735 169.548C870.743 170.725 871.415 172.238 871.583 174.087H867.215ZM859.99 179.466L863.014 176.44C863.35 176.608 863.687 176.776 864.191 176.944V181.315C862.51 180.979 861.166 180.474 859.99 179.466ZM866.207 172.238C865.871 171.902 865.367 171.733 864.694 171.733V167.363C866.375 167.363 868.055 168.035 869.231 169.212L866.207 172.238ZM862.006 174.087H857.638C857.638 172.406 858.31 170.893 859.318 169.716L862.343 172.742C862.175 173.246 862.006 173.582 862.006 174.087ZM862.006 174.759C862.174 175.263 862.342 175.6 862.51 175.936L859.486 178.961C858.478 177.785 857.806 176.44 857.638 174.759H862.006ZM864.694 176.44C863.518 176.44 862.51 175.431 862.51 174.255C862.51 173.078 863.518 172.07 864.694 172.07C865.535 172.07 866.207 172.574 866.543 173.246V173.414C866.711 173.582 866.711 173.919 866.711 174.255C866.711 174.591 866.711 174.759 866.543 175.095C866.375 175.768 865.535 176.44 864.694 176.44ZM864.863 176.776C865.367 176.776 865.703 176.608 866.039 176.44L869.063 179.466C867.887 180.474 866.375 181.147 864.863 181.147V176.776ZM864.191 167.363V171.733C863.687 171.901 863.183 172.07 862.847 172.406L859.822 169.38C860.998 168.203 862.51 167.363 864.191 167.363ZM869.567 179.13L866.543 176.104C866.879 175.768 867.047 175.263 867.215 174.759H871.583C871.415 176.44 870.743 177.953 869.567 179.13Z" fill="white"/>
</g>
<path d="M105.833 158.622C105.833 158.622 106.001 158.622 105.833 158.622C106.001 158.622 106.001 158.622 105.833 158.622C106.001 158.622 107.177 158.454 108.017 157.781C108.857 156.773 109.193 155.092 108.521 154.251C108.185 153.915 107.681 153.747 107.177 153.747C106.673 153.915 106.337 154.083 106.169 154.588C106.169 154.756 106.169 154.756 106.169 154.924C106.337 154.924 106.337 154.924 106.505 154.924C106.673 154.756 106.841 154.756 107.009 154.756C107.177 154.756 107.177 154.924 107.345 155.092C107.345 155.26 107.345 155.428 107.177 155.596L107.009 155.764C106.673 155.764 106.169 155.428 105.665 154.924C105.161 154.419 104.489 154.083 103.985 153.747C103.145 153.411 100.625 152.907 98.9454 154.083C98.9454 154.083 97.9374 154.924 97.7694 155.596C97.4334 156.269 97.4334 157.109 97.6014 157.613C97.4334 157.781 97.2654 157.949 97.2654 158.286C97.2654 158.79 97.7694 159.126 98.6094 159.294C98.6094 159.462 98.4414 159.462 98.4414 159.63C98.4414 160.135 99.1134 160.639 99.9534 160.639C100.625 160.639 101.129 160.471 101.297 160.135C101.465 160.471 101.969 160.639 102.641 160.639C103.481 160.639 104.153 160.135 104.153 159.63C104.153 159.462 104.153 159.294 103.985 159.294C104.489 159.294 104.825 159.126 105.161 158.79C105.161 158.79 105.161 158.79 105.329 158.79C105.161 158.79 105.497 158.622 105.833 158.622ZM107.009 157.781C106.841 157.95 106.505 157.949 106.337 157.949C106.505 156.941 105.833 155.932 105.665 155.428C106.001 155.764 106.337 155.932 106.673 156.101C106.841 156.437 107.009 157.109 107.009 157.781ZM105.161 158.286C105.161 158.117 104.993 157.781 104.825 157.445C104.489 156.773 103.817 155.764 102.137 155.26C99.9534 154.588 98.9454 154.924 98.4414 155.26C98.4414 155.26 98.4414 155.26 98.6094 155.092C98.7774 154.924 98.9454 154.756 99.1134 154.588C99.7854 154.251 100.961 154.251 102.641 154.756C104.825 155.428 105.497 156.941 105.665 157.613C105.665 157.781 105.833 158.117 105.833 158.286C105.833 158.286 105.833 158.286 105.665 158.286C105.329 158.286 105.329 158.286 105.161 158.286ZM101.801 156.269C101.465 156.269 101.297 156.437 101.129 156.605C100.793 156.268 100.457 156.101 99.7854 156.101C99.6174 156.101 99.4494 156.101 99.2814 156.101C99.7854 155.932 100.457 155.932 101.129 155.932C101.465 156.1 101.633 156.1 101.801 156.269ZM99.7854 156.605C100.289 156.605 100.793 156.941 100.793 157.109C100.793 157.277 100.625 157.445 100.457 157.445H100.289C100.121 157.445 99.9534 157.445 99.7854 157.445C99.2814 157.445 98.7774 157.109 98.7774 156.941C98.7774 156.773 99.2814 156.605 99.7854 156.605ZM100.457 157.949H100.625C100.793 157.949 100.793 157.949 100.961 157.949C101.633 157.949 101.969 158.286 101.969 158.454C101.969 158.622 101.465 158.958 100.961 158.958C100.289 158.958 99.9534 158.622 99.9534 158.454C100.121 158.286 100.289 158.118 100.457 157.949ZM101.297 157.109C101.297 156.941 101.801 156.605 102.305 156.605C102.473 156.605 102.473 156.605 102.641 156.605C102.977 156.605 103.313 156.941 103.313 157.109C103.313 157.277 103.145 157.445 102.809 157.613C102.641 157.613 102.473 157.613 102.305 157.613C101.801 157.613 101.297 157.277 101.297 157.109ZM98.2734 157.445C98.2734 157.277 98.2734 157.277 98.2734 157.109C98.2734 156.941 98.4414 156.773 98.6094 156.605C98.4414 156.773 98.4414 156.941 98.4414 157.109C98.4414 157.277 98.4414 157.445 98.6094 157.445C98.4414 157.445 98.2734 157.445 98.2734 157.445ZM97.4334 158.454C97.4334 158.286 97.6014 158.286 97.7694 158.118C97.9374 158.118 98.1054 157.949 98.2734 157.949C98.4414 157.949 98.4414 157.949 98.6094 157.949C99.2814 157.949 99.6174 158.286 99.6174 158.454C99.6174 158.622 99.4494 158.622 99.4494 158.79C99.2814 158.958 98.9454 158.958 98.6094 158.958C97.9374 158.958 97.4334 158.622 97.4334 158.454ZM99.7854 160.303C99.1134 160.303 98.7774 160.135 98.7774 159.798C98.7774 159.63 99.2814 159.294 99.7854 159.294C100.121 159.294 100.289 159.294 100.625 159.462C100.625 159.462 100.793 159.63 100.793 159.798C100.793 160.135 100.289 160.303 99.7854 160.303ZM102.473 160.303C101.801 160.303 101.465 159.967 101.465 159.798C101.465 159.798 101.465 159.63 101.633 159.63C101.801 159.462 102.137 159.294 102.473 159.294C102.641 159.294 102.809 159.294 102.977 159.294C103.313 159.462 103.481 159.63 103.481 159.798C103.481 160.135 102.977 160.303 102.473 160.303ZM104.657 158.622C104.489 158.79 104.153 158.958 103.649 158.958C103.481 158.958 103.313 158.958 103.145 158.958C102.809 158.79 102.641 158.622 102.641 158.454C102.641 158.286 102.809 158.118 103.145 157.949C103.313 157.949 103.481 157.949 103.649 157.949C103.817 157.949 103.817 157.949 103.985 157.949C104.321 158.118 104.657 158.286 104.657 158.622C104.657 158.454 104.657 158.622 104.657 158.622Z" fill="white"/>
<path d="M117.93 153.243V140.972C117.93 140.804 117.93 140.635 117.762 140.635C117.594 140.635 117.426 140.635 117.426 140.635L116.082 141.308V136.937C116.082 136.769 116.082 136.601 115.914 136.601C115.746 136.601 115.578 136.601 115.578 136.601L109.53 140.467H109.361C108.353 140.804 107.345 140.972 106.505 140.972C103.649 140.972 102.641 139.123 102.641 139.123C102.641 138.954 102.473 138.954 102.305 138.954C102.137 138.954 101.969 139.123 101.969 139.123C101.969 139.123 100.961 140.972 98.1054 140.972C97.2654 140.972 96.2574 140.804 95.2494 140.467L89.2014 136.601C89.0334 136.601 88.8654 136.601 88.6974 136.601C88.5294 136.601 88.5294 136.769 88.5294 136.937V141.308L87.3534 140.635C87.1854 140.635 87.0174 140.635 87.0174 140.635C86.8494 140.635 86.8494 140.804 86.8494 140.972V153.243C86.8494 153.411 86.8494 156.437 89.3694 158.79C91.5534 160.975 94.9134 162.152 99.4494 162.152C99.4494 162.152 99.4494 162.152 99.6174 162.152C101.297 162.656 102.305 162.992 102.305 164.505C102.305 164.673 102.473 164.841 102.641 164.841C102.809 164.841 102.977 164.673 102.977 164.505C102.977 163.16 103.985 162.656 105.665 162.152H105.833C110.369 162.152 113.73 160.975 115.914 158.79C117.93 156.268 117.93 153.411 117.93 153.243ZM96.4254 149.545C96.9294 149.377 97.0974 148.368 97.0974 148.368C97.0974 148.368 97.9374 148.872 98.4414 148.704C98.4414 148.872 98.4414 149.377 98.4414 149.377C98.4414 149.377 98.2734 149.713 98.4414 150.049C98.6094 150.217 98.6094 150.553 98.6094 150.889C98.2734 150.889 98.1054 150.889 97.7694 150.889C97.2654 150.889 96.7614 150.889 96.4254 150.889C96.4254 150.217 96.4254 150.049 96.4254 149.545ZM105.833 148.872H106.841C106.841 149.376 106.841 149.881 107.009 150.721L105.833 150.553C105.833 149.881 105.833 149.376 105.833 148.872ZM113.898 150.553C113.226 151.226 112.218 151.562 111.042 151.562C110.705 150.721 110.537 149.881 110.537 149.208L115.074 146.687C115.242 147.023 115.242 149.208 113.898 150.553ZM89.2014 146.687L93.7374 149.208C93.7374 149.881 93.5694 150.721 93.2334 151.562C92.0574 151.562 91.2174 151.226 90.5454 150.553C89.2014 149.208 89.0334 147.023 89.2014 146.687ZM117.09 141.644V149.208L115.074 150.385C116.082 148.704 116.082 146.855 116.082 146.519V142.148L117.09 141.644ZM115.242 141.812L111.882 143.829C111.714 143.661 111.209 142.989 110.033 141.14L115.242 137.778V141.812ZM106.337 141.812C107.177 141.812 108.185 141.644 109.193 141.308C110.369 142.989 110.874 143.829 111.21 144.165C110.706 145.006 109.194 147.864 110.37 151.394C109.866 150.889 108.689 150.721 107.513 150.721C107.345 149.881 107.345 149.376 107.345 148.872H109.193C109.361 148.872 109.361 148.536 109.361 148.2V146.519C109.361 145.174 108.689 145.174 108.689 145.174C108.689 145.174 108.185 145.174 108.017 144.502C107.849 143.829 107.345 143.325 106.841 143.325C106.337 143.325 105.329 143.661 104.657 144.165C104.153 144.333 104.153 144.67 104.153 145.174C103.985 146.351 103.649 146.183 103.649 146.183C103.481 146.183 103.313 146.351 103.313 146.687V148.368C103.313 148.704 103.481 149.04 103.649 149.04H105.497C105.497 149.545 105.497 150.049 105.329 150.889C104.153 150.889 103.145 151.225 102.473 151.73V140.467C102.977 140.972 104.153 141.812 106.337 141.812ZM101.465 140.467V151.226C100.961 150.889 100.121 150.721 99.1134 150.721C98.9454 150.217 98.9454 148.872 99.1134 148.536C99.9534 148.368 99.9534 147.527 99.9534 146.855C99.9534 146.351 99.7854 144.502 99.7854 144.502L100.289 144.334C100.457 144.334 100.457 144.333 100.457 144.165C100.457 143.997 100.457 143.829 100.457 143.829L99.9534 143.661C99.7854 143.493 99.6174 143.325 99.4494 143.325C99.2814 143.325 98.9454 143.325 98.7774 143.661C98.6094 143.493 98.2734 143.661 98.1054 143.661C98.1054 143.661 98.1054 144.502 98.9454 144.334L99.1134 146.519C99.1134 146.519 99.1134 147.023 98.6094 146.855C98.1054 146.687 97.0974 146.351 96.4254 146.519C96.0894 146.687 95.5854 146.855 95.2494 147.696C94.9134 148.536 95.4174 148.2 95.4174 148.2L95.9214 147.864C95.9214 147.864 96.2574 148.536 95.9214 149.04C95.5854 149.376 95.7534 149.713 95.7534 149.713C95.7534 149.713 95.9214 150.553 95.9214 150.889C95.0814 150.889 94.4094 151.226 93.9054 151.394C94.9134 147.864 93.5694 145.006 93.0654 144.165C93.4014 143.829 93.9054 142.989 95.0814 141.308C96.0894 141.644 97.0974 141.812 97.9374 141.812C99.6174 141.812 100.793 141.14 101.465 140.467ZM89.2014 137.778L94.4094 141.14C93.4014 142.821 92.7294 143.493 92.5614 143.829L89.2014 141.98V137.778ZM88.1934 142.148V146.519C88.1934 146.687 88.1934 148.704 89.2014 150.385L87.1854 149.208V141.644L88.1934 142.148ZM87.3534 154.419L92.3934 157.277C92.8974 158.622 93.7374 159.462 95.0814 160.639C95.4174 160.975 95.9214 161.143 96.2574 161.311C93.2334 160.975 90.8814 159.966 89.3694 158.286C88.1934 156.941 87.6894 155.428 87.3534 154.419ZM102.137 162.992C101.465 161.984 100.289 161.648 98.9454 161.311C97.7694 160.975 96.5934 160.639 95.5854 159.798C93.0654 157.949 92.2254 156.268 93.5694 152.402H110.706C112.05 156.268 111.21 157.781 108.689 159.798C107.681 160.471 106.505 160.975 105.329 161.143C103.985 161.648 102.809 162.152 102.137 162.992ZM114.906 158.286C113.226 159.966 110.874 160.975 107.849 161.311C108.353 161.143 108.689 160.807 109.025 160.639C110.37 159.63 111.377 158.622 111.713 157.445C111.713 157.445 111.714 157.445 111.882 157.445L116.922 154.587C116.754 155.428 116.25 156.941 114.906 158.286Z" fill="white"/>
<path d="M102.137 138.618C104.489 138.618 106.169 137.442 106.169 135.929C106.169 134.416 104.321 133.239 102.137 133.239C99.7853 133.239 98.1053 134.416 98.1053 135.929C97.9373 137.442 99.7853 138.618 102.137 138.618ZM102.137 134.248C103.313 134.248 104.153 134.752 104.153 135.257C104.153 135.761 103.649 136.097 102.977 136.265C102.305 136.433 102.473 136.769 102.137 136.937C101.801 136.769 101.969 136.433 101.297 136.265C100.625 136.097 100.121 135.761 100.121 135.257C100.121 134.752 100.961 134.248 102.137 134.248Z" fill="white"/>
</svg>
