<svg class="tracto-dolly-cama-baja transport-item is-hidden" width="864" height="129" viewBox="0 0 864 129" fill="none" xmlns="http://www.w3.org/2000/svg">
    <path d="M250.507 62.8719H338.203L366.595 88.5907H552.236V104.392H357.187L331.315 81.6987H250.507V62.8719Z" fill="#DCE9EF" stroke="#65819B" stroke-miterlimit="10"/>
    <path d="M174.738 88.4226V91.6164H150.714V85.7331H139.962V10.9299H135.426V0.00360107H129.546V10.5937H127.362V76.4877H122.658V17.3176H72.2574L72.5934 25.3863H78.8095L64.0254 61.0228H10.2651V98.3403H0.520996V107.586H9.76105V111.788H160.962V107.249H321.907V88.4226H174.738ZM100.482 61.1909H79.4815L89.0575 26.2267H100.482V61.1909Z" fill="#57C14C"/>
    <g class="is-hidden-eje">
        <path d="M36.9772 128.598C47.0907 128.598 55.2893 120.394 55.2893 110.275C55.2893 100.156 47.0907 91.9527 36.9772 91.9527C26.8636 91.9527 18.665 100.156 18.665 110.275C18.665 120.394 26.8636 128.598 36.9772 128.598Z" fill="#3B5266"/>
        <path d="M24.5452 110.275C24.5452 105.4 27.2332 101.366 31.2652 99.1808L30.5932 98.1722C26.2252 100.526 23.2012 105.064 23.2012 110.275C23.2012 115.486 26.2252 120.025 30.5932 122.378L31.2652 121.37C27.4012 119.352 24.5452 115.15 24.5452 110.275Z" fill="#76C1AA"/>
        <path d="M43.3612 98.1722L42.8572 99.1808C46.8892 101.198 49.7452 105.4 49.7452 110.275C49.7452 115.15 46.8892 119.352 42.8572 121.37L43.3612 122.378C47.7292 120.025 50.7533 115.486 50.7533 110.275C50.5852 105.064 47.7292 100.526 43.3612 98.1722Z" fill="#76C1AA"/>
        <path opacity="0.3" d="M36.9771 112.965C38.4616 112.965 39.6651 111.761 39.6651 110.275C39.6651 108.79 38.4616 107.586 36.9771 107.586C35.4925 107.586 34.2891 108.79 34.2891 110.275C34.2891 111.761 35.4925 112.965 36.9771 112.965Z" fill="white"/>
        <path opacity="0.3" d="M38.657 108.258L41.6811 105.232C40.505 104.056 38.993 103.383 37.145 103.383V107.754C37.649 107.754 38.153 107.922 38.657 108.258Z" fill="white"/>
        <path opacity="0.3" d="M39.6651 110.275H44.0332C44.0332 108.594 43.3612 106.913 42.1852 105.737L39.1611 108.762C39.3291 109.267 39.4971 109.771 39.6651 110.275Z" fill="white"/>
        <path opacity="0.3" d="M38.8252 112.124L41.8492 115.15C43.0252 113.973 43.6972 112.461 43.6972 110.78H39.3292C39.4972 111.452 39.1612 111.788 38.8252 112.124Z" fill="white"/>
        <path opacity="0.3" d="M35.4652 112.46L32.4412 115.486C33.6172 116.495 34.9612 117.167 36.6412 117.167V112.797C36.1372 112.797 35.8012 112.629 35.4652 112.46Z" fill="white"/>
        <path opacity="0.3" d="M37.145 112.965V117.335C38.825 117.335 40.3371 116.663 41.3451 115.654L38.321 112.629C37.985 112.797 37.649 112.965 37.145 112.965Z" fill="white"/>
        <path opacity="0.3" d="M34.7932 108.93L31.7691 105.905C30.7611 107.081 30.0891 108.594 30.0891 110.275H34.4571C34.2891 109.771 34.4571 109.267 34.7932 108.93Z" fill="white"/>
        <path opacity="0.3" d="M34.4572 110.948H30.0891C30.2571 112.629 30.9291 113.973 31.9371 115.15L34.9612 112.124C34.6252 111.62 34.4572 111.284 34.4572 110.948Z" fill="white"/>
        <path opacity="0.3" d="M36.473 107.754V103.383C34.793 103.551 33.281 104.224 32.105 105.232L35.129 108.258C35.465 108.09 35.969 107.922 36.473 107.754Z" fill="white"/>
        <path d="M37.1451 102.375C36.6411 102.375 35.9691 102.375 35.4651 102.543C31.7691 103.215 29.0811 106.409 29.0811 110.275C29.0811 114.646 32.6091 118.176 36.9771 118.176C39.1611 118.176 41.1771 117.335 42.5211 115.822C44.0332 114.31 44.8732 112.46 44.8732 110.275C45.0412 105.905 41.5131 102.375 37.1451 102.375ZM39.6651 110.275C39.6651 109.771 39.4971 109.267 39.1611 108.762L42.1851 105.737C43.1932 106.913 43.8652 108.426 44.0332 110.275H39.6651ZM32.2731 115.486L35.2971 112.46C35.6331 112.629 35.9691 112.797 36.4731 112.965V117.335C34.9611 117.167 33.4491 116.495 32.2731 115.486ZM38.6571 108.258C38.3211 107.922 37.8171 107.754 37.1451 107.754V103.383C38.8251 103.383 40.5051 104.056 41.6811 105.232L38.6571 108.258ZM34.2891 110.275H29.9211C29.9211 108.594 30.5931 107.081 31.6011 105.905L34.6251 108.93C34.4571 109.267 34.2891 109.771 34.2891 110.275ZM34.4571 110.948C34.6251 111.452 34.7931 111.788 34.9611 112.124L31.9371 115.15C30.9291 113.973 30.2571 112.629 30.0891 110.948H34.4571ZM36.9771 112.46C35.8011 112.46 34.7931 111.452 34.7931 110.275C34.7931 109.099 35.8011 108.09 36.9771 108.09C37.8171 108.09 38.4891 108.594 38.8251 109.267V109.435C38.9931 109.603 38.9931 109.939 38.9931 110.275C38.9931 110.611 38.9931 110.78 38.8251 111.116C38.6571 111.956 37.8171 112.46 36.9771 112.46ZM37.1451 112.965C37.6491 112.965 37.9851 112.797 38.3211 112.629L41.3451 115.654C40.1691 116.663 38.6571 117.335 37.1451 117.335V112.965ZM36.4731 103.383V107.754C35.9691 107.922 35.4651 108.09 35.1291 108.426L32.1051 105.4C33.2811 104.224 34.7931 103.551 36.4731 103.383ZM42.0171 115.15L38.9931 112.124C39.3291 111.788 39.4971 111.284 39.6651 110.779H44.0332C43.6972 112.629 43.0251 114.141 42.0171 115.15Z" fill="white"/>
    </g>
    <g class="is-hidden-eje">
        <path d="M203.13 128.598C213.244 128.598 221.442 120.394 221.442 110.275C221.442 100.156 213.244 91.9527 203.13 91.9527C193.017 91.9527 184.818 100.156 184.818 110.275C184.818 120.394 193.017 128.598 203.13 128.598Z" fill="#3B5266"/>
        <path d="M190.698 110.275C190.698 105.4 193.386 101.366 197.418 99.1808L196.746 98.1722C192.378 100.526 189.354 105.064 189.354 110.275C189.354 115.486 192.378 120.025 196.746 122.378L197.418 121.37C193.386 119.352 190.698 115.15 190.698 110.275Z" fill="#76C1AA"/>
        <path d="M209.347 98.1722L208.843 99.1808C212.875 101.198 215.731 105.4 215.731 110.275C215.731 115.15 212.875 119.352 208.843 121.37L209.347 122.378C213.715 120.025 216.739 115.486 216.739 110.275C216.739 105.064 213.715 100.526 209.347 98.1722Z" fill="#76C1AA"/>
        <path opacity="0.3" d="M203.13 112.965C204.615 112.965 205.818 111.761 205.818 110.275C205.818 108.79 204.615 107.586 203.13 107.586C201.646 107.586 200.442 108.79 200.442 110.275C200.442 111.761 201.646 112.965 203.13 112.965Z" fill="white"/>
        <path opacity="0.3" d="M204.81 108.258L207.834 105.232C206.658 104.056 205.146 103.383 203.298 103.383V107.754C203.802 107.754 204.306 107.922 204.81 108.258Z" fill="white"/>
        <path opacity="0.3" d="M205.65 110.275H210.018C210.018 108.594 209.346 106.913 208.17 105.737L205.146 108.762C205.482 109.267 205.65 109.771 205.65 110.275Z" fill="white"/>
        <path opacity="0.3" d="M204.978 112.124L208.002 115.15C209.178 113.973 209.85 112.461 209.85 110.78H205.482C205.482 111.452 205.314 111.788 204.978 112.124Z" fill="white"/>
        <path opacity="0.3" d="M201.45 112.46L198.426 115.486C199.602 116.495 200.946 117.167 202.626 117.167V112.797C202.29 112.797 201.786 112.629 201.45 112.46Z" fill="white"/>
        <path opacity="0.3" d="M203.298 112.965V117.335C204.978 117.335 206.49 116.663 207.498 115.654L204.474 112.629C204.138 112.797 203.802 112.965 203.298 112.965Z" fill="white"/>
        <path opacity="0.3" d="M200.946 108.93L197.922 105.905C196.914 107.081 196.242 108.594 196.242 110.275H200.61C200.442 109.771 200.61 109.267 200.946 108.93Z" fill="white"/>
        <path opacity="0.3" d="M200.442 110.948H196.074C196.242 112.629 196.914 113.973 197.922 115.15L200.946 112.124C200.778 111.62 200.61 111.284 200.442 110.948Z" fill="white"/>
        <path opacity="0.3" d="M202.626 107.754V103.383C200.946 103.551 199.434 104.224 198.258 105.232L201.282 108.258C201.618 108.09 202.122 107.922 202.626 107.754Z" fill="white"/>
        <path d="M203.13 102.375C202.626 102.375 201.954 102.375 201.45 102.543C197.754 103.215 195.066 106.409 195.066 110.275C195.066 114.646 198.594 118.176 202.962 118.176C205.146 118.176 207.162 117.335 208.506 115.822C210.018 114.31 210.858 112.46 210.858 110.275C211.026 105.905 207.498 102.375 203.13 102.375ZM205.65 110.275C205.65 109.771 205.482 109.267 205.146 108.762L208.17 105.737C209.178 106.913 209.85 108.426 210.018 110.275H205.65ZM198.426 115.486L201.45 112.46C201.786 112.629 202.122 112.797 202.626 112.965V117.335C200.946 117.167 199.602 116.495 198.426 115.486ZM204.81 108.258C204.474 107.922 203.97 107.754 203.298 107.754V103.383C204.978 103.383 206.658 104.056 207.834 105.232L204.81 108.258ZM200.442 110.275H196.074C196.074 108.594 196.746 107.081 197.754 105.905L200.778 108.93C200.61 109.267 200.442 109.771 200.442 110.275ZM200.442 110.948C200.61 111.452 200.778 111.788 200.946 112.124L197.922 115.15C196.914 113.973 196.242 112.629 196.074 110.948H200.442ZM203.13 112.46C201.954 112.46 200.946 111.452 200.946 110.275C200.946 109.099 201.954 108.09 203.13 108.09C203.97 108.09 204.642 108.594 204.978 109.267V109.435C205.146 109.603 205.146 109.939 205.146 110.275C205.146 110.611 205.146 110.78 204.978 111.116C204.81 111.956 203.97 112.46 203.13 112.46ZM203.298 112.965C203.802 112.965 204.138 112.797 204.474 112.629L207.498 115.654C206.322 116.663 204.81 117.335 203.298 117.335V112.965ZM202.626 103.383V107.754C202.122 107.922 201.618 108.09 201.282 108.426L198.258 105.4C199.434 104.224 200.946 103.551 202.626 103.383ZM208.002 115.15L204.978 112.124C205.314 111.788 205.482 111.284 205.65 110.779H210.018C209.85 112.629 209.178 114.141 208.002 115.15Z" fill="white"/>
    </g>
    <g class="is-hidden-eje">
        <path d="M247.482 128.598C257.596 128.598 265.795 120.394 265.795 110.275C265.795 100.156 257.596 91.9527 247.482 91.9527C237.369 91.9527 229.17 100.156 229.17 110.275C229.17 120.394 237.369 128.598 247.482 128.598Z" fill="#3B5266"/>
        <path d="M235.051 110.275C235.051 105.4 237.739 101.366 241.771 99.1808L241.099 98.1722C236.731 100.526 233.707 105.064 233.707 110.275C233.707 115.486 236.731 120.025 241.099 122.378L241.771 121.37C237.739 119.352 235.051 115.15 235.051 110.275Z" fill="#76C1AA"/>
        <path d="M253.699 98.1722L253.195 99.1808C257.227 101.198 260.083 105.4 260.083 110.275C260.083 115.15 257.227 119.352 253.195 121.37L253.699 122.378C258.067 120.025 261.091 115.486 261.091 110.275C261.091 105.064 258.067 100.526 253.699 98.1722Z" fill="#76C1AA"/>
        <path opacity="0.3" d="M247.483 112.965C248.967 112.965 250.171 111.761 250.171 110.275C250.171 108.79 248.967 107.586 247.483 107.586C245.998 107.586 244.795 108.79 244.795 110.275C244.795 111.761 245.998 112.965 247.483 112.965Z" fill="white"/>
        <path opacity="0.3" d="M248.994 108.258L252.018 105.232C250.842 104.056 249.33 103.383 247.482 103.383V107.754C248.154 107.754 248.658 107.922 248.994 108.258Z" fill="white"/>
        <path opacity="0.3" d="M250.003 110.275H254.371C254.371 108.594 253.699 106.913 252.523 105.737L249.499 108.762C249.835 109.267 250.003 109.771 250.003 110.275Z" fill="white"/>
        <path opacity="0.3" d="M249.331 112.124L252.355 115.15C253.531 113.973 254.203 112.461 254.203 110.78H249.835C249.835 111.452 249.667 111.788 249.331 112.124Z" fill="white"/>
        <path opacity="0.3" d="M245.802 112.46L242.778 115.486C243.954 116.495 245.298 117.167 246.978 117.167V112.797C246.474 112.797 246.138 112.629 245.802 112.46Z" fill="white"/>
        <path opacity="0.3" d="M247.482 112.965V117.335C249.162 117.335 250.674 116.663 251.682 115.654L248.658 112.629C248.49 112.797 247.986 112.965 247.482 112.965Z" fill="white"/>
        <path opacity="0.3" d="M245.13 108.93L242.107 105.905C241.099 107.081 240.427 108.594 240.427 110.275H244.794C244.794 109.771 244.962 109.267 245.13 108.93Z" fill="white"/>
        <path opacity="0.3" d="M244.795 110.948H240.427C240.595 112.629 241.267 113.973 242.275 115.15L245.299 112.124C245.131 111.62 244.795 111.284 244.795 110.948Z" fill="white"/>
        <path opacity="0.3" d="M246.979 107.754V103.383C245.299 103.551 243.787 104.224 242.611 105.232L245.635 108.258C245.971 108.09 246.307 107.922 246.979 107.754Z" fill="white"/>
        <path d="M247.483 102.375C246.979 102.375 246.307 102.375 245.803 102.543C242.106 103.215 239.418 106.409 239.418 110.275C239.418 114.646 242.946 118.176 247.315 118.176C249.499 118.176 251.515 117.335 252.859 115.822C254.371 114.31 255.211 112.46 255.211 110.275C255.379 105.905 251.851 102.375 247.483 102.375ZM250.003 110.275C250.003 109.771 249.835 109.267 249.499 108.762L252.523 105.737C253.531 106.913 254.203 108.426 254.371 110.275H250.003ZM242.778 115.486L245.803 112.46C246.139 112.629 246.475 112.797 246.979 112.965V117.335C245.299 117.167 243.786 116.495 242.778 115.486ZM248.995 108.258C248.659 107.922 248.155 107.754 247.483 107.754V103.383C249.163 103.383 250.843 104.056 252.019 105.232L248.995 108.258ZM244.794 110.275H240.426C240.426 108.594 241.098 107.081 242.106 105.905L245.131 108.93C244.963 109.267 244.794 109.771 244.794 110.275ZM244.794 110.948C244.962 111.452 245.131 111.788 245.299 112.124L242.274 115.15C241.266 113.973 240.594 112.629 240.426 110.948H244.794ZM247.483 112.46C246.307 112.46 245.299 111.452 245.299 110.275C245.299 109.099 246.307 108.09 247.483 108.09C248.323 108.09 248.995 108.594 249.331 109.267V109.435C249.499 109.603 249.499 109.939 249.499 110.275C249.499 110.611 249.499 110.78 249.331 111.116C248.995 111.956 248.323 112.46 247.483 112.46ZM247.483 112.965C247.987 112.965 248.323 112.797 248.659 112.629L251.683 115.654C250.507 116.663 248.995 117.335 247.483 117.335V112.965ZM246.979 103.383V107.754C246.475 107.922 245.971 108.09 245.635 108.426L242.61 105.4C243.619 104.224 245.131 103.551 246.979 103.383ZM252.355 115.15L249.331 112.124C249.667 111.788 249.835 111.284 250.003 110.779H254.371C254.035 112.629 253.363 114.141 252.355 115.15Z" fill="white"/>
    </g>
    <g class="is-hidden-eje">
        <path d="M291.667 128.598C301.78 128.598 309.979 120.394 309.979 110.275C309.979 100.156 301.78 91.9527 291.667 91.9527C281.553 91.9527 273.354 100.156 273.354 110.275C273.354 120.394 281.553 128.598 291.667 128.598Z" fill="#3B5266"/>
        <path d="M279.235 110.275C279.235 105.4 281.923 101.366 285.955 99.1808L285.283 98.1722C280.915 100.526 277.891 105.064 277.891 110.275C277.891 115.486 280.915 120.025 285.283 122.378L285.955 121.37C281.923 119.352 279.235 115.15 279.235 110.275Z" fill="#76C1AA"/>
        <path d="M298.051 98.1722L297.547 99.1808C301.579 101.198 304.435 105.4 304.435 110.275C304.435 115.15 301.579 119.352 297.547 121.37L298.051 122.378C302.419 120.025 305.443 115.486 305.443 110.275C305.275 105.064 302.419 100.526 298.051 98.1722Z" fill="#76C1AA"/>
        <path opacity="0.3" d="M291.667 112.965C293.151 112.965 294.355 111.761 294.355 110.275C294.355 108.79 293.151 107.586 291.667 107.586C290.182 107.586 288.979 108.79 288.979 110.275C288.979 111.761 290.182 112.965 291.667 112.965Z" fill="white"/>
        <path opacity="0.3" d="M293.346 108.258L296.371 105.232C295.195 104.056 293.683 103.383 291.834 103.383V107.754C292.338 107.754 292.842 107.922 293.346 108.258Z" fill="white"/>
        <path opacity="0.3" d="M294.186 110.275H298.554C298.554 108.594 297.882 106.913 296.706 105.737L293.682 108.762C294.018 109.267 294.186 109.771 294.186 110.275Z" fill="white"/>
        <path opacity="0.3" d="M293.514 112.124L296.538 115.15C297.714 113.973 298.386 112.461 298.386 110.78H294.018C294.186 111.452 293.85 111.788 293.514 112.124Z" fill="white"/>
        <path opacity="0.3" d="M289.986 112.46L286.962 115.486C288.138 116.495 289.482 117.167 291.163 117.167V112.797C290.826 112.797 290.322 112.629 289.986 112.46Z" fill="white"/>
        <path opacity="0.3" d="M291.834 112.965V117.335C293.515 117.335 295.027 116.663 296.035 115.654L293.011 112.629C292.675 112.797 292.338 112.965 291.834 112.965Z" fill="white"/>
        <path opacity="0.3" d="M289.483 108.93L286.459 105.905C285.451 107.081 284.779 108.594 284.779 110.275H289.147C288.979 109.771 289.147 109.267 289.483 108.93Z" fill="white"/>
        <path opacity="0.3" d="M288.978 110.948H284.61C284.778 112.629 285.45 113.973 286.458 115.15L289.482 112.124C289.314 111.62 289.146 111.284 288.978 110.948Z" fill="white"/>
        <path opacity="0.3" d="M291.163 107.754V103.383C289.482 103.551 287.97 104.224 286.794 105.232L289.819 108.258C290.155 108.09 290.658 107.922 291.163 107.754Z" fill="white"/>
        <path d="M291.835 102.375C291.331 102.375 290.659 102.375 290.155 102.543C286.458 103.215 283.771 106.409 283.771 110.275C283.771 114.646 287.298 118.176 291.667 118.176C293.851 118.176 295.867 117.335 297.211 115.822C298.723 114.31 299.563 112.46 299.563 110.275C299.563 105.905 296.035 102.375 291.835 102.375ZM294.187 110.275C294.187 109.771 294.019 109.267 293.683 108.762L296.707 105.737C297.715 106.913 298.387 108.426 298.555 110.275H294.187ZM286.963 115.486L289.987 112.46C290.323 112.629 290.659 112.797 291.163 112.965V117.335C289.651 117.167 288.139 116.495 286.963 115.486ZM293.347 108.258C293.011 107.922 292.507 107.754 291.835 107.754V103.383C293.515 103.383 295.195 104.056 296.371 105.232L293.347 108.258ZM288.979 110.275H284.611C284.611 108.594 285.283 107.081 286.291 105.905L289.315 108.93C289.147 109.267 288.979 109.771 288.979 110.275ZM288.979 110.948C289.147 111.452 289.315 111.788 289.483 112.124L286.459 115.15C285.451 113.973 284.779 112.629 284.611 110.948H288.979ZM291.667 112.46C290.491 112.46 289.483 111.452 289.483 110.275C289.483 109.099 290.491 108.09 291.667 108.09C292.507 108.09 293.179 108.594 293.515 109.267V109.435C293.683 109.603 293.683 109.939 293.683 110.275C293.683 110.611 293.683 110.78 293.515 111.116C293.347 111.956 292.507 112.46 291.667 112.46ZM291.835 112.965C292.339 112.965 292.675 112.797 293.011 112.629L296.035 115.654C294.859 116.663 293.347 117.335 291.835 117.335V112.965ZM291.163 103.383V107.754C290.659 107.922 290.155 108.09 289.819 108.426L286.794 105.4C287.971 104.224 289.483 103.551 291.163 103.383ZM296.539 115.15L293.515 112.124C293.851 111.788 294.019 111.284 294.187 110.779H298.555C298.387 112.629 297.715 114.141 296.539 115.15Z" fill="white"/>
    </g>
    <g class="is-hidden-eje">
        <path d="M384.908 128.598C395.021 128.598 403.22 120.394 403.22 110.275C403.22 100.156 395.021 91.9527 384.908 91.9527C374.794 91.9527 366.595 100.156 366.595 110.275C366.595 120.394 374.794 128.598 384.908 128.598Z" fill="#3B5266"/>
        <path d="M372.475 110.275C372.475 105.4 375.163 101.366 379.195 99.1808L378.523 98.1722C374.155 100.526 371.131 105.064 371.131 110.275C371.131 115.486 374.155 120.025 378.523 122.378L379.195 121.37C375.163 119.352 372.475 115.15 372.475 110.275Z" fill="#76C1AA"/>
        <path d="M391.124 98.1722L390.62 99.1808C394.652 101.198 397.508 105.4 397.508 110.275C397.508 115.15 394.652 119.352 390.62 121.37L391.124 122.378C395.492 120.025 398.516 115.486 398.516 110.275C398.516 105.064 395.492 100.526 391.124 98.1722Z" fill="#76C1AA"/>
        <path opacity="0.3" d="M384.907 112.965C386.392 112.965 387.595 111.761 387.595 110.275C387.595 108.79 386.392 107.586 384.907 107.586C383.423 107.586 382.219 108.79 382.219 110.275C382.219 111.761 383.423 112.965 384.907 112.965Z" fill="white"/>
        <path opacity="0.3" d="M386.588 108.258L389.612 105.232C388.436 104.056 386.924 103.383 385.076 103.383V107.754C385.58 107.754 386.084 107.922 386.588 108.258Z" fill="white"/>
        <path opacity="0.3" d="M387.427 110.275H391.795C391.795 108.594 391.123 106.913 389.947 105.737L386.923 108.762C387.259 109.267 387.427 109.771 387.427 110.275Z" fill="white"/>
        <path opacity="0.3" d="M386.756 112.124L389.78 115.15C390.956 113.973 391.628 112.461 391.628 110.78H387.26C387.26 111.452 387.092 111.788 386.756 112.124Z" fill="white"/>
        <path opacity="0.3" d="M383.227 112.46L380.203 115.486C381.379 116.495 382.723 117.167 384.403 117.167V112.797C384.067 112.797 383.563 112.629 383.227 112.46Z" fill="white"/>
        <path opacity="0.3" d="M385.076 112.965V117.335C386.756 117.335 388.268 116.663 389.276 115.654L386.252 112.629C385.916 112.797 385.58 112.965 385.076 112.965Z" fill="white"/>
        <path opacity="0.3" d="M382.723 108.93L379.7 105.905C378.692 107.081 378.02 108.594 378.02 110.275H382.387C382.219 109.771 382.387 109.267 382.723 108.93Z" fill="white"/>
        <path opacity="0.3" d="M382.22 110.948H377.852C378.02 112.629 378.692 113.973 379.7 115.15L382.724 112.124C382.556 111.62 382.388 111.284 382.22 110.948Z" fill="white"/>
        <path opacity="0.3" d="M384.404 107.754V103.383C382.724 103.551 381.212 104.224 380.036 105.232L383.06 108.258C383.396 108.09 383.9 107.922 384.404 107.754Z" fill="white"/>
        <path d="M385.075 102.375C384.571 102.375 383.899 102.375 383.395 102.543C379.699 103.215 377.011 106.409 377.011 110.275C377.011 114.646 380.539 118.176 384.907 118.176C387.091 118.176 389.108 117.335 390.452 115.822C391.964 114.31 392.804 112.46 392.804 110.275C392.804 105.905 389.276 102.375 385.075 102.375ZM387.427 110.275C387.427 109.771 387.26 109.267 386.924 108.762L389.947 105.737C390.955 106.913 391.628 108.426 391.796 110.275H387.427ZM380.203 115.486L383.227 112.46C383.563 112.629 383.899 112.797 384.403 112.965V117.335C382.723 117.167 381.379 116.495 380.203 115.486ZM386.587 108.258C386.251 107.922 385.747 107.754 385.075 107.754V103.383C386.755 103.383 388.436 104.056 389.612 105.232L386.587 108.258ZM382.22 110.275H377.851C377.851 108.594 378.523 107.081 379.531 105.905L382.555 108.93C382.387 109.267 382.22 109.771 382.22 110.275ZM382.22 110.948C382.388 111.452 382.555 111.788 382.723 112.124L379.699 115.15C378.691 113.973 378.019 112.629 377.851 110.948H382.22ZM384.907 112.46C383.731 112.46 382.723 111.452 382.723 110.275C382.723 109.099 383.731 108.09 384.907 108.09C385.747 108.09 386.419 108.594 386.755 109.267V109.435C386.923 109.603 386.924 109.939 386.924 110.275C386.924 110.611 386.923 110.78 386.755 111.116C386.587 111.956 385.747 112.46 384.907 112.46ZM385.075 112.965C385.579 112.965 385.916 112.797 386.252 112.629L389.276 115.654C388.099 116.663 386.587 117.335 385.075 117.335V112.965ZM384.403 103.383V107.754C383.899 107.922 383.396 108.09 383.06 108.426L380.035 105.4C381.211 104.224 382.723 103.551 384.403 103.383ZM389.78 115.15L386.755 112.124C387.091 111.788 387.259 111.284 387.427 110.779H391.796C391.628 112.629 390.956 114.141 389.78 115.15Z" fill="white"/>
    </g>
    <g class="is-hidden-eje">
        <path d="M433.46 128.598C443.573 128.598 451.772 120.394 451.772 110.275C451.772 100.156 443.573 91.9527 433.46 91.9527C423.346 91.9527 415.148 100.156 415.148 110.275C415.148 120.394 423.346 128.598 433.46 128.598Z" fill="#3B5266"/>
        <path d="M421.196 110.275C421.196 105.4 423.884 101.366 427.916 99.1808L427.244 98.1722C422.876 100.526 419.852 105.064 419.852 110.275C419.852 115.486 422.876 120.025 427.244 122.378L427.916 121.37C423.884 119.352 421.196 115.15 421.196 110.275Z" fill="#76C1AA"/>
        <path d="M439.844 98.1722L439.34 99.1808C443.372 101.198 446.228 105.4 446.228 110.275C446.228 115.15 443.372 119.352 439.34 121.37L439.844 122.378C444.212 120.025 447.236 115.486 447.236 110.275C447.236 105.064 444.212 100.526 439.844 98.1722Z" fill="#76C1AA"/>
        <path opacity="0.3" d="M433.46 112.965C434.944 112.965 436.148 111.761 436.148 110.275C436.148 108.79 434.944 107.586 433.46 107.586C431.975 107.586 430.772 108.79 430.772 110.275C430.772 111.761 431.975 112.965 433.46 112.965Z" fill="white"/>
        <path opacity="0.3" d="M435.14 108.258L438.164 105.232C436.988 104.056 435.476 103.383 433.628 103.383V107.754C434.3 107.754 434.804 107.922 435.14 108.258Z" fill="white"/>
        <path opacity="0.3" d="M436.148 110.275H440.516C440.516 108.594 439.844 106.913 438.668 105.737L435.644 108.762C435.812 109.267 436.148 109.771 436.148 110.275Z" fill="white"/>
        <path opacity="0.3" d="M435.476 112.124L438.5 115.15C439.676 113.973 440.348 112.461 440.348 110.78H435.98C435.98 111.452 435.644 111.788 435.476 112.124Z" fill="white"/>
        <path opacity="0.3" d="M431.948 112.46L428.924 115.486C430.1 116.495 431.444 117.167 433.124 117.167V112.797C432.62 112.797 432.284 112.629 431.948 112.46Z" fill="white"/>
        <path opacity="0.3" d="M433.628 112.965V117.335C435.308 117.335 436.82 116.663 437.828 115.654L434.804 112.629C434.468 112.797 434.132 112.965 433.628 112.965Z" fill="white"/>
        <path opacity="0.3" d="M431.276 108.93L428.252 105.905C427.244 107.081 426.572 108.594 426.572 110.275H430.94C430.94 109.771 431.108 109.267 431.276 108.93Z" fill="white"/>
        <path opacity="0.3" d="M430.94 110.948H426.572C426.74 112.629 427.412 113.973 428.42 115.15L431.444 112.124C431.108 111.62 430.94 111.284 430.94 110.948Z" fill="white"/>
        <path opacity="0.3" d="M432.956 107.754V103.383C431.276 103.551 429.764 104.224 428.588 105.232L431.612 108.258C432.116 108.09 432.452 107.922 432.956 107.754Z" fill="white"/>
        <path d="M433.628 102.375C433.124 102.375 432.452 102.375 431.948 102.543C428.252 103.215 425.564 106.409 425.564 110.275C425.564 114.646 429.092 118.176 433.46 118.176C435.644 118.176 437.66 117.335 439.004 115.822C440.516 114.31 441.356 112.46 441.356 110.275C441.524 105.905 437.996 102.375 433.628 102.375ZM436.148 110.275C436.148 109.771 435.98 109.267 435.644 108.762L438.668 105.737C439.676 106.913 440.348 108.426 440.516 110.275H436.148ZM428.924 115.486L431.948 112.46C432.284 112.629 432.62 112.797 433.124 112.965V117.335C431.444 117.167 429.932 116.495 428.924 115.486ZM435.14 108.258C434.804 107.922 434.3 107.754 433.628 107.754V103.383C435.308 103.383 436.988 104.056 438.164 105.232L435.14 108.258ZM430.94 110.275H426.572C426.572 108.594 427.244 107.081 428.252 105.905L431.276 108.93C431.108 109.267 430.94 109.771 430.94 110.275ZM430.94 110.948C431.108 111.452 431.276 111.788 431.444 112.124L428.42 115.15C427.412 113.973 426.74 112.629 426.572 110.948H430.94ZM433.46 112.46C432.284 112.46 431.276 111.452 431.276 110.275C431.276 109.099 432.284 108.09 433.46 108.09C434.3 108.09 434.972 108.594 435.308 109.267V109.435C435.476 109.603 435.476 109.939 435.476 110.275C435.476 110.611 435.476 110.78 435.308 111.116C435.14 111.956 434.468 112.46 433.46 112.46ZM433.628 112.965C434.132 112.965 434.468 112.797 434.804 112.629L437.828 115.654C436.652 116.663 435.14 117.335 433.628 117.335V112.965ZM432.956 103.383V107.754C432.452 107.922 431.948 108.09 431.612 108.426L428.588 105.4C429.764 104.224 431.276 103.551 432.956 103.383ZM438.5 115.15L435.476 112.124C435.812 111.788 435.98 111.284 436.148 110.779H440.516C440.18 112.629 439.508 114.141 438.5 115.15Z" fill="white"/>
    </g>
    <g class="is-hidden-eje">
        <path d="M482.18 128.598C492.293 128.598 500.492 120.394 500.492 110.275C500.492 100.156 492.293 91.9527 482.18 91.9527C472.066 91.9527 463.868 100.156 463.868 110.275C463.868 120.394 472.066 128.598 482.18 128.598Z" fill="#3B5266"/>
        <path d="M469.748 110.275C469.748 105.4 472.436 101.366 476.468 99.1808L475.796 98.1722C471.428 100.526 468.404 105.064 468.404 110.275C468.404 115.486 471.428 120.025 475.796 122.378L476.468 121.37C472.436 119.352 469.748 115.15 469.748 110.275Z" fill="#76C1AA"/>
        <path d="M488.396 98.1722L487.892 99.1808C491.924 101.198 494.78 105.4 494.78 110.275C494.78 115.15 491.924 119.352 487.892 121.37L488.396 122.378C492.764 120.025 495.788 115.486 495.788 110.275C495.788 105.064 492.764 100.526 488.396 98.1722Z" fill="#76C1AA"/>
        <path opacity="0.3" d="M482.18 112.965C483.664 112.965 484.868 111.761 484.868 110.275C484.868 108.79 483.664 107.586 482.18 107.586C480.695 107.586 479.492 108.79 479.492 110.275C479.492 111.761 480.695 112.965 482.18 112.965Z" fill="white"/>
        <path opacity="0.3" d="M483.692 108.258L486.716 105.232C485.54 104.056 484.028 103.383 482.18 103.383V107.754C482.852 107.754 483.356 107.922 483.692 108.258Z" fill="white"/>
        <path opacity="0.3" d="M484.7 110.275H489.068C489.068 108.594 488.396 106.913 487.22 105.737L484.196 108.762C484.532 109.267 484.7 109.771 484.7 110.275Z" fill="white"/>
        <path opacity="0.3" d="M484.028 112.124L487.052 115.15C488.228 113.973 488.9 112.461 488.9 110.78H484.532C484.532 111.452 484.364 111.788 484.028 112.124Z" fill="white"/>
        <path opacity="0.3" d="M480.5 112.46L477.476 115.486C478.652 116.495 479.996 117.167 481.676 117.167V112.797C481.172 112.797 480.836 112.629 480.5 112.46Z" fill="white"/>
        <path opacity="0.3" d="M482.348 112.965V117.335C484.028 117.335 485.54 116.663 486.548 115.654L483.524 112.629C483.188 112.797 482.684 112.965 482.348 112.965Z" fill="white"/>
        <path opacity="0.3" d="M479.828 108.93L476.804 105.905C475.796 107.081 475.124 108.594 475.124 110.275H479.492C479.492 109.771 479.66 109.267 479.828 108.93Z" fill="white"/>
        <path opacity="0.3" d="M479.492 110.948H475.124C475.292 112.629 475.964 113.973 476.972 115.15L479.996 112.124C479.828 111.62 479.66 111.284 479.492 110.948Z" fill="white"/>
        <path opacity="0.3" d="M481.676 107.754V103.383C479.996 103.551 478.484 104.224 477.308 105.232L480.332 108.258C480.668 108.09 481.172 107.922 481.676 107.754Z" fill="white"/>
        <path d="M482.18 102.375C481.676 102.375 481.004 102.375 480.5 102.543C476.804 103.215 474.116 106.409 474.116 110.275C474.116 114.646 477.644 118.176 482.012 118.176C484.196 118.176 486.212 117.335 487.556 115.822C489.068 114.31 489.908 112.46 489.908 110.275C490.076 105.905 486.548 102.375 482.18 102.375ZM484.7 110.275C484.7 109.771 484.532 109.267 484.196 108.762L487.22 105.737C488.228 106.913 488.9 108.426 489.068 110.275H484.7ZM477.476 115.486L480.5 112.46C480.836 112.629 481.172 112.797 481.676 112.965V117.335C479.996 117.167 478.652 116.495 477.476 115.486ZM483.692 108.258C483.356 107.922 482.852 107.754 482.18 107.754V103.383C483.86 103.383 485.54 104.056 486.716 105.232L483.692 108.258ZM479.492 110.275H475.124C475.124 108.594 475.796 107.081 476.804 105.905L479.828 108.93C479.66 109.267 479.492 109.771 479.492 110.275ZM479.492 110.948C479.66 111.452 479.828 111.788 479.996 112.124L476.972 115.15C475.964 113.973 475.292 112.629 475.124 110.948H479.492ZM482.18 112.46C481.004 112.46 479.996 111.452 479.996 110.275C479.996 109.099 481.004 108.09 482.18 108.09C483.02 108.09 483.692 108.594 484.028 109.267V109.435C484.196 109.603 484.196 109.939 484.196 110.275C484.196 110.611 484.196 110.78 484.028 111.116C483.86 111.956 483.02 112.46 482.18 112.46ZM482.348 112.965C482.852 112.965 483.188 112.797 483.524 112.629L486.548 115.654C485.372 116.663 483.86 117.335 482.348 117.335V112.965ZM481.676 103.383V107.754C481.172 107.922 480.668 108.09 480.332 108.426L477.308 105.4C478.484 104.224 479.996 103.551 481.676 103.383ZM487.052 115.15L484.028 112.124C484.364 111.788 484.532 111.284 484.7 110.779H489.068C488.9 112.629 488.228 114.141 487.052 115.15Z" fill="white"/>
    </g>
    <g class="is-hidden-eje">
        <path d="M530.732 128.598C540.846 128.598 549.044 120.394 549.044 110.275C549.044 100.156 540.846 91.9527 530.732 91.9527C520.619 91.9527 512.42 100.156 512.42 110.275C512.42 120.394 520.619 128.598 530.732 128.598Z" fill="#3B5266"/>
        <path d="M518.3 110.275C518.3 105.4 520.988 101.366 525.02 99.1808L524.348 98.1722C519.98 100.526 516.956 105.064 516.956 110.275C516.956 115.486 519.98 120.025 524.348 122.378L525.02 121.37C521.156 119.352 518.3 115.15 518.3 110.275Z" fill="#76C1AA"/>
        <path d="M537.116 98.1722L536.444 99.1808C540.476 101.198 543.332 105.4 543.332 110.275C543.332 115.15 540.476 119.352 536.444 121.37L536.948 122.378C541.316 120.025 544.34 115.486 544.34 110.275C544.508 105.064 541.484 100.526 537.116 98.1722Z" fill="#76C1AA"/>
        <path opacity="0.3" d="M530.732 112.965C532.216 112.965 533.42 111.761 533.42 110.275C533.42 108.79 532.216 107.586 530.732 107.586C529.247 107.586 528.044 108.79 528.044 110.275C528.044 111.761 529.247 112.965 530.732 112.965Z" fill="white"/>
        <path opacity="0.3" d="M532.412 108.258L535.436 105.232C534.26 104.056 532.748 103.383 530.9 103.383V107.754C531.404 107.754 531.908 107.922 532.412 108.258Z" fill="white"/>
        <path opacity="0.3" d="M533.421 110.275H537.788C537.788 108.594 537.116 106.913 535.94 105.737L532.917 108.762C533.084 109.267 533.253 109.771 533.421 110.275Z" fill="white"/>
        <path opacity="0.3" d="M532.58 112.124L535.604 115.15C536.78 113.973 537.452 112.461 537.452 110.78H533.084C533.252 111.452 532.916 111.788 532.58 112.124Z" fill="white"/>
        <path opacity="0.3" d="M529.22 112.46L526.196 115.486C527.372 116.495 528.716 117.167 530.396 117.167V112.797C529.892 112.797 529.556 112.629 529.22 112.46Z" fill="white"/>
        <path opacity="0.3" d="M530.9 112.965V117.335C532.58 117.335 534.092 116.663 535.1 115.654L532.076 112.629C531.74 112.797 531.404 112.965 530.9 112.965Z" fill="white"/>
        <path opacity="0.3" d="M528.548 108.93L525.524 105.905C524.516 107.081 523.844 108.594 523.844 110.275H528.212C528.212 109.771 528.212 109.267 528.548 108.93Z" fill="white"/>
        <path opacity="0.3" d="M528.212 110.948H523.844C524.012 112.629 524.684 113.973 525.692 115.15L528.716 112.124C528.38 111.62 528.212 111.284 528.212 110.948Z" fill="white"/>
        <path opacity="0.3" d="M530.228 107.754V103.383C528.548 103.551 527.036 104.224 525.86 105.232L528.884 108.258C529.388 108.09 529.724 107.922 530.228 107.754Z" fill="white"/>
        <path d="M530.9 102.375C530.396 102.375 529.724 102.375 529.22 102.543C525.524 103.215 522.836 106.409 522.836 110.275C522.836 114.646 526.364 118.176 530.732 118.176C532.916 118.176 534.932 117.335 536.276 115.822C537.788 114.31 538.628 112.46 538.628 110.275C538.796 105.905 535.268 102.375 530.9 102.375ZM533.42 110.275C533.42 109.771 533.252 109.267 532.916 108.762L535.94 105.737C536.948 106.913 537.62 108.426 537.788 110.275H533.42ZM526.196 115.486L529.22 112.46C529.556 112.629 529.892 112.797 530.396 112.965V117.335C528.716 117.167 527.204 116.495 526.196 115.486ZM532.412 108.258C532.076 107.922 531.572 107.754 530.9 107.754V103.383C532.58 103.383 534.26 104.056 535.436 105.232L532.412 108.258ZM528.044 110.275H523.676C523.676 108.594 524.348 107.081 525.356 105.905L528.38 108.93C528.212 109.267 528.212 109.771 528.044 110.275ZM528.212 110.948C528.38 111.452 528.548 111.788 528.716 112.124L525.692 115.15C524.684 113.973 524.012 112.629 523.844 110.948H528.212ZM530.732 112.46C529.556 112.46 528.548 111.452 528.548 110.275C528.548 109.099 529.556 108.09 530.732 108.09C531.572 108.09 532.244 108.594 532.58 109.267V109.435C532.748 109.603 532.748 109.939 532.748 110.275C532.748 110.611 532.748 110.78 532.58 111.116C532.412 111.956 531.74 112.46 530.732 112.46ZM530.9 112.965C531.404 112.965 531.74 112.797 532.076 112.629L535.1 115.654C533.924 116.663 532.412 117.335 530.9 117.335V112.965ZM530.228 103.383V107.754C529.724 107.922 529.22 108.09 528.884 108.426L525.86 105.4C527.036 104.224 528.548 103.551 530.228 103.383ZM535.772 115.15L532.748 112.124C533.084 111.788 533.252 111.284 533.42 110.779H537.788C537.452 112.629 536.78 114.141 535.772 115.15Z" fill="white"/>
    </g>
    <path d="M455.804 66.0657H559.46L588.861 88.0864H863.374V102.711H578.444L553.076 84.3883H455.804V66.0657Z" fill="#DCE9EF" stroke="#65819B" stroke-miterlimit="10"/>
    <g class="is-hidden-eje">
        <path d="M659.253 128.598C669.367 128.598 677.565 120.394 677.565 110.275C677.565 100.156 669.367 91.9527 659.253 91.9527C649.14 91.9527 640.941 100.156 640.941 110.275C640.941 120.394 649.14 128.598 659.253 128.598Z" fill="#3B5266"/>
        <path d="M646.821 110.275C646.821 105.4 649.509 101.366 653.541 99.1808L652.869 98.1722C648.501 100.526 645.477 105.064 645.477 110.275C645.477 115.486 648.501 120.025 652.869 122.378L653.541 121.37C649.509 119.352 646.821 115.15 646.821 110.275Z" fill="#76C1AA"/>
        <path d="M665.469 98.1722L664.965 99.1808C668.997 101.198 671.853 105.4 671.853 110.275C671.853 115.15 668.997 119.352 664.965 121.37L665.469 122.378C669.837 120.025 672.862 115.486 672.862 110.275C672.862 105.064 669.837 100.526 665.469 98.1722Z" fill="#76C1AA"/>
        <path opacity="0.3" d="M659.253 112.965C660.738 112.965 661.941 111.761 661.941 110.275C661.941 108.79 660.738 107.586 659.253 107.586C657.768 107.586 656.565 108.79 656.565 110.275C656.565 111.761 657.768 112.965 659.253 112.965Z" fill="white"/>
        <path opacity="0.3" d="M660.765 108.258L663.789 105.232C662.613 104.056 661.101 103.383 659.253 103.383V107.754C659.925 107.754 660.429 107.922 660.765 108.258Z" fill="white"/>
        <path opacity="0.3" d="M661.774 110.275H666.142C666.142 108.594 665.47 106.913 664.294 105.737L661.27 108.762C661.606 109.267 661.774 109.771 661.774 110.275Z" fill="white"/>
        <path opacity="0.3" d="M661.102 112.124L664.126 115.15C665.302 113.973 665.974 112.461 665.974 110.78H661.606C661.606 111.452 661.438 111.788 661.102 112.124Z" fill="white"/>
        <path opacity="0.3" d="M657.573 112.46L654.549 115.486C655.725 116.495 657.069 117.167 658.749 117.167V112.797C658.245 112.797 657.909 112.629 657.573 112.46Z" fill="white"/>
        <path opacity="0.3" d="M659.253 112.965V117.335C660.933 117.335 662.446 116.663 663.454 115.654L660.429 112.629C660.261 112.797 659.757 112.965 659.253 112.965Z" fill="white"/>
        <path opacity="0.3" d="M656.901 108.93L653.877 105.905C652.869 107.081 652.197 108.594 652.197 110.275H656.565C656.565 109.771 656.733 109.267 656.901 108.93Z" fill="white"/>
        <path opacity="0.3" d="M656.565 110.948H652.197C652.365 112.629 653.037 113.973 654.045 115.15L657.069 112.124C656.901 111.62 656.565 111.284 656.565 110.948Z" fill="white"/>
        <path opacity="0.3" d="M658.749 107.754V103.383C657.069 103.551 655.557 104.224 654.381 105.232L657.405 108.258C657.741 108.09 658.077 107.922 658.749 107.754Z" fill="white"/>
        <path d="M659.253 102.375C658.749 102.375 658.077 102.375 657.573 102.543C653.877 103.215 651.189 106.409 651.189 110.275C651.189 114.646 654.717 118.176 659.085 118.176C661.269 118.176 663.285 117.335 664.629 115.822C666.141 114.31 666.981 112.46 666.981 110.275C667.149 105.905 663.621 102.375 659.253 102.375ZM661.773 110.275C661.773 109.771 661.605 109.267 661.269 108.762L664.293 105.737C665.301 106.913 665.973 108.426 666.141 110.275H661.773ZM654.549 115.486L657.573 112.46C657.909 112.629 658.245 112.797 658.749 112.965V117.335C657.069 117.167 655.557 116.495 654.549 115.486ZM660.765 108.258C660.429 107.922 659.925 107.754 659.253 107.754V103.383C660.933 103.383 662.613 104.056 663.789 105.232L660.765 108.258ZM656.565 110.275H652.197C652.197 108.594 652.869 107.081 653.877 105.905L656.901 108.93C656.733 109.267 656.565 109.771 656.565 110.275ZM656.565 110.948C656.733 111.452 656.901 111.788 657.069 112.124L654.045 115.15C653.037 113.973 652.365 112.629 652.197 110.948H656.565ZM659.253 112.46C658.077 112.46 657.069 111.452 657.069 110.275C657.069 109.099 658.077 108.09 659.253 108.09C660.093 108.09 660.765 108.594 661.101 109.267V109.435C661.269 109.603 661.269 109.939 661.269 110.275C661.269 110.611 661.269 110.78 661.101 111.116C660.765 111.956 660.093 112.46 659.253 112.46ZM659.253 112.965C659.757 112.965 660.093 112.797 660.429 112.629L663.453 115.654C662.277 116.663 660.765 117.335 659.253 117.335V112.965ZM658.749 103.383V107.754C658.245 107.922 657.741 108.09 657.405 108.426L654.381 105.4C655.389 104.224 656.901 103.551 658.749 103.383ZM664.125 115.15L661.101 112.124C661.437 111.788 661.605 111.284 661.773 110.779H666.141C665.805 112.629 665.133 114.141 664.125 115.15Z" fill="white"/>
    </g>
    <g class="is-hidden-eje">
        <path d="M703.269 128.598C713.383 128.598 721.581 120.394 721.581 110.275C721.581 100.156 713.383 91.9527 703.269 91.9527C693.156 91.9527 684.957 100.156 684.957 110.275C684.957 120.394 693.156 128.598 703.269 128.598Z" fill="#3B5266"/>
        <path d="M691.005 110.275C691.005 105.4 693.693 101.366 697.725 99.1808L697.053 98.1722C692.685 100.526 689.661 105.064 689.661 110.275C689.661 115.486 692.685 120.025 697.053 122.378L697.725 121.37C693.693 119.352 691.005 115.15 691.005 110.275Z" fill="#76C1AA"/>
        <path d="M709.653 98.1722L709.149 99.1808C713.181 101.198 716.038 105.4 716.038 110.275C716.038 115.15 713.181 119.352 709.149 121.37L709.653 122.378C714.022 120.025 717.046 115.486 717.046 110.275C717.046 105.064 714.022 100.526 709.653 98.1722Z" fill="#76C1AA"/>
        <path opacity="0.3" d="M703.269 112.965C704.754 112.965 705.957 111.761 705.957 110.275C705.957 108.79 704.754 107.586 703.269 107.586C701.785 107.586 700.581 108.79 700.581 110.275C700.581 111.761 701.785 112.965 703.269 112.965Z" fill="white"/>
        <path opacity="0.3" d="M704.949 108.258L707.974 105.232C706.798 104.056 705.285 103.383 703.438 103.383V107.754C704.109 107.754 704.613 107.922 704.949 108.258Z" fill="white"/>
        <path opacity="0.3" d="M705.957 110.275H710.325C710.325 108.594 709.653 106.913 708.477 105.737L705.453 108.762C705.789 109.267 705.957 109.771 705.957 110.275Z" fill="white"/>
        <path opacity="0.3" d="M705.285 112.124L708.309 115.15C709.485 113.973 710.157 112.461 710.157 110.78H705.789C705.789 111.452 705.621 111.788 705.285 112.124Z" fill="white"/>
        <path opacity="0.3" d="M701.757 112.46L698.733 115.486C699.909 116.495 701.253 117.167 702.933 117.167V112.797C702.429 112.797 702.093 112.629 701.757 112.46Z" fill="white"/>
        <path opacity="0.3" d="M703.438 112.965V117.335C705.118 117.335 706.63 116.663 707.638 115.654L704.614 112.629C704.446 112.797 703.942 112.965 703.438 112.965Z" fill="white"/>
        <path opacity="0.3" d="M701.085 108.93L698.061 105.905C697.053 107.081 696.381 108.594 696.381 110.275H700.749C700.749 109.771 700.917 109.267 701.085 108.93Z" fill="white"/>
        <path opacity="0.3" d="M700.749 110.948H696.381C696.549 112.629 697.221 113.973 698.229 115.15L701.253 112.124C701.085 111.62 700.749 111.284 700.749 110.948Z" fill="white"/>
        <path opacity="0.3" d="M702.933 107.754V103.383C701.253 103.551 699.741 104.224 698.565 105.232L701.589 108.258C701.925 108.09 702.261 107.922 702.933 107.754Z" fill="white"/>
        <path d="M703.437 102.375C702.933 102.375 702.261 102.375 701.757 102.543C698.061 103.215 695.373 106.409 695.373 110.275C695.373 114.646 698.901 118.176 703.269 118.176C705.453 118.176 707.469 117.335 708.813 115.822C710.325 114.31 711.165 112.46 711.165 110.275C711.333 105.905 707.805 102.375 703.437 102.375ZM705.957 110.275C705.957 109.771 705.789 109.267 705.453 108.762L708.477 105.737C709.485 106.913 710.157 108.426 710.325 110.275H705.957ZM698.733 115.486L701.757 112.46C702.093 112.629 702.429 112.797 702.933 112.965V117.335C701.253 117.167 699.741 116.495 698.733 115.486ZM704.949 108.258C704.613 107.922 704.109 107.754 703.437 107.754V103.383C705.117 103.383 706.797 104.056 707.973 105.232L704.949 108.258ZM700.749 110.275H696.381C696.381 108.594 697.053 107.081 698.061 105.905L701.085 108.93C700.917 109.267 700.749 109.771 700.749 110.275ZM700.749 110.948C700.917 111.452 701.085 111.788 701.253 112.124L698.229 115.15C697.221 113.973 696.549 112.629 696.381 110.948H700.749ZM703.269 112.46C702.093 112.46 701.085 111.452 701.085 110.275C701.085 109.099 702.093 108.09 703.269 108.09C704.109 108.09 704.781 108.594 705.117 109.267V109.435C705.285 109.603 705.285 109.939 705.285 110.275C705.285 110.611 705.285 110.78 705.117 111.116C704.949 111.956 704.277 112.46 703.269 112.46ZM703.437 112.965C703.941 112.965 704.277 112.797 704.613 112.629L707.637 115.654C706.461 116.663 704.949 117.335 703.437 117.335V112.965ZM702.933 103.383V107.754C702.429 107.922 701.925 108.09 701.589 108.426L698.565 105.4C699.573 104.224 701.085 103.551 702.933 103.383ZM708.309 115.15L705.285 112.124C705.621 111.788 705.789 111.284 705.957 110.779H710.325C709.989 112.629 709.317 114.141 708.309 115.15Z" fill="white"/>
    </g>
    <g class="is-hidden-eje">
        <path d="M747.454 128.598C757.567 128.598 765.766 120.394 765.766 110.275C765.766 100.156 757.567 91.9527 747.454 91.9527C737.34 91.9527 729.142 100.156 729.142 110.275C729.142 120.394 737.34 128.598 747.454 128.598Z" fill="#3B5266"/>
        <path d="M735.19 110.275C735.19 105.4 737.878 101.366 741.91 99.1808L741.238 98.1722C736.87 100.526 733.846 105.064 733.846 110.275C733.846 115.486 736.87 120.025 741.238 122.378L741.91 121.37C737.878 119.352 735.19 115.15 735.19 110.275Z" fill="#76C1AA"/>
        <path d="M753.838 98.1722L753.333 99.1808C757.366 101.198 760.222 105.4 760.222 110.275C760.222 115.15 757.366 119.352 753.333 121.37L753.838 122.378C758.206 120.025 761.23 115.486 761.23 110.275C761.23 105.064 758.206 100.526 753.838 98.1722Z" fill="#76C1AA"/>
        <path opacity="0.3" d="M747.454 112.965C748.938 112.965 750.142 111.761 750.142 110.275C750.142 108.79 748.938 107.586 747.454 107.586C745.969 107.586 744.766 108.79 744.766 110.275C744.766 111.761 745.969 112.965 747.454 112.965Z" fill="white"/>
        <path opacity="0.3" d="M749.134 108.258L752.158 105.232C750.982 104.056 749.47 103.383 747.622 103.383V107.754C748.294 107.754 748.798 107.922 749.134 108.258Z" fill="white"/>
        <path opacity="0.3" d="M750.141 110.275H754.509C754.509 108.594 753.837 106.913 752.661 105.737L749.637 108.762C749.805 109.267 750.141 109.771 750.141 110.275Z" fill="white"/>
        <path opacity="0.3" d="M749.469 112.124L752.493 115.15C753.669 113.973 754.341 112.461 754.341 110.78H749.973C749.973 111.452 749.805 111.788 749.469 112.124Z" fill="white"/>
        <path opacity="0.3" d="M745.942 112.46L742.917 115.486C744.094 116.495 745.438 117.167 747.118 117.167V112.797C746.614 112.797 746.278 112.629 745.942 112.46Z" fill="white"/>
        <path opacity="0.3" d="M747.622 112.965V117.335C749.302 117.335 750.814 116.663 751.822 115.654L748.798 112.629C748.462 112.797 748.126 112.965 747.622 112.965Z" fill="white"/>
        <path opacity="0.3" d="M745.269 108.93L742.245 105.905C741.237 107.081 740.565 108.594 740.565 110.275H744.933C744.933 109.771 745.101 109.267 745.269 108.93Z" fill="white"/>
        <path opacity="0.3" d="M744.933 110.948H740.565C740.733 112.629 741.405 113.973 742.413 115.15L745.438 112.124C745.27 111.62 744.933 111.284 744.933 110.948Z" fill="white"/>
        <path opacity="0.3" d="M746.95 107.754V103.383C745.27 103.551 743.758 104.224 742.582 105.232L745.606 108.258C746.11 108.09 746.446 107.922 746.95 107.754Z" fill="white"/>
        <path d="M747.622 102.375C747.118 102.375 746.446 102.375 745.942 102.543C742.246 103.215 739.558 106.409 739.558 110.275C739.558 114.646 743.086 118.176 747.454 118.176C749.638 118.176 751.654 117.335 752.998 115.822C754.51 114.31 755.35 112.46 755.35 110.275C755.518 105.905 751.99 102.375 747.622 102.375ZM750.142 110.275C750.142 109.771 749.974 109.267 749.638 108.762L752.662 105.737C753.67 106.913 754.342 108.426 754.51 110.275H750.142ZM742.918 115.486L745.942 112.46C746.278 112.629 746.614 112.797 747.118 112.965V117.335C745.438 117.167 743.926 116.495 742.918 115.486ZM749.134 108.258C748.798 107.922 748.294 107.754 747.622 107.754V103.383C749.302 103.383 750.982 104.056 752.158 105.232L749.134 108.258ZM744.934 110.275H740.566C740.566 108.594 741.238 107.081 742.246 105.905L745.27 108.93C745.102 109.267 744.934 109.771 744.934 110.275ZM744.934 110.948C745.102 111.452 745.27 111.788 745.438 112.124L742.414 115.15C741.406 113.973 740.734 112.629 740.566 110.948H744.934ZM747.454 112.46C746.278 112.46 745.27 111.452 745.27 110.275C745.27 109.099 746.278 108.09 747.454 108.09C748.294 108.09 748.966 108.594 749.302 109.267V109.435C749.47 109.603 749.47 109.939 749.47 110.275C749.47 110.611 749.47 110.78 749.302 111.116C749.134 111.956 748.462 112.46 747.454 112.46ZM747.622 112.965C748.126 112.965 748.462 112.797 748.798 112.629L751.822 115.654C750.646 116.663 749.134 117.335 747.622 117.335V112.965ZM746.95 103.383V107.754C746.446 107.922 745.942 108.09 745.606 108.426L742.582 105.4C743.758 104.224 745.27 103.551 746.95 103.383ZM752.494 115.15L749.47 112.124C749.806 111.788 749.974 111.284 750.142 110.779H754.51C754.174 112.629 753.502 114.141 752.494 115.15Z" fill="white"/>
    </g>
    <g class="is-hidden-eje">
        <path d="M791.638 128.598C801.751 128.598 809.95 120.394 809.95 110.275C809.95 100.156 801.751 91.9527 791.638 91.9527C781.524 91.9527 773.326 100.156 773.326 110.275C773.326 120.394 781.524 128.598 791.638 128.598Z" fill="#3B5266"/>
        <path d="M779.374 110.275C779.374 105.4 782.062 101.366 786.094 99.1808L785.422 98.1722C781.054 100.526 778.03 105.064 778.03 110.275C778.03 115.486 781.054 120.025 785.422 122.378L786.094 121.37C782.062 119.352 779.374 115.15 779.374 110.275Z" fill="#76C1AA"/>
        <path d="M798.022 98.1722L797.518 99.1808C801.55 101.198 804.406 105.4 804.406 110.275C804.406 115.15 801.55 119.352 797.518 121.37L798.022 122.378C802.39 120.025 805.414 115.486 805.414 110.275C805.414 105.064 802.39 100.526 798.022 98.1722Z" fill="#76C1AA"/>
        <path opacity="0.3" d="M791.638 112.965C793.122 112.965 794.326 111.761 794.326 110.275C794.326 108.79 793.122 107.586 791.638 107.586C790.153 107.586 788.95 108.79 788.95 110.275C788.95 111.761 790.153 112.965 791.638 112.965Z" fill="white"/>
        <path opacity="0.3" d="M793.318 108.258L796.342 105.232C795.166 104.056 793.654 103.383 791.806 103.383V107.754C792.478 107.754 792.982 107.922 793.318 108.258Z" fill="white"/>
        <path opacity="0.3" d="M794.326 110.275H798.694C798.694 108.594 798.022 106.913 796.846 105.737L793.822 108.762C793.99 109.267 794.326 109.771 794.326 110.275Z" fill="white"/>
        <path opacity="0.3" d="M793.654 112.124L796.678 115.15C797.854 113.973 798.526 112.461 798.526 110.78H794.158C794.158 111.452 793.822 111.788 793.654 112.124Z" fill="white"/>
        <path opacity="0.3" d="M790.126 112.46L787.102 115.486C788.278 116.495 789.622 117.167 791.302 117.167V112.797C790.798 112.797 790.462 112.629 790.126 112.46Z" fill="white"/>
        <path opacity="0.3" d="M791.806 112.965V117.335C793.486 117.335 794.998 116.663 796.006 115.654L792.982 112.629C792.646 112.797 792.31 112.965 791.806 112.965Z" fill="white"/>
        <path opacity="0.3" d="M789.454 108.93L786.43 105.905C785.422 107.081 784.75 108.594 784.75 110.275H789.118C789.118 109.771 789.286 109.267 789.454 108.93Z" fill="white"/>
        <path opacity="0.3" d="M789.118 110.948H784.75C784.918 112.629 785.59 113.973 786.598 115.15L789.622 112.124C789.286 111.62 789.118 111.284 789.118 110.948Z" fill="white"/>
        <path opacity="0.3" d="M791.134 107.754V103.383C789.454 103.551 787.942 104.224 786.766 105.232L789.79 108.258C790.294 108.09 790.63 107.922 791.134 107.754Z" fill="white"/>
        <path d="M791.806 102.375C791.302 102.375 790.63 102.375 790.126 102.543C786.43 103.215 783.742 106.409 783.742 110.275C783.742 114.646 787.27 118.176 791.638 118.176C793.822 118.176 795.838 117.335 797.182 115.822C798.694 114.31 799.534 112.46 799.534 110.275C799.702 105.905 796.174 102.375 791.806 102.375ZM794.326 110.275C794.326 109.771 794.158 109.267 793.822 108.762L796.846 105.737C797.854 106.913 798.526 108.426 798.694 110.275H794.326ZM787.102 115.486L790.126 112.46C790.462 112.629 790.798 112.797 791.302 112.965V117.335C789.622 117.167 788.11 116.495 787.102 115.486ZM793.318 108.258C792.982 107.922 792.478 107.754 791.806 107.754V103.383C793.486 103.383 795.166 104.056 796.342 105.232L793.318 108.258ZM789.118 110.275H784.75C784.75 108.594 785.422 107.081 786.43 105.905L789.454 108.93C789.286 109.267 789.118 109.771 789.118 110.275ZM789.118 110.948C789.286 111.452 789.454 111.788 789.622 112.124L786.598 115.15C785.59 113.973 784.918 112.629 784.75 110.948H789.118ZM791.638 112.46C790.462 112.46 789.454 111.452 789.454 110.275C789.454 109.099 790.462 108.09 791.638 108.09C792.478 108.09 793.15 108.594 793.486 109.267V109.435C793.654 109.603 793.654 109.939 793.654 110.275C793.654 110.611 793.654 110.78 793.486 111.116C793.318 111.956 792.646 112.46 791.638 112.46ZM791.806 112.965C792.31 112.965 792.646 112.797 792.982 112.629L796.006 115.654C794.83 116.663 793.318 117.335 791.806 117.335V112.965ZM791.134 103.383V107.754C790.63 107.922 790.126 108.09 789.79 108.426L786.766 105.4C787.942 104.224 789.454 103.551 791.134 103.383ZM796.678 115.15L793.654 112.124C793.99 111.788 794.158 111.284 794.326 110.779H798.694C798.358 112.629 797.686 114.141 796.678 115.15Z" fill="white"/>
    </g>
    <g class="is-hidden-eje">
        <path d="M835.822 128.598C845.935 128.598 854.134 120.394 854.134 110.275C854.134 100.156 845.935 91.9527 835.822 91.9527C825.708 91.9527 817.51 100.156 817.51 110.275C817.51 120.394 825.708 128.598 835.822 128.598Z" fill="#3B5266"/>
        <path d="M823.557 110.275C823.557 105.4 826.246 101.366 830.278 99.1808L829.606 98.1722C825.237 100.526 822.213 105.064 822.213 110.275C822.213 115.486 825.237 120.025 829.606 122.378L830.278 121.37C826.246 119.352 823.557 115.15 823.557 110.275Z" fill="#76C1AA"/>
        <path d="M842.206 98.1722L841.702 99.1808C845.734 101.198 848.59 105.4 848.59 110.275C848.59 115.15 845.734 119.352 841.702 121.37L842.206 122.378C846.574 120.025 849.598 115.486 849.598 110.275C849.598 105.064 846.574 100.526 842.206 98.1722Z" fill="#76C1AA"/>
        <path opacity="0.3" d="M835.822 112.965C837.306 112.965 838.51 111.761 838.51 110.275C838.51 108.79 837.306 107.586 835.822 107.586C834.337 107.586 833.134 108.79 833.134 110.275C833.134 111.761 834.337 112.965 835.822 112.965Z" fill="white"/>
        <path opacity="0.3" d="M837.502 108.258L840.526 105.232C839.35 104.056 837.838 103.383 835.99 103.383V107.754C836.662 107.754 837.166 107.922 837.502 108.258Z" fill="white"/>
        <path opacity="0.3" d="M838.51 110.275H842.878C842.878 108.594 842.206 106.913 841.03 105.737L838.006 108.762C838.174 109.267 838.51 109.771 838.51 110.275Z" fill="white"/>
        <path opacity="0.3" d="M837.838 112.124L840.862 115.15C842.038 113.973 842.71 112.461 842.71 110.78H838.342C838.342 111.452 838.006 111.788 837.838 112.124Z" fill="white"/>
        <path opacity="0.3" d="M834.31 112.46L831.286 115.486C832.462 116.495 833.806 117.167 835.486 117.167V112.797C834.982 112.797 834.646 112.629 834.31 112.46Z" fill="white"/>
        <path opacity="0.3" d="M835.99 112.965V117.335C837.67 117.335 839.182 116.663 840.19 115.654L837.166 112.629C836.83 112.797 836.494 112.965 835.99 112.965Z" fill="white"/>
        <path opacity="0.3" d="M833.638 108.93L830.614 105.905C829.606 107.081 828.934 108.594 828.934 110.275H833.302C833.302 109.771 833.302 109.267 833.638 108.93Z" fill="white"/>
        <path opacity="0.3" d="M833.302 110.948H828.934C829.102 112.629 829.774 113.973 830.782 115.15L833.806 112.124C833.47 111.62 833.302 111.284 833.302 110.948Z" fill="white"/>
        <path opacity="0.3" d="M835.318 107.754V103.383C833.638 103.551 832.126 104.224 830.95 105.232L833.974 108.258C834.478 108.09 834.814 107.922 835.318 107.754Z" fill="white"/>
        <path d="M835.99 102.375C835.486 102.375 834.814 102.375 834.31 102.543C830.614 103.215 827.926 106.409 827.926 110.275C827.926 114.646 831.454 118.176 835.822 118.176C838.006 118.176 840.022 117.335 841.366 115.822C842.878 114.31 843.718 112.46 843.718 110.275C843.886 105.905 840.358 102.375 835.99 102.375ZM838.51 110.275C838.51 109.771 838.342 109.267 838.006 108.762L841.03 105.737C842.038 106.913 842.71 108.426 842.878 110.275H838.51ZM831.286 115.486L834.31 112.46C834.646 112.629 834.982 112.797 835.486 112.965V117.335C833.806 117.167 832.294 116.495 831.286 115.486ZM837.502 108.258C837.166 107.922 836.662 107.754 835.99 107.754V103.383C837.67 103.383 839.35 104.056 840.526 105.232L837.502 108.258ZM833.302 110.275H828.934C828.934 108.594 829.606 107.081 830.614 105.905L833.638 108.93C833.302 109.267 833.302 109.771 833.302 110.275ZM833.302 110.948C833.47 111.452 833.638 111.788 833.806 112.124L830.782 115.15C829.774 113.973 829.102 112.629 828.934 110.948H833.302ZM835.822 112.46C834.646 112.46 833.638 111.452 833.638 110.275C833.638 109.099 834.646 108.09 835.822 108.09C836.662 108.09 837.334 108.594 837.67 109.267V109.435C837.838 109.603 837.838 109.939 837.838 110.275C837.838 110.611 837.838 110.78 837.67 111.116C837.502 111.956 836.83 112.46 835.822 112.46ZM835.99 112.965C836.494 112.965 836.83 112.797 837.166 112.629L840.19 115.654C839.014 116.663 837.502 117.335 835.99 117.335V112.965ZM835.318 103.383V107.754C834.814 107.922 834.31 108.09 833.974 108.426L830.95 105.4C832.126 104.224 833.638 103.551 835.318 103.383ZM840.862 115.15L837.838 112.124C838.174 111.788 838.342 111.284 838.51 110.779H842.878C842.542 112.629 841.87 114.141 840.862 115.15Z" fill="white"/>
    </g>
    <path d="M96.7856 95.4826C96.7856 95.4826 96.9536 95.4826 96.7856 95.4826C96.9536 95.4826 96.9536 95.4826 96.7856 95.4826C96.9536 95.4826 98.1296 95.3145 98.9696 94.6421C99.8096 93.6336 100.146 91.9526 99.4736 91.1121C99.1376 90.7759 98.6336 90.6078 98.1296 90.6078C97.6256 90.7759 97.2896 90.944 97.1216 91.4483C97.1216 91.6164 97.1216 91.6164 97.1216 91.7845C97.2896 91.7845 97.2896 91.7845 97.4576 91.7845C97.6256 91.6164 97.7936 91.6164 97.9616 91.6164C98.1296 91.6164 98.1296 91.7845 98.2976 91.9526C98.2976 92.1207 98.2976 92.2888 98.1296 92.4569L97.9616 92.625C97.6256 92.625 97.1216 92.2888 96.6176 91.7845C96.1136 91.2802 95.4416 90.944 94.9376 90.6078C94.0976 90.2716 91.5776 89.7673 89.8975 90.944C89.8975 90.944 88.8895 91.7845 88.7215 92.4569C88.3855 93.1293 88.3855 93.9698 88.5535 94.4741C88.3855 94.6422 88.2175 94.8103 88.2175 95.1465C88.2175 95.6508 88.7215 95.987 89.5615 96.1551C89.5615 96.3232 89.3935 96.3231 89.3935 96.4912C89.3935 96.9955 90.0656 97.4998 90.9056 97.4998C91.5776 97.4998 92.0816 97.3317 92.2496 96.9955C92.4176 97.3317 92.9216 97.4998 93.5936 97.4998C94.4336 97.4998 95.1056 96.9955 95.1056 96.4912C95.1056 96.3231 95.1056 96.1551 94.9376 96.1551C95.4416 96.1551 95.7776 95.9869 96.1136 95.6507C96.1136 95.6507 96.1136 95.6507 96.2816 95.6507C96.1136 95.6507 96.4496 95.4826 96.7856 95.4826ZM97.9616 94.6421C97.7936 94.8102 97.4576 94.8102 97.2896 94.8102C97.4576 93.8017 96.7856 92.7931 96.6176 92.2888C96.9536 92.625 97.2896 92.7931 97.6256 92.9612C97.7936 93.2974 98.1296 93.9698 97.9616 94.6421ZM96.1136 95.1465C96.1136 94.9784 95.9456 94.6422 95.7776 94.306C95.4416 93.6336 94.7696 92.625 93.0896 92.1207C90.9056 91.4483 89.8975 91.7845 89.3935 92.1207C89.3935 92.1207 89.3935 92.1207 89.5615 91.9526C89.7295 91.7845 89.8976 91.6164 90.0656 91.4483C90.7376 91.1121 91.9136 91.1121 93.5936 91.6164C95.7776 92.2888 96.4496 93.8017 96.6176 94.4741C96.6176 94.6422 96.7856 94.9784 96.7856 95.1465C96.7856 95.1465 96.7856 95.1465 96.6176 95.1465C96.2816 95.1465 96.2816 95.1465 96.1136 95.1465ZM92.9216 93.1293C92.5856 93.1293 92.4176 93.2974 92.2496 93.4655C91.9136 93.1293 91.5776 92.9612 90.9056 92.9612C90.7376 92.9612 90.5696 92.9612 90.4016 92.9612C90.9056 92.7931 91.5776 92.7931 92.2496 92.7931C92.4176 92.9612 92.5856 92.9612 92.9216 93.1293ZM90.9056 93.4655C91.4096 93.4655 91.9136 93.8017 91.9136 93.9698C91.9136 94.1379 91.7456 94.306 91.5776 94.306H91.4096C91.2416 94.306 91.0736 94.306 90.9056 94.306C90.4016 94.306 89.8975 93.9698 89.8975 93.8017C89.8975 93.6336 90.2336 93.4655 90.9056 93.4655ZM91.5776 94.8102H91.7456C91.9136 94.8102 91.9136 94.8102 92.0816 94.8102C92.7536 94.8102 93.0896 95.1465 93.0896 95.3146C93.0896 95.4827 92.5856 95.8188 92.0816 95.8188C91.4096 95.8188 91.0735 95.4827 91.0735 95.3146C91.0735 95.1465 91.2416 94.9783 91.5776 94.8102ZM92.4176 93.9698C92.4176 93.8017 92.9216 93.4655 93.4256 93.4655C93.5936 93.4655 93.5936 93.4655 93.7616 93.4655C94.0976 93.4655 94.4336 93.8017 94.4336 93.9698C94.4336 94.1379 94.2656 94.306 93.9296 94.4741C93.7616 94.4741 93.5936 94.4741 93.4256 94.4741C92.7536 94.4741 92.4176 94.1379 92.4176 93.9698ZM89.2255 94.306C89.2255 94.1379 89.2255 94.1379 89.2255 93.9698C89.2255 93.8017 89.3935 93.6336 89.5615 93.4655C89.3935 93.6336 89.3935 93.8017 89.3935 93.9698C89.3935 94.1379 89.3935 94.306 89.5615 94.306C89.3935 94.306 89.3935 94.306 89.2255 94.306ZM88.5535 95.3146C88.5535 95.1465 88.7215 95.1465 88.8896 94.9784C89.0576 94.9784 89.2255 94.8102 89.3935 94.8102C89.5615 94.8102 89.5616 94.8102 89.7296 94.8102C90.4016 94.8102 90.7376 95.1465 90.7376 95.3146C90.7376 95.4827 90.5696 95.4826 90.5696 95.6507C90.4016 95.8188 90.0656 95.8188 89.7296 95.8188C88.8896 95.8188 88.5535 95.4827 88.5535 95.3146ZM90.7376 97.1636C90.0655 97.1636 89.7296 96.9955 89.7296 96.6593C89.7296 96.4912 90.2335 96.1551 90.7376 96.1551C91.0736 96.1551 91.2416 96.155 91.5776 96.3231C91.5776 96.3231 91.7456 96.4912 91.7456 96.6593C91.7456 96.9955 91.2416 97.1636 90.7376 97.1636ZM93.4256 97.1636C92.7536 97.1636 92.4176 96.8274 92.4176 96.6593C92.4176 96.6593 92.4176 96.4912 92.5856 96.4912C92.7536 96.3231 93.0896 96.1551 93.4256 96.1551C93.5936 96.1551 93.7616 96.1551 93.9296 96.1551C94.2656 96.3232 94.4336 96.4912 94.4336 96.6593C94.4336 96.9955 93.9296 97.1636 93.4256 97.1636ZM95.6096 95.4826C95.4416 95.6507 95.1056 95.8188 94.6016 95.8188C94.4336 95.8188 94.2656 95.8188 94.0976 95.8188C93.7616 95.6507 93.5936 95.4827 93.5936 95.3146C93.5936 95.1465 93.7616 94.9783 94.0976 94.8102C94.2656 94.8102 94.4336 94.8102 94.6016 94.8102C94.7696 94.8102 94.7696 94.8102 94.9376 94.8102C95.2736 94.9783 95.6096 95.1464 95.6096 95.4826C95.6096 95.3145 95.6096 95.4826 95.6096 95.4826Z" fill="white"/>
    <path d="M108.882 90.1036V77.8325C108.882 77.6644 108.882 77.4963 108.714 77.4963C108.546 77.4963 108.378 77.4963 108.378 77.4963L107.034 78.1687V73.7982C107.034 73.6301 107.034 73.462 106.866 73.462C106.698 73.462 106.53 73.462 106.53 73.462L100.482 77.3282H100.314C99.3056 77.6644 98.2976 77.8325 97.4576 77.8325C94.6016 77.8325 93.5936 75.9835 93.5936 75.9835C93.5936 75.8154 93.4256 75.8154 93.2576 75.8154C93.0896 75.8154 92.9216 75.9835 92.9216 75.9835C92.9216 75.9835 91.9136 77.8325 89.0576 77.8325C88.2176 77.8325 87.2096 77.6644 86.2016 77.3282L80.1535 73.462C79.9855 73.462 79.8175 73.462 79.6495 73.462C79.4815 73.462 79.4815 73.6301 79.4815 73.7982V78.1687L78.3055 77.4963C78.1375 77.4963 77.9695 77.4963 77.9695 77.4963C77.8015 77.4963 77.8015 77.6644 77.8015 77.8325V90.1036C77.8015 90.2717 77.8015 93.2974 80.3215 95.6508C82.5055 97.836 85.8656 99.0127 90.4016 99.0127C90.4016 99.0127 90.4016 99.0127 90.5696 99.0127C92.2496 99.517 93.2576 99.8532 93.2576 101.366C93.2576 101.534 93.4256 101.702 93.5936 101.702C93.7616 101.702 93.9296 101.534 93.9296 101.366C93.9296 100.021 94.9376 99.517 96.6176 99.0127H96.7856C101.322 99.0127 104.682 97.836 106.866 95.6508C108.882 93.1293 108.882 90.2717 108.882 90.1036ZM87.3776 86.4055C87.8816 86.2374 88.0496 85.2288 88.0496 85.2288C88.0496 85.2288 88.8896 85.7331 89.3936 85.565C89.3936 85.7331 89.3936 86.2373 89.3936 86.2373C89.3936 86.2373 89.2256 86.5736 89.3936 86.9098C89.5616 87.0779 89.5616 87.4141 89.5616 87.7503C89.2256 87.7503 89.0576 87.7503 88.7216 87.7503C88.2176 87.7503 87.7136 87.7503 87.3776 87.7503C87.3776 87.0779 87.3776 86.9097 87.3776 86.4055ZM96.7856 85.7331H97.7936C97.7936 86.2374 97.7936 86.7417 97.9616 87.5822L96.7856 87.414C96.7856 86.7417 96.7856 86.2374 96.7856 85.7331ZM105.018 87.414C104.346 88.0864 103.338 88.4226 102.162 88.4226C101.826 87.5822 101.658 86.7417 101.658 86.0693L106.194 83.5478C106.194 83.884 106.194 86.0693 105.018 87.414ZM80.1535 83.5478L84.6896 86.0693C84.6896 86.7417 84.5216 87.5822 84.1856 88.4226C83.0095 88.4226 82.1695 88.0864 81.4975 87.414C80.1535 86.0693 80.1535 83.884 80.1535 83.5478ZM108.042 78.5049V86.0693L106.026 87.2459C107.034 85.565 107.034 83.7159 107.034 83.3797V79.0092L108.042 78.5049ZM106.194 78.673L102.834 80.6902C102.666 80.5221 102.162 79.8497 100.986 78.0006L106.194 74.6387V78.673ZM97.2896 78.673C98.1296 78.673 99.1376 78.5049 100.146 78.1687C101.322 79.8497 101.826 80.6902 102.162 81.0264C101.658 81.8669 100.146 84.7245 101.322 88.2545C100.818 87.7502 99.6416 87.5822 98.4656 87.5822C98.2976 86.7417 98.2976 86.2374 98.2976 85.7331H100.146C100.314 85.7331 100.314 85.3969 100.314 85.0607V83.3797C100.314 82.035 99.6416 82.0349 99.6416 82.0349C99.6416 82.0349 99.1376 82.0349 98.9696 81.3625C98.8016 80.6902 98.2976 80.1859 97.7936 80.1859C97.2896 80.1859 96.2816 80.5221 95.6096 81.0264C95.1056 81.1945 95.1056 81.5306 95.1056 82.0349C94.9376 83.2116 94.6016 83.0435 94.6016 83.0435C94.4336 83.0435 94.2656 83.2116 94.2656 83.5478V85.2288C94.2656 85.565 94.4336 85.9012 94.6016 85.9012H96.4496C96.4496 86.4055 96.4496 86.9098 96.2816 87.7503C95.1056 87.7503 94.0976 88.0865 93.4256 88.5907V77.3282C93.9296 77.8325 95.2736 78.673 97.2896 78.673ZM92.5856 77.3282V88.0864C92.0816 87.7502 91.2416 87.5822 90.2336 87.5822C90.0656 87.0779 90.0656 85.7331 90.2336 85.3969C91.0736 85.2288 91.0736 84.3883 91.0736 83.7159C91.0736 83.2116 90.9056 81.3625 90.9056 81.3625L91.4096 81.1944C91.5776 81.1944 91.5776 81.1945 91.5776 81.0264C91.5776 80.8583 91.5776 80.6902 91.5776 80.6902L91.0736 80.5221C90.9056 80.354 90.7376 80.1859 90.5696 80.1859C90.4016 80.1859 90.0656 80.1859 89.8976 80.5221C89.7296 80.354 89.3936 80.5221 89.2256 80.5221C89.2256 80.5221 89.2256 81.3625 90.0656 81.1944L90.2336 83.3797C90.2336 83.3797 90.2336 83.884 89.7296 83.7159C89.2256 83.5478 88.2176 83.2116 87.5456 83.3797C87.2096 83.5478 86.7056 83.7159 86.3696 84.5564C86.0336 85.3969 86.5376 85.0607 86.5376 85.0607L87.0416 84.7245C87.0416 84.7245 87.3776 85.3969 87.0416 85.9012C86.7056 86.2374 86.8735 86.5736 86.8735 86.5736C86.8735 86.5736 87.0416 87.4141 87.0416 87.7503C86.2016 87.7503 85.5296 88.0864 85.0256 88.2545C86.0336 84.7245 84.6896 81.8669 84.1856 81.0264C84.5216 80.6902 85.0255 79.8497 86.2016 78.1687C87.2096 78.5049 88.2176 78.673 89.0576 78.673C90.7376 78.673 91.7456 78.0006 92.5856 77.3282ZM80.1535 74.6387L85.3616 78.0006C84.3535 79.6816 83.6815 80.354 83.5135 80.6902L80.1535 78.8411V74.6387ZM79.3135 79.0092V83.3797C79.3135 83.5478 79.3135 85.565 80.3215 87.2459L78.3055 86.0693V78.5049L79.3135 79.0092ZM78.4735 91.2802L83.5135 94.1379C84.0175 95.4827 84.8575 96.3232 86.2016 97.4999C86.5376 97.836 87.0416 98.0041 87.3776 98.1722C84.3535 97.836 82.0015 96.8275 80.4895 95.1465C79.1455 93.8017 78.6415 92.2888 78.4735 91.2802ZM93.0896 99.8532C92.4176 98.8446 91.2416 98.5084 89.8976 98.1722C88.7216 97.836 87.5456 97.4999 86.5376 96.6594C84.0175 94.8103 83.1775 93.1293 84.5215 89.2631H101.658C103.002 93.1293 102.162 94.6422 99.6416 96.6594C98.6336 97.3318 97.4576 97.836 96.2816 98.0041C94.9376 98.5084 93.7616 99.0127 93.0896 99.8532ZM105.858 95.1465C104.178 96.8275 101.826 97.836 98.8016 98.1722C99.3056 98.0041 99.6416 97.6679 99.9776 97.4999C101.322 96.4913 102.33 95.4827 102.666 94.306C102.666 94.306 102.666 94.306 102.834 94.306L107.874 91.4484C107.706 92.2888 107.202 93.8017 105.858 95.1465Z" fill="white"/>
    <path d="M93.0897 75.4791C95.4417 75.4791 97.1217 74.3025 97.1217 72.7896C97.1217 71.2767 95.2737 70.1 93.0897 70.1C90.7377 70.1 89.0576 71.2767 89.0576 72.7896C89.0576 74.3025 90.7377 75.311 93.0897 75.4791ZM93.0897 71.1086C94.2657 71.1086 95.1057 71.6129 95.1057 72.1172C95.1057 72.6215 94.6017 72.9577 93.9297 73.1258C93.2577 73.2939 93.4257 73.6301 93.0897 73.7982C92.7537 73.6301 92.9217 73.2939 92.2497 73.1258C91.5777 72.9577 91.0736 72.6215 91.0736 72.1172C91.0736 71.6129 91.9137 71.1086 93.0897 71.1086Z" fill="white"/>
</svg>
